<?xml version="1.0" encoding="utf-8" standalone="no"?>
<!DOCTYPE svg PUBLIC "-//W3C//DTD SVG 1.1//EN"
  "http://www.w3.org/Graphics/SVG/1.1/DTD/svg11.dtd">
<svg xmlns:xlink="http://www.w3.org/1999/xlink" width="928.537812pt" height="369.99625pt" viewBox="0 0 928.537812 369.99625" xmlns="http://www.w3.org/2000/svg" version="1.1">
 <metadata>
  <rdf:RDF xmlns:dc="http://purl.org/dc/elements/1.1/" xmlns:cc="http://creativecommons.org/ns#" xmlns:rdf="http://www.w3.org/1999/02/22-rdf-syntax-ns#">
   <cc:Work>
    <dc:type rdf:resource="http://purl.org/dc/dcmitype/StillImage"/>
    <dc:date>2026-02-22T22:28:08.997993</dc:date>
    <dc:format>image/svg+xml</dc:format>
    <dc:creator>
     <cc:Agent>
      <dc:title>Matplotlib v3.10.8, https://matplotlib.org/</dc:title>
     </cc:Agent>
    </dc:creator>
   </cc:Work>
  </rdf:RDF>
 </metadata>
 <defs>
  <style type="text/css">*{stroke-linejoin: round; stroke-linecap: butt}</style>
 </defs>
 <g id="figure_1">
  <g id="patch_1">
   <path d="M 0 369.99625 
L 928.537812 369.99625 
L 928.537812 0 
L 0 0 
z
" style="fill: #0a0a0f"/>
  </g>
  <g id="axes_1">
   <g id="patch_2">
    <path d="M 43.78125 332.44 
L 451.37125 332.44 
L 451.37125 65.04 
L 43.78125 65.04 
z
" style="fill: #111118"/>
   </g>
   <g id="matplotlib.axis_1">
    <g id="xtick_1">
     <g id="line2d_1">
      <defs>
       <path id="mc74743aa04" d="M 0 0 
L 0 3.5 
" style="stroke: #6b7280; stroke-width: 0.8"/>
      </defs>
      <g>
       <use xlink:href="#mc74743aa04" x="43.78125" y="332.44" style="fill: #6b7280; stroke: #6b7280; stroke-width: 0.8"/>
      </g>
     </g>
     <g id="text_1">
      <!-- 0.0 -->
      <g style="fill: #6b7280" transform="translate(35.829688 347.038437) scale(0.1 -0.1)">
       <defs>
        <path id="DejaVuSans-30" d="M 2034 4250 
Q 1547 4250 1301 3770 
Q 1056 3291 1056 2328 
Q 1056 1369 1301 889 
Q 1547 409 2034 409 
Q 2525 409 2770 889 
Q 3016 1369 3016 2328 
Q 3016 3291 2770 3770 
Q 2525 4250 2034 4250 
z
M 2034 4750 
Q 2819 4750 3233 4129 
Q 3647 3509 3647 2328 
Q 3647 1150 3233 529 
Q 2819 -91 2034 -91 
Q 1250 -91 836 529 
Q 422 1150 422 2328 
Q 422 3509 836 4129 
Q 1250 4750 2034 4750 
z
" transform="scale(0.015625)"/>
        <path id="DejaVuSans-2e" d="M 684 794 
L 1344 794 
L 1344 0 
L 684 0 
L 684 794 
z
" transform="scale(0.015625)"/>
       </defs>
       <use xlink:href="#DejaVuSans-30"/>
       <use xlink:href="#DejaVuSans-2e" transform="translate(63.623047 0)"/>
       <use xlink:href="#DejaVuSans-30" transform="translate(95.410156 0)"/>
      </g>
     </g>
    </g>
    <g id="xtick_2">
     <g id="line2d_2">
      <g>
       <use xlink:href="#mc74743aa04" x="111.712917" y="332.44" style="fill: #6b7280; stroke: #6b7280; stroke-width: 0.8"/>
      </g>
     </g>
     <g id="text_2">
      <!-- 0.5 -->
      <g style="fill: #6b7280" transform="translate(103.761354 347.038437) scale(0.1 -0.1)">
       <defs>
        <path id="DejaVuSans-35" d="M 691 4666 
L 3169 4666 
L 3169 4134 
L 1269 4134 
L 1269 2991 
Q 1406 3038 1543 3061 
Q 1681 3084 1819 3084 
Q 2600 3084 3056 2656 
Q 3513 2228 3513 1497 
Q 3513 744 3044 326 
Q 2575 -91 1722 -91 
Q 1428 -91 1123 -41 
Q 819 9 494 109 
L 494 744 
Q 775 591 1075 516 
Q 1375 441 1709 441 
Q 2250 441 2565 725 
Q 2881 1009 2881 1497 
Q 2881 1984 2565 2268 
Q 2250 2553 1709 2553 
Q 1456 2553 1204 2497 
Q 953 2441 691 2322 
L 691 4666 
z
" transform="scale(0.015625)"/>
       </defs>
       <use xlink:href="#DejaVuSans-30"/>
       <use xlink:href="#DejaVuSans-2e" transform="translate(63.623047 0)"/>
       <use xlink:href="#DejaVuSans-35" transform="translate(95.410156 0)"/>
      </g>
     </g>
    </g>
    <g id="xtick_3">
     <g id="line2d_3">
      <g>
       <use xlink:href="#mc74743aa04" x="179.644583" y="332.44" style="fill: #6b7280; stroke: #6b7280; stroke-width: 0.8"/>
      </g>
     </g>
     <g id="text_3">
      <!-- 1.0 -->
      <g style="fill: #6b7280" transform="translate(171.693021 347.038437) scale(0.1 -0.1)">
       <defs>
        <path id="DejaVuSans-31" d="M 794 531 
L 1825 531 
L 1825 4091 
L 703 3866 
L 703 4441 
L 1819 4666 
L 2450 4666 
L 2450 531 
L 3481 531 
L 3481 0 
L 794 0 
L 794 531 
z
" transform="scale(0.015625)"/>
       </defs>
       <use xlink:href="#DejaVuSans-31"/>
       <use xlink:href="#DejaVuSans-2e" transform="translate(63.623047 0)"/>
       <use xlink:href="#DejaVuSans-30" transform="translate(95.410156 0)"/>
      </g>
     </g>
    </g>
    <g id="xtick_4">
     <g id="line2d_4">
      <g>
       <use xlink:href="#mc74743aa04" x="247.57625" y="332.44" style="fill: #6b7280; stroke: #6b7280; stroke-width: 0.8"/>
      </g>
     </g>
     <g id="text_4">
      <!-- 1.5 -->
      <g style="fill: #6b7280" transform="translate(239.624688 347.038437) scale(0.1 -0.1)">
       <use xlink:href="#DejaVuSans-31"/>
       <use xlink:href="#DejaVuSans-2e" transform="translate(63.623047 0)"/>
       <use xlink:href="#DejaVuSans-35" transform="translate(95.410156 0)"/>
      </g>
     </g>
    </g>
    <g id="xtick_5">
     <g id="line2d_5">
      <g>
       <use xlink:href="#mc74743aa04" x="315.507917" y="332.44" style="fill: #6b7280; stroke: #6b7280; stroke-width: 0.8"/>
      </g>
     </g>
     <g id="text_5">
      <!-- 2.0 -->
      <g style="fill: #6b7280" transform="translate(307.556354 347.038437) scale(0.1 -0.1)">
       <defs>
        <path id="DejaVuSans-32" d="M 1228 531 
L 3431 531 
L 3431 0 
L 469 0 
L 469 531 
Q 828 903 1448 1529 
Q 2069 2156 2228 2338 
Q 2531 2678 2651 2914 
Q 2772 3150 2772 3378 
Q 2772 3750 2511 3984 
Q 2250 4219 1831 4219 
Q 1534 4219 1204 4116 
Q 875 4013 500 3803 
L 500 4441 
Q 881 4594 1212 4672 
Q 1544 4750 1819 4750 
Q 2544 4750 2975 4387 
Q 3406 4025 3406 3419 
Q 3406 3131 3298 2873 
Q 3191 2616 2906 2266 
Q 2828 2175 2409 1742 
Q 1991 1309 1228 531 
z
" transform="scale(0.015625)"/>
       </defs>
       <use xlink:href="#DejaVuSans-32"/>
       <use xlink:href="#DejaVuSans-2e" transform="translate(63.623047 0)"/>
       <use xlink:href="#DejaVuSans-30" transform="translate(95.410156 0)"/>
      </g>
     </g>
    </g>
    <g id="xtick_6">
     <g id="line2d_6">
      <g>
       <use xlink:href="#mc74743aa04" x="383.439583" y="332.44" style="fill: #6b7280; stroke: #6b7280; stroke-width: 0.8"/>
      </g>
     </g>
     <g id="text_6">
      <!-- 2.5 -->
      <g style="fill: #6b7280" transform="translate(375.488021 347.038437) scale(0.1 -0.1)">
       <use xlink:href="#DejaVuSans-32"/>
       <use xlink:href="#DejaVuSans-2e" transform="translate(63.623047 0)"/>
       <use xlink:href="#DejaVuSans-35" transform="translate(95.410156 0)"/>
      </g>
     </g>
    </g>
    <g id="xtick_7">
     <g id="line2d_7">
      <g>
       <use xlink:href="#mc74743aa04" x="451.37125" y="332.44" style="fill: #6b7280; stroke: #6b7280; stroke-width: 0.8"/>
      </g>
     </g>
     <g id="text_7">
      <!-- 3.0 -->
      <g style="fill: #6b7280" transform="translate(443.419688 347.038437) scale(0.1 -0.1)">
       <defs>
        <path id="DejaVuSans-33" d="M 2597 2516 
Q 3050 2419 3304 2112 
Q 3559 1806 3559 1356 
Q 3559 666 3084 287 
Q 2609 -91 1734 -91 
Q 1441 -91 1130 -33 
Q 819 25 488 141 
L 488 750 
Q 750 597 1062 519 
Q 1375 441 1716 441 
Q 2309 441 2620 675 
Q 2931 909 2931 1356 
Q 2931 1769 2642 2001 
Q 2353 2234 1838 2234 
L 1294 2234 
L 1294 2753 
L 1863 2753 
Q 2328 2753 2575 2939 
Q 2822 3125 2822 3475 
Q 2822 3834 2567 4026 
Q 2313 4219 1838 4219 
Q 1578 4219 1281 4162 
Q 984 4106 628 3988 
L 628 4550 
Q 988 4650 1302 4700 
Q 1616 4750 1894 4750 
Q 2613 4750 3031 4423 
Q 3450 4097 3450 3541 
Q 3450 3153 3228 2886 
Q 3006 2619 2597 2516 
z
" transform="scale(0.015625)"/>
       </defs>
       <use xlink:href="#DejaVuSans-33"/>
       <use xlink:href="#DejaVuSans-2e" transform="translate(63.623047 0)"/>
       <use xlink:href="#DejaVuSans-30" transform="translate(95.410156 0)"/>
      </g>
     </g>
    </g>
    <g id="text_8">
     <!-- Void score per dimension (0–3) -->
     <g style="fill: #9ca3af" transform="translate(170.160625 360.716562) scale(0.1 -0.1)">
      <defs>
       <path id="DejaVuSans-56" d="M 1831 0 
L 50 4666 
L 709 4666 
L 2188 738 
L 3669 4666 
L 4325 4666 
L 2547 0 
L 1831 0 
z
" transform="scale(0.015625)"/>
       <path id="DejaVuSans-6f" d="M 1959 3097 
Q 1497 3097 1228 2736 
Q 959 2375 959 1747 
Q 959 1119 1226 758 
Q 1494 397 1959 397 
Q 2419 397 2687 759 
Q 2956 1122 2956 1747 
Q 2956 2369 2687 2733 
Q 2419 3097 1959 3097 
z
M 1959 3584 
Q 2709 3584 3137 3096 
Q 3566 2609 3566 1747 
Q 3566 888 3137 398 
Q 2709 -91 1959 -91 
Q 1206 -91 779 398 
Q 353 888 353 1747 
Q 353 2609 779 3096 
Q 1206 3584 1959 3584 
z
" transform="scale(0.015625)"/>
       <path id="DejaVuSans-69" d="M 603 3500 
L 1178 3500 
L 1178 0 
L 603 0 
L 603 3500 
z
M 603 4863 
L 1178 4863 
L 1178 4134 
L 603 4134 
L 603 4863 
z
" transform="scale(0.015625)"/>
       <path id="DejaVuSans-64" d="M 2906 2969 
L 2906 4863 
L 3481 4863 
L 3481 0 
L 2906 0 
L 2906 525 
Q 2725 213 2448 61 
Q 2172 -91 1784 -91 
Q 1150 -91 751 415 
Q 353 922 353 1747 
Q 353 2572 751 3078 
Q 1150 3584 1784 3584 
Q 2172 3584 2448 3432 
Q 2725 3281 2906 2969 
z
M 947 1747 
Q 947 1113 1208 752 
Q 1469 391 1925 391 
Q 2381 391 2643 752 
Q 2906 1113 2906 1747 
Q 2906 2381 2643 2742 
Q 2381 3103 1925 3103 
Q 1469 3103 1208 2742 
Q 947 2381 947 1747 
z
" transform="scale(0.015625)"/>
       <path id="DejaVuSans-20" transform="scale(0.015625)"/>
       <path id="DejaVuSans-73" d="M 2834 3397 
L 2834 2853 
Q 2591 2978 2328 3040 
Q 2066 3103 1784 3103 
Q 1356 3103 1142 2972 
Q 928 2841 928 2578 
Q 928 2378 1081 2264 
Q 1234 2150 1697 2047 
L 1894 2003 
Q 2506 1872 2764 1633 
Q 3022 1394 3022 966 
Q 3022 478 2636 193 
Q 2250 -91 1575 -91 
Q 1294 -91 989 -36 
Q 684 19 347 128 
L 347 722 
Q 666 556 975 473 
Q 1284 391 1588 391 
Q 1994 391 2212 530 
Q 2431 669 2431 922 
Q 2431 1156 2273 1281 
Q 2116 1406 1581 1522 
L 1381 1569 
Q 847 1681 609 1914 
Q 372 2147 372 2553 
Q 372 3047 722 3315 
Q 1072 3584 1716 3584 
Q 2034 3584 2315 3537 
Q 2597 3491 2834 3397 
z
" transform="scale(0.015625)"/>
       <path id="DejaVuSans-63" d="M 3122 3366 
L 3122 2828 
Q 2878 2963 2633 3030 
Q 2388 3097 2138 3097 
Q 1578 3097 1268 2742 
Q 959 2388 959 1747 
Q 959 1106 1268 751 
Q 1578 397 2138 397 
Q 2388 397 2633 464 
Q 2878 531 3122 666 
L 3122 134 
Q 2881 22 2623 -34 
Q 2366 -91 2075 -91 
Q 1284 -91 818 406 
Q 353 903 353 1747 
Q 353 2603 823 3093 
Q 1294 3584 2113 3584 
Q 2378 3584 2631 3529 
Q 2884 3475 3122 3366 
z
" transform="scale(0.015625)"/>
       <path id="DejaVuSans-72" d="M 2631 2963 
Q 2534 3019 2420 3045 
Q 2306 3072 2169 3072 
Q 1681 3072 1420 2755 
Q 1159 2438 1159 1844 
L 1159 0 
L 581 0 
L 581 3500 
L 1159 3500 
L 1159 2956 
Q 1341 3275 1631 3429 
Q 1922 3584 2338 3584 
Q 2397 3584 2469 3576 
Q 2541 3569 2628 3553 
L 2631 2963 
z
" transform="scale(0.015625)"/>
       <path id="DejaVuSans-65" d="M 3597 1894 
L 3597 1613 
L 953 1613 
Q 991 1019 1311 708 
Q 1631 397 2203 397 
Q 2534 397 2845 478 
Q 3156 559 3463 722 
L 3463 178 
Q 3153 47 2828 -22 
Q 2503 -91 2169 -91 
Q 1331 -91 842 396 
Q 353 884 353 1716 
Q 353 2575 817 3079 
Q 1281 3584 2069 3584 
Q 2775 3584 3186 3129 
Q 3597 2675 3597 1894 
z
M 3022 2063 
Q 3016 2534 2758 2815 
Q 2500 3097 2075 3097 
Q 1594 3097 1305 2825 
Q 1016 2553 972 2059 
L 3022 2063 
z
" transform="scale(0.015625)"/>
       <path id="DejaVuSans-70" d="M 1159 525 
L 1159 -1331 
L 581 -1331 
L 581 3500 
L 1159 3500 
L 1159 2969 
Q 1341 3281 1617 3432 
Q 1894 3584 2278 3584 
Q 2916 3584 3314 3078 
Q 3713 2572 3713 1747 
Q 3713 922 3314 415 
Q 2916 -91 2278 -91 
Q 1894 -91 1617 61 
Q 1341 213 1159 525 
z
M 3116 1747 
Q 3116 2381 2855 2742 
Q 2594 3103 2138 3103 
Q 1681 3103 1420 2742 
Q 1159 2381 1159 1747 
Q 1159 1113 1420 752 
Q 1681 391 2138 391 
Q 2594 391 2855 752 
Q 3116 1113 3116 1747 
z
" transform="scale(0.015625)"/>
       <path id="DejaVuSans-6d" d="M 3328 2828 
Q 3544 3216 3844 3400 
Q 4144 3584 4550 3584 
Q 5097 3584 5394 3201 
Q 5691 2819 5691 2113 
L 5691 0 
L 5113 0 
L 5113 2094 
Q 5113 2597 4934 2840 
Q 4756 3084 4391 3084 
Q 3944 3084 3684 2787 
Q 3425 2491 3425 1978 
L 3425 0 
L 2847 0 
L 2847 2094 
Q 2847 2600 2669 2842 
Q 2491 3084 2119 3084 
Q 1678 3084 1418 2786 
Q 1159 2488 1159 1978 
L 1159 0 
L 581 0 
L 581 3500 
L 1159 3500 
L 1159 2956 
Q 1356 3278 1631 3431 
Q 1906 3584 2284 3584 
Q 2666 3584 2933 3390 
Q 3200 3197 3328 2828 
z
" transform="scale(0.015625)"/>
       <path id="DejaVuSans-6e" d="M 3513 2113 
L 3513 0 
L 2938 0 
L 2938 2094 
Q 2938 2591 2744 2837 
Q 2550 3084 2163 3084 
Q 1697 3084 1428 2787 
Q 1159 2491 1159 1978 
L 1159 0 
L 581 0 
L 581 3500 
L 1159 3500 
L 1159 2956 
Q 1366 3272 1645 3428 
Q 1925 3584 2291 3584 
Q 2894 3584 3203 3211 
Q 3513 2838 3513 2113 
z
" transform="scale(0.015625)"/>
       <path id="DejaVuSans-28" d="M 1984 4856 
Q 1566 4138 1362 3434 
Q 1159 2731 1159 2009 
Q 1159 1288 1364 580 
Q 1569 -128 1984 -844 
L 1484 -844 
Q 1016 -109 783 600 
Q 550 1309 550 2009 
Q 550 2706 781 3412 
Q 1013 4119 1484 4856 
L 1984 4856 
z
" transform="scale(0.015625)"/>
       <path id="DejaVuSans-2013" d="M 313 1978 
L 2888 1978 
L 2888 1528 
L 313 1528 
L 313 1978 
z
" transform="scale(0.015625)"/>
       <path id="DejaVuSans-29" d="M 513 4856 
L 1013 4856 
Q 1481 4119 1714 3412 
Q 1947 2706 1947 2009 
Q 1947 1309 1714 600 
Q 1481 -109 1013 -844 
L 513 -844 
Q 928 -128 1133 580 
Q 1338 1288 1338 2009 
Q 1338 2731 1133 3434 
Q 928 4138 513 4856 
z
" transform="scale(0.015625)"/>
      </defs>
      <use xlink:href="#DejaVuSans-56"/>
      <use xlink:href="#DejaVuSans-6f" transform="translate(60.658203 0)"/>
      <use xlink:href="#DejaVuSans-69" transform="translate(121.839844 0)"/>
      <use xlink:href="#DejaVuSans-64" transform="translate(149.623047 0)"/>
      <use xlink:href="#DejaVuSans-20" transform="translate(213.099609 0)"/>
      <use xlink:href="#DejaVuSans-73" transform="translate(244.886719 0)"/>
      <use xlink:href="#DejaVuSans-63" transform="translate(296.986328 0)"/>
      <use xlink:href="#DejaVuSans-6f" transform="translate(351.966797 0)"/>
      <use xlink:href="#DejaVuSans-72" transform="translate(413.148438 0)"/>
      <use xlink:href="#DejaVuSans-65" transform="translate(452.011719 0)"/>
      <use xlink:href="#DejaVuSans-20" transform="translate(513.535156 0)"/>
      <use xlink:href="#DejaVuSans-70" transform="translate(545.322266 0)"/>
      <use xlink:href="#DejaVuSans-65" transform="translate(608.798828 0)"/>
      <use xlink:href="#DejaVuSans-72" transform="translate(670.322266 0)"/>
      <use xlink:href="#DejaVuSans-20" transform="translate(711.435547 0)"/>
      <use xlink:href="#DejaVuSans-64" transform="translate(743.222656 0)"/>
      <use xlink:href="#DejaVuSans-69" transform="translate(806.699219 0)"/>
      <use xlink:href="#DejaVuSans-6d" transform="translate(834.482422 0)"/>
      <use xlink:href="#DejaVuSans-65" transform="translate(931.894531 0)"/>
      <use xlink:href="#DejaVuSans-6e" transform="translate(993.417969 0)"/>
      <use xlink:href="#DejaVuSans-73" transform="translate(1056.796875 0)"/>
      <use xlink:href="#DejaVuSans-69" transform="translate(1108.896484 0)"/>
      <use xlink:href="#DejaVuSans-6f" transform="translate(1136.679688 0)"/>
      <use xlink:href="#DejaVuSans-6e" transform="translate(1197.861328 0)"/>
      <use xlink:href="#DejaVuSans-20" transform="translate(1261.240234 0)"/>
      <use xlink:href="#DejaVuSans-28" transform="translate(1293.027344 0)"/>
      <use xlink:href="#DejaVuSans-30" transform="translate(1332.041016 0)"/>
      <use xlink:href="#DejaVuSans-2013" transform="translate(1395.664062 0)"/>
      <use xlink:href="#DejaVuSans-33" transform="translate(1445.664062 0)"/>
      <use xlink:href="#DejaVuSans-29" transform="translate(1509.287109 0)"/>
     </g>
    </g>
   </g>
   <g id="matplotlib.axis_2">
    <g id="ytick_1">
     <g id="line2d_8">
      <defs>
       <path id="m53fe28a81b" d="M 0 0 
L -3.5 0 
" style="stroke: #6b7280; stroke-width: 0.8"/>
      </defs>
      <g>
       <use xlink:href="#m53fe28a81b" x="43.78125" y="320.285455" style="fill: #6b7280; stroke: #6b7280; stroke-width: 0.8"/>
      </g>
     </g>
     <g id="text_9">
      <!-- 0.0 -->
      <g style="fill: #6b7280" transform="translate(20.878125 324.084673) scale(0.1 -0.1)">
       <use xlink:href="#DejaVuSans-30"/>
       <use xlink:href="#DejaVuSans-2e" transform="translate(63.623047 0)"/>
       <use xlink:href="#DejaVuSans-30" transform="translate(95.410156 0)"/>
      </g>
     </g>
    </g>
    <g id="ytick_2">
     <g id="line2d_9">
      <g>
       <use xlink:href="#m53fe28a81b" x="43.78125" y="271.667273" style="fill: #6b7280; stroke: #6b7280; stroke-width: 0.8"/>
      </g>
     </g>
     <g id="text_10">
      <!-- 0.2 -->
      <g style="fill: #6b7280" transform="translate(20.878125 275.466491) scale(0.1 -0.1)">
       <use xlink:href="#DejaVuSans-30"/>
       <use xlink:href="#DejaVuSans-2e" transform="translate(63.623047 0)"/>
       <use xlink:href="#DejaVuSans-32" transform="translate(95.410156 0)"/>
      </g>
     </g>
    </g>
    <g id="ytick_3">
     <g id="line2d_10">
      <g>
       <use xlink:href="#m53fe28a81b" x="43.78125" y="223.049091" style="fill: #6b7280; stroke: #6b7280; stroke-width: 0.8"/>
      </g>
     </g>
     <g id="text_11">
      <!-- 0.4 -->
      <g style="fill: #6b7280" transform="translate(20.878125 226.84831) scale(0.1 -0.1)">
       <defs>
        <path id="DejaVuSans-34" d="M 2419 4116 
L 825 1625 
L 2419 1625 
L 2419 4116 
z
M 2253 4666 
L 3047 4666 
L 3047 1625 
L 3713 1625 
L 3713 1100 
L 3047 1100 
L 3047 0 
L 2419 0 
L 2419 1100 
L 313 1100 
L 313 1709 
L 2253 4666 
z
" transform="scale(0.015625)"/>
       </defs>
       <use xlink:href="#DejaVuSans-30"/>
       <use xlink:href="#DejaVuSans-2e" transform="translate(63.623047 0)"/>
       <use xlink:href="#DejaVuSans-34" transform="translate(95.410156 0)"/>
      </g>
     </g>
    </g>
    <g id="ytick_4">
     <g id="line2d_11">
      <g>
       <use xlink:href="#m53fe28a81b" x="43.78125" y="174.430909" style="fill: #6b7280; stroke: #6b7280; stroke-width: 0.8"/>
      </g>
     </g>
     <g id="text_12">
      <!-- 0.6 -->
      <g style="fill: #6b7280" transform="translate(20.878125 178.230128) scale(0.1 -0.1)">
       <defs>
        <path id="DejaVuSans-36" d="M 2113 2584 
Q 1688 2584 1439 2293 
Q 1191 2003 1191 1497 
Q 1191 994 1439 701 
Q 1688 409 2113 409 
Q 2538 409 2786 701 
Q 3034 994 3034 1497 
Q 3034 2003 2786 2293 
Q 2538 2584 2113 2584 
z
M 3366 4563 
L 3366 3988 
Q 3128 4100 2886 4159 
Q 2644 4219 2406 4219 
Q 1781 4219 1451 3797 
Q 1122 3375 1075 2522 
Q 1259 2794 1537 2939 
Q 1816 3084 2150 3084 
Q 2853 3084 3261 2657 
Q 3669 2231 3669 1497 
Q 3669 778 3244 343 
Q 2819 -91 2113 -91 
Q 1303 -91 875 529 
Q 447 1150 447 2328 
Q 447 3434 972 4092 
Q 1497 4750 2381 4750 
Q 2619 4750 2861 4703 
Q 3103 4656 3366 4563 
z
" transform="scale(0.015625)"/>
       </defs>
       <use xlink:href="#DejaVuSans-30"/>
       <use xlink:href="#DejaVuSans-2e" transform="translate(63.623047 0)"/>
       <use xlink:href="#DejaVuSans-36" transform="translate(95.410156 0)"/>
      </g>
     </g>
    </g>
    <g id="ytick_5">
     <g id="line2d_12">
      <g>
       <use xlink:href="#m53fe28a81b" x="43.78125" y="125.812727" style="fill: #6b7280; stroke: #6b7280; stroke-width: 0.8"/>
      </g>
     </g>
     <g id="text_13">
      <!-- 0.8 -->
      <g style="fill: #6b7280" transform="translate(20.878125 129.611946) scale(0.1 -0.1)">
       <defs>
        <path id="DejaVuSans-38" d="M 2034 2216 
Q 1584 2216 1326 1975 
Q 1069 1734 1069 1313 
Q 1069 891 1326 650 
Q 1584 409 2034 409 
Q 2484 409 2743 651 
Q 3003 894 3003 1313 
Q 3003 1734 2745 1975 
Q 2488 2216 2034 2216 
z
M 1403 2484 
Q 997 2584 770 2862 
Q 544 3141 544 3541 
Q 544 4100 942 4425 
Q 1341 4750 2034 4750 
Q 2731 4750 3128 4425 
Q 3525 4100 3525 3541 
Q 3525 3141 3298 2862 
Q 3072 2584 2669 2484 
Q 3125 2378 3379 2068 
Q 3634 1759 3634 1313 
Q 3634 634 3220 271 
Q 2806 -91 2034 -91 
Q 1263 -91 848 271 
Q 434 634 434 1313 
Q 434 1759 690 2068 
Q 947 2378 1403 2484 
z
M 1172 3481 
Q 1172 3119 1398 2916 
Q 1625 2713 2034 2713 
Q 2441 2713 2670 2916 
Q 2900 3119 2900 3481 
Q 2900 3844 2670 4047 
Q 2441 4250 2034 4250 
Q 1625 4250 1398 4047 
Q 1172 3844 1172 3481 
z
" transform="scale(0.015625)"/>
       </defs>
       <use xlink:href="#DejaVuSans-30"/>
       <use xlink:href="#DejaVuSans-2e" transform="translate(63.623047 0)"/>
       <use xlink:href="#DejaVuSans-38" transform="translate(95.410156 0)"/>
      </g>
     </g>
    </g>
    <g id="ytick_6">
     <g id="line2d_13">
      <g>
       <use xlink:href="#m53fe28a81b" x="43.78125" y="77.194545" style="fill: #6b7280; stroke: #6b7280; stroke-width: 0.8"/>
      </g>
     </g>
     <g id="text_14">
      <!-- 1.0 -->
      <g style="fill: #6b7280" transform="translate(20.878125 80.993764) scale(0.1 -0.1)">
       <use xlink:href="#DejaVuSans-31"/>
       <use xlink:href="#DejaVuSans-2e" transform="translate(63.623047 0)"/>
       <use xlink:href="#DejaVuSans-30" transform="translate(95.410156 0)"/>
      </g>
     </g>
    </g>
    <g id="text_15">
     <!-- c (constraint level) -->
     <g style="fill: #9ca3af" transform="translate(14.798438 245.639219) rotate(-90) scale(0.1 -0.1)">
      <defs>
       <path id="DejaVuSans-74" d="M 1172 4494 
L 1172 3500 
L 2356 3500 
L 2356 3053 
L 1172 3053 
L 1172 1153 
Q 1172 725 1289 603 
Q 1406 481 1766 481 
L 2356 481 
L 2356 0 
L 1766 0 
Q 1100 0 847 248 
Q 594 497 594 1153 
L 594 3053 
L 172 3053 
L 172 3500 
L 594 3500 
L 594 4494 
L 1172 4494 
z
" transform="scale(0.015625)"/>
       <path id="DejaVuSans-61" d="M 2194 1759 
Q 1497 1759 1228 1600 
Q 959 1441 959 1056 
Q 959 750 1161 570 
Q 1363 391 1709 391 
Q 2188 391 2477 730 
Q 2766 1069 2766 1631 
L 2766 1759 
L 2194 1759 
z
M 3341 1997 
L 3341 0 
L 2766 0 
L 2766 531 
Q 2569 213 2275 61 
Q 1981 -91 1556 -91 
Q 1019 -91 701 211 
Q 384 513 384 1019 
Q 384 1609 779 1909 
Q 1175 2209 1959 2209 
L 2766 2209 
L 2766 2266 
Q 2766 2663 2505 2880 
Q 2244 3097 1772 3097 
Q 1472 3097 1187 3025 
Q 903 2953 641 2809 
L 641 3341 
Q 956 3463 1253 3523 
Q 1550 3584 1831 3584 
Q 2591 3584 2966 3190 
Q 3341 2797 3341 1997 
z
" transform="scale(0.015625)"/>
       <path id="DejaVuSans-6c" d="M 603 4863 
L 1178 4863 
L 1178 0 
L 603 0 
L 603 4863 
z
" transform="scale(0.015625)"/>
       <path id="DejaVuSans-76" d="M 191 3500 
L 800 3500 
L 1894 563 
L 2988 3500 
L 3597 3500 
L 2284 0 
L 1503 0 
L 191 3500 
z
" transform="scale(0.015625)"/>
      </defs>
      <use xlink:href="#DejaVuSans-63"/>
      <use xlink:href="#DejaVuSans-20" transform="translate(54.980469 0)"/>
      <use xlink:href="#DejaVuSans-28" transform="translate(86.767578 0)"/>
      <use xlink:href="#DejaVuSans-63" transform="translate(125.78125 0)"/>
      <use xlink:href="#DejaVuSans-6f" transform="translate(180.761719 0)"/>
      <use xlink:href="#DejaVuSans-6e" transform="translate(241.943359 0)"/>
      <use xlink:href="#DejaVuSans-73" transform="translate(305.322266 0)"/>
      <use xlink:href="#DejaVuSans-74" transform="translate(357.421875 0)"/>
      <use xlink:href="#DejaVuSans-72" transform="translate(396.630859 0)"/>
      <use xlink:href="#DejaVuSans-61" transform="translate(437.744141 0)"/>
      <use xlink:href="#DejaVuSans-69" transform="translate(499.023438 0)"/>
      <use xlink:href="#DejaVuSans-6e" transform="translate(526.806641 0)"/>
      <use xlink:href="#DejaVuSans-74" transform="translate(590.185547 0)"/>
      <use xlink:href="#DejaVuSans-20" transform="translate(629.394531 0)"/>
      <use xlink:href="#DejaVuSans-6c" transform="translate(661.181641 0)"/>
      <use xlink:href="#DejaVuSans-65" transform="translate(688.964844 0)"/>
      <use xlink:href="#DejaVuSans-76" transform="translate(750.488281 0)"/>
      <use xlink:href="#DejaVuSans-65" transform="translate(809.667969 0)"/>
      <use xlink:href="#DejaVuSans-6c" transform="translate(871.191406 0)"/>
      <use xlink:href="#DejaVuSans-29" transform="translate(898.974609 0)"/>
     </g>
    </g>
   </g>
   <g id="line2d_14">
    <path d="M 43.78125 77.194545 
L 50.597136 89.186945 
L 57.413023 100.778299 
L 64.228909 111.975429 
L 71.044795 122.785153 
L 77.860681 133.214294 
L 84.676568 143.269671 
L 91.492454 152.958104 
L 98.30834 162.286416 
L 105.124227 171.261425 
L 111.940113 179.889953 
L 118.755999 188.178819 
L 125.571885 196.134845 
L 132.387772 203.764851 
L 139.203658 211.075658 
L 146.019544 218.074085 
L 152.835431 224.766954 
L 159.651317 231.161085 
L 166.467203 237.263298 
L 173.283089 243.080414 
L 180.098976 248.619254 
L 186.914862 253.886637 
L 193.730748 258.889386 
L 200.546635 263.634319 
L 207.362521 268.128257 
L 214.178407 272.378022 
L 220.994293 276.390433 
L 227.81018 280.172311 
L 234.626066 283.730477 
L 241.441952 287.07175 
L 248.257839 290.202952 
L 256.436902 293.692704 
L 264.615966 296.901559 
L 272.795029 299.841305 
L 280.974093 302.523727 
L 289.153156 304.960611 
L 297.33222 307.163743 
L 305.511283 309.144908 
L 313.690347 310.915893 
L 323.232588 312.73212 
L 332.774829 314.297025 
L 342.317069 315.629324 
L 351.85931 316.747732 
L 362.764728 317.788014 
L 373.670146 318.601309 
L 385.938742 319.27973 
L 399.570514 319.786448 
L 414.565464 320.106457 
L 433.649946 320.265475 
L 451.37125 320.285455 
L 451.37125 320.285455 
" clip-path="url(#pf85cb6fe5c)" style="fill: none; stroke: #6366f1; stroke-width: 2; stroke-linecap: square"/>
   </g>
   <g id="line2d_15">
    <path d="M 43.78125 77.194545 
L 72.407972 77.299284 
L 86.039745 77.570191 
L 96.945163 78.012218 
L 105.124227 78.538847 
L 113.30329 79.290412 
L 120.119176 80.133758 
L 126.935063 81.21964 
L 132.387772 82.295496 
L 137.840481 83.585446 
L 143.29319 85.11987 
L 148.745899 86.931614 
L 152.835431 88.493443 
L 156.924962 90.246467 
L 161.014494 92.206646 
L 165.104026 94.39022 
L 169.193558 96.813484 
L 173.283089 99.492523 
L 177.372621 102.442884 
L 181.462153 105.679198 
L 185.551685 109.214753 
L 189.641217 113.061014 
L 193.730748 117.227116 
L 197.82028 121.719316 
L 201.909812 126.540459 
L 205.999344 131.689446 
L 210.088875 137.160757 
L 214.178407 142.944045 
L 219.631116 151.112898 
L 225.083825 159.757011 
L 230.536534 168.808709 
L 237.352421 180.569055 
L 248.257839 199.959483 
L 259.163257 219.294835 
L 265.979143 230.968137 
L 271.431852 239.925145 
L 276.884561 248.456159 
L 282.33727 256.497535 
L 286.426802 262.178291 
L 290.516334 267.543065 
L 294.605865 272.583157 
L 298.695397 277.294569 
L 302.784929 281.677574 
L 306.874461 285.736213 
L 310.963992 289.477765 
L 315.053524 292.912199 
L 319.143056 296.051643 
L 323.232588 298.909884 
L 327.32212 301.501904 
L 331.411651 303.843467 
L 335.501183 305.950763 
L 339.590715 307.840095 
L 343.680247 309.527634 
L 349.132956 311.491067 
L 354.585665 313.159899 
L 360.038374 314.56813 
L 365.491083 315.747394 
L 370.943792 316.726796 
L 377.759678 317.710164 
L 384.575564 318.468772 
L 392.754628 319.138884 
L 402.296869 319.663589 
L 413.202287 320.017626 
L 426.834059 320.221576 
L 448.644895 320.28538 
L 451.37125 320.285455 
L 451.37125 320.285455 
" clip-path="url(#pf85cb6fe5c)" style="fill: none; stroke: #22d3ee; stroke-width: 2; stroke-linecap: square"/>
   </g>
   <g id="line2d_16">
    <path d="M 43.78125 77.194545 
L 451.37125 320.285455 
L 451.37125 320.285455 
" clip-path="url(#pf85cb6fe5c)" style="fill: none; stroke: #f59e0b; stroke-width: 2.5; stroke-linecap: square"/>
   </g>
   <g id="line2d_17">
    <path d="M 43.78125 226.363967 
L 451.37125 226.363967 
" clip-path="url(#pf85cb6fe5c)" style="fill: none; stroke-dasharray: 3.7,1.6; stroke-dashoffset: 0; stroke: #ef4444; stroke-opacity: 0.7"/>
   </g>
   <g id="line2d_18">
    <path d="M 154.508571 332.44 
L 154.508571 65.04 
" clip-path="url(#pf85cb6fe5c)" style="fill: none; stroke-dasharray: 0.8,1.32; stroke-dashoffset: 0; stroke: #6366f1; stroke-opacity: 0.5; stroke-width: 0.8"/>
   </g>
   <g id="line2d_19">
    <path d="M 263.258579 332.44 
L 263.258579 65.04 
" clip-path="url(#pf85cb6fe5c)" style="fill: none; stroke-dasharray: 0.8,1.32; stroke-dashoffset: 0; stroke: #22d3ee; stroke-opacity: 0.5; stroke-width: 0.8"/>
   </g>
   <g id="line2d_20">
    <path d="M 293.893295 332.44 
L 293.893295 65.04 
" clip-path="url(#pf85cb6fe5c)" style="fill: none; stroke-dasharray: 0.8,1.32; stroke-dashoffset: 0; stroke: #f59e0b; stroke-opacity: 0.5; stroke-width: 0.8"/>
   </g>
   <g id="patch_3">
    <path d="M 43.78125 332.44 
L 43.78125 65.04 
" style="fill: none; stroke: #1e1e2e; stroke-width: 0.8; stroke-linejoin: miter; stroke-linecap: square"/>
   </g>
   <g id="patch_4">
    <path d="M 451.37125 332.44 
L 451.37125 65.04 
" style="fill: none; stroke: #1e1e2e; stroke-width: 0.8; stroke-linejoin: miter; stroke-linecap: square"/>
   </g>
   <g id="patch_5">
    <path d="M 43.78125 332.44 
L 451.37125 332.44 
" style="fill: none; stroke: #1e1e2e; stroke-width: 0.8; stroke-linejoin: miter; stroke-linecap: square"/>
   </g>
   <g id="patch_6">
    <path d="M 43.78125 65.04 
L 451.37125 65.04 
" style="fill: none; stroke: #1e1e2e; stroke-width: 0.8; stroke-linejoin: miter; stroke-linecap: square"/>
   </g>
   <g id="text_16">
    <!-- Bridge surface — O=R=α diagonal -->
    <g style="fill: #e2e8f0" transform="translate(143.531563 59.04) scale(0.12 -0.12)">
     <defs>
      <path id="DejaVuSans-42" d="M 1259 2228 
L 1259 519 
L 2272 519 
Q 2781 519 3026 730 
Q 3272 941 3272 1375 
Q 3272 1813 3026 2020 
Q 2781 2228 2272 2228 
L 1259 2228 
z
M 1259 4147 
L 1259 2741 
L 2194 2741 
Q 2656 2741 2882 2914 
Q 3109 3088 3109 3444 
Q 3109 3797 2882 3972 
Q 2656 4147 2194 4147 
L 1259 4147 
z
M 628 4666 
L 2241 4666 
Q 2963 4666 3353 4366 
Q 3744 4066 3744 3513 
Q 3744 3084 3544 2831 
Q 3344 2578 2956 2516 
Q 3422 2416 3680 2098 
Q 3938 1781 3938 1306 
Q 3938 681 3513 340 
Q 3088 0 2303 0 
L 628 0 
L 628 4666 
z
" transform="scale(0.015625)"/>
      <path id="DejaVuSans-67" d="M 2906 1791 
Q 2906 2416 2648 2759 
Q 2391 3103 1925 3103 
Q 1463 3103 1205 2759 
Q 947 2416 947 1791 
Q 947 1169 1205 825 
Q 1463 481 1925 481 
Q 2391 481 2648 825 
Q 2906 1169 2906 1791 
z
M 3481 434 
Q 3481 -459 3084 -895 
Q 2688 -1331 1869 -1331 
Q 1566 -1331 1297 -1286 
Q 1028 -1241 775 -1147 
L 775 -588 
Q 1028 -725 1275 -790 
Q 1522 -856 1778 -856 
Q 2344 -856 2625 -561 
Q 2906 -266 2906 331 
L 2906 616 
Q 2728 306 2450 153 
Q 2172 0 1784 0 
Q 1141 0 747 490 
Q 353 981 353 1791 
Q 353 2603 747 3093 
Q 1141 3584 1784 3584 
Q 2172 3584 2450 3431 
Q 2728 3278 2906 2969 
L 2906 3500 
L 3481 3500 
L 3481 434 
z
" transform="scale(0.015625)"/>
      <path id="DejaVuSans-75" d="M 544 1381 
L 544 3500 
L 1119 3500 
L 1119 1403 
Q 1119 906 1312 657 
Q 1506 409 1894 409 
Q 2359 409 2629 706 
Q 2900 1003 2900 1516 
L 2900 3500 
L 3475 3500 
L 3475 0 
L 2900 0 
L 2900 538 
Q 2691 219 2414 64 
Q 2138 -91 1772 -91 
Q 1169 -91 856 284 
Q 544 659 544 1381 
z
M 1991 3584 
L 1991 3584 
z
" transform="scale(0.015625)"/>
      <path id="DejaVuSans-66" d="M 2375 4863 
L 2375 4384 
L 1825 4384 
Q 1516 4384 1395 4259 
Q 1275 4134 1275 3809 
L 1275 3500 
L 2222 3500 
L 2222 3053 
L 1275 3053 
L 1275 0 
L 697 0 
L 697 3053 
L 147 3053 
L 147 3500 
L 697 3500 
L 697 3744 
Q 697 4328 969 4595 
Q 1241 4863 1831 4863 
L 2375 4863 
z
" transform="scale(0.015625)"/>
      <path id="DejaVuSans-2014" d="M 313 1978 
L 6088 1978 
L 6088 1528 
L 313 1528 
L 313 1978 
z
" transform="scale(0.015625)"/>
      <path id="DejaVuSans-4f" d="M 2522 4238 
Q 1834 4238 1429 3725 
Q 1025 3213 1025 2328 
Q 1025 1447 1429 934 
Q 1834 422 2522 422 
Q 3209 422 3611 934 
Q 4013 1447 4013 2328 
Q 4013 3213 3611 3725 
Q 3209 4238 2522 4238 
z
M 2522 4750 
Q 3503 4750 4090 4092 
Q 4678 3434 4678 2328 
Q 4678 1225 4090 567 
Q 3503 -91 2522 -91 
Q 1538 -91 948 565 
Q 359 1222 359 2328 
Q 359 3434 948 4092 
Q 1538 4750 2522 4750 
z
" transform="scale(0.015625)"/>
      <path id="DejaVuSans-3d" d="M 678 2906 
L 4684 2906 
L 4684 2381 
L 678 2381 
L 678 2906 
z
M 678 1631 
L 4684 1631 
L 4684 1100 
L 678 1100 
L 678 1631 
z
" transform="scale(0.015625)"/>
      <path id="DejaVuSans-52" d="M 2841 2188 
Q 3044 2119 3236 1894 
Q 3428 1669 3622 1275 
L 4263 0 
L 3584 0 
L 2988 1197 
Q 2756 1666 2539 1819 
Q 2322 1972 1947 1972 
L 1259 1972 
L 1259 0 
L 628 0 
L 628 4666 
L 2053 4666 
Q 2853 4666 3247 4331 
Q 3641 3997 3641 3322 
Q 3641 2881 3436 2590 
Q 3231 2300 2841 2188 
z
M 1259 4147 
L 1259 2491 
L 2053 2491 
Q 2509 2491 2742 2702 
Q 2975 2913 2975 3322 
Q 2975 3731 2742 3939 
Q 2509 4147 2053 4147 
L 1259 4147 
z
" transform="scale(0.015625)"/>
      <path id="DejaVuSans-3b1" d="M 2644 1628 
L 2506 2350 
Q 2366 3091 1809 3091 
Q 1391 3091 1200 2747 
Q 959 2316 959 1747 
Q 959 1059 1194 731 
Q 1431 397 1809 397 
Q 2228 397 2453 1063 
L 2644 1628 
z
M 2966 2584 
L 3275 3500 
L 3788 3500 
L 3147 1603 
L 3272 919 
Q 3300 766 3409 638 
Q 3538 488 3638 488 
L 3913 488 
L 3913 0 
L 3569 0 
Q 3275 0 3013 263 
Q 2884 394 2831 669 
Q 2688 322 2394 50 
Q 2256 -78 1809 -78 
Q 1075 -78 719 397 
Q 353 888 353 1747 
Q 353 2666 750 3097 
Q 1191 3578 1809 3578 
Q 2781 3578 2966 2584 
z
" transform="scale(0.015625)"/>
     </defs>
     <use xlink:href="#DejaVuSans-42"/>
     <use xlink:href="#DejaVuSans-72" transform="translate(68.603516 0)"/>
     <use xlink:href="#DejaVuSans-69" transform="translate(109.716797 0)"/>
     <use xlink:href="#DejaVuSans-64" transform="translate(137.5 0)"/>
     <use xlink:href="#DejaVuSans-67" transform="translate(200.976562 0)"/>
     <use xlink:href="#DejaVuSans-65" transform="translate(264.453125 0)"/>
     <use xlink:href="#DejaVuSans-20" transform="translate(325.976562 0)"/>
     <use xlink:href="#DejaVuSans-73" transform="translate(357.763672 0)"/>
     <use xlink:href="#DejaVuSans-75" transform="translate(409.863281 0)"/>
     <use xlink:href="#DejaVuSans-72" transform="translate(473.242188 0)"/>
     <use xlink:href="#DejaVuSans-66" transform="translate(514.355469 0)"/>
     <use xlink:href="#DejaVuSans-61" transform="translate(549.560547 0)"/>
     <use xlink:href="#DejaVuSans-63" transform="translate(610.839844 0)"/>
     <use xlink:href="#DejaVuSans-65" transform="translate(665.820312 0)"/>
     <use xlink:href="#DejaVuSans-20" transform="translate(727.34375 0)"/>
     <use xlink:href="#DejaVuSans-2014" transform="translate(759.130859 0)"/>
     <use xlink:href="#DejaVuSans-20" transform="translate(859.130859 0)"/>
     <use xlink:href="#DejaVuSans-4f" transform="translate(890.917969 0)"/>
     <use xlink:href="#DejaVuSans-3d" transform="translate(969.628906 0)"/>
     <use xlink:href="#DejaVuSans-52" transform="translate(1053.417969 0)"/>
     <use xlink:href="#DejaVuSans-3d" transform="translate(1122.900391 0)"/>
     <use xlink:href="#DejaVuSans-3b1" transform="translate(1206.689453 0)"/>
     <use xlink:href="#DejaVuSans-20" transform="translate(1272.607422 0)"/>
     <use xlink:href="#DejaVuSans-64" transform="translate(1304.394531 0)"/>
     <use xlink:href="#DejaVuSans-69" transform="translate(1367.871094 0)"/>
     <use xlink:href="#DejaVuSans-61" transform="translate(1395.654297 0)"/>
     <use xlink:href="#DejaVuSans-67" transform="translate(1456.933594 0)"/>
     <use xlink:href="#DejaVuSans-6f" transform="translate(1520.410156 0)"/>
     <use xlink:href="#DejaVuSans-6e" transform="translate(1581.591797 0)"/>
     <use xlink:href="#DejaVuSans-61" transform="translate(1644.970703 0)"/>
     <use xlink:href="#DejaVuSans-6c" transform="translate(1706.25 0)"/>
    </g>
   </g>
   <g id="legend_1">
    <g id="patch_7">
     <path d="M 291.8075 118.6325 
L 445.77125 118.6325 
Q 447.37125 118.6325 447.37125 117.0325 
L 447.37125 70.64 
Q 447.37125 69.04 445.77125 69.04 
L 291.8075 69.04 
Q 290.2075 69.04 290.2075 70.64 
L 290.2075 117.0325 
Q 290.2075 118.6325 291.8075 118.6325 
z
" style="fill: #111118; opacity: 0.8; stroke: #1e1e2e; stroke-linejoin: miter"/>
    </g>
    <g id="line2d_21">
     <path d="M 293.4075 75.51875 
L 301.4075 75.51875 
L 309.4075 75.51875 
" style="fill: none; stroke: #6366f1; stroke-width: 2; stroke-linecap: square"/>
    </g>
    <g id="text_17">
     <!-- V1 product  c=(1−x)³ -->
     <g style="fill: #9ca3af" transform="translate(315.8075 78.31875) scale(0.08 -0.08)">
      <defs>
       <path id="DejaVuSans-2212" d="M 678 2272 
L 4684 2272 
L 4684 1741 
L 678 1741 
L 678 2272 
z
" transform="scale(0.015625)"/>
       <path id="DejaVuSans-78" d="M 3513 3500 
L 2247 1797 
L 3578 0 
L 2900 0 
L 1881 1375 
L 863 0 
L 184 0 
L 1544 1831 
L 300 3500 
L 978 3500 
L 1906 2253 
L 2834 3500 
L 3513 3500 
z
" transform="scale(0.015625)"/>
       <path id="DejaVuSans-b3" d="M 1638 3500 
Q 1925 3444 2083 3273 
Q 2241 3103 2241 2847 
Q 2241 2459 1944 2250 
Q 1647 2041 1094 2041 
Q 916 2041 720 2073 
Q 525 2106 306 2169 
L 306 2547 
Q 469 2463 655 2422 
Q 841 2381 1050 2381 
Q 1391 2381 1578 2504 
Q 1766 2628 1766 2847 
Q 1766 3078 1592 3197 
Q 1419 3316 1081 3316 
L 813 3316 
L 813 3653 
L 1106 3653 
Q 1400 3653 1551 3751 
Q 1703 3850 1703 4038 
Q 1703 4219 1547 4314 
Q 1391 4409 1094 4409 
Q 969 4409 809 4381 
Q 650 4353 397 4281 
L 397 4641 
Q 625 4694 825 4722 
Q 1025 4750 1197 4750 
Q 1647 4750 1911 4565 
Q 2175 4381 2175 4072 
Q 2175 3856 2034 3706 
Q 1894 3556 1638 3500 
z
" transform="scale(0.015625)"/>
      </defs>
      <use xlink:href="#DejaVuSans-56"/>
      <use xlink:href="#DejaVuSans-31" transform="translate(68.408203 0)"/>
      <use xlink:href="#DejaVuSans-20" transform="translate(132.03125 0)"/>
      <use xlink:href="#DejaVuSans-70" transform="translate(163.818359 0)"/>
      <use xlink:href="#DejaVuSans-72" transform="translate(227.294922 0)"/>
      <use xlink:href="#DejaVuSans-6f" transform="translate(266.158203 0)"/>
      <use xlink:href="#DejaVuSans-64" transform="translate(327.339844 0)"/>
      <use xlink:href="#DejaVuSans-75" transform="translate(390.816406 0)"/>
      <use xlink:href="#DejaVuSans-63" transform="translate(454.195312 0)"/>
      <use xlink:href="#DejaVuSans-74" transform="translate(509.175781 0)"/>
      <use xlink:href="#DejaVuSans-20" transform="translate(548.384766 0)"/>
      <use xlink:href="#DejaVuSans-20" transform="translate(580.171875 0)"/>
      <use xlink:href="#DejaVuSans-63" transform="translate(611.958984 0)"/>
      <use xlink:href="#DejaVuSans-3d" transform="translate(666.939453 0)"/>
      <use xlink:href="#DejaVuSans-28" transform="translate(750.728516 0)"/>
      <use xlink:href="#DejaVuSans-31" transform="translate(789.742188 0)"/>
      <use xlink:href="#DejaVuSans-2212" transform="translate(853.365234 0)"/>
      <use xlink:href="#DejaVuSans-78" transform="translate(937.154297 0)"/>
      <use xlink:href="#DejaVuSans-29" transform="translate(996.333984 0)"/>
      <use xlink:href="#DejaVuSans-b3" transform="translate(1035.347656 0)"/>
     </g>
    </g>
    <g id="line2d_22">
     <path d="M 293.4075 87.26125 
L 301.4075 87.26125 
L 309.4075 87.26125 
" style="fill: none; stroke: #22d3ee; stroke-width: 2; stroke-linecap: square"/>
    </g>
    <g id="text_18">
     <!-- V2 ratio    c=(1−x)³/[(1−x)³+x³] -->
     <g style="fill: #9ca3af" transform="translate(315.8075 90.06125) scale(0.08 -0.08)">
      <defs>
       <path id="DejaVuSans-2f" d="M 1625 4666 
L 2156 4666 
L 531 -594 
L 0 -594 
L 1625 4666 
z
" transform="scale(0.015625)"/>
       <path id="DejaVuSans-5b" d="M 550 4863 
L 1875 4863 
L 1875 4416 
L 1125 4416 
L 1125 -397 
L 1875 -397 
L 1875 -844 
L 550 -844 
L 550 4863 
z
" transform="scale(0.015625)"/>
       <path id="DejaVuSans-2b" d="M 2944 4013 
L 2944 2272 
L 4684 2272 
L 4684 1741 
L 2944 1741 
L 2944 0 
L 2419 0 
L 2419 1741 
L 678 1741 
L 678 2272 
L 2419 2272 
L 2419 4013 
L 2944 4013 
z
" transform="scale(0.015625)"/>
       <path id="DejaVuSans-5d" d="M 1947 4863 
L 1947 -844 
L 622 -844 
L 622 -397 
L 1369 -397 
L 1369 4416 
L 622 4416 
L 622 4863 
L 1947 4863 
z
" transform="scale(0.015625)"/>
      </defs>
      <use xlink:href="#DejaVuSans-56"/>
      <use xlink:href="#DejaVuSans-32" transform="translate(68.408203 0)"/>
      <use xlink:href="#DejaVuSans-20" transform="translate(132.03125 0)"/>
      <use xlink:href="#DejaVuSans-72" transform="translate(163.818359 0)"/>
      <use xlink:href="#DejaVuSans-61" transform="translate(204.931641 0)"/>
      <use xlink:href="#DejaVuSans-74" transform="translate(266.210938 0)"/>
      <use xlink:href="#DejaVuSans-69" transform="translate(305.419922 0)"/>
      <use xlink:href="#DejaVuSans-6f" transform="translate(333.203125 0)"/>
      <use xlink:href="#DejaVuSans-20" transform="translate(394.384766 0)"/>
      <use xlink:href="#DejaVuSans-20" transform="translate(426.171875 0)"/>
      <use xlink:href="#DejaVuSans-20" transform="translate(457.958984 0)"/>
      <use xlink:href="#DejaVuSans-20" transform="translate(489.746094 0)"/>
      <use xlink:href="#DejaVuSans-63" transform="translate(521.533203 0)"/>
      <use xlink:href="#DejaVuSans-3d" transform="translate(576.513672 0)"/>
      <use xlink:href="#DejaVuSans-28" transform="translate(660.302734 0)"/>
      <use xlink:href="#DejaVuSans-31" transform="translate(699.316406 0)"/>
      <use xlink:href="#DejaVuSans-2212" transform="translate(762.939453 0)"/>
      <use xlink:href="#DejaVuSans-78" transform="translate(846.728516 0)"/>
      <use xlink:href="#DejaVuSans-29" transform="translate(905.908203 0)"/>
      <use xlink:href="#DejaVuSans-b3" transform="translate(944.921875 0)"/>
      <use xlink:href="#DejaVuSans-2f" transform="translate(985.009766 0)"/>
      <use xlink:href="#DejaVuSans-5b" transform="translate(1018.701172 0)"/>
      <use xlink:href="#DejaVuSans-28" transform="translate(1057.714844 0)"/>
      <use xlink:href="#DejaVuSans-31" transform="translate(1096.728516 0)"/>
      <use xlink:href="#DejaVuSans-2212" transform="translate(1160.351562 0)"/>
      <use xlink:href="#DejaVuSans-78" transform="translate(1244.140625 0)"/>
      <use xlink:href="#DejaVuSans-29" transform="translate(1303.320312 0)"/>
      <use xlink:href="#DejaVuSans-b3" transform="translate(1342.333984 0)"/>
      <use xlink:href="#DejaVuSans-2b" transform="translate(1382.421875 0)"/>
      <use xlink:href="#DejaVuSans-78" transform="translate(1466.210938 0)"/>
      <use xlink:href="#DejaVuSans-b3" transform="translate(1525.390625 0)"/>
      <use xlink:href="#DejaVuSans-5d" transform="translate(1565.478516 0)"/>
     </g>
    </g>
    <g id="line2d_23">
     <path d="M 293.4075 99.00375 
L 301.4075 99.00375 
L 309.4075 99.00375 
" style="fill: none; stroke: #f59e0b; stroke-width: 2.5; stroke-linecap: square"/>
    </g>
    <g id="text_19">
     <!-- V3 linear  c=1−x  ← WINNER -->
     <g style="fill: #9ca3af" transform="translate(315.8075 101.80375) scale(0.08 -0.08)">
      <defs>
       <path id="DejaVuSans-2190" d="M 313 1866 
L 313 2147 
L 1541 3375 
L 1916 3000 
L 1188 2272 
L 4997 2272 
L 4997 1741 
L 1188 1741 
L 1916 1013 
L 1541 638 
L 313 1866 
z
" transform="scale(0.015625)"/>
       <path id="DejaVuSans-57" d="M 213 4666 
L 850 4666 
L 1831 722 
L 2809 4666 
L 3519 4666 
L 4500 722 
L 5478 4666 
L 6119 4666 
L 4947 0 
L 4153 0 
L 3169 4050 
L 2175 0 
L 1381 0 
L 213 4666 
z
" transform="scale(0.015625)"/>
       <path id="DejaVuSans-49" d="M 628 4666 
L 1259 4666 
L 1259 0 
L 628 0 
L 628 4666 
z
" transform="scale(0.015625)"/>
       <path id="DejaVuSans-4e" d="M 628 4666 
L 1478 4666 
L 3547 763 
L 3547 4666 
L 4159 4666 
L 4159 0 
L 3309 0 
L 1241 3903 
L 1241 0 
L 628 0 
L 628 4666 
z
" transform="scale(0.015625)"/>
       <path id="DejaVuSans-45" d="M 628 4666 
L 3578 4666 
L 3578 4134 
L 1259 4134 
L 1259 2753 
L 3481 2753 
L 3481 2222 
L 1259 2222 
L 1259 531 
L 3634 531 
L 3634 0 
L 628 0 
L 628 4666 
z
" transform="scale(0.015625)"/>
      </defs>
      <use xlink:href="#DejaVuSans-56"/>
      <use xlink:href="#DejaVuSans-33" transform="translate(68.408203 0)"/>
      <use xlink:href="#DejaVuSans-20" transform="translate(132.03125 0)"/>
      <use xlink:href="#DejaVuSans-6c" transform="translate(163.818359 0)"/>
      <use xlink:href="#DejaVuSans-69" transform="translate(191.601562 0)"/>
      <use xlink:href="#DejaVuSans-6e" transform="translate(219.384766 0)"/>
      <use xlink:href="#DejaVuSans-65" transform="translate(282.763672 0)"/>
      <use xlink:href="#DejaVuSans-61" transform="translate(344.287109 0)"/>
      <use xlink:href="#DejaVuSans-72" transform="translate(405.566406 0)"/>
      <use xlink:href="#DejaVuSans-20" transform="translate(446.679688 0)"/>
      <use xlink:href="#DejaVuSans-20" transform="translate(478.466797 0)"/>
      <use xlink:href="#DejaVuSans-63" transform="translate(510.253906 0)"/>
      <use xlink:href="#DejaVuSans-3d" transform="translate(565.234375 0)"/>
      <use xlink:href="#DejaVuSans-31" transform="translate(649.023438 0)"/>
      <use xlink:href="#DejaVuSans-2212" transform="translate(712.646484 0)"/>
      <use xlink:href="#DejaVuSans-78" transform="translate(796.435547 0)"/>
      <use xlink:href="#DejaVuSans-20" transform="translate(855.615234 0)"/>
      <use xlink:href="#DejaVuSans-20" transform="translate(887.402344 0)"/>
      <use xlink:href="#DejaVuSans-2190" transform="translate(919.189453 0)"/>
      <use xlink:href="#DejaVuSans-20" transform="translate(1002.978516 0)"/>
      <use xlink:href="#DejaVuSans-57" transform="translate(1034.765625 0)"/>
      <use xlink:href="#DejaVuSans-49" transform="translate(1133.642578 0)"/>
      <use xlink:href="#DejaVuSans-4e" transform="translate(1163.134766 0)"/>
      <use xlink:href="#DejaVuSans-4e" transform="translate(1237.939453 0)"/>
      <use xlink:href="#DejaVuSans-45" transform="translate(1312.744141 0)"/>
      <use xlink:href="#DejaVuSans-52" transform="translate(1375.927734 0)"/>
     </g>
    </g>
    <g id="line2d_24">
     <path d="M 293.4075 110.74625 
L 301.4075 110.74625 
L 309.4075 110.74625 
" style="fill: none; stroke-dasharray: 3.7,1.6; stroke-dashoffset: 0; stroke: #ef4444; stroke-opacity: 0.7"/>
    </g>
    <g id="text_20">
     <!-- c_zero=0.3864 -->
     <g style="fill: #9ca3af" transform="translate(315.8075 113.54625) scale(0.08 -0.08)">
      <defs>
       <path id="DejaVuSans-5f" d="M 3263 -1063 
L 3263 -1509 
L -63 -1509 
L -63 -1063 
L 3263 -1063 
z
" transform="scale(0.015625)"/>
       <path id="DejaVuSans-7a" d="M 353 3500 
L 3084 3500 
L 3084 2975 
L 922 459 
L 3084 459 
L 3084 0 
L 275 0 
L 275 525 
L 2438 3041 
L 353 3041 
L 353 3500 
z
" transform="scale(0.015625)"/>
      </defs>
      <use xlink:href="#DejaVuSans-63"/>
      <use xlink:href="#DejaVuSans-5f" transform="translate(54.980469 0)"/>
      <use xlink:href="#DejaVuSans-7a" transform="translate(104.980469 0)"/>
      <use xlink:href="#DejaVuSans-65" transform="translate(157.470703 0)"/>
      <use xlink:href="#DejaVuSans-72" transform="translate(218.994141 0)"/>
      <use xlink:href="#DejaVuSans-6f" transform="translate(257.857422 0)"/>
      <use xlink:href="#DejaVuSans-3d" transform="translate(319.039062 0)"/>
      <use xlink:href="#DejaVuSans-30" transform="translate(402.828125 0)"/>
      <use xlink:href="#DejaVuSans-2e" transform="translate(466.451172 0)"/>
      <use xlink:href="#DejaVuSans-33" transform="translate(498.238281 0)"/>
      <use xlink:href="#DejaVuSans-38" transform="translate(561.861328 0)"/>
      <use xlink:href="#DejaVuSans-36" transform="translate(625.484375 0)"/>
      <use xlink:href="#DejaVuSans-34" transform="translate(689.107422 0)"/>
     </g>
    </g>
   </g>
   <g id="PathCollection_1">
    <defs>
     <path id="mcdce9deced" d="M 0 3.162278 
C 0.838646 3.162278 1.643056 2.82908 2.236068 2.236068 
C 2.82908 1.643056 3.162278 0.838646 3.162278 0 
C 3.162278 -0.838646 2.82908 -1.643056 2.236068 -2.236068 
C 1.643056 -2.82908 0.838646 -3.162278 0 -3.162278 
C -0.838646 -3.162278 -1.643056 -2.82908 -2.236068 -2.236068 
C -2.82908 -1.643056 -3.162278 -0.838646 -3.162278 0 
C -3.162278 0.838646 -2.82908 1.643056 -2.236068 2.236068 
C -1.643056 2.82908 -0.838646 3.162278 0 3.162278 
z
" style="stroke: #ffffff; stroke-opacity: 0.9; stroke-width: 0.3"/>
    </defs>
    <g clip-path="url(#pf85cb6fe5c)">
     <use xlink:href="#mcdce9deced" x="270.220139" y="228.883273" style="fill: #6366f1; fill-opacity: 0.9; stroke: #ffffff; stroke-opacity: 0.9; stroke-width: 0.3"/>
    </g>
   </g>
   <g id="PathCollection_2">
    <g clip-path="url(#pf85cb6fe5c)">
     <use xlink:href="#mcdce9deced" x="451.37125" y="312.992727" style="fill: #6366f1; fill-opacity: 0.9; stroke: #ffffff; stroke-opacity: 0.9; stroke-width: 0.3"/>
    </g>
   </g>
   <g id="PathCollection_3">
    <g clip-path="url(#pf85cb6fe5c)">
     <use xlink:href="#mcdce9deced" x="270.220139" y="237.634545" style="fill: #6366f1; fill-opacity: 0.9; stroke: #ffffff; stroke-opacity: 0.9; stroke-width: 0.3"/>
    </g>
   </g>
   <g id="PathCollection_4">
    <g clip-path="url(#pf85cb6fe5c)">
     <use xlink:href="#mcdce9deced" x="315.507917" y="233.745091" style="fill: #6366f1; fill-opacity: 0.9; stroke: #ffffff; stroke-opacity: 0.9; stroke-width: 0.3"/>
    </g>
   </g>
   <g id="PathCollection_5">
    <g clip-path="url(#pf85cb6fe5c)">
     <use xlink:href="#mcdce9deced" x="360.795694" y="232.286545" style="fill: #6366f1; fill-opacity: 0.9; stroke: #ffffff; stroke-opacity: 0.9; stroke-width: 0.3"/>
    </g>
   </g>
   <g id="PathCollection_6">
    <g clip-path="url(#pf85cb6fe5c)">
     <use xlink:href="#mcdce9deced" x="315.507917" y="238.85" style="fill: #6366f1; fill-opacity: 0.9; stroke: #ffffff; stroke-opacity: 0.9; stroke-width: 0.3"/>
    </g>
   </g>
   <g id="PathCollection_7">
    <g clip-path="url(#pf85cb6fe5c)">
     <use xlink:href="#mcdce9deced" x="315.507917" y="249.059818" style="fill: #6366f1; fill-opacity: 0.9; stroke: #ffffff; stroke-opacity: 0.9; stroke-width: 0.3"/>
    </g>
   </g>
   <g id="PathCollection_8">
    <g clip-path="url(#pf85cb6fe5c)">
     <use xlink:href="#mcdce9deced" x="360.795694" y="274.827455" style="fill: #6366f1; fill-opacity: 0.9; stroke: #ffffff; stroke-opacity: 0.9; stroke-width: 0.3"/>
    </g>
   </g>
   <g id="PathCollection_9">
    <g clip-path="url(#pf85cb6fe5c)">
     <use xlink:href="#mcdce9deced" x="451.37125" y="294.031636" style="fill: #6366f1; fill-opacity: 0.9; stroke: #ffffff; stroke-opacity: 0.9; stroke-width: 0.3"/>
    </g>
   </g>
   <g id="PathCollection_10">
    <defs>
     <path id="mfe5822f2d0" d="M 0 3.162278 
C 0.838646 3.162278 1.643056 2.82908 2.236068 2.236068 
C 2.82908 1.643056 3.162278 0.838646 3.162278 0 
C 3.162278 -0.838646 2.82908 -1.643056 2.236068 -2.236068 
C 1.643056 -2.82908 0.838646 -3.162278 0 -3.162278 
C -0.838646 -3.162278 -1.643056 -2.82908 -2.236068 -2.236068 
C -2.82908 -1.643056 -3.162278 -0.838646 -3.162278 0 
C -3.162278 0.838646 -2.82908 1.643056 -2.236068 2.236068 
C -1.643056 2.82908 -0.838646 3.162278 0 3.162278 
z
" style="stroke: #ffffff; stroke-opacity: 0.9; stroke-width: 0.3"/>
    </defs>
    <g clip-path="url(#pf85cb6fe5c)">
     <use xlink:href="#mfe5822f2d0" x="89.069028" y="108.796364" style="fill: #22d3ee; fill-opacity: 0.9; stroke: #ffffff; stroke-opacity: 0.9; stroke-width: 0.3"/>
    </g>
   </g>
   <g id="PathCollection_11">
    <g clip-path="url(#pf85cb6fe5c)">
     <use xlink:href="#mfe5822f2d0" x="224.932361" y="169.569091" style="fill: #22d3ee; fill-opacity: 0.9; stroke: #ffffff; stroke-opacity: 0.9; stroke-width: 0.3"/>
    </g>
   </g>
   <g id="PathCollection_12">
    <g clip-path="url(#pf85cb6fe5c)">
     <use xlink:href="#mfe5822f2d0" x="270.220139" y="193.878182" style="fill: #22d3ee; fill-opacity: 0.9; stroke: #ffffff; stroke-opacity: 0.9; stroke-width: 0.3"/>
    </g>
   </g>
   <g id="PathCollection_13">
    <g clip-path="url(#pf85cb6fe5c)">
     <use xlink:href="#mfe5822f2d0" x="315.507917" y="235.203636" style="fill: #22d3ee; fill-opacity: 0.9; stroke: #ffffff; stroke-opacity: 0.9; stroke-width: 0.3"/>
    </g>
   </g>
   <g id="PathCollection_14">
    <g clip-path="url(#pf85cb6fe5c)">
     <use xlink:href="#mfe5822f2d0" x="360.795694" y="252.22" style="fill: #22d3ee; fill-opacity: 0.9; stroke: #ffffff; stroke-opacity: 0.9; stroke-width: 0.3"/>
    </g>
   </g>
   <g id="PathCollection_15">
    <g clip-path="url(#pf85cb6fe5c)">
     <use xlink:href="#mfe5822f2d0" x="406.083472" y="274.098182" style="fill: #22d3ee; fill-opacity: 0.9; stroke: #ffffff; stroke-opacity: 0.9; stroke-width: 0.3"/>
    </g>
   </g>
   <g id="PathCollection_16">
    <g clip-path="url(#pf85cb6fe5c)">
     <use xlink:href="#mfe5822f2d0" x="406.083472" y="291.114545" style="fill: #22d3ee; fill-opacity: 0.9; stroke: #ffffff; stroke-opacity: 0.9; stroke-width: 0.3"/>
    </g>
   </g>
   <g id="PathCollection_17">
    <g clip-path="url(#pf85cb6fe5c)">
     <use xlink:href="#mfe5822f2d0" x="451.37125" y="306.915455" style="fill: #22d3ee; fill-opacity: 0.9; stroke: #ffffff; stroke-opacity: 0.9; stroke-width: 0.3"/>
    </g>
   </g>
  </g>
  <g id="axes_2">
   <g id="patch_8">
    <path d="M 505.79625 332.44 
L 913.38625 332.44 
L 913.38625 65.04 
L 505.79625 65.04 
z
" style="fill: #111118"/>
   </g>
   <g id="matplotlib.axis_3">
    <g id="xtick_8">
     <g id="line2d_25">
      <g>
       <use xlink:href="#mc74743aa04" x="505.79625" y="332.44" style="fill: #6b7280; stroke: #6b7280; stroke-width: 0.8"/>
      </g>
     </g>
     <g id="text_21">
      <!-- 0.0 -->
      <g style="fill: #6b7280" transform="translate(497.844687 347.038437) scale(0.1 -0.1)">
       <use xlink:href="#DejaVuSans-30"/>
       <use xlink:href="#DejaVuSans-2e" transform="translate(63.623047 0)"/>
       <use xlink:href="#DejaVuSans-30" transform="translate(95.410156 0)"/>
      </g>
     </g>
    </g>
    <g id="xtick_9">
     <g id="line2d_26">
      <g>
       <use xlink:href="#mc74743aa04" x="573.727917" y="332.44" style="fill: #6b7280; stroke: #6b7280; stroke-width: 0.8"/>
      </g>
     </g>
     <g id="text_22">
      <!-- 0.5 -->
      <g style="fill: #6b7280" transform="translate(565.776354 347.038437) scale(0.1 -0.1)">
       <use xlink:href="#DejaVuSans-30"/>
       <use xlink:href="#DejaVuSans-2e" transform="translate(63.623047 0)"/>
       <use xlink:href="#DejaVuSans-35" transform="translate(95.410156 0)"/>
      </g>
     </g>
    </g>
    <g id="xtick_10">
     <g id="line2d_27">
      <g>
       <use xlink:href="#mc74743aa04" x="641.659583" y="332.44" style="fill: #6b7280; stroke: #6b7280; stroke-width: 0.8"/>
      </g>
     </g>
     <g id="text_23">
      <!-- 1.0 -->
      <g style="fill: #6b7280" transform="translate(633.708021 347.038437) scale(0.1 -0.1)">
       <use xlink:href="#DejaVuSans-31"/>
       <use xlink:href="#DejaVuSans-2e" transform="translate(63.623047 0)"/>
       <use xlink:href="#DejaVuSans-30" transform="translate(95.410156 0)"/>
      </g>
     </g>
    </g>
    <g id="xtick_11">
     <g id="line2d_28">
      <g>
       <use xlink:href="#mc74743aa04" x="709.59125" y="332.44" style="fill: #6b7280; stroke: #6b7280; stroke-width: 0.8"/>
      </g>
     </g>
     <g id="text_24">
      <!-- 1.5 -->
      <g style="fill: #6b7280" transform="translate(701.639687 347.038437) scale(0.1 -0.1)">
       <use xlink:href="#DejaVuSans-31"/>
       <use xlink:href="#DejaVuSans-2e" transform="translate(63.623047 0)"/>
       <use xlink:href="#DejaVuSans-35" transform="translate(95.410156 0)"/>
      </g>
     </g>
    </g>
    <g id="xtick_12">
     <g id="line2d_29">
      <g>
       <use xlink:href="#mc74743aa04" x="777.522917" y="332.44" style="fill: #6b7280; stroke: #6b7280; stroke-width: 0.8"/>
      </g>
     </g>
     <g id="text_25">
      <!-- 2.0 -->
      <g style="fill: #6b7280" transform="translate(769.571354 347.038437) scale(0.1 -0.1)">
       <use xlink:href="#DejaVuSans-32"/>
       <use xlink:href="#DejaVuSans-2e" transform="translate(63.623047 0)"/>
       <use xlink:href="#DejaVuSans-30" transform="translate(95.410156 0)"/>
      </g>
     </g>
    </g>
    <g id="xtick_13">
     <g id="line2d_30">
      <g>
       <use xlink:href="#mc74743aa04" x="845.454583" y="332.44" style="fill: #6b7280; stroke: #6b7280; stroke-width: 0.8"/>
      </g>
     </g>
     <g id="text_26">
      <!-- 2.5 -->
      <g style="fill: #6b7280" transform="translate(837.503021 347.038437) scale(0.1 -0.1)">
       <use xlink:href="#DejaVuSans-32"/>
       <use xlink:href="#DejaVuSans-2e" transform="translate(63.623047 0)"/>
       <use xlink:href="#DejaVuSans-35" transform="translate(95.410156 0)"/>
      </g>
     </g>
    </g>
    <g id="xtick_14">
     <g id="line2d_31">
      <g>
       <use xlink:href="#mc74743aa04" x="913.38625" y="332.44" style="fill: #6b7280; stroke: #6b7280; stroke-width: 0.8"/>
      </g>
     </g>
     <g id="text_27">
      <!-- 3.0 -->
      <g style="fill: #6b7280" transform="translate(905.434687 347.038437) scale(0.1 -0.1)">
       <use xlink:href="#DejaVuSans-33"/>
       <use xlink:href="#DejaVuSans-2e" transform="translate(63.623047 0)"/>
       <use xlink:href="#DejaVuSans-30" transform="translate(95.410156 0)"/>
      </g>
     </g>
    </g>
    <g id="text_28">
     <!-- Void score per dimension (0–3) -->
     <g style="fill: #9ca3af" transform="translate(632.175625 360.716562) scale(0.1 -0.1)">
      <use xlink:href="#DejaVuSans-56"/>
      <use xlink:href="#DejaVuSans-6f" transform="translate(60.658203 0)"/>
      <use xlink:href="#DejaVuSans-69" transform="translate(121.839844 0)"/>
      <use xlink:href="#DejaVuSans-64" transform="translate(149.623047 0)"/>
      <use xlink:href="#DejaVuSans-20" transform="translate(213.099609 0)"/>
      <use xlink:href="#DejaVuSans-73" transform="translate(244.886719 0)"/>
      <use xlink:href="#DejaVuSans-63" transform="translate(296.986328 0)"/>
      <use xlink:href="#DejaVuSans-6f" transform="translate(351.966797 0)"/>
      <use xlink:href="#DejaVuSans-72" transform="translate(413.148438 0)"/>
      <use xlink:href="#DejaVuSans-65" transform="translate(452.011719 0)"/>
      <use xlink:href="#DejaVuSans-20" transform="translate(513.535156 0)"/>
      <use xlink:href="#DejaVuSans-70" transform="translate(545.322266 0)"/>
      <use xlink:href="#DejaVuSans-65" transform="translate(608.798828 0)"/>
      <use xlink:href="#DejaVuSans-72" transform="translate(670.322266 0)"/>
      <use xlink:href="#DejaVuSans-20" transform="translate(711.435547 0)"/>
      <use xlink:href="#DejaVuSans-64" transform="translate(743.222656 0)"/>
      <use xlink:href="#DejaVuSans-69" transform="translate(806.699219 0)"/>
      <use xlink:href="#DejaVuSans-6d" transform="translate(834.482422 0)"/>
      <use xlink:href="#DejaVuSans-65" transform="translate(931.894531 0)"/>
      <use xlink:href="#DejaVuSans-6e" transform="translate(993.417969 0)"/>
      <use xlink:href="#DejaVuSans-73" transform="translate(1056.796875 0)"/>
      <use xlink:href="#DejaVuSans-69" transform="translate(1108.896484 0)"/>
      <use xlink:href="#DejaVuSans-6f" transform="translate(1136.679688 0)"/>
      <use xlink:href="#DejaVuSans-6e" transform="translate(1197.861328 0)"/>
      <use xlink:href="#DejaVuSans-20" transform="translate(1261.240234 0)"/>
      <use xlink:href="#DejaVuSans-28" transform="translate(1293.027344 0)"/>
      <use xlink:href="#DejaVuSans-30" transform="translate(1332.041016 0)"/>
      <use xlink:href="#DejaVuSans-2013" transform="translate(1395.664062 0)"/>
      <use xlink:href="#DejaVuSans-33" transform="translate(1445.664062 0)"/>
      <use xlink:href="#DejaVuSans-29" transform="translate(1509.287109 0)"/>
     </g>
    </g>
   </g>
   <g id="matplotlib.axis_4">
    <g id="ytick_7">
     <g id="line2d_32">
      <g>
       <use xlink:href="#m53fe28a81b" x="505.79625" y="332.44" style="fill: #6b7280; stroke: #6b7280; stroke-width: 0.8"/>
      </g>
     </g>
     <g id="text_29">
      <!-- −5 -->
      <g style="fill: #6b7280" transform="translate(484.054062 336.239219) scale(0.1 -0.1)">
       <use xlink:href="#DejaVuSans-2212"/>
       <use xlink:href="#DejaVuSans-35" transform="translate(83.789062 0)"/>
      </g>
     </g>
    </g>
    <g id="ytick_8">
     <g id="line2d_33">
      <g>
       <use xlink:href="#m53fe28a81b" x="505.79625" y="294.24" style="fill: #6b7280; stroke: #6b7280; stroke-width: 0.8"/>
      </g>
     </g>
     <g id="text_30">
      <!-- 0 -->
      <g style="fill: #6b7280" transform="translate(492.43375 298.039219) scale(0.1 -0.1)">
       <use xlink:href="#DejaVuSans-30"/>
      </g>
     </g>
    </g>
    <g id="ytick_9">
     <g id="line2d_34">
      <g>
       <use xlink:href="#m53fe28a81b" x="505.79625" y="256.04" style="fill: #6b7280; stroke: #6b7280; stroke-width: 0.8"/>
      </g>
     </g>
     <g id="text_31">
      <!-- 5 -->
      <g style="fill: #6b7280" transform="translate(492.43375 259.839219) scale(0.1 -0.1)">
       <use xlink:href="#DejaVuSans-35"/>
      </g>
     </g>
    </g>
    <g id="ytick_10">
     <g id="line2d_35">
      <g>
       <use xlink:href="#m53fe28a81b" x="505.79625" y="217.84" style="fill: #6b7280; stroke: #6b7280; stroke-width: 0.8"/>
      </g>
     </g>
     <g id="text_32">
      <!-- 10 -->
      <g style="fill: #6b7280" transform="translate(486.07125 221.639219) scale(0.1 -0.1)">
       <use xlink:href="#DejaVuSans-31"/>
       <use xlink:href="#DejaVuSans-30" transform="translate(63.623047 0)"/>
      </g>
     </g>
    </g>
    <g id="ytick_11">
     <g id="line2d_36">
      <g>
       <use xlink:href="#m53fe28a81b" x="505.79625" y="179.64" style="fill: #6b7280; stroke: #6b7280; stroke-width: 0.8"/>
      </g>
     </g>
     <g id="text_33">
      <!-- 15 -->
      <g style="fill: #6b7280" transform="translate(486.07125 183.439219) scale(0.1 -0.1)">
       <use xlink:href="#DejaVuSans-31"/>
       <use xlink:href="#DejaVuSans-35" transform="translate(63.623047 0)"/>
      </g>
     </g>
    </g>
    <g id="ytick_12">
     <g id="line2d_37">
      <g>
       <use xlink:href="#m53fe28a81b" x="505.79625" y="141.44" style="fill: #6b7280; stroke: #6b7280; stroke-width: 0.8"/>
      </g>
     </g>
     <g id="text_34">
      <!-- 20 -->
      <g style="fill: #6b7280" transform="translate(486.07125 145.239219) scale(0.1 -0.1)">
       <use xlink:href="#DejaVuSans-32"/>
       <use xlink:href="#DejaVuSans-30" transform="translate(63.623047 0)"/>
      </g>
     </g>
    </g>
    <g id="ytick_13">
     <g id="line2d_38">
      <g>
       <use xlink:href="#m53fe28a81b" x="505.79625" y="103.24" style="fill: #6b7280; stroke: #6b7280; stroke-width: 0.8"/>
      </g>
     </g>
     <g id="text_35">
      <!-- 25 -->
      <g style="fill: #6b7280" transform="translate(486.07125 107.039219) scale(0.1 -0.1)">
       <use xlink:href="#DejaVuSans-32"/>
       <use xlink:href="#DejaVuSans-35" transform="translate(63.623047 0)"/>
      </g>
     </g>
    </g>
    <g id="ytick_14">
     <g id="line2d_39">
      <g>
       <use xlink:href="#m53fe28a81b" x="505.79625" y="65.04" style="fill: #6b7280; stroke: #6b7280; stroke-width: 0.8"/>
      </g>
     </g>
     <g id="text_36">
      <!-- 30 -->
      <g style="fill: #6b7280" transform="translate(486.07125 68.839219) scale(0.1 -0.1)">
       <use xlink:href="#DejaVuSans-33"/>
       <use xlink:href="#DejaVuSans-30" transform="translate(63.623047 0)"/>
      </g>
     </g>
    </g>
    <g id="text_37">
     <!-- Pe (Péclet number) -->
     <g style="fill: #9ca3af" transform="translate(477.974375 246.329062) rotate(-90) scale(0.1 -0.1)">
      <defs>
       <path id="DejaVuSans-50" d="M 1259 4147 
L 1259 2394 
L 2053 2394 
Q 2494 2394 2734 2622 
Q 2975 2850 2975 3272 
Q 2975 3691 2734 3919 
Q 2494 4147 2053 4147 
L 1259 4147 
z
M 628 4666 
L 2053 4666 
Q 2838 4666 3239 4311 
Q 3641 3956 3641 3272 
Q 3641 2581 3239 2228 
Q 2838 1875 2053 1875 
L 1259 1875 
L 1259 0 
L 628 0 
L 628 4666 
z
" transform="scale(0.015625)"/>
       <path id="DejaVuSans-e9" d="M 3597 1894 
L 3597 1613 
L 953 1613 
Q 991 1019 1311 708 
Q 1631 397 2203 397 
Q 2534 397 2845 478 
Q 3156 559 3463 722 
L 3463 178 
Q 3153 47 2828 -22 
Q 2503 -91 2169 -91 
Q 1331 -91 842 396 
Q 353 884 353 1716 
Q 353 2575 817 3079 
Q 1281 3584 2069 3584 
Q 2775 3584 3186 3129 
Q 3597 2675 3597 1894 
z
M 3022 2063 
Q 3016 2534 2758 2815 
Q 2500 3097 2075 3097 
Q 1594 3097 1305 2825 
Q 1016 2553 972 2059 
L 3022 2063 
z
M 2466 5119 
L 3088 5119 
L 2070 3944 
L 1591 3944 
L 2466 5119 
z
" transform="scale(0.015625)"/>
       <path id="DejaVuSans-62" d="M 3116 1747 
Q 3116 2381 2855 2742 
Q 2594 3103 2138 3103 
Q 1681 3103 1420 2742 
Q 1159 2381 1159 1747 
Q 1159 1113 1420 752 
Q 1681 391 2138 391 
Q 2594 391 2855 752 
Q 3116 1113 3116 1747 
z
M 1159 2969 
Q 1341 3281 1617 3432 
Q 1894 3584 2278 3584 
Q 2916 3584 3314 3078 
Q 3713 2572 3713 1747 
Q 3713 922 3314 415 
Q 2916 -91 2278 -91 
Q 1894 -91 1617 61 
Q 1341 213 1159 525 
L 1159 0 
L 581 0 
L 581 4863 
L 1159 4863 
L 1159 2969 
z
" transform="scale(0.015625)"/>
      </defs>
      <use xlink:href="#DejaVuSans-50"/>
      <use xlink:href="#DejaVuSans-65" transform="translate(56.677734 0)"/>
      <use xlink:href="#DejaVuSans-20" transform="translate(118.201172 0)"/>
      <use xlink:href="#DejaVuSans-28" transform="translate(149.988281 0)"/>
      <use xlink:href="#DejaVuSans-50" transform="translate(189.001953 0)"/>
      <use xlink:href="#DejaVuSans-e9" transform="translate(245.679688 0)"/>
      <use xlink:href="#DejaVuSans-63" transform="translate(307.203125 0)"/>
      <use xlink:href="#DejaVuSans-6c" transform="translate(362.183594 0)"/>
      <use xlink:href="#DejaVuSans-65" transform="translate(389.966797 0)"/>
      <use xlink:href="#DejaVuSans-74" transform="translate(451.490234 0)"/>
      <use xlink:href="#DejaVuSans-20" transform="translate(490.699219 0)"/>
      <use xlink:href="#DejaVuSans-6e" transform="translate(522.486328 0)"/>
      <use xlink:href="#DejaVuSans-75" transform="translate(585.865234 0)"/>
      <use xlink:href="#DejaVuSans-6d" transform="translate(649.244141 0)"/>
      <use xlink:href="#DejaVuSans-62" transform="translate(746.65625 0)"/>
      <use xlink:href="#DejaVuSans-65" transform="translate(810.132812 0)"/>
      <use xlink:href="#DejaVuSans-72" transform="translate(871.65625 0)"/>
      <use xlink:href="#DejaVuSans-29" transform="translate(912.769531 0)"/>
     </g>
    </g>
   </g>
   <g id="line2d_40">
    <path d="M 543.684767 -1 
L 545.32839 12.962185 
L 548.054745 34.590611 
L 550.781099 54.548315 
L 553.507454 72.998504 
L 556.233809 90.087995 
L 558.960163 105.948987 
L 561.686518 120.700637 
L 564.412872 134.450449 
L 567.139227 147.295503 
L 569.865581 159.323547 
L 572.591936 170.61396 
L 575.31829 181.238611 
L 579.407822 196.068055 
L 583.497354 209.739423 
L 587.586885 222.421131 
L 591.676417 234.258961 
L 595.765949 245.37921 
L 599.855481 255.891343 
L 603.945013 265.890237 
L 609.397722 278.564153 
L 614.850431 290.635302 
L 621.666317 305.080403 
L 628.482203 319.004198 
L 638.024444 337.920535 
L 650.293039 361.68254 
L 655.150387 370.99625 
L 655.150387 370.99625 
" clip-path="url(#pc3a2609090)" style="fill: none; stroke: #6366f1; stroke-width: 2; stroke-linecap: square"/>
   </g>
   <g id="line2d_41">
    <path d="M 673.337963 -1 
L 676.193407 22.208117 
L 680.282939 54.038785 
L 684.372471 84.080437 
L 688.462003 112.238125 
L 692.551534 138.486453 
L 696.641066 162.866146 
L 700.730598 185.476997 
L 704.82013 206.46792 
L 708.909661 226.025032 
L 712.999193 244.358716 
L 717.088725 261.690551 
L 722.541434 283.620498 
L 729.35732 309.807082 
L 741.625916 355.644634 
L 745.741958 370.99625 
L 745.741958 370.99625 
" clip-path="url(#pc3a2609090)" style="fill: none; stroke: #22d3ee; stroke-width: 2; stroke-linecap: square"/>
   </g>
   <g id="line2d_42">
    <path d="M 609.212703 -1 
L 613.487253 13.722374 
L 618.939962 31.599617 
L 624.392671 48.529805 
L 629.84538 64.573987 
L 635.298089 79.790016 
L 640.750798 94.232759 
L 646.203508 107.954296 
L 651.656217 121.004106 
L 657.108926 133.429244 
L 662.561635 145.274514 
L 668.014344 156.582629 
L 673.467053 167.394366 
L 678.919762 177.74871 
L 684.372471 187.682998 
L 689.82518 197.233052 
L 696.641066 208.682631 
L 703.456952 219.650079 
L 710.272839 230.1972 
L 718.451902 242.382451 
L 726.630966 254.14681 
L 736.173207 267.467164 
L 748.441802 284.17883 
L 777.068524 322.97991 
L 786.610765 336.35698 
L 794.789829 348.18772 
L 801.605715 358.376969 
L 808.421601 368.92764 
L 809.72789 370.99625 
L 809.72789 370.99625 
" clip-path="url(#pc3a2609090)" style="fill: none; stroke: #f59e0b; stroke-width: 2.5; stroke-linecap: square"/>
   </g>
   <g id="line2d_43">
    <path d="M 505.79625 294.24 
L 913.38625 294.24 
" clip-path="url(#pc3a2609090)" style="fill: none; stroke-dasharray: 3.7,1.6; stroke-dashoffset: 0; stroke: #ef4444; stroke-opacity: 0.7"/>
   </g>
   <g id="line2d_44">
    <path d="M 505.79625 286.6 
L 913.38625 286.6 
" clip-path="url(#pc3a2609090)" style="fill: none; stroke-dasharray: 0.8,1.32; stroke-dashoffset: 0; stroke: #9ca3af; stroke-opacity: 0.5; stroke-width: 0.8"/>
   </g>
   <g id="line2d_45">
    <path d="M 755.908295 332.44 
L 755.908295 65.04 
" clip-path="url(#pc3a2609090)" style="fill: none; stroke-dasharray: 0.8,1.32; stroke-dashoffset: 0; stroke: #f59e0b; stroke-opacity: 0.5; stroke-width: 0.8"/>
   </g>
   <g id="patch_9">
    <path d="M 505.79625 332.44 
L 505.79625 65.04 
" style="fill: none; stroke: #1e1e2e; stroke-width: 0.8; stroke-linejoin: miter; stroke-linecap: square"/>
   </g>
   <g id="patch_10">
    <path d="M 913.38625 332.44 
L 913.38625 65.04 
" style="fill: none; stroke: #1e1e2e; stroke-width: 0.8; stroke-linejoin: miter; stroke-linecap: square"/>
   </g>
   <g id="patch_11">
    <path d="M 505.79625 332.44 
L 913.38625 332.44 
" style="fill: none; stroke: #1e1e2e; stroke-width: 0.8; stroke-linejoin: miter; stroke-linecap: square"/>
   </g>
   <g id="patch_12">
    <path d="M 505.79625 65.04 
L 913.38625 65.04 
" style="fill: none; stroke: #1e1e2e; stroke-width: 0.8; stroke-linejoin: miter; stroke-linecap: square"/>
   </g>
   <g id="text_38">
    <!-- Implied Pe — O=R=α diagonal -->
    <g style="fill: #e2e8f0" transform="translate(617.930937 59.04) scale(0.12 -0.12)">
     <use xlink:href="#DejaVuSans-49"/>
     <use xlink:href="#DejaVuSans-6d" transform="translate(29.492188 0)"/>
     <use xlink:href="#DejaVuSans-70" transform="translate(126.904297 0)"/>
     <use xlink:href="#DejaVuSans-6c" transform="translate(190.380859 0)"/>
     <use xlink:href="#DejaVuSans-69" transform="translate(218.164062 0)"/>
     <use xlink:href="#DejaVuSans-65" transform="translate(245.947266 0)"/>
     <use xlink:href="#DejaVuSans-64" transform="translate(307.470703 0)"/>
     <use xlink:href="#DejaVuSans-20" transform="translate(370.947266 0)"/>
     <use xlink:href="#DejaVuSans-50" transform="translate(402.734375 0)"/>
     <use xlink:href="#DejaVuSans-65" transform="translate(459.412109 0)"/>
     <use xlink:href="#DejaVuSans-20" transform="translate(520.935547 0)"/>
     <use xlink:href="#DejaVuSans-2014" transform="translate(552.722656 0)"/>
     <use xlink:href="#DejaVuSans-20" transform="translate(652.722656 0)"/>
     <use xlink:href="#DejaVuSans-4f" transform="translate(684.509766 0)"/>
     <use xlink:href="#DejaVuSans-3d" transform="translate(763.220703 0)"/>
     <use xlink:href="#DejaVuSans-52" transform="translate(847.009766 0)"/>
     <use xlink:href="#DejaVuSans-3d" transform="translate(916.492188 0)"/>
     <use xlink:href="#DejaVuSans-3b1" transform="translate(1000.28125 0)"/>
     <use xlink:href="#DejaVuSans-20" transform="translate(1066.199219 0)"/>
     <use xlink:href="#DejaVuSans-64" transform="translate(1097.986328 0)"/>
     <use xlink:href="#DejaVuSans-69" transform="translate(1161.462891 0)"/>
     <use xlink:href="#DejaVuSans-61" transform="translate(1189.246094 0)"/>
     <use xlink:href="#DejaVuSans-67" transform="translate(1250.525391 0)"/>
     <use xlink:href="#DejaVuSans-6f" transform="translate(1314.001953 0)"/>
     <use xlink:href="#DejaVuSans-6e" transform="translate(1375.183594 0)"/>
     <use xlink:href="#DejaVuSans-61" transform="translate(1438.5625 0)"/>
     <use xlink:href="#DejaVuSans-6c" transform="translate(1499.841797 0)"/>
    </g>
   </g>
   <g id="legend_2">
    <g id="patch_13">
     <path d="M 826.98125 118.41 
L 907.78625 118.41 
Q 909.38625 118.41 909.38625 116.81 
L 909.38625 70.64 
Q 909.38625 69.04 907.78625 69.04 
L 826.98125 69.04 
Q 825.38125 69.04 825.38125 70.64 
L 825.38125 116.81 
Q 825.38125 118.41 826.98125 118.41 
z
" style="fill: #111118; opacity: 0.8; stroke: #1e1e2e; stroke-linejoin: miter"/>
    </g>
    <g id="line2d_46">
     <path d="M 828.58125 75.51875 
L 836.58125 75.51875 
L 844.58125 75.51875 
" style="fill: none; stroke: #6366f1; stroke-width: 2; stroke-linecap: square"/>
    </g>
    <g id="text_39">
     <!-- V1 -->
     <g style="fill: #9ca3af" transform="translate(850.98125 78.31875) scale(0.08 -0.08)">
      <use xlink:href="#DejaVuSans-56"/>
      <use xlink:href="#DejaVuSans-31" transform="translate(68.408203 0)"/>
     </g>
    </g>
    <g id="line2d_47">
     <path d="M 828.58125 87.26125 
L 836.58125 87.26125 
L 844.58125 87.26125 
" style="fill: none; stroke: #22d3ee; stroke-width: 2; stroke-linecap: square"/>
    </g>
    <g id="text_40">
     <!-- V2 -->
     <g style="fill: #9ca3af" transform="translate(850.98125 90.06125) scale(0.08 -0.08)">
      <use xlink:href="#DejaVuSans-56"/>
      <use xlink:href="#DejaVuSans-32" transform="translate(68.408203 0)"/>
     </g>
    </g>
    <g id="line2d_48">
     <path d="M 828.58125 99.00375 
L 836.58125 99.00375 
L 844.58125 99.00375 
" style="fill: none; stroke: #f59e0b; stroke-width: 2.5; stroke-linecap: square"/>
    </g>
    <g id="text_41">
     <!-- V3 ← WINNER -->
     <g style="fill: #9ca3af" transform="translate(850.98125 101.80375) scale(0.08 -0.08)">
      <use xlink:href="#DejaVuSans-56"/>
      <use xlink:href="#DejaVuSans-33" transform="translate(68.408203 0)"/>
      <use xlink:href="#DejaVuSans-20" transform="translate(132.03125 0)"/>
      <use xlink:href="#DejaVuSans-2190" transform="translate(163.818359 0)"/>
      <use xlink:href="#DejaVuSans-20" transform="translate(247.607422 0)"/>
      <use xlink:href="#DejaVuSans-57" transform="translate(279.394531 0)"/>
      <use xlink:href="#DejaVuSans-49" transform="translate(378.271484 0)"/>
      <use xlink:href="#DejaVuSans-4e" transform="translate(407.763672 0)"/>
      <use xlink:href="#DejaVuSans-4e" transform="translate(482.568359 0)"/>
      <use xlink:href="#DejaVuSans-45" transform="translate(557.373047 0)"/>
      <use xlink:href="#DejaVuSans-52" transform="translate(620.556641 0)"/>
     </g>
    </g>
    <g id="line2d_49">
     <path d="M 828.58125 110.74625 
L 836.58125 110.74625 
L 844.58125 110.74625 
" style="fill: none; stroke-dasharray: 3.7,1.6; stroke-dashoffset: 0; stroke: #ef4444; stroke-opacity: 0.7"/>
    </g>
    <g id="text_42">
     <!-- Pe=0 -->
     <g style="fill: #9ca3af" transform="translate(850.98125 113.54625) scale(0.08 -0.08)">
      <use xlink:href="#DejaVuSans-50"/>
      <use xlink:href="#DejaVuSans-65" transform="translate(56.677734 0)"/>
      <use xlink:href="#DejaVuSans-3d" transform="translate(118.201172 0)"/>
      <use xlink:href="#DejaVuSans-30" transform="translate(201.990234 0)"/>
     </g>
    </g>
   </g>
   <g id="PathCollection_18">
    <g clip-path="url(#pc3a2609090)">
     <use xlink:href="#mcdce9deced" x="732.235139" y="299.927677" style="fill: #6366f1; fill-opacity: 0.9; stroke: #ffffff; stroke-opacity: 0.9; stroke-width: 0.3"/>
    </g>
   </g>
   <g id="PathCollection_19">
    <g clip-path="url(#pc3a2609090)">
     <use xlink:href="#mcdce9deced" x="913.38625" y="584.427842" style="fill: #6366f1; fill-opacity: 0.9; stroke: #ffffff; stroke-opacity: 0.9; stroke-width: 0.3"/>
    </g>
   </g>
   <g id="PathCollection_20">
    <g clip-path="url(#pc3a2609090)">
     <use xlink:href="#mcdce9deced" x="732.235139" y="319.859646" style="fill: #6366f1; fill-opacity: 0.9; stroke: #ffffff; stroke-opacity: 0.9; stroke-width: 0.3"/>
    </g>
   </g>
   <g id="PathCollection_21">
    <g clip-path="url(#pc3a2609090)">
     <use xlink:href="#mcdce9deced" x="777.522917" y="310.949493" style="fill: #6366f1; fill-opacity: 0.9; stroke: #ffffff; stroke-opacity: 0.9; stroke-width: 0.3"/>
    </g>
   </g>
   <g id="PathCollection_22">
    <g clip-path="url(#pc3a2609090)">
     <use xlink:href="#mcdce9deced" x="822.810694" y="307.632861" style="fill: #6366f1; fill-opacity: 0.9; stroke: #ffffff; stroke-opacity: 0.9; stroke-width: 0.3"/>
    </g>
   </g>
   <g id="PathCollection_23">
    <g clip-path="url(#pc3a2609090)">
     <use xlink:href="#mcdce9deced" x="777.522917" y="322.668996" style="fill: #6366f1; fill-opacity: 0.9; stroke: #ffffff; stroke-opacity: 0.9; stroke-width: 0.3"/>
    </g>
   </g>
   <g id="PathCollection_24">
    <g clip-path="url(#pc3a2609090)">
     <use xlink:href="#mcdce9deced" x="777.522917" y="346.972564" style="fill: #6366f1; fill-opacity: 0.9; stroke: #ffffff; stroke-opacity: 0.9; stroke-width: 0.3"/>
    </g>
   </g>
   <g id="PathCollection_25">
    <g clip-path="url(#pc3a2609090)">
     <use xlink:href="#mcdce9deced" x="822.810694" y="418.802385" style="fill: #6366f1; fill-opacity: 0.9; stroke: #ffffff; stroke-opacity: 0.9; stroke-width: 0.3"/>
    </g>
   </g>
   <g id="PathCollection_26">
    <g clip-path="url(#pc3a2609090)">
     <use xlink:href="#mcdce9deced" x="913.38625" y="489.896125" style="fill: #6366f1; fill-opacity: 0.9; stroke: #ffffff; stroke-opacity: 0.9; stroke-width: 0.3"/>
    </g>
   </g>
   <g id="PathCollection_27">
    <g clip-path="url(#pc3a2609090)"/>
   </g>
   <g id="PathCollection_28">
    <g clip-path="url(#pc3a2609090)">
     <use xlink:href="#mfe5822f2d0" x="686.947361" y="141.250709" style="fill: #22d3ee; fill-opacity: 0.9; stroke: #ffffff; stroke-opacity: 0.9; stroke-width: 0.3"/>
    </g>
   </g>
   <g id="PathCollection_29">
    <g clip-path="url(#pc3a2609090)">
     <use xlink:href="#mfe5822f2d0" x="732.235139" y="216.450243" style="fill: #22d3ee; fill-opacity: 0.9; stroke: #ffffff; stroke-opacity: 0.9; stroke-width: 0.3"/>
    </g>
   </g>
   <g id="PathCollection_30">
    <g clip-path="url(#pc3a2609090)">
     <use xlink:href="#mfe5822f2d0" x="777.522917" y="314.278243" style="fill: #22d3ee; fill-opacity: 0.9; stroke: #ffffff; stroke-opacity: 0.9; stroke-width: 0.3"/>
    </g>
   </g>
   <g id="PathCollection_31">
    <g clip-path="url(#pc3a2609090)">
     <use xlink:href="#mfe5822f2d0" x="822.810694" y="354.834029" style="fill: #22d3ee; fill-opacity: 0.9; stroke: #ffffff; stroke-opacity: 0.9; stroke-width: 0.3"/>
    </g>
   </g>
   <g id="PathCollection_32">
    <g clip-path="url(#pc3a2609090)">
     <use xlink:href="#mfe5822f2d0" x="868.098472" y="416.463822" style="fill: #22d3ee; fill-opacity: 0.9; stroke: #ffffff; stroke-opacity: 0.9; stroke-width: 0.3"/>
    </g>
   </g>
   <g id="PathCollection_33">
    <g clip-path="url(#pc3a2609090)">
     <use xlink:href="#mfe5822f2d0" x="868.098472" y="477.749185" style="fill: #22d3ee; fill-opacity: 0.9; stroke: #ffffff; stroke-opacity: 0.9; stroke-width: 0.3"/>
    </g>
   </g>
   <g id="PathCollection_34">
    <g clip-path="url(#pc3a2609090)">
     <use xlink:href="#mfe5822f2d0" x="913.38625" y="550.852223" style="fill: #22d3ee; fill-opacity: 0.9; stroke: #ffffff; stroke-opacity: 0.9; stroke-width: 0.3"/>
    </g>
   </g>
  </g>
  <g id="text_43">
   <!-- G1 Bridge: V1 / V2 / V3 along equal-dimension diagonal -->
   <g style="fill: #e2e8f0" transform="translate(296.744688 16.318125) scale(0.12 -0.12)">
    <defs>
     <path id="DejaVuSans-47" d="M 3809 666 
L 3809 1919 
L 2778 1919 
L 2778 2438 
L 4434 2438 
L 4434 434 
Q 4069 175 3628 42 
Q 3188 -91 2688 -91 
Q 1594 -91 976 548 
Q 359 1188 359 2328 
Q 359 3472 976 4111 
Q 1594 4750 2688 4750 
Q 3144 4750 3555 4637 
Q 3966 4525 4313 4306 
L 4313 3634 
Q 3963 3931 3569 4081 
Q 3175 4231 2741 4231 
Q 1884 4231 1454 3753 
Q 1025 3275 1025 2328 
Q 1025 1384 1454 906 
Q 1884 428 2741 428 
Q 3075 428 3337 486 
Q 3600 544 3809 666 
z
" transform="scale(0.015625)"/>
     <path id="DejaVuSans-3a" d="M 750 794 
L 1409 794 
L 1409 0 
L 750 0 
L 750 794 
z
M 750 3309 
L 1409 3309 
L 1409 2516 
L 750 2516 
L 750 3309 
z
" transform="scale(0.015625)"/>
     <path id="DejaVuSans-71" d="M 947 1747 
Q 947 1113 1208 752 
Q 1469 391 1925 391 
Q 2381 391 2643 752 
Q 2906 1113 2906 1747 
Q 2906 2381 2643 2742 
Q 2381 3103 1925 3103 
Q 1469 3103 1208 2742 
Q 947 2381 947 1747 
z
M 2906 525 
Q 2725 213 2448 61 
Q 2172 -91 1784 -91 
Q 1150 -91 751 415 
Q 353 922 353 1747 
Q 353 2572 751 3078 
Q 1150 3584 1784 3584 
Q 2172 3584 2448 3432 
Q 2725 3281 2906 2969 
L 2906 3500 
L 3481 3500 
L 3481 -1331 
L 2906 -1331 
L 2906 525 
z
" transform="scale(0.015625)"/>
     <path id="DejaVuSans-2d" d="M 313 2009 
L 1997 2009 
L 1997 1497 
L 313 1497 
L 313 2009 
z
" transform="scale(0.015625)"/>
    </defs>
    <use xlink:href="#DejaVuSans-47"/>
    <use xlink:href="#DejaVuSans-31" transform="translate(77.490234 0)"/>
    <use xlink:href="#DejaVuSans-20" transform="translate(141.113281 0)"/>
    <use xlink:href="#DejaVuSans-42" transform="translate(172.900391 0)"/>
    <use xlink:href="#DejaVuSans-72" transform="translate(241.503906 0)"/>
    <use xlink:href="#DejaVuSans-69" transform="translate(282.617188 0)"/>
    <use xlink:href="#DejaVuSans-64" transform="translate(310.400391 0)"/>
    <use xlink:href="#DejaVuSans-67" transform="translate(373.876953 0)"/>
    <use xlink:href="#DejaVuSans-65" transform="translate(437.353516 0)"/>
    <use xlink:href="#DejaVuSans-3a" transform="translate(498.876953 0)"/>
    <use xlink:href="#DejaVuSans-20" transform="translate(532.568359 0)"/>
    <use xlink:href="#DejaVuSans-56" transform="translate(564.355469 0)"/>
    <use xlink:href="#DejaVuSans-31" transform="translate(632.763672 0)"/>
    <use xlink:href="#DejaVuSans-20" transform="translate(696.386719 0)"/>
    <use xlink:href="#DejaVuSans-2f" transform="translate(728.173828 0)"/>
    <use xlink:href="#DejaVuSans-20" transform="translate(761.865234 0)"/>
    <use xlink:href="#DejaVuSans-56" transform="translate(793.652344 0)"/>
    <use xlink:href="#DejaVuSans-32" transform="translate(862.060547 0)"/>
    <use xlink:href="#DejaVuSans-20" transform="translate(925.683594 0)"/>
    <use xlink:href="#DejaVuSans-2f" transform="translate(957.470703 0)"/>
    <use xlink:href="#DejaVuSans-20" transform="translate(991.162109 0)"/>
    <use xlink:href="#DejaVuSans-56" transform="translate(1022.949219 0)"/>
    <use xlink:href="#DejaVuSans-33" transform="translate(1091.357422 0)"/>
    <use xlink:href="#DejaVuSans-20" transform="translate(1154.980469 0)"/>
    <use xlink:href="#DejaVuSans-61" transform="translate(1186.767578 0)"/>
    <use xlink:href="#DejaVuSans-6c" transform="translate(1248.046875 0)"/>
    <use xlink:href="#DejaVuSans-6f" transform="translate(1275.830078 0)"/>
    <use xlink:href="#DejaVuSans-6e" transform="translate(1337.011719 0)"/>
    <use xlink:href="#DejaVuSans-67" transform="translate(1400.390625 0)"/>
    <use xlink:href="#DejaVuSans-20" transform="translate(1463.867188 0)"/>
    <use xlink:href="#DejaVuSans-65" transform="translate(1495.654297 0)"/>
    <use xlink:href="#DejaVuSans-71" transform="translate(1557.177734 0)"/>
    <use xlink:href="#DejaVuSans-75" transform="translate(1620.654297 0)"/>
    <use xlink:href="#DejaVuSans-61" transform="translate(1684.033203 0)"/>
    <use xlink:href="#DejaVuSans-6c" transform="translate(1745.3125 0)"/>
    <use xlink:href="#DejaVuSans-2d" transform="translate(1773.095703 0)"/>
    <use xlink:href="#DejaVuSans-64" transform="translate(1809.179688 0)"/>
    <use xlink:href="#DejaVuSans-69" transform="translate(1872.65625 0)"/>
    <use xlink:href="#DejaVuSans-6d" transform="translate(1900.439453 0)"/>
    <use xlink:href="#DejaVuSans-65" transform="translate(1997.851562 0)"/>
    <use xlink:href="#DejaVuSans-6e" transform="translate(2059.375 0)"/>
    <use xlink:href="#DejaVuSans-73" transform="translate(2122.753906 0)"/>
    <use xlink:href="#DejaVuSans-69" transform="translate(2174.853516 0)"/>
    <use xlink:href="#DejaVuSans-6f" transform="translate(2202.636719 0)"/>
    <use xlink:href="#DejaVuSans-6e" transform="translate(2263.818359 0)"/>
    <use xlink:href="#DejaVuSans-20" transform="translate(2327.197266 0)"/>
    <use xlink:href="#DejaVuSans-64" transform="translate(2358.984375 0)"/>
    <use xlink:href="#DejaVuSans-69" transform="translate(2422.460938 0)"/>
    <use xlink:href="#DejaVuSans-61" transform="translate(2450.244141 0)"/>
    <use xlink:href="#DejaVuSans-67" transform="translate(2511.523438 0)"/>
    <use xlink:href="#DejaVuSans-6f" transform="translate(2575 0)"/>
    <use xlink:href="#DejaVuSans-6e" transform="translate(2636.181641 0)"/>
    <use xlink:href="#DejaVuSans-61" transform="translate(2699.560547 0)"/>
    <use xlink:href="#DejaVuSans-6c" transform="translate(2760.839844 0)"/>
   </g>
  </g>
 </g>
 <defs>
  <clipPath id="pf85cb6fe5c">
   <rect x="43.78125" y="65.04" width="407.59" height="267.4"/>
  </clipPath>
  <clipPath id="pc3a2609090">
   <rect x="505.79625" y="65.04" width="407.59" height="267.4"/>
  </clipPath>
 </defs>
</svg>
