<?xml version="1.0" encoding="utf-8" standalone="no"?>
<!DOCTYPE svg PUBLIC "-//W3C//DTD SVG 1.1//EN"
  "http://www.w3.org/Graphics/SVG/1.1/DTD/svg11.dtd">
<svg xmlns:xlink="http://www.w3.org/1999/xlink" width="1144.470937pt" height="391.5pt" viewBox="0 0 1144.470937 391.5" xmlns="http://www.w3.org/2000/svg" version="1.1">
 <metadata>
  <rdf:RDF xmlns:dc="http://purl.org/dc/elements/1.1/" xmlns:cc="http://creativecommons.org/ns#" xmlns:rdf="http://www.w3.org/1999/02/22-rdf-syntax-ns#">
   <cc:Work>
    <dc:type rdf:resource="http://purl.org/dc/dcmitype/StillImage"/>
    <dc:date>2026-02-22T23:10:01.679883</dc:date>
    <dc:format>image/svg+xml</dc:format>
    <dc:creator>
     <cc:Agent>
      <dc:title>Matplotlib v3.10.8, https://matplotlib.org/</dc:title>
     </cc:Agent>
    </dc:creator>
   </cc:Work>
  </rdf:RDF>
 </metadata>
 <defs>
  <style type="text/css">*{stroke-linejoin: round; stroke-linecap: butt}</style>
 </defs>
 <g id="figure_1">
  <g id="patch_1">
   <path d="M 0 391.5 
L 1144.470937 391.5 
L 1144.470937 0 
L 0 0 
z
" style="fill: #0a0a0f"/>
  </g>
  <g id="axes_1">
   <g id="patch_2">
    <path d="M 52.160938 333.16 
L 382.530938 333.16 
L 382.530938 74.96 
L 52.160938 74.96 
z
" style="fill: #111118"/>
   </g>
   <g id="matplotlib.axis_1">
    <g id="xtick_1">
     <g id="line2d_1">
      <defs>
       <path id="m2fea1d5fe5" d="M 0 0 
L 0 3.5 
" style="stroke: #6b7280; stroke-width: 0.8"/>
      </defs>
      <g>
       <use xlink:href="#m2fea1d5fe5" x="97.211392" y="333.16" style="fill: #6b7280; stroke: #6b7280; stroke-width: 0.8"/>
      </g>
     </g>
     <g id="text_1">
      <!-- O (opacity) -->
      <g style="fill: #6b7280" transform="translate(72.207564 346.998594) scale(0.09 -0.09)">
       <defs>
        <path id="DejaVuSans-4f" d="M 2522 4238 
Q 1834 4238 1429 3725 
Q 1025 3213 1025 2328 
Q 1025 1447 1429 934 
Q 1834 422 2522 422 
Q 3209 422 3611 934 
Q 4013 1447 4013 2328 
Q 4013 3213 3611 3725 
Q 3209 4238 2522 4238 
z
M 2522 4750 
Q 3503 4750 4090 4092 
Q 4678 3434 4678 2328 
Q 4678 1225 4090 567 
Q 3503 -91 2522 -91 
Q 1538 -91 948 565 
Q 359 1222 359 2328 
Q 359 3434 948 4092 
Q 1538 4750 2522 4750 
z
" transform="scale(0.015625)"/>
        <path id="DejaVuSans-20" transform="scale(0.015625)"/>
        <path id="DejaVuSans-28" d="M 1984 4856 
Q 1566 4138 1362 3434 
Q 1159 2731 1159 2009 
Q 1159 1288 1364 580 
Q 1569 -128 1984 -844 
L 1484 -844 
Q 1016 -109 783 600 
Q 550 1309 550 2009 
Q 550 2706 781 3412 
Q 1013 4119 1484 4856 
L 1984 4856 
z
" transform="scale(0.015625)"/>
        <path id="DejaVuSans-6f" d="M 1959 3097 
Q 1497 3097 1228 2736 
Q 959 2375 959 1747 
Q 959 1119 1226 758 
Q 1494 397 1959 397 
Q 2419 397 2687 759 
Q 2956 1122 2956 1747 
Q 2956 2369 2687 2733 
Q 2419 3097 1959 3097 
z
M 1959 3584 
Q 2709 3584 3137 3096 
Q 3566 2609 3566 1747 
Q 3566 888 3137 398 
Q 2709 -91 1959 -91 
Q 1206 -91 779 398 
Q 353 888 353 1747 
Q 353 2609 779 3096 
Q 1206 3584 1959 3584 
z
" transform="scale(0.015625)"/>
        <path id="DejaVuSans-70" d="M 1159 525 
L 1159 -1331 
L 581 -1331 
L 581 3500 
L 1159 3500 
L 1159 2969 
Q 1341 3281 1617 3432 
Q 1894 3584 2278 3584 
Q 2916 3584 3314 3078 
Q 3713 2572 3713 1747 
Q 3713 922 3314 415 
Q 2916 -91 2278 -91 
Q 1894 -91 1617 61 
Q 1341 213 1159 525 
z
M 3116 1747 
Q 3116 2381 2855 2742 
Q 2594 3103 2138 3103 
Q 1681 3103 1420 2742 
Q 1159 2381 1159 1747 
Q 1159 1113 1420 752 
Q 1681 391 2138 391 
Q 2594 391 2855 752 
Q 3116 1113 3116 1747 
z
" transform="scale(0.015625)"/>
        <path id="DejaVuSans-61" d="M 2194 1759 
Q 1497 1759 1228 1600 
Q 959 1441 959 1056 
Q 959 750 1161 570 
Q 1363 391 1709 391 
Q 2188 391 2477 730 
Q 2766 1069 2766 1631 
L 2766 1759 
L 2194 1759 
z
M 3341 1997 
L 3341 0 
L 2766 0 
L 2766 531 
Q 2569 213 2275 61 
Q 1981 -91 1556 -91 
Q 1019 -91 701 211 
Q 384 513 384 1019 
Q 384 1609 779 1909 
Q 1175 2209 1959 2209 
L 2766 2209 
L 2766 2266 
Q 2766 2663 2505 2880 
Q 2244 3097 1772 3097 
Q 1472 3097 1187 3025 
Q 903 2953 641 2809 
L 641 3341 
Q 956 3463 1253 3523 
Q 1550 3584 1831 3584 
Q 2591 3584 2966 3190 
Q 3341 2797 3341 1997 
z
" transform="scale(0.015625)"/>
        <path id="DejaVuSans-63" d="M 3122 3366 
L 3122 2828 
Q 2878 2963 2633 3030 
Q 2388 3097 2138 3097 
Q 1578 3097 1268 2742 
Q 959 2388 959 1747 
Q 959 1106 1268 751 
Q 1578 397 2138 397 
Q 2388 397 2633 464 
Q 2878 531 3122 666 
L 3122 134 
Q 2881 22 2623 -34 
Q 2366 -91 2075 -91 
Q 1284 -91 818 406 
Q 353 903 353 1747 
Q 353 2603 823 3093 
Q 1294 3584 2113 3584 
Q 2378 3584 2631 3529 
Q 2884 3475 3122 3366 
z
" transform="scale(0.015625)"/>
        <path id="DejaVuSans-69" d="M 603 3500 
L 1178 3500 
L 1178 0 
L 603 0 
L 603 3500 
z
M 603 4863 
L 1178 4863 
L 1178 4134 
L 603 4134 
L 603 4863 
z
" transform="scale(0.015625)"/>
        <path id="DejaVuSans-74" d="M 1172 4494 
L 1172 3500 
L 2356 3500 
L 2356 3053 
L 1172 3053 
L 1172 1153 
Q 1172 725 1289 603 
Q 1406 481 1766 481 
L 2356 481 
L 2356 0 
L 1766 0 
Q 1100 0 847 248 
Q 594 497 594 1153 
L 594 3053 
L 172 3053 
L 172 3500 
L 594 3500 
L 594 4494 
L 1172 4494 
z
" transform="scale(0.015625)"/>
        <path id="DejaVuSans-79" d="M 2059 -325 
Q 1816 -950 1584 -1140 
Q 1353 -1331 966 -1331 
L 506 -1331 
L 506 -850 
L 844 -850 
Q 1081 -850 1212 -737 
Q 1344 -625 1503 -206 
L 1606 56 
L 191 3500 
L 800 3500 
L 1894 763 
L 2988 3500 
L 3597 3500 
L 2059 -325 
z
" transform="scale(0.015625)"/>
        <path id="DejaVuSans-29" d="M 513 4856 
L 1013 4856 
Q 1481 4119 1714 3412 
Q 1947 2706 1947 2009 
Q 1947 1309 1714 600 
Q 1481 -109 1013 -844 
L 513 -844 
Q 928 -128 1133 580 
Q 1338 1288 1338 2009 
Q 1338 2731 1133 3434 
Q 928 4138 513 4856 
z
" transform="scale(0.015625)"/>
       </defs>
       <use xlink:href="#DejaVuSans-4f"/>
       <use xlink:href="#DejaVuSans-20" transform="translate(78.710938 0)"/>
       <use xlink:href="#DejaVuSans-28" transform="translate(110.498047 0)"/>
       <use xlink:href="#DejaVuSans-6f" transform="translate(149.511719 0)"/>
       <use xlink:href="#DejaVuSans-70" transform="translate(210.693359 0)"/>
       <use xlink:href="#DejaVuSans-61" transform="translate(274.169922 0)"/>
       <use xlink:href="#DejaVuSans-63" transform="translate(335.449219 0)"/>
       <use xlink:href="#DejaVuSans-69" transform="translate(390.429688 0)"/>
       <use xlink:href="#DejaVuSans-74" transform="translate(418.212891 0)"/>
       <use xlink:href="#DejaVuSans-79" transform="translate(457.421875 0)"/>
       <use xlink:href="#DejaVuSans-29" transform="translate(516.601562 0)"/>
      </g>
     </g>
    </g>
    <g id="xtick_2">
     <g id="line2d_2">
      <g>
       <use xlink:href="#m2fea1d5fe5" x="217.345938" y="333.16" style="fill: #6b7280; stroke: #6b7280; stroke-width: 0.8"/>
      </g>
     </g>
     <g id="text_2">
      <!-- R (responsiveness) -->
      <g style="fill: #6b7280" transform="translate(174.617734 346.998594) scale(0.09 -0.09)">
       <defs>
        <path id="DejaVuSans-52" d="M 2841 2188 
Q 3044 2119 3236 1894 
Q 3428 1669 3622 1275 
L 4263 0 
L 3584 0 
L 2988 1197 
Q 2756 1666 2539 1819 
Q 2322 1972 1947 1972 
L 1259 1972 
L 1259 0 
L 628 0 
L 628 4666 
L 2053 4666 
Q 2853 4666 3247 4331 
Q 3641 3997 3641 3322 
Q 3641 2881 3436 2590 
Q 3231 2300 2841 2188 
z
M 1259 4147 
L 1259 2491 
L 2053 2491 
Q 2509 2491 2742 2702 
Q 2975 2913 2975 3322 
Q 2975 3731 2742 3939 
Q 2509 4147 2053 4147 
L 1259 4147 
z
" transform="scale(0.015625)"/>
        <path id="DejaVuSans-72" d="M 2631 2963 
Q 2534 3019 2420 3045 
Q 2306 3072 2169 3072 
Q 1681 3072 1420 2755 
Q 1159 2438 1159 1844 
L 1159 0 
L 581 0 
L 581 3500 
L 1159 3500 
L 1159 2956 
Q 1341 3275 1631 3429 
Q 1922 3584 2338 3584 
Q 2397 3584 2469 3576 
Q 2541 3569 2628 3553 
L 2631 2963 
z
" transform="scale(0.015625)"/>
        <path id="DejaVuSans-65" d="M 3597 1894 
L 3597 1613 
L 953 1613 
Q 991 1019 1311 708 
Q 1631 397 2203 397 
Q 2534 397 2845 478 
Q 3156 559 3463 722 
L 3463 178 
Q 3153 47 2828 -22 
Q 2503 -91 2169 -91 
Q 1331 -91 842 396 
Q 353 884 353 1716 
Q 353 2575 817 3079 
Q 1281 3584 2069 3584 
Q 2775 3584 3186 3129 
Q 3597 2675 3597 1894 
z
M 3022 2063 
Q 3016 2534 2758 2815 
Q 2500 3097 2075 3097 
Q 1594 3097 1305 2825 
Q 1016 2553 972 2059 
L 3022 2063 
z
" transform="scale(0.015625)"/>
        <path id="DejaVuSans-73" d="M 2834 3397 
L 2834 2853 
Q 2591 2978 2328 3040 
Q 2066 3103 1784 3103 
Q 1356 3103 1142 2972 
Q 928 2841 928 2578 
Q 928 2378 1081 2264 
Q 1234 2150 1697 2047 
L 1894 2003 
Q 2506 1872 2764 1633 
Q 3022 1394 3022 966 
Q 3022 478 2636 193 
Q 2250 -91 1575 -91 
Q 1294 -91 989 -36 
Q 684 19 347 128 
L 347 722 
Q 666 556 975 473 
Q 1284 391 1588 391 
Q 1994 391 2212 530 
Q 2431 669 2431 922 
Q 2431 1156 2273 1281 
Q 2116 1406 1581 1522 
L 1381 1569 
Q 847 1681 609 1914 
Q 372 2147 372 2553 
Q 372 3047 722 3315 
Q 1072 3584 1716 3584 
Q 2034 3584 2315 3537 
Q 2597 3491 2834 3397 
z
" transform="scale(0.015625)"/>
        <path id="DejaVuSans-6e" d="M 3513 2113 
L 3513 0 
L 2938 0 
L 2938 2094 
Q 2938 2591 2744 2837 
Q 2550 3084 2163 3084 
Q 1697 3084 1428 2787 
Q 1159 2491 1159 1978 
L 1159 0 
L 581 0 
L 581 3500 
L 1159 3500 
L 1159 2956 
Q 1366 3272 1645 3428 
Q 1925 3584 2291 3584 
Q 2894 3584 3203 3211 
Q 3513 2838 3513 2113 
z
" transform="scale(0.015625)"/>
        <path id="DejaVuSans-76" d="M 191 3500 
L 800 3500 
L 1894 563 
L 2988 3500 
L 3597 3500 
L 2284 0 
L 1503 0 
L 191 3500 
z
" transform="scale(0.015625)"/>
       </defs>
       <use xlink:href="#DejaVuSans-52"/>
       <use xlink:href="#DejaVuSans-20" transform="translate(69.482422 0)"/>
       <use xlink:href="#DejaVuSans-28" transform="translate(101.269531 0)"/>
       <use xlink:href="#DejaVuSans-72" transform="translate(140.283203 0)"/>
       <use xlink:href="#DejaVuSans-65" transform="translate(179.146484 0)"/>
       <use xlink:href="#DejaVuSans-73" transform="translate(240.669922 0)"/>
       <use xlink:href="#DejaVuSans-70" transform="translate(292.769531 0)"/>
       <use xlink:href="#DejaVuSans-6f" transform="translate(356.246094 0)"/>
       <use xlink:href="#DejaVuSans-6e" transform="translate(417.427734 0)"/>
       <use xlink:href="#DejaVuSans-73" transform="translate(480.806641 0)"/>
       <use xlink:href="#DejaVuSans-69" transform="translate(532.90625 0)"/>
       <use xlink:href="#DejaVuSans-76" transform="translate(560.689453 0)"/>
       <use xlink:href="#DejaVuSans-65" transform="translate(619.869141 0)"/>
       <use xlink:href="#DejaVuSans-6e" transform="translate(681.392578 0)"/>
       <use xlink:href="#DejaVuSans-65" transform="translate(744.771484 0)"/>
       <use xlink:href="#DejaVuSans-73" transform="translate(806.294922 0)"/>
       <use xlink:href="#DejaVuSans-73" transform="translate(858.394531 0)"/>
       <use xlink:href="#DejaVuSans-29" transform="translate(910.494141 0)"/>
      </g>
     </g>
    </g>
    <g id="xtick_3">
     <g id="line2d_3">
      <g>
       <use xlink:href="#m2fea1d5fe5" x="337.480483" y="333.16" style="fill: #6b7280; stroke: #6b7280; stroke-width: 0.8"/>
      </g>
     </g>
     <g id="text_3">
      <!-- α (coupling) -->
      <g style="fill: #6b7280" transform="translate(310.427045 346.998594) scale(0.09 -0.09)">
       <defs>
        <path id="DejaVuSans-3b1" d="M 2644 1628 
L 2506 2350 
Q 2366 3091 1809 3091 
Q 1391 3091 1200 2747 
Q 959 2316 959 1747 
Q 959 1059 1194 731 
Q 1431 397 1809 397 
Q 2228 397 2453 1063 
L 2644 1628 
z
M 2966 2584 
L 3275 3500 
L 3788 3500 
L 3147 1603 
L 3272 919 
Q 3300 766 3409 638 
Q 3538 488 3638 488 
L 3913 488 
L 3913 0 
L 3569 0 
Q 3275 0 3013 263 
Q 2884 394 2831 669 
Q 2688 322 2394 50 
Q 2256 -78 1809 -78 
Q 1075 -78 719 397 
Q 353 888 353 1747 
Q 353 2666 750 3097 
Q 1191 3578 1809 3578 
Q 2781 3578 2966 2584 
z
" transform="scale(0.015625)"/>
        <path id="DejaVuSans-75" d="M 544 1381 
L 544 3500 
L 1119 3500 
L 1119 1403 
Q 1119 906 1312 657 
Q 1506 409 1894 409 
Q 2359 409 2629 706 
Q 2900 1003 2900 1516 
L 2900 3500 
L 3475 3500 
L 3475 0 
L 2900 0 
L 2900 538 
Q 2691 219 2414 64 
Q 2138 -91 1772 -91 
Q 1169 -91 856 284 
Q 544 659 544 1381 
z
M 1991 3584 
L 1991 3584 
z
" transform="scale(0.015625)"/>
        <path id="DejaVuSans-6c" d="M 603 4863 
L 1178 4863 
L 1178 0 
L 603 0 
L 603 4863 
z
" transform="scale(0.015625)"/>
        <path id="DejaVuSans-67" d="M 2906 1791 
Q 2906 2416 2648 2759 
Q 2391 3103 1925 3103 
Q 1463 3103 1205 2759 
Q 947 2416 947 1791 
Q 947 1169 1205 825 
Q 1463 481 1925 481 
Q 2391 481 2648 825 
Q 2906 1169 2906 1791 
z
M 3481 434 
Q 3481 -459 3084 -895 
Q 2688 -1331 1869 -1331 
Q 1566 -1331 1297 -1286 
Q 1028 -1241 775 -1147 
L 775 -588 
Q 1028 -725 1275 -790 
Q 1522 -856 1778 -856 
Q 2344 -856 2625 -561 
Q 2906 -266 2906 331 
L 2906 616 
Q 2728 306 2450 153 
Q 2172 0 1784 0 
Q 1141 0 747 490 
Q 353 981 353 1791 
Q 353 2603 747 3093 
Q 1141 3584 1784 3584 
Q 2172 3584 2450 3431 
Q 2728 3278 2906 2969 
L 2906 3500 
L 3481 3500 
L 3481 434 
z
" transform="scale(0.015625)"/>
       </defs>
       <use xlink:href="#DejaVuSans-3b1"/>
       <use xlink:href="#DejaVuSans-20" transform="translate(65.917969 0)"/>
       <use xlink:href="#DejaVuSans-28" transform="translate(97.705078 0)"/>
       <use xlink:href="#DejaVuSans-63" transform="translate(136.71875 0)"/>
       <use xlink:href="#DejaVuSans-6f" transform="translate(191.699219 0)"/>
       <use xlink:href="#DejaVuSans-75" transform="translate(252.880859 0)"/>
       <use xlink:href="#DejaVuSans-70" transform="translate(316.259766 0)"/>
       <use xlink:href="#DejaVuSans-6c" transform="translate(379.736328 0)"/>
       <use xlink:href="#DejaVuSans-69" transform="translate(407.519531 0)"/>
       <use xlink:href="#DejaVuSans-6e" transform="translate(435.302734 0)"/>
       <use xlink:href="#DejaVuSans-67" transform="translate(498.681641 0)"/>
       <use xlink:href="#DejaVuSans-29" transform="translate(562.158203 0)"/>
      </g>
     </g>
    </g>
   </g>
   <g id="matplotlib.axis_2">
    <g id="ytick_1">
     <g id="line2d_4">
      <defs>
       <path id="mf3ffa6400c" d="M 0 0 
L -3.5 0 
" style="stroke: #6b7280; stroke-width: 0.8"/>
      </defs>
      <g>
       <use xlink:href="#mf3ffa6400c" x="52.160938" y="321.423636" style="fill: #6b7280; stroke: #6b7280; stroke-width: 0.8"/>
      </g>
     </g>
     <g id="text_4">
      <!-- −1.0 -->
      <g style="fill: #6b7280" transform="translate(20.878125 325.222855) scale(0.1 -0.1)">
       <defs>
        <path id="DejaVuSans-2212" d="M 678 2272 
L 4684 2272 
L 4684 1741 
L 678 1741 
L 678 2272 
z
" transform="scale(0.015625)"/>
        <path id="DejaVuSans-31" d="M 794 531 
L 1825 531 
L 1825 4091 
L 703 3866 
L 703 4441 
L 1819 4666 
L 2450 4666 
L 2450 531 
L 3481 531 
L 3481 0 
L 794 0 
L 794 531 
z
" transform="scale(0.015625)"/>
        <path id="DejaVuSans-2e" d="M 684 794 
L 1344 794 
L 1344 0 
L 684 0 
L 684 794 
z
" transform="scale(0.015625)"/>
        <path id="DejaVuSans-30" d="M 2034 4250 
Q 1547 4250 1301 3770 
Q 1056 3291 1056 2328 
Q 1056 1369 1301 889 
Q 1547 409 2034 409 
Q 2525 409 2770 889 
Q 3016 1369 3016 2328 
Q 3016 3291 2770 3770 
Q 2525 4250 2034 4250 
z
M 2034 4750 
Q 2819 4750 3233 4129 
Q 3647 3509 3647 2328 
Q 3647 1150 3233 529 
Q 2819 -91 2034 -91 
Q 1250 -91 836 529 
Q 422 1150 422 2328 
Q 422 3509 836 4129 
Q 1250 4750 2034 4750 
z
" transform="scale(0.015625)"/>
       </defs>
       <use xlink:href="#DejaVuSans-2212"/>
       <use xlink:href="#DejaVuSans-31" transform="translate(83.789062 0)"/>
       <use xlink:href="#DejaVuSans-2e" transform="translate(147.412109 0)"/>
       <use xlink:href="#DejaVuSans-30" transform="translate(179.199219 0)"/>
      </g>
     </g>
    </g>
    <g id="ytick_2">
     <g id="line2d_5">
      <g>
       <use xlink:href="#mf3ffa6400c" x="52.160938" y="279.063773" style="fill: #6b7280; stroke: #6b7280; stroke-width: 0.8"/>
      </g>
     </g>
     <g id="text_5">
      <!-- −0.8 -->
      <g style="fill: #6b7280" transform="translate(20.878125 282.862992) scale(0.1 -0.1)">
       <defs>
        <path id="DejaVuSans-38" d="M 2034 2216 
Q 1584 2216 1326 1975 
Q 1069 1734 1069 1313 
Q 1069 891 1326 650 
Q 1584 409 2034 409 
Q 2484 409 2743 651 
Q 3003 894 3003 1313 
Q 3003 1734 2745 1975 
Q 2488 2216 2034 2216 
z
M 1403 2484 
Q 997 2584 770 2862 
Q 544 3141 544 3541 
Q 544 4100 942 4425 
Q 1341 4750 2034 4750 
Q 2731 4750 3128 4425 
Q 3525 4100 3525 3541 
Q 3525 3141 3298 2862 
Q 3072 2584 2669 2484 
Q 3125 2378 3379 2068 
Q 3634 1759 3634 1313 
Q 3634 634 3220 271 
Q 2806 -91 2034 -91 
Q 1263 -91 848 271 
Q 434 634 434 1313 
Q 434 1759 690 2068 
Q 947 2378 1403 2484 
z
M 1172 3481 
Q 1172 3119 1398 2916 
Q 1625 2713 2034 2713 
Q 2441 2713 2670 2916 
Q 2900 3119 2900 3481 
Q 2900 3844 2670 4047 
Q 2441 4250 2034 4250 
Q 1625 4250 1398 4047 
Q 1172 3844 1172 3481 
z
" transform="scale(0.015625)"/>
       </defs>
       <use xlink:href="#DejaVuSans-2212"/>
       <use xlink:href="#DejaVuSans-30" transform="translate(83.789062 0)"/>
       <use xlink:href="#DejaVuSans-2e" transform="translate(147.412109 0)"/>
       <use xlink:href="#DejaVuSans-38" transform="translate(179.199219 0)"/>
      </g>
     </g>
    </g>
    <g id="ytick_3">
     <g id="line2d_6">
      <g>
       <use xlink:href="#mf3ffa6400c" x="52.160938" y="236.703909" style="fill: #6b7280; stroke: #6b7280; stroke-width: 0.8"/>
      </g>
     </g>
     <g id="text_6">
      <!-- −0.6 -->
      <g style="fill: #6b7280" transform="translate(20.878125 240.503128) scale(0.1 -0.1)">
       <defs>
        <path id="DejaVuSans-36" d="M 2113 2584 
Q 1688 2584 1439 2293 
Q 1191 2003 1191 1497 
Q 1191 994 1439 701 
Q 1688 409 2113 409 
Q 2538 409 2786 701 
Q 3034 994 3034 1497 
Q 3034 2003 2786 2293 
Q 2538 2584 2113 2584 
z
M 3366 4563 
L 3366 3988 
Q 3128 4100 2886 4159 
Q 2644 4219 2406 4219 
Q 1781 4219 1451 3797 
Q 1122 3375 1075 2522 
Q 1259 2794 1537 2939 
Q 1816 3084 2150 3084 
Q 2853 3084 3261 2657 
Q 3669 2231 3669 1497 
Q 3669 778 3244 343 
Q 2819 -91 2113 -91 
Q 1303 -91 875 529 
Q 447 1150 447 2328 
Q 447 3434 972 4092 
Q 1497 4750 2381 4750 
Q 2619 4750 2861 4703 
Q 3103 4656 3366 4563 
z
" transform="scale(0.015625)"/>
       </defs>
       <use xlink:href="#DejaVuSans-2212"/>
       <use xlink:href="#DejaVuSans-30" transform="translate(83.789062 0)"/>
       <use xlink:href="#DejaVuSans-2e" transform="translate(147.412109 0)"/>
       <use xlink:href="#DejaVuSans-36" transform="translate(179.199219 0)"/>
      </g>
     </g>
    </g>
    <g id="ytick_4">
     <g id="line2d_7">
      <g>
       <use xlink:href="#mf3ffa6400c" x="52.160938" y="194.344046" style="fill: #6b7280; stroke: #6b7280; stroke-width: 0.8"/>
      </g>
     </g>
     <g id="text_7">
      <!-- −0.4 -->
      <g style="fill: #6b7280" transform="translate(20.878125 198.143265) scale(0.1 -0.1)">
       <defs>
        <path id="DejaVuSans-34" d="M 2419 4116 
L 825 1625 
L 2419 1625 
L 2419 4116 
z
M 2253 4666 
L 3047 4666 
L 3047 1625 
L 3713 1625 
L 3713 1100 
L 3047 1100 
L 3047 0 
L 2419 0 
L 2419 1100 
L 313 1100 
L 313 1709 
L 2253 4666 
z
" transform="scale(0.015625)"/>
       </defs>
       <use xlink:href="#DejaVuSans-2212"/>
       <use xlink:href="#DejaVuSans-30" transform="translate(83.789062 0)"/>
       <use xlink:href="#DejaVuSans-2e" transform="translate(147.412109 0)"/>
       <use xlink:href="#DejaVuSans-34" transform="translate(179.199219 0)"/>
      </g>
     </g>
    </g>
    <g id="ytick_5">
     <g id="line2d_8">
      <g>
       <use xlink:href="#mf3ffa6400c" x="52.160938" y="151.984182" style="fill: #6b7280; stroke: #6b7280; stroke-width: 0.8"/>
      </g>
     </g>
     <g id="text_8">
      <!-- −0.2 -->
      <g style="fill: #6b7280" transform="translate(20.878125 155.783401) scale(0.1 -0.1)">
       <defs>
        <path id="DejaVuSans-32" d="M 1228 531 
L 3431 531 
L 3431 0 
L 469 0 
L 469 531 
Q 828 903 1448 1529 
Q 2069 2156 2228 2338 
Q 2531 2678 2651 2914 
Q 2772 3150 2772 3378 
Q 2772 3750 2511 3984 
Q 2250 4219 1831 4219 
Q 1534 4219 1204 4116 
Q 875 4013 500 3803 
L 500 4441 
Q 881 4594 1212 4672 
Q 1544 4750 1819 4750 
Q 2544 4750 2975 4387 
Q 3406 4025 3406 3419 
Q 3406 3131 3298 2873 
Q 3191 2616 2906 2266 
Q 2828 2175 2409 1742 
Q 1991 1309 1228 531 
z
" transform="scale(0.015625)"/>
       </defs>
       <use xlink:href="#DejaVuSans-2212"/>
       <use xlink:href="#DejaVuSans-30" transform="translate(83.789062 0)"/>
       <use xlink:href="#DejaVuSans-2e" transform="translate(147.412109 0)"/>
       <use xlink:href="#DejaVuSans-32" transform="translate(179.199219 0)"/>
      </g>
     </g>
    </g>
    <g id="ytick_6">
     <g id="line2d_9">
      <g>
       <use xlink:href="#mf3ffa6400c" x="52.160938" y="109.624319" style="fill: #6b7280; stroke: #6b7280; stroke-width: 0.8"/>
      </g>
     </g>
     <g id="text_9">
      <!-- 0.0 -->
      <g style="fill: #6b7280" transform="translate(29.257812 113.423538) scale(0.1 -0.1)">
       <use xlink:href="#DejaVuSans-30"/>
       <use xlink:href="#DejaVuSans-2e" transform="translate(63.623047 0)"/>
       <use xlink:href="#DejaVuSans-30" transform="translate(95.410156 0)"/>
      </g>
     </g>
    </g>
    <g id="text_10">
     <!-- OLS coefficient bᵢ -->
     <g style="fill: #9ca3af" transform="translate(14.798437 247.340469) rotate(-90) scale(0.1 -0.1)">
      <defs>
       <path id="DejaVuSans-4c" d="M 628 4666 
L 1259 4666 
L 1259 531 
L 3531 531 
L 3531 0 
L 628 0 
L 628 4666 
z
" transform="scale(0.015625)"/>
       <path id="DejaVuSans-53" d="M 3425 4513 
L 3425 3897 
Q 3066 4069 2747 4153 
Q 2428 4238 2131 4238 
Q 1616 4238 1336 4038 
Q 1056 3838 1056 3469 
Q 1056 3159 1242 3001 
Q 1428 2844 1947 2747 
L 2328 2669 
Q 3034 2534 3370 2195 
Q 3706 1856 3706 1288 
Q 3706 609 3251 259 
Q 2797 -91 1919 -91 
Q 1588 -91 1214 -16 
Q 841 59 441 206 
L 441 856 
Q 825 641 1194 531 
Q 1563 422 1919 422 
Q 2459 422 2753 634 
Q 3047 847 3047 1241 
Q 3047 1584 2836 1778 
Q 2625 1972 2144 2069 
L 1759 2144 
Q 1053 2284 737 2584 
Q 422 2884 422 3419 
Q 422 4038 858 4394 
Q 1294 4750 2059 4750 
Q 2388 4750 2728 4690 
Q 3069 4631 3425 4513 
z
" transform="scale(0.015625)"/>
       <path id="DejaVuSans-66" d="M 2375 4863 
L 2375 4384 
L 1825 4384 
Q 1516 4384 1395 4259 
Q 1275 4134 1275 3809 
L 1275 3500 
L 2222 3500 
L 2222 3053 
L 1275 3053 
L 1275 0 
L 697 0 
L 697 3053 
L 147 3053 
L 147 3500 
L 697 3500 
L 697 3744 
Q 697 4328 969 4595 
Q 1241 4863 1831 4863 
L 2375 4863 
z
" transform="scale(0.015625)"/>
       <path id="DejaVuSans-62" d="M 3116 1747 
Q 3116 2381 2855 2742 
Q 2594 3103 2138 3103 
Q 1681 3103 1420 2742 
Q 1159 2381 1159 1747 
Q 1159 1113 1420 752 
Q 1681 391 2138 391 
Q 2594 391 2855 752 
Q 3116 1113 3116 1747 
z
M 1159 2969 
Q 1341 3281 1617 3432 
Q 1894 3584 2278 3584 
Q 2916 3584 3314 3078 
Q 3713 2572 3713 1747 
Q 3713 922 3314 415 
Q 2916 -91 2278 -91 
Q 1894 -91 1617 61 
Q 1341 213 1159 525 
L 1159 0 
L 581 0 
L 581 4863 
L 1159 4863 
L 1159 2969 
z
" transform="scale(0.015625)"/>
       <path id="DejaVuSans-1d62" d="M 381 1935 
L 744 1935 
L 744 -24 
L 381 -24 
L 381 1935 
z
M 381 2697 
L 744 2697 
L 744 2291 
L 381 2291 
L 381 2697 
z
" transform="scale(0.015625)"/>
      </defs>
      <use xlink:href="#DejaVuSans-4f"/>
      <use xlink:href="#DejaVuSans-4c" transform="translate(78.710938 0)"/>
      <use xlink:href="#DejaVuSans-53" transform="translate(134.423828 0)"/>
      <use xlink:href="#DejaVuSans-20" transform="translate(197.900391 0)"/>
      <use xlink:href="#DejaVuSans-63" transform="translate(229.6875 0)"/>
      <use xlink:href="#DejaVuSans-6f" transform="translate(284.667969 0)"/>
      <use xlink:href="#DejaVuSans-65" transform="translate(345.849609 0)"/>
      <use xlink:href="#DejaVuSans-66" transform="translate(407.373047 0)"/>
      <use xlink:href="#DejaVuSans-66" transform="translate(442.578125 0)"/>
      <use xlink:href="#DejaVuSans-69" transform="translate(477.783203 0)"/>
      <use xlink:href="#DejaVuSans-63" transform="translate(505.566406 0)"/>
      <use xlink:href="#DejaVuSans-69" transform="translate(560.546875 0)"/>
      <use xlink:href="#DejaVuSans-65" transform="translate(588.330078 0)"/>
      <use xlink:href="#DejaVuSans-6e" transform="translate(649.853516 0)"/>
      <use xlink:href="#DejaVuSans-74" transform="translate(713.232422 0)"/>
      <use xlink:href="#DejaVuSans-20" transform="translate(752.441406 0)"/>
      <use xlink:href="#DejaVuSans-62" transform="translate(784.228516 0)"/>
      <use xlink:href="#DejaVuSans-1d62" transform="translate(847.705078 0)"/>
     </g>
    </g>
   </g>
   <g id="line2d_10">
    <path d="M 52.160938 321.423636 
L 382.530938 321.423636 
" clip-path="url(#p4290292887)" style="fill: none; stroke-dasharray: 5.55,2.4; stroke-dashoffset: 0; stroke: #f59e0b; stroke-opacity: 0.8; stroke-width: 1.5"/>
   </g>
   <g id="line2d_11">
    <path d="M 52.160938 109.624319 
L 382.530938 109.624319 
" clip-path="url(#p4290292887)" style="fill: none; stroke: #374151; stroke-opacity: 0.5; stroke-width: 0.6; stroke-linecap: square"/>
   </g>
   <g id="patch_3">
    <path d="M 52.160938 333.16 
L 52.160938 74.96 
" style="fill: none; stroke: #1e1e2e; stroke-width: 0.8; stroke-linejoin: miter; stroke-linecap: square"/>
   </g>
   <g id="patch_4">
    <path d="M 382.530938 333.16 
L 382.530938 74.96 
" style="fill: none; stroke: #1e1e2e; stroke-width: 0.8; stroke-linejoin: miter; stroke-linecap: square"/>
   </g>
   <g id="patch_5">
    <path d="M 52.160937 333.16 
L 382.530938 333.16 
" style="fill: none; stroke: #1e1e2e; stroke-width: 0.8; stroke-linejoin: miter; stroke-linecap: square"/>
   </g>
   <g id="patch_6">
    <path d="M 52.160937 74.96 
L 382.530938 74.96 
" style="fill: none; stroke: #1e1e2e; stroke-width: 0.8; stroke-linejoin: miter; stroke-linecap: square"/>
   </g>
   <g id="patch_7">
    <path d="M 67.177756 109.624319 
L 127.245028 109.624319 
L 127.245028 192.617865 
L 67.177756 192.617865 
z
" clip-path="url(#p4290292887)" style="fill: #ef4444; opacity: 0.8"/>
   </g>
   <g id="patch_8">
    <path d="M 187.312301 109.624319 
L 247.379574 109.624319 
L 247.379574 171.960431 
L 187.312301 171.960431 
z
" clip-path="url(#p4290292887)" style="fill: #22d3ee; opacity: 0.8"/>
   </g>
   <g id="patch_9">
    <path d="M 307.446847 109.624319 
L 367.514119 109.624319 
L 367.514119 145.509577 
L 307.446847 145.509577 
z
" clip-path="url(#p4290292887)" style="fill: #f59e0b; opacity: 0.8"/>
   </g>
   <g id="text_11">
    <!-- F-test p=0.410 -->
    <g style="fill: #9ca3af" transform="translate(58.768338 326.33225) scale(0.08 -0.08)">
     <defs>
      <path id="DejaVuSans-46" d="M 628 4666 
L 3309 4666 
L 3309 4134 
L 1259 4134 
L 1259 2759 
L 3109 2759 
L 3109 2228 
L 1259 2228 
L 1259 0 
L 628 0 
L 628 4666 
z
" transform="scale(0.015625)"/>
      <path id="DejaVuSans-2d" d="M 313 2009 
L 1997 2009 
L 1997 1497 
L 313 1497 
L 313 2009 
z
" transform="scale(0.015625)"/>
      <path id="DejaVuSans-3d" d="M 678 2906 
L 4684 2906 
L 4684 2381 
L 678 2381 
L 678 2906 
z
M 678 1631 
L 4684 1631 
L 4684 1100 
L 678 1100 
L 678 1631 
z
" transform="scale(0.015625)"/>
     </defs>
     <use xlink:href="#DejaVuSans-46"/>
     <use xlink:href="#DejaVuSans-2d" transform="translate(57.519531 0)"/>
     <use xlink:href="#DejaVuSans-74" transform="translate(93.603516 0)"/>
     <use xlink:href="#DejaVuSans-65" transform="translate(132.8125 0)"/>
     <use xlink:href="#DejaVuSans-73" transform="translate(194.335938 0)"/>
     <use xlink:href="#DejaVuSans-74" transform="translate(246.435547 0)"/>
     <use xlink:href="#DejaVuSans-20" transform="translate(285.644531 0)"/>
     <use xlink:href="#DejaVuSans-70" transform="translate(317.431641 0)"/>
     <use xlink:href="#DejaVuSans-3d" transform="translate(380.908203 0)"/>
     <use xlink:href="#DejaVuSans-30" transform="translate(464.697266 0)"/>
     <use xlink:href="#DejaVuSans-2e" transform="translate(528.320312 0)"/>
     <use xlink:href="#DejaVuSans-34" transform="translate(560.107422 0)"/>
     <use xlink:href="#DejaVuSans-31" transform="translate(623.730469 0)"/>
     <use xlink:href="#DejaVuSans-30" transform="translate(687.353516 0)"/>
    </g>
   </g>
   <g id="text_12">
    <!-- Dimension weights with 95% bootstrap CIs -->
    <g style="fill: #e2e8f0" transform="translate(109.958438 68.96) scale(0.1 -0.1)">
     <defs>
      <path id="DejaVuSans-44" d="M 1259 4147 
L 1259 519 
L 2022 519 
Q 2988 519 3436 956 
Q 3884 1394 3884 2338 
Q 3884 3275 3436 3711 
Q 2988 4147 2022 4147 
L 1259 4147 
z
M 628 4666 
L 1925 4666 
Q 3281 4666 3915 4102 
Q 4550 3538 4550 2338 
Q 4550 1131 3912 565 
Q 3275 0 1925 0 
L 628 0 
L 628 4666 
z
" transform="scale(0.015625)"/>
      <path id="DejaVuSans-6d" d="M 3328 2828 
Q 3544 3216 3844 3400 
Q 4144 3584 4550 3584 
Q 5097 3584 5394 3201 
Q 5691 2819 5691 2113 
L 5691 0 
L 5113 0 
L 5113 2094 
Q 5113 2597 4934 2840 
Q 4756 3084 4391 3084 
Q 3944 3084 3684 2787 
Q 3425 2491 3425 1978 
L 3425 0 
L 2847 0 
L 2847 2094 
Q 2847 2600 2669 2842 
Q 2491 3084 2119 3084 
Q 1678 3084 1418 2786 
Q 1159 2488 1159 1978 
L 1159 0 
L 581 0 
L 581 3500 
L 1159 3500 
L 1159 2956 
Q 1356 3278 1631 3431 
Q 1906 3584 2284 3584 
Q 2666 3584 2933 3390 
Q 3200 3197 3328 2828 
z
" transform="scale(0.015625)"/>
      <path id="DejaVuSans-77" d="M 269 3500 
L 844 3500 
L 1563 769 
L 2278 3500 
L 2956 3500 
L 3675 769 
L 4391 3500 
L 4966 3500 
L 4050 0 
L 3372 0 
L 2619 2869 
L 1863 0 
L 1184 0 
L 269 3500 
z
" transform="scale(0.015625)"/>
      <path id="DejaVuSans-68" d="M 3513 2113 
L 3513 0 
L 2938 0 
L 2938 2094 
Q 2938 2591 2744 2837 
Q 2550 3084 2163 3084 
Q 1697 3084 1428 2787 
Q 1159 2491 1159 1978 
L 1159 0 
L 581 0 
L 581 4863 
L 1159 4863 
L 1159 2956 
Q 1366 3272 1645 3428 
Q 1925 3584 2291 3584 
Q 2894 3584 3203 3211 
Q 3513 2838 3513 2113 
z
" transform="scale(0.015625)"/>
      <path id="DejaVuSans-39" d="M 703 97 
L 703 672 
Q 941 559 1184 500 
Q 1428 441 1663 441 
Q 2288 441 2617 861 
Q 2947 1281 2994 2138 
Q 2813 1869 2534 1725 
Q 2256 1581 1919 1581 
Q 1219 1581 811 2004 
Q 403 2428 403 3163 
Q 403 3881 828 4315 
Q 1253 4750 1959 4750 
Q 2769 4750 3195 4129 
Q 3622 3509 3622 2328 
Q 3622 1225 3098 567 
Q 2575 -91 1691 -91 
Q 1453 -91 1209 -44 
Q 966 3 703 97 
z
M 1959 2075 
Q 2384 2075 2632 2365 
Q 2881 2656 2881 3163 
Q 2881 3666 2632 3958 
Q 2384 4250 1959 4250 
Q 1534 4250 1286 3958 
Q 1038 3666 1038 3163 
Q 1038 2656 1286 2365 
Q 1534 2075 1959 2075 
z
" transform="scale(0.015625)"/>
      <path id="DejaVuSans-35" d="M 691 4666 
L 3169 4666 
L 3169 4134 
L 1269 4134 
L 1269 2991 
Q 1406 3038 1543 3061 
Q 1681 3084 1819 3084 
Q 2600 3084 3056 2656 
Q 3513 2228 3513 1497 
Q 3513 744 3044 326 
Q 2575 -91 1722 -91 
Q 1428 -91 1123 -41 
Q 819 9 494 109 
L 494 744 
Q 775 591 1075 516 
Q 1375 441 1709 441 
Q 2250 441 2565 725 
Q 2881 1009 2881 1497 
Q 2881 1984 2565 2268 
Q 2250 2553 1709 2553 
Q 1456 2553 1204 2497 
Q 953 2441 691 2322 
L 691 4666 
z
" transform="scale(0.015625)"/>
      <path id="DejaVuSans-25" d="M 4653 2053 
Q 4381 2053 4226 1822 
Q 4072 1591 4072 1178 
Q 4072 772 4226 539 
Q 4381 306 4653 306 
Q 4919 306 5073 539 
Q 5228 772 5228 1178 
Q 5228 1588 5073 1820 
Q 4919 2053 4653 2053 
z
M 4653 2450 
Q 5147 2450 5437 2106 
Q 5728 1763 5728 1178 
Q 5728 594 5436 251 
Q 5144 -91 4653 -91 
Q 4153 -91 3862 251 
Q 3572 594 3572 1178 
Q 3572 1766 3864 2108 
Q 4156 2450 4653 2450 
z
M 1428 4353 
Q 1159 4353 1004 4120 
Q 850 3888 850 3481 
Q 850 3069 1003 2837 
Q 1156 2606 1428 2606 
Q 1700 2606 1854 2837 
Q 2009 3069 2009 3481 
Q 2009 3884 1853 4118 
Q 1697 4353 1428 4353 
z
M 4250 4750 
L 4750 4750 
L 1831 -91 
L 1331 -91 
L 4250 4750 
z
M 1428 4750 
Q 1922 4750 2215 4408 
Q 2509 4066 2509 3481 
Q 2509 2891 2217 2550 
Q 1925 2209 1428 2209 
Q 931 2209 642 2551 
Q 353 2894 353 3481 
Q 353 4063 643 4406 
Q 934 4750 1428 4750 
z
" transform="scale(0.015625)"/>
      <path id="DejaVuSans-43" d="M 4122 4306 
L 4122 3641 
Q 3803 3938 3442 4084 
Q 3081 4231 2675 4231 
Q 1875 4231 1450 3742 
Q 1025 3253 1025 2328 
Q 1025 1406 1450 917 
Q 1875 428 2675 428 
Q 3081 428 3442 575 
Q 3803 722 4122 1019 
L 4122 359 
Q 3791 134 3420 21 
Q 3050 -91 2638 -91 
Q 1578 -91 968 557 
Q 359 1206 359 2328 
Q 359 3453 968 4101 
Q 1578 4750 2638 4750 
Q 3056 4750 3426 4639 
Q 3797 4528 4122 4306 
z
" transform="scale(0.015625)"/>
      <path id="DejaVuSans-49" d="M 628 4666 
L 1259 4666 
L 1259 0 
L 628 0 
L 628 4666 
z
" transform="scale(0.015625)"/>
     </defs>
     <use xlink:href="#DejaVuSans-44"/>
     <use xlink:href="#DejaVuSans-69" transform="translate(77.001953 0)"/>
     <use xlink:href="#DejaVuSans-6d" transform="translate(104.785156 0)"/>
     <use xlink:href="#DejaVuSans-65" transform="translate(202.197266 0)"/>
     <use xlink:href="#DejaVuSans-6e" transform="translate(263.720703 0)"/>
     <use xlink:href="#DejaVuSans-73" transform="translate(327.099609 0)"/>
     <use xlink:href="#DejaVuSans-69" transform="translate(379.199219 0)"/>
     <use xlink:href="#DejaVuSans-6f" transform="translate(406.982422 0)"/>
     <use xlink:href="#DejaVuSans-6e" transform="translate(468.164062 0)"/>
     <use xlink:href="#DejaVuSans-20" transform="translate(531.542969 0)"/>
     <use xlink:href="#DejaVuSans-77" transform="translate(563.330078 0)"/>
     <use xlink:href="#DejaVuSans-65" transform="translate(645.117188 0)"/>
     <use xlink:href="#DejaVuSans-69" transform="translate(706.640625 0)"/>
     <use xlink:href="#DejaVuSans-67" transform="translate(734.423828 0)"/>
     <use xlink:href="#DejaVuSans-68" transform="translate(797.900391 0)"/>
     <use xlink:href="#DejaVuSans-74" transform="translate(861.279297 0)"/>
     <use xlink:href="#DejaVuSans-73" transform="translate(900.488281 0)"/>
     <use xlink:href="#DejaVuSans-20" transform="translate(952.587891 0)"/>
     <use xlink:href="#DejaVuSans-77" transform="translate(984.375 0)"/>
     <use xlink:href="#DejaVuSans-69" transform="translate(1066.162109 0)"/>
     <use xlink:href="#DejaVuSans-74" transform="translate(1093.945312 0)"/>
     <use xlink:href="#DejaVuSans-68" transform="translate(1133.154297 0)"/>
     <use xlink:href="#DejaVuSans-20" transform="translate(1196.533203 0)"/>
     <use xlink:href="#DejaVuSans-39" transform="translate(1228.320312 0)"/>
     <use xlink:href="#DejaVuSans-35" transform="translate(1291.943359 0)"/>
     <use xlink:href="#DejaVuSans-25" transform="translate(1355.566406 0)"/>
     <use xlink:href="#DejaVuSans-20" transform="translate(1450.585938 0)"/>
     <use xlink:href="#DejaVuSans-62" transform="translate(1482.373047 0)"/>
     <use xlink:href="#DejaVuSans-6f" transform="translate(1545.849609 0)"/>
     <use xlink:href="#DejaVuSans-6f" transform="translate(1607.03125 0)"/>
     <use xlink:href="#DejaVuSans-74" transform="translate(1668.212891 0)"/>
     <use xlink:href="#DejaVuSans-73" transform="translate(1707.421875 0)"/>
     <use xlink:href="#DejaVuSans-74" transform="translate(1759.521484 0)"/>
     <use xlink:href="#DejaVuSans-72" transform="translate(1798.730469 0)"/>
     <use xlink:href="#DejaVuSans-61" transform="translate(1839.84375 0)"/>
     <use xlink:href="#DejaVuSans-70" transform="translate(1901.123047 0)"/>
     <use xlink:href="#DejaVuSans-20" transform="translate(1964.599609 0)"/>
     <use xlink:href="#DejaVuSans-43" transform="translate(1996.386719 0)"/>
     <use xlink:href="#DejaVuSans-49" transform="translate(2066.210938 0)"/>
     <use xlink:href="#DejaVuSans-73" transform="translate(2095.703125 0)"/>
    </g>
   </g>
   <g id="LineCollection_1">
    <path d="M 97.211392 238.457772 
L 97.211392 160.317513 
" clip-path="url(#p4290292887)" style="fill: none; stroke: #ffffff; stroke-width: 1.5"/>
    <path d="M 217.345938 211.432211 
L 217.345938 128.990204 
" clip-path="url(#p4290292887)" style="fill: none; stroke: #ffffff; stroke-width: 1.5"/>
    <path d="M 337.480483 200.384896 
L 337.480483 86.696364 
" clip-path="url(#p4290292887)" style="fill: none; stroke: #ffffff; stroke-width: 1.5"/>
   </g>
   <g id="line2d_12">
    <defs>
     <path id="m81c1384c85" d="M 6 0 
L -6 -0 
" style="stroke: #ffffff"/>
    </defs>
    <g clip-path="url(#p4290292887)">
     <use xlink:href="#m81c1384c85" x="97.211392" y="238.457772" style="fill: #ffffff; stroke: #ffffff"/>
     <use xlink:href="#m81c1384c85" x="217.345938" y="211.432211" style="fill: #ffffff; stroke: #ffffff"/>
     <use xlink:href="#m81c1384c85" x="337.480483" y="200.384896" style="fill: #ffffff; stroke: #ffffff"/>
    </g>
   </g>
   <g id="line2d_13">
    <g clip-path="url(#p4290292887)">
     <use xlink:href="#m81c1384c85" x="97.211392" y="160.317513" style="fill: #ffffff; stroke: #ffffff"/>
     <use xlink:href="#m81c1384c85" x="217.345938" y="128.990204" style="fill: #ffffff; stroke: #ffffff"/>
     <use xlink:href="#m81c1384c85" x="337.480483" y="86.696364" style="fill: #ffffff; stroke: #ffffff"/>
    </g>
   </g>
   <g id="legend_1">
    <g id="patch_10">
     <path d="M 57.760938 93.1025 
L 157.178438 93.1025 
Q 158.778437 93.1025 158.778437 91.5025 
L 158.778437 80.56 
Q 158.778437 78.96 157.178438 78.96 
L 57.760938 78.96 
Q 56.160938 78.96 56.160938 80.56 
L 56.160938 91.5025 
Q 56.160938 93.1025 57.760938 93.1025 
z
" style="fill: #111118; opacity: 0.8; stroke: #1e1e2e; stroke-linejoin: miter"/>
    </g>
    <g id="line2d_14">
     <path d="M 59.360938 85.43875 
L 67.360938 85.43875 
L 75.360938 85.43875 
" style="fill: none; stroke-dasharray: 5.55,2.4; stroke-dashoffset: 0; stroke: #f59e0b; stroke-opacity: 0.8; stroke-width: 1.5"/>
    </g>
    <g id="text_13">
     <!-- V3 prediction (−1) -->
     <g style="fill: #9ca3af" transform="translate(81.760938 88.23875) scale(0.08 -0.08)">
      <defs>
       <path id="DejaVuSans-56" d="M 1831 0 
L 50 4666 
L 709 4666 
L 2188 738 
L 3669 4666 
L 4325 4666 
L 2547 0 
L 1831 0 
z
" transform="scale(0.015625)"/>
       <path id="DejaVuSans-33" d="M 2597 2516 
Q 3050 2419 3304 2112 
Q 3559 1806 3559 1356 
Q 3559 666 3084 287 
Q 2609 -91 1734 -91 
Q 1441 -91 1130 -33 
Q 819 25 488 141 
L 488 750 
Q 750 597 1062 519 
Q 1375 441 1716 441 
Q 2309 441 2620 675 
Q 2931 909 2931 1356 
Q 2931 1769 2642 2001 
Q 2353 2234 1838 2234 
L 1294 2234 
L 1294 2753 
L 1863 2753 
Q 2328 2753 2575 2939 
Q 2822 3125 2822 3475 
Q 2822 3834 2567 4026 
Q 2313 4219 1838 4219 
Q 1578 4219 1281 4162 
Q 984 4106 628 3988 
L 628 4550 
Q 988 4650 1302 4700 
Q 1616 4750 1894 4750 
Q 2613 4750 3031 4423 
Q 3450 4097 3450 3541 
Q 3450 3153 3228 2886 
Q 3006 2619 2597 2516 
z
" transform="scale(0.015625)"/>
       <path id="DejaVuSans-64" d="M 2906 2969 
L 2906 4863 
L 3481 4863 
L 3481 0 
L 2906 0 
L 2906 525 
Q 2725 213 2448 61 
Q 2172 -91 1784 -91 
Q 1150 -91 751 415 
Q 353 922 353 1747 
Q 353 2572 751 3078 
Q 1150 3584 1784 3584 
Q 2172 3584 2448 3432 
Q 2725 3281 2906 2969 
z
M 947 1747 
Q 947 1113 1208 752 
Q 1469 391 1925 391 
Q 2381 391 2643 752 
Q 2906 1113 2906 1747 
Q 2906 2381 2643 2742 
Q 2381 3103 1925 3103 
Q 1469 3103 1208 2742 
Q 947 2381 947 1747 
z
" transform="scale(0.015625)"/>
      </defs>
      <use xlink:href="#DejaVuSans-56"/>
      <use xlink:href="#DejaVuSans-33" transform="translate(68.408203 0)"/>
      <use xlink:href="#DejaVuSans-20" transform="translate(132.03125 0)"/>
      <use xlink:href="#DejaVuSans-70" transform="translate(163.818359 0)"/>
      <use xlink:href="#DejaVuSans-72" transform="translate(227.294922 0)"/>
      <use xlink:href="#DejaVuSans-65" transform="translate(266.158203 0)"/>
      <use xlink:href="#DejaVuSans-64" transform="translate(327.681641 0)"/>
      <use xlink:href="#DejaVuSans-69" transform="translate(391.158203 0)"/>
      <use xlink:href="#DejaVuSans-63" transform="translate(418.941406 0)"/>
      <use xlink:href="#DejaVuSans-74" transform="translate(473.921875 0)"/>
      <use xlink:href="#DejaVuSans-69" transform="translate(513.130859 0)"/>
      <use xlink:href="#DejaVuSans-6f" transform="translate(540.914062 0)"/>
      <use xlink:href="#DejaVuSans-6e" transform="translate(602.095703 0)"/>
      <use xlink:href="#DejaVuSans-20" transform="translate(665.474609 0)"/>
      <use xlink:href="#DejaVuSans-28" transform="translate(697.261719 0)"/>
      <use xlink:href="#DejaVuSans-2212" transform="translate(736.275391 0)"/>
      <use xlink:href="#DejaVuSans-31" transform="translate(820.064453 0)"/>
      <use xlink:href="#DejaVuSans-29" transform="translate(883.6875 0)"/>
     </g>
    </g>
   </g>
  </g>
  <g id="axes_2">
   <g id="patch_11">
    <path d="M 429.530937 333.16 
L 759.900938 333.16 
L 759.900938 74.96 
L 429.530937 74.96 
z
" style="fill: #111118"/>
   </g>
   <g id="matplotlib.axis_3">
    <g id="xtick_4">
     <g id="line2d_15">
      <g>
       <use xlink:href="#m2fea1d5fe5" x="444.547756" y="333.16" style="fill: #6b7280; stroke: #6b7280; stroke-width: 0.8"/>
      </g>
     </g>
     <g id="text_14">
      <!-- 0.0 -->
      <g style="fill: #6b7280" transform="translate(436.596193 347.758437) scale(0.1 -0.1)">
       <use xlink:href="#DejaVuSans-30"/>
       <use xlink:href="#DejaVuSans-2e" transform="translate(63.623047 0)"/>
       <use xlink:href="#DejaVuSans-30" transform="translate(95.410156 0)"/>
      </g>
     </g>
    </g>
    <g id="xtick_5">
     <g id="line2d_16">
      <g>
       <use xlink:href="#m2fea1d5fe5" x="504.615028" y="333.16" style="fill: #6b7280; stroke: #6b7280; stroke-width: 0.8"/>
      </g>
     </g>
     <g id="text_15">
      <!-- 0.2 -->
      <g style="fill: #6b7280" transform="translate(496.663466 347.758437) scale(0.1 -0.1)">
       <use xlink:href="#DejaVuSans-30"/>
       <use xlink:href="#DejaVuSans-2e" transform="translate(63.623047 0)"/>
       <use xlink:href="#DejaVuSans-32" transform="translate(95.410156 0)"/>
      </g>
     </g>
    </g>
    <g id="xtick_6">
     <g id="line2d_17">
      <g>
       <use xlink:href="#m2fea1d5fe5" x="564.682301" y="333.16" style="fill: #6b7280; stroke: #6b7280; stroke-width: 0.8"/>
      </g>
     </g>
     <g id="text_16">
      <!-- 0.4 -->
      <g style="fill: #6b7280" transform="translate(556.730739 347.758437) scale(0.1 -0.1)">
       <use xlink:href="#DejaVuSans-30"/>
       <use xlink:href="#DejaVuSans-2e" transform="translate(63.623047 0)"/>
       <use xlink:href="#DejaVuSans-34" transform="translate(95.410156 0)"/>
      </g>
     </g>
    </g>
    <g id="xtick_7">
     <g id="line2d_18">
      <g>
       <use xlink:href="#m2fea1d5fe5" x="624.749574" y="333.16" style="fill: #6b7280; stroke: #6b7280; stroke-width: 0.8"/>
      </g>
     </g>
     <g id="text_17">
      <!-- 0.6 -->
      <g style="fill: #6b7280" transform="translate(616.798011 347.758437) scale(0.1 -0.1)">
       <use xlink:href="#DejaVuSans-30"/>
       <use xlink:href="#DejaVuSans-2e" transform="translate(63.623047 0)"/>
       <use xlink:href="#DejaVuSans-36" transform="translate(95.410156 0)"/>
      </g>
     </g>
    </g>
    <g id="xtick_8">
     <g id="line2d_19">
      <g>
       <use xlink:href="#m2fea1d5fe5" x="684.816847" y="333.16" style="fill: #6b7280; stroke: #6b7280; stroke-width: 0.8"/>
      </g>
     </g>
     <g id="text_18">
      <!-- 0.8 -->
      <g style="fill: #6b7280" transform="translate(676.865284 347.758437) scale(0.1 -0.1)">
       <use xlink:href="#DejaVuSans-30"/>
       <use xlink:href="#DejaVuSans-2e" transform="translate(63.623047 0)"/>
       <use xlink:href="#DejaVuSans-38" transform="translate(95.410156 0)"/>
      </g>
     </g>
    </g>
    <g id="xtick_9">
     <g id="line2d_20">
      <g>
       <use xlink:href="#m2fea1d5fe5" x="744.884119" y="333.16" style="fill: #6b7280; stroke: #6b7280; stroke-width: 0.8"/>
      </g>
     </g>
     <g id="text_19">
      <!-- 1.0 -->
      <g style="fill: #6b7280" transform="translate(736.932557 347.758437) scale(0.1 -0.1)">
       <use xlink:href="#DejaVuSans-31"/>
       <use xlink:href="#DejaVuSans-2e" transform="translate(63.623047 0)"/>
       <use xlink:href="#DejaVuSans-30" transform="translate(95.410156 0)"/>
      </g>
     </g>
    </g>
    <g id="text_20">
     <!-- c predicted -->
     <g style="fill: #9ca3af" transform="translate(569.466016 360.676719) scale(0.09 -0.09)">
      <use xlink:href="#DejaVuSans-63"/>
      <use xlink:href="#DejaVuSans-20" transform="translate(54.980469 0)"/>
      <use xlink:href="#DejaVuSans-70" transform="translate(86.767578 0)"/>
      <use xlink:href="#DejaVuSans-72" transform="translate(150.244141 0)"/>
      <use xlink:href="#DejaVuSans-65" transform="translate(189.107422 0)"/>
      <use xlink:href="#DejaVuSans-64" transform="translate(250.630859 0)"/>
      <use xlink:href="#DejaVuSans-69" transform="translate(314.107422 0)"/>
      <use xlink:href="#DejaVuSans-63" transform="translate(341.890625 0)"/>
      <use xlink:href="#DejaVuSans-74" transform="translate(396.871094 0)"/>
      <use xlink:href="#DejaVuSans-65" transform="translate(436.080078 0)"/>
      <use xlink:href="#DejaVuSans-64" transform="translate(497.603516 0)"/>
     </g>
    </g>
   </g>
   <g id="matplotlib.axis_4">
    <g id="ytick_7">
     <g id="line2d_21">
      <g>
       <use xlink:href="#mf3ffa6400c" x="429.530937" y="321.423636" style="fill: #6b7280; stroke: #6b7280; stroke-width: 0.8"/>
      </g>
     </g>
     <g id="text_21">
      <!-- 0.0 -->
      <g style="fill: #6b7280" transform="translate(406.627812 325.222855) scale(0.1 -0.1)">
       <use xlink:href="#DejaVuSans-30"/>
       <use xlink:href="#DejaVuSans-2e" transform="translate(63.623047 0)"/>
       <use xlink:href="#DejaVuSans-30" transform="translate(95.410156 0)"/>
      </g>
     </g>
    </g>
    <g id="ytick_8">
     <g id="line2d_22">
      <g>
       <use xlink:href="#mf3ffa6400c" x="429.530937" y="274.478182" style="fill: #6b7280; stroke: #6b7280; stroke-width: 0.8"/>
      </g>
     </g>
     <g id="text_22">
      <!-- 0.2 -->
      <g style="fill: #6b7280" transform="translate(406.627812 278.277401) scale(0.1 -0.1)">
       <use xlink:href="#DejaVuSans-30"/>
       <use xlink:href="#DejaVuSans-2e" transform="translate(63.623047 0)"/>
       <use xlink:href="#DejaVuSans-32" transform="translate(95.410156 0)"/>
      </g>
     </g>
    </g>
    <g id="ytick_9">
     <g id="line2d_23">
      <g>
       <use xlink:href="#mf3ffa6400c" x="429.530937" y="227.532727" style="fill: #6b7280; stroke: #6b7280; stroke-width: 0.8"/>
      </g>
     </g>
     <g id="text_23">
      <!-- 0.4 -->
      <g style="fill: #6b7280" transform="translate(406.627812 231.331946) scale(0.1 -0.1)">
       <use xlink:href="#DejaVuSans-30"/>
       <use xlink:href="#DejaVuSans-2e" transform="translate(63.623047 0)"/>
       <use xlink:href="#DejaVuSans-34" transform="translate(95.410156 0)"/>
      </g>
     </g>
    </g>
    <g id="ytick_10">
     <g id="line2d_24">
      <g>
       <use xlink:href="#mf3ffa6400c" x="429.530937" y="180.587273" style="fill: #6b7280; stroke: #6b7280; stroke-width: 0.8"/>
      </g>
     </g>
     <g id="text_24">
      <!-- 0.6 -->
      <g style="fill: #6b7280" transform="translate(406.627812 184.386491) scale(0.1 -0.1)">
       <use xlink:href="#DejaVuSans-30"/>
       <use xlink:href="#DejaVuSans-2e" transform="translate(63.623047 0)"/>
       <use xlink:href="#DejaVuSans-36" transform="translate(95.410156 0)"/>
      </g>
     </g>
    </g>
    <g id="ytick_11">
     <g id="line2d_25">
      <g>
       <use xlink:href="#mf3ffa6400c" x="429.530937" y="133.641818" style="fill: #6b7280; stroke: #6b7280; stroke-width: 0.8"/>
      </g>
     </g>
     <g id="text_25">
      <!-- 0.8 -->
      <g style="fill: #6b7280" transform="translate(406.627812 137.441037) scale(0.1 -0.1)">
       <use xlink:href="#DejaVuSans-30"/>
       <use xlink:href="#DejaVuSans-2e" transform="translate(63.623047 0)"/>
       <use xlink:href="#DejaVuSans-38" transform="translate(95.410156 0)"/>
      </g>
     </g>
    </g>
    <g id="ytick_12">
     <g id="line2d_26">
      <g>
       <use xlink:href="#mf3ffa6400c" x="429.530937" y="86.696364" style="fill: #6b7280; stroke: #6b7280; stroke-width: 0.8"/>
      </g>
     </g>
     <g id="text_26">
      <!-- 1.0 -->
      <g style="fill: #6b7280" transform="translate(406.627812 90.495582) scale(0.1 -0.1)">
       <use xlink:href="#DejaVuSans-31"/>
       <use xlink:href="#DejaVuSans-2e" transform="translate(63.623047 0)"/>
       <use xlink:href="#DejaVuSans-30" transform="translate(95.410156 0)"/>
      </g>
     </g>
    </g>
    <g id="text_27">
     <!-- c calibrated -->
     <g style="fill: #9ca3af" transform="translate(400.756094 230.550937) rotate(-90) scale(0.09 -0.09)">
      <use xlink:href="#DejaVuSans-63"/>
      <use xlink:href="#DejaVuSans-20" transform="translate(54.980469 0)"/>
      <use xlink:href="#DejaVuSans-63" transform="translate(86.767578 0)"/>
      <use xlink:href="#DejaVuSans-61" transform="translate(141.748047 0)"/>
      <use xlink:href="#DejaVuSans-6c" transform="translate(203.027344 0)"/>
      <use xlink:href="#DejaVuSans-69" transform="translate(230.810547 0)"/>
      <use xlink:href="#DejaVuSans-62" transform="translate(258.59375 0)"/>
      <use xlink:href="#DejaVuSans-72" transform="translate(322.070312 0)"/>
      <use xlink:href="#DejaVuSans-61" transform="translate(363.183594 0)"/>
      <use xlink:href="#DejaVuSans-74" transform="translate(424.462891 0)"/>
      <use xlink:href="#DejaVuSans-65" transform="translate(463.671875 0)"/>
      <use xlink:href="#DejaVuSans-64" transform="translate(525.195312 0)"/>
     </g>
    </g>
   </g>
   <g id="line2d_27">
    <path d="M 444.547756 321.423636 
L 447.581456 319.052654 
L 450.615157 316.681671 
L 453.648858 314.310689 
L 456.682558 311.939706 
L 459.716259 309.568724 
L 462.74996 307.197741 
L 465.78366 304.826758 
L 468.817361 302.455776 
L 471.851061 300.084793 
L 474.884762 297.713811 
L 477.918463 295.342828 
L 480.952163 292.971846 
L 483.985864 290.600863 
L 487.019565 288.229881 
L 490.053265 285.858898 
L 493.086966 283.487916 
L 496.120667 281.116933 
L 499.154367 278.74595 
L 502.188068 276.374968 
L 505.221769 274.003985 
L 508.255469 271.633003 
L 511.28917 269.26202 
L 514.32287 266.891038 
L 517.356571 264.520055 
L 520.390272 262.149073 
L 523.423972 259.77809 
L 526.457673 257.407107 
L 529.491374 255.036125 
L 532.525074 252.665142 
L 535.558775 250.29416 
L 538.592476 247.923177 
L 541.626176 245.552195 
L 544.659877 243.181212 
L 547.693578 240.81023 
L 550.727278 238.439247 
L 553.760979 236.068264 
L 556.794679 233.697282 
L 559.82838 231.326299 
L 562.862081 228.955317 
L 565.895781 226.584334 
L 568.929482 224.213352 
L 571.963183 221.842369 
L 574.996883 219.471387 
L 578.030584 217.100404 
L 581.064285 214.729421 
L 584.097985 212.358439 
L 587.131686 209.987456 
L 590.165387 207.616474 
L 593.199087 205.245491 
L 596.232788 202.874509 
L 599.266488 200.503526 
L 602.300189 198.132544 
L 605.33389 195.761561 
L 608.36759 193.390579 
L 611.401291 191.019596 
L 614.434992 188.648613 
L 617.468692 186.277631 
L 620.502393 183.906648 
L 623.536094 181.535666 
L 626.569794 179.164683 
L 629.603495 176.793701 
L 632.637196 174.422718 
L 635.670896 172.051736 
L 638.704597 169.680753 
L 641.738297 167.30977 
L 644.771998 164.938788 
L 647.805699 162.567805 
L 650.839399 160.196823 
L 653.8731 157.82584 
L 656.906801 155.454858 
L 659.940501 153.083875 
L 662.974202 150.712893 
L 666.007903 148.34191 
L 669.041603 145.970927 
L 672.075304 143.599945 
L 675.109005 141.228962 
L 678.142705 138.85798 
L 681.176406 136.486997 
L 684.210106 134.116015 
L 687.243807 131.745032 
L 690.277508 129.37405 
L 693.311208 127.003067 
L 696.344909 124.632084 
L 699.37861 122.261102 
L 702.41231 119.890119 
L 705.446011 117.519137 
L 708.479712 115.148154 
L 711.513412 112.777172 
L 714.547113 110.406189 
L 717.580814 108.035207 
L 720.614514 105.664224 
L 723.648215 103.293242 
L 726.681915 100.922259 
L 729.715616 98.551276 
L 732.749317 96.180294 
L 735.783017 93.809311 
L 738.816718 91.438329 
L 741.850419 89.067346 
L 744.884119 86.696364 
" clip-path="url(#p84c326a1f5)" style="fill: none; stroke-dasharray: 3.7,1.6; stroke-dashoffset: 0; stroke: #374151; stroke-opacity: 0.6"/>
   </g>
   <g id="line2d_28">
    <path d="M 560.586805 333.16 
L 560.586805 74.96 
" clip-path="url(#p84c326a1f5)" style="fill: none; stroke-dasharray: 0.7,1.155; stroke-dashoffset: 0; stroke: #ef4444; stroke-opacity: 0.35; stroke-width: 0.7"/>
   </g>
   <g id="line2d_29">
    <path d="M 429.530937 230.733554 
L 759.900938 230.733554 
" clip-path="url(#p84c326a1f5)" style="fill: none; stroke-dasharray: 0.7,1.155; stroke-dashoffset: 0; stroke: #ef4444; stroke-opacity: 0.35; stroke-width: 0.7"/>
   </g>
   <g id="patch_12">
    <path d="M 429.530937 333.16 
L 429.530937 74.96 
" style="fill: none; stroke: #1e1e2e; stroke-width: 0.8; stroke-linejoin: miter; stroke-linecap: square"/>
   </g>
   <g id="patch_13">
    <path d="M 759.900938 333.16 
L 759.900938 74.96 
" style="fill: none; stroke: #1e1e2e; stroke-width: 0.8; stroke-linejoin: miter; stroke-linecap: square"/>
   </g>
   <g id="patch_14">
    <path d="M 429.530937 333.16 
L 759.900938 333.16 
" style="fill: none; stroke: #1e1e2e; stroke-width: 0.8; stroke-linejoin: miter; stroke-linecap: square"/>
   </g>
   <g id="patch_15">
    <path d="M 429.530937 74.96 
L 759.900938 74.96 
" style="fill: none; stroke: #1e1e2e; stroke-width: 0.8; stroke-linejoin: miter; stroke-linecap: square"/>
   </g>
   <g id="text_28">
    <!-- Gambling-Lo -->
    <g style="fill: #9ca3af" transform="translate(582.030584 238.616364) scale(0.06 -0.06)">
     <defs>
      <path id="DejaVuSans-47" d="M 3809 666 
L 3809 1919 
L 2778 1919 
L 2778 2438 
L 4434 2438 
L 4434 434 
Q 4069 175 3628 42 
Q 3188 -91 2688 -91 
Q 1594 -91 976 548 
Q 359 1188 359 2328 
Q 359 3472 976 4111 
Q 1594 4750 2688 4750 
Q 3144 4750 3555 4637 
Q 3966 4525 4313 4306 
L 4313 3634 
Q 3963 3931 3569 4081 
Q 3175 4231 2741 4231 
Q 1884 4231 1454 3753 
Q 1025 3275 1025 2328 
Q 1025 1384 1454 906 
Q 1884 428 2741 428 
Q 3075 428 3337 486 
Q 3600 544 3809 666 
z
" transform="scale(0.015625)"/>
     </defs>
     <use xlink:href="#DejaVuSans-47"/>
     <use xlink:href="#DejaVuSans-61" transform="translate(77.490234 0)"/>
     <use xlink:href="#DejaVuSans-6d" transform="translate(138.769531 0)"/>
     <use xlink:href="#DejaVuSans-62" transform="translate(236.181641 0)"/>
     <use xlink:href="#DejaVuSans-6c" transform="translate(299.658203 0)"/>
     <use xlink:href="#DejaVuSans-69" transform="translate(327.441406 0)"/>
     <use xlink:href="#DejaVuSans-6e" transform="translate(355.224609 0)"/>
     <use xlink:href="#DejaVuSans-67" transform="translate(418.603516 0)"/>
     <use xlink:href="#DejaVuSans-2d" transform="translate(482.080078 0)"/>
     <use xlink:href="#DejaVuSans-4c" transform="translate(518.164062 0)"/>
     <use xlink:href="#DejaVuSans-6f" transform="translate(572.126953 0)"/>
    </g>
   </g>
   <g id="text_29">
    <!-- Gambling-Hi -->
    <g style="fill: #9ca3af" transform="translate(515.28917 233.452364) scale(0.06 -0.06)">
     <defs>
      <path id="DejaVuSans-48" d="M 628 4666 
L 1259 4666 
L 1259 2753 
L 3553 2753 
L 3553 4666 
L 4184 4666 
L 4184 0 
L 3553 0 
L 3553 2222 
L 1259 2222 
L 1259 0 
L 628 0 
L 628 4666 
z
" transform="scale(0.015625)"/>
     </defs>
     <use xlink:href="#DejaVuSans-47"/>
     <use xlink:href="#DejaVuSans-61" transform="translate(77.490234 0)"/>
     <use xlink:href="#DejaVuSans-6d" transform="translate(138.769531 0)"/>
     <use xlink:href="#DejaVuSans-62" transform="translate(236.181641 0)"/>
     <use xlink:href="#DejaVuSans-6c" transform="translate(299.658203 0)"/>
     <use xlink:href="#DejaVuSans-69" transform="translate(327.441406 0)"/>
     <use xlink:href="#DejaVuSans-6e" transform="translate(355.224609 0)"/>
     <use xlink:href="#DejaVuSans-67" transform="translate(418.603516 0)"/>
     <use xlink:href="#DejaVuSans-2d" transform="translate(482.080078 0)"/>
     <use xlink:href="#DejaVuSans-48" transform="translate(518.164062 0)"/>
     <use xlink:href="#DejaVuSans-69" transform="translate(593.359375 0)"/>
    </g>
   </g>
   <g id="text_30">
    <!-- DEG -->
    <g style="fill: #9ca3af" transform="translate(448.547756 293.073091) scale(0.06 -0.06)">
     <defs>
      <path id="DejaVuSans-45" d="M 628 4666 
L 3578 4666 
L 3578 4134 
L 1259 4134 
L 1259 2753 
L 3481 2753 
L 3481 2222 
L 1259 2222 
L 1259 531 
L 3634 531 
L 3634 0 
L 628 0 
L 628 4666 
z
" transform="scale(0.015625)"/>
     </defs>
     <use xlink:href="#DejaVuSans-44"/>
     <use xlink:href="#DejaVuSans-45" transform="translate(77.001953 0)"/>
     <use xlink:href="#DejaVuSans-47" transform="translate(140.185547 0)"/>
    </g>
   </g>
   <g id="text_31">
    <!-- V3 equal-weights -->
    <g style="fill: #e2e8f0" transform="translate(555.719219 56.881969) scale(0.09 -0.09)">
     <defs>
      <path id="DejaVuSans-71" d="M 947 1747 
Q 947 1113 1208 752 
Q 1469 391 1925 391 
Q 2381 391 2643 752 
Q 2906 1113 2906 1747 
Q 2906 2381 2643 2742 
Q 2381 3103 1925 3103 
Q 1469 3103 1208 2742 
Q 947 2381 947 1747 
z
M 2906 525 
Q 2725 213 2448 61 
Q 2172 -91 1784 -91 
Q 1150 -91 751 415 
Q 353 922 353 1747 
Q 353 2572 751 3078 
Q 1150 3584 1784 3584 
Q 2172 3584 2448 3432 
Q 2725 3281 2906 2969 
L 2906 3500 
L 3481 3500 
L 3481 -1331 
L 2906 -1331 
L 2906 525 
z
" transform="scale(0.015625)"/>
     </defs>
     <use xlink:href="#DejaVuSans-56"/>
     <use xlink:href="#DejaVuSans-33" transform="translate(68.408203 0)"/>
     <use xlink:href="#DejaVuSans-20" transform="translate(132.03125 0)"/>
     <use xlink:href="#DejaVuSans-65" transform="translate(163.818359 0)"/>
     <use xlink:href="#DejaVuSans-71" transform="translate(225.341797 0)"/>
     <use xlink:href="#DejaVuSans-75" transform="translate(288.818359 0)"/>
     <use xlink:href="#DejaVuSans-61" transform="translate(352.197266 0)"/>
     <use xlink:href="#DejaVuSans-6c" transform="translate(413.476562 0)"/>
     <use xlink:href="#DejaVuSans-2d" transform="translate(441.259766 0)"/>
     <use xlink:href="#DejaVuSans-77" transform="translate(477.34375 0)"/>
     <use xlink:href="#DejaVuSans-65" transform="translate(559.130859 0)"/>
     <use xlink:href="#DejaVuSans-69" transform="translate(620.654297 0)"/>
     <use xlink:href="#DejaVuSans-67" transform="translate(648.4375 0)"/>
     <use xlink:href="#DejaVuSans-68" transform="translate(711.914062 0)"/>
     <use xlink:href="#DejaVuSans-74" transform="translate(775.292969 0)"/>
     <use xlink:href="#DejaVuSans-73" transform="translate(814.501953 0)"/>
    </g>
    <!-- ρ=0.910  RMSE=0.066 -->
    <g style="fill: #e2e8f0" transform="translate(542.982109 66.96) scale(0.09 -0.09)">
     <defs>
      <path id="DejaVuSans-3c1" d="M 863 2875 
Q 1053 3194 1525 3475 
Q 1709 3584 2278 3584 
Q 2916 3584 3314 3078 
Q 3713 2572 3713 1747 
Q 3713 922 3314 415 
Q 2916 -91 2278 -91 
Q 1894 -91 1617 61 
Q 1341 213 1159 525 
L 1159 -1331 
L 581 -1331 
L 581 1716 
Q 581 2438 863 2875 
z
M 3116 1747 
Q 3116 2381 2855 2742 
Q 2594 3103 2138 3103 
Q 1681 3103 1420 2742 
Q 1159 2381 1159 1747 
Q 1159 1113 1420 752 
Q 1681 391 2138 391 
Q 2594 391 2855 752 
Q 3116 1113 3116 1747 
z
" transform="scale(0.015625)"/>
      <path id="DejaVuSans-4d" d="M 628 4666 
L 1569 4666 
L 2759 1491 
L 3956 4666 
L 4897 4666 
L 4897 0 
L 4281 0 
L 4281 4097 
L 3078 897 
L 2444 897 
L 1241 4097 
L 1241 0 
L 628 0 
L 628 4666 
z
" transform="scale(0.015625)"/>
     </defs>
     <use xlink:href="#DejaVuSans-3c1"/>
     <use xlink:href="#DejaVuSans-3d" transform="translate(63.476562 0)"/>
     <use xlink:href="#DejaVuSans-30" transform="translate(147.265625 0)"/>
     <use xlink:href="#DejaVuSans-2e" transform="translate(210.888672 0)"/>
     <use xlink:href="#DejaVuSans-39" transform="translate(242.675781 0)"/>
     <use xlink:href="#DejaVuSans-31" transform="translate(306.298828 0)"/>
     <use xlink:href="#DejaVuSans-30" transform="translate(369.921875 0)"/>
     <use xlink:href="#DejaVuSans-20" transform="translate(433.544922 0)"/>
     <use xlink:href="#DejaVuSans-20" transform="translate(465.332031 0)"/>
     <use xlink:href="#DejaVuSans-52" transform="translate(497.119141 0)"/>
     <use xlink:href="#DejaVuSans-4d" transform="translate(566.601562 0)"/>
     <use xlink:href="#DejaVuSans-53" transform="translate(652.880859 0)"/>
     <use xlink:href="#DejaVuSans-45" transform="translate(716.357422 0)"/>
     <use xlink:href="#DejaVuSans-3d" transform="translate(779.541016 0)"/>
     <use xlink:href="#DejaVuSans-30" transform="translate(863.330078 0)"/>
     <use xlink:href="#DejaVuSans-2e" transform="translate(926.953125 0)"/>
     <use xlink:href="#DejaVuSans-30" transform="translate(958.740234 0)"/>
     <use xlink:href="#DejaVuSans-36" transform="translate(1022.363281 0)"/>
     <use xlink:href="#DejaVuSans-36" transform="translate(1085.986328 0)"/>
    </g>
   </g>
   <g id="PathCollection_1">
    <defs>
     <path id="mdc631a3994" d="M 0 3.708099 
C 0.983399 3.708099 1.926654 3.317391 2.622022 2.622022 
C 3.317391 1.926654 3.708099 0.983399 3.708099 0 
C 3.708099 -0.983399 3.317391 -1.926654 2.622022 -2.622022 
C 1.926654 -3.317391 0.983399 -3.708099 0 -3.708099 
C -0.983399 -3.708099 -1.926654 -3.317391 -2.622022 -2.622022 
C -3.317391 -1.926654 -3.708099 -0.983399 -3.708099 0 
C -3.708099 0.983399 -3.317391 1.926654 -2.622022 2.622022 
C -1.926654 3.317391 -0.983399 3.708099 0 3.708099 
z
" style="stroke: #ffffff; stroke-opacity: 0.85; stroke-width: 0.3"/>
    </defs>
    <g clip-path="url(#p84c326a1f5)">
     <use xlink:href="#mdc631a3994" x="578.030584" y="233.166182" style="fill: #6366f1; fill-opacity: 0.85; stroke: #ffffff; stroke-opacity: 0.85; stroke-width: 0.3"/>
    </g>
   </g>
   <g id="PathCollection_2">
    <g clip-path="url(#p84c326a1f5)">
     <use xlink:href="#mdc631a3994" x="444.547756" y="314.381818" style="fill: #6366f1; fill-opacity: 0.85; stroke: #ffffff; stroke-opacity: 0.85; stroke-width: 0.3"/>
    </g>
   </g>
   <g id="PathCollection_3">
    <g clip-path="url(#p84c326a1f5)">
     <use xlink:href="#mdc631a3994" x="578.030584" y="241.616364" style="fill: #6366f1; fill-opacity: 0.85; stroke: #ffffff; stroke-opacity: 0.85; stroke-width: 0.3"/>
    </g>
   </g>
   <g id="PathCollection_4">
    <g clip-path="url(#p84c326a1f5)">
     <use xlink:href="#mdc631a3994" x="544.659877" y="237.860727" style="fill: #6366f1; fill-opacity: 0.85; stroke: #ffffff; stroke-opacity: 0.85; stroke-width: 0.3"/>
    </g>
   </g>
   <g id="PathCollection_5">
    <g clip-path="url(#p84c326a1f5)">
     <use xlink:href="#mdc631a3994" x="511.28917" y="236.452364" style="fill: #6366f1; fill-opacity: 0.85; stroke: #ffffff; stroke-opacity: 0.85; stroke-width: 0.3"/>
    </g>
   </g>
   <g id="PathCollection_6">
    <g clip-path="url(#p84c326a1f5)">
     <use xlink:href="#mdc631a3994" x="544.659877" y="242.79" style="fill: #6366f1; fill-opacity: 0.85; stroke: #ffffff; stroke-opacity: 0.85; stroke-width: 0.3"/>
    </g>
   </g>
   <g id="PathCollection_7">
    <g clip-path="url(#p84c326a1f5)">
     <use xlink:href="#mdc631a3994" x="544.659877" y="252.648545" style="fill: #6366f1; fill-opacity: 0.85; stroke: #ffffff; stroke-opacity: 0.85; stroke-width: 0.3"/>
    </g>
   </g>
   <g id="PathCollection_8">
    <g clip-path="url(#p84c326a1f5)">
     <use xlink:href="#mdc631a3994" x="511.28917" y="277.529636" style="fill: #6366f1; fill-opacity: 0.85; stroke: #ffffff; stroke-opacity: 0.85; stroke-width: 0.3"/>
    </g>
   </g>
   <g id="PathCollection_9">
    <g clip-path="url(#p84c326a1f5)">
     <use xlink:href="#mdc631a3994" x="444.547756" y="296.073091" style="fill: #6366f1; fill-opacity: 0.85; stroke: #ffffff; stroke-opacity: 0.85; stroke-width: 0.3"/>
    </g>
   </g>
   <g id="PathCollection_10">
    <defs>
     <path id="m1bc0d35461" d="M 0 3.708099 
C 0.983399 3.708099 1.926654 3.317391 2.622022 2.622022 
C 3.317391 1.926654 3.708099 0.983399 3.708099 0 
C 3.708099 -0.983399 3.317391 -1.926654 2.622022 -2.622022 
C 1.926654 -3.317391 0.983399 -3.708099 0 -3.708099 
C -0.983399 -3.708099 -1.926654 -3.317391 -2.622022 -2.622022 
C -3.317391 -1.926654 -3.708099 -0.983399 -3.708099 0 
C -3.708099 0.983399 -3.317391 1.926654 -2.622022 2.622022 
C -1.926654 3.317391 -0.983399 3.708099 0 3.708099 
z
" style="stroke: #ffffff; stroke-opacity: 0.85; stroke-width: 0.3"/>
    </defs>
    <g clip-path="url(#p84c326a1f5)">
     <use xlink:href="#m1bc0d35461" x="711.513412" y="117.210909" style="fill: #22d3ee; fill-opacity: 0.85; stroke: #ffffff; stroke-opacity: 0.85; stroke-width: 0.3"/>
    </g>
   </g>
   <g id="PathCollection_11">
    <g clip-path="url(#p84c326a1f5)">
     <use xlink:href="#m1bc0d35461" x="611.401291" y="175.892727" style="fill: #22d3ee; fill-opacity: 0.85; stroke: #ffffff; stroke-opacity: 0.85; stroke-width: 0.3"/>
    </g>
   </g>
   <g id="PathCollection_12">
    <g clip-path="url(#p84c326a1f5)">
     <use xlink:href="#m1bc0d35461" x="578.030584" y="199.365455" style="fill: #22d3ee; fill-opacity: 0.85; stroke: #ffffff; stroke-opacity: 0.85; stroke-width: 0.3"/>
    </g>
   </g>
   <g id="PathCollection_13">
    <g clip-path="url(#p84c326a1f5)">
     <use xlink:href="#m1bc0d35461" x="544.659877" y="239.269091" style="fill: #22d3ee; fill-opacity: 0.85; stroke: #ffffff; stroke-opacity: 0.85; stroke-width: 0.3"/>
    </g>
   </g>
   <g id="PathCollection_14">
    <g clip-path="url(#p84c326a1f5)">
     <use xlink:href="#m1bc0d35461" x="511.28917" y="255.7" style="fill: #22d3ee; fill-opacity: 0.85; stroke: #ffffff; stroke-opacity: 0.85; stroke-width: 0.3"/>
    </g>
   </g>
   <g id="PathCollection_15">
    <g clip-path="url(#p84c326a1f5)">
     <use xlink:href="#m1bc0d35461" x="477.918463" y="276.825455" style="fill: #22d3ee; fill-opacity: 0.85; stroke: #ffffff; stroke-opacity: 0.85; stroke-width: 0.3"/>
    </g>
   </g>
   <g id="PathCollection_16">
    <g clip-path="url(#p84c326a1f5)">
     <use xlink:href="#m1bc0d35461" x="477.918463" y="293.256364" style="fill: #22d3ee; fill-opacity: 0.85; stroke: #ffffff; stroke-opacity: 0.85; stroke-width: 0.3"/>
    </g>
   </g>
   <g id="PathCollection_17">
    <g clip-path="url(#p84c326a1f5)">
     <use xlink:href="#m1bc0d35461" x="444.547756" y="308.513636" style="fill: #22d3ee; fill-opacity: 0.85; stroke: #ffffff; stroke-opacity: 0.85; stroke-width: 0.3"/>
    </g>
   </g>
  </g>
  <g id="axes_3">
   <g id="patch_16">
    <path d="M 806.900937 333.16 
L 1137.270937 333.16 
L 1137.270937 74.96 
L 806.900937 74.96 
z
" style="fill: #111118"/>
   </g>
   <g id="matplotlib.axis_5">
    <g id="xtick_10">
     <g id="line2d_30">
      <g>
       <use xlink:href="#m2fea1d5fe5" x="821.917756" y="333.16" style="fill: #6b7280; stroke: #6b7280; stroke-width: 0.8"/>
      </g>
     </g>
     <g id="text_32">
      <!-- 0.0 -->
      <g style="fill: #6b7280" transform="translate(813.966193 347.758437) scale(0.1 -0.1)">
       <use xlink:href="#DejaVuSans-30"/>
       <use xlink:href="#DejaVuSans-2e" transform="translate(63.623047 0)"/>
       <use xlink:href="#DejaVuSans-30" transform="translate(95.410156 0)"/>
      </g>
     </g>
    </g>
    <g id="xtick_11">
     <g id="line2d_31">
      <g>
       <use xlink:href="#m2fea1d5fe5" x="881.985028" y="333.16" style="fill: #6b7280; stroke: #6b7280; stroke-width: 0.8"/>
      </g>
     </g>
     <g id="text_33">
      <!-- 0.2 -->
      <g style="fill: #6b7280" transform="translate(874.033466 347.758437) scale(0.1 -0.1)">
       <use xlink:href="#DejaVuSans-30"/>
       <use xlink:href="#DejaVuSans-2e" transform="translate(63.623047 0)"/>
       <use xlink:href="#DejaVuSans-32" transform="translate(95.410156 0)"/>
      </g>
     </g>
    </g>
    <g id="xtick_12">
     <g id="line2d_32">
      <g>
       <use xlink:href="#m2fea1d5fe5" x="942.052301" y="333.16" style="fill: #6b7280; stroke: #6b7280; stroke-width: 0.8"/>
      </g>
     </g>
     <g id="text_34">
      <!-- 0.4 -->
      <g style="fill: #6b7280" transform="translate(934.100739 347.758437) scale(0.1 -0.1)">
       <use xlink:href="#DejaVuSans-30"/>
       <use xlink:href="#DejaVuSans-2e" transform="translate(63.623047 0)"/>
       <use xlink:href="#DejaVuSans-34" transform="translate(95.410156 0)"/>
      </g>
     </g>
    </g>
    <g id="xtick_13">
     <g id="line2d_33">
      <g>
       <use xlink:href="#m2fea1d5fe5" x="1002.119574" y="333.16" style="fill: #6b7280; stroke: #6b7280; stroke-width: 0.8"/>
      </g>
     </g>
     <g id="text_35">
      <!-- 0.6 -->
      <g style="fill: #6b7280" transform="translate(994.168011 347.758437) scale(0.1 -0.1)">
       <use xlink:href="#DejaVuSans-30"/>
       <use xlink:href="#DejaVuSans-2e" transform="translate(63.623047 0)"/>
       <use xlink:href="#DejaVuSans-36" transform="translate(95.410156 0)"/>
      </g>
     </g>
    </g>
    <g id="xtick_14">
     <g id="line2d_34">
      <g>
       <use xlink:href="#m2fea1d5fe5" x="1062.186847" y="333.16" style="fill: #6b7280; stroke: #6b7280; stroke-width: 0.8"/>
      </g>
     </g>
     <g id="text_36">
      <!-- 0.8 -->
      <g style="fill: #6b7280" transform="translate(1054.235284 347.758437) scale(0.1 -0.1)">
       <use xlink:href="#DejaVuSans-30"/>
       <use xlink:href="#DejaVuSans-2e" transform="translate(63.623047 0)"/>
       <use xlink:href="#DejaVuSans-38" transform="translate(95.410156 0)"/>
      </g>
     </g>
    </g>
    <g id="xtick_15">
     <g id="line2d_35">
      <g>
       <use xlink:href="#m2fea1d5fe5" x="1122.254119" y="333.16" style="fill: #6b7280; stroke: #6b7280; stroke-width: 0.8"/>
      </g>
     </g>
     <g id="text_37">
      <!-- 1.0 -->
      <g style="fill: #6b7280" transform="translate(1114.302557 347.758437) scale(0.1 -0.1)">
       <use xlink:href="#DejaVuSans-31"/>
       <use xlink:href="#DejaVuSans-2e" transform="translate(63.623047 0)"/>
       <use xlink:href="#DejaVuSans-30" transform="translate(95.410156 0)"/>
      </g>
     </g>
    </g>
    <g id="text_38">
     <!-- c predicted -->
     <g style="fill: #9ca3af" transform="translate(946.836016 360.676719) scale(0.09 -0.09)">
      <use xlink:href="#DejaVuSans-63"/>
      <use xlink:href="#DejaVuSans-20" transform="translate(54.980469 0)"/>
      <use xlink:href="#DejaVuSans-70" transform="translate(86.767578 0)"/>
      <use xlink:href="#DejaVuSans-72" transform="translate(150.244141 0)"/>
      <use xlink:href="#DejaVuSans-65" transform="translate(189.107422 0)"/>
      <use xlink:href="#DejaVuSans-64" transform="translate(250.630859 0)"/>
      <use xlink:href="#DejaVuSans-69" transform="translate(314.107422 0)"/>
      <use xlink:href="#DejaVuSans-63" transform="translate(341.890625 0)"/>
      <use xlink:href="#DejaVuSans-74" transform="translate(396.871094 0)"/>
      <use xlink:href="#DejaVuSans-65" transform="translate(436.080078 0)"/>
      <use xlink:href="#DejaVuSans-64" transform="translate(497.603516 0)"/>
     </g>
    </g>
   </g>
   <g id="matplotlib.axis_6">
    <g id="ytick_13">
     <g id="line2d_36">
      <g>
       <use xlink:href="#mf3ffa6400c" x="806.900937" y="321.423636" style="fill: #6b7280; stroke: #6b7280; stroke-width: 0.8"/>
      </g>
     </g>
     <g id="text_39">
      <!-- 0.0 -->
      <g style="fill: #6b7280" transform="translate(783.997812 325.222855) scale(0.1 -0.1)">
       <use xlink:href="#DejaVuSans-30"/>
       <use xlink:href="#DejaVuSans-2e" transform="translate(63.623047 0)"/>
       <use xlink:href="#DejaVuSans-30" transform="translate(95.410156 0)"/>
      </g>
     </g>
    </g>
    <g id="ytick_14">
     <g id="line2d_37">
      <g>
       <use xlink:href="#mf3ffa6400c" x="806.900937" y="274.478182" style="fill: #6b7280; stroke: #6b7280; stroke-width: 0.8"/>
      </g>
     </g>
     <g id="text_40">
      <!-- 0.2 -->
      <g style="fill: #6b7280" transform="translate(783.997812 278.277401) scale(0.1 -0.1)">
       <use xlink:href="#DejaVuSans-30"/>
       <use xlink:href="#DejaVuSans-2e" transform="translate(63.623047 0)"/>
       <use xlink:href="#DejaVuSans-32" transform="translate(95.410156 0)"/>
      </g>
     </g>
    </g>
    <g id="ytick_15">
     <g id="line2d_38">
      <g>
       <use xlink:href="#mf3ffa6400c" x="806.900937" y="227.532727" style="fill: #6b7280; stroke: #6b7280; stroke-width: 0.8"/>
      </g>
     </g>
     <g id="text_41">
      <!-- 0.4 -->
      <g style="fill: #6b7280" transform="translate(783.997812 231.331946) scale(0.1 -0.1)">
       <use xlink:href="#DejaVuSans-30"/>
       <use xlink:href="#DejaVuSans-2e" transform="translate(63.623047 0)"/>
       <use xlink:href="#DejaVuSans-34" transform="translate(95.410156 0)"/>
      </g>
     </g>
    </g>
    <g id="ytick_16">
     <g id="line2d_39">
      <g>
       <use xlink:href="#mf3ffa6400c" x="806.900937" y="180.587273" style="fill: #6b7280; stroke: #6b7280; stroke-width: 0.8"/>
      </g>
     </g>
     <g id="text_42">
      <!-- 0.6 -->
      <g style="fill: #6b7280" transform="translate(783.997812 184.386491) scale(0.1 -0.1)">
       <use xlink:href="#DejaVuSans-30"/>
       <use xlink:href="#DejaVuSans-2e" transform="translate(63.623047 0)"/>
       <use xlink:href="#DejaVuSans-36" transform="translate(95.410156 0)"/>
      </g>
     </g>
    </g>
    <g id="ytick_17">
     <g id="line2d_40">
      <g>
       <use xlink:href="#mf3ffa6400c" x="806.900937" y="133.641818" style="fill: #6b7280; stroke: #6b7280; stroke-width: 0.8"/>
      </g>
     </g>
     <g id="text_43">
      <!-- 0.8 -->
      <g style="fill: #6b7280" transform="translate(783.997812 137.441037) scale(0.1 -0.1)">
       <use xlink:href="#DejaVuSans-30"/>
       <use xlink:href="#DejaVuSans-2e" transform="translate(63.623047 0)"/>
       <use xlink:href="#DejaVuSans-38" transform="translate(95.410156 0)"/>
      </g>
     </g>
    </g>
    <g id="ytick_18">
     <g id="line2d_41">
      <g>
       <use xlink:href="#mf3ffa6400c" x="806.900937" y="86.696364" style="fill: #6b7280; stroke: #6b7280; stroke-width: 0.8"/>
      </g>
     </g>
     <g id="text_44">
      <!-- 1.0 -->
      <g style="fill: #6b7280" transform="translate(783.997812 90.495582) scale(0.1 -0.1)">
       <use xlink:href="#DejaVuSans-31"/>
       <use xlink:href="#DejaVuSans-2e" transform="translate(63.623047 0)"/>
       <use xlink:href="#DejaVuSans-30" transform="translate(95.410156 0)"/>
      </g>
     </g>
    </g>
    <g id="text_45">
     <!-- c calibrated -->
     <g style="fill: #9ca3af" transform="translate(778.126094 230.550937) rotate(-90) scale(0.09 -0.09)">
      <use xlink:href="#DejaVuSans-63"/>
      <use xlink:href="#DejaVuSans-20" transform="translate(54.980469 0)"/>
      <use xlink:href="#DejaVuSans-63" transform="translate(86.767578 0)"/>
      <use xlink:href="#DejaVuSans-61" transform="translate(141.748047 0)"/>
      <use xlink:href="#DejaVuSans-6c" transform="translate(203.027344 0)"/>
      <use xlink:href="#DejaVuSans-69" transform="translate(230.810547 0)"/>
      <use xlink:href="#DejaVuSans-62" transform="translate(258.59375 0)"/>
      <use xlink:href="#DejaVuSans-72" transform="translate(322.070312 0)"/>
      <use xlink:href="#DejaVuSans-61" transform="translate(363.183594 0)"/>
      <use xlink:href="#DejaVuSans-74" transform="translate(424.462891 0)"/>
      <use xlink:href="#DejaVuSans-65" transform="translate(463.671875 0)"/>
      <use xlink:href="#DejaVuSans-64" transform="translate(525.195312 0)"/>
     </g>
    </g>
   </g>
   <g id="line2d_42">
    <path d="M 821.917756 321.423636 
L 824.951456 319.052654 
L 827.985157 316.681671 
L 831.018858 314.310689 
L 834.052558 311.939706 
L 837.086259 309.568724 
L 840.11996 307.197741 
L 843.15366 304.826758 
L 846.187361 302.455776 
L 849.221061 300.084793 
L 852.254762 297.713811 
L 855.288463 295.342828 
L 858.322163 292.971846 
L 861.355864 290.600863 
L 864.389565 288.229881 
L 867.423265 285.858898 
L 870.456966 283.487916 
L 873.490667 281.116933 
L 876.524367 278.74595 
L 879.558068 276.374968 
L 882.591769 274.003985 
L 885.625469 271.633003 
L 888.65917 269.26202 
L 891.69287 266.891038 
L 894.726571 264.520055 
L 897.760272 262.149073 
L 900.793972 259.77809 
L 903.827673 257.407107 
L 906.861374 255.036125 
L 909.895074 252.665142 
L 912.928775 250.29416 
L 915.962476 247.923177 
L 918.996176 245.552195 
L 922.029877 243.181212 
L 925.063578 240.81023 
L 928.097278 238.439247 
L 931.130979 236.068264 
L 934.164679 233.697282 
L 937.19838 231.326299 
L 940.232081 228.955317 
L 943.265781 226.584334 
L 946.299482 224.213352 
L 949.333183 221.842369 
L 952.366883 219.471387 
L 955.400584 217.100404 
L 958.434285 214.729421 
L 961.467985 212.358439 
L 964.501686 209.987456 
L 967.535387 207.616474 
L 970.569087 205.245491 
L 973.602788 202.874509 
L 976.636488 200.503526 
L 979.670189 198.132544 
L 982.70389 195.761561 
L 985.73759 193.390579 
L 988.771291 191.019596 
L 991.804992 188.648613 
L 994.838692 186.277631 
L 997.872393 183.906648 
L 1000.906094 181.535666 
L 1003.939794 179.164683 
L 1006.973495 176.793701 
L 1010.007196 174.422718 
L 1013.040896 172.051736 
L 1016.074597 169.680753 
L 1019.108297 167.30977 
L 1022.141998 164.938788 
L 1025.175699 162.567805 
L 1028.209399 160.196823 
L 1031.2431 157.82584 
L 1034.276801 155.454858 
L 1037.310501 153.083875 
L 1040.344202 150.712893 
L 1043.377903 148.34191 
L 1046.411603 145.970927 
L 1049.445304 143.599945 
L 1052.479005 141.228962 
L 1055.512705 138.85798 
L 1058.546406 136.486997 
L 1061.580106 134.116015 
L 1064.613807 131.745032 
L 1067.647508 129.37405 
L 1070.681208 127.003067 
L 1073.714909 124.632084 
L 1076.74861 122.261102 
L 1079.78231 119.890119 
L 1082.816011 117.519137 
L 1085.849712 115.148154 
L 1088.883412 112.777172 
L 1091.917113 110.406189 
L 1094.950814 108.035207 
L 1097.984514 105.664224 
L 1101.018215 103.293242 
L 1104.051915 100.922259 
L 1107.085616 98.551276 
L 1110.119317 96.180294 
L 1113.153017 93.809311 
L 1116.186718 91.438329 
L 1119.220419 89.067346 
L 1122.254119 86.696364 
" clip-path="url(#p845361d422)" style="fill: none; stroke-dasharray: 3.7,1.6; stroke-dashoffset: 0; stroke: #374151; stroke-opacity: 0.6"/>
   </g>
   <g id="line2d_43">
    <path d="M 937.956805 333.16 
L 937.956805 74.96 
" clip-path="url(#p845361d422)" style="fill: none; stroke-dasharray: 0.7,1.155; stroke-dashoffset: 0; stroke: #ef4444; stroke-opacity: 0.35; stroke-width: 0.7"/>
   </g>
   <g id="line2d_44">
    <path d="M 806.900937 230.733554 
L 1137.270937 230.733554 
" clip-path="url(#p845361d422)" style="fill: none; stroke-dasharray: 0.7,1.155; stroke-dashoffset: 0; stroke: #ef4444; stroke-opacity: 0.35; stroke-width: 0.7"/>
   </g>
   <g id="patch_17">
    <path d="M 806.900937 333.16 
L 806.900937 74.96 
" style="fill: none; stroke: #1e1e2e; stroke-width: 0.8; stroke-linejoin: miter; stroke-linecap: square"/>
   </g>
   <g id="patch_18">
    <path d="M 1137.270937 333.16 
L 1137.270937 74.96 
" style="fill: none; stroke: #1e1e2e; stroke-width: 0.8; stroke-linejoin: miter; stroke-linecap: square"/>
   </g>
   <g id="patch_19">
    <path d="M 806.900937 333.16 
L 1137.270937 333.16 
" style="fill: none; stroke: #1e1e2e; stroke-width: 0.8; stroke-linejoin: miter; stroke-linecap: square"/>
   </g>
   <g id="patch_20">
    <path d="M 806.900937 74.96 
L 1137.270937 74.96 
" style="fill: none; stroke: #1e1e2e; stroke-width: 0.8; stroke-linejoin: miter; stroke-linecap: square"/>
   </g>
   <g id="text_46">
    <!-- AI-GG -->
    <g style="fill: #9ca3af" transform="translate(971.879634 230.166182) scale(0.06 -0.06)">
     <defs>
      <path id="DejaVuSans-41" d="M 2188 4044 
L 1331 1722 
L 3047 1722 
L 2188 4044 
z
M 1831 4666 
L 2547 4666 
L 4325 0 
L 3669 0 
L 3244 1197 
L 1141 1197 
L 716 0 
L 50 0 
L 1831 4666 
z
" transform="scale(0.015625)"/>
     </defs>
     <use xlink:href="#DejaVuSans-41"/>
     <use xlink:href="#DejaVuSans-49" transform="translate(68.408203 0)"/>
     <use xlink:href="#DejaVuSans-2d" transform="translate(97.900391 0)"/>
     <use xlink:href="#DejaVuSans-47" transform="translate(137.609375 0)"/>
     <use xlink:href="#DejaVuSans-47" transform="translate(215.099609 0)"/>
    </g>
   </g>
   <g id="text_47">
    <!-- Gambling-Lo -->
    <g style="fill: #9ca3af" transform="translate(960.467442 238.616364) scale(0.06 -0.06)">
     <use xlink:href="#DejaVuSans-47"/>
     <use xlink:href="#DejaVuSans-61" transform="translate(77.490234 0)"/>
     <use xlink:href="#DejaVuSans-6d" transform="translate(138.769531 0)"/>
     <use xlink:href="#DejaVuSans-62" transform="translate(236.181641 0)"/>
     <use xlink:href="#DejaVuSans-6c" transform="translate(299.658203 0)"/>
     <use xlink:href="#DejaVuSans-69" transform="translate(327.441406 0)"/>
     <use xlink:href="#DejaVuSans-6e" transform="translate(355.224609 0)"/>
     <use xlink:href="#DejaVuSans-67" transform="translate(418.603516 0)"/>
     <use xlink:href="#DejaVuSans-2d" transform="translate(482.080078 0)"/>
     <use xlink:href="#DejaVuSans-4c" transform="translate(518.164062 0)"/>
     <use xlink:href="#DejaVuSans-6f" transform="translate(572.126953 0)"/>
    </g>
   </g>
   <g id="text_48">
    <!-- Gambling-Hi -->
    <g style="fill: #9ca3af" transform="translate(906.205078 233.452364) scale(0.06 -0.06)">
     <use xlink:href="#DejaVuSans-47"/>
     <use xlink:href="#DejaVuSans-61" transform="translate(77.490234 0)"/>
     <use xlink:href="#DejaVuSans-6d" transform="translate(138.769531 0)"/>
     <use xlink:href="#DejaVuSans-62" transform="translate(236.181641 0)"/>
     <use xlink:href="#DejaVuSans-6c" transform="translate(299.658203 0)"/>
     <use xlink:href="#DejaVuSans-69" transform="translate(327.441406 0)"/>
     <use xlink:href="#DejaVuSans-6e" transform="translate(355.224609 0)"/>
     <use xlink:href="#DejaVuSans-67" transform="translate(418.603516 0)"/>
     <use xlink:href="#DejaVuSans-2d" transform="translate(482.080078 0)"/>
     <use xlink:href="#DejaVuSans-48" transform="translate(518.164062 0)"/>
     <use xlink:href="#DejaVuSans-69" transform="translate(593.359375 0)"/>
    </g>
   </g>
   <g id="text_49">
    <!-- Solana DEX -->
    <g style="fill: #9ca3af" transform="translate(906.205078 274.529636) scale(0.06 -0.06)">
     <defs>
      <path id="DejaVuSans-58" d="M 403 4666 
L 1081 4666 
L 2241 2931 
L 3406 4666 
L 4084 4666 
L 2584 2425 
L 4184 0 
L 3506 0 
L 2194 1984 
L 872 0 
L 191 0 
L 1856 2491 
L 403 4666 
z
" transform="scale(0.015625)"/>
     </defs>
     <use xlink:href="#DejaVuSans-53"/>
     <use xlink:href="#DejaVuSans-6f" transform="translate(63.476562 0)"/>
     <use xlink:href="#DejaVuSans-6c" transform="translate(124.658203 0)"/>
     <use xlink:href="#DejaVuSans-61" transform="translate(152.441406 0)"/>
     <use xlink:href="#DejaVuSans-6e" transform="translate(213.720703 0)"/>
     <use xlink:href="#DejaVuSans-61" transform="translate(277.099609 0)"/>
     <use xlink:href="#DejaVuSans-20" transform="translate(338.378906 0)"/>
     <use xlink:href="#DejaVuSans-44" transform="translate(370.166016 0)"/>
     <use xlink:href="#DejaVuSans-45" transform="translate(447.167969 0)"/>
     <use xlink:href="#DejaVuSans-58" transform="translate(510.351562 0)"/>
    </g>
   </g>
   <g id="text_50">
    <!-- DEG -->
    <g style="fill: #9ca3af" transform="translate(825.917756 293.073091) scale(0.06 -0.06)">
     <use xlink:href="#DejaVuSans-44"/>
     <use xlink:href="#DejaVuSans-45" transform="translate(77.001953 0)"/>
     <use xlink:href="#DejaVuSans-47" transform="translate(140.185547 0)"/>
    </g>
   </g>
   <g id="text_51">
    <!-- V3w OLS-weights -->
    <g style="fill: #e2e8f0" transform="translate(932.987969 56.881969) scale(0.09 -0.09)">
     <use xlink:href="#DejaVuSans-56"/>
     <use xlink:href="#DejaVuSans-33" transform="translate(68.408203 0)"/>
     <use xlink:href="#DejaVuSans-77" transform="translate(132.03125 0)"/>
     <use xlink:href="#DejaVuSans-20" transform="translate(213.818359 0)"/>
     <use xlink:href="#DejaVuSans-4f" transform="translate(245.605469 0)"/>
     <use xlink:href="#DejaVuSans-4c" transform="translate(324.316406 0)"/>
     <use xlink:href="#DejaVuSans-53" transform="translate(380.029297 0)"/>
     <use xlink:href="#DejaVuSans-2d" transform="translate(443.505859 0)"/>
     <use xlink:href="#DejaVuSans-77" transform="translate(479.589844 0)"/>
     <use xlink:href="#DejaVuSans-65" transform="translate(561.376953 0)"/>
     <use xlink:href="#DejaVuSans-69" transform="translate(622.900391 0)"/>
     <use xlink:href="#DejaVuSans-67" transform="translate(650.683594 0)"/>
     <use xlink:href="#DejaVuSans-68" transform="translate(714.160156 0)"/>
     <use xlink:href="#DejaVuSans-74" transform="translate(777.539062 0)"/>
     <use xlink:href="#DejaVuSans-73" transform="translate(816.748047 0)"/>
    </g>
    <!-- ρ=0.913  RMSE=0.063 -->
    <g style="fill: #e2e8f0" transform="translate(920.352109 66.96) scale(0.09 -0.09)">
     <use xlink:href="#DejaVuSans-3c1"/>
     <use xlink:href="#DejaVuSans-3d" transform="translate(63.476562 0)"/>
     <use xlink:href="#DejaVuSans-30" transform="translate(147.265625 0)"/>
     <use xlink:href="#DejaVuSans-2e" transform="translate(210.888672 0)"/>
     <use xlink:href="#DejaVuSans-39" transform="translate(242.675781 0)"/>
     <use xlink:href="#DejaVuSans-31" transform="translate(306.298828 0)"/>
     <use xlink:href="#DejaVuSans-33" transform="translate(369.921875 0)"/>
     <use xlink:href="#DejaVuSans-20" transform="translate(433.544922 0)"/>
     <use xlink:href="#DejaVuSans-20" transform="translate(465.332031 0)"/>
     <use xlink:href="#DejaVuSans-52" transform="translate(497.119141 0)"/>
     <use xlink:href="#DejaVuSans-4d" transform="translate(566.601562 0)"/>
     <use xlink:href="#DejaVuSans-53" transform="translate(652.880859 0)"/>
     <use xlink:href="#DejaVuSans-45" transform="translate(716.357422 0)"/>
     <use xlink:href="#DejaVuSans-3d" transform="translate(779.541016 0)"/>
     <use xlink:href="#DejaVuSans-30" transform="translate(863.330078 0)"/>
     <use xlink:href="#DejaVuSans-2e" transform="translate(926.953125 0)"/>
     <use xlink:href="#DejaVuSans-30" transform="translate(958.740234 0)"/>
     <use xlink:href="#DejaVuSans-36" transform="translate(1022.363281 0)"/>
     <use xlink:href="#DejaVuSans-33" transform="translate(1085.986328 0)"/>
    </g>
   </g>
   <g id="PathCollection_18">
    <g clip-path="url(#p845361d422)">
     <use xlink:href="#mdc631a3994" x="967.879634" y="233.166182" style="fill: #6366f1; fill-opacity: 0.85; stroke: #ffffff; stroke-opacity: 0.85; stroke-width: 0.3"/>
    </g>
   </g>
   <g id="PathCollection_19">
    <g clip-path="url(#p845361d422)">
     <use xlink:href="#mdc631a3994" x="821.917756" y="314.381818" style="fill: #6366f1; fill-opacity: 0.85; stroke: #ffffff; stroke-opacity: 0.85; stroke-width: 0.3"/>
    </g>
   </g>
   <g id="PathCollection_20">
    <g clip-path="url(#p845361d422)">
     <use xlink:href="#mdc631a3994" x="956.467442" y="241.616364" style="fill: #6366f1; fill-opacity: 0.85; stroke: #ffffff; stroke-opacity: 0.85; stroke-width: 0.3"/>
    </g>
   </g>
   <g id="PathCollection_21">
    <g clip-path="url(#p845361d422)">
     <use xlink:href="#mdc631a3994" x="922.029877" y="237.860727" style="fill: #6366f1; fill-opacity: 0.85; stroke: #ffffff; stroke-opacity: 0.85; stroke-width: 0.3"/>
    </g>
   </g>
   <g id="PathCollection_22">
    <g clip-path="url(#p845361d422)">
     <use xlink:href="#mdc631a3994" x="902.205078" y="236.452364" style="fill: #6366f1; fill-opacity: 0.85; stroke: #ffffff; stroke-opacity: 0.85; stroke-width: 0.3"/>
    </g>
   </g>
   <g id="PathCollection_23">
    <g clip-path="url(#p845361d422)">
     <use xlink:href="#mdc631a3994" x="922.029877" y="242.79" style="fill: #6366f1; fill-opacity: 0.85; stroke: #ffffff; stroke-opacity: 0.85; stroke-width: 0.3"/>
    </g>
   </g>
   <g id="PathCollection_24">
    <g clip-path="url(#p845361d422)">
     <use xlink:href="#mdc631a3994" x="922.029877" y="252.648545" style="fill: #6366f1; fill-opacity: 0.85; stroke: #ffffff; stroke-opacity: 0.85; stroke-width: 0.3"/>
    </g>
   </g>
   <g id="PathCollection_25">
    <g clip-path="url(#p845361d422)">
     <use xlink:href="#mdc631a3994" x="902.205078" y="277.529636" style="fill: #6366f1; fill-opacity: 0.85; stroke: #ffffff; stroke-opacity: 0.85; stroke-width: 0.3"/>
    </g>
   </g>
   <g id="PathCollection_26">
    <g clip-path="url(#p845361d422)">
     <use xlink:href="#mdc631a3994" x="821.917756" y="296.073091" style="fill: #6366f1; fill-opacity: 0.85; stroke: #ffffff; stroke-opacity: 0.85; stroke-width: 0.3"/>
    </g>
   </g>
   <g id="PathCollection_27">
    <g clip-path="url(#p845361d422)">
     <use xlink:href="#m1bc0d35461" x="1102.42932" y="117.210909" style="fill: #22d3ee; fill-opacity: 0.85; stroke: #ffffff; stroke-opacity: 0.85; stroke-width: 0.3"/>
    </g>
   </g>
   <g id="PathCollection_28">
    <g clip-path="url(#p845361d422)">
     <use xlink:href="#m1bc0d35461" x="1002.317199" y="175.892727" style="fill: #22d3ee; fill-opacity: 0.85; stroke: #ffffff; stroke-opacity: 0.85; stroke-width: 0.3"/>
    </g>
   </g>
   <g id="PathCollection_29">
    <g clip-path="url(#p845361d422)">
     <use xlink:href="#m1bc0d35461" x="967.879634" y="199.365455" style="fill: #22d3ee; fill-opacity: 0.85; stroke: #ffffff; stroke-opacity: 0.85; stroke-width: 0.3"/>
    </g>
   </g>
   <g id="PathCollection_30">
    <g clip-path="url(#p845361d422)">
     <use xlink:href="#m1bc0d35461" x="910.617684" y="239.269091" style="fill: #22d3ee; fill-opacity: 0.85; stroke: #ffffff; stroke-opacity: 0.85; stroke-width: 0.3"/>
    </g>
   </g>
   <g id="PathCollection_31">
    <g clip-path="url(#p845361d422)">
     <use xlink:href="#m1bc0d35461" x="902.205078" y="255.7" style="fill: #22d3ee; fill-opacity: 0.85; stroke: #ffffff; stroke-opacity: 0.85; stroke-width: 0.3"/>
    </g>
   </g>
   <g id="PathCollection_32">
    <g clip-path="url(#p845361d422)">
     <use xlink:href="#m1bc0d35461" x="867.767513" y="276.825455" style="fill: #22d3ee; fill-opacity: 0.85; stroke: #ffffff; stroke-opacity: 0.85; stroke-width: 0.3"/>
    </g>
   </g>
   <g id="PathCollection_33">
    <g clip-path="url(#p845361d422)">
     <use xlink:href="#m1bc0d35461" x="856.35532" y="293.256364" style="fill: #22d3ee; fill-opacity: 0.85; stroke: #ffffff; stroke-opacity: 0.85; stroke-width: 0.3"/>
    </g>
   </g>
   <g id="PathCollection_34">
    <g clip-path="url(#p845361d422)">
     <use xlink:href="#m1bc0d35461" x="821.917756" y="308.513636" style="fill: #22d3ee; fill-opacity: 0.85; stroke: #ffffff; stroke-opacity: 0.85; stroke-width: 0.3"/>
    </g>
   </g>
  </g>
  <g id="text_52">
   <!-- G2 Weighting Analysis: V3 vs V3w  (N=17) -->
   <g style="fill: #e2e8f0" transform="translate(444.073125 16.318125) scale(0.12 -0.12)">
    <defs>
     <path id="DejaVuSans-57" d="M 213 4666 
L 850 4666 
L 1831 722 
L 2809 4666 
L 3519 4666 
L 4500 722 
L 5478 4666 
L 6119 4666 
L 4947 0 
L 4153 0 
L 3169 4050 
L 2175 0 
L 1381 0 
L 213 4666 
z
" transform="scale(0.015625)"/>
     <path id="DejaVuSans-3a" d="M 750 794 
L 1409 794 
L 1409 0 
L 750 0 
L 750 794 
z
M 750 3309 
L 1409 3309 
L 1409 2516 
L 750 2516 
L 750 3309 
z
" transform="scale(0.015625)"/>
     <path id="DejaVuSans-4e" d="M 628 4666 
L 1478 4666 
L 3547 763 
L 3547 4666 
L 4159 4666 
L 4159 0 
L 3309 0 
L 1241 3903 
L 1241 0 
L 628 0 
L 628 4666 
z
" transform="scale(0.015625)"/>
     <path id="DejaVuSans-37" d="M 525 4666 
L 3525 4666 
L 3525 4397 
L 1831 0 
L 1172 0 
L 2766 4134 
L 525 4134 
L 525 4666 
z
" transform="scale(0.015625)"/>
    </defs>
    <use xlink:href="#DejaVuSans-47"/>
    <use xlink:href="#DejaVuSans-32" transform="translate(77.490234 0)"/>
    <use xlink:href="#DejaVuSans-20" transform="translate(141.113281 0)"/>
    <use xlink:href="#DejaVuSans-57" transform="translate(172.900391 0)"/>
    <use xlink:href="#DejaVuSans-65" transform="translate(265.902344 0)"/>
    <use xlink:href="#DejaVuSans-69" transform="translate(327.425781 0)"/>
    <use xlink:href="#DejaVuSans-67" transform="translate(355.208984 0)"/>
    <use xlink:href="#DejaVuSans-68" transform="translate(418.685547 0)"/>
    <use xlink:href="#DejaVuSans-74" transform="translate(482.064453 0)"/>
    <use xlink:href="#DejaVuSans-69" transform="translate(521.273438 0)"/>
    <use xlink:href="#DejaVuSans-6e" transform="translate(549.056641 0)"/>
    <use xlink:href="#DejaVuSans-67" transform="translate(612.435547 0)"/>
    <use xlink:href="#DejaVuSans-20" transform="translate(675.912109 0)"/>
    <use xlink:href="#DejaVuSans-41" transform="translate(707.699219 0)"/>
    <use xlink:href="#DejaVuSans-6e" transform="translate(776.107422 0)"/>
    <use xlink:href="#DejaVuSans-61" transform="translate(839.486328 0)"/>
    <use xlink:href="#DejaVuSans-6c" transform="translate(900.765625 0)"/>
    <use xlink:href="#DejaVuSans-79" transform="translate(928.548828 0)"/>
    <use xlink:href="#DejaVuSans-73" transform="translate(987.728516 0)"/>
    <use xlink:href="#DejaVuSans-69" transform="translate(1039.828125 0)"/>
    <use xlink:href="#DejaVuSans-73" transform="translate(1067.611328 0)"/>
    <use xlink:href="#DejaVuSans-3a" transform="translate(1119.710938 0)"/>
    <use xlink:href="#DejaVuSans-20" transform="translate(1153.402344 0)"/>
    <use xlink:href="#DejaVuSans-56" transform="translate(1185.189453 0)"/>
    <use xlink:href="#DejaVuSans-33" transform="translate(1253.597656 0)"/>
    <use xlink:href="#DejaVuSans-20" transform="translate(1317.220703 0)"/>
    <use xlink:href="#DejaVuSans-76" transform="translate(1349.007812 0)"/>
    <use xlink:href="#DejaVuSans-73" transform="translate(1408.1875 0)"/>
    <use xlink:href="#DejaVuSans-20" transform="translate(1460.287109 0)"/>
    <use xlink:href="#DejaVuSans-56" transform="translate(1492.074219 0)"/>
    <use xlink:href="#DejaVuSans-33" transform="translate(1560.482422 0)"/>
    <use xlink:href="#DejaVuSans-77" transform="translate(1624.105469 0)"/>
    <use xlink:href="#DejaVuSans-20" transform="translate(1705.892578 0)"/>
    <use xlink:href="#DejaVuSans-20" transform="translate(1737.679688 0)"/>
    <use xlink:href="#DejaVuSans-28" transform="translate(1769.466797 0)"/>
    <use xlink:href="#DejaVuSans-4e" transform="translate(1808.480469 0)"/>
    <use xlink:href="#DejaVuSans-3d" transform="translate(1883.285156 0)"/>
    <use xlink:href="#DejaVuSans-31" transform="translate(1967.074219 0)"/>
    <use xlink:href="#DejaVuSans-37" transform="translate(2030.697266 0)"/>
    <use xlink:href="#DejaVuSans-29" transform="translate(2094.320312 0)"/>
   </g>
  </g>
  <g id="legend_2">
   <g id="patch_21">
    <path d="M 445.618125 384.3 
L 698.52375 384.3 
Q 700.32375 384.3 700.32375 382.5 
L 700.32375 370.189687 
Q 700.32375 368.389687 698.52375 368.389687 
L 445.618125 368.389687 
Q 443.818125 368.389687 443.818125 370.189687 
L 443.818125 382.5 
Q 443.818125 384.3 445.618125 384.3 
z
" style="fill: #111118; opacity: 0.8; stroke: #1e1e2e; stroke-linejoin: miter"/>
   </g>
   <g id="patch_22">
    <path d="M 447.418125 378.828281 
L 465.418125 378.828281 
L 465.418125 372.528281 
L 447.418125 372.528281 
z
" style="fill: #6366f1; stroke: #6366f1; stroke-linejoin: miter"/>
   </g>
   <g id="text_53">
    <!-- Behavioural (nb10) -->
    <g style="fill: #9ca3af" transform="translate(472.618125 378.828281) scale(0.09 -0.09)">
     <defs>
      <path id="DejaVuSans-42" d="M 1259 2228 
L 1259 519 
L 2272 519 
Q 2781 519 3026 730 
Q 3272 941 3272 1375 
Q 3272 1813 3026 2020 
Q 2781 2228 2272 2228 
L 1259 2228 
z
M 1259 4147 
L 1259 2741 
L 2194 2741 
Q 2656 2741 2882 2914 
Q 3109 3088 3109 3444 
Q 3109 3797 2882 3972 
Q 2656 4147 2194 4147 
L 1259 4147 
z
M 628 4666 
L 2241 4666 
Q 2963 4666 3353 4366 
Q 3744 4066 3744 3513 
Q 3744 3084 3544 2831 
Q 3344 2578 2956 2516 
Q 3422 2416 3680 2098 
Q 3938 1781 3938 1306 
Q 3938 681 3513 340 
Q 3088 0 2303 0 
L 628 0 
L 628 4666 
z
" transform="scale(0.015625)"/>
     </defs>
     <use xlink:href="#DejaVuSans-42"/>
     <use xlink:href="#DejaVuSans-65" transform="translate(68.603516 0)"/>
     <use xlink:href="#DejaVuSans-68" transform="translate(130.126953 0)"/>
     <use xlink:href="#DejaVuSans-61" transform="translate(193.505859 0)"/>
     <use xlink:href="#DejaVuSans-76" transform="translate(254.785156 0)"/>
     <use xlink:href="#DejaVuSans-69" transform="translate(313.964844 0)"/>
     <use xlink:href="#DejaVuSans-6f" transform="translate(341.748047 0)"/>
     <use xlink:href="#DejaVuSans-75" transform="translate(402.929688 0)"/>
     <use xlink:href="#DejaVuSans-72" transform="translate(466.308594 0)"/>
     <use xlink:href="#DejaVuSans-61" transform="translate(507.421875 0)"/>
     <use xlink:href="#DejaVuSans-6c" transform="translate(568.701172 0)"/>
     <use xlink:href="#DejaVuSans-20" transform="translate(596.484375 0)"/>
     <use xlink:href="#DejaVuSans-28" transform="translate(628.271484 0)"/>
     <use xlink:href="#DejaVuSans-6e" transform="translate(667.285156 0)"/>
     <use xlink:href="#DejaVuSans-62" transform="translate(730.664062 0)"/>
     <use xlink:href="#DejaVuSans-31" transform="translate(794.140625 0)"/>
     <use xlink:href="#DejaVuSans-30" transform="translate(857.763672 0)"/>
     <use xlink:href="#DejaVuSans-29" transform="translate(921.386719 0)"/>
    </g>
   </g>
   <g id="patch_23">
    <path d="M 577.056094 378.828281 
L 595.056094 378.828281 
L 595.056094 372.528281 
L 577.056094 372.528281 
z
" style="fill: #22d3ee; stroke: #22d3ee; stroke-linejoin: miter"/>
   </g>
   <g id="text_54">
    <!-- Market micro. (nb25) -->
    <g style="fill: #9ca3af" transform="translate(602.256094 378.828281) scale(0.09 -0.09)">
     <defs>
      <path id="DejaVuSans-6b" d="M 581 4863 
L 1159 4863 
L 1159 1991 
L 2875 3500 
L 3609 3500 
L 1753 1863 
L 3688 0 
L 2938 0 
L 1159 1709 
L 1159 0 
L 581 0 
L 581 4863 
z
" transform="scale(0.015625)"/>
     </defs>
     <use xlink:href="#DejaVuSans-4d"/>
     <use xlink:href="#DejaVuSans-61" transform="translate(86.279297 0)"/>
     <use xlink:href="#DejaVuSans-72" transform="translate(147.558594 0)"/>
     <use xlink:href="#DejaVuSans-6b" transform="translate(188.671875 0)"/>
     <use xlink:href="#DejaVuSans-65" transform="translate(242.957031 0)"/>
     <use xlink:href="#DejaVuSans-74" transform="translate(304.480469 0)"/>
     <use xlink:href="#DejaVuSans-20" transform="translate(343.689453 0)"/>
     <use xlink:href="#DejaVuSans-6d" transform="translate(375.476562 0)"/>
     <use xlink:href="#DejaVuSans-69" transform="translate(472.888672 0)"/>
     <use xlink:href="#DejaVuSans-63" transform="translate(500.671875 0)"/>
     <use xlink:href="#DejaVuSans-72" transform="translate(555.652344 0)"/>
     <use xlink:href="#DejaVuSans-6f" transform="translate(594.515625 0)"/>
     <use xlink:href="#DejaVuSans-2e" transform="translate(653.947266 0)"/>
     <use xlink:href="#DejaVuSans-20" transform="translate(685.734375 0)"/>
     <use xlink:href="#DejaVuSans-28" transform="translate(717.521484 0)"/>
     <use xlink:href="#DejaVuSans-6e" transform="translate(756.535156 0)"/>
     <use xlink:href="#DejaVuSans-62" transform="translate(819.914062 0)"/>
     <use xlink:href="#DejaVuSans-32" transform="translate(883.390625 0)"/>
     <use xlink:href="#DejaVuSans-35" transform="translate(947.013672 0)"/>
     <use xlink:href="#DejaVuSans-29" transform="translate(1010.636719 0)"/>
    </g>
   </g>
  </g>
 </g>
 <defs>
  <clipPath id="p4290292887">
   <rect x="52.160938" y="74.96" width="330.37" height="258.2"/>
  </clipPath>
  <clipPath id="p84c326a1f5">
   <rect x="429.530937" y="74.96" width="330.37" height="258.2"/>
  </clipPath>
  <clipPath id="p845361d422">
   <rect x="806.900937" y="74.96" width="330.37" height="258.2"/>
  </clipPath>
 </defs>
</svg>
