<?xml version="1.0" encoding="utf-8" standalone="no"?>
<!DOCTYPE svg PUBLIC "-//W3C//DTD SVG 1.1//EN"
  "http://www.w3.org/Graphics/SVG/1.1/DTD/svg11.dtd">
<svg xmlns:xlink="http://www.w3.org/1999/xlink" width="784.73625pt" height="494.782875pt" viewBox="0 0 784.73625 494.782875" xmlns="http://www.w3.org/2000/svg" version="1.1">
 <metadata>
  <rdf:RDF xmlns:dc="http://purl.org/dc/elements/1.1/" xmlns:cc="http://creativecommons.org/ns#" xmlns:rdf="http://www.w3.org/1999/02/22-rdf-syntax-ns#">
   <cc:Work>
    <dc:type rdf:resource="http://purl.org/dc/dcmitype/StillImage"/>
    <dc:date>2026-02-22T05:35:01.366163</dc:date>
    <dc:format>image/svg+xml</dc:format>
    <dc:creator>
     <cc:Agent>
      <dc:title>Matplotlib v3.10.8, https://matplotlib.org/</dc:title>
     </cc:Agent>
    </dc:creator>
   </cc:Work>
  </rdf:RDF>
 </metadata>
 <defs>
  <style type="text/css">*{stroke-linejoin: round; stroke-linecap: butt}</style>
 </defs>
 <g id="figure_1">
  <g id="patch_1">
   <path d="M -0 494.782875 
L 784.73625 494.782875 
L 784.73625 0 
L -0 0 
z
" style="fill: #ffffff"/>
  </g>
  <g id="axes_1">
   <g id="patch_2">
    <path d="M 108.39375 454.811 
L 771.17375 454.811 
L 771.17375 33.979 
L 108.39375 33.979 
z
" style="fill: #ffffff"/>
   </g>
   <g id="patch_3">
    <path d="M 289.151932 435.682273 
L 181.622397 435.682273 
L 181.622397 414.595487 
L 289.151932 414.595487 
z
" clip-path="url(#p77ecd89dde)" style="fill: #cc0066; stroke: #ffffff; stroke-width: 0.6; stroke-linejoin: miter"/>
   </g>
   <g id="patch_4">
    <path d="M 289.151932 405.558293 
L 250.200674 405.558293 
L 250.200674 384.471507 
L 289.151932 384.471507 
z
" clip-path="url(#p77ecd89dde)" style="fill: #6699cc; stroke: #ffffff; stroke-width: 0.6; stroke-linejoin: miter"/>
   </g>
   <g id="patch_5">
    <path d="M 289.151932 375.434313 
L 289.151932 375.434313 
L 289.151932 354.347527 
L 289.151932 354.347527 
z
" clip-path="url(#p77ecd89dde)" style="fill: #ff6600; stroke: #ffffff; stroke-width: 0.6; stroke-linejoin: miter"/>
   </g>
   <g id="patch_6">
    <path d="M 289.151932 345.310333 
L 312.372573 345.310333 
L 312.372573 324.223547 
L 289.151932 324.223547 
z
" clip-path="url(#p77ecd89dde)" style="fill: #aaaaaa; stroke: #ffffff; stroke-width: 0.6; stroke-linejoin: miter"/>
   </g>
   <g id="patch_7">
    <path d="M 289.151932 315.186353 
L 360.8873 315.186353 
L 360.8873 294.099567 
L 289.151932 294.099567 
z
" clip-path="url(#p77ecd89dde)" style="fill: #ffd700; stroke: #ffffff; stroke-width: 0.6; stroke-linejoin: miter"/>
   </g>
   <g id="patch_8">
    <path d="M 289.151932 285.062373 
L 406.310013 285.062373 
L 406.310013 263.975587 
L 289.151932 263.975587 
z
" clip-path="url(#p77ecd89dde)" style="fill: #ffaa00; stroke: #ffffff; stroke-width: 0.6; stroke-linejoin: miter"/>
   </g>
   <g id="patch_9">
    <path d="M 289.151932 254.938393 
L 416.278565 254.938393 
L 416.278565 233.851607 
L 289.151932 233.851607 
z
" clip-path="url(#p77ecd89dde)" style="fill: #cc0000; stroke: #ffffff; stroke-width: 0.6; stroke-linejoin: miter"/>
   </g>
   <g id="patch_10">
    <path d="M 289.151932 224.814413 
L 472.779291 224.814413 
L 472.779291 203.727627 
L 289.151932 203.727627 
z
" clip-path="url(#p77ecd89dde)" style="fill: #4b0082; stroke: #ffffff; stroke-width: 0.6; stroke-linejoin: miter"/>
   </g>
   <g id="patch_11">
    <path d="M 289.151932 194.690433 
L 514.144358 194.690433 
L 514.144358 173.603647 
L 289.151932 173.603647 
z
" clip-path="url(#p77ecd89dde)" style="fill: #8b0000; stroke: #ffffff; stroke-width: 0.6; stroke-linejoin: miter"/>
   </g>
   <g id="patch_12">
    <path d="M 289.151932 164.566453 
L 514.144358 164.566453 
L 514.144358 143.479667 
L 289.151932 143.479667 
z
" clip-path="url(#p77ecd89dde)" style="fill: #888888; stroke: #ffffff; stroke-width: 0.6; stroke-linejoin: miter"/>
   </g>
   <g id="patch_13">
    <path d="M 289.151932 134.442473 
L 546.230235 134.442473 
L 546.230235 113.355687 
L 289.151932 113.355687 
z
" clip-path="url(#p77ecd89dde)" style="fill: #4169e1; stroke: #ffffff; stroke-width: 0.6; stroke-linejoin: miter"/>
   </g>
   <g id="patch_14">
    <path d="M 289.151932 104.318493 
L 583.100867 104.318493 
L 583.100867 83.231707 
L 289.151932 83.231707 
z
" clip-path="url(#p77ecd89dde)" style="fill: #009900; stroke: #ffffff; stroke-width: 0.6; stroke-linejoin: miter"/>
   </g>
   <g id="patch_15">
    <path d="M 289.151932 74.194513 
L 650.668295 74.194513 
L 650.668295 53.107727 
L 289.151932 53.107727 
z
" clip-path="url(#p77ecd89dde)" style="fill: #ff9933; stroke: #ffffff; stroke-width: 0.6; stroke-linejoin: miter"/>
   </g>
   <g id="patch_16">
    <path d="M 277.101386 454.811 
L 301.202477 454.811 
L 301.202477 33.979 
L 277.101386 33.979 
z
" clip-path="url(#p77ecd89dde)" style="fill: #ffd700; opacity: 0.1; stroke: #ffd700; stroke-linejoin: miter"/>
   </g>
   <g id="matplotlib.axis_1">
    <g id="xtick_1">
     <g id="line2d_1">
      <path d="M 168.646477 454.811 
L 168.646477 33.979 
" clip-path="url(#p77ecd89dde)" style="fill: none; stroke-dasharray: 0.8,1.32; stroke-dashoffset: 0; stroke: #b0b0b0; stroke-opacity: 0.3; stroke-width: 0.8"/>
     </g>
     <g id="line2d_2">
      <defs>
       <path id="m157e82d0c5" d="M 0 0 
L 0 3.5 
" style="stroke: #000000; stroke-width: 0.8"/>
      </defs>
      <g>
       <use xlink:href="#m157e82d0c5" x="168.646477" y="454.811" style="stroke: #000000; stroke-width: 0.8"/>
      </g>
     </g>
     <g id="text_1">
      <!-- −10 -->
      <g transform="translate(158.094134 469.409437) scale(0.1 -0.1)">
       <defs>
        <path id="DejaVuSans-2212" d="M 678 2272 
L 4684 2272 
L 4684 1741 
L 678 1741 
L 678 2272 
z
" transform="scale(0.015625)"/>
        <path id="DejaVuSans-31" d="M 794 531 
L 1825 531 
L 1825 4091 
L 703 3866 
L 703 4441 
L 1819 4666 
L 2450 4666 
L 2450 531 
L 3481 531 
L 3481 0 
L 794 0 
L 794 531 
z
" transform="scale(0.015625)"/>
        <path id="DejaVuSans-30" d="M 2034 4250 
Q 1547 4250 1301 3770 
Q 1056 3291 1056 2328 
Q 1056 1369 1301 889 
Q 1547 409 2034 409 
Q 2525 409 2770 889 
Q 3016 1369 3016 2328 
Q 3016 3291 2770 3770 
Q 2525 4250 2034 4250 
z
M 2034 4750 
Q 2819 4750 3233 4129 
Q 3647 3509 3647 2328 
Q 3647 1150 3233 529 
Q 2819 -91 2034 -91 
Q 1250 -91 836 529 
Q 422 1150 422 2328 
Q 422 3509 836 4129 
Q 1250 4750 2034 4750 
z
" transform="scale(0.015625)"/>
       </defs>
       <use xlink:href="#DejaVuSans-2212"/>
       <use xlink:href="#DejaVuSans-31" transform="translate(83.789062 0)"/>
       <use xlink:href="#DejaVuSans-30" transform="translate(147.412109 0)"/>
      </g>
     </g>
    </g>
    <g id="xtick_2">
     <g id="line2d_3">
      <path d="M 289.151932 454.811 
L 289.151932 33.979 
" clip-path="url(#p77ecd89dde)" style="fill: none; stroke-dasharray: 0.8,1.32; stroke-dashoffset: 0; stroke: #b0b0b0; stroke-opacity: 0.3; stroke-width: 0.8"/>
     </g>
     <g id="line2d_4">
      <g>
       <use xlink:href="#m157e82d0c5" x="289.151932" y="454.811" style="stroke: #000000; stroke-width: 0.8"/>
      </g>
     </g>
     <g id="text_2">
      <!-- 0 -->
      <g transform="translate(285.970682 469.409437) scale(0.1 -0.1)">
       <use xlink:href="#DejaVuSans-30"/>
      </g>
     </g>
    </g>
    <g id="xtick_3">
     <g id="line2d_5">
      <path d="M 409.657386 454.811 
L 409.657386 33.979 
" clip-path="url(#p77ecd89dde)" style="fill: none; stroke-dasharray: 0.8,1.32; stroke-dashoffset: 0; stroke: #b0b0b0; stroke-opacity: 0.3; stroke-width: 0.8"/>
     </g>
     <g id="line2d_6">
      <g>
       <use xlink:href="#m157e82d0c5" x="409.657386" y="454.811" style="stroke: #000000; stroke-width: 0.8"/>
      </g>
     </g>
     <g id="text_3">
      <!-- 10 -->
      <g transform="translate(403.294886 469.409437) scale(0.1 -0.1)">
       <use xlink:href="#DejaVuSans-31"/>
       <use xlink:href="#DejaVuSans-30" transform="translate(63.623047 0)"/>
      </g>
     </g>
    </g>
    <g id="xtick_4">
     <g id="line2d_7">
      <path d="M 530.162841 454.811 
L 530.162841 33.979 
" clip-path="url(#p77ecd89dde)" style="fill: none; stroke-dasharray: 0.8,1.32; stroke-dashoffset: 0; stroke: #b0b0b0; stroke-opacity: 0.3; stroke-width: 0.8"/>
     </g>
     <g id="line2d_8">
      <g>
       <use xlink:href="#m157e82d0c5" x="530.162841" y="454.811" style="stroke: #000000; stroke-width: 0.8"/>
      </g>
     </g>
     <g id="text_4">
      <!-- 20 -->
      <g transform="translate(523.800341 469.409437) scale(0.1 -0.1)">
       <defs>
        <path id="DejaVuSans-32" d="M 1228 531 
L 3431 531 
L 3431 0 
L 469 0 
L 469 531 
Q 828 903 1448 1529 
Q 2069 2156 2228 2338 
Q 2531 2678 2651 2914 
Q 2772 3150 2772 3378 
Q 2772 3750 2511 3984 
Q 2250 4219 1831 4219 
Q 1534 4219 1204 4116 
Q 875 4013 500 3803 
L 500 4441 
Q 881 4594 1212 4672 
Q 1544 4750 1819 4750 
Q 2544 4750 2975 4387 
Q 3406 4025 3406 3419 
Q 3406 3131 3298 2873 
Q 3191 2616 2906 2266 
Q 2828 2175 2409 1742 
Q 1991 1309 1228 531 
z
" transform="scale(0.015625)"/>
       </defs>
       <use xlink:href="#DejaVuSans-32"/>
       <use xlink:href="#DejaVuSans-30" transform="translate(63.623047 0)"/>
      </g>
     </g>
    </g>
    <g id="xtick_5">
     <g id="line2d_9">
      <path d="M 650.668295 454.811 
L 650.668295 33.979 
" clip-path="url(#p77ecd89dde)" style="fill: none; stroke-dasharray: 0.8,1.32; stroke-dashoffset: 0; stroke: #b0b0b0; stroke-opacity: 0.3; stroke-width: 0.8"/>
     </g>
     <g id="line2d_10">
      <g>
       <use xlink:href="#m157e82d0c5" x="650.668295" y="454.811" style="stroke: #000000; stroke-width: 0.8"/>
      </g>
     </g>
     <g id="text_5">
      <!-- 30 -->
      <g transform="translate(644.305795 469.409437) scale(0.1 -0.1)">
       <defs>
        <path id="DejaVuSans-33" d="M 2597 2516 
Q 3050 2419 3304 2112 
Q 3559 1806 3559 1356 
Q 3559 666 3084 287 
Q 2609 -91 1734 -91 
Q 1441 -91 1130 -33 
Q 819 25 488 141 
L 488 750 
Q 750 597 1062 519 
Q 1375 441 1716 441 
Q 2309 441 2620 675 
Q 2931 909 2931 1356 
Q 2931 1769 2642 2001 
Q 2353 2234 1838 2234 
L 1294 2234 
L 1294 2753 
L 1863 2753 
Q 2328 2753 2575 2939 
Q 2822 3125 2822 3475 
Q 2822 3834 2567 4026 
Q 2313 4219 1838 4219 
Q 1578 4219 1281 4162 
Q 984 4106 628 3988 
L 628 4550 
Q 988 4650 1302 4700 
Q 1616 4750 1894 4750 
Q 2613 4750 3031 4423 
Q 3450 4097 3450 3541 
Q 3450 3153 3228 2886 
Q 3006 2619 2597 2516 
z
" transform="scale(0.015625)"/>
       </defs>
       <use xlink:href="#DejaVuSans-33"/>
       <use xlink:href="#DejaVuSans-30" transform="translate(63.623047 0)"/>
      </g>
     </g>
    </g>
    <g id="xtick_6">
     <g id="line2d_11">
      <path d="M 771.17375 454.811 
L 771.17375 33.979 
" clip-path="url(#p77ecd89dde)" style="fill: none; stroke-dasharray: 0.8,1.32; stroke-dashoffset: 0; stroke: #b0b0b0; stroke-opacity: 0.3; stroke-width: 0.8"/>
     </g>
     <g id="line2d_12">
      <g>
       <use xlink:href="#m157e82d0c5" x="771.17375" y="454.811" style="stroke: #000000; stroke-width: 0.8"/>
      </g>
     </g>
     <g id="text_6">
      <!-- 40 -->
      <g transform="translate(764.81125 469.409437) scale(0.1 -0.1)">
       <defs>
        <path id="DejaVuSans-34" d="M 2419 4116 
L 825 1625 
L 2419 1625 
L 2419 4116 
z
M 2253 4666 
L 3047 4666 
L 3047 1625 
L 3713 1625 
L 3713 1100 
L 3047 1100 
L 3047 0 
L 2419 0 
L 2419 1100 
L 313 1100 
L 313 1709 
L 2253 4666 
z
" transform="scale(0.015625)"/>
       </defs>
       <use xlink:href="#DejaVuSans-34"/>
       <use xlink:href="#DejaVuSans-30" transform="translate(63.623047 0)"/>
      </g>
     </g>
    </g>
    <g id="text_7">
     <!-- Péclet number Pe  (− = drift toward leaving, + = drift toward staying) -->
     <g transform="translate(229.674063 485.08725) scale(0.12 -0.12)">
      <defs>
       <path id="DejaVuSans-50" d="M 1259 4147 
L 1259 2394 
L 2053 2394 
Q 2494 2394 2734 2622 
Q 2975 2850 2975 3272 
Q 2975 3691 2734 3919 
Q 2494 4147 2053 4147 
L 1259 4147 
z
M 628 4666 
L 2053 4666 
Q 2838 4666 3239 4311 
Q 3641 3956 3641 3272 
Q 3641 2581 3239 2228 
Q 2838 1875 2053 1875 
L 1259 1875 
L 1259 0 
L 628 0 
L 628 4666 
z
" transform="scale(0.015625)"/>
       <path id="DejaVuSans-e9" d="M 3597 1894 
L 3597 1613 
L 953 1613 
Q 991 1019 1311 708 
Q 1631 397 2203 397 
Q 2534 397 2845 478 
Q 3156 559 3463 722 
L 3463 178 
Q 3153 47 2828 -22 
Q 2503 -91 2169 -91 
Q 1331 -91 842 396 
Q 353 884 353 1716 
Q 353 2575 817 3079 
Q 1281 3584 2069 3584 
Q 2775 3584 3186 3129 
Q 3597 2675 3597 1894 
z
M 3022 2063 
Q 3016 2534 2758 2815 
Q 2500 3097 2075 3097 
Q 1594 3097 1305 2825 
Q 1016 2553 972 2059 
L 3022 2063 
z
M 2466 5119 
L 3088 5119 
L 2070 3944 
L 1591 3944 
L 2466 5119 
z
" transform="scale(0.015625)"/>
       <path id="DejaVuSans-63" d="M 3122 3366 
L 3122 2828 
Q 2878 2963 2633 3030 
Q 2388 3097 2138 3097 
Q 1578 3097 1268 2742 
Q 959 2388 959 1747 
Q 959 1106 1268 751 
Q 1578 397 2138 397 
Q 2388 397 2633 464 
Q 2878 531 3122 666 
L 3122 134 
Q 2881 22 2623 -34 
Q 2366 -91 2075 -91 
Q 1284 -91 818 406 
Q 353 903 353 1747 
Q 353 2603 823 3093 
Q 1294 3584 2113 3584 
Q 2378 3584 2631 3529 
Q 2884 3475 3122 3366 
z
" transform="scale(0.015625)"/>
       <path id="DejaVuSans-6c" d="M 603 4863 
L 1178 4863 
L 1178 0 
L 603 0 
L 603 4863 
z
" transform="scale(0.015625)"/>
       <path id="DejaVuSans-65" d="M 3597 1894 
L 3597 1613 
L 953 1613 
Q 991 1019 1311 708 
Q 1631 397 2203 397 
Q 2534 397 2845 478 
Q 3156 559 3463 722 
L 3463 178 
Q 3153 47 2828 -22 
Q 2503 -91 2169 -91 
Q 1331 -91 842 396 
Q 353 884 353 1716 
Q 353 2575 817 3079 
Q 1281 3584 2069 3584 
Q 2775 3584 3186 3129 
Q 3597 2675 3597 1894 
z
M 3022 2063 
Q 3016 2534 2758 2815 
Q 2500 3097 2075 3097 
Q 1594 3097 1305 2825 
Q 1016 2553 972 2059 
L 3022 2063 
z
" transform="scale(0.015625)"/>
       <path id="DejaVuSans-74" d="M 1172 4494 
L 1172 3500 
L 2356 3500 
L 2356 3053 
L 1172 3053 
L 1172 1153 
Q 1172 725 1289 603 
Q 1406 481 1766 481 
L 2356 481 
L 2356 0 
L 1766 0 
Q 1100 0 847 248 
Q 594 497 594 1153 
L 594 3053 
L 172 3053 
L 172 3500 
L 594 3500 
L 594 4494 
L 1172 4494 
z
" transform="scale(0.015625)"/>
       <path id="DejaVuSans-20" transform="scale(0.015625)"/>
       <path id="DejaVuSans-6e" d="M 3513 2113 
L 3513 0 
L 2938 0 
L 2938 2094 
Q 2938 2591 2744 2837 
Q 2550 3084 2163 3084 
Q 1697 3084 1428 2787 
Q 1159 2491 1159 1978 
L 1159 0 
L 581 0 
L 581 3500 
L 1159 3500 
L 1159 2956 
Q 1366 3272 1645 3428 
Q 1925 3584 2291 3584 
Q 2894 3584 3203 3211 
Q 3513 2838 3513 2113 
z
" transform="scale(0.015625)"/>
       <path id="DejaVuSans-75" d="M 544 1381 
L 544 3500 
L 1119 3500 
L 1119 1403 
Q 1119 906 1312 657 
Q 1506 409 1894 409 
Q 2359 409 2629 706 
Q 2900 1003 2900 1516 
L 2900 3500 
L 3475 3500 
L 3475 0 
L 2900 0 
L 2900 538 
Q 2691 219 2414 64 
Q 2138 -91 1772 -91 
Q 1169 -91 856 284 
Q 544 659 544 1381 
z
M 1991 3584 
L 1991 3584 
z
" transform="scale(0.015625)"/>
       <path id="DejaVuSans-6d" d="M 3328 2828 
Q 3544 3216 3844 3400 
Q 4144 3584 4550 3584 
Q 5097 3584 5394 3201 
Q 5691 2819 5691 2113 
L 5691 0 
L 5113 0 
L 5113 2094 
Q 5113 2597 4934 2840 
Q 4756 3084 4391 3084 
Q 3944 3084 3684 2787 
Q 3425 2491 3425 1978 
L 3425 0 
L 2847 0 
L 2847 2094 
Q 2847 2600 2669 2842 
Q 2491 3084 2119 3084 
Q 1678 3084 1418 2786 
Q 1159 2488 1159 1978 
L 1159 0 
L 581 0 
L 581 3500 
L 1159 3500 
L 1159 2956 
Q 1356 3278 1631 3431 
Q 1906 3584 2284 3584 
Q 2666 3584 2933 3390 
Q 3200 3197 3328 2828 
z
" transform="scale(0.015625)"/>
       <path id="DejaVuSans-62" d="M 3116 1747 
Q 3116 2381 2855 2742 
Q 2594 3103 2138 3103 
Q 1681 3103 1420 2742 
Q 1159 2381 1159 1747 
Q 1159 1113 1420 752 
Q 1681 391 2138 391 
Q 2594 391 2855 752 
Q 3116 1113 3116 1747 
z
M 1159 2969 
Q 1341 3281 1617 3432 
Q 1894 3584 2278 3584 
Q 2916 3584 3314 3078 
Q 3713 2572 3713 1747 
Q 3713 922 3314 415 
Q 2916 -91 2278 -91 
Q 1894 -91 1617 61 
Q 1341 213 1159 525 
L 1159 0 
L 581 0 
L 581 4863 
L 1159 4863 
L 1159 2969 
z
" transform="scale(0.015625)"/>
       <path id="DejaVuSans-72" d="M 2631 2963 
Q 2534 3019 2420 3045 
Q 2306 3072 2169 3072 
Q 1681 3072 1420 2755 
Q 1159 2438 1159 1844 
L 1159 0 
L 581 0 
L 581 3500 
L 1159 3500 
L 1159 2956 
Q 1341 3275 1631 3429 
Q 1922 3584 2338 3584 
Q 2397 3584 2469 3576 
Q 2541 3569 2628 3553 
L 2631 2963 
z
" transform="scale(0.015625)"/>
       <path id="DejaVuSans-28" d="M 1984 4856 
Q 1566 4138 1362 3434 
Q 1159 2731 1159 2009 
Q 1159 1288 1364 580 
Q 1569 -128 1984 -844 
L 1484 -844 
Q 1016 -109 783 600 
Q 550 1309 550 2009 
Q 550 2706 781 3412 
Q 1013 4119 1484 4856 
L 1984 4856 
z
" transform="scale(0.015625)"/>
       <path id="DejaVuSans-3d" d="M 678 2906 
L 4684 2906 
L 4684 2381 
L 678 2381 
L 678 2906 
z
M 678 1631 
L 4684 1631 
L 4684 1100 
L 678 1100 
L 678 1631 
z
" transform="scale(0.015625)"/>
       <path id="DejaVuSans-64" d="M 2906 2969 
L 2906 4863 
L 3481 4863 
L 3481 0 
L 2906 0 
L 2906 525 
Q 2725 213 2448 61 
Q 2172 -91 1784 -91 
Q 1150 -91 751 415 
Q 353 922 353 1747 
Q 353 2572 751 3078 
Q 1150 3584 1784 3584 
Q 2172 3584 2448 3432 
Q 2725 3281 2906 2969 
z
M 947 1747 
Q 947 1113 1208 752 
Q 1469 391 1925 391 
Q 2381 391 2643 752 
Q 2906 1113 2906 1747 
Q 2906 2381 2643 2742 
Q 2381 3103 1925 3103 
Q 1469 3103 1208 2742 
Q 947 2381 947 1747 
z
" transform="scale(0.015625)"/>
       <path id="DejaVuSans-69" d="M 603 3500 
L 1178 3500 
L 1178 0 
L 603 0 
L 603 3500 
z
M 603 4863 
L 1178 4863 
L 1178 4134 
L 603 4134 
L 603 4863 
z
" transform="scale(0.015625)"/>
       <path id="DejaVuSans-66" d="M 2375 4863 
L 2375 4384 
L 1825 4384 
Q 1516 4384 1395 4259 
Q 1275 4134 1275 3809 
L 1275 3500 
L 2222 3500 
L 2222 3053 
L 1275 3053 
L 1275 0 
L 697 0 
L 697 3053 
L 147 3053 
L 147 3500 
L 697 3500 
L 697 3744 
Q 697 4328 969 4595 
Q 1241 4863 1831 4863 
L 2375 4863 
z
" transform="scale(0.015625)"/>
       <path id="DejaVuSans-6f" d="M 1959 3097 
Q 1497 3097 1228 2736 
Q 959 2375 959 1747 
Q 959 1119 1226 758 
Q 1494 397 1959 397 
Q 2419 397 2687 759 
Q 2956 1122 2956 1747 
Q 2956 2369 2687 2733 
Q 2419 3097 1959 3097 
z
M 1959 3584 
Q 2709 3584 3137 3096 
Q 3566 2609 3566 1747 
Q 3566 888 3137 398 
Q 2709 -91 1959 -91 
Q 1206 -91 779 398 
Q 353 888 353 1747 
Q 353 2609 779 3096 
Q 1206 3584 1959 3584 
z
" transform="scale(0.015625)"/>
       <path id="DejaVuSans-77" d="M 269 3500 
L 844 3500 
L 1563 769 
L 2278 3500 
L 2956 3500 
L 3675 769 
L 4391 3500 
L 4966 3500 
L 4050 0 
L 3372 0 
L 2619 2869 
L 1863 0 
L 1184 0 
L 269 3500 
z
" transform="scale(0.015625)"/>
       <path id="DejaVuSans-61" d="M 2194 1759 
Q 1497 1759 1228 1600 
Q 959 1441 959 1056 
Q 959 750 1161 570 
Q 1363 391 1709 391 
Q 2188 391 2477 730 
Q 2766 1069 2766 1631 
L 2766 1759 
L 2194 1759 
z
M 3341 1997 
L 3341 0 
L 2766 0 
L 2766 531 
Q 2569 213 2275 61 
Q 1981 -91 1556 -91 
Q 1019 -91 701 211 
Q 384 513 384 1019 
Q 384 1609 779 1909 
Q 1175 2209 1959 2209 
L 2766 2209 
L 2766 2266 
Q 2766 2663 2505 2880 
Q 2244 3097 1772 3097 
Q 1472 3097 1187 3025 
Q 903 2953 641 2809 
L 641 3341 
Q 956 3463 1253 3523 
Q 1550 3584 1831 3584 
Q 2591 3584 2966 3190 
Q 3341 2797 3341 1997 
z
" transform="scale(0.015625)"/>
       <path id="DejaVuSans-76" d="M 191 3500 
L 800 3500 
L 1894 563 
L 2988 3500 
L 3597 3500 
L 2284 0 
L 1503 0 
L 191 3500 
z
" transform="scale(0.015625)"/>
       <path id="DejaVuSans-67" d="M 2906 1791 
Q 2906 2416 2648 2759 
Q 2391 3103 1925 3103 
Q 1463 3103 1205 2759 
Q 947 2416 947 1791 
Q 947 1169 1205 825 
Q 1463 481 1925 481 
Q 2391 481 2648 825 
Q 2906 1169 2906 1791 
z
M 3481 434 
Q 3481 -459 3084 -895 
Q 2688 -1331 1869 -1331 
Q 1566 -1331 1297 -1286 
Q 1028 -1241 775 -1147 
L 775 -588 
Q 1028 -725 1275 -790 
Q 1522 -856 1778 -856 
Q 2344 -856 2625 -561 
Q 2906 -266 2906 331 
L 2906 616 
Q 2728 306 2450 153 
Q 2172 0 1784 0 
Q 1141 0 747 490 
Q 353 981 353 1791 
Q 353 2603 747 3093 
Q 1141 3584 1784 3584 
Q 2172 3584 2450 3431 
Q 2728 3278 2906 2969 
L 2906 3500 
L 3481 3500 
L 3481 434 
z
" transform="scale(0.015625)"/>
       <path id="DejaVuSans-2c" d="M 750 794 
L 1409 794 
L 1409 256 
L 897 -744 
L 494 -744 
L 750 256 
L 750 794 
z
" transform="scale(0.015625)"/>
       <path id="DejaVuSans-2b" d="M 2944 4013 
L 2944 2272 
L 4684 2272 
L 4684 1741 
L 2944 1741 
L 2944 0 
L 2419 0 
L 2419 1741 
L 678 1741 
L 678 2272 
L 2419 2272 
L 2419 4013 
L 2944 4013 
z
" transform="scale(0.015625)"/>
       <path id="DejaVuSans-73" d="M 2834 3397 
L 2834 2853 
Q 2591 2978 2328 3040 
Q 2066 3103 1784 3103 
Q 1356 3103 1142 2972 
Q 928 2841 928 2578 
Q 928 2378 1081 2264 
Q 1234 2150 1697 2047 
L 1894 2003 
Q 2506 1872 2764 1633 
Q 3022 1394 3022 966 
Q 3022 478 2636 193 
Q 2250 -91 1575 -91 
Q 1294 -91 989 -36 
Q 684 19 347 128 
L 347 722 
Q 666 556 975 473 
Q 1284 391 1588 391 
Q 1994 391 2212 530 
Q 2431 669 2431 922 
Q 2431 1156 2273 1281 
Q 2116 1406 1581 1522 
L 1381 1569 
Q 847 1681 609 1914 
Q 372 2147 372 2553 
Q 372 3047 722 3315 
Q 1072 3584 1716 3584 
Q 2034 3584 2315 3537 
Q 2597 3491 2834 3397 
z
" transform="scale(0.015625)"/>
       <path id="DejaVuSans-79" d="M 2059 -325 
Q 1816 -950 1584 -1140 
Q 1353 -1331 966 -1331 
L 506 -1331 
L 506 -850 
L 844 -850 
Q 1081 -850 1212 -737 
Q 1344 -625 1503 -206 
L 1606 56 
L 191 3500 
L 800 3500 
L 1894 763 
L 2988 3500 
L 3597 3500 
L 2059 -325 
z
" transform="scale(0.015625)"/>
       <path id="DejaVuSans-29" d="M 513 4856 
L 1013 4856 
Q 1481 4119 1714 3412 
Q 1947 2706 1947 2009 
Q 1947 1309 1714 600 
Q 1481 -109 1013 -844 
L 513 -844 
Q 928 -128 1133 580 
Q 1338 1288 1338 2009 
Q 1338 2731 1133 3434 
Q 928 4138 513 4856 
z
" transform="scale(0.015625)"/>
      </defs>
      <use xlink:href="#DejaVuSans-50"/>
      <use xlink:href="#DejaVuSans-e9" transform="translate(56.677734 0)"/>
      <use xlink:href="#DejaVuSans-63" transform="translate(118.201172 0)"/>
      <use xlink:href="#DejaVuSans-6c" transform="translate(173.181641 0)"/>
      <use xlink:href="#DejaVuSans-65" transform="translate(200.964844 0)"/>
      <use xlink:href="#DejaVuSans-74" transform="translate(262.488281 0)"/>
      <use xlink:href="#DejaVuSans-20" transform="translate(301.697266 0)"/>
      <use xlink:href="#DejaVuSans-6e" transform="translate(333.484375 0)"/>
      <use xlink:href="#DejaVuSans-75" transform="translate(396.863281 0)"/>
      <use xlink:href="#DejaVuSans-6d" transform="translate(460.242188 0)"/>
      <use xlink:href="#DejaVuSans-62" transform="translate(557.654297 0)"/>
      <use xlink:href="#DejaVuSans-65" transform="translate(621.130859 0)"/>
      <use xlink:href="#DejaVuSans-72" transform="translate(682.654297 0)"/>
      <use xlink:href="#DejaVuSans-20" transform="translate(723.767578 0)"/>
      <use xlink:href="#DejaVuSans-50" transform="translate(755.554688 0)"/>
      <use xlink:href="#DejaVuSans-65" transform="translate(812.232422 0)"/>
      <use xlink:href="#DejaVuSans-20" transform="translate(873.755859 0)"/>
      <use xlink:href="#DejaVuSans-20" transform="translate(905.542969 0)"/>
      <use xlink:href="#DejaVuSans-28" transform="translate(937.330078 0)"/>
      <use xlink:href="#DejaVuSans-2212" transform="translate(976.34375 0)"/>
      <use xlink:href="#DejaVuSans-20" transform="translate(1060.132812 0)"/>
      <use xlink:href="#DejaVuSans-3d" transform="translate(1091.919922 0)"/>
      <use xlink:href="#DejaVuSans-20" transform="translate(1175.708984 0)"/>
      <use xlink:href="#DejaVuSans-64" transform="translate(1207.496094 0)"/>
      <use xlink:href="#DejaVuSans-72" transform="translate(1270.972656 0)"/>
      <use xlink:href="#DejaVuSans-69" transform="translate(1312.085938 0)"/>
      <use xlink:href="#DejaVuSans-66" transform="translate(1339.869141 0)"/>
      <use xlink:href="#DejaVuSans-74" transform="translate(1373.324219 0)"/>
      <use xlink:href="#DejaVuSans-20" transform="translate(1412.533203 0)"/>
      <use xlink:href="#DejaVuSans-74" transform="translate(1444.320312 0)"/>
      <use xlink:href="#DejaVuSans-6f" transform="translate(1483.529297 0)"/>
      <use xlink:href="#DejaVuSans-77" transform="translate(1544.710938 0)"/>
      <use xlink:href="#DejaVuSans-61" transform="translate(1626.498047 0)"/>
      <use xlink:href="#DejaVuSans-72" transform="translate(1687.777344 0)"/>
      <use xlink:href="#DejaVuSans-64" transform="translate(1727.140625 0)"/>
      <use xlink:href="#DejaVuSans-20" transform="translate(1790.617188 0)"/>
      <use xlink:href="#DejaVuSans-6c" transform="translate(1822.404297 0)"/>
      <use xlink:href="#DejaVuSans-65" transform="translate(1850.1875 0)"/>
      <use xlink:href="#DejaVuSans-61" transform="translate(1911.710938 0)"/>
      <use xlink:href="#DejaVuSans-76" transform="translate(1972.990234 0)"/>
      <use xlink:href="#DejaVuSans-69" transform="translate(2032.169922 0)"/>
      <use xlink:href="#DejaVuSans-6e" transform="translate(2059.953125 0)"/>
      <use xlink:href="#DejaVuSans-67" transform="translate(2123.332031 0)"/>
      <use xlink:href="#DejaVuSans-2c" transform="translate(2186.808594 0)"/>
      <use xlink:href="#DejaVuSans-20" transform="translate(2218.595703 0)"/>
      <use xlink:href="#DejaVuSans-2b" transform="translate(2250.382812 0)"/>
      <use xlink:href="#DejaVuSans-20" transform="translate(2334.171875 0)"/>
      <use xlink:href="#DejaVuSans-3d" transform="translate(2365.958984 0)"/>
      <use xlink:href="#DejaVuSans-20" transform="translate(2449.748047 0)"/>
      <use xlink:href="#DejaVuSans-64" transform="translate(2481.535156 0)"/>
      <use xlink:href="#DejaVuSans-72" transform="translate(2545.011719 0)"/>
      <use xlink:href="#DejaVuSans-69" transform="translate(2586.125 0)"/>
      <use xlink:href="#DejaVuSans-66" transform="translate(2613.908203 0)"/>
      <use xlink:href="#DejaVuSans-74" transform="translate(2647.363281 0)"/>
      <use xlink:href="#DejaVuSans-20" transform="translate(2686.572266 0)"/>
      <use xlink:href="#DejaVuSans-74" transform="translate(2718.359375 0)"/>
      <use xlink:href="#DejaVuSans-6f" transform="translate(2757.568359 0)"/>
      <use xlink:href="#DejaVuSans-77" transform="translate(2818.75 0)"/>
      <use xlink:href="#DejaVuSans-61" transform="translate(2900.537109 0)"/>
      <use xlink:href="#DejaVuSans-72" transform="translate(2961.816406 0)"/>
      <use xlink:href="#DejaVuSans-64" transform="translate(3001.179688 0)"/>
      <use xlink:href="#DejaVuSans-20" transform="translate(3064.65625 0)"/>
      <use xlink:href="#DejaVuSans-73" transform="translate(3096.443359 0)"/>
      <use xlink:href="#DejaVuSans-74" transform="translate(3148.542969 0)"/>
      <use xlink:href="#DejaVuSans-61" transform="translate(3187.751953 0)"/>
      <use xlink:href="#DejaVuSans-79" transform="translate(3249.03125 0)"/>
      <use xlink:href="#DejaVuSans-69" transform="translate(3308.210938 0)"/>
      <use xlink:href="#DejaVuSans-6e" transform="translate(3335.994141 0)"/>
      <use xlink:href="#DejaVuSans-67" transform="translate(3399.373047 0)"/>
      <use xlink:href="#DejaVuSans-29" transform="translate(3462.849609 0)"/>
     </g>
    </g>
   </g>
   <g id="matplotlib.axis_2">
    <g id="ytick_1">
     <g id="line2d_13">
      <defs>
       <path id="mc0239d40ab" d="M 0 0 
L -3.5 0 
" style="stroke: #000000; stroke-width: 0.8"/>
      </defs>
      <g>
       <use xlink:href="#mc0239d40ab" x="108.39375" y="425.13888" style="stroke: #000000; stroke-width: 0.8"/>
      </g>
     </g>
     <g id="text_8">
      <!-- Jehovah's Witness -->
      <g transform="translate(11.04375 428.938098) scale(0.1 -0.1)">
       <defs>
        <path id="DejaVuSans-4a" d="M 628 4666 
L 1259 4666 
L 1259 325 
Q 1259 -519 939 -900 
Q 619 -1281 -91 -1281 
L -331 -1281 
L -331 -750 
L -134 -750 
Q 284 -750 456 -515 
Q 628 -281 628 325 
L 628 4666 
z
" transform="scale(0.015625)"/>
        <path id="DejaVuSans-68" d="M 3513 2113 
L 3513 0 
L 2938 0 
L 2938 2094 
Q 2938 2591 2744 2837 
Q 2550 3084 2163 3084 
Q 1697 3084 1428 2787 
Q 1159 2491 1159 1978 
L 1159 0 
L 581 0 
L 581 4863 
L 1159 4863 
L 1159 2956 
Q 1366 3272 1645 3428 
Q 1925 3584 2291 3584 
Q 2894 3584 3203 3211 
Q 3513 2838 3513 2113 
z
" transform="scale(0.015625)"/>
        <path id="DejaVuSans-27" d="M 1147 4666 
L 1147 2931 
L 616 2931 
L 616 4666 
L 1147 4666 
z
" transform="scale(0.015625)"/>
        <path id="DejaVuSans-57" d="M 213 4666 
L 850 4666 
L 1831 722 
L 2809 4666 
L 3519 4666 
L 4500 722 
L 5478 4666 
L 6119 4666 
L 4947 0 
L 4153 0 
L 3169 4050 
L 2175 0 
L 1381 0 
L 213 4666 
z
" transform="scale(0.015625)"/>
       </defs>
       <use xlink:href="#DejaVuSans-4a"/>
       <use xlink:href="#DejaVuSans-65" transform="translate(29.492188 0)"/>
       <use xlink:href="#DejaVuSans-68" transform="translate(91.015625 0)"/>
       <use xlink:href="#DejaVuSans-6f" transform="translate(154.394531 0)"/>
       <use xlink:href="#DejaVuSans-76" transform="translate(215.576172 0)"/>
       <use xlink:href="#DejaVuSans-61" transform="translate(274.755859 0)"/>
       <use xlink:href="#DejaVuSans-68" transform="translate(336.035156 0)"/>
       <use xlink:href="#DejaVuSans-27" transform="translate(399.414062 0)"/>
       <use xlink:href="#DejaVuSans-73" transform="translate(426.904297 0)"/>
       <use xlink:href="#DejaVuSans-20" transform="translate(479.003906 0)"/>
       <use xlink:href="#DejaVuSans-57" transform="translate(510.791016 0)"/>
       <use xlink:href="#DejaVuSans-69" transform="translate(607.417969 0)"/>
       <use xlink:href="#DejaVuSans-74" transform="translate(635.201172 0)"/>
       <use xlink:href="#DejaVuSans-6e" transform="translate(674.410156 0)"/>
       <use xlink:href="#DejaVuSans-65" transform="translate(737.789062 0)"/>
       <use xlink:href="#DejaVuSans-73" transform="translate(799.3125 0)"/>
       <use xlink:href="#DejaVuSans-73" transform="translate(851.412109 0)"/>
      </g>
     </g>
    </g>
    <g id="ytick_2">
     <g id="line2d_14">
      <g>
       <use xlink:href="#mc0239d40ab" x="108.39375" y="395.0149" style="stroke: #000000; stroke-width: 0.8"/>
      </g>
     </g>
     <g id="text_9">
      <!-- Mainline Prot. -->
      <g transform="translate(33.339063 398.814119) scale(0.1 -0.1)">
       <defs>
        <path id="DejaVuSans-4d" d="M 628 4666 
L 1569 4666 
L 2759 1491 
L 3956 4666 
L 4897 4666 
L 4897 0 
L 4281 0 
L 4281 4097 
L 3078 897 
L 2444 897 
L 1241 4097 
L 1241 0 
L 628 0 
L 628 4666 
z
" transform="scale(0.015625)"/>
        <path id="DejaVuSans-2e" d="M 684 794 
L 1344 794 
L 1344 0 
L 684 0 
L 684 794 
z
" transform="scale(0.015625)"/>
       </defs>
       <use xlink:href="#DejaVuSans-4d"/>
       <use xlink:href="#DejaVuSans-61" transform="translate(86.279297 0)"/>
       <use xlink:href="#DejaVuSans-69" transform="translate(147.558594 0)"/>
       <use xlink:href="#DejaVuSans-6e" transform="translate(175.341797 0)"/>
       <use xlink:href="#DejaVuSans-6c" transform="translate(238.720703 0)"/>
       <use xlink:href="#DejaVuSans-69" transform="translate(266.503906 0)"/>
       <use xlink:href="#DejaVuSans-6e" transform="translate(294.287109 0)"/>
       <use xlink:href="#DejaVuSans-65" transform="translate(357.666016 0)"/>
       <use xlink:href="#DejaVuSans-20" transform="translate(419.189453 0)"/>
       <use xlink:href="#DejaVuSans-50" transform="translate(450.976562 0)"/>
       <use xlink:href="#DejaVuSans-72" transform="translate(509.529297 0)"/>
       <use xlink:href="#DejaVuSans-6f" transform="translate(548.392578 0)"/>
       <use xlink:href="#DejaVuSans-74" transform="translate(609.574219 0)"/>
       <use xlink:href="#DejaVuSans-2e" transform="translate(648.783203 0)"/>
      </g>
     </g>
    </g>
    <g id="ytick_3">
     <g id="line2d_15">
      <g>
       <use xlink:href="#mc0239d40ab" x="108.39375" y="364.89092" style="stroke: #000000; stroke-width: 0.8"/>
      </g>
     </g>
     <g id="text_10">
      <!-- Buddhist -->
      <g transform="translate(57.253125 368.690139) scale(0.1 -0.1)">
       <defs>
        <path id="DejaVuSans-42" d="M 1259 2228 
L 1259 519 
L 2272 519 
Q 2781 519 3026 730 
Q 3272 941 3272 1375 
Q 3272 1813 3026 2020 
Q 2781 2228 2272 2228 
L 1259 2228 
z
M 1259 4147 
L 1259 2741 
L 2194 2741 
Q 2656 2741 2882 2914 
Q 3109 3088 3109 3444 
Q 3109 3797 2882 3972 
Q 2656 4147 2194 4147 
L 1259 4147 
z
M 628 4666 
L 2241 4666 
Q 2963 4666 3353 4366 
Q 3744 4066 3744 3513 
Q 3744 3084 3544 2831 
Q 3344 2578 2956 2516 
Q 3422 2416 3680 2098 
Q 3938 1781 3938 1306 
Q 3938 681 3513 340 
Q 3088 0 2303 0 
L 628 0 
L 628 4666 
z
" transform="scale(0.015625)"/>
       </defs>
       <use xlink:href="#DejaVuSans-42"/>
       <use xlink:href="#DejaVuSans-75" transform="translate(68.603516 0)"/>
       <use xlink:href="#DejaVuSans-64" transform="translate(131.982422 0)"/>
       <use xlink:href="#DejaVuSans-64" transform="translate(195.458984 0)"/>
       <use xlink:href="#DejaVuSans-68" transform="translate(258.935547 0)"/>
       <use xlink:href="#DejaVuSans-69" transform="translate(322.314453 0)"/>
       <use xlink:href="#DejaVuSans-73" transform="translate(350.097656 0)"/>
       <use xlink:href="#DejaVuSans-74" transform="translate(402.197266 0)"/>
      </g>
     </g>
    </g>
    <g id="ytick_4">
     <g id="line2d_16">
      <g>
       <use xlink:href="#mc0239d40ab" x="108.39375" y="334.76694" style="stroke: #000000; stroke-width: 0.8"/>
      </g>
     </g>
     <g id="text_11">
      <!-- Nones (2015) -->
      <g transform="translate(33.6625 338.566159) scale(0.1 -0.1)">
       <defs>
        <path id="DejaVuSans-4e" d="M 628 4666 
L 1478 4666 
L 3547 763 
L 3547 4666 
L 4159 4666 
L 4159 0 
L 3309 0 
L 1241 3903 
L 1241 0 
L 628 0 
L 628 4666 
z
" transform="scale(0.015625)"/>
        <path id="DejaVuSans-35" d="M 691 4666 
L 3169 4666 
L 3169 4134 
L 1269 4134 
L 1269 2991 
Q 1406 3038 1543 3061 
Q 1681 3084 1819 3084 
Q 2600 3084 3056 2656 
Q 3513 2228 3513 1497 
Q 3513 744 3044 326 
Q 2575 -91 1722 -91 
Q 1428 -91 1123 -41 
Q 819 9 494 109 
L 494 744 
Q 775 591 1075 516 
Q 1375 441 1709 441 
Q 2250 441 2565 725 
Q 2881 1009 2881 1497 
Q 2881 1984 2565 2268 
Q 2250 2553 1709 2553 
Q 1456 2553 1204 2497 
Q 953 2441 691 2322 
L 691 4666 
z
" transform="scale(0.015625)"/>
       </defs>
       <use xlink:href="#DejaVuSans-4e"/>
       <use xlink:href="#DejaVuSans-6f" transform="translate(74.804688 0)"/>
       <use xlink:href="#DejaVuSans-6e" transform="translate(135.986328 0)"/>
       <use xlink:href="#DejaVuSans-65" transform="translate(199.365234 0)"/>
       <use xlink:href="#DejaVuSans-73" transform="translate(260.888672 0)"/>
       <use xlink:href="#DejaVuSans-20" transform="translate(312.988281 0)"/>
       <use xlink:href="#DejaVuSans-28" transform="translate(344.775391 0)"/>
       <use xlink:href="#DejaVuSans-32" transform="translate(383.789062 0)"/>
       <use xlink:href="#DejaVuSans-30" transform="translate(447.412109 0)"/>
       <use xlink:href="#DejaVuSans-31" transform="translate(511.035156 0)"/>
       <use xlink:href="#DejaVuSans-35" transform="translate(574.658203 0)"/>
       <use xlink:href="#DejaVuSans-29" transform="translate(638.28125 0)"/>
      </g>
     </g>
    </g>
    <g id="ytick_5">
     <g id="line2d_17">
      <g>
       <use xlink:href="#mc0239d40ab" x="108.39375" y="304.64296" style="stroke: #000000; stroke-width: 0.8"/>
      </g>
     </g>
     <g id="text_12">
      <!-- Catholic -->
      <g transform="translate(60.851563 308.442179) scale(0.1 -0.1)">
       <defs>
        <path id="DejaVuSans-43" d="M 4122 4306 
L 4122 3641 
Q 3803 3938 3442 4084 
Q 3081 4231 2675 4231 
Q 1875 4231 1450 3742 
Q 1025 3253 1025 2328 
Q 1025 1406 1450 917 
Q 1875 428 2675 428 
Q 3081 428 3442 575 
Q 3803 722 4122 1019 
L 4122 359 
Q 3791 134 3420 21 
Q 3050 -91 2638 -91 
Q 1578 -91 968 557 
Q 359 1206 359 2328 
Q 359 3453 968 4101 
Q 1578 4750 2638 4750 
Q 3056 4750 3426 4639 
Q 3797 4528 4122 4306 
z
" transform="scale(0.015625)"/>
       </defs>
       <use xlink:href="#DejaVuSans-43"/>
       <use xlink:href="#DejaVuSans-61" transform="translate(69.824219 0)"/>
       <use xlink:href="#DejaVuSans-74" transform="translate(131.103516 0)"/>
       <use xlink:href="#DejaVuSans-68" transform="translate(170.3125 0)"/>
       <use xlink:href="#DejaVuSans-6f" transform="translate(233.691406 0)"/>
       <use xlink:href="#DejaVuSans-6c" transform="translate(294.873047 0)"/>
       <use xlink:href="#DejaVuSans-69" transform="translate(322.65625 0)"/>
       <use xlink:href="#DejaVuSans-63" transform="translate(350.439453 0)"/>
      </g>
     </g>
    </g>
    <g id="ytick_6">
     <g id="line2d_18">
      <g>
       <use xlink:href="#mc0239d40ab" x="108.39375" y="274.51898" style="stroke: #000000; stroke-width: 0.8"/>
      </g>
     </g>
     <g id="text_13">
      <!-- Mormon/LDS -->
      <g transform="translate(37.525 278.318199) scale(0.1 -0.1)">
       <defs>
        <path id="DejaVuSans-2f" d="M 1625 4666 
L 2156 4666 
L 531 -594 
L 0 -594 
L 1625 4666 
z
" transform="scale(0.015625)"/>
        <path id="DejaVuSans-4c" d="M 628 4666 
L 1259 4666 
L 1259 531 
L 3531 531 
L 3531 0 
L 628 0 
L 628 4666 
z
" transform="scale(0.015625)"/>
        <path id="DejaVuSans-44" d="M 1259 4147 
L 1259 519 
L 2022 519 
Q 2988 519 3436 956 
Q 3884 1394 3884 2338 
Q 3884 3275 3436 3711 
Q 2988 4147 2022 4147 
L 1259 4147 
z
M 628 4666 
L 1925 4666 
Q 3281 4666 3915 4102 
Q 4550 3538 4550 2338 
Q 4550 1131 3912 565 
Q 3275 0 1925 0 
L 628 0 
L 628 4666 
z
" transform="scale(0.015625)"/>
        <path id="DejaVuSans-53" d="M 3425 4513 
L 3425 3897 
Q 3066 4069 2747 4153 
Q 2428 4238 2131 4238 
Q 1616 4238 1336 4038 
Q 1056 3838 1056 3469 
Q 1056 3159 1242 3001 
Q 1428 2844 1947 2747 
L 2328 2669 
Q 3034 2534 3370 2195 
Q 3706 1856 3706 1288 
Q 3706 609 3251 259 
Q 2797 -91 1919 -91 
Q 1588 -91 1214 -16 
Q 841 59 441 206 
L 441 856 
Q 825 641 1194 531 
Q 1563 422 1919 422 
Q 2459 422 2753 634 
Q 3047 847 3047 1241 
Q 3047 1584 2836 1778 
Q 2625 1972 2144 2069 
L 1759 2144 
Q 1053 2284 737 2584 
Q 422 2884 422 3419 
Q 422 4038 858 4394 
Q 1294 4750 2059 4750 
Q 2388 4750 2728 4690 
Q 3069 4631 3425 4513 
z
" transform="scale(0.015625)"/>
       </defs>
       <use xlink:href="#DejaVuSans-4d"/>
       <use xlink:href="#DejaVuSans-6f" transform="translate(86.279297 0)"/>
       <use xlink:href="#DejaVuSans-72" transform="translate(147.460938 0)"/>
       <use xlink:href="#DejaVuSans-6d" transform="translate(186.824219 0)"/>
       <use xlink:href="#DejaVuSans-6f" transform="translate(284.236328 0)"/>
       <use xlink:href="#DejaVuSans-6e" transform="translate(345.417969 0)"/>
       <use xlink:href="#DejaVuSans-2f" transform="translate(408.796875 0)"/>
       <use xlink:href="#DejaVuSans-4c" transform="translate(442.488281 0)"/>
       <use xlink:href="#DejaVuSans-44" transform="translate(498.201172 0)"/>
       <use xlink:href="#DejaVuSans-53" transform="translate(575.203125 0)"/>
      </g>
     </g>
    </g>
    <g id="ytick_7">
     <g id="line2d_19">
      <g>
       <use xlink:href="#mc0239d40ab" x="108.39375" y="244.395" style="stroke: #000000; stroke-width: 0.8"/>
      </g>
     </g>
     <g id="text_14">
      <!-- Evangelical Prot. -->
      <g transform="translate(18.092188 248.194219) scale(0.1 -0.1)">
       <defs>
        <path id="DejaVuSans-45" d="M 628 4666 
L 3578 4666 
L 3578 4134 
L 1259 4134 
L 1259 2753 
L 3481 2753 
L 3481 2222 
L 1259 2222 
L 1259 531 
L 3634 531 
L 3634 0 
L 628 0 
L 628 4666 
z
" transform="scale(0.015625)"/>
       </defs>
       <use xlink:href="#DejaVuSans-45"/>
       <use xlink:href="#DejaVuSans-76" transform="translate(63.183594 0)"/>
       <use xlink:href="#DejaVuSans-61" transform="translate(122.363281 0)"/>
       <use xlink:href="#DejaVuSans-6e" transform="translate(183.642578 0)"/>
       <use xlink:href="#DejaVuSans-67" transform="translate(247.021484 0)"/>
       <use xlink:href="#DejaVuSans-65" transform="translate(310.498047 0)"/>
       <use xlink:href="#DejaVuSans-6c" transform="translate(372.021484 0)"/>
       <use xlink:href="#DejaVuSans-69" transform="translate(399.804688 0)"/>
       <use xlink:href="#DejaVuSans-63" transform="translate(427.587891 0)"/>
       <use xlink:href="#DejaVuSans-61" transform="translate(482.568359 0)"/>
       <use xlink:href="#DejaVuSans-6c" transform="translate(543.847656 0)"/>
       <use xlink:href="#DejaVuSans-20" transform="translate(571.630859 0)"/>
       <use xlink:href="#DejaVuSans-50" transform="translate(603.417969 0)"/>
       <use xlink:href="#DejaVuSans-72" transform="translate(661.970703 0)"/>
       <use xlink:href="#DejaVuSans-6f" transform="translate(700.833984 0)"/>
       <use xlink:href="#DejaVuSans-74" transform="translate(762.015625 0)"/>
       <use xlink:href="#DejaVuSans-2e" transform="translate(801.224609 0)"/>
      </g>
     </g>
    </g>
    <g id="ytick_8">
     <g id="line2d_20">
      <g>
       <use xlink:href="#mc0239d40ab" x="108.39375" y="214.27102" style="stroke: #000000; stroke-width: 0.8"/>
      </g>
     </g>
     <g id="text_15">
      <!-- Hist. Black Prot. -->
      <g transform="translate(22.417188 218.070239) scale(0.1 -0.1)">
       <defs>
        <path id="DejaVuSans-48" d="M 628 4666 
L 1259 4666 
L 1259 2753 
L 3553 2753 
L 3553 4666 
L 4184 4666 
L 4184 0 
L 3553 0 
L 3553 2222 
L 1259 2222 
L 1259 0 
L 628 0 
L 628 4666 
z
" transform="scale(0.015625)"/>
        <path id="DejaVuSans-6b" d="M 581 4863 
L 1159 4863 
L 1159 1991 
L 2875 3500 
L 3609 3500 
L 1753 1863 
L 3688 0 
L 2938 0 
L 1159 1709 
L 1159 0 
L 581 0 
L 581 4863 
z
" transform="scale(0.015625)"/>
       </defs>
       <use xlink:href="#DejaVuSans-48"/>
       <use xlink:href="#DejaVuSans-69" transform="translate(75.195312 0)"/>
       <use xlink:href="#DejaVuSans-73" transform="translate(102.978516 0)"/>
       <use xlink:href="#DejaVuSans-74" transform="translate(155.078125 0)"/>
       <use xlink:href="#DejaVuSans-2e" transform="translate(194.287109 0)"/>
       <use xlink:href="#DejaVuSans-20" transform="translate(226.074219 0)"/>
       <use xlink:href="#DejaVuSans-42" transform="translate(257.861328 0)"/>
       <use xlink:href="#DejaVuSans-6c" transform="translate(326.464844 0)"/>
       <use xlink:href="#DejaVuSans-61" transform="translate(354.248047 0)"/>
       <use xlink:href="#DejaVuSans-63" transform="translate(415.527344 0)"/>
       <use xlink:href="#DejaVuSans-6b" transform="translate(470.507812 0)"/>
       <use xlink:href="#DejaVuSans-20" transform="translate(528.417969 0)"/>
       <use xlink:href="#DejaVuSans-50" transform="translate(560.205078 0)"/>
       <use xlink:href="#DejaVuSans-72" transform="translate(618.757812 0)"/>
       <use xlink:href="#DejaVuSans-6f" transform="translate(657.621094 0)"/>
       <use xlink:href="#DejaVuSans-74" transform="translate(718.802734 0)"/>
       <use xlink:href="#DejaVuSans-2e" transform="translate(758.011719 0)"/>
      </g>
     </g>
    </g>
    <g id="ytick_9">
     <g id="line2d_21">
      <g>
       <use xlink:href="#mc0239d40ab" x="108.39375" y="184.14704" style="stroke: #000000; stroke-width: 0.8"/>
      </g>
     </g>
     <g id="text_16">
      <!-- Orthodox Christian -->
      <g transform="translate(7.2 187.946259) scale(0.1 -0.1)">
       <defs>
        <path id="DejaVuSans-4f" d="M 2522 4238 
Q 1834 4238 1429 3725 
Q 1025 3213 1025 2328 
Q 1025 1447 1429 934 
Q 1834 422 2522 422 
Q 3209 422 3611 934 
Q 4013 1447 4013 2328 
Q 4013 3213 3611 3725 
Q 3209 4238 2522 4238 
z
M 2522 4750 
Q 3503 4750 4090 4092 
Q 4678 3434 4678 2328 
Q 4678 1225 4090 567 
Q 3503 -91 2522 -91 
Q 1538 -91 948 565 
Q 359 1222 359 2328 
Q 359 3434 948 4092 
Q 1538 4750 2522 4750 
z
" transform="scale(0.015625)"/>
        <path id="DejaVuSans-78" d="M 3513 3500 
L 2247 1797 
L 3578 0 
L 2900 0 
L 1881 1375 
L 863 0 
L 184 0 
L 1544 1831 
L 300 3500 
L 978 3500 
L 1906 2253 
L 2834 3500 
L 3513 3500 
z
" transform="scale(0.015625)"/>
       </defs>
       <use xlink:href="#DejaVuSans-4f"/>
       <use xlink:href="#DejaVuSans-72" transform="translate(78.710938 0)"/>
       <use xlink:href="#DejaVuSans-74" transform="translate(119.824219 0)"/>
       <use xlink:href="#DejaVuSans-68" transform="translate(159.033203 0)"/>
       <use xlink:href="#DejaVuSans-6f" transform="translate(222.412109 0)"/>
       <use xlink:href="#DejaVuSans-64" transform="translate(283.59375 0)"/>
       <use xlink:href="#DejaVuSans-6f" transform="translate(347.070312 0)"/>
       <use xlink:href="#DejaVuSans-78" transform="translate(405.126953 0)"/>
       <use xlink:href="#DejaVuSans-20" transform="translate(464.306641 0)"/>
       <use xlink:href="#DejaVuSans-43" transform="translate(496.09375 0)"/>
       <use xlink:href="#DejaVuSans-68" transform="translate(565.917969 0)"/>
       <use xlink:href="#DejaVuSans-72" transform="translate(629.296875 0)"/>
       <use xlink:href="#DejaVuSans-69" transform="translate(670.410156 0)"/>
       <use xlink:href="#DejaVuSans-73" transform="translate(698.193359 0)"/>
       <use xlink:href="#DejaVuSans-74" transform="translate(750.292969 0)"/>
       <use xlink:href="#DejaVuSans-69" transform="translate(789.501953 0)"/>
       <use xlink:href="#DejaVuSans-61" transform="translate(817.285156 0)"/>
       <use xlink:href="#DejaVuSans-6e" transform="translate(878.564453 0)"/>
      </g>
     </g>
    </g>
    <g id="ytick_10">
     <g id="line2d_22">
      <g>
       <use xlink:href="#mc0239d40ab" x="108.39375" y="154.02306" style="stroke: #000000; stroke-width: 0.8"/>
      </g>
     </g>
     <g id="text_17">
      <!-- Nones (2023-24) -->
      <g transform="translate(17.329688 157.822279) scale(0.1 -0.1)">
       <defs>
        <path id="DejaVuSans-2d" d="M 313 2009 
L 1997 2009 
L 1997 1497 
L 313 1497 
L 313 2009 
z
" transform="scale(0.015625)"/>
       </defs>
       <use xlink:href="#DejaVuSans-4e"/>
       <use xlink:href="#DejaVuSans-6f" transform="translate(74.804688 0)"/>
       <use xlink:href="#DejaVuSans-6e" transform="translate(135.986328 0)"/>
       <use xlink:href="#DejaVuSans-65" transform="translate(199.365234 0)"/>
       <use xlink:href="#DejaVuSans-73" transform="translate(260.888672 0)"/>
       <use xlink:href="#DejaVuSans-20" transform="translate(312.988281 0)"/>
       <use xlink:href="#DejaVuSans-28" transform="translate(344.775391 0)"/>
       <use xlink:href="#DejaVuSans-32" transform="translate(383.789062 0)"/>
       <use xlink:href="#DejaVuSans-30" transform="translate(447.412109 0)"/>
       <use xlink:href="#DejaVuSans-32" transform="translate(511.035156 0)"/>
       <use xlink:href="#DejaVuSans-33" transform="translate(574.658203 0)"/>
       <use xlink:href="#DejaVuSans-2d" transform="translate(638.28125 0)"/>
       <use xlink:href="#DejaVuSans-32" transform="translate(674.365234 0)"/>
       <use xlink:href="#DejaVuSans-34" transform="translate(737.988281 0)"/>
       <use xlink:href="#DejaVuSans-29" transform="translate(801.611328 0)"/>
      </g>
     </g>
    </g>
    <g id="ytick_11">
     <g id="line2d_23">
      <g>
       <use xlink:href="#mc0239d40ab" x="108.39375" y="123.89908" style="stroke: #000000; stroke-width: 0.8"/>
      </g>
     </g>
     <g id="text_18">
      <!-- Jewish -->
      <g transform="translate(69.7875 127.698299) scale(0.1 -0.1)">
       <use xlink:href="#DejaVuSans-4a"/>
       <use xlink:href="#DejaVuSans-65" transform="translate(29.492188 0)"/>
       <use xlink:href="#DejaVuSans-77" transform="translate(91.015625 0)"/>
       <use xlink:href="#DejaVuSans-69" transform="translate(172.802734 0)"/>
       <use xlink:href="#DejaVuSans-73" transform="translate(200.585938 0)"/>
       <use xlink:href="#DejaVuSans-68" transform="translate(252.685547 0)"/>
      </g>
     </g>
    </g>
    <g id="ytick_12">
     <g id="line2d_24">
      <g>
       <use xlink:href="#mc0239d40ab" x="108.39375" y="93.7751" style="stroke: #000000; stroke-width: 0.8"/>
      </g>
     </g>
     <g id="text_19">
      <!-- Muslim -->
      <g transform="translate(65.921875 97.574319) scale(0.1 -0.1)">
       <use xlink:href="#DejaVuSans-4d"/>
       <use xlink:href="#DejaVuSans-75" transform="translate(86.279297 0)"/>
       <use xlink:href="#DejaVuSans-73" transform="translate(149.658203 0)"/>
       <use xlink:href="#DejaVuSans-6c" transform="translate(201.757812 0)"/>
       <use xlink:href="#DejaVuSans-69" transform="translate(229.541016 0)"/>
       <use xlink:href="#DejaVuSans-6d" transform="translate(257.324219 0)"/>
      </g>
     </g>
    </g>
    <g id="ytick_13">
     <g id="line2d_25">
      <g>
       <use xlink:href="#mc0239d40ab" x="108.39375" y="63.65112" style="stroke: #000000; stroke-width: 0.8"/>
      </g>
     </g>
     <g id="text_20">
      <!-- Hindu -->
      <g transform="translate(72.071875 67.450339) scale(0.1 -0.1)">
       <use xlink:href="#DejaVuSans-48"/>
       <use xlink:href="#DejaVuSans-69" transform="translate(75.195312 0)"/>
       <use xlink:href="#DejaVuSans-6e" transform="translate(102.978516 0)"/>
       <use xlink:href="#DejaVuSans-64" transform="translate(166.357422 0)"/>
       <use xlink:href="#DejaVuSans-75" transform="translate(229.833984 0)"/>
      </g>
     </g>
    </g>
   </g>
   <g id="line2d_26">
    <path d="M 301.202477 454.811 
L 301.202477 33.979 
" clip-path="url(#p77ecd89dde)" style="fill: none; stroke-dasharray: 3.7,1.6; stroke-dashoffset: 0; stroke: #e74c3c; stroke-opacity: 0.6"/>
   </g>
   <g id="line2d_27">
    <path d="M 277.101386 454.811 
L 277.101386 33.979 
" clip-path="url(#p77ecd89dde)" style="fill: none; stroke-dasharray: 3.7,1.6; stroke-dashoffset: 0; stroke: #e74c3c; stroke-opacity: 0.6"/>
   </g>
   <g id="patch_17">
    <path d="M 108.39375 454.811 
L 108.39375 33.979 
" style="fill: none; stroke: #000000; stroke-width: 0.8; stroke-linejoin: miter; stroke-linecap: square"/>
   </g>
   <g id="patch_18">
    <path d="M 771.17375 454.811 
L 771.17375 33.979 
" style="fill: none; stroke: #000000; stroke-width: 0.8; stroke-linejoin: miter; stroke-linecap: square"/>
   </g>
   <g id="patch_19">
    <path d="M 108.39375 454.811 
L 771.17375 454.811 
" style="fill: none; stroke: #000000; stroke-width: 0.8; stroke-linejoin: miter; stroke-linecap: square"/>
   </g>
   <g id="patch_20">
    <path d="M 108.39375 33.979 
L 771.17375 33.979 
" style="fill: none; stroke: #000000; stroke-width: 0.8; stroke-linejoin: miter; stroke-linecap: square"/>
   </g>
   <g id="text_21">
    <!-- Pe=-8.9  (θ*=37%) -->
    <g transform="translate(95.546163 427.484348) scale(0.085 -0.085)">
     <defs>
      <path id="DejaVuSans-38" d="M 2034 2216 
Q 1584 2216 1326 1975 
Q 1069 1734 1069 1313 
Q 1069 891 1326 650 
Q 1584 409 2034 409 
Q 2484 409 2743 651 
Q 3003 894 3003 1313 
Q 3003 1734 2745 1975 
Q 2488 2216 2034 2216 
z
M 1403 2484 
Q 997 2584 770 2862 
Q 544 3141 544 3541 
Q 544 4100 942 4425 
Q 1341 4750 2034 4750 
Q 2731 4750 3128 4425 
Q 3525 4100 3525 3541 
Q 3525 3141 3298 2862 
Q 3072 2584 2669 2484 
Q 3125 2378 3379 2068 
Q 3634 1759 3634 1313 
Q 3634 634 3220 271 
Q 2806 -91 2034 -91 
Q 1263 -91 848 271 
Q 434 634 434 1313 
Q 434 1759 690 2068 
Q 947 2378 1403 2484 
z
M 1172 3481 
Q 1172 3119 1398 2916 
Q 1625 2713 2034 2713 
Q 2441 2713 2670 2916 
Q 2900 3119 2900 3481 
Q 2900 3844 2670 4047 
Q 2441 4250 2034 4250 
Q 1625 4250 1398 4047 
Q 1172 3844 1172 3481 
z
" transform="scale(0.015625)"/>
      <path id="DejaVuSans-39" d="M 703 97 
L 703 672 
Q 941 559 1184 500 
Q 1428 441 1663 441 
Q 2288 441 2617 861 
Q 2947 1281 2994 2138 
Q 2813 1869 2534 1725 
Q 2256 1581 1919 1581 
Q 1219 1581 811 2004 
Q 403 2428 403 3163 
Q 403 3881 828 4315 
Q 1253 4750 1959 4750 
Q 2769 4750 3195 4129 
Q 3622 3509 3622 2328 
Q 3622 1225 3098 567 
Q 2575 -91 1691 -91 
Q 1453 -91 1209 -44 
Q 966 3 703 97 
z
M 1959 2075 
Q 2384 2075 2632 2365 
Q 2881 2656 2881 3163 
Q 2881 3666 2632 3958 
Q 2384 4250 1959 4250 
Q 1534 4250 1286 3958 
Q 1038 3666 1038 3163 
Q 1038 2656 1286 2365 
Q 1534 2075 1959 2075 
z
" transform="scale(0.015625)"/>
      <path id="DejaVuSans-3b8" d="M 2953 2219 
L 963 2219 
Q 1009 1284 1225 888 
Q 1494 400 1959 400 
Q 2428 400 2688 891 
Q 2916 1322 2953 2219 
z
M 2944 2750 
Q 2856 3638 2688 3950 
Q 2419 4444 1959 4444 
Q 1481 4444 1228 3956 
Q 1028 3563 969 2750 
L 2944 2750 
z
M 1959 4913 
Q 2709 4913 3138 4250 
Q 3566 3591 3566 2422 
Q 3566 1256 3138 594 
Q 2709 -72 1959 -72 
Q 1206 -72 781 594 
Q 353 1256 353 2422 
Q 353 3591 781 4250 
Q 1206 4913 1959 4913 
z
" transform="scale(0.015625)"/>
      <path id="DejaVuSans-2a" d="M 3009 3897 
L 1888 3291 
L 3009 2681 
L 2828 2375 
L 1778 3009 
L 1778 1831 
L 1422 1831 
L 1422 3009 
L 372 2375 
L 191 2681 
L 1313 3291 
L 191 3897 
L 372 4206 
L 1422 3572 
L 1422 4750 
L 1778 4750 
L 1778 3572 
L 2828 4206 
L 3009 3897 
z
" transform="scale(0.015625)"/>
      <path id="DejaVuSans-37" d="M 525 4666 
L 3525 4666 
L 3525 4397 
L 1831 0 
L 1172 0 
L 2766 4134 
L 525 4134 
L 525 4666 
z
" transform="scale(0.015625)"/>
      <path id="DejaVuSans-25" d="M 4653 2053 
Q 4381 2053 4226 1822 
Q 4072 1591 4072 1178 
Q 4072 772 4226 539 
Q 4381 306 4653 306 
Q 4919 306 5073 539 
Q 5228 772 5228 1178 
Q 5228 1588 5073 1820 
Q 4919 2053 4653 2053 
z
M 4653 2450 
Q 5147 2450 5437 2106 
Q 5728 1763 5728 1178 
Q 5728 594 5436 251 
Q 5144 -91 4653 -91 
Q 4153 -91 3862 251 
Q 3572 594 3572 1178 
Q 3572 1766 3864 2108 
Q 4156 2450 4653 2450 
z
M 1428 4353 
Q 1159 4353 1004 4120 
Q 850 3888 850 3481 
Q 850 3069 1003 2837 
Q 1156 2606 1428 2606 
Q 1700 2606 1854 2837 
Q 2009 3069 2009 3481 
Q 2009 3884 1853 4118 
Q 1697 4353 1428 4353 
z
M 4250 4750 
L 4750 4750 
L 1831 -91 
L 1331 -91 
L 4250 4750 
z
M 1428 4750 
Q 1922 4750 2215 4408 
Q 2509 4066 2509 3481 
Q 2509 2891 2217 2550 
Q 1925 2209 1428 2209 
Q 931 2209 642 2551 
Q 353 2894 353 3481 
Q 353 4063 643 4406 
Q 934 4750 1428 4750 
z
" transform="scale(0.015625)"/>
     </defs>
     <use xlink:href="#DejaVuSans-50"/>
     <use xlink:href="#DejaVuSans-65" transform="translate(56.677734 0)"/>
     <use xlink:href="#DejaVuSans-3d" transform="translate(118.201172 0)"/>
     <use xlink:href="#DejaVuSans-2d" transform="translate(201.990234 0)"/>
     <use xlink:href="#DejaVuSans-38" transform="translate(238.074219 0)"/>
     <use xlink:href="#DejaVuSans-2e" transform="translate(301.697266 0)"/>
     <use xlink:href="#DejaVuSans-39" transform="translate(333.484375 0)"/>
     <use xlink:href="#DejaVuSans-20" transform="translate(397.107422 0)"/>
     <use xlink:href="#DejaVuSans-20" transform="translate(428.894531 0)"/>
     <use xlink:href="#DejaVuSans-28" transform="translate(460.681641 0)"/>
     <use xlink:href="#DejaVuSans-3b8" transform="translate(499.695312 0)"/>
     <use xlink:href="#DejaVuSans-2a" transform="translate(560.876953 0)"/>
     <use xlink:href="#DejaVuSans-3d" transform="translate(610.876953 0)"/>
     <use xlink:href="#DejaVuSans-33" transform="translate(694.666016 0)"/>
     <use xlink:href="#DejaVuSans-37" transform="translate(758.289062 0)"/>
     <use xlink:href="#DejaVuSans-25" transform="translate(821.912109 0)"/>
     <use xlink:href="#DejaVuSans-29" transform="translate(916.931641 0)"/>
    </g>
   </g>
   <g id="text_22">
    <!-- Pe=-3.2  (θ*=45%) -->
    <g transform="translate(164.12444 397.360369) scale(0.085 -0.085)">
     <use xlink:href="#DejaVuSans-50"/>
     <use xlink:href="#DejaVuSans-65" transform="translate(56.677734 0)"/>
     <use xlink:href="#DejaVuSans-3d" transform="translate(118.201172 0)"/>
     <use xlink:href="#DejaVuSans-2d" transform="translate(201.990234 0)"/>
     <use xlink:href="#DejaVuSans-33" transform="translate(238.074219 0)"/>
     <use xlink:href="#DejaVuSans-2e" transform="translate(301.697266 0)"/>
     <use xlink:href="#DejaVuSans-32" transform="translate(333.484375 0)"/>
     <use xlink:href="#DejaVuSans-20" transform="translate(397.107422 0)"/>
     <use xlink:href="#DejaVuSans-20" transform="translate(428.894531 0)"/>
     <use xlink:href="#DejaVuSans-28" transform="translate(460.681641 0)"/>
     <use xlink:href="#DejaVuSans-3b8" transform="translate(499.695312 0)"/>
     <use xlink:href="#DejaVuSans-2a" transform="translate(560.876953 0)"/>
     <use xlink:href="#DejaVuSans-3d" transform="translate(610.876953 0)"/>
     <use xlink:href="#DejaVuSans-34" transform="translate(694.666016 0)"/>
     <use xlink:href="#DejaVuSans-35" transform="translate(758.289062 0)"/>
     <use xlink:href="#DejaVuSans-25" transform="translate(821.912109 0)"/>
     <use xlink:href="#DejaVuSans-29" transform="translate(916.931641 0)"/>
    </g>
   </g>
   <g id="text_23">
    <!-- Pe=+0.0  (θ*=50%) -->
    <g transform="translate(293.97215 367.236389) scale(0.085 -0.085)">
     <use xlink:href="#DejaVuSans-50"/>
     <use xlink:href="#DejaVuSans-65" transform="translate(56.677734 0)"/>
     <use xlink:href="#DejaVuSans-3d" transform="translate(118.201172 0)"/>
     <use xlink:href="#DejaVuSans-2b" transform="translate(201.990234 0)"/>
     <use xlink:href="#DejaVuSans-30" transform="translate(285.779297 0)"/>
     <use xlink:href="#DejaVuSans-2e" transform="translate(349.402344 0)"/>
     <use xlink:href="#DejaVuSans-30" transform="translate(381.189453 0)"/>
     <use xlink:href="#DejaVuSans-20" transform="translate(444.8125 0)"/>
     <use xlink:href="#DejaVuSans-20" transform="translate(476.599609 0)"/>
     <use xlink:href="#DejaVuSans-28" transform="translate(508.386719 0)"/>
     <use xlink:href="#DejaVuSans-3b8" transform="translate(547.400391 0)"/>
     <use xlink:href="#DejaVuSans-2a" transform="translate(608.582031 0)"/>
     <use xlink:href="#DejaVuSans-3d" transform="translate(658.582031 0)"/>
     <use xlink:href="#DejaVuSans-35" transform="translate(742.371094 0)"/>
     <use xlink:href="#DejaVuSans-30" transform="translate(805.994141 0)"/>
     <use xlink:href="#DejaVuSans-25" transform="translate(869.617188 0)"/>
     <use xlink:href="#DejaVuSans-29" transform="translate(964.636719 0)"/>
    </g>
   </g>
   <g id="text_24">
    <!-- Pe=+1.9  (θ*=53%) -->
    <g transform="translate(317.192792 337.112409) scale(0.085 -0.085)">
     <use xlink:href="#DejaVuSans-50"/>
     <use xlink:href="#DejaVuSans-65" transform="translate(56.677734 0)"/>
     <use xlink:href="#DejaVuSans-3d" transform="translate(118.201172 0)"/>
     <use xlink:href="#DejaVuSans-2b" transform="translate(201.990234 0)"/>
     <use xlink:href="#DejaVuSans-31" transform="translate(285.779297 0)"/>
     <use xlink:href="#DejaVuSans-2e" transform="translate(349.402344 0)"/>
     <use xlink:href="#DejaVuSans-39" transform="translate(381.189453 0)"/>
     <use xlink:href="#DejaVuSans-20" transform="translate(444.8125 0)"/>
     <use xlink:href="#DejaVuSans-20" transform="translate(476.599609 0)"/>
     <use xlink:href="#DejaVuSans-28" transform="translate(508.386719 0)"/>
     <use xlink:href="#DejaVuSans-3b8" transform="translate(547.400391 0)"/>
     <use xlink:href="#DejaVuSans-2a" transform="translate(608.582031 0)"/>
     <use xlink:href="#DejaVuSans-3d" transform="translate(658.582031 0)"/>
     <use xlink:href="#DejaVuSans-35" transform="translate(742.371094 0)"/>
     <use xlink:href="#DejaVuSans-33" transform="translate(805.994141 0)"/>
     <use xlink:href="#DejaVuSans-25" transform="translate(869.617188 0)"/>
     <use xlink:href="#DejaVuSans-29" transform="translate(964.636719 0)"/>
    </g>
   </g>
   <g id="text_25">
    <!-- Pe=+6.0  (θ*=59%) -->
    <g transform="translate(365.707518 306.988429) scale(0.085 -0.085)">
     <defs>
      <path id="DejaVuSans-36" d="M 2113 2584 
Q 1688 2584 1439 2293 
Q 1191 2003 1191 1497 
Q 1191 994 1439 701 
Q 1688 409 2113 409 
Q 2538 409 2786 701 
Q 3034 994 3034 1497 
Q 3034 2003 2786 2293 
Q 2538 2584 2113 2584 
z
M 3366 4563 
L 3366 3988 
Q 3128 4100 2886 4159 
Q 2644 4219 2406 4219 
Q 1781 4219 1451 3797 
Q 1122 3375 1075 2522 
Q 1259 2794 1537 2939 
Q 1816 3084 2150 3084 
Q 2853 3084 3261 2657 
Q 3669 2231 3669 1497 
Q 3669 778 3244 343 
Q 2819 -91 2113 -91 
Q 1303 -91 875 529 
Q 447 1150 447 2328 
Q 447 3434 972 4092 
Q 1497 4750 2381 4750 
Q 2619 4750 2861 4703 
Q 3103 4656 3366 4563 
z
" transform="scale(0.015625)"/>
     </defs>
     <use xlink:href="#DejaVuSans-50"/>
     <use xlink:href="#DejaVuSans-65" transform="translate(56.677734 0)"/>
     <use xlink:href="#DejaVuSans-3d" transform="translate(118.201172 0)"/>
     <use xlink:href="#DejaVuSans-2b" transform="translate(201.990234 0)"/>
     <use xlink:href="#DejaVuSans-36" transform="translate(285.779297 0)"/>
     <use xlink:href="#DejaVuSans-2e" transform="translate(349.402344 0)"/>
     <use xlink:href="#DejaVuSans-30" transform="translate(381.189453 0)"/>
     <use xlink:href="#DejaVuSans-20" transform="translate(444.8125 0)"/>
     <use xlink:href="#DejaVuSans-20" transform="translate(476.599609 0)"/>
     <use xlink:href="#DejaVuSans-28" transform="translate(508.386719 0)"/>
     <use xlink:href="#DejaVuSans-3b8" transform="translate(547.400391 0)"/>
     <use xlink:href="#DejaVuSans-2a" transform="translate(608.582031 0)"/>
     <use xlink:href="#DejaVuSans-3d" transform="translate(658.582031 0)"/>
     <use xlink:href="#DejaVuSans-35" transform="translate(742.371094 0)"/>
     <use xlink:href="#DejaVuSans-39" transform="translate(805.994141 0)"/>
     <use xlink:href="#DejaVuSans-25" transform="translate(869.617188 0)"/>
     <use xlink:href="#DejaVuSans-29" transform="translate(964.636719 0)"/>
    </g>
   </g>
   <g id="text_26">
    <!-- Pe=+9.7  (θ*=64%) -->
    <g transform="translate(411.130231 276.864449) scale(0.085 -0.085)">
     <use xlink:href="#DejaVuSans-50"/>
     <use xlink:href="#DejaVuSans-65" transform="translate(56.677734 0)"/>
     <use xlink:href="#DejaVuSans-3d" transform="translate(118.201172 0)"/>
     <use xlink:href="#DejaVuSans-2b" transform="translate(201.990234 0)"/>
     <use xlink:href="#DejaVuSans-39" transform="translate(285.779297 0)"/>
     <use xlink:href="#DejaVuSans-2e" transform="translate(349.402344 0)"/>
     <use xlink:href="#DejaVuSans-37" transform="translate(381.189453 0)"/>
     <use xlink:href="#DejaVuSans-20" transform="translate(444.8125 0)"/>
     <use xlink:href="#DejaVuSans-20" transform="translate(476.599609 0)"/>
     <use xlink:href="#DejaVuSans-28" transform="translate(508.386719 0)"/>
     <use xlink:href="#DejaVuSans-3b8" transform="translate(547.400391 0)"/>
     <use xlink:href="#DejaVuSans-2a" transform="translate(608.582031 0)"/>
     <use xlink:href="#DejaVuSans-3d" transform="translate(658.582031 0)"/>
     <use xlink:href="#DejaVuSans-36" transform="translate(742.371094 0)"/>
     <use xlink:href="#DejaVuSans-34" transform="translate(805.994141 0)"/>
     <use xlink:href="#DejaVuSans-25" transform="translate(869.617188 0)"/>
     <use xlink:href="#DejaVuSans-29" transform="translate(964.636719 0)"/>
    </g>
   </g>
   <g id="text_27">
    <!-- Pe=+10.5  (θ*=65%) -->
    <g transform="translate(421.098783 246.740469) scale(0.085 -0.085)">
     <use xlink:href="#DejaVuSans-50"/>
     <use xlink:href="#DejaVuSans-65" transform="translate(56.677734 0)"/>
     <use xlink:href="#DejaVuSans-3d" transform="translate(118.201172 0)"/>
     <use xlink:href="#DejaVuSans-2b" transform="translate(201.990234 0)"/>
     <use xlink:href="#DejaVuSans-31" transform="translate(285.779297 0)"/>
     <use xlink:href="#DejaVuSans-30" transform="translate(349.402344 0)"/>
     <use xlink:href="#DejaVuSans-2e" transform="translate(413.025391 0)"/>
     <use xlink:href="#DejaVuSans-35" transform="translate(444.8125 0)"/>
     <use xlink:href="#DejaVuSans-20" transform="translate(508.435547 0)"/>
     <use xlink:href="#DejaVuSans-20" transform="translate(540.222656 0)"/>
     <use xlink:href="#DejaVuSans-28" transform="translate(572.009766 0)"/>
     <use xlink:href="#DejaVuSans-3b8" transform="translate(611.023438 0)"/>
     <use xlink:href="#DejaVuSans-2a" transform="translate(672.205078 0)"/>
     <use xlink:href="#DejaVuSans-3d" transform="translate(722.205078 0)"/>
     <use xlink:href="#DejaVuSans-36" transform="translate(805.994141 0)"/>
     <use xlink:href="#DejaVuSans-35" transform="translate(869.617188 0)"/>
     <use xlink:href="#DejaVuSans-25" transform="translate(933.240234 0)"/>
     <use xlink:href="#DejaVuSans-29" transform="translate(1028.259766 0)"/>
    </g>
   </g>
   <g id="text_28">
    <!-- Pe=+15.2  (θ*=70%) -->
    <g transform="translate(477.599509 216.616489) scale(0.085 -0.085)">
     <use xlink:href="#DejaVuSans-50"/>
     <use xlink:href="#DejaVuSans-65" transform="translate(56.677734 0)"/>
     <use xlink:href="#DejaVuSans-3d" transform="translate(118.201172 0)"/>
     <use xlink:href="#DejaVuSans-2b" transform="translate(201.990234 0)"/>
     <use xlink:href="#DejaVuSans-31" transform="translate(285.779297 0)"/>
     <use xlink:href="#DejaVuSans-35" transform="translate(349.402344 0)"/>
     <use xlink:href="#DejaVuSans-2e" transform="translate(413.025391 0)"/>
     <use xlink:href="#DejaVuSans-32" transform="translate(444.8125 0)"/>
     <use xlink:href="#DejaVuSans-20" transform="translate(508.435547 0)"/>
     <use xlink:href="#DejaVuSans-20" transform="translate(540.222656 0)"/>
     <use xlink:href="#DejaVuSans-28" transform="translate(572.009766 0)"/>
     <use xlink:href="#DejaVuSans-3b8" transform="translate(611.023438 0)"/>
     <use xlink:href="#DejaVuSans-2a" transform="translate(672.205078 0)"/>
     <use xlink:href="#DejaVuSans-3d" transform="translate(722.205078 0)"/>
     <use xlink:href="#DejaVuSans-37" transform="translate(805.994141 0)"/>
     <use xlink:href="#DejaVuSans-30" transform="translate(869.617188 0)"/>
     <use xlink:href="#DejaVuSans-25" transform="translate(933.240234 0)"/>
     <use xlink:href="#DejaVuSans-29" transform="translate(1028.259766 0)"/>
    </g>
   </g>
   <g id="text_29">
    <!-- Pe=+18.7  (θ*=73%) -->
    <g transform="translate(518.964577 186.492509) scale(0.085 -0.085)">
     <use xlink:href="#DejaVuSans-50"/>
     <use xlink:href="#DejaVuSans-65" transform="translate(56.677734 0)"/>
     <use xlink:href="#DejaVuSans-3d" transform="translate(118.201172 0)"/>
     <use xlink:href="#DejaVuSans-2b" transform="translate(201.990234 0)"/>
     <use xlink:href="#DejaVuSans-31" transform="translate(285.779297 0)"/>
     <use xlink:href="#DejaVuSans-38" transform="translate(349.402344 0)"/>
     <use xlink:href="#DejaVuSans-2e" transform="translate(413.025391 0)"/>
     <use xlink:href="#DejaVuSans-37" transform="translate(444.8125 0)"/>
     <use xlink:href="#DejaVuSans-20" transform="translate(508.435547 0)"/>
     <use xlink:href="#DejaVuSans-20" transform="translate(540.222656 0)"/>
     <use xlink:href="#DejaVuSans-28" transform="translate(572.009766 0)"/>
     <use xlink:href="#DejaVuSans-3b8" transform="translate(611.023438 0)"/>
     <use xlink:href="#DejaVuSans-2a" transform="translate(672.205078 0)"/>
     <use xlink:href="#DejaVuSans-3d" transform="translate(722.205078 0)"/>
     <use xlink:href="#DejaVuSans-37" transform="translate(805.994141 0)"/>
     <use xlink:href="#DejaVuSans-33" transform="translate(869.617188 0)"/>
     <use xlink:href="#DejaVuSans-25" transform="translate(933.240234 0)"/>
     <use xlink:href="#DejaVuSans-29" transform="translate(1028.259766 0)"/>
    </g>
   </g>
   <g id="text_30">
    <!-- Pe=+18.7  (θ*=73%) -->
    <g transform="translate(518.964577 156.368529) scale(0.085 -0.085)">
     <use xlink:href="#DejaVuSans-50"/>
     <use xlink:href="#DejaVuSans-65" transform="translate(56.677734 0)"/>
     <use xlink:href="#DejaVuSans-3d" transform="translate(118.201172 0)"/>
     <use xlink:href="#DejaVuSans-2b" transform="translate(201.990234 0)"/>
     <use xlink:href="#DejaVuSans-31" transform="translate(285.779297 0)"/>
     <use xlink:href="#DejaVuSans-38" transform="translate(349.402344 0)"/>
     <use xlink:href="#DejaVuSans-2e" transform="translate(413.025391 0)"/>
     <use xlink:href="#DejaVuSans-37" transform="translate(444.8125 0)"/>
     <use xlink:href="#DejaVuSans-20" transform="translate(508.435547 0)"/>
     <use xlink:href="#DejaVuSans-20" transform="translate(540.222656 0)"/>
     <use xlink:href="#DejaVuSans-28" transform="translate(572.009766 0)"/>
     <use xlink:href="#DejaVuSans-3b8" transform="translate(611.023438 0)"/>
     <use xlink:href="#DejaVuSans-2a" transform="translate(672.205078 0)"/>
     <use xlink:href="#DejaVuSans-3d" transform="translate(722.205078 0)"/>
     <use xlink:href="#DejaVuSans-37" transform="translate(805.994141 0)"/>
     <use xlink:href="#DejaVuSans-33" transform="translate(869.617188 0)"/>
     <use xlink:href="#DejaVuSans-25" transform="translate(933.240234 0)"/>
     <use xlink:href="#DejaVuSans-29" transform="translate(1028.259766 0)"/>
    </g>
   </g>
   <g id="text_31">
    <!-- Pe=+21.3  (θ*=75%) -->
    <g transform="translate(551.050453 126.244549) scale(0.085 -0.085)">
     <use xlink:href="#DejaVuSans-50"/>
     <use xlink:href="#DejaVuSans-65" transform="translate(56.677734 0)"/>
     <use xlink:href="#DejaVuSans-3d" transform="translate(118.201172 0)"/>
     <use xlink:href="#DejaVuSans-2b" transform="translate(201.990234 0)"/>
     <use xlink:href="#DejaVuSans-32" transform="translate(285.779297 0)"/>
     <use xlink:href="#DejaVuSans-31" transform="translate(349.402344 0)"/>
     <use xlink:href="#DejaVuSans-2e" transform="translate(413.025391 0)"/>
     <use xlink:href="#DejaVuSans-33" transform="translate(444.8125 0)"/>
     <use xlink:href="#DejaVuSans-20" transform="translate(508.435547 0)"/>
     <use xlink:href="#DejaVuSans-20" transform="translate(540.222656 0)"/>
     <use xlink:href="#DejaVuSans-28" transform="translate(572.009766 0)"/>
     <use xlink:href="#DejaVuSans-3b8" transform="translate(611.023438 0)"/>
     <use xlink:href="#DejaVuSans-2a" transform="translate(672.205078 0)"/>
     <use xlink:href="#DejaVuSans-3d" transform="translate(722.205078 0)"/>
     <use xlink:href="#DejaVuSans-37" transform="translate(805.994141 0)"/>
     <use xlink:href="#DejaVuSans-35" transform="translate(869.617188 0)"/>
     <use xlink:href="#DejaVuSans-25" transform="translate(933.240234 0)"/>
     <use xlink:href="#DejaVuSans-29" transform="translate(1028.259766 0)"/>
    </g>
   </g>
   <g id="text_32">
    <!-- Pe=+24.4  (θ*=77%) -->
    <g transform="translate(587.921085 96.120569) scale(0.085 -0.085)">
     <use xlink:href="#DejaVuSans-50"/>
     <use xlink:href="#DejaVuSans-65" transform="translate(56.677734 0)"/>
     <use xlink:href="#DejaVuSans-3d" transform="translate(118.201172 0)"/>
     <use xlink:href="#DejaVuSans-2b" transform="translate(201.990234 0)"/>
     <use xlink:href="#DejaVuSans-32" transform="translate(285.779297 0)"/>
     <use xlink:href="#DejaVuSans-34" transform="translate(349.402344 0)"/>
     <use xlink:href="#DejaVuSans-2e" transform="translate(413.025391 0)"/>
     <use xlink:href="#DejaVuSans-34" transform="translate(444.8125 0)"/>
     <use xlink:href="#DejaVuSans-20" transform="translate(508.435547 0)"/>
     <use xlink:href="#DejaVuSans-20" transform="translate(540.222656 0)"/>
     <use xlink:href="#DejaVuSans-28" transform="translate(572.009766 0)"/>
     <use xlink:href="#DejaVuSans-3b8" transform="translate(611.023438 0)"/>
     <use xlink:href="#DejaVuSans-2a" transform="translate(672.205078 0)"/>
     <use xlink:href="#DejaVuSans-3d" transform="translate(722.205078 0)"/>
     <use xlink:href="#DejaVuSans-37" transform="translate(805.994141 0)"/>
     <use xlink:href="#DejaVuSans-37" transform="translate(869.617188 0)"/>
     <use xlink:href="#DejaVuSans-25" transform="translate(933.240234 0)"/>
     <use xlink:href="#DejaVuSans-29" transform="translate(1028.259766 0)"/>
    </g>
   </g>
   <g id="text_33">
    <!-- Pe=+30.0  (θ*=80%) -->
    <g transform="translate(655.488514 65.996589) scale(0.085 -0.085)">
     <use xlink:href="#DejaVuSans-50"/>
     <use xlink:href="#DejaVuSans-65" transform="translate(56.677734 0)"/>
     <use xlink:href="#DejaVuSans-3d" transform="translate(118.201172 0)"/>
     <use xlink:href="#DejaVuSans-2b" transform="translate(201.990234 0)"/>
     <use xlink:href="#DejaVuSans-33" transform="translate(285.779297 0)"/>
     <use xlink:href="#DejaVuSans-30" transform="translate(349.402344 0)"/>
     <use xlink:href="#DejaVuSans-2e" transform="translate(413.025391 0)"/>
     <use xlink:href="#DejaVuSans-30" transform="translate(444.8125 0)"/>
     <use xlink:href="#DejaVuSans-20" transform="translate(508.435547 0)"/>
     <use xlink:href="#DejaVuSans-20" transform="translate(540.222656 0)"/>
     <use xlink:href="#DejaVuSans-28" transform="translate(572.009766 0)"/>
     <use xlink:href="#DejaVuSans-3b8" transform="translate(611.023438 0)"/>
     <use xlink:href="#DejaVuSans-2a" transform="translate(672.205078 0)"/>
     <use xlink:href="#DejaVuSans-3d" transform="translate(722.205078 0)"/>
     <use xlink:href="#DejaVuSans-38" transform="translate(805.994141 0)"/>
     <use xlink:href="#DejaVuSans-30" transform="translate(869.617188 0)"/>
     <use xlink:href="#DejaVuSans-25" transform="translate(933.240234 0)"/>
     <use xlink:href="#DejaVuSans-29" transform="translate(1028.259766 0)"/>
    </g>
   </g>
   <g id="patch_21">
    <path d="M 392.281659 383.645392 
Q 341.700317 374.447013 292.438967 365.488678 
" style="fill: none; stroke: #ff6600; stroke-width: 1.2; stroke-linecap: round"/>
    <path d="M 295.301061 367.6354 
L 292.438967 365.488678 
L 295.873601 364.487036 
" style="fill: none; stroke: #ff6600; stroke-width: 1.2; stroke-linecap: round"/>
   </g>
   <g id="text_34">
    <!-- Buddhist: Pe=0.00 -->
    <g style="fill: #ff6600" transform="translate(385.556295 392.081446) scale(0.08 -0.08)">
     <defs>
      <path id="DejaVuSans-3a" d="M 750 794 
L 1409 794 
L 1409 0 
L 750 0 
L 750 794 
z
M 750 3309 
L 1409 3309 
L 1409 2516 
L 750 2516 
L 750 3309 
z
" transform="scale(0.015625)"/>
     </defs>
     <use xlink:href="#DejaVuSans-42"/>
     <use xlink:href="#DejaVuSans-75" transform="translate(68.603516 0)"/>
     <use xlink:href="#DejaVuSans-64" transform="translate(131.982422 0)"/>
     <use xlink:href="#DejaVuSans-64" transform="translate(195.458984 0)"/>
     <use xlink:href="#DejaVuSans-68" transform="translate(258.935547 0)"/>
     <use xlink:href="#DejaVuSans-69" transform="translate(322.314453 0)"/>
     <use xlink:href="#DejaVuSans-73" transform="translate(350.097656 0)"/>
     <use xlink:href="#DejaVuSans-74" transform="translate(402.197266 0)"/>
     <use xlink:href="#DejaVuSans-3a" transform="translate(441.40625 0)"/>
     <use xlink:href="#DejaVuSans-20" transform="translate(475.097656 0)"/>
     <use xlink:href="#DejaVuSans-50" transform="translate(506.884766 0)"/>
     <use xlink:href="#DejaVuSans-65" transform="translate(563.5625 0)"/>
     <use xlink:href="#DejaVuSans-3d" transform="translate(625.085938 0)"/>
     <use xlink:href="#DejaVuSans-30" transform="translate(708.875 0)"/>
     <use xlink:href="#DejaVuSans-2e" transform="translate(772.498047 0)"/>
     <use xlink:href="#DejaVuSans-30" transform="translate(804.285156 0)"/>
     <use xlink:href="#DejaVuSans-30" transform="translate(867.908203 0)"/>
    </g>
    <!-- 50% retention = exact boundary -->
    <g style="fill: #ff6600" transform="translate(385.556295 401.039696) scale(0.08 -0.08)">
     <use xlink:href="#DejaVuSans-35"/>
     <use xlink:href="#DejaVuSans-30" transform="translate(63.623047 0)"/>
     <use xlink:href="#DejaVuSans-25" transform="translate(127.246094 0)"/>
     <use xlink:href="#DejaVuSans-20" transform="translate(222.265625 0)"/>
     <use xlink:href="#DejaVuSans-72" transform="translate(254.052734 0)"/>
     <use xlink:href="#DejaVuSans-65" transform="translate(292.916016 0)"/>
     <use xlink:href="#DejaVuSans-74" transform="translate(354.439453 0)"/>
     <use xlink:href="#DejaVuSans-65" transform="translate(393.648438 0)"/>
     <use xlink:href="#DejaVuSans-6e" transform="translate(455.171875 0)"/>
     <use xlink:href="#DejaVuSans-74" transform="translate(518.550781 0)"/>
     <use xlink:href="#DejaVuSans-69" transform="translate(557.759766 0)"/>
     <use xlink:href="#DejaVuSans-6f" transform="translate(585.542969 0)"/>
     <use xlink:href="#DejaVuSans-6e" transform="translate(646.724609 0)"/>
     <use xlink:href="#DejaVuSans-20" transform="translate(710.103516 0)"/>
     <use xlink:href="#DejaVuSans-3d" transform="translate(741.890625 0)"/>
     <use xlink:href="#DejaVuSans-20" transform="translate(825.679688 0)"/>
     <use xlink:href="#DejaVuSans-65" transform="translate(857.466797 0)"/>
     <use xlink:href="#DejaVuSans-78" transform="translate(917.240234 0)"/>
     <use xlink:href="#DejaVuSans-61" transform="translate(976.419922 0)"/>
     <use xlink:href="#DejaVuSans-63" transform="translate(1037.699219 0)"/>
     <use xlink:href="#DejaVuSans-74" transform="translate(1092.679688 0)"/>
     <use xlink:href="#DejaVuSans-20" transform="translate(1131.888672 0)"/>
     <use xlink:href="#DejaVuSans-62" transform="translate(1163.675781 0)"/>
     <use xlink:href="#DejaVuSans-6f" transform="translate(1227.152344 0)"/>
     <use xlink:href="#DejaVuSans-75" transform="translate(1288.333984 0)"/>
     <use xlink:href="#DejaVuSans-6e" transform="translate(1351.712891 0)"/>
     <use xlink:href="#DejaVuSans-64" transform="translate(1415.091797 0)"/>
     <use xlink:href="#DejaVuSans-61" transform="translate(1478.568359 0)"/>
     <use xlink:href="#DejaVuSans-72" transform="translate(1539.847656 0)"/>
     <use xlink:href="#DejaVuSans-79" transform="translate(1580.960938 0)"/>
    </g>
   </g>
   <g id="text_35">
    <!-- Religious denomination Pe — Pew retention rates mapped to THRML -->
    <g transform="translate(251.943281 15.558281) scale(0.11 -0.11)">
     <defs>
      <path id="DejaVuSans-52" d="M 2841 2188 
Q 3044 2119 3236 1894 
Q 3428 1669 3622 1275 
L 4263 0 
L 3584 0 
L 2988 1197 
Q 2756 1666 2539 1819 
Q 2322 1972 1947 1972 
L 1259 1972 
L 1259 0 
L 628 0 
L 628 4666 
L 2053 4666 
Q 2853 4666 3247 4331 
Q 3641 3997 3641 3322 
Q 3641 2881 3436 2590 
Q 3231 2300 2841 2188 
z
M 1259 4147 
L 1259 2491 
L 2053 2491 
Q 2509 2491 2742 2702 
Q 2975 2913 2975 3322 
Q 2975 3731 2742 3939 
Q 2509 4147 2053 4147 
L 1259 4147 
z
" transform="scale(0.015625)"/>
      <path id="DejaVuSans-2014" d="M 313 1978 
L 6088 1978 
L 6088 1528 
L 313 1528 
L 313 1978 
z
" transform="scale(0.015625)"/>
      <path id="DejaVuSans-70" d="M 1159 525 
L 1159 -1331 
L 581 -1331 
L 581 3500 
L 1159 3500 
L 1159 2969 
Q 1341 3281 1617 3432 
Q 1894 3584 2278 3584 
Q 2916 3584 3314 3078 
Q 3713 2572 3713 1747 
Q 3713 922 3314 415 
Q 2916 -91 2278 -91 
Q 1894 -91 1617 61 
Q 1341 213 1159 525 
z
M 3116 1747 
Q 3116 2381 2855 2742 
Q 2594 3103 2138 3103 
Q 1681 3103 1420 2742 
Q 1159 2381 1159 1747 
Q 1159 1113 1420 752 
Q 1681 391 2138 391 
Q 2594 391 2855 752 
Q 3116 1113 3116 1747 
z
" transform="scale(0.015625)"/>
      <path id="DejaVuSans-54" d="M -19 4666 
L 3928 4666 
L 3928 4134 
L 2272 4134 
L 2272 0 
L 1638 0 
L 1638 4134 
L -19 4134 
L -19 4666 
z
" transform="scale(0.015625)"/>
     </defs>
     <use xlink:href="#DejaVuSans-52"/>
     <use xlink:href="#DejaVuSans-65" transform="translate(64.982422 0)"/>
     <use xlink:href="#DejaVuSans-6c" transform="translate(126.505859 0)"/>
     <use xlink:href="#DejaVuSans-69" transform="translate(154.289062 0)"/>
     <use xlink:href="#DejaVuSans-67" transform="translate(182.072266 0)"/>
     <use xlink:href="#DejaVuSans-69" transform="translate(245.548828 0)"/>
     <use xlink:href="#DejaVuSans-6f" transform="translate(273.332031 0)"/>
     <use xlink:href="#DejaVuSans-75" transform="translate(334.513672 0)"/>
     <use xlink:href="#DejaVuSans-73" transform="translate(397.892578 0)"/>
     <use xlink:href="#DejaVuSans-20" transform="translate(449.992188 0)"/>
     <use xlink:href="#DejaVuSans-64" transform="translate(481.779297 0)"/>
     <use xlink:href="#DejaVuSans-65" transform="translate(545.255859 0)"/>
     <use xlink:href="#DejaVuSans-6e" transform="translate(606.779297 0)"/>
     <use xlink:href="#DejaVuSans-6f" transform="translate(670.158203 0)"/>
     <use xlink:href="#DejaVuSans-6d" transform="translate(731.339844 0)"/>
     <use xlink:href="#DejaVuSans-69" transform="translate(828.751953 0)"/>
     <use xlink:href="#DejaVuSans-6e" transform="translate(856.535156 0)"/>
     <use xlink:href="#DejaVuSans-61" transform="translate(919.914062 0)"/>
     <use xlink:href="#DejaVuSans-74" transform="translate(981.193359 0)"/>
     <use xlink:href="#DejaVuSans-69" transform="translate(1020.402344 0)"/>
     <use xlink:href="#DejaVuSans-6f" transform="translate(1048.185547 0)"/>
     <use xlink:href="#DejaVuSans-6e" transform="translate(1109.367188 0)"/>
     <use xlink:href="#DejaVuSans-20" transform="translate(1172.746094 0)"/>
     <use xlink:href="#DejaVuSans-50" transform="translate(1204.533203 0)"/>
     <use xlink:href="#DejaVuSans-65" transform="translate(1261.210938 0)"/>
     <use xlink:href="#DejaVuSans-20" transform="translate(1322.734375 0)"/>
     <use xlink:href="#DejaVuSans-2014" transform="translate(1354.521484 0)"/>
     <use xlink:href="#DejaVuSans-20" transform="translate(1454.521484 0)"/>
     <use xlink:href="#DejaVuSans-50" transform="translate(1486.308594 0)"/>
     <use xlink:href="#DejaVuSans-65" transform="translate(1542.986328 0)"/>
     <use xlink:href="#DejaVuSans-77" transform="translate(1604.509766 0)"/>
     <use xlink:href="#DejaVuSans-20" transform="translate(1686.296875 0)"/>
     <use xlink:href="#DejaVuSans-72" transform="translate(1718.083984 0)"/>
     <use xlink:href="#DejaVuSans-65" transform="translate(1756.947266 0)"/>
     <use xlink:href="#DejaVuSans-74" transform="translate(1818.470703 0)"/>
     <use xlink:href="#DejaVuSans-65" transform="translate(1857.679688 0)"/>
     <use xlink:href="#DejaVuSans-6e" transform="translate(1919.203125 0)"/>
     <use xlink:href="#DejaVuSans-74" transform="translate(1982.582031 0)"/>
     <use xlink:href="#DejaVuSans-69" transform="translate(2021.791016 0)"/>
     <use xlink:href="#DejaVuSans-6f" transform="translate(2049.574219 0)"/>
     <use xlink:href="#DejaVuSans-6e" transform="translate(2110.755859 0)"/>
     <use xlink:href="#DejaVuSans-20" transform="translate(2174.134766 0)"/>
     <use xlink:href="#DejaVuSans-72" transform="translate(2205.921875 0)"/>
     <use xlink:href="#DejaVuSans-61" transform="translate(2247.035156 0)"/>
     <use xlink:href="#DejaVuSans-74" transform="translate(2308.314453 0)"/>
     <use xlink:href="#DejaVuSans-65" transform="translate(2347.523438 0)"/>
     <use xlink:href="#DejaVuSans-73" transform="translate(2409.046875 0)"/>
     <use xlink:href="#DejaVuSans-20" transform="translate(2461.146484 0)"/>
     <use xlink:href="#DejaVuSans-6d" transform="translate(2492.933594 0)"/>
     <use xlink:href="#DejaVuSans-61" transform="translate(2590.345703 0)"/>
     <use xlink:href="#DejaVuSans-70" transform="translate(2651.625 0)"/>
     <use xlink:href="#DejaVuSans-70" transform="translate(2715.101562 0)"/>
     <use xlink:href="#DejaVuSans-65" transform="translate(2778.578125 0)"/>
     <use xlink:href="#DejaVuSans-64" transform="translate(2840.101562 0)"/>
     <use xlink:href="#DejaVuSans-20" transform="translate(2903.578125 0)"/>
     <use xlink:href="#DejaVuSans-74" transform="translate(2935.365234 0)"/>
     <use xlink:href="#DejaVuSans-6f" transform="translate(2974.574219 0)"/>
     <use xlink:href="#DejaVuSans-20" transform="translate(3035.755859 0)"/>
     <use xlink:href="#DejaVuSans-54" transform="translate(3067.542969 0)"/>
     <use xlink:href="#DejaVuSans-48" transform="translate(3128.626953 0)"/>
     <use xlink:href="#DejaVuSans-52" transform="translate(3203.822266 0)"/>
     <use xlink:href="#DejaVuSans-4d" transform="translate(3273.304688 0)"/>
     <use xlink:href="#DejaVuSans-4c" transform="translate(3359.583984 0)"/>
    </g>
    <!-- Pe = K·sinh(2·logit(θ*)/2)  with canonical K=16, no free parameters -->
    <g transform="translate(254.449219 27.979) scale(0.11 -0.11)">
     <defs>
      <path id="DejaVuSans-4b" d="M 628 4666 
L 1259 4666 
L 1259 2694 
L 3353 4666 
L 4166 4666 
L 1850 2491 
L 4331 0 
L 3500 0 
L 1259 2247 
L 1259 0 
L 628 0 
L 628 4666 
z
" transform="scale(0.015625)"/>
      <path id="DejaVuSans-b7" d="M 684 2619 
L 1344 2619 
L 1344 1825 
L 684 1825 
L 684 2619 
z
" transform="scale(0.015625)"/>
     </defs>
     <use xlink:href="#DejaVuSans-50"/>
     <use xlink:href="#DejaVuSans-65" transform="translate(56.677734 0)"/>
     <use xlink:href="#DejaVuSans-20" transform="translate(118.201172 0)"/>
     <use xlink:href="#DejaVuSans-3d" transform="translate(149.988281 0)"/>
     <use xlink:href="#DejaVuSans-20" transform="translate(233.777344 0)"/>
     <use xlink:href="#DejaVuSans-4b" transform="translate(265.564453 0)"/>
     <use xlink:href="#DejaVuSans-b7" transform="translate(331.140625 0)"/>
     <use xlink:href="#DejaVuSans-73" transform="translate(362.927734 0)"/>
     <use xlink:href="#DejaVuSans-69" transform="translate(415.027344 0)"/>
     <use xlink:href="#DejaVuSans-6e" transform="translate(442.810547 0)"/>
     <use xlink:href="#DejaVuSans-68" transform="translate(506.189453 0)"/>
     <use xlink:href="#DejaVuSans-28" transform="translate(569.568359 0)"/>
     <use xlink:href="#DejaVuSans-32" transform="translate(608.582031 0)"/>
     <use xlink:href="#DejaVuSans-b7" transform="translate(672.205078 0)"/>
     <use xlink:href="#DejaVuSans-6c" transform="translate(703.992188 0)"/>
     <use xlink:href="#DejaVuSans-6f" transform="translate(731.775391 0)"/>
     <use xlink:href="#DejaVuSans-67" transform="translate(792.957031 0)"/>
     <use xlink:href="#DejaVuSans-69" transform="translate(856.433594 0)"/>
     <use xlink:href="#DejaVuSans-74" transform="translate(884.216797 0)"/>
     <use xlink:href="#DejaVuSans-28" transform="translate(923.425781 0)"/>
     <use xlink:href="#DejaVuSans-3b8" transform="translate(962.439453 0)"/>
     <use xlink:href="#DejaVuSans-2a" transform="translate(1023.621094 0)"/>
     <use xlink:href="#DejaVuSans-29" transform="translate(1073.621094 0)"/>
     <use xlink:href="#DejaVuSans-2f" transform="translate(1112.634766 0)"/>
     <use xlink:href="#DejaVuSans-32" transform="translate(1146.326172 0)"/>
     <use xlink:href="#DejaVuSans-29" transform="translate(1209.949219 0)"/>
     <use xlink:href="#DejaVuSans-20" transform="translate(1248.962891 0)"/>
     <use xlink:href="#DejaVuSans-20" transform="translate(1280.75 0)"/>
     <use xlink:href="#DejaVuSans-77" transform="translate(1312.537109 0)"/>
     <use xlink:href="#DejaVuSans-69" transform="translate(1394.324219 0)"/>
     <use xlink:href="#DejaVuSans-74" transform="translate(1422.107422 0)"/>
     <use xlink:href="#DejaVuSans-68" transform="translate(1461.316406 0)"/>
     <use xlink:href="#DejaVuSans-20" transform="translate(1524.695312 0)"/>
     <use xlink:href="#DejaVuSans-63" transform="translate(1556.482422 0)"/>
     <use xlink:href="#DejaVuSans-61" transform="translate(1611.462891 0)"/>
     <use xlink:href="#DejaVuSans-6e" transform="translate(1672.742188 0)"/>
     <use xlink:href="#DejaVuSans-6f" transform="translate(1736.121094 0)"/>
     <use xlink:href="#DejaVuSans-6e" transform="translate(1797.302734 0)"/>
     <use xlink:href="#DejaVuSans-69" transform="translate(1860.681641 0)"/>
     <use xlink:href="#DejaVuSans-63" transform="translate(1888.464844 0)"/>
     <use xlink:href="#DejaVuSans-61" transform="translate(1943.445312 0)"/>
     <use xlink:href="#DejaVuSans-6c" transform="translate(2004.724609 0)"/>
     <use xlink:href="#DejaVuSans-20" transform="translate(2032.507812 0)"/>
     <use xlink:href="#DejaVuSans-4b" transform="translate(2064.294922 0)"/>
     <use xlink:href="#DejaVuSans-3d" transform="translate(2129.871094 0)"/>
     <use xlink:href="#DejaVuSans-31" transform="translate(2213.660156 0)"/>
     <use xlink:href="#DejaVuSans-36" transform="translate(2277.283203 0)"/>
     <use xlink:href="#DejaVuSans-2c" transform="translate(2340.90625 0)"/>
     <use xlink:href="#DejaVuSans-20" transform="translate(2372.693359 0)"/>
     <use xlink:href="#DejaVuSans-6e" transform="translate(2404.480469 0)"/>
     <use xlink:href="#DejaVuSans-6f" transform="translate(2467.859375 0)"/>
     <use xlink:href="#DejaVuSans-20" transform="translate(2529.041016 0)"/>
     <use xlink:href="#DejaVuSans-66" transform="translate(2560.828125 0)"/>
     <use xlink:href="#DejaVuSans-72" transform="translate(2596.033203 0)"/>
     <use xlink:href="#DejaVuSans-65" transform="translate(2634.896484 0)"/>
     <use xlink:href="#DejaVuSans-65" transform="translate(2696.419922 0)"/>
     <use xlink:href="#DejaVuSans-20" transform="translate(2757.943359 0)"/>
     <use xlink:href="#DejaVuSans-70" transform="translate(2789.730469 0)"/>
     <use xlink:href="#DejaVuSans-61" transform="translate(2853.207031 0)"/>
     <use xlink:href="#DejaVuSans-72" transform="translate(2914.486328 0)"/>
     <use xlink:href="#DejaVuSans-61" transform="translate(2955.599609 0)"/>
     <use xlink:href="#DejaVuSans-6d" transform="translate(3016.878906 0)"/>
     <use xlink:href="#DejaVuSans-65" transform="translate(3114.291016 0)"/>
     <use xlink:href="#DejaVuSans-74" transform="translate(3175.814453 0)"/>
     <use xlink:href="#DejaVuSans-65" transform="translate(3215.023438 0)"/>
     <use xlink:href="#DejaVuSans-72" transform="translate(3276.546875 0)"/>
     <use xlink:href="#DejaVuSans-73" transform="translate(3317.660156 0)"/>
    </g>
   </g>
   <g id="line2d_28">
    <path d="M 289.151932 454.811 
L 289.151932 33.979 
" clip-path="url(#p77ecd89dde)" style="fill: none; stroke: #000000; stroke-width: 1.2; stroke-linecap: square"/>
   </g>
   <g id="legend_1">
    <g id="patch_22">
     <path d="M 603.889062 450.311 
L 764.87375 450.311 
Q 766.67375 450.311 766.67375 448.511 
L 766.67375 436.200687 
Q 766.67375 434.400687 764.87375 434.400687 
L 603.889062 434.400687 
Q 602.089062 434.400687 602.089062 436.200687 
L 602.089062 448.511 
Q 602.089062 450.311 603.889062 450.311 
z
" style="fill: #ffffff; opacity: 0.8; stroke: #cccccc; stroke-linejoin: miter"/>
    </g>
    <g id="patch_23">
     <path d="M 605.689062 444.839281 
L 623.689062 444.839281 
L 623.689062 438.539281 
L 605.689062 438.539281 
z
" style="fill: #ffd700; opacity: 0.1; stroke: #ffd700; stroke-linejoin: miter"/>
    </g>
    <g id="text_36">
     <!-- Pe ∈ (−1, +1)  diffusion zone -->
     <g transform="translate(630.889063 444.839281) scale(0.09 -0.09)">
      <defs>
       <path id="DejaVuSans-2208" d="M 1072 1959 
Q 1094 1728 1291 1353 
Q 1522 919 1959 675 
Q 2388 438 2850 434 
L 5028 434 
L 5028 -63 
L 2850 -63 
Q 2250 -63 1695 246 
Q 1141 556 844 1106 
Q 547 1656 547 2241 
Q 547 2819 844 3369 
Q 1141 3919 1695 4231 
Q 2250 4544 2850 4544 
L 5028 4544 
L 5028 4047 
L 2850 4047 
Q 2388 4044 1959 3803 
Q 1525 3556 1291 3125 
Q 1091 2750 1063 2459 
L 5028 2459 
L 5028 1959 
L 1072 1959 
z
" transform="scale(0.015625)"/>
       <path id="DejaVuSans-7a" d="M 353 3500 
L 3084 3500 
L 3084 2975 
L 922 459 
L 3084 459 
L 3084 0 
L 275 0 
L 275 525 
L 2438 3041 
L 353 3041 
L 353 3500 
z
" transform="scale(0.015625)"/>
      </defs>
      <use xlink:href="#DejaVuSans-50"/>
      <use xlink:href="#DejaVuSans-65" transform="translate(56.677734 0)"/>
      <use xlink:href="#DejaVuSans-20" transform="translate(118.201172 0)"/>
      <use xlink:href="#DejaVuSans-2208" transform="translate(149.988281 0)"/>
      <use xlink:href="#DejaVuSans-20" transform="translate(237.097656 0)"/>
      <use xlink:href="#DejaVuSans-28" transform="translate(268.884766 0)"/>
      <use xlink:href="#DejaVuSans-2212" transform="translate(307.898438 0)"/>
      <use xlink:href="#DejaVuSans-31" transform="translate(391.6875 0)"/>
      <use xlink:href="#DejaVuSans-2c" transform="translate(455.310547 0)"/>
      <use xlink:href="#DejaVuSans-20" transform="translate(487.097656 0)"/>
      <use xlink:href="#DejaVuSans-2b" transform="translate(518.884766 0)"/>
      <use xlink:href="#DejaVuSans-31" transform="translate(602.673828 0)"/>
      <use xlink:href="#DejaVuSans-29" transform="translate(666.296875 0)"/>
      <use xlink:href="#DejaVuSans-20" transform="translate(705.310547 0)"/>
      <use xlink:href="#DejaVuSans-20" transform="translate(737.097656 0)"/>
      <use xlink:href="#DejaVuSans-64" transform="translate(768.884766 0)"/>
      <use xlink:href="#DejaVuSans-69" transform="translate(832.361328 0)"/>
      <use xlink:href="#DejaVuSans-66" transform="translate(860.144531 0)"/>
      <use xlink:href="#DejaVuSans-66" transform="translate(895.349609 0)"/>
      <use xlink:href="#DejaVuSans-75" transform="translate(930.554688 0)"/>
      <use xlink:href="#DejaVuSans-73" transform="translate(993.933594 0)"/>
      <use xlink:href="#DejaVuSans-69" transform="translate(1046.033203 0)"/>
      <use xlink:href="#DejaVuSans-6f" transform="translate(1073.816406 0)"/>
      <use xlink:href="#DejaVuSans-6e" transform="translate(1134.998047 0)"/>
      <use xlink:href="#DejaVuSans-20" transform="translate(1198.376953 0)"/>
      <use xlink:href="#DejaVuSans-7a" transform="translate(1230.164062 0)"/>
      <use xlink:href="#DejaVuSans-6f" transform="translate(1282.654297 0)"/>
      <use xlink:href="#DejaVuSans-6e" transform="translate(1343.835938 0)"/>
      <use xlink:href="#DejaVuSans-65" transform="translate(1407.214844 0)"/>
     </g>
    </g>
   </g>
  </g>
 </g>
 <defs>
  <clipPath id="p77ecd89dde">
   <rect x="108.39375" y="33.979" width="662.78" height="420.832"/>
  </clipPath>
 </defs>
</svg>
