<?xml version="1.0" encoding="utf-8" standalone="no"?>
<!DOCTYPE svg PUBLIC "-//W3C//DTD SVG 1.1//EN"
  "http://www.w3.org/Graphics/SVG/1.1/DTD/svg11.dtd">
<svg xmlns:xlink="http://www.w3.org/1999/xlink" width="927.775313pt" height="349.914062pt" viewBox="0 0 927.775313 349.914062" xmlns="http://www.w3.org/2000/svg" version="1.1">
 <metadata>
  <rdf:RDF xmlns:dc="http://purl.org/dc/elements/1.1/" xmlns:cc="http://creativecommons.org/ns#" xmlns:rdf="http://www.w3.org/1999/02/22-rdf-syntax-ns#">
   <cc:Work>
    <dc:type rdf:resource="http://purl.org/dc/dcmitype/StillImage"/>
    <dc:date>2026-02-22T05:32:59.336076</dc:date>
    <dc:format>image/svg+xml</dc:format>
    <dc:creator>
     <cc:Agent>
      <dc:title>Matplotlib v3.10.8, https://matplotlib.org/</dc:title>
     </cc:Agent>
    </dc:creator>
   </cc:Work>
  </rdf:RDF>
 </metadata>
 <defs>
  <style type="text/css">*{stroke-linejoin: round; stroke-linecap: butt}</style>
 </defs>
 <g id="figure_1">
  <g id="patch_1">
   <path d="M 0 349.914062 
L 927.775313 349.914062 
L 927.775313 0 
L 0 0 
z
" style="fill: #ffffff"/>
  </g>
  <g id="axes_1">
   <g id="patch_2">
    <path d="M 44.749063 311.39 
L 429.199063 311.39 
L 429.199063 21.67 
L 44.749063 21.67 
z
" style="fill: #ffffff"/>
   </g>
   <g id="matplotlib.axis_1">
    <g id="xtick_1">
     <g id="line2d_1">
      <defs>
       <path id="mb3ca8354f1" d="M 0 0 
L 0 3.5 
" style="stroke: #000000; stroke-width: 0.8"/>
      </defs>
      <g>
       <use xlink:href="#mb3ca8354f1" x="68.307568" y="311.39" style="stroke: #000000; stroke-width: 0.8"/>
      </g>
     </g>
     <g id="text_1">
      <!-- 0.338 -->
      <g transform="translate(53.993505 325.988437) scale(0.1 -0.1)">
       <defs>
        <path id="DejaVuSans-30" d="M 2034 4250 
Q 1547 4250 1301 3770 
Q 1056 3291 1056 2328 
Q 1056 1369 1301 889 
Q 1547 409 2034 409 
Q 2525 409 2770 889 
Q 3016 1369 3016 2328 
Q 3016 3291 2770 3770 
Q 2525 4250 2034 4250 
z
M 2034 4750 
Q 2819 4750 3233 4129 
Q 3647 3509 3647 2328 
Q 3647 1150 3233 529 
Q 2819 -91 2034 -91 
Q 1250 -91 836 529 
Q 422 1150 422 2328 
Q 422 3509 836 4129 
Q 1250 4750 2034 4750 
z
" transform="scale(0.015625)"/>
        <path id="DejaVuSans-2e" d="M 684 794 
L 1344 794 
L 1344 0 
L 684 0 
L 684 794 
z
" transform="scale(0.015625)"/>
        <path id="DejaVuSans-33" d="M 2597 2516 
Q 3050 2419 3304 2112 
Q 3559 1806 3559 1356 
Q 3559 666 3084 287 
Q 2609 -91 1734 -91 
Q 1441 -91 1130 -33 
Q 819 25 488 141 
L 488 750 
Q 750 597 1062 519 
Q 1375 441 1716 441 
Q 2309 441 2620 675 
Q 2931 909 2931 1356 
Q 2931 1769 2642 2001 
Q 2353 2234 1838 2234 
L 1294 2234 
L 1294 2753 
L 1863 2753 
Q 2328 2753 2575 2939 
Q 2822 3125 2822 3475 
Q 2822 3834 2567 4026 
Q 2313 4219 1838 4219 
Q 1578 4219 1281 4162 
Q 984 4106 628 3988 
L 628 4550 
Q 988 4650 1302 4700 
Q 1616 4750 1894 4750 
Q 2613 4750 3031 4423 
Q 3450 4097 3450 3541 
Q 3450 3153 3228 2886 
Q 3006 2619 2597 2516 
z
" transform="scale(0.015625)"/>
        <path id="DejaVuSans-38" d="M 2034 2216 
Q 1584 2216 1326 1975 
Q 1069 1734 1069 1313 
Q 1069 891 1326 650 
Q 1584 409 2034 409 
Q 2484 409 2743 651 
Q 3003 894 3003 1313 
Q 3003 1734 2745 1975 
Q 2488 2216 2034 2216 
z
M 1403 2484 
Q 997 2584 770 2862 
Q 544 3141 544 3541 
Q 544 4100 942 4425 
Q 1341 4750 2034 4750 
Q 2731 4750 3128 4425 
Q 3525 4100 3525 3541 
Q 3525 3141 3298 2862 
Q 3072 2584 2669 2484 
Q 3125 2378 3379 2068 
Q 3634 1759 3634 1313 
Q 3634 634 3220 271 
Q 2806 -91 2034 -91 
Q 1263 -91 848 271 
Q 434 634 434 1313 
Q 434 1759 690 2068 
Q 947 2378 1403 2484 
z
M 1172 3481 
Q 1172 3119 1398 2916 
Q 1625 2713 2034 2713 
Q 2441 2713 2670 2916 
Q 2900 3119 2900 3481 
Q 2900 3844 2670 4047 
Q 2441 4250 2034 4250 
Q 1625 4250 1398 4047 
Q 1172 3844 1172 3481 
z
" transform="scale(0.015625)"/>
       </defs>
       <use xlink:href="#DejaVuSans-30"/>
       <use xlink:href="#DejaVuSans-2e" transform="translate(63.623047 0)"/>
       <use xlink:href="#DejaVuSans-33" transform="translate(95.410156 0)"/>
       <use xlink:href="#DejaVuSans-33" transform="translate(159.033203 0)"/>
       <use xlink:href="#DejaVuSans-38" transform="translate(222.65625 0)"/>
      </g>
     </g>
    </g>
    <g id="xtick_2">
     <g id="line2d_2">
      <g>
       <use xlink:href="#mb3ca8354f1" x="114.855572" y="311.39" style="stroke: #000000; stroke-width: 0.8"/>
      </g>
     </g>
     <g id="text_2">
      <!-- 0.339 -->
      <g transform="translate(100.54151 325.988437) scale(0.1 -0.1)">
       <defs>
        <path id="DejaVuSans-39" d="M 703 97 
L 703 672 
Q 941 559 1184 500 
Q 1428 441 1663 441 
Q 2288 441 2617 861 
Q 2947 1281 2994 2138 
Q 2813 1869 2534 1725 
Q 2256 1581 1919 1581 
Q 1219 1581 811 2004 
Q 403 2428 403 3163 
Q 403 3881 828 4315 
Q 1253 4750 1959 4750 
Q 2769 4750 3195 4129 
Q 3622 3509 3622 2328 
Q 3622 1225 3098 567 
Q 2575 -91 1691 -91 
Q 1453 -91 1209 -44 
Q 966 3 703 97 
z
M 1959 2075 
Q 2384 2075 2632 2365 
Q 2881 2656 2881 3163 
Q 2881 3666 2632 3958 
Q 2384 4250 1959 4250 
Q 1534 4250 1286 3958 
Q 1038 3666 1038 3163 
Q 1038 2656 1286 2365 
Q 1534 2075 1959 2075 
z
" transform="scale(0.015625)"/>
       </defs>
       <use xlink:href="#DejaVuSans-30"/>
       <use xlink:href="#DejaVuSans-2e" transform="translate(63.623047 0)"/>
       <use xlink:href="#DejaVuSans-33" transform="translate(95.410156 0)"/>
       <use xlink:href="#DejaVuSans-33" transform="translate(159.033203 0)"/>
       <use xlink:href="#DejaVuSans-39" transform="translate(222.65625 0)"/>
      </g>
     </g>
    </g>
    <g id="xtick_3">
     <g id="line2d_3">
      <g>
       <use xlink:href="#mb3ca8354f1" x="161.403577" y="311.39" style="stroke: #000000; stroke-width: 0.8"/>
      </g>
     </g>
     <g id="text_3">
      <!-- 0.340 -->
      <g transform="translate(147.089514 325.988437) scale(0.1 -0.1)">
       <defs>
        <path id="DejaVuSans-34" d="M 2419 4116 
L 825 1625 
L 2419 1625 
L 2419 4116 
z
M 2253 4666 
L 3047 4666 
L 3047 1625 
L 3713 1625 
L 3713 1100 
L 3047 1100 
L 3047 0 
L 2419 0 
L 2419 1100 
L 313 1100 
L 313 1709 
L 2253 4666 
z
" transform="scale(0.015625)"/>
       </defs>
       <use xlink:href="#DejaVuSans-30"/>
       <use xlink:href="#DejaVuSans-2e" transform="translate(63.623047 0)"/>
       <use xlink:href="#DejaVuSans-33" transform="translate(95.410156 0)"/>
       <use xlink:href="#DejaVuSans-34" transform="translate(159.033203 0)"/>
       <use xlink:href="#DejaVuSans-30" transform="translate(222.65625 0)"/>
      </g>
     </g>
    </g>
    <g id="xtick_4">
     <g id="line2d_4">
      <g>
       <use xlink:href="#mb3ca8354f1" x="207.951581" y="311.39" style="stroke: #000000; stroke-width: 0.8"/>
      </g>
     </g>
     <g id="text_4">
      <!-- 0.341 -->
      <g transform="translate(193.637518 325.988437) scale(0.1 -0.1)">
       <defs>
        <path id="DejaVuSans-31" d="M 794 531 
L 1825 531 
L 1825 4091 
L 703 3866 
L 703 4441 
L 1819 4666 
L 2450 4666 
L 2450 531 
L 3481 531 
L 3481 0 
L 794 0 
L 794 531 
z
" transform="scale(0.015625)"/>
       </defs>
       <use xlink:href="#DejaVuSans-30"/>
       <use xlink:href="#DejaVuSans-2e" transform="translate(63.623047 0)"/>
       <use xlink:href="#DejaVuSans-33" transform="translate(95.410156 0)"/>
       <use xlink:href="#DejaVuSans-34" transform="translate(159.033203 0)"/>
       <use xlink:href="#DejaVuSans-31" transform="translate(222.65625 0)"/>
      </g>
     </g>
    </g>
    <g id="xtick_5">
     <g id="line2d_5">
      <g>
       <use xlink:href="#mb3ca8354f1" x="254.499585" y="311.39" style="stroke: #000000; stroke-width: 0.8"/>
      </g>
     </g>
     <g id="text_5">
      <!-- 0.342 -->
      <g transform="translate(240.185523 325.988437) scale(0.1 -0.1)">
       <defs>
        <path id="DejaVuSans-32" d="M 1228 531 
L 3431 531 
L 3431 0 
L 469 0 
L 469 531 
Q 828 903 1448 1529 
Q 2069 2156 2228 2338 
Q 2531 2678 2651 2914 
Q 2772 3150 2772 3378 
Q 2772 3750 2511 3984 
Q 2250 4219 1831 4219 
Q 1534 4219 1204 4116 
Q 875 4013 500 3803 
L 500 4441 
Q 881 4594 1212 4672 
Q 1544 4750 1819 4750 
Q 2544 4750 2975 4387 
Q 3406 4025 3406 3419 
Q 3406 3131 3298 2873 
Q 3191 2616 2906 2266 
Q 2828 2175 2409 1742 
Q 1991 1309 1228 531 
z
" transform="scale(0.015625)"/>
       </defs>
       <use xlink:href="#DejaVuSans-30"/>
       <use xlink:href="#DejaVuSans-2e" transform="translate(63.623047 0)"/>
       <use xlink:href="#DejaVuSans-33" transform="translate(95.410156 0)"/>
       <use xlink:href="#DejaVuSans-34" transform="translate(159.033203 0)"/>
       <use xlink:href="#DejaVuSans-32" transform="translate(222.65625 0)"/>
      </g>
     </g>
    </g>
    <g id="xtick_6">
     <g id="line2d_6">
      <g>
       <use xlink:href="#mb3ca8354f1" x="301.047589" y="311.39" style="stroke: #000000; stroke-width: 0.8"/>
      </g>
     </g>
     <g id="text_6">
      <!-- 0.343 -->
      <g transform="translate(286.733527 325.988437) scale(0.1 -0.1)">
       <use xlink:href="#DejaVuSans-30"/>
       <use xlink:href="#DejaVuSans-2e" transform="translate(63.623047 0)"/>
       <use xlink:href="#DejaVuSans-33" transform="translate(95.410156 0)"/>
       <use xlink:href="#DejaVuSans-34" transform="translate(159.033203 0)"/>
       <use xlink:href="#DejaVuSans-33" transform="translate(222.65625 0)"/>
      </g>
     </g>
    </g>
    <g id="xtick_7">
     <g id="line2d_7">
      <g>
       <use xlink:href="#mb3ca8354f1" x="347.595594" y="311.39" style="stroke: #000000; stroke-width: 0.8"/>
      </g>
     </g>
     <g id="text_7">
      <!-- 0.344 -->
      <g transform="translate(333.281531 325.988437) scale(0.1 -0.1)">
       <use xlink:href="#DejaVuSans-30"/>
       <use xlink:href="#DejaVuSans-2e" transform="translate(63.623047 0)"/>
       <use xlink:href="#DejaVuSans-33" transform="translate(95.410156 0)"/>
       <use xlink:href="#DejaVuSans-34" transform="translate(159.033203 0)"/>
       <use xlink:href="#DejaVuSans-34" transform="translate(222.65625 0)"/>
      </g>
     </g>
    </g>
    <g id="xtick_8">
     <g id="line2d_8">
      <g>
       <use xlink:href="#mb3ca8354f1" x="394.143598" y="311.39" style="stroke: #000000; stroke-width: 0.8"/>
      </g>
     </g>
     <g id="text_8">
      <!-- 0.345 -->
      <g transform="translate(379.829535 325.988437) scale(0.1 -0.1)">
       <defs>
        <path id="DejaVuSans-35" d="M 691 4666 
L 3169 4666 
L 3169 4134 
L 1269 4134 
L 1269 2991 
Q 1406 3038 1543 3061 
Q 1681 3084 1819 3084 
Q 2600 3084 3056 2656 
Q 3513 2228 3513 1497 
Q 3513 744 3044 326 
Q 2575 -91 1722 -91 
Q 1428 -91 1123 -41 
Q 819 9 494 109 
L 494 744 
Q 775 591 1075 516 
Q 1375 441 1709 441 
Q 2250 441 2565 725 
Q 2881 1009 2881 1497 
Q 2881 1984 2565 2268 
Q 2250 2553 1709 2553 
Q 1456 2553 1204 2497 
Q 953 2441 691 2322 
L 691 4666 
z
" transform="scale(0.015625)"/>
       </defs>
       <use xlink:href="#DejaVuSans-30"/>
       <use xlink:href="#DejaVuSans-2e" transform="translate(63.623047 0)"/>
       <use xlink:href="#DejaVuSans-33" transform="translate(95.410156 0)"/>
       <use xlink:href="#DejaVuSans-34" transform="translate(159.033203 0)"/>
       <use xlink:href="#DejaVuSans-35" transform="translate(222.65625 0)"/>
      </g>
     </g>
    </g>
    <g id="text_9">
     <!-- Constraint level $c$ -->
     <g transform="translate(188.849063 340.426406) scale(0.11 -0.11)">
      <defs>
       <path id="DejaVuSans-43" d="M 4122 4306 
L 4122 3641 
Q 3803 3938 3442 4084 
Q 3081 4231 2675 4231 
Q 1875 4231 1450 3742 
Q 1025 3253 1025 2328 
Q 1025 1406 1450 917 
Q 1875 428 2675 428 
Q 3081 428 3442 575 
Q 3803 722 4122 1019 
L 4122 359 
Q 3791 134 3420 21 
Q 3050 -91 2638 -91 
Q 1578 -91 968 557 
Q 359 1206 359 2328 
Q 359 3453 968 4101 
Q 1578 4750 2638 4750 
Q 3056 4750 3426 4639 
Q 3797 4528 4122 4306 
z
" transform="scale(0.015625)"/>
       <path id="DejaVuSans-6f" d="M 1959 3097 
Q 1497 3097 1228 2736 
Q 959 2375 959 1747 
Q 959 1119 1226 758 
Q 1494 397 1959 397 
Q 2419 397 2687 759 
Q 2956 1122 2956 1747 
Q 2956 2369 2687 2733 
Q 2419 3097 1959 3097 
z
M 1959 3584 
Q 2709 3584 3137 3096 
Q 3566 2609 3566 1747 
Q 3566 888 3137 398 
Q 2709 -91 1959 -91 
Q 1206 -91 779 398 
Q 353 888 353 1747 
Q 353 2609 779 3096 
Q 1206 3584 1959 3584 
z
" transform="scale(0.015625)"/>
       <path id="DejaVuSans-6e" d="M 3513 2113 
L 3513 0 
L 2938 0 
L 2938 2094 
Q 2938 2591 2744 2837 
Q 2550 3084 2163 3084 
Q 1697 3084 1428 2787 
Q 1159 2491 1159 1978 
L 1159 0 
L 581 0 
L 581 3500 
L 1159 3500 
L 1159 2956 
Q 1366 3272 1645 3428 
Q 1925 3584 2291 3584 
Q 2894 3584 3203 3211 
Q 3513 2838 3513 2113 
z
" transform="scale(0.015625)"/>
       <path id="DejaVuSans-73" d="M 2834 3397 
L 2834 2853 
Q 2591 2978 2328 3040 
Q 2066 3103 1784 3103 
Q 1356 3103 1142 2972 
Q 928 2841 928 2578 
Q 928 2378 1081 2264 
Q 1234 2150 1697 2047 
L 1894 2003 
Q 2506 1872 2764 1633 
Q 3022 1394 3022 966 
Q 3022 478 2636 193 
Q 2250 -91 1575 -91 
Q 1294 -91 989 -36 
Q 684 19 347 128 
L 347 722 
Q 666 556 975 473 
Q 1284 391 1588 391 
Q 1994 391 2212 530 
Q 2431 669 2431 922 
Q 2431 1156 2273 1281 
Q 2116 1406 1581 1522 
L 1381 1569 
Q 847 1681 609 1914 
Q 372 2147 372 2553 
Q 372 3047 722 3315 
Q 1072 3584 1716 3584 
Q 2034 3584 2315 3537 
Q 2597 3491 2834 3397 
z
" transform="scale(0.015625)"/>
       <path id="DejaVuSans-74" d="M 1172 4494 
L 1172 3500 
L 2356 3500 
L 2356 3053 
L 1172 3053 
L 1172 1153 
Q 1172 725 1289 603 
Q 1406 481 1766 481 
L 2356 481 
L 2356 0 
L 1766 0 
Q 1100 0 847 248 
Q 594 497 594 1153 
L 594 3053 
L 172 3053 
L 172 3500 
L 594 3500 
L 594 4494 
L 1172 4494 
z
" transform="scale(0.015625)"/>
       <path id="DejaVuSans-72" d="M 2631 2963 
Q 2534 3019 2420 3045 
Q 2306 3072 2169 3072 
Q 1681 3072 1420 2755 
Q 1159 2438 1159 1844 
L 1159 0 
L 581 0 
L 581 3500 
L 1159 3500 
L 1159 2956 
Q 1341 3275 1631 3429 
Q 1922 3584 2338 3584 
Q 2397 3584 2469 3576 
Q 2541 3569 2628 3553 
L 2631 2963 
z
" transform="scale(0.015625)"/>
       <path id="DejaVuSans-61" d="M 2194 1759 
Q 1497 1759 1228 1600 
Q 959 1441 959 1056 
Q 959 750 1161 570 
Q 1363 391 1709 391 
Q 2188 391 2477 730 
Q 2766 1069 2766 1631 
L 2766 1759 
L 2194 1759 
z
M 3341 1997 
L 3341 0 
L 2766 0 
L 2766 531 
Q 2569 213 2275 61 
Q 1981 -91 1556 -91 
Q 1019 -91 701 211 
Q 384 513 384 1019 
Q 384 1609 779 1909 
Q 1175 2209 1959 2209 
L 2766 2209 
L 2766 2266 
Q 2766 2663 2505 2880 
Q 2244 3097 1772 3097 
Q 1472 3097 1187 3025 
Q 903 2953 641 2809 
L 641 3341 
Q 956 3463 1253 3523 
Q 1550 3584 1831 3584 
Q 2591 3584 2966 3190 
Q 3341 2797 3341 1997 
z
" transform="scale(0.015625)"/>
       <path id="DejaVuSans-69" d="M 603 3500 
L 1178 3500 
L 1178 0 
L 603 0 
L 603 3500 
z
M 603 4863 
L 1178 4863 
L 1178 4134 
L 603 4134 
L 603 4863 
z
" transform="scale(0.015625)"/>
       <path id="DejaVuSans-20" transform="scale(0.015625)"/>
       <path id="DejaVuSans-6c" d="M 603 4863 
L 1178 4863 
L 1178 0 
L 603 0 
L 603 4863 
z
" transform="scale(0.015625)"/>
       <path id="DejaVuSans-65" d="M 3597 1894 
L 3597 1613 
L 953 1613 
Q 991 1019 1311 708 
Q 1631 397 2203 397 
Q 2534 397 2845 478 
Q 3156 559 3463 722 
L 3463 178 
Q 3153 47 2828 -22 
Q 2503 -91 2169 -91 
Q 1331 -91 842 396 
Q 353 884 353 1716 
Q 353 2575 817 3079 
Q 1281 3584 2069 3584 
Q 2775 3584 3186 3129 
Q 3597 2675 3597 1894 
z
M 3022 2063 
Q 3016 2534 2758 2815 
Q 2500 3097 2075 3097 
Q 1594 3097 1305 2825 
Q 1016 2553 972 2059 
L 3022 2063 
z
" transform="scale(0.015625)"/>
       <path id="DejaVuSans-76" d="M 191 3500 
L 800 3500 
L 1894 563 
L 2988 3500 
L 3597 3500 
L 2284 0 
L 1503 0 
L 191 3500 
z
" transform="scale(0.015625)"/>
       <path id="DejaVuSans-Oblique-63" d="M 3431 3366 
L 3316 2797 
Q 3109 2947 2876 3022 
Q 2644 3097 2394 3097 
Q 2119 3097 1870 3000 
Q 1622 2903 1453 2725 
Q 1184 2453 1037 2087 
Q 891 1722 891 1331 
Q 891 859 1127 628 
Q 1363 397 1844 397 
Q 2081 397 2348 469 
Q 2616 541 2906 684 
L 2797 116 
Q 2547 13 2283 -39 
Q 2019 -91 1741 -91 
Q 1044 -91 669 257 
Q 294 606 294 1253 
Q 294 1797 489 2255 
Q 684 2713 1069 3078 
Q 1331 3328 1684 3456 
Q 2038 3584 2456 3584 
Q 2700 3584 2940 3529 
Q 3181 3475 3431 3366 
z
" transform="scale(0.015625)"/>
      </defs>
      <use xlink:href="#DejaVuSans-43" transform="translate(0 0.015625)"/>
      <use xlink:href="#DejaVuSans-6f" transform="translate(69.824219 0.015625)"/>
      <use xlink:href="#DejaVuSans-6e" transform="translate(131.005859 0.015625)"/>
      <use xlink:href="#DejaVuSans-73" transform="translate(194.384766 0.015625)"/>
      <use xlink:href="#DejaVuSans-74" transform="translate(246.484375 0.015625)"/>
      <use xlink:href="#DejaVuSans-72" transform="translate(285.693359 0.015625)"/>
      <use xlink:href="#DejaVuSans-61" transform="translate(326.806641 0.015625)"/>
      <use xlink:href="#DejaVuSans-69" transform="translate(388.085938 0.015625)"/>
      <use xlink:href="#DejaVuSans-6e" transform="translate(415.869141 0.015625)"/>
      <use xlink:href="#DejaVuSans-74" transform="translate(479.248047 0.015625)"/>
      <use xlink:href="#DejaVuSans-20" transform="translate(518.457031 0.015625)"/>
      <use xlink:href="#DejaVuSans-6c" transform="translate(550.244141 0.015625)"/>
      <use xlink:href="#DejaVuSans-65" transform="translate(578.027344 0.015625)"/>
      <use xlink:href="#DejaVuSans-76" transform="translate(639.550781 0.015625)"/>
      <use xlink:href="#DejaVuSans-65" transform="translate(698.730469 0.015625)"/>
      <use xlink:href="#DejaVuSans-6c" transform="translate(760.253906 0.015625)"/>
      <use xlink:href="#DejaVuSans-20" transform="translate(788.037109 0.015625)"/>
      <use xlink:href="#DejaVuSans-Oblique-63" transform="translate(819.824219 0.015625)"/>
     </g>
    </g>
   </g>
   <g id="matplotlib.axis_2">
    <g id="ytick_1">
     <g id="line2d_9">
      <defs>
       <path id="mc8c67e3684" d="M 0 0 
L -3.5 0 
" style="stroke: #000000; stroke-width: 0.8"/>
      </defs>
      <g>
       <use xlink:href="#mc8c67e3684" x="44.749063" y="288.643388" style="stroke: #000000; stroke-width: 0.8"/>
      </g>
     </g>
     <g id="text_10">
      <!-- 3.0 -->
      <g transform="translate(21.845938 292.442607) scale(0.1 -0.1)">
       <use xlink:href="#DejaVuSans-33"/>
       <use xlink:href="#DejaVuSans-2e" transform="translate(63.623047 0)"/>
       <use xlink:href="#DejaVuSans-30" transform="translate(95.410156 0)"/>
      </g>
     </g>
    </g>
    <g id="ytick_2">
     <g id="line2d_10">
      <g>
       <use xlink:href="#mc8c67e3684" x="44.749063" y="240.755785" style="stroke: #000000; stroke-width: 0.8"/>
      </g>
     </g>
     <g id="text_11">
      <!-- 3.1 -->
      <g transform="translate(21.845938 244.555004) scale(0.1 -0.1)">
       <use xlink:href="#DejaVuSans-33"/>
       <use xlink:href="#DejaVuSans-2e" transform="translate(63.623047 0)"/>
       <use xlink:href="#DejaVuSans-31" transform="translate(95.410156 0)"/>
      </g>
     </g>
    </g>
    <g id="ytick_3">
     <g id="line2d_11">
      <g>
       <use xlink:href="#mc8c67e3684" x="44.749063" y="192.868182" style="stroke: #000000; stroke-width: 0.8"/>
      </g>
     </g>
     <g id="text_12">
      <!-- 3.2 -->
      <g transform="translate(21.845938 196.667401) scale(0.1 -0.1)">
       <use xlink:href="#DejaVuSans-33"/>
       <use xlink:href="#DejaVuSans-2e" transform="translate(63.623047 0)"/>
       <use xlink:href="#DejaVuSans-32" transform="translate(95.410156 0)"/>
      </g>
     </g>
    </g>
    <g id="ytick_4">
     <g id="line2d_12">
      <g>
       <use xlink:href="#mc8c67e3684" x="44.749063" y="144.980579" style="stroke: #000000; stroke-width: 0.8"/>
      </g>
     </g>
     <g id="text_13">
      <!-- 3.3 -->
      <g transform="translate(21.845938 148.779797) scale(0.1 -0.1)">
       <use xlink:href="#DejaVuSans-33"/>
       <use xlink:href="#DejaVuSans-2e" transform="translate(63.623047 0)"/>
       <use xlink:href="#DejaVuSans-33" transform="translate(95.410156 0)"/>
      </g>
     </g>
    </g>
    <g id="ytick_5">
     <g id="line2d_13">
      <g>
       <use xlink:href="#mc8c67e3684" x="44.749063" y="97.092975" style="stroke: #000000; stroke-width: 0.8"/>
      </g>
     </g>
     <g id="text_14">
      <!-- 3.4 -->
      <g transform="translate(21.845938 100.892194) scale(0.1 -0.1)">
       <use xlink:href="#DejaVuSans-33"/>
       <use xlink:href="#DejaVuSans-2e" transform="translate(63.623047 0)"/>
       <use xlink:href="#DejaVuSans-34" transform="translate(95.410156 0)"/>
      </g>
     </g>
    </g>
    <g id="ytick_6">
     <g id="line2d_14">
      <g>
       <use xlink:href="#mc8c67e3684" x="44.749063" y="49.205372" style="stroke: #000000; stroke-width: 0.8"/>
      </g>
     </g>
     <g id="text_15">
      <!-- 3.5 -->
      <g transform="translate(21.845938 53.004591) scale(0.1 -0.1)">
       <use xlink:href="#DejaVuSans-33"/>
       <use xlink:href="#DejaVuSans-2e" transform="translate(63.623047 0)"/>
       <use xlink:href="#DejaVuSans-35" transform="translate(95.410156 0)"/>
      </g>
     </g>
    </g>
    <g id="text_16">
     <!-- Péclet number Pe -->
     <g transform="translate(15.558281 214.58625) rotate(-90) scale(0.11 -0.11)">
      <defs>
       <path id="DejaVuSans-50" d="M 1259 4147 
L 1259 2394 
L 2053 2394 
Q 2494 2394 2734 2622 
Q 2975 2850 2975 3272 
Q 2975 3691 2734 3919 
Q 2494 4147 2053 4147 
L 1259 4147 
z
M 628 4666 
L 2053 4666 
Q 2838 4666 3239 4311 
Q 3641 3956 3641 3272 
Q 3641 2581 3239 2228 
Q 2838 1875 2053 1875 
L 1259 1875 
L 1259 0 
L 628 0 
L 628 4666 
z
" transform="scale(0.015625)"/>
       <path id="DejaVuSans-e9" d="M 3597 1894 
L 3597 1613 
L 953 1613 
Q 991 1019 1311 708 
Q 1631 397 2203 397 
Q 2534 397 2845 478 
Q 3156 559 3463 722 
L 3463 178 
Q 3153 47 2828 -22 
Q 2503 -91 2169 -91 
Q 1331 -91 842 396 
Q 353 884 353 1716 
Q 353 2575 817 3079 
Q 1281 3584 2069 3584 
Q 2775 3584 3186 3129 
Q 3597 2675 3597 1894 
z
M 3022 2063 
Q 3016 2534 2758 2815 
Q 2500 3097 2075 3097 
Q 1594 3097 1305 2825 
Q 1016 2553 972 2059 
L 3022 2063 
z
M 2466 5119 
L 3088 5119 
L 2070 3944 
L 1591 3944 
L 2466 5119 
z
" transform="scale(0.015625)"/>
       <path id="DejaVuSans-63" d="M 3122 3366 
L 3122 2828 
Q 2878 2963 2633 3030 
Q 2388 3097 2138 3097 
Q 1578 3097 1268 2742 
Q 959 2388 959 1747 
Q 959 1106 1268 751 
Q 1578 397 2138 397 
Q 2388 397 2633 464 
Q 2878 531 3122 666 
L 3122 134 
Q 2881 22 2623 -34 
Q 2366 -91 2075 -91 
Q 1284 -91 818 406 
Q 353 903 353 1747 
Q 353 2603 823 3093 
Q 1294 3584 2113 3584 
Q 2378 3584 2631 3529 
Q 2884 3475 3122 3366 
z
" transform="scale(0.015625)"/>
       <path id="DejaVuSans-75" d="M 544 1381 
L 544 3500 
L 1119 3500 
L 1119 1403 
Q 1119 906 1312 657 
Q 1506 409 1894 409 
Q 2359 409 2629 706 
Q 2900 1003 2900 1516 
L 2900 3500 
L 3475 3500 
L 3475 0 
L 2900 0 
L 2900 538 
Q 2691 219 2414 64 
Q 2138 -91 1772 -91 
Q 1169 -91 856 284 
Q 544 659 544 1381 
z
M 1991 3584 
L 1991 3584 
z
" transform="scale(0.015625)"/>
       <path id="DejaVuSans-6d" d="M 3328 2828 
Q 3544 3216 3844 3400 
Q 4144 3584 4550 3584 
Q 5097 3584 5394 3201 
Q 5691 2819 5691 2113 
L 5691 0 
L 5113 0 
L 5113 2094 
Q 5113 2597 4934 2840 
Q 4756 3084 4391 3084 
Q 3944 3084 3684 2787 
Q 3425 2491 3425 1978 
L 3425 0 
L 2847 0 
L 2847 2094 
Q 2847 2600 2669 2842 
Q 2491 3084 2119 3084 
Q 1678 3084 1418 2786 
Q 1159 2488 1159 1978 
L 1159 0 
L 581 0 
L 581 3500 
L 1159 3500 
L 1159 2956 
Q 1356 3278 1631 3431 
Q 1906 3584 2284 3584 
Q 2666 3584 2933 3390 
Q 3200 3197 3328 2828 
z
" transform="scale(0.015625)"/>
       <path id="DejaVuSans-62" d="M 3116 1747 
Q 3116 2381 2855 2742 
Q 2594 3103 2138 3103 
Q 1681 3103 1420 2742 
Q 1159 2381 1159 1747 
Q 1159 1113 1420 752 
Q 1681 391 2138 391 
Q 2594 391 2855 752 
Q 3116 1113 3116 1747 
z
M 1159 2969 
Q 1341 3281 1617 3432 
Q 1894 3584 2278 3584 
Q 2916 3584 3314 3078 
Q 3713 2572 3713 1747 
Q 3713 922 3314 415 
Q 2916 -91 2278 -91 
Q 1894 -91 1617 61 
Q 1341 213 1159 525 
L 1159 0 
L 581 0 
L 581 4863 
L 1159 4863 
L 1159 2969 
z
" transform="scale(0.015625)"/>
      </defs>
      <use xlink:href="#DejaVuSans-50"/>
      <use xlink:href="#DejaVuSans-e9" transform="translate(56.677734 0)"/>
      <use xlink:href="#DejaVuSans-63" transform="translate(118.201172 0)"/>
      <use xlink:href="#DejaVuSans-6c" transform="translate(173.181641 0)"/>
      <use xlink:href="#DejaVuSans-65" transform="translate(200.964844 0)"/>
      <use xlink:href="#DejaVuSans-74" transform="translate(262.488281 0)"/>
      <use xlink:href="#DejaVuSans-20" transform="translate(301.697266 0)"/>
      <use xlink:href="#DejaVuSans-6e" transform="translate(333.484375 0)"/>
      <use xlink:href="#DejaVuSans-75" transform="translate(396.863281 0)"/>
      <use xlink:href="#DejaVuSans-6d" transform="translate(460.242188 0)"/>
      <use xlink:href="#DejaVuSans-62" transform="translate(557.654297 0)"/>
      <use xlink:href="#DejaVuSans-65" transform="translate(621.130859 0)"/>
      <use xlink:href="#DejaVuSans-72" transform="translate(682.654297 0)"/>
      <use xlink:href="#DejaVuSans-20" transform="translate(723.767578 0)"/>
      <use xlink:href="#DejaVuSans-50" transform="translate(755.554688 0)"/>
      <use xlink:href="#DejaVuSans-65" transform="translate(812.232422 0)"/>
     </g>
    </g>
   </g>
   <g id="line2d_15">
    <path d="M 62.224062 34.839091 
L 65.754366 37.508598 
L 69.284669 40.17791 
L 72.814972 42.847027 
L 76.345275 45.515949 
L 79.875578 48.184676 
L 83.405881 50.85321 
L 86.936184 53.52155 
L 90.466487 56.189696 
L 93.99679 58.857648 
L 97.527093 61.525408 
L 101.057396 64.192976 
L 104.587699 66.860351 
L 108.118002 69.527534 
L 111.648305 72.194525 
L 115.178608 74.861325 
L 118.708911 77.527934 
L 122.239214 80.194353 
L 125.769517 82.86058 
L 129.29982 85.526618 
L 132.830123 88.192466 
L 136.360426 90.858124 
L 139.890729 93.523594 
L 143.421032 96.188874 
L 146.951335 98.853965 
L 150.481638 101.518869 
L 154.011941 104.183584 
L 157.542244 106.848112 
L 161.072547 109.512452 
L 164.60285 112.176606 
L 168.133153 114.840572 
L 171.663456 117.504353 
L 175.193759 120.167947 
L 178.724062 122.831355 
L 182.254366 125.494578 
L 185.784669 128.157615 
L 189.314972 130.820468 
L 192.845275 133.483136 
L 196.375578 136.14562 
L 199.905881 138.80792 
L 203.436184 141.470036 
L 206.966487 144.131969 
L 210.49679 146.793719 
L 214.027093 149.455286 
L 217.557396 152.116671 
L 221.087699 154.777873 
L 224.618002 157.438894 
L 228.148305 160.099733 
L 231.678608 162.760391 
L 235.208911 165.420869 
L 238.739214 168.081165 
L 242.269517 170.741282 
L 245.79982 173.401218 
L 249.330123 176.060975 
L 252.860426 178.720552 
L 256.390729 181.379951 
L 259.921032 184.03917 
L 263.451335 186.698212 
L 266.981638 189.357075 
L 270.511941 192.01576 
L 274.042244 194.674268 
L 277.572547 197.332599 
L 281.10285 199.990753 
L 284.633153 202.64873 
L 288.163456 205.306531 
L 291.693759 207.964156 
L 295.224063 210.621605 
L 298.754366 213.278879 
L 302.284669 215.935978 
L 305.814972 218.592903 
L 309.345275 221.249652 
L 312.875578 223.906228 
L 316.405881 226.56263 
L 319.936184 229.218859 
L 323.466487 231.874914 
L 326.99679 234.530796 
L 330.527093 237.186506 
L 334.057396 239.842044 
L 337.587699 242.497409 
L 341.118002 245.152603 
L 344.648305 247.807626 
L 348.178608 250.462477 
L 351.708911 253.117158 
L 355.239214 255.771669 
L 358.769517 258.426009 
L 362.29982 261.080179 
L 365.830123 263.73418 
L 369.360426 266.388012 
L 372.890729 269.041675 
L 376.421032 271.69517 
L 379.951335 274.348496 
L 383.481638 277.001654 
L 387.011941 279.654644 
L 390.542244 282.307467 
L 394.072547 284.960124 
L 397.60285 287.612613 
L 401.133153 290.264936 
L 404.663456 292.917093 
L 408.193759 295.569084 
L 411.724062 298.220909 
" clip-path="url(#pee87c96296)" style="fill: none; stroke: #0000ff; stroke-width: 2; stroke-linecap: square"/>
   </g>
   <g id="patch_3">
    <path d="M 44.749063 311.39 
L 44.749063 21.67 
" style="fill: none; stroke: #000000; stroke-width: 0.8; stroke-linejoin: miter; stroke-linecap: square"/>
   </g>
   <g id="patch_4">
    <path d="M 429.199063 311.39 
L 429.199063 21.67 
" style="fill: none; stroke: #000000; stroke-width: 0.8; stroke-linejoin: miter; stroke-linecap: square"/>
   </g>
   <g id="patch_5">
    <path d="M 44.749062 311.39 
L 429.199062 311.39 
" style="fill: none; stroke: #000000; stroke-width: 0.8; stroke-linejoin: miter; stroke-linecap: square"/>
   </g>
   <g id="patch_6">
    <path d="M 44.749062 21.67 
L 429.199062 21.67 
" style="fill: none; stroke: #000000; stroke-width: 0.8; stroke-linejoin: miter; stroke-linecap: square"/>
   </g>
   <g id="text_17">
    <!-- Analytic Pe: bull→bear constraint ramp -->
    <g transform="translate(130.190703 15.67) scale(0.11 -0.11)">
     <defs>
      <path id="DejaVuSans-41" d="M 2188 4044 
L 1331 1722 
L 3047 1722 
L 2188 4044 
z
M 1831 4666 
L 2547 4666 
L 4325 0 
L 3669 0 
L 3244 1197 
L 1141 1197 
L 716 0 
L 50 0 
L 1831 4666 
z
" transform="scale(0.015625)"/>
      <path id="DejaVuSans-79" d="M 2059 -325 
Q 1816 -950 1584 -1140 
Q 1353 -1331 966 -1331 
L 506 -1331 
L 506 -850 
L 844 -850 
Q 1081 -850 1212 -737 
Q 1344 -625 1503 -206 
L 1606 56 
L 191 3500 
L 800 3500 
L 1894 763 
L 2988 3500 
L 3597 3500 
L 2059 -325 
z
" transform="scale(0.015625)"/>
      <path id="DejaVuSans-3a" d="M 750 794 
L 1409 794 
L 1409 0 
L 750 0 
L 750 794 
z
M 750 3309 
L 1409 3309 
L 1409 2516 
L 750 2516 
L 750 3309 
z
" transform="scale(0.015625)"/>
      <path id="DejaVuSans-2192" d="M 5050 2147 
L 5050 1866 
L 3822 638 
L 3447 1013 
L 4175 1741 
L 366 1741 
L 366 2272 
L 4175 2272 
L 3447 3000 
L 3822 3375 
L 5050 2147 
z
" transform="scale(0.015625)"/>
      <path id="DejaVuSans-70" d="M 1159 525 
L 1159 -1331 
L 581 -1331 
L 581 3500 
L 1159 3500 
L 1159 2969 
Q 1341 3281 1617 3432 
Q 1894 3584 2278 3584 
Q 2916 3584 3314 3078 
Q 3713 2572 3713 1747 
Q 3713 922 3314 415 
Q 2916 -91 2278 -91 
Q 1894 -91 1617 61 
Q 1341 213 1159 525 
z
M 3116 1747 
Q 3116 2381 2855 2742 
Q 2594 3103 2138 3103 
Q 1681 3103 1420 2742 
Q 1159 2381 1159 1747 
Q 1159 1113 1420 752 
Q 1681 391 2138 391 
Q 2594 391 2855 752 
Q 3116 1113 3116 1747 
z
" transform="scale(0.015625)"/>
     </defs>
     <use xlink:href="#DejaVuSans-41"/>
     <use xlink:href="#DejaVuSans-6e" transform="translate(68.408203 0)"/>
     <use xlink:href="#DejaVuSans-61" transform="translate(131.787109 0)"/>
     <use xlink:href="#DejaVuSans-6c" transform="translate(193.066406 0)"/>
     <use xlink:href="#DejaVuSans-79" transform="translate(220.849609 0)"/>
     <use xlink:href="#DejaVuSans-74" transform="translate(280.029297 0)"/>
     <use xlink:href="#DejaVuSans-69" transform="translate(319.238281 0)"/>
     <use xlink:href="#DejaVuSans-63" transform="translate(347.021484 0)"/>
     <use xlink:href="#DejaVuSans-20" transform="translate(402.001953 0)"/>
     <use xlink:href="#DejaVuSans-50" transform="translate(433.789062 0)"/>
     <use xlink:href="#DejaVuSans-65" transform="translate(490.466797 0)"/>
     <use xlink:href="#DejaVuSans-3a" transform="translate(551.990234 0)"/>
     <use xlink:href="#DejaVuSans-20" transform="translate(585.681641 0)"/>
     <use xlink:href="#DejaVuSans-62" transform="translate(617.46875 0)"/>
     <use xlink:href="#DejaVuSans-75" transform="translate(680.945312 0)"/>
     <use xlink:href="#DejaVuSans-6c" transform="translate(744.324219 0)"/>
     <use xlink:href="#DejaVuSans-6c" transform="translate(772.107422 0)"/>
     <use xlink:href="#DejaVuSans-2192" transform="translate(799.890625 0)"/>
     <use xlink:href="#DejaVuSans-62" transform="translate(883.679688 0)"/>
     <use xlink:href="#DejaVuSans-65" transform="translate(947.15625 0)"/>
     <use xlink:href="#DejaVuSans-61" transform="translate(1008.679688 0)"/>
     <use xlink:href="#DejaVuSans-72" transform="translate(1069.958984 0)"/>
     <use xlink:href="#DejaVuSans-20" transform="translate(1111.072266 0)"/>
     <use xlink:href="#DejaVuSans-63" transform="translate(1142.859375 0)"/>
     <use xlink:href="#DejaVuSans-6f" transform="translate(1197.839844 0)"/>
     <use xlink:href="#DejaVuSans-6e" transform="translate(1259.021484 0)"/>
     <use xlink:href="#DejaVuSans-73" transform="translate(1322.400391 0)"/>
     <use xlink:href="#DejaVuSans-74" transform="translate(1374.5 0)"/>
     <use xlink:href="#DejaVuSans-72" transform="translate(1413.708984 0)"/>
     <use xlink:href="#DejaVuSans-61" transform="translate(1454.822266 0)"/>
     <use xlink:href="#DejaVuSans-69" transform="translate(1516.101562 0)"/>
     <use xlink:href="#DejaVuSans-6e" transform="translate(1543.884766 0)"/>
     <use xlink:href="#DejaVuSans-74" transform="translate(1607.263672 0)"/>
     <use xlink:href="#DejaVuSans-20" transform="translate(1646.472656 0)"/>
     <use xlink:href="#DejaVuSans-72" transform="translate(1678.259766 0)"/>
     <use xlink:href="#DejaVuSans-61" transform="translate(1719.373047 0)"/>
     <use xlink:href="#DejaVuSans-6d" transform="translate(1780.652344 0)"/>
     <use xlink:href="#DejaVuSans-70" transform="translate(1878.064453 0)"/>
    </g>
   </g>
   <g id="legend_1">
    <g id="patch_7">
     <path d="M 329.231563 68.500937 
L 422.899063 68.500937 
Q 424.699063 68.500937 424.699063 66.700937 
L 424.699063 27.97 
Q 424.699063 26.17 422.899063 26.17 
L 329.231563 26.17 
Q 327.431563 26.17 327.431563 27.97 
L 327.431563 66.700937 
Q 327.431563 68.500937 329.231563 68.500937 
z
" style="fill: #ffffff; opacity: 0.8; stroke: #cccccc; stroke-linejoin: miter"/>
    </g>
    <g id="line2d_16">
     <path d="M 331.031563 33.458594 
L 340.031563 33.458594 
L 349.031563 33.458594 
" style="fill: none; stroke: #0000ff; stroke-width: 2; stroke-linecap: square"/>
    </g>
    <g id="text_18">
     <!-- Analytic Pe(c) -->
     <g transform="translate(356.231563 36.608594) scale(0.09 -0.09)">
      <defs>
       <path id="DejaVuSans-28" d="M 1984 4856 
Q 1566 4138 1362 3434 
Q 1159 2731 1159 2009 
Q 1159 1288 1364 580 
Q 1569 -128 1984 -844 
L 1484 -844 
Q 1016 -109 783 600 
Q 550 1309 550 2009 
Q 550 2706 781 3412 
Q 1013 4119 1484 4856 
L 1984 4856 
z
" transform="scale(0.015625)"/>
       <path id="DejaVuSans-29" d="M 513 4856 
L 1013 4856 
Q 1481 4119 1714 3412 
Q 1947 2706 1947 2009 
Q 1947 1309 1714 600 
Q 1481 -109 1013 -844 
L 513 -844 
Q 928 -128 1133 580 
Q 1338 1288 1338 2009 
Q 1338 2731 1133 3434 
Q 928 4138 513 4856 
z
" transform="scale(0.015625)"/>
      </defs>
      <use xlink:href="#DejaVuSans-41"/>
      <use xlink:href="#DejaVuSans-6e" transform="translate(68.408203 0)"/>
      <use xlink:href="#DejaVuSans-61" transform="translate(131.787109 0)"/>
      <use xlink:href="#DejaVuSans-6c" transform="translate(193.066406 0)"/>
      <use xlink:href="#DejaVuSans-79" transform="translate(220.849609 0)"/>
      <use xlink:href="#DejaVuSans-74" transform="translate(280.029297 0)"/>
      <use xlink:href="#DejaVuSans-69" transform="translate(319.238281 0)"/>
      <use xlink:href="#DejaVuSans-63" transform="translate(347.021484 0)"/>
      <use xlink:href="#DejaVuSans-20" transform="translate(402.001953 0)"/>
      <use xlink:href="#DejaVuSans-50" transform="translate(433.789062 0)"/>
      <use xlink:href="#DejaVuSans-65" transform="translate(490.466797 0)"/>
      <use xlink:href="#DejaVuSans-28" transform="translate(551.990234 0)"/>
      <use xlink:href="#DejaVuSans-63" transform="translate(591.003906 0)"/>
      <use xlink:href="#DejaVuSans-29" transform="translate(645.984375 0)"/>
     </g>
    </g>
    <g id="PathCollection_1">
     <defs>
      <path id="m42ac65ca05" d="M 0 5.477226 
C 1.452577 5.477226 2.845856 4.900111 3.872983 3.872983 
C 4.900111 2.845856 5.477226 1.452577 5.477226 0 
C 5.477226 -1.452577 4.900111 -2.845856 3.872983 -3.872983 
C 2.845856 -4.900111 1.452577 -5.477226 0 -5.477226 
C -1.452577 -5.477226 -2.845856 -4.900111 -3.872983 -3.872983 
C -4.900111 -2.845856 -5.477226 -1.452577 -5.477226 0 
C -5.477226 1.452577 -4.900111 2.845856 -3.872983 3.872983 
C -2.845856 4.900111 -1.452577 5.477226 0 5.477226 
z
" style="stroke: #000000"/>
     </defs>
     <g>
      <use xlink:href="#m42ac65ca05" x="340.031563" y="47.456406" style="fill: #ffd700; stroke: #000000"/>
     </g>
    </g>
    <g id="text_19">
     <!-- Bull  Pe=3.53 -->
     <g transform="translate(356.231563 49.818906) scale(0.09 -0.09)">
      <defs>
       <path id="DejaVuSans-42" d="M 1259 2228 
L 1259 519 
L 2272 519 
Q 2781 519 3026 730 
Q 3272 941 3272 1375 
Q 3272 1813 3026 2020 
Q 2781 2228 2272 2228 
L 1259 2228 
z
M 1259 4147 
L 1259 2741 
L 2194 2741 
Q 2656 2741 2882 2914 
Q 3109 3088 3109 3444 
Q 3109 3797 2882 3972 
Q 2656 4147 2194 4147 
L 1259 4147 
z
M 628 4666 
L 2241 4666 
Q 2963 4666 3353 4366 
Q 3744 4066 3744 3513 
Q 3744 3084 3544 2831 
Q 3344 2578 2956 2516 
Q 3422 2416 3680 2098 
Q 3938 1781 3938 1306 
Q 3938 681 3513 340 
Q 3088 0 2303 0 
L 628 0 
L 628 4666 
z
" transform="scale(0.015625)"/>
       <path id="DejaVuSans-3d" d="M 678 2906 
L 4684 2906 
L 4684 2381 
L 678 2381 
L 678 2906 
z
M 678 1631 
L 4684 1631 
L 4684 1100 
L 678 1100 
L 678 1631 
z
" transform="scale(0.015625)"/>
      </defs>
      <use xlink:href="#DejaVuSans-42"/>
      <use xlink:href="#DejaVuSans-75" transform="translate(68.603516 0)"/>
      <use xlink:href="#DejaVuSans-6c" transform="translate(131.982422 0)"/>
      <use xlink:href="#DejaVuSans-6c" transform="translate(159.765625 0)"/>
      <use xlink:href="#DejaVuSans-20" transform="translate(187.548828 0)"/>
      <use xlink:href="#DejaVuSans-20" transform="translate(219.335938 0)"/>
      <use xlink:href="#DejaVuSans-50" transform="translate(251.123047 0)"/>
      <use xlink:href="#DejaVuSans-65" transform="translate(307.800781 0)"/>
      <use xlink:href="#DejaVuSans-3d" transform="translate(369.324219 0)"/>
      <use xlink:href="#DejaVuSans-33" transform="translate(453.113281 0)"/>
      <use xlink:href="#DejaVuSans-2e" transform="translate(516.736328 0)"/>
      <use xlink:href="#DejaVuSans-35" transform="translate(548.523438 0)"/>
      <use xlink:href="#DejaVuSans-33" transform="translate(612.146484 0)"/>
     </g>
    </g>
    <g id="PathCollection_2">
     <defs>
      <path id="m4850613b03" d="M 0 5.477226 
C 1.452577 5.477226 2.845856 4.900111 3.872983 3.872983 
C 4.900111 2.845856 5.477226 1.452577 5.477226 0 
C 5.477226 -1.452577 4.900111 -2.845856 3.872983 -3.872983 
C 2.845856 -4.900111 1.452577 -5.477226 0 -5.477226 
C -1.452577 -5.477226 -2.845856 -4.900111 -3.872983 -3.872983 
C -4.900111 -2.845856 -5.477226 -1.452577 -5.477226 0 
C -5.477226 1.452577 -4.900111 2.845856 -3.872983 3.872983 
C -2.845856 4.900111 -1.452577 5.477226 0 5.477226 
z
" style="stroke: #000000"/>
     </defs>
     <g>
      <use xlink:href="#m4850613b03" x="340.031563" y="60.666719" style="fill: #4682b4; stroke: #000000"/>
     </g>
    </g>
    <g id="text_20">
     <!-- Bear  Pe=2.98 -->
     <g transform="translate(356.231563 63.029219) scale(0.09 -0.09)">
      <use xlink:href="#DejaVuSans-42"/>
      <use xlink:href="#DejaVuSans-65" transform="translate(68.603516 0)"/>
      <use xlink:href="#DejaVuSans-61" transform="translate(130.126953 0)"/>
      <use xlink:href="#DejaVuSans-72" transform="translate(191.40625 0)"/>
      <use xlink:href="#DejaVuSans-20" transform="translate(232.519531 0)"/>
      <use xlink:href="#DejaVuSans-20" transform="translate(264.306641 0)"/>
      <use xlink:href="#DejaVuSans-50" transform="translate(296.09375 0)"/>
      <use xlink:href="#DejaVuSans-65" transform="translate(352.771484 0)"/>
      <use xlink:href="#DejaVuSans-3d" transform="translate(414.294922 0)"/>
      <use xlink:href="#DejaVuSans-32" transform="translate(498.083984 0)"/>
      <use xlink:href="#DejaVuSans-2e" transform="translate(561.707031 0)"/>
      <use xlink:href="#DejaVuSans-39" transform="translate(593.494141 0)"/>
      <use xlink:href="#DejaVuSans-38" transform="translate(657.117188 0)"/>
     </g>
    </g>
   </g>
   <g id="PathCollection_3">
    <g clip-path="url(#pee87c96296)">
     <use xlink:href="#m42ac65ca05" x="62.224062" y="34.839091" style="fill: #ffd700; stroke: #000000"/>
    </g>
   </g>
   <g id="PathCollection_4">
    <g clip-path="url(#pee87c96296)">
     <use xlink:href="#m4850613b03" x="411.724062" y="298.220909" style="fill: #4682b4; stroke: #000000"/>
    </g>
   </g>
  </g>
  <g id="axes_2">
   <g id="patch_8">
    <path d="M 486.819063 311.39 
L 871.269063 311.39 
L 871.269063 21.67 
L 486.819063 21.67 
z
" style="fill: #ffffff"/>
   </g>
   <g id="matplotlib.axis_3">
    <g id="xtick_9">
     <g id="line2d_17">
      <g>
       <use xlink:href="#mb3ca8354f1" x="504.294063" y="311.39" style="stroke: #000000; stroke-width: 0.8"/>
      </g>
     </g>
     <g id="text_21">
      <!-- 0 -->
      <g transform="translate(501.112813 325.988437) scale(0.1 -0.1)">
       <use xlink:href="#DejaVuSans-30"/>
      </g>
     </g>
    </g>
    <g id="xtick_10">
     <g id="line2d_18">
      <g>
       <use xlink:href="#mb3ca8354f1" x="574.900123" y="311.39" style="stroke: #000000; stroke-width: 0.8"/>
      </g>
     </g>
     <g id="text_22">
      <!-- 20 -->
      <g transform="translate(568.537623 325.988437) scale(0.1 -0.1)">
       <use xlink:href="#DejaVuSans-32"/>
       <use xlink:href="#DejaVuSans-30" transform="translate(63.623047 0)"/>
      </g>
     </g>
    </g>
    <g id="xtick_11">
     <g id="line2d_19">
      <g>
       <use xlink:href="#mb3ca8354f1" x="645.506184" y="311.39" style="stroke: #000000; stroke-width: 0.8"/>
      </g>
     </g>
     <g id="text_23">
      <!-- 40 -->
      <g transform="translate(639.143684 325.988437) scale(0.1 -0.1)">
       <use xlink:href="#DejaVuSans-34"/>
       <use xlink:href="#DejaVuSans-30" transform="translate(63.623047 0)"/>
      </g>
     </g>
    </g>
    <g id="xtick_12">
     <g id="line2d_20">
      <g>
       <use xlink:href="#mb3ca8354f1" x="716.112244" y="311.39" style="stroke: #000000; stroke-width: 0.8"/>
      </g>
     </g>
     <g id="text_24">
      <!-- 60 -->
      <g transform="translate(709.749744 325.988437) scale(0.1 -0.1)">
       <defs>
        <path id="DejaVuSans-36" d="M 2113 2584 
Q 1688 2584 1439 2293 
Q 1191 2003 1191 1497 
Q 1191 994 1439 701 
Q 1688 409 2113 409 
Q 2538 409 2786 701 
Q 3034 994 3034 1497 
Q 3034 2003 2786 2293 
Q 2538 2584 2113 2584 
z
M 3366 4563 
L 3366 3988 
Q 3128 4100 2886 4159 
Q 2644 4219 2406 4219 
Q 1781 4219 1451 3797 
Q 1122 3375 1075 2522 
Q 1259 2794 1537 2939 
Q 1816 3084 2150 3084 
Q 2853 3084 3261 2657 
Q 3669 2231 3669 1497 
Q 3669 778 3244 343 
Q 2819 -91 2113 -91 
Q 1303 -91 875 529 
Q 447 1150 447 2328 
Q 447 3434 972 4092 
Q 1497 4750 2381 4750 
Q 2619 4750 2861 4703 
Q 3103 4656 3366 4563 
z
" transform="scale(0.015625)"/>
       </defs>
       <use xlink:href="#DejaVuSans-36"/>
       <use xlink:href="#DejaVuSans-30" transform="translate(63.623047 0)"/>
      </g>
     </g>
    </g>
    <g id="xtick_13">
     <g id="line2d_21">
      <g>
       <use xlink:href="#mb3ca8354f1" x="786.718305" y="311.39" style="stroke: #000000; stroke-width: 0.8"/>
      </g>
     </g>
     <g id="text_25">
      <!-- 80 -->
      <g transform="translate(780.355805 325.988437) scale(0.1 -0.1)">
       <use xlink:href="#DejaVuSans-38"/>
       <use xlink:href="#DejaVuSans-30" transform="translate(63.623047 0)"/>
      </g>
     </g>
    </g>
    <g id="xtick_14">
     <g id="line2d_22">
      <g>
       <use xlink:href="#mb3ca8354f1" x="857.324366" y="311.39" style="stroke: #000000; stroke-width: 0.8"/>
      </g>
     </g>
     <g id="text_26">
      <!-- 100 -->
      <g transform="translate(847.780616 325.988437) scale(0.1 -0.1)">
       <use xlink:href="#DejaVuSans-31"/>
       <use xlink:href="#DejaVuSans-30" transform="translate(63.623047 0)"/>
       <use xlink:href="#DejaVuSans-30" transform="translate(127.246094 0)"/>
      </g>
     </g>
    </g>
    <g id="text_27">
     <!-- Round -->
     <g transform="translate(661.641719 340.426406) scale(0.11 -0.11)">
      <defs>
       <path id="DejaVuSans-52" d="M 2841 2188 
Q 3044 2119 3236 1894 
Q 3428 1669 3622 1275 
L 4263 0 
L 3584 0 
L 2988 1197 
Q 2756 1666 2539 1819 
Q 2322 1972 1947 1972 
L 1259 1972 
L 1259 0 
L 628 0 
L 628 4666 
L 2053 4666 
Q 2853 4666 3247 4331 
Q 3641 3997 3641 3322 
Q 3641 2881 3436 2590 
Q 3231 2300 2841 2188 
z
M 1259 4147 
L 1259 2491 
L 2053 2491 
Q 2509 2491 2742 2702 
Q 2975 2913 2975 3322 
Q 2975 3731 2742 3939 
Q 2509 4147 2053 4147 
L 1259 4147 
z
" transform="scale(0.015625)"/>
       <path id="DejaVuSans-64" d="M 2906 2969 
L 2906 4863 
L 3481 4863 
L 3481 0 
L 2906 0 
L 2906 525 
Q 2725 213 2448 61 
Q 2172 -91 1784 -91 
Q 1150 -91 751 415 
Q 353 922 353 1747 
Q 353 2572 751 3078 
Q 1150 3584 1784 3584 
Q 2172 3584 2448 3432 
Q 2725 3281 2906 2969 
z
M 947 1747 
Q 947 1113 1208 752 
Q 1469 391 1925 391 
Q 2381 391 2643 752 
Q 2906 1113 2906 1747 
Q 2906 2381 2643 2742 
Q 2381 3103 1925 3103 
Q 1469 3103 1208 2742 
Q 947 2381 947 1747 
z
" transform="scale(0.015625)"/>
      </defs>
      <use xlink:href="#DejaVuSans-52"/>
      <use xlink:href="#DejaVuSans-6f" transform="translate(64.982422 0)"/>
      <use xlink:href="#DejaVuSans-75" transform="translate(126.164062 0)"/>
      <use xlink:href="#DejaVuSans-6e" transform="translate(189.542969 0)"/>
      <use xlink:href="#DejaVuSans-64" transform="translate(252.921875 0)"/>
     </g>
    </g>
   </g>
   <g id="matplotlib.axis_4">
    <g id="ytick_7">
     <g id="line2d_23">
      <g>
       <use xlink:href="#mc8c67e3684" x="486.819063" y="292.593137" style="stroke: #000000; stroke-width: 0.8"/>
      </g>
     </g>
     <g id="text_28">
      <!-- 0.44 -->
      <g transform="translate(457.553438 296.392355) scale(0.1 -0.1)">
       <use xlink:href="#DejaVuSans-30"/>
       <use xlink:href="#DejaVuSans-2e" transform="translate(63.623047 0)"/>
       <use xlink:href="#DejaVuSans-34" transform="translate(95.410156 0)"/>
       <use xlink:href="#DejaVuSans-34" transform="translate(159.033203 0)"/>
      </g>
     </g>
    </g>
    <g id="ytick_8">
     <g id="line2d_24">
      <g>
       <use xlink:href="#mc8c67e3684" x="486.819063" y="247.570956" style="stroke: #000000; stroke-width: 0.8"/>
      </g>
     </g>
     <g id="text_29">
      <!-- 0.46 -->
      <g transform="translate(457.553438 251.370175) scale(0.1 -0.1)">
       <use xlink:href="#DejaVuSans-30"/>
       <use xlink:href="#DejaVuSans-2e" transform="translate(63.623047 0)"/>
       <use xlink:href="#DejaVuSans-34" transform="translate(95.410156 0)"/>
       <use xlink:href="#DejaVuSans-36" transform="translate(159.033203 0)"/>
      </g>
     </g>
    </g>
    <g id="ytick_9">
     <g id="line2d_25">
      <g>
       <use xlink:href="#mc8c67e3684" x="486.819063" y="202.548776" style="stroke: #000000; stroke-width: 0.8"/>
      </g>
     </g>
     <g id="text_30">
      <!-- 0.48 -->
      <g transform="translate(457.553438 206.347995) scale(0.1 -0.1)">
       <use xlink:href="#DejaVuSans-30"/>
       <use xlink:href="#DejaVuSans-2e" transform="translate(63.623047 0)"/>
       <use xlink:href="#DejaVuSans-34" transform="translate(95.410156 0)"/>
       <use xlink:href="#DejaVuSans-38" transform="translate(159.033203 0)"/>
      </g>
     </g>
    </g>
    <g id="ytick_10">
     <g id="line2d_26">
      <g>
       <use xlink:href="#mc8c67e3684" x="486.819063" y="157.526596" style="stroke: #000000; stroke-width: 0.8"/>
      </g>
     </g>
     <g id="text_31">
      <!-- 0.50 -->
      <g transform="translate(457.553438 161.325814) scale(0.1 -0.1)">
       <use xlink:href="#DejaVuSans-30"/>
       <use xlink:href="#DejaVuSans-2e" transform="translate(63.623047 0)"/>
       <use xlink:href="#DejaVuSans-35" transform="translate(95.410156 0)"/>
       <use xlink:href="#DejaVuSans-30" transform="translate(159.033203 0)"/>
      </g>
     </g>
    </g>
    <g id="ytick_11">
     <g id="line2d_27">
      <g>
       <use xlink:href="#mc8c67e3684" x="486.819063" y="112.504415" style="stroke: #000000; stroke-width: 0.8"/>
      </g>
     </g>
     <g id="text_32">
      <!-- 0.52 -->
      <g transform="translate(457.553438 116.303634) scale(0.1 -0.1)">
       <use xlink:href="#DejaVuSans-30"/>
       <use xlink:href="#DejaVuSans-2e" transform="translate(63.623047 0)"/>
       <use xlink:href="#DejaVuSans-35" transform="translate(95.410156 0)"/>
       <use xlink:href="#DejaVuSans-32" transform="translate(159.033203 0)"/>
      </g>
     </g>
    </g>
    <g id="ytick_12">
     <g id="line2d_28">
      <g>
       <use xlink:href="#mc8c67e3684" x="486.819063" y="67.482235" style="stroke: #000000; stroke-width: 0.8"/>
      </g>
     </g>
     <g id="text_33">
      <!-- 0.54 -->
      <g transform="translate(457.553438 71.281454) scale(0.1 -0.1)">
       <use xlink:href="#DejaVuSans-30"/>
       <use xlink:href="#DejaVuSans-2e" transform="translate(63.623047 0)"/>
       <use xlink:href="#DejaVuSans-35" transform="translate(95.410156 0)"/>
       <use xlink:href="#DejaVuSans-34" transform="translate(159.033203 0)"/>
      </g>
     </g>
    </g>
    <g id="ytick_13">
     <g id="line2d_29">
      <g>
       <use xlink:href="#mc8c67e3684" x="486.819063" y="22.460055" style="stroke: #000000; stroke-width: 0.8"/>
      </g>
     </g>
     <g id="text_34">
      <!-- 0.56 -->
      <g transform="translate(457.553438 26.259273) scale(0.1 -0.1)">
       <use xlink:href="#DejaVuSans-30"/>
       <use xlink:href="#DejaVuSans-2e" transform="translate(63.623047 0)"/>
       <use xlink:href="#DejaVuSans-35" transform="translate(95.410156 0)"/>
       <use xlink:href="#DejaVuSans-36" transform="translate(159.033203 0)"/>
      </g>
     </g>
    </g>
    <g id="text_35">
     <!-- $\theta$ (order parameter) -->
     <g transform="translate(451.243438 221.53) rotate(-90) scale(0.11 -0.11)">
      <defs>
       <path id="DejaVuSans-Oblique-3b8" d="M 2913 2219 
L 925 2219 
Q 791 1284 928 888 
Q 1100 400 1566 400 
Q 2034 400 2391 891 
Q 2703 1322 2913 2219 
z
M 3009 2750 
Q 3094 3638 2984 3950 
Q 2813 4444 2353 4444 
Q 1875 4444 1525 3956 
Q 1250 3563 1034 2750 
L 3009 2750 
z
M 2444 4913 
Q 3194 4913 3494 4250 
Q 3794 3591 3566 2422 
Q 3341 1256 2781 594 
Q 2225 -72 1475 -72 
Q 722 -72 425 594 
Q 128 1256 353 2422 
Q 581 3591 1134 4250 
Q 1691 4913 2444 4913 
z
" transform="scale(0.015625)"/>
      </defs>
      <use xlink:href="#DejaVuSans-Oblique-3b8" transform="translate(0 0.234375)"/>
      <use xlink:href="#DejaVuSans-20" transform="translate(61.181641 0.234375)"/>
      <use xlink:href="#DejaVuSans-28" transform="translate(92.96875 0.234375)"/>
      <use xlink:href="#DejaVuSans-6f" transform="translate(131.982422 0.234375)"/>
      <use xlink:href="#DejaVuSans-72" transform="translate(193.164062 0.234375)"/>
      <use xlink:href="#DejaVuSans-64" transform="translate(234.277344 0.234375)"/>
      <use xlink:href="#DejaVuSans-65" transform="translate(297.753906 0.234375)"/>
      <use xlink:href="#DejaVuSans-72" transform="translate(359.277344 0.234375)"/>
      <use xlink:href="#DejaVuSans-20" transform="translate(400.390625 0.234375)"/>
      <use xlink:href="#DejaVuSans-70" transform="translate(432.177734 0.234375)"/>
      <use xlink:href="#DejaVuSans-61" transform="translate(495.654297 0.234375)"/>
      <use xlink:href="#DejaVuSans-72" transform="translate(556.933594 0.234375)"/>
      <use xlink:href="#DejaVuSans-61" transform="translate(598.046875 0.234375)"/>
      <use xlink:href="#DejaVuSans-6d" transform="translate(659.326172 0.234375)"/>
      <use xlink:href="#DejaVuSans-65" transform="translate(756.738281 0.234375)"/>
      <use xlink:href="#DejaVuSans-74" transform="translate(818.261719 0.234375)"/>
      <use xlink:href="#DejaVuSans-65" transform="translate(857.470703 0.234375)"/>
      <use xlink:href="#DejaVuSans-72" transform="translate(918.994141 0.234375)"/>
      <use xlink:href="#DejaVuSans-29" transform="translate(960.107422 0.234375)"/>
     </g>
    </g>
   </g>
   <g id="line2d_30">
    <path d="M 504.294063 298.220909 
L 507.824366 298.220909 
L 511.354669 298.220909 
L 514.884972 298.220909 
L 518.415275 298.220909 
L 521.945578 298.220909 
L 525.475881 298.220909 
L 529.006184 298.220909 
L 532.536487 298.220909 
L 536.06679 298.220909 
L 539.597093 298.220909 
L 543.127396 298.220909 
L 546.657699 298.220909 
L 550.188002 298.220909 
L 553.718305 298.220909 
L 557.248608 298.220909 
L 560.778911 298.220909 
L 564.309214 298.220909 
L 567.839517 298.220909 
L 571.36982 298.220909 
L 574.900123 298.220909 
L 578.430426 298.220909 
L 581.960729 298.220909 
L 585.491032 298.220909 
L 589.021335 298.220909 
L 592.551638 298.220909 
L 596.081941 298.220909 
L 599.612244 298.220909 
L 603.142547 298.220909 
L 606.67285 298.220909 
L 610.203153 298.220909 
L 613.733456 298.220909 
L 617.263759 298.220909 
L 620.794063 298.220909 
L 624.324366 298.220909 
L 627.854669 298.220909 
L 631.384972 298.220909 
L 634.915275 298.220909 
L 638.445578 298.220909 
L 641.975881 298.220909 
L 645.506184 298.220909 
L 649.036487 298.220909 
L 652.56679 298.220909 
L 656.097093 298.220909 
L 659.627396 298.220909 
L 663.157699 298.220909 
L 666.688002 298.220909 
L 670.218305 298.220909 
L 673.748608 298.220909 
L 677.278911 298.220909 
L 680.809214 298.220909 
L 684.339517 298.220909 
L 687.86982 298.220909 
L 691.400123 298.220909 
L 694.930426 298.220909 
L 698.460729 298.220909 
L 701.991032 298.220909 
L 705.521335 298.220909 
L 709.051638 298.220909 
L 712.581941 298.220909 
L 716.112244 298.220909 
L 719.642547 298.220909 
L 723.17285 298.220909 
L 726.703153 298.220909 
L 730.233456 298.220909 
L 733.763759 298.220909 
L 737.294063 298.220909 
L 740.824366 298.220909 
L 744.354669 298.220909 
L 747.884972 298.220909 
L 751.415275 298.220909 
L 754.945578 298.220909 
L 758.475881 298.220909 
L 762.006184 298.220909 
L 765.536487 298.220909 
L 769.06679 298.220909 
L 772.597093 298.220909 
L 776.127396 298.220909 
L 779.657699 298.220909 
L 783.188002 298.220909 
L 786.718305 298.220909 
L 790.248608 298.220909 
L 793.778911 298.220909 
L 797.309214 298.220909 
L 800.839517 298.220909 
L 804.36982 298.220909 
L 807.900123 298.220909 
L 811.430426 298.220909 
L 814.960729 298.220909 
L 818.491032 298.220909 
L 822.021335 298.220909 
L 825.551638 298.220909 
L 829.081941 298.220909 
L 832.612244 298.220909 
L 836.142547 298.220909 
L 839.67285 298.220909 
L 843.203153 298.220909 
L 846.733456 298.220909 
L 850.263759 298.220909 
L 853.794063 298.220909 
" clip-path="url(#p788ef71a1f)" style="fill: none; stroke: #ff6347; stroke-width: 1.5; stroke-linecap: square"/>
   </g>
   <g id="line2d_31">
    <path d="M 504.294063 34.839091 
L 507.824366 35.028298 
L 511.354669 35.217512 
L 514.884972 35.406733 
L 518.415275 35.595961 
L 521.945578 35.785196 
L 525.475881 35.974437 
L 529.006184 36.163686 
L 532.536487 36.352942 
L 536.06679 36.542205 
L 539.597093 36.731474 
L 543.127396 36.920751 
L 546.657699 37.110034 
L 550.188002 37.299325 
L 553.718305 37.488622 
L 557.248608 37.677926 
L 560.778911 37.867237 
L 564.309214 38.056554 
L 567.839517 38.245879 
L 571.36982 38.435211 
L 574.900123 38.624549 
L 578.430426 38.813894 
L 581.960729 39.003246 
L 585.491032 39.192604 
L 589.021335 39.38197 
L 592.551638 39.571342 
L 596.081941 39.760721 
L 599.612244 39.950106 
L 603.142547 40.139499 
L 606.67285 40.328898 
L 610.203153 40.518304 
L 613.733456 40.707716 
L 617.263759 40.897136 
L 620.794063 41.086561 
L 624.324366 41.275994 
L 627.854669 41.465433 
L 631.384972 41.654879 
L 634.915275 41.844332 
L 638.445578 42.033791 
L 641.975881 42.223256 
L 645.506184 42.412729 
L 649.036487 42.602208 
L 652.56679 42.791693 
L 656.097093 42.981185 
L 659.627396 43.170684 
L 663.157699 43.360189 
L 666.688002 43.549701 
L 670.218305 43.739219 
L 673.748608 43.928744 
L 677.278911 44.118275 
L 680.809214 44.307813 
L 684.339517 44.497357 
L 687.86982 44.686908 
L 691.400123 44.876465 
L 694.930426 45.066029 
L 698.460729 45.255599 
L 701.991032 45.445176 
L 705.521335 45.634759 
L 709.051638 45.824348 
L 712.581941 46.013944 
L 716.112244 46.203546 
L 719.642547 46.393155 
L 723.17285 46.58277 
L 726.703153 46.772391 
L 730.233456 46.962018 
L 733.763759 47.151652 
L 737.294063 47.341293 
L 740.824366 47.530939 
L 744.354669 47.720592 
L 747.884972 47.910252 
L 751.415275 48.099917 
L 754.945578 48.289589 
L 758.475881 48.479267 
L 762.006184 48.668951 
L 765.536487 48.858642 
L 769.06679 49.048338 
L 772.597093 49.238041 
L 776.127396 49.427751 
L 779.657699 49.617466 
L 783.188002 49.807188 
L 786.718305 49.996915 
L 790.248608 50.186649 
L 793.778911 50.376389 
L 797.309214 50.566136 
L 800.839517 50.755888 
L 804.36982 50.945647 
L 807.900123 51.135411 
L 811.430426 51.325182 
L 814.960729 51.514959 
L 818.491032 51.704742 
L 822.021335 51.894531 
L 825.551638 52.084326 
L 829.081941 52.274127 
L 832.612244 52.463934 
L 836.142547 52.653747 
L 839.67285 52.843566 
L 843.203153 53.033391 
L 846.733456 53.223222 
L 850.263759 53.41306 
L 853.794063 53.602903 
" clip-path="url(#p788ef71a1f)" style="fill: none; stroke-dasharray: 3.7,1.6; stroke-dashoffset: 0; stroke: #000000; stroke-opacity: 0.5"/>
   </g>
   <g id="patch_9">
    <path d="M 486.819063 311.39 
L 486.819063 21.67 
" style="fill: none; stroke: #000000; stroke-width: 0.8; stroke-linejoin: miter; stroke-linecap: square"/>
   </g>
   <g id="patch_10">
    <path d="M 871.269063 311.39 
L 871.269063 21.67 
" style="fill: none; stroke: #000000; stroke-width: 0.8; stroke-linejoin: miter; stroke-linecap: square"/>
   </g>
   <g id="patch_11">
    <path d="M 486.819063 311.39 
L 871.269063 311.39 
" style="fill: none; stroke: #000000; stroke-width: 0.8; stroke-linejoin: miter; stroke-linecap: square"/>
   </g>
   <g id="patch_12">
    <path d="M 486.819063 21.67 
L 871.269063 21.67 
" style="fill: none; stroke: #000000; stroke-width: 0.8; stroke-linejoin: miter; stroke-linecap: square"/>
   </g>
   <g id="text_36">
    <!-- THRML $\theta$ trajectory during gradual bull→bear ramp -->
    <g transform="translate(538.904063 15.67) scale(0.11 -0.11)">
     <defs>
      <path id="DejaVuSans-54" d="M -19 4666 
L 3928 4666 
L 3928 4134 
L 2272 4134 
L 2272 0 
L 1638 0 
L 1638 4134 
L -19 4134 
L -19 4666 
z
" transform="scale(0.015625)"/>
      <path id="DejaVuSans-48" d="M 628 4666 
L 1259 4666 
L 1259 2753 
L 3553 2753 
L 3553 4666 
L 4184 4666 
L 4184 0 
L 3553 0 
L 3553 2222 
L 1259 2222 
L 1259 0 
L 628 0 
L 628 4666 
z
" transform="scale(0.015625)"/>
      <path id="DejaVuSans-4d" d="M 628 4666 
L 1569 4666 
L 2759 1491 
L 3956 4666 
L 4897 4666 
L 4897 0 
L 4281 0 
L 4281 4097 
L 3078 897 
L 2444 897 
L 1241 4097 
L 1241 0 
L 628 0 
L 628 4666 
z
" transform="scale(0.015625)"/>
      <path id="DejaVuSans-4c" d="M 628 4666 
L 1259 4666 
L 1259 531 
L 3531 531 
L 3531 0 
L 628 0 
L 628 4666 
z
" transform="scale(0.015625)"/>
      <path id="DejaVuSans-6a" d="M 603 3500 
L 1178 3500 
L 1178 -63 
Q 1178 -731 923 -1031 
Q 669 -1331 103 -1331 
L -116 -1331 
L -116 -844 
L 38 -844 
Q 366 -844 484 -692 
Q 603 -541 603 -63 
L 603 3500 
z
M 603 4863 
L 1178 4863 
L 1178 4134 
L 603 4134 
L 603 4863 
z
" transform="scale(0.015625)"/>
      <path id="DejaVuSans-67" d="M 2906 1791 
Q 2906 2416 2648 2759 
Q 2391 3103 1925 3103 
Q 1463 3103 1205 2759 
Q 947 2416 947 1791 
Q 947 1169 1205 825 
Q 1463 481 1925 481 
Q 2391 481 2648 825 
Q 2906 1169 2906 1791 
z
M 3481 434 
Q 3481 -459 3084 -895 
Q 2688 -1331 1869 -1331 
Q 1566 -1331 1297 -1286 
Q 1028 -1241 775 -1147 
L 775 -588 
Q 1028 -725 1275 -790 
Q 1522 -856 1778 -856 
Q 2344 -856 2625 -561 
Q 2906 -266 2906 331 
L 2906 616 
Q 2728 306 2450 153 
Q 2172 0 1784 0 
Q 1141 0 747 490 
Q 353 981 353 1791 
Q 353 2603 747 3093 
Q 1141 3584 1784 3584 
Q 2172 3584 2450 3431 
Q 2728 3278 2906 2969 
L 2906 3500 
L 3481 3500 
L 3481 434 
z
" transform="scale(0.015625)"/>
     </defs>
     <use xlink:href="#DejaVuSans-54" transform="translate(0 0.234375)"/>
     <use xlink:href="#DejaVuSans-48" transform="translate(61.083984 0.234375)"/>
     <use xlink:href="#DejaVuSans-52" transform="translate(136.279297 0.234375)"/>
     <use xlink:href="#DejaVuSans-4d" transform="translate(205.761719 0.234375)"/>
     <use xlink:href="#DejaVuSans-4c" transform="translate(292.041016 0.234375)"/>
     <use xlink:href="#DejaVuSans-20" transform="translate(347.753906 0.234375)"/>
     <use xlink:href="#DejaVuSans-Oblique-3b8" transform="translate(379.541016 0.234375)"/>
     <use xlink:href="#DejaVuSans-20" transform="translate(440.722656 0.234375)"/>
     <use xlink:href="#DejaVuSans-74" transform="translate(472.509766 0.234375)"/>
     <use xlink:href="#DejaVuSans-72" transform="translate(511.71875 0.234375)"/>
     <use xlink:href="#DejaVuSans-61" transform="translate(552.832031 0.234375)"/>
     <use xlink:href="#DejaVuSans-6a" transform="translate(614.111328 0.234375)"/>
     <use xlink:href="#DejaVuSans-65" transform="translate(641.894531 0.234375)"/>
     <use xlink:href="#DejaVuSans-63" transform="translate(703.417969 0.234375)"/>
     <use xlink:href="#DejaVuSans-74" transform="translate(758.398438 0.234375)"/>
     <use xlink:href="#DejaVuSans-6f" transform="translate(797.607422 0.234375)"/>
     <use xlink:href="#DejaVuSans-72" transform="translate(858.789062 0.234375)"/>
     <use xlink:href="#DejaVuSans-79" transform="translate(899.902344 0.234375)"/>
     <use xlink:href="#DejaVuSans-20" transform="translate(959.082031 0.234375)"/>
     <use xlink:href="#DejaVuSans-64" transform="translate(990.869141 0.234375)"/>
     <use xlink:href="#DejaVuSans-75" transform="translate(1054.345703 0.234375)"/>
     <use xlink:href="#DejaVuSans-72" transform="translate(1117.724609 0.234375)"/>
     <use xlink:href="#DejaVuSans-69" transform="translate(1158.837891 0.234375)"/>
     <use xlink:href="#DejaVuSans-6e" transform="translate(1186.621094 0.234375)"/>
     <use xlink:href="#DejaVuSans-67" transform="translate(1250 0.234375)"/>
     <use xlink:href="#DejaVuSans-20" transform="translate(1313.476562 0.234375)"/>
     <use xlink:href="#DejaVuSans-67" transform="translate(1345.263672 0.234375)"/>
     <use xlink:href="#DejaVuSans-72" transform="translate(1408.740234 0.234375)"/>
     <use xlink:href="#DejaVuSans-61" transform="translate(1449.853516 0.234375)"/>
     <use xlink:href="#DejaVuSans-64" transform="translate(1511.132812 0.234375)"/>
     <use xlink:href="#DejaVuSans-75" transform="translate(1574.609375 0.234375)"/>
     <use xlink:href="#DejaVuSans-61" transform="translate(1637.988281 0.234375)"/>
     <use xlink:href="#DejaVuSans-6c" transform="translate(1699.267578 0.234375)"/>
     <use xlink:href="#DejaVuSans-20" transform="translate(1727.050781 0.234375)"/>
     <use xlink:href="#DejaVuSans-62" transform="translate(1758.837891 0.234375)"/>
     <use xlink:href="#DejaVuSans-75" transform="translate(1822.314453 0.234375)"/>
     <use xlink:href="#DejaVuSans-6c" transform="translate(1885.693359 0.234375)"/>
     <use xlink:href="#DejaVuSans-6c" transform="translate(1913.476562 0.234375)"/>
     <use xlink:href="#DejaVuSans-2192" transform="translate(1941.259766 0.234375)"/>
     <use xlink:href="#DejaVuSans-62" transform="translate(2025.048828 0.234375)"/>
     <use xlink:href="#DejaVuSans-65" transform="translate(2088.525391 0.234375)"/>
     <use xlink:href="#DejaVuSans-61" transform="translate(2150.048828 0.234375)"/>
     <use xlink:href="#DejaVuSans-72" transform="translate(2211.328125 0.234375)"/>
     <use xlink:href="#DejaVuSans-20" transform="translate(2252.441406 0.234375)"/>
     <use xlink:href="#DejaVuSans-72" transform="translate(2284.228516 0.234375)"/>
     <use xlink:href="#DejaVuSans-61" transform="translate(2325.341797 0.234375)"/>
     <use xlink:href="#DejaVuSans-6d" transform="translate(2386.621094 0.234375)"/>
     <use xlink:href="#DejaVuSans-70" transform="translate(2484.033203 0.234375)"/>
    </g>
   </g>
   <g id="legend_2">
    <g id="patch_13">
     <path d="M 787.829063 185.9525 
L 865.669063 185.9525 
Q 867.269063 185.9525 867.269063 184.3525 
L 867.269063 148.7075 
Q 867.269063 147.1075 865.669063 147.1075 
L 787.829063 147.1075 
Q 786.229063 147.1075 786.229063 148.7075 
L 786.229063 184.3525 
Q 786.229063 185.9525 787.829063 185.9525 
z
" style="fill: #ffffff; opacity: 0.8; stroke: #cccccc; stroke-linejoin: miter"/>
    </g>
    <g id="line2d_32">
     <path d="M 789.429063 153.58625 
L 797.429063 153.58625 
L 805.429063 153.58625 
" style="fill: none; stroke: #ff6347; stroke-width: 1.5; stroke-linecap: square"/>
    </g>
    <g id="text_37">
     <!-- $\theta$ (THRML) -->
     <g transform="translate(811.829063 156.38625) scale(0.08 -0.08)">
      <use xlink:href="#DejaVuSans-Oblique-3b8" transform="translate(0 0.234375)"/>
      <use xlink:href="#DejaVuSans-20" transform="translate(61.181641 0.234375)"/>
      <use xlink:href="#DejaVuSans-28" transform="translate(92.96875 0.234375)"/>
      <use xlink:href="#DejaVuSans-54" transform="translate(131.982422 0.234375)"/>
      <use xlink:href="#DejaVuSans-48" transform="translate(193.066406 0.234375)"/>
      <use xlink:href="#DejaVuSans-52" transform="translate(268.261719 0.234375)"/>
      <use xlink:href="#DejaVuSans-4d" transform="translate(337.744141 0.234375)"/>
      <use xlink:href="#DejaVuSans-4c" transform="translate(424.023438 0.234375)"/>
      <use xlink:href="#DejaVuSans-29" transform="translate(479.736328 0.234375)"/>
     </g>
    </g>
    <g id="line2d_33">
     <path d="M 789.429063 166.53 
L 797.429063 166.53 
L 805.429063 166.53 
" style="fill: none; stroke-dasharray: 3.7,1.6; stroke-dashoffset: 0; stroke: #000000; stroke-opacity: 0.5"/>
    </g>
    <g id="text_38">
     <!-- $\theta^*(c)$ theory -->
     <g transform="translate(811.829063 169.33) scale(0.08 -0.08)">
      <defs>
       <path id="DejaVuSans-2a" d="M 3009 3897 
L 1888 3291 
L 3009 2681 
L 2828 2375 
L 1778 3009 
L 1778 1831 
L 1422 1831 
L 1422 3009 
L 372 2375 
L 191 2681 
L 1313 3291 
L 191 3897 
L 372 4206 
L 1422 3572 
L 1422 4750 
L 1778 4750 
L 1778 3572 
L 2828 4206 
L 3009 3897 
z
" transform="scale(0.015625)"/>
       <path id="DejaVuSans-68" d="M 3513 2113 
L 3513 0 
L 2938 0 
L 2938 2094 
Q 2938 2591 2744 2837 
Q 2550 3084 2163 3084 
Q 1697 3084 1428 2787 
Q 1159 2491 1159 1978 
L 1159 0 
L 581 0 
L 581 4863 
L 1159 4863 
L 1159 2956 
Q 1366 3272 1645 3428 
Q 1925 3584 2291 3584 
Q 2894 3584 3203 3211 
Q 3513 2838 3513 2113 
z
" transform="scale(0.015625)"/>
      </defs>
      <use xlink:href="#DejaVuSans-Oblique-3b8" transform="translate(0 0.765625)"/>
      <use xlink:href="#DejaVuSans-2a" transform="translate(82.376419 39.046875) scale(0.7)"/>
      <use xlink:href="#DejaVuSans-28" transform="translate(133.74849 0.765625)"/>
      <use xlink:href="#DejaVuSans-Oblique-63" transform="translate(172.762161 0.765625)"/>
      <use xlink:href="#DejaVuSans-29" transform="translate(227.74263 0.765625)"/>
      <use xlink:href="#DejaVuSans-20" transform="translate(266.756302 0.765625)"/>
      <use xlink:href="#DejaVuSans-74" transform="translate(298.543411 0.765625)"/>
      <use xlink:href="#DejaVuSans-68" transform="translate(337.752396 0.765625)"/>
      <use xlink:href="#DejaVuSans-65" transform="translate(401.131302 0.765625)"/>
      <use xlink:href="#DejaVuSans-6f" transform="translate(462.65474 0.765625)"/>
      <use xlink:href="#DejaVuSans-72" transform="translate(523.83638 0.765625)"/>
      <use xlink:href="#DejaVuSans-79" transform="translate(564.949661 0.765625)"/>
     </g>
    </g>
    <g id="line2d_34">
     <path d="M 789.429063 178.28875 
L 797.429063 178.28875 
L 805.429063 178.28875 
" style="fill: none; stroke-dasharray: 1,1.65; stroke-dashoffset: 0; stroke: #808080; stroke-opacity: 0.6"/>
    </g>
    <g id="text_39">
     <!-- $c(t)$ schedule -->
     <g transform="translate(811.829063 181.08875) scale(0.08 -0.08)">
      <defs>
       <path id="DejaVuSans-Oblique-74" d="M 2706 3500 
L 2619 3053 
L 1472 3053 
L 1100 1153 
Q 1081 1047 1072 975 
Q 1063 903 1063 863 
Q 1063 663 1183 572 
Q 1303 481 1569 481 
L 2150 481 
L 2053 0 
L 1503 0 
Q 991 0 739 200 
Q 488 400 488 806 
Q 488 878 497 964 
Q 506 1050 525 1153 
L 897 3053 
L 409 3053 
L 500 3500 
L 978 3500 
L 1172 4494 
L 1747 4494 
L 1556 3500 
L 2706 3500 
z
" transform="scale(0.015625)"/>
      </defs>
      <use xlink:href="#DejaVuSans-Oblique-63" transform="translate(0 0.015625)"/>
      <use xlink:href="#DejaVuSans-28" transform="translate(54.980469 0.015625)"/>
      <use xlink:href="#DejaVuSans-Oblique-74" transform="translate(93.994141 0.015625)"/>
      <use xlink:href="#DejaVuSans-29" transform="translate(133.203125 0.015625)"/>
      <use xlink:href="#DejaVuSans-20" transform="translate(172.216797 0.015625)"/>
      <use xlink:href="#DejaVuSans-73" transform="translate(204.003906 0.015625)"/>
      <use xlink:href="#DejaVuSans-63" transform="translate(256.103516 0.015625)"/>
      <use xlink:href="#DejaVuSans-68" transform="translate(311.083984 0.015625)"/>
      <use xlink:href="#DejaVuSans-65" transform="translate(374.462891 0.015625)"/>
      <use xlink:href="#DejaVuSans-64" transform="translate(435.986328 0.015625)"/>
      <use xlink:href="#DejaVuSans-75" transform="translate(499.462891 0.015625)"/>
      <use xlink:href="#DejaVuSans-6c" transform="translate(562.841797 0.015625)"/>
      <use xlink:href="#DejaVuSans-65" transform="translate(590.625 0.015625)"/>
     </g>
    </g>
   </g>
  </g>
  <g id="axes_3">
   <g id="matplotlib.axis_5">
    <g id="ytick_14">
     <g id="line2d_35">
      <defs>
       <path id="m7abec61c50" d="M 0 0 
L 3.5 0 
" style="stroke: #000000; stroke-width: 0.8"/>
      </defs>
      <g>
       <use xlink:href="#m7abec61c50" x="871.269063" y="308.099839" style="stroke: #000000; stroke-width: 0.8"/>
      </g>
     </g>
     <g id="text_40">
      <!-- 0.336 -->
      <g style="fill: #808080" transform="translate(878.269063 311.899057) scale(0.1 -0.1)">
       <use xlink:href="#DejaVuSans-30"/>
       <use xlink:href="#DejaVuSans-2e" transform="translate(63.623047 0)"/>
       <use xlink:href="#DejaVuSans-33" transform="translate(95.410156 0)"/>
       <use xlink:href="#DejaVuSans-33" transform="translate(159.033203 0)"/>
       <use xlink:href="#DejaVuSans-36" transform="translate(222.65625 0)"/>
      </g>
     </g>
    </g>
    <g id="ytick_15">
     <g id="line2d_36">
      <g>
       <use xlink:href="#m7abec61c50" x="871.269063" y="257.750431" style="stroke: #000000; stroke-width: 0.8"/>
      </g>
     </g>
     <g id="text_41">
      <!-- 0.338 -->
      <g style="fill: #808080" transform="translate(878.269063 261.54965) scale(0.1 -0.1)">
       <use xlink:href="#DejaVuSans-30"/>
       <use xlink:href="#DejaVuSans-2e" transform="translate(63.623047 0)"/>
       <use xlink:href="#DejaVuSans-33" transform="translate(95.410156 0)"/>
       <use xlink:href="#DejaVuSans-33" transform="translate(159.033203 0)"/>
       <use xlink:href="#DejaVuSans-38" transform="translate(222.65625 0)"/>
      </g>
     </g>
    </g>
    <g id="ytick_16">
     <g id="line2d_37">
      <g>
       <use xlink:href="#m7abec61c50" x="871.269063" y="207.401024" style="stroke: #000000; stroke-width: 0.8"/>
      </g>
     </g>
     <g id="text_42">
      <!-- 0.340 -->
      <g style="fill: #808080" transform="translate(878.269063 211.200243) scale(0.1 -0.1)">
       <use xlink:href="#DejaVuSans-30"/>
       <use xlink:href="#DejaVuSans-2e" transform="translate(63.623047 0)"/>
       <use xlink:href="#DejaVuSans-33" transform="translate(95.410156 0)"/>
       <use xlink:href="#DejaVuSans-34" transform="translate(159.033203 0)"/>
       <use xlink:href="#DejaVuSans-30" transform="translate(222.65625 0)"/>
      </g>
     </g>
    </g>
    <g id="ytick_17">
     <g id="line2d_38">
      <g>
       <use xlink:href="#m7abec61c50" x="871.269063" y="157.051616" style="stroke: #000000; stroke-width: 0.8"/>
      </g>
     </g>
     <g id="text_43">
      <!-- 0.342 -->
      <g style="fill: #808080" transform="translate(878.269063 160.850835) scale(0.1 -0.1)">
       <use xlink:href="#DejaVuSans-30"/>
       <use xlink:href="#DejaVuSans-2e" transform="translate(63.623047 0)"/>
       <use xlink:href="#DejaVuSans-33" transform="translate(95.410156 0)"/>
       <use xlink:href="#DejaVuSans-34" transform="translate(159.033203 0)"/>
       <use xlink:href="#DejaVuSans-32" transform="translate(222.65625 0)"/>
      </g>
     </g>
    </g>
    <g id="ytick_18">
     <g id="line2d_39">
      <g>
       <use xlink:href="#m7abec61c50" x="871.269063" y="106.702209" style="stroke: #000000; stroke-width: 0.8"/>
      </g>
     </g>
     <g id="text_44">
      <!-- 0.344 -->
      <g style="fill: #808080" transform="translate(878.269063 110.501428) scale(0.1 -0.1)">
       <use xlink:href="#DejaVuSans-30"/>
       <use xlink:href="#DejaVuSans-2e" transform="translate(63.623047 0)"/>
       <use xlink:href="#DejaVuSans-33" transform="translate(95.410156 0)"/>
       <use xlink:href="#DejaVuSans-34" transform="translate(159.033203 0)"/>
       <use xlink:href="#DejaVuSans-34" transform="translate(222.65625 0)"/>
      </g>
     </g>
    </g>
    <g id="ytick_19">
     <g id="line2d_40">
      <g>
       <use xlink:href="#m7abec61c50" x="871.269063" y="56.352802" style="stroke: #000000; stroke-width: 0.8"/>
      </g>
     </g>
     <g id="text_45">
      <!-- 0.346 -->
      <g style="fill: #808080" transform="translate(878.269063 60.15202) scale(0.1 -0.1)">
       <use xlink:href="#DejaVuSans-30"/>
       <use xlink:href="#DejaVuSans-2e" transform="translate(63.623047 0)"/>
       <use xlink:href="#DejaVuSans-33" transform="translate(95.410156 0)"/>
       <use xlink:href="#DejaVuSans-34" transform="translate(159.033203 0)"/>
       <use xlink:href="#DejaVuSans-36" transform="translate(222.65625 0)"/>
      </g>
     </g>
    </g>
    <g id="text_46">
     <!-- Constraint $c$ -->
     <g style="fill: #808080" transform="translate(918.495625 196.83) rotate(-90) scale(0.1 -0.1)">
      <use xlink:href="#DejaVuSans-43" transform="translate(0 0.015625)"/>
      <use xlink:href="#DejaVuSans-6f" transform="translate(69.824219 0.015625)"/>
      <use xlink:href="#DejaVuSans-6e" transform="translate(131.005859 0.015625)"/>
      <use xlink:href="#DejaVuSans-73" transform="translate(194.384766 0.015625)"/>
      <use xlink:href="#DejaVuSans-74" transform="translate(246.484375 0.015625)"/>
      <use xlink:href="#DejaVuSans-72" transform="translate(285.693359 0.015625)"/>
      <use xlink:href="#DejaVuSans-61" transform="translate(326.806641 0.015625)"/>
      <use xlink:href="#DejaVuSans-69" transform="translate(388.085938 0.015625)"/>
      <use xlink:href="#DejaVuSans-6e" transform="translate(415.869141 0.015625)"/>
      <use xlink:href="#DejaVuSans-74" transform="translate(479.248047 0.015625)"/>
      <use xlink:href="#DejaVuSans-20" transform="translate(518.457031 0.015625)"/>
      <use xlink:href="#DejaVuSans-Oblique-63" transform="translate(550.244141 0.015625)"/>
     </g>
    </g>
   </g>
   <g id="line2d_41">
    <path d="M 504.294063 261.040593 
L 507.824366 259.131288 
L 511.354669 257.221983 
L 514.884972 255.312678 
L 518.415275 253.403373 
L 521.945578 251.494068 
L 525.475881 249.584763 
L 529.006184 247.675458 
L 532.536487 245.766153 
L 536.06679 243.856849 
L 539.597093 241.947544 
L 543.127396 240.038239 
L 546.657699 238.128934 
L 550.188002 236.219629 
L 553.718305 234.310324 
L 557.248608 232.401019 
L 560.778911 230.491714 
L 564.309214 228.582409 
L 567.839517 226.673104 
L 571.36982 224.7638 
L 574.900123 222.854495 
L 578.430426 220.94519 
L 581.960729 219.035885 
L 585.491032 217.12658 
L 589.021335 215.217275 
L 592.551638 213.30797 
L 596.081941 211.398665 
L 599.612244 209.48936 
L 603.142547 207.580055 
L 606.67285 205.67075 
L 610.203153 203.761446 
L 613.733456 201.852141 
L 617.263759 199.942836 
L 620.794063 198.033531 
L 624.324366 196.124226 
L 627.854669 194.214921 
L 631.384972 192.305616 
L 634.915275 190.396311 
L 638.445578 188.487006 
L 641.975881 186.577701 
L 645.506184 184.668397 
L 649.036487 182.759092 
L 652.56679 180.849787 
L 656.097093 178.940482 
L 659.627396 177.031177 
L 663.157699 175.121872 
L 666.688002 173.212567 
L 670.218305 171.303262 
L 673.748608 169.393957 
L 677.278911 167.484652 
L 680.809214 165.575348 
L 684.339517 163.666043 
L 687.86982 161.756738 
L 691.400123 159.847433 
L 694.930426 157.938128 
L 698.460729 156.028823 
L 701.991032 154.119518 
L 705.521335 152.210213 
L 709.051638 150.300908 
L 712.581941 148.391603 
L 716.112244 146.482299 
L 719.642547 144.572994 
L 723.17285 142.663689 
L 726.703153 140.754384 
L 730.233456 138.845079 
L 733.763759 136.935774 
L 737.294063 135.026469 
L 740.824366 133.117164 
L 744.354669 131.207859 
L 747.884972 129.298554 
L 751.415275 127.38925 
L 754.945578 125.479945 
L 758.475881 123.57064 
L 762.006184 121.661335 
L 765.536487 119.75203 
L 769.06679 117.842725 
L 772.597093 115.93342 
L 776.127396 114.024115 
L 779.657699 112.11481 
L 783.188002 110.205505 
L 786.718305 108.2962 
L 790.248608 106.386896 
L 793.778911 104.477591 
L 797.309214 102.568286 
L 800.839517 100.658981 
L 804.36982 98.749676 
L 807.900123 96.840371 
L 811.430426 94.931066 
L 814.960729 93.021761 
L 818.491032 91.112456 
L 822.021335 89.203151 
L 825.551638 87.293847 
L 829.081941 85.384542 
L 832.612244 83.475237 
L 836.142547 81.565932 
L 839.67285 79.656627 
L 843.203153 77.747322 
L 846.733456 75.838017 
L 850.263759 73.928712 
L 853.794063 72.019407 
" clip-path="url(#p788ef71a1f)" style="fill: none; stroke-dasharray: 1,1.65; stroke-dashoffset: 0; stroke: #808080; stroke-opacity: 0.6"/>
   </g>
   <g id="patch_14">
    <path d="M 486.819063 311.39 
L 486.819063 21.67 
" style="fill: none; stroke: #000000; stroke-width: 0.8; stroke-linejoin: miter; stroke-linecap: square"/>
   </g>
   <g id="patch_15">
    <path d="M 871.269063 311.39 
L 871.269063 21.67 
" style="fill: none; stroke: #000000; stroke-width: 0.8; stroke-linejoin: miter; stroke-linecap: square"/>
   </g>
   <g id="patch_16">
    <path d="M 486.819063 311.39 
L 871.269063 311.39 
" style="fill: none; stroke: #000000; stroke-width: 0.8; stroke-linejoin: miter; stroke-linecap: square"/>
   </g>
   <g id="patch_17">
    <path d="M 486.819063 21.67 
L 871.269063 21.67 
" style="fill: none; stroke: #000000; stroke-width: 0.8; stroke-linejoin: miter; stroke-linecap: square"/>
   </g>
  </g>
 </g>
 <defs>
  <clipPath id="pee87c96296">
   <rect x="44.749063" y="21.67" width="384.45" height="289.72"/>
  </clipPath>
  <clipPath id="p788ef71a1f">
   <rect x="486.819063" y="21.67" width="384.45" height="289.72"/>
  </clipPath>
 </defs>
</svg>
