<?xml version="1.0" encoding="utf-8" standalone="no"?>
<!DOCTYPE svg PUBLIC "-//W3C//DTD SVG 1.1//EN"
  "http://www.w3.org/Graphics/SVG/1.1/DTD/svg11.dtd">
<svg xmlns:xlink="http://www.w3.org/1999/xlink" width="712.657812pt" height="419.032087pt" viewBox="0 0 712.657812 419.032087" xmlns="http://www.w3.org/2000/svg" version="1.1">
 <metadata>
  <rdf:RDF xmlns:dc="http://purl.org/dc/elements/1.1/" xmlns:cc="http://creativecommons.org/ns#" xmlns:rdf="http://www.w3.org/1999/02/22-rdf-syntax-ns#">
   <cc:Work>
    <dc:type rdf:resource="http://purl.org/dc/dcmitype/StillImage"/>
    <dc:date>2026-02-22T05:33:45.341029</dc:date>
    <dc:format>image/svg+xml</dc:format>
    <dc:creator>
     <cc:Agent>
      <dc:title>Matplotlib v3.10.8, https://matplotlib.org/</dc:title>
     </cc:Agent>
    </dc:creator>
   </cc:Work>
  </rdf:RDF>
 </metadata>
 <defs>
  <style type="text/css">*{stroke-linejoin: round; stroke-linecap: butt}</style>
 </defs>
 <g id="figure_1">
  <g id="patch_1">
   <path d="M -0 419.032087 
L 712.657812 419.032087 
L 712.657812 0 
L -0 0 
z
" style="fill: #ffffff"/>
  </g>
  <g id="axes_1">
   <g id="patch_2">
    <path d="M 52.40625 378.5724 
L 697.50625 378.5724 
L 697.50625 33.902 
L 52.40625 33.902 
z
" style="fill: #ffffff"/>
   </g>
   <g id="FillBetweenPolyCollection_1">
    <defs>
     <path id="m17371b0ef0" d="M 52.40625 -228.981347 
L 52.40625 -369.463251 
L 53.699036 -368.547934 
L 54.991821 -367.636836 
L 56.284607 -366.729931 
L 57.577392 -365.827194 
L 58.870178 -364.928597 
L 60.162963 -364.034115 
L 61.455749 -363.143721 
L 62.748535 -362.257389 
L 64.04132 -361.375095 
L 65.334106 -360.496811 
L 66.626891 -359.622513 
L 67.919677 -358.752175 
L 69.212462 -357.885772 
L 70.505248 -357.023278 
L 71.798034 -356.164669 
L 73.090819 -355.309919 
L 74.383605 -354.459004 
L 75.67639 -353.611899 
L 76.969176 -352.768579 
L 78.261961 -351.92902 
L 79.554747 -351.093197 
L 80.847533 -350.261086 
L 82.140318 -349.432662 
L 83.433104 -348.607902 
L 84.725889 -347.786782 
L 86.018675 -346.969277 
L 87.31146 -346.155365 
L 88.604246 -345.34502 
L 89.897032 -344.538221 
L 91.189817 -343.734942 
L 92.482603 -342.935161 
L 93.775388 -342.138855 
L 95.068174 -341.346 
L 96.360959 -340.556574 
L 97.653745 -339.770553 
L 98.946531 -338.987914 
L 100.239316 -338.208635 
L 101.532102 -337.432693 
L 102.824887 -336.660065 
L 104.117673 -335.89073 
L 105.410458 -335.124664 
L 106.703244 -334.361845 
L 107.99603 -333.602251 
L 109.288815 -332.84586 
L 110.581601 -332.092651 
L 111.874386 -331.3426 
L 113.167172 -330.595687 
L 114.459957 -329.851889 
L 115.752743 -329.111185 
L 117.045529 -328.373553 
L 118.338314 -327.638972 
L 119.6311 -326.90742 
L 120.923885 -326.178877 
L 122.216671 -325.453321 
L 123.509456 -324.73073 
L 124.802242 -324.011085 
L 126.095028 -323.294363 
L 127.387813 -322.580545 
L 128.680599 -321.869608 
L 129.973384 -321.161534 
L 131.26617 -320.4563 
L 132.558955 -319.753887 
L 133.851741 -319.054273 
L 135.144527 -318.35744 
L 136.437312 -317.663366 
L 137.730098 -316.972031 
L 139.022883 -316.283415 
L 140.315669 -315.597498 
L 141.608454 -314.914261 
L 142.90124 -314.233682 
L 144.194026 -313.555743 
L 145.486811 -312.880424 
L 146.779597 -312.207705 
L 148.072382 -311.537566 
L 149.365168 -310.869988 
L 150.657953 -310.204952 
L 151.950739 -309.542438 
L 153.243525 -308.882426 
L 154.53631 -308.224899 
L 155.829096 -307.569836 
L 157.121881 -306.917219 
L 158.414667 -306.267028 
L 159.707452 -305.619245 
L 161.000238 -304.97385 
L 162.293024 -304.330826 
L 163.585809 -303.690153 
L 164.878595 -303.051812 
L 166.17138 -302.415785 
L 167.464166 -301.782054 
L 168.756951 -301.150601 
L 170.049737 -300.521405 
L 171.342523 -299.894451 
L 172.635308 -299.269718 
L 173.928094 -298.64719 
L 175.220879 -298.026847 
L 176.513665 -297.408673 
L 177.80645 -296.792648 
L 179.099236 -296.178755 
L 180.392022 -295.566976 
L 181.684807 -294.957293 
L 182.977593 -294.349689 
L 184.270378 -293.744146 
L 185.563164 -293.140646 
L 186.855949 -292.539172 
L 188.148735 -291.939706 
L 189.441521 -291.34223 
L 190.734306 -290.746728 
L 192.027092 -290.153182 
L 193.319877 -289.561575 
L 194.612663 -288.971889 
L 195.905448 -288.384108 
L 197.198234 -287.798214 
L 198.49102 -287.21419 
L 199.783805 -286.632019 
L 201.076591 -286.051685 
L 202.369376 -285.47317 
L 203.662162 -284.896458 
L 204.954947 -284.321531 
L 206.247733 -283.748374 
L 207.540519 -283.176968 
L 208.833304 -282.607299 
L 210.12609 -282.039349 
L 211.418875 -281.473101 
L 212.711661 -280.90854 
L 214.004446 -280.345649 
L 215.297232 -279.78441 
L 216.590018 -279.224809 
L 217.882803 -278.666829 
L 219.175589 -278.110453 
L 220.468374 -277.555666 
L 221.76116 -277.00245 
L 223.053945 -276.450791 
L 224.346731 -275.900672 
L 225.639517 -275.352077 
L 226.932302 -274.80499 
L 228.225088 -274.259395 
L 229.517873 -273.715276 
L 230.810659 -273.172618 
L 232.103444 -272.631405 
L 233.39623 -272.09162 
L 234.689016 -271.553249 
L 235.981801 -271.016275 
L 237.274587 -270.480683 
L 238.567372 -269.946458 
L 239.860158 -269.413583 
L 241.152943 -268.882044 
L 242.445729 -268.351824 
L 243.738515 -267.822909 
L 245.0313 -267.295283 
L 246.324086 -266.76893 
L 247.616871 -266.243836 
L 248.909657 -265.719985 
L 250.202442 -265.197361 
L 251.495228 -264.675951 
L 252.788014 -264.155737 
L 254.080799 -263.636706 
L 255.373585 -263.118843 
L 256.66637 -262.602131 
L 257.959156 -262.086556 
L 259.251941 -261.572104 
L 260.544727 -261.058759 
L 261.837513 -260.546506 
L 263.130298 -260.03533 
L 264.423084 -259.525216 
L 265.715869 -259.01615 
L 267.008655 -258.508117 
L 268.30144 -258.001102 
L 269.594226 -257.49509 
L 270.887012 -256.990067 
L 272.179797 -256.486017 
L 273.472583 -255.982927 
L 274.765368 -255.480781 
L 276.058154 -254.979565 
L 277.350939 -254.479264 
L 278.643725 -253.979864 
L 279.936511 -253.48135 
L 281.229296 -252.983708 
L 282.522082 -252.486923 
L 283.814867 -251.990981 
L 285.107653 -251.495867 
L 286.400438 -251.001567 
L 287.693224 -250.508067 
L 288.98601 -250.015352 
L 290.278795 -249.523407 
L 291.571581 -249.03222 
L 292.864366 -248.541774 
L 294.157152 -248.052057 
L 295.449937 -247.563053 
L 296.742723 -247.074749 
L 298.035509 -246.58713 
L 299.328294 -246.100182 
L 300.62108 -245.613891 
L 301.913865 -245.128243 
L 303.206651 -244.643224 
L 304.499436 -244.158819 
L 305.792222 -243.675015 
L 307.085008 -243.191797 
L 308.377793 -242.709151 
L 309.670579 -242.227063 
L 310.963364 -241.74552 
L 312.25615 -241.264507 
L 313.548935 -240.784011 
L 314.841721 -240.304016 
L 316.134507 -239.82451 
L 317.427292 -239.345478 
L 318.720078 -238.866907 
L 320.012863 -238.388782 
L 321.305649 -237.911089 
L 322.598434 -237.433815 
L 323.89122 -236.956947 
L 325.184006 -236.480468 
L 326.476791 -236.004367 
L 327.769577 -235.52863 
L 329.062362 -235.053241 
L 330.355148 -234.578188 
L 331.647933 -234.103457 
L 332.940719 -233.629033 
L 334.233505 -233.154904 
L 335.52629 -232.681055 
L 336.819076 -232.207472 
L 338.111861 -231.734142 
L 339.404647 -231.261051 
L 340.697432 -230.788185 
L 341.990218 -230.315531 
L 343.283004 -229.843074 
L 344.575789 -229.370801 
L 344.575789 -228.981347 
L 344.575789 -228.981347 
L 343.283004 -228.981347 
L 341.990218 -228.981347 
L 340.697432 -228.981347 
L 339.404647 -228.981347 
L 338.111861 -228.981347 
L 336.819076 -228.981347 
L 335.52629 -228.981347 
L 334.233505 -228.981347 
L 332.940719 -228.981347 
L 331.647933 -228.981347 
L 330.355148 -228.981347 
L 329.062362 -228.981347 
L 327.769577 -228.981347 
L 326.476791 -228.981347 
L 325.184006 -228.981347 
L 323.89122 -228.981347 
L 322.598434 -228.981347 
L 321.305649 -228.981347 
L 320.012863 -228.981347 
L 318.720078 -228.981347 
L 317.427292 -228.981347 
L 316.134507 -228.981347 
L 314.841721 -228.981347 
L 313.548935 -228.981347 
L 312.25615 -228.981347 
L 310.963364 -228.981347 
L 309.670579 -228.981347 
L 308.377793 -228.981347 
L 307.085008 -228.981347 
L 305.792222 -228.981347 
L 304.499436 -228.981347 
L 303.206651 -228.981347 
L 301.913865 -228.981347 
L 300.62108 -228.981347 
L 299.328294 -228.981347 
L 298.035509 -228.981347 
L 296.742723 -228.981347 
L 295.449937 -228.981347 
L 294.157152 -228.981347 
L 292.864366 -228.981347 
L 291.571581 -228.981347 
L 290.278795 -228.981347 
L 288.98601 -228.981347 
L 287.693224 -228.981347 
L 286.400438 -228.981347 
L 285.107653 -228.981347 
L 283.814867 -228.981347 
L 282.522082 -228.981347 
L 281.229296 -228.981347 
L 279.936511 -228.981347 
L 278.643725 -228.981347 
L 277.350939 -228.981347 
L 276.058154 -228.981347 
L 274.765368 -228.981347 
L 273.472583 -228.981347 
L 272.179797 -228.981347 
L 270.887012 -228.981347 
L 269.594226 -228.981347 
L 268.30144 -228.981347 
L 267.008655 -228.981347 
L 265.715869 -228.981347 
L 264.423084 -228.981347 
L 263.130298 -228.981347 
L 261.837513 -228.981347 
L 260.544727 -228.981347 
L 259.251941 -228.981347 
L 257.959156 -228.981347 
L 256.66637 -228.981347 
L 255.373585 -228.981347 
L 254.080799 -228.981347 
L 252.788014 -228.981347 
L 251.495228 -228.981347 
L 250.202442 -228.981347 
L 248.909657 -228.981347 
L 247.616871 -228.981347 
L 246.324086 -228.981347 
L 245.0313 -228.981347 
L 243.738515 -228.981347 
L 242.445729 -228.981347 
L 241.152943 -228.981347 
L 239.860158 -228.981347 
L 238.567372 -228.981347 
L 237.274587 -228.981347 
L 235.981801 -228.981347 
L 234.689016 -228.981347 
L 233.39623 -228.981347 
L 232.103444 -228.981347 
L 230.810659 -228.981347 
L 229.517873 -228.981347 
L 228.225088 -228.981347 
L 226.932302 -228.981347 
L 225.639517 -228.981347 
L 224.346731 -228.981347 
L 223.053945 -228.981347 
L 221.76116 -228.981347 
L 220.468374 -228.981347 
L 219.175589 -228.981347 
L 217.882803 -228.981347 
L 216.590018 -228.981347 
L 215.297232 -228.981347 
L 214.004446 -228.981347 
L 212.711661 -228.981347 
L 211.418875 -228.981347 
L 210.12609 -228.981347 
L 208.833304 -228.981347 
L 207.540519 -228.981347 
L 206.247733 -228.981347 
L 204.954947 -228.981347 
L 203.662162 -228.981347 
L 202.369376 -228.981347 
L 201.076591 -228.981347 
L 199.783805 -228.981347 
L 198.49102 -228.981347 
L 197.198234 -228.981347 
L 195.905448 -228.981347 
L 194.612663 -228.981347 
L 193.319877 -228.981347 
L 192.027092 -228.981347 
L 190.734306 -228.981347 
L 189.441521 -228.981347 
L 188.148735 -228.981347 
L 186.855949 -228.981347 
L 185.563164 -228.981347 
L 184.270378 -228.981347 
L 182.977593 -228.981347 
L 181.684807 -228.981347 
L 180.392022 -228.981347 
L 179.099236 -228.981347 
L 177.80645 -228.981347 
L 176.513665 -228.981347 
L 175.220879 -228.981347 
L 173.928094 -228.981347 
L 172.635308 -228.981347 
L 171.342523 -228.981347 
L 170.049737 -228.981347 
L 168.756951 -228.981347 
L 167.464166 -228.981347 
L 166.17138 -228.981347 
L 164.878595 -228.981347 
L 163.585809 -228.981347 
L 162.293024 -228.981347 
L 161.000238 -228.981347 
L 159.707452 -228.981347 
L 158.414667 -228.981347 
L 157.121881 -228.981347 
L 155.829096 -228.981347 
L 154.53631 -228.981347 
L 153.243525 -228.981347 
L 151.950739 -228.981347 
L 150.657953 -228.981347 
L 149.365168 -228.981347 
L 148.072382 -228.981347 
L 146.779597 -228.981347 
L 145.486811 -228.981347 
L 144.194026 -228.981347 
L 142.90124 -228.981347 
L 141.608454 -228.981347 
L 140.315669 -228.981347 
L 139.022883 -228.981347 
L 137.730098 -228.981347 
L 136.437312 -228.981347 
L 135.144527 -228.981347 
L 133.851741 -228.981347 
L 132.558955 -228.981347 
L 131.26617 -228.981347 
L 129.973384 -228.981347 
L 128.680599 -228.981347 
L 127.387813 -228.981347 
L 126.095028 -228.981347 
L 124.802242 -228.981347 
L 123.509456 -228.981347 
L 122.216671 -228.981347 
L 120.923885 -228.981347 
L 119.6311 -228.981347 
L 118.338314 -228.981347 
L 117.045529 -228.981347 
L 115.752743 -228.981347 
L 114.459957 -228.981347 
L 113.167172 -228.981347 
L 111.874386 -228.981347 
L 110.581601 -228.981347 
L 109.288815 -228.981347 
L 107.99603 -228.981347 
L 106.703244 -228.981347 
L 105.410458 -228.981347 
L 104.117673 -228.981347 
L 102.824887 -228.981347 
L 101.532102 -228.981347 
L 100.239316 -228.981347 
L 98.946531 -228.981347 
L 97.653745 -228.981347 
L 96.360959 -228.981347 
L 95.068174 -228.981347 
L 93.775388 -228.981347 
L 92.482603 -228.981347 
L 91.189817 -228.981347 
L 89.897032 -228.981347 
L 88.604246 -228.981347 
L 87.31146 -228.981347 
L 86.018675 -228.981347 
L 84.725889 -228.981347 
L 83.433104 -228.981347 
L 82.140318 -228.981347 
L 80.847533 -228.981347 
L 79.554747 -228.981347 
L 78.261961 -228.981347 
L 76.969176 -228.981347 
L 75.67639 -228.981347 
L 74.383605 -228.981347 
L 73.090819 -228.981347 
L 71.798034 -228.981347 
L 70.505248 -228.981347 
L 69.212462 -228.981347 
L 67.919677 -228.981347 
L 66.626891 -228.981347 
L 65.334106 -228.981347 
L 64.04132 -228.981347 
L 62.748535 -228.981347 
L 61.455749 -228.981347 
L 60.162963 -228.981347 
L 58.870178 -228.981347 
L 57.577392 -228.981347 
L 56.284607 -228.981347 
L 54.991821 -228.981347 
L 53.699036 -228.981347 
L 52.40625 -228.981347 
z
" style="stroke: #ff0000; stroke-opacity: 0.06"/>
    </defs>
    <g clip-path="url(#pd56f791255)">
     <use xlink:href="#m17371b0ef0" x="0" y="419.032087" style="fill: #ff0000; fill-opacity: 0.06; stroke: #ff0000; stroke-opacity: 0.06"/>
    </g>
   </g>
   <g id="FillBetweenPolyCollection_2">
    <defs>
     <path id="m66a967d48a" d="M 345.868575 -228.981347 
L 345.868575 -228.898699 
L 347.16136 -228.426753 
L 348.454146 -227.954949 
L 349.746931 -227.483274 
L 351.039717 -227.011715 
L 352.332503 -226.540257 
L 353.625288 -226.068887 
L 354.918074 -225.597591 
L 356.210859 -225.126356 
L 357.503645 -224.655167 
L 358.79643 -224.184011 
L 360.089216 -223.712874 
L 361.382002 -223.241743 
L 362.674787 -222.770604 
L 363.967573 -222.299443 
L 365.260358 -221.828246 
L 366.553144 -221.357 
L 367.845929 -220.885691 
L 369.138715 -220.414305 
L 370.431501 -219.942829 
L 371.724286 -219.471248 
L 373.017072 -218.99955 
L 374.309857 -218.52772 
L 375.602643 -218.055745 
L 376.895428 -217.583611 
L 378.188214 -217.111304 
L 379.480999 -216.63881 
L 380.773785 -216.166116 
L 382.066571 -215.693208 
L 383.359356 -215.220072 
L 384.652142 -214.746695 
L 385.944927 -214.273062 
L 387.237713 -213.79916 
L 388.530498 -213.324976 
L 389.823284 -212.850494 
L 391.11607 -212.375702 
L 392.408855 -211.900586 
L 393.701641 -211.425131 
L 394.994426 -210.949325 
L 396.287212 -210.473153 
L 397.579997 -209.9966 
L 398.872783 -209.519655 
L 400.165569 -209.042302 
L 401.458354 -208.564527 
L 402.75114 -208.086318 
L 404.043925 -207.607659 
L 405.336711 -207.128537 
L 406.629496 -206.648938 
L 407.922282 -206.168849 
L 409.215068 -205.688254 
L 410.507853 -205.20714 
L 411.800639 -204.725493 
L 413.093424 -204.2433 
L 414.38621 -203.760545 
L 415.678995 -203.277216 
L 416.971781 -202.793297 
L 418.264567 -202.308776 
L 419.557352 -201.823637 
L 420.850138 -201.337866 
L 422.142923 -200.85145 
L 423.435709 -200.364375 
L 424.728494 -199.876625 
L 426.02128 -199.388188 
L 427.314066 -198.899048 
L 428.606851 -198.409192 
L 429.899637 -197.918605 
L 431.192422 -197.427274 
L 432.485208 -196.935182 
L 433.777993 -196.442318 
L 435.070779 -195.948665 
L 436.363565 -195.45421 
L 437.65635 -194.958938 
L 438.949136 -194.462836 
L 440.241921 -193.965887 
L 441.534707 -193.468079 
L 442.827492 -192.969396 
L 444.120278 -192.469824 
L 445.413064 -191.969349 
L 446.705849 -191.467955 
L 447.998635 -190.965629 
L 449.29142 -190.462355 
L 450.584206 -189.95812 
L 451.876991 -189.452908 
L 453.169777 -188.946705 
L 454.462563 -188.439495 
L 455.755348 -187.931265 
L 457.048134 -187.421999 
L 458.340919 -186.911683 
L 459.633705 -186.400301 
L 460.92649 -185.887839 
L 462.219276 -185.374283 
L 463.512062 -184.859616 
L 464.804847 -184.343824 
L 466.097633 -183.826893 
L 467.390418 -183.308806 
L 468.683204 -182.789549 
L 469.975989 -182.269107 
L 471.268775 -181.747465 
L 472.561561 -181.224607 
L 473.854346 -180.700518 
L 475.147132 -180.175184 
L 476.439917 -179.648588 
L 477.732703 -179.120715 
L 479.025488 -178.591551 
L 480.318274 -178.061079 
L 481.61106 -177.529284 
L 482.903845 -176.996152 
L 484.196631 -176.461665 
L 485.489416 -175.925809 
L 486.782202 -175.388568 
L 488.074987 -174.849927 
L 489.367773 -174.309869 
L 490.660559 -173.768379 
L 491.953344 -173.225442 
L 493.24613 -172.681041 
L 494.538915 -172.135161 
L 495.831701 -171.587786 
L 497.124486 -171.038899 
L 498.417272 -170.488486 
L 499.710058 -169.936529 
L 501.002843 -169.383013 
L 502.295629 -168.827922 
L 503.588414 -168.271239 
L 504.8812 -167.712949 
L 506.173985 -167.153035 
L 507.466771 -166.591481 
L 508.759557 -166.02827 
L 510.052342 -165.463386 
L 511.345128 -164.896813 
L 512.637913 -164.328534 
L 513.930699 -163.758533 
L 515.223484 -163.186792 
L 516.51627 -162.613296 
L 517.809056 -162.038028 
L 519.101841 -161.460971 
L 520.394627 -160.882108 
L 521.687412 -160.301423 
L 522.980198 -159.718898 
L 524.272983 -159.134516 
L 525.565769 -158.548261 
L 526.858555 -157.960115 
L 528.15134 -157.370062 
L 529.444126 -156.778084 
L 530.736911 -156.184163 
L 532.029697 -155.588284 
L 533.322482 -154.990428 
L 534.615268 -154.390577 
L 535.908054 -153.788716 
L 537.200839 -153.184825 
L 538.493625 -152.578887 
L 539.78641 -151.970885 
L 541.079196 -151.360802 
L 542.371981 -150.748618 
L 543.664767 -150.134317 
L 544.957553 -149.517881 
L 546.250338 -148.899292 
L 547.543124 -148.278531 
L 548.835909 -147.655581 
L 550.128695 -147.030423 
L 551.42148 -146.403039 
L 552.714266 -145.773412 
L 554.007052 -145.141522 
L 555.299837 -144.507352 
L 556.592623 -143.870883 
L 557.885408 -143.232096 
L 559.178194 -142.590973 
L 560.470979 -141.947495 
L 561.763765 -141.301643 
L 563.056551 -140.653399 
L 564.349336 -140.002744 
L 565.642122 -139.349658 
L 566.934907 -138.694124 
L 568.227693 -138.036121 
L 569.520478 -137.375631 
L 570.813264 -136.712634 
L 572.10605 -136.047111 
L 573.398835 -135.379043 
L 574.691621 -134.70841 
L 575.984406 -134.035193 
L 577.277192 -133.359373 
L 578.569977 -132.680928 
L 579.862763 -131.999841 
L 581.155549 -131.31609 
L 582.448334 -130.629657 
L 583.74112 -129.940521 
L 585.033905 -129.248662 
L 586.326691 -128.554059 
L 587.619476 -127.856694 
L 588.912262 -127.156544 
L 590.205048 -126.453591 
L 591.497833 -125.747814 
L 592.790619 -125.039191 
L 594.083404 -124.327703 
L 595.37619 -123.613329 
L 596.668975 -122.896047 
L 597.961761 -122.175838 
L 599.254547 -121.45268 
L 600.547332 -120.726552 
L 601.840118 -119.997432 
L 603.132903 -119.265301 
L 604.425689 -118.530136 
L 605.718474 -117.791916 
L 607.01126 -117.05062 
L 608.304046 -116.306225 
L 609.596831 -115.558711 
L 610.889617 -114.808056 
L 612.182402 -114.054237 
L 613.475188 -113.297233 
L 614.767973 -112.537022 
L 616.060759 -111.773581 
L 617.353545 -111.006889 
L 618.64633 -110.236923 
L 619.939116 -109.463661 
L 621.231901 -108.68708 
L 622.524687 -107.907158 
L 623.817472 -107.123872 
L 625.110258 -106.337198 
L 626.403044 -105.547115 
L 627.695829 -104.7536 
L 628.988615 -103.956628 
L 630.2814 -103.156178 
L 631.574186 -102.352225 
L 632.866971 -101.544747 
L 634.159757 -100.733719 
L 635.452543 -99.919118 
L 636.745328 -99.100922 
L 638.038114 -98.279104 
L 639.330899 -97.453643 
L 640.623685 -96.624513 
L 641.91647 -95.791691 
L 643.209256 -94.955153 
L 644.502042 -94.114873 
L 645.794827 -93.270829 
L 647.087613 -92.422994 
L 648.380398 -91.571344 
L 649.673184 -90.715856 
L 650.965969 -89.856503 
L 652.258755 -88.99326 
L 653.551541 -88.126104 
L 654.844326 -87.255007 
L 656.137112 -86.379946 
L 657.429897 -85.500895 
L 658.722683 -84.617827 
L 660.015468 -83.730717 
L 661.308254 -82.839541 
L 662.60104 -81.94427 
L 663.893825 -81.04488 
L 665.186611 -80.141345 
L 666.479396 -79.233637 
L 667.772182 -78.321732 
L 669.064967 -77.405601 
L 670.357753 -76.485219 
L 671.650539 -75.560558 
L 672.943324 -74.631592 
L 674.23611 -73.698294 
L 675.528895 -72.760636 
L 676.821681 -71.818592 
L 678.114466 -70.872134 
L 679.407252 -69.921234 
L 680.700038 -68.965864 
L 681.992823 -68.005998 
L 683.285609 -67.041606 
L 684.578394 -66.072661 
L 685.87118 -65.099135 
L 687.163965 -64.121 
L 688.456751 -63.138226 
L 689.749537 -62.150786 
L 691.042322 -61.15865 
L 692.335108 -60.16179 
L 693.627893 -59.160176 
L 694.920679 -58.15378 
L 696.213464 -57.142573 
L 697.50625 -56.126524 
L 697.50625 -228.981347 
L 697.50625 -228.981347 
L 696.213464 -228.981347 
L 694.920679 -228.981347 
L 693.627893 -228.981347 
L 692.335108 -228.981347 
L 691.042322 -228.981347 
L 689.749537 -228.981347 
L 688.456751 -228.981347 
L 687.163965 -228.981347 
L 685.87118 -228.981347 
L 684.578394 -228.981347 
L 683.285609 -228.981347 
L 681.992823 -228.981347 
L 680.700038 -228.981347 
L 679.407252 -228.981347 
L 678.114466 -228.981347 
L 676.821681 -228.981347 
L 675.528895 -228.981347 
L 674.23611 -228.981347 
L 672.943324 -228.981347 
L 671.650539 -228.981347 
L 670.357753 -228.981347 
L 669.064967 -228.981347 
L 667.772182 -228.981347 
L 666.479396 -228.981347 
L 665.186611 -228.981347 
L 663.893825 -228.981347 
L 662.60104 -228.981347 
L 661.308254 -228.981347 
L 660.015468 -228.981347 
L 658.722683 -228.981347 
L 657.429897 -228.981347 
L 656.137112 -228.981347 
L 654.844326 -228.981347 
L 653.551541 -228.981347 
L 652.258755 -228.981347 
L 650.965969 -228.981347 
L 649.673184 -228.981347 
L 648.380398 -228.981347 
L 647.087613 -228.981347 
L 645.794827 -228.981347 
L 644.502042 -228.981347 
L 643.209256 -228.981347 
L 641.91647 -228.981347 
L 640.623685 -228.981347 
L 639.330899 -228.981347 
L 638.038114 -228.981347 
L 636.745328 -228.981347 
L 635.452543 -228.981347 
L 634.159757 -228.981347 
L 632.866971 -228.981347 
L 631.574186 -228.981347 
L 630.2814 -228.981347 
L 628.988615 -228.981347 
L 627.695829 -228.981347 
L 626.403044 -228.981347 
L 625.110258 -228.981347 
L 623.817472 -228.981347 
L 622.524687 -228.981347 
L 621.231901 -228.981347 
L 619.939116 -228.981347 
L 618.64633 -228.981347 
L 617.353545 -228.981347 
L 616.060759 -228.981347 
L 614.767973 -228.981347 
L 613.475188 -228.981347 
L 612.182402 -228.981347 
L 610.889617 -228.981347 
L 609.596831 -228.981347 
L 608.304046 -228.981347 
L 607.01126 -228.981347 
L 605.718474 -228.981347 
L 604.425689 -228.981347 
L 603.132903 -228.981347 
L 601.840118 -228.981347 
L 600.547332 -228.981347 
L 599.254547 -228.981347 
L 597.961761 -228.981347 
L 596.668975 -228.981347 
L 595.37619 -228.981347 
L 594.083404 -228.981347 
L 592.790619 -228.981347 
L 591.497833 -228.981347 
L 590.205048 -228.981347 
L 588.912262 -228.981347 
L 587.619476 -228.981347 
L 586.326691 -228.981347 
L 585.033905 -228.981347 
L 583.74112 -228.981347 
L 582.448334 -228.981347 
L 581.155549 -228.981347 
L 579.862763 -228.981347 
L 578.569977 -228.981347 
L 577.277192 -228.981347 
L 575.984406 -228.981347 
L 574.691621 -228.981347 
L 573.398835 -228.981347 
L 572.10605 -228.981347 
L 570.813264 -228.981347 
L 569.520478 -228.981347 
L 568.227693 -228.981347 
L 566.934907 -228.981347 
L 565.642122 -228.981347 
L 564.349336 -228.981347 
L 563.056551 -228.981347 
L 561.763765 -228.981347 
L 560.470979 -228.981347 
L 559.178194 -228.981347 
L 557.885408 -228.981347 
L 556.592623 -228.981347 
L 555.299837 -228.981347 
L 554.007052 -228.981347 
L 552.714266 -228.981347 
L 551.42148 -228.981347 
L 550.128695 -228.981347 
L 548.835909 -228.981347 
L 547.543124 -228.981347 
L 546.250338 -228.981347 
L 544.957553 -228.981347 
L 543.664767 -228.981347 
L 542.371981 -228.981347 
L 541.079196 -228.981347 
L 539.78641 -228.981347 
L 538.493625 -228.981347 
L 537.200839 -228.981347 
L 535.908054 -228.981347 
L 534.615268 -228.981347 
L 533.322482 -228.981347 
L 532.029697 -228.981347 
L 530.736911 -228.981347 
L 529.444126 -228.981347 
L 528.15134 -228.981347 
L 526.858555 -228.981347 
L 525.565769 -228.981347 
L 524.272983 -228.981347 
L 522.980198 -228.981347 
L 521.687412 -228.981347 
L 520.394627 -228.981347 
L 519.101841 -228.981347 
L 517.809056 -228.981347 
L 516.51627 -228.981347 
L 515.223484 -228.981347 
L 513.930699 -228.981347 
L 512.637913 -228.981347 
L 511.345128 -228.981347 
L 510.052342 -228.981347 
L 508.759557 -228.981347 
L 507.466771 -228.981347 
L 506.173985 -228.981347 
L 504.8812 -228.981347 
L 503.588414 -228.981347 
L 502.295629 -228.981347 
L 501.002843 -228.981347 
L 499.710058 -228.981347 
L 498.417272 -228.981347 
L 497.124486 -228.981347 
L 495.831701 -228.981347 
L 494.538915 -228.981347 
L 493.24613 -228.981347 
L 491.953344 -228.981347 
L 490.660559 -228.981347 
L 489.367773 -228.981347 
L 488.074987 -228.981347 
L 486.782202 -228.981347 
L 485.489416 -228.981347 
L 484.196631 -228.981347 
L 482.903845 -228.981347 
L 481.61106 -228.981347 
L 480.318274 -228.981347 
L 479.025488 -228.981347 
L 477.732703 -228.981347 
L 476.439917 -228.981347 
L 475.147132 -228.981347 
L 473.854346 -228.981347 
L 472.561561 -228.981347 
L 471.268775 -228.981347 
L 469.975989 -228.981347 
L 468.683204 -228.981347 
L 467.390418 -228.981347 
L 466.097633 -228.981347 
L 464.804847 -228.981347 
L 463.512062 -228.981347 
L 462.219276 -228.981347 
L 460.92649 -228.981347 
L 459.633705 -228.981347 
L 458.340919 -228.981347 
L 457.048134 -228.981347 
L 455.755348 -228.981347 
L 454.462563 -228.981347 
L 453.169777 -228.981347 
L 451.876991 -228.981347 
L 450.584206 -228.981347 
L 449.29142 -228.981347 
L 447.998635 -228.981347 
L 446.705849 -228.981347 
L 445.413064 -228.981347 
L 444.120278 -228.981347 
L 442.827492 -228.981347 
L 441.534707 -228.981347 
L 440.241921 -228.981347 
L 438.949136 -228.981347 
L 437.65635 -228.981347 
L 436.363565 -228.981347 
L 435.070779 -228.981347 
L 433.777993 -228.981347 
L 432.485208 -228.981347 
L 431.192422 -228.981347 
L 429.899637 -228.981347 
L 428.606851 -228.981347 
L 427.314066 -228.981347 
L 426.02128 -228.981347 
L 424.728494 -228.981347 
L 423.435709 -228.981347 
L 422.142923 -228.981347 
L 420.850138 -228.981347 
L 419.557352 -228.981347 
L 418.264567 -228.981347 
L 416.971781 -228.981347 
L 415.678995 -228.981347 
L 414.38621 -228.981347 
L 413.093424 -228.981347 
L 411.800639 -228.981347 
L 410.507853 -228.981347 
L 409.215068 -228.981347 
L 407.922282 -228.981347 
L 406.629496 -228.981347 
L 405.336711 -228.981347 
L 404.043925 -228.981347 
L 402.75114 -228.981347 
L 401.458354 -228.981347 
L 400.165569 -228.981347 
L 398.872783 -228.981347 
L 397.579997 -228.981347 
L 396.287212 -228.981347 
L 394.994426 -228.981347 
L 393.701641 -228.981347 
L 392.408855 -228.981347 
L 391.11607 -228.981347 
L 389.823284 -228.981347 
L 388.530498 -228.981347 
L 387.237713 -228.981347 
L 385.944927 -228.981347 
L 384.652142 -228.981347 
L 383.359356 -228.981347 
L 382.066571 -228.981347 
L 380.773785 -228.981347 
L 379.480999 -228.981347 
L 378.188214 -228.981347 
L 376.895428 -228.981347 
L 375.602643 -228.981347 
L 374.309857 -228.981347 
L 373.017072 -228.981347 
L 371.724286 -228.981347 
L 370.431501 -228.981347 
L 369.138715 -228.981347 
L 367.845929 -228.981347 
L 366.553144 -228.981347 
L 365.260358 -228.981347 
L 363.967573 -228.981347 
L 362.674787 -228.981347 
L 361.382002 -228.981347 
L 360.089216 -228.981347 
L 358.79643 -228.981347 
L 357.503645 -228.981347 
L 356.210859 -228.981347 
L 354.918074 -228.981347 
L 353.625288 -228.981347 
L 352.332503 -228.981347 
L 351.039717 -228.981347 
L 349.746931 -228.981347 
L 348.454146 -228.981347 
L 347.16136 -228.981347 
L 345.868575 -228.981347 
z
" style="stroke: #0000ff; stroke-opacity: 0.06"/>
    </defs>
    <g clip-path="url(#pd56f791255)">
     <use xlink:href="#m66a967d48a" x="0" y="419.032087" style="fill: #0000ff; fill-opacity: 0.06; stroke: #0000ff; stroke-opacity: 0.06"/>
    </g>
   </g>
   <g id="matplotlib.axis_1">
    <g id="xtick_1">
     <g id="line2d_1">
      <defs>
       <path id="m5b8c7bee29" d="M 0 0 
L 0 3.5 
" style="stroke: #000000; stroke-width: 0.8"/>
      </defs>
      <g>
       <use xlink:href="#m5b8c7bee29" x="52.40625" y="378.5724" style="stroke: #000000; stroke-width: 0.8"/>
      </g>
     </g>
     <g id="text_1">
      <!-- 0.0 -->
      <g transform="translate(44.454688 393.170837) scale(0.1 -0.1)">
       <defs>
        <path id="DejaVuSans-30" d="M 2034 4250 
Q 1547 4250 1301 3770 
Q 1056 3291 1056 2328 
Q 1056 1369 1301 889 
Q 1547 409 2034 409 
Q 2525 409 2770 889 
Q 3016 1369 3016 2328 
Q 3016 3291 2770 3770 
Q 2525 4250 2034 4250 
z
M 2034 4750 
Q 2819 4750 3233 4129 
Q 3647 3509 3647 2328 
Q 3647 1150 3233 529 
Q 2819 -91 2034 -91 
Q 1250 -91 836 529 
Q 422 1150 422 2328 
Q 422 3509 836 4129 
Q 1250 4750 2034 4750 
z
" transform="scale(0.015625)"/>
        <path id="DejaVuSans-2e" d="M 684 794 
L 1344 794 
L 1344 0 
L 684 0 
L 684 794 
z
" transform="scale(0.015625)"/>
       </defs>
       <use xlink:href="#DejaVuSans-30"/>
       <use xlink:href="#DejaVuSans-2e" transform="translate(63.623047 0)"/>
       <use xlink:href="#DejaVuSans-30" transform="translate(95.410156 0)"/>
      </g>
     </g>
    </g>
    <g id="xtick_2">
     <g id="line2d_2">
      <g>
       <use xlink:href="#m5b8c7bee29" x="181.42625" y="378.5724" style="stroke: #000000; stroke-width: 0.8"/>
      </g>
     </g>
     <g id="text_2">
      <!-- 0.2 -->
      <g transform="translate(173.474688 393.170837) scale(0.1 -0.1)">
       <defs>
        <path id="DejaVuSans-32" d="M 1228 531 
L 3431 531 
L 3431 0 
L 469 0 
L 469 531 
Q 828 903 1448 1529 
Q 2069 2156 2228 2338 
Q 2531 2678 2651 2914 
Q 2772 3150 2772 3378 
Q 2772 3750 2511 3984 
Q 2250 4219 1831 4219 
Q 1534 4219 1204 4116 
Q 875 4013 500 3803 
L 500 4441 
Q 881 4594 1212 4672 
Q 1544 4750 1819 4750 
Q 2544 4750 2975 4387 
Q 3406 4025 3406 3419 
Q 3406 3131 3298 2873 
Q 3191 2616 2906 2266 
Q 2828 2175 2409 1742 
Q 1991 1309 1228 531 
z
" transform="scale(0.015625)"/>
       </defs>
       <use xlink:href="#DejaVuSans-30"/>
       <use xlink:href="#DejaVuSans-2e" transform="translate(63.623047 0)"/>
       <use xlink:href="#DejaVuSans-32" transform="translate(95.410156 0)"/>
      </g>
     </g>
    </g>
    <g id="xtick_3">
     <g id="line2d_3">
      <g>
       <use xlink:href="#m5b8c7bee29" x="310.44625" y="378.5724" style="stroke: #000000; stroke-width: 0.8"/>
      </g>
     </g>
     <g id="text_3">
      <!-- 0.4 -->
      <g transform="translate(302.494687 393.170837) scale(0.1 -0.1)">
       <defs>
        <path id="DejaVuSans-34" d="M 2419 4116 
L 825 1625 
L 2419 1625 
L 2419 4116 
z
M 2253 4666 
L 3047 4666 
L 3047 1625 
L 3713 1625 
L 3713 1100 
L 3047 1100 
L 3047 0 
L 2419 0 
L 2419 1100 
L 313 1100 
L 313 1709 
L 2253 4666 
z
" transform="scale(0.015625)"/>
       </defs>
       <use xlink:href="#DejaVuSans-30"/>
       <use xlink:href="#DejaVuSans-2e" transform="translate(63.623047 0)"/>
       <use xlink:href="#DejaVuSans-34" transform="translate(95.410156 0)"/>
      </g>
     </g>
    </g>
    <g id="xtick_4">
     <g id="line2d_4">
      <g>
       <use xlink:href="#m5b8c7bee29" x="439.46625" y="378.5724" style="stroke: #000000; stroke-width: 0.8"/>
      </g>
     </g>
     <g id="text_4">
      <!-- 0.6 -->
      <g transform="translate(431.514688 393.170837) scale(0.1 -0.1)">
       <defs>
        <path id="DejaVuSans-36" d="M 2113 2584 
Q 1688 2584 1439 2293 
Q 1191 2003 1191 1497 
Q 1191 994 1439 701 
Q 1688 409 2113 409 
Q 2538 409 2786 701 
Q 3034 994 3034 1497 
Q 3034 2003 2786 2293 
Q 2538 2584 2113 2584 
z
M 3366 4563 
L 3366 3988 
Q 3128 4100 2886 4159 
Q 2644 4219 2406 4219 
Q 1781 4219 1451 3797 
Q 1122 3375 1075 2522 
Q 1259 2794 1537 2939 
Q 1816 3084 2150 3084 
Q 2853 3084 3261 2657 
Q 3669 2231 3669 1497 
Q 3669 778 3244 343 
Q 2819 -91 2113 -91 
Q 1303 -91 875 529 
Q 447 1150 447 2328 
Q 447 3434 972 4092 
Q 1497 4750 2381 4750 
Q 2619 4750 2861 4703 
Q 3103 4656 3366 4563 
z
" transform="scale(0.015625)"/>
       </defs>
       <use xlink:href="#DejaVuSans-30"/>
       <use xlink:href="#DejaVuSans-2e" transform="translate(63.623047 0)"/>
       <use xlink:href="#DejaVuSans-36" transform="translate(95.410156 0)"/>
      </g>
     </g>
    </g>
    <g id="xtick_5">
     <g id="line2d_5">
      <g>
       <use xlink:href="#m5b8c7bee29" x="568.48625" y="378.5724" style="stroke: #000000; stroke-width: 0.8"/>
      </g>
     </g>
     <g id="text_5">
      <!-- 0.8 -->
      <g transform="translate(560.534688 393.170837) scale(0.1 -0.1)">
       <defs>
        <path id="DejaVuSans-38" d="M 2034 2216 
Q 1584 2216 1326 1975 
Q 1069 1734 1069 1313 
Q 1069 891 1326 650 
Q 1584 409 2034 409 
Q 2484 409 2743 651 
Q 3003 894 3003 1313 
Q 3003 1734 2745 1975 
Q 2488 2216 2034 2216 
z
M 1403 2484 
Q 997 2584 770 2862 
Q 544 3141 544 3541 
Q 544 4100 942 4425 
Q 1341 4750 2034 4750 
Q 2731 4750 3128 4425 
Q 3525 4100 3525 3541 
Q 3525 3141 3298 2862 
Q 3072 2584 2669 2484 
Q 3125 2378 3379 2068 
Q 3634 1759 3634 1313 
Q 3634 634 3220 271 
Q 2806 -91 2034 -91 
Q 1263 -91 848 271 
Q 434 634 434 1313 
Q 434 1759 690 2068 
Q 947 2378 1403 2484 
z
M 1172 3481 
Q 1172 3119 1398 2916 
Q 1625 2713 2034 2713 
Q 2441 2713 2670 2916 
Q 2900 3119 2900 3481 
Q 2900 3844 2670 4047 
Q 2441 4250 2034 4250 
Q 1625 4250 1398 4047 
Q 1172 3844 1172 3481 
z
" transform="scale(0.015625)"/>
       </defs>
       <use xlink:href="#DejaVuSans-30"/>
       <use xlink:href="#DejaVuSans-2e" transform="translate(63.623047 0)"/>
       <use xlink:href="#DejaVuSans-38" transform="translate(95.410156 0)"/>
      </g>
     </g>
    </g>
    <g id="xtick_6">
     <g id="line2d_6">
      <g>
       <use xlink:href="#m5b8c7bee29" x="697.50625" y="378.5724" style="stroke: #000000; stroke-width: 0.8"/>
      </g>
     </g>
     <g id="text_6">
      <!-- 1.0 -->
      <g transform="translate(689.554688 393.170837) scale(0.1 -0.1)">
       <defs>
        <path id="DejaVuSans-31" d="M 794 531 
L 1825 531 
L 1825 4091 
L 703 3866 
L 703 4441 
L 1819 4666 
L 2450 4666 
L 2450 531 
L 3481 531 
L 3481 0 
L 794 0 
L 794 531 
z
" transform="scale(0.015625)"/>
       </defs>
       <use xlink:href="#DejaVuSans-31"/>
       <use xlink:href="#DejaVuSans-2e" transform="translate(63.623047 0)"/>
       <use xlink:href="#DejaVuSans-30" transform="translate(95.410156 0)"/>
      </g>
     </g>
    </g>
    <g id="text_7">
     <!-- Stablecoin fraction $f$ -->
     <g transform="translate(309.50125 409.128494) scale(0.13 -0.13)">
      <defs>
       <path id="DejaVuSans-53" d="M 3425 4513 
L 3425 3897 
Q 3066 4069 2747 4153 
Q 2428 4238 2131 4238 
Q 1616 4238 1336 4038 
Q 1056 3838 1056 3469 
Q 1056 3159 1242 3001 
Q 1428 2844 1947 2747 
L 2328 2669 
Q 3034 2534 3370 2195 
Q 3706 1856 3706 1288 
Q 3706 609 3251 259 
Q 2797 -91 1919 -91 
Q 1588 -91 1214 -16 
Q 841 59 441 206 
L 441 856 
Q 825 641 1194 531 
Q 1563 422 1919 422 
Q 2459 422 2753 634 
Q 3047 847 3047 1241 
Q 3047 1584 2836 1778 
Q 2625 1972 2144 2069 
L 1759 2144 
Q 1053 2284 737 2584 
Q 422 2884 422 3419 
Q 422 4038 858 4394 
Q 1294 4750 2059 4750 
Q 2388 4750 2728 4690 
Q 3069 4631 3425 4513 
z
" transform="scale(0.015625)"/>
       <path id="DejaVuSans-74" d="M 1172 4494 
L 1172 3500 
L 2356 3500 
L 2356 3053 
L 1172 3053 
L 1172 1153 
Q 1172 725 1289 603 
Q 1406 481 1766 481 
L 2356 481 
L 2356 0 
L 1766 0 
Q 1100 0 847 248 
Q 594 497 594 1153 
L 594 3053 
L 172 3053 
L 172 3500 
L 594 3500 
L 594 4494 
L 1172 4494 
z
" transform="scale(0.015625)"/>
       <path id="DejaVuSans-61" d="M 2194 1759 
Q 1497 1759 1228 1600 
Q 959 1441 959 1056 
Q 959 750 1161 570 
Q 1363 391 1709 391 
Q 2188 391 2477 730 
Q 2766 1069 2766 1631 
L 2766 1759 
L 2194 1759 
z
M 3341 1997 
L 3341 0 
L 2766 0 
L 2766 531 
Q 2569 213 2275 61 
Q 1981 -91 1556 -91 
Q 1019 -91 701 211 
Q 384 513 384 1019 
Q 384 1609 779 1909 
Q 1175 2209 1959 2209 
L 2766 2209 
L 2766 2266 
Q 2766 2663 2505 2880 
Q 2244 3097 1772 3097 
Q 1472 3097 1187 3025 
Q 903 2953 641 2809 
L 641 3341 
Q 956 3463 1253 3523 
Q 1550 3584 1831 3584 
Q 2591 3584 2966 3190 
Q 3341 2797 3341 1997 
z
" transform="scale(0.015625)"/>
       <path id="DejaVuSans-62" d="M 3116 1747 
Q 3116 2381 2855 2742 
Q 2594 3103 2138 3103 
Q 1681 3103 1420 2742 
Q 1159 2381 1159 1747 
Q 1159 1113 1420 752 
Q 1681 391 2138 391 
Q 2594 391 2855 752 
Q 3116 1113 3116 1747 
z
M 1159 2969 
Q 1341 3281 1617 3432 
Q 1894 3584 2278 3584 
Q 2916 3584 3314 3078 
Q 3713 2572 3713 1747 
Q 3713 922 3314 415 
Q 2916 -91 2278 -91 
Q 1894 -91 1617 61 
Q 1341 213 1159 525 
L 1159 0 
L 581 0 
L 581 4863 
L 1159 4863 
L 1159 2969 
z
" transform="scale(0.015625)"/>
       <path id="DejaVuSans-6c" d="M 603 4863 
L 1178 4863 
L 1178 0 
L 603 0 
L 603 4863 
z
" transform="scale(0.015625)"/>
       <path id="DejaVuSans-65" d="M 3597 1894 
L 3597 1613 
L 953 1613 
Q 991 1019 1311 708 
Q 1631 397 2203 397 
Q 2534 397 2845 478 
Q 3156 559 3463 722 
L 3463 178 
Q 3153 47 2828 -22 
Q 2503 -91 2169 -91 
Q 1331 -91 842 396 
Q 353 884 353 1716 
Q 353 2575 817 3079 
Q 1281 3584 2069 3584 
Q 2775 3584 3186 3129 
Q 3597 2675 3597 1894 
z
M 3022 2063 
Q 3016 2534 2758 2815 
Q 2500 3097 2075 3097 
Q 1594 3097 1305 2825 
Q 1016 2553 972 2059 
L 3022 2063 
z
" transform="scale(0.015625)"/>
       <path id="DejaVuSans-63" d="M 3122 3366 
L 3122 2828 
Q 2878 2963 2633 3030 
Q 2388 3097 2138 3097 
Q 1578 3097 1268 2742 
Q 959 2388 959 1747 
Q 959 1106 1268 751 
Q 1578 397 2138 397 
Q 2388 397 2633 464 
Q 2878 531 3122 666 
L 3122 134 
Q 2881 22 2623 -34 
Q 2366 -91 2075 -91 
Q 1284 -91 818 406 
Q 353 903 353 1747 
Q 353 2603 823 3093 
Q 1294 3584 2113 3584 
Q 2378 3584 2631 3529 
Q 2884 3475 3122 3366 
z
" transform="scale(0.015625)"/>
       <path id="DejaVuSans-6f" d="M 1959 3097 
Q 1497 3097 1228 2736 
Q 959 2375 959 1747 
Q 959 1119 1226 758 
Q 1494 397 1959 397 
Q 2419 397 2687 759 
Q 2956 1122 2956 1747 
Q 2956 2369 2687 2733 
Q 2419 3097 1959 3097 
z
M 1959 3584 
Q 2709 3584 3137 3096 
Q 3566 2609 3566 1747 
Q 3566 888 3137 398 
Q 2709 -91 1959 -91 
Q 1206 -91 779 398 
Q 353 888 353 1747 
Q 353 2609 779 3096 
Q 1206 3584 1959 3584 
z
" transform="scale(0.015625)"/>
       <path id="DejaVuSans-69" d="M 603 3500 
L 1178 3500 
L 1178 0 
L 603 0 
L 603 3500 
z
M 603 4863 
L 1178 4863 
L 1178 4134 
L 603 4134 
L 603 4863 
z
" transform="scale(0.015625)"/>
       <path id="DejaVuSans-6e" d="M 3513 2113 
L 3513 0 
L 2938 0 
L 2938 2094 
Q 2938 2591 2744 2837 
Q 2550 3084 2163 3084 
Q 1697 3084 1428 2787 
Q 1159 2491 1159 1978 
L 1159 0 
L 581 0 
L 581 3500 
L 1159 3500 
L 1159 2956 
Q 1366 3272 1645 3428 
Q 1925 3584 2291 3584 
Q 2894 3584 3203 3211 
Q 3513 2838 3513 2113 
z
" transform="scale(0.015625)"/>
       <path id="DejaVuSans-20" transform="scale(0.015625)"/>
       <path id="DejaVuSans-66" d="M 2375 4863 
L 2375 4384 
L 1825 4384 
Q 1516 4384 1395 4259 
Q 1275 4134 1275 3809 
L 1275 3500 
L 2222 3500 
L 2222 3053 
L 1275 3053 
L 1275 0 
L 697 0 
L 697 3053 
L 147 3053 
L 147 3500 
L 697 3500 
L 697 3744 
Q 697 4328 969 4595 
Q 1241 4863 1831 4863 
L 2375 4863 
z
" transform="scale(0.015625)"/>
       <path id="DejaVuSans-72" d="M 2631 2963 
Q 2534 3019 2420 3045 
Q 2306 3072 2169 3072 
Q 1681 3072 1420 2755 
Q 1159 2438 1159 1844 
L 1159 0 
L 581 0 
L 581 3500 
L 1159 3500 
L 1159 2956 
Q 1341 3275 1631 3429 
Q 1922 3584 2338 3584 
Q 2397 3584 2469 3576 
Q 2541 3569 2628 3553 
L 2631 2963 
z
" transform="scale(0.015625)"/>
       <path id="DejaVuSans-Oblique-66" d="M 3059 4863 
L 2969 4384 
L 2419 4384 
Q 2106 4384 1964 4261 
Q 1822 4138 1753 3809 
L 1691 3500 
L 2638 3500 
L 2553 3053 
L 1606 3053 
L 1013 0 
L 434 0 
L 1031 3053 
L 481 3053 
L 563 3500 
L 1113 3500 
L 1159 3744 
Q 1278 4363 1576 4613 
Q 1875 4863 2516 4863 
L 3059 4863 
z
" transform="scale(0.015625)"/>
      </defs>
      <use xlink:href="#DejaVuSans-53" transform="translate(0 0.015625)"/>
      <use xlink:href="#DejaVuSans-74" transform="translate(63.476562 0.015625)"/>
      <use xlink:href="#DejaVuSans-61" transform="translate(102.685547 0.015625)"/>
      <use xlink:href="#DejaVuSans-62" transform="translate(163.964844 0.015625)"/>
      <use xlink:href="#DejaVuSans-6c" transform="translate(227.441406 0.015625)"/>
      <use xlink:href="#DejaVuSans-65" transform="translate(255.224609 0.015625)"/>
      <use xlink:href="#DejaVuSans-63" transform="translate(316.748047 0.015625)"/>
      <use xlink:href="#DejaVuSans-6f" transform="translate(371.728516 0.015625)"/>
      <use xlink:href="#DejaVuSans-69" transform="translate(432.910156 0.015625)"/>
      <use xlink:href="#DejaVuSans-6e" transform="translate(460.693359 0.015625)"/>
      <use xlink:href="#DejaVuSans-20" transform="translate(524.072266 0.015625)"/>
      <use xlink:href="#DejaVuSans-66" transform="translate(555.859375 0.015625)"/>
      <use xlink:href="#DejaVuSans-72" transform="translate(591.064453 0.015625)"/>
      <use xlink:href="#DejaVuSans-61" transform="translate(632.177734 0.015625)"/>
      <use xlink:href="#DejaVuSans-63" transform="translate(693.457031 0.015625)"/>
      <use xlink:href="#DejaVuSans-74" transform="translate(748.4375 0.015625)"/>
      <use xlink:href="#DejaVuSans-69" transform="translate(787.646484 0.015625)"/>
      <use xlink:href="#DejaVuSans-6f" transform="translate(815.429688 0.015625)"/>
      <use xlink:href="#DejaVuSans-6e" transform="translate(876.611328 0.015625)"/>
      <use xlink:href="#DejaVuSans-20" transform="translate(939.990234 0.015625)"/>
      <use xlink:href="#DejaVuSans-Oblique-66" transform="translate(971.777344 0.015625)"/>
     </g>
    </g>
   </g>
   <g id="matplotlib.axis_2">
    <g id="ytick_1">
     <g id="line2d_7">
      <defs>
       <path id="m1780684aca" d="M 0 0 
L -3.5 0 
" style="stroke: #000000; stroke-width: 0.8"/>
      </defs>
      <g>
       <use xlink:href="#m1780684aca" x="52.40625" y="359.27388" style="stroke: #000000; stroke-width: 0.8"/>
      </g>
     </g>
     <g id="text_8">
      <!-- −30 -->
      <g transform="translate(24.301563 363.073099) scale(0.1 -0.1)">
       <defs>
        <path id="DejaVuSans-2212" d="M 678 2272 
L 4684 2272 
L 4684 1741 
L 678 1741 
L 678 2272 
z
" transform="scale(0.015625)"/>
        <path id="DejaVuSans-33" d="M 2597 2516 
Q 3050 2419 3304 2112 
Q 3559 1806 3559 1356 
Q 3559 666 3084 287 
Q 2609 -91 1734 -91 
Q 1441 -91 1130 -33 
Q 819 25 488 141 
L 488 750 
Q 750 597 1062 519 
Q 1375 441 1716 441 
Q 2309 441 2620 675 
Q 2931 909 2931 1356 
Q 2931 1769 2642 2001 
Q 2353 2234 1838 2234 
L 1294 2234 
L 1294 2753 
L 1863 2753 
Q 2328 2753 2575 2939 
Q 2822 3125 2822 3475 
Q 2822 3834 2567 4026 
Q 2313 4219 1838 4219 
Q 1578 4219 1281 4162 
Q 984 4106 628 3988 
L 628 4550 
Q 988 4650 1302 4700 
Q 1616 4750 1894 4750 
Q 2613 4750 3031 4423 
Q 3450 4097 3450 3541 
Q 3450 3153 3228 2886 
Q 3006 2619 2597 2516 
z
" transform="scale(0.015625)"/>
       </defs>
       <use xlink:href="#DejaVuSans-2212"/>
       <use xlink:href="#DejaVuSans-33" transform="translate(83.789062 0)"/>
       <use xlink:href="#DejaVuSans-30" transform="translate(147.412109 0)"/>
      </g>
     </g>
    </g>
    <g id="ytick_2">
     <g id="line2d_8">
      <g>
       <use xlink:href="#m1780684aca" x="52.40625" y="304.685771" style="stroke: #000000; stroke-width: 0.8"/>
      </g>
     </g>
     <g id="text_9">
      <!-- −20 -->
      <g transform="translate(24.301563 308.484989) scale(0.1 -0.1)">
       <use xlink:href="#DejaVuSans-2212"/>
       <use xlink:href="#DejaVuSans-32" transform="translate(83.789062 0)"/>
       <use xlink:href="#DejaVuSans-30" transform="translate(147.412109 0)"/>
      </g>
     </g>
    </g>
    <g id="ytick_3">
     <g id="line2d_9">
      <g>
       <use xlink:href="#m1780684aca" x="52.40625" y="250.097661" style="stroke: #000000; stroke-width: 0.8"/>
      </g>
     </g>
     <g id="text_10">
      <!-- −10 -->
      <g transform="translate(24.301563 253.89688) scale(0.1 -0.1)">
       <use xlink:href="#DejaVuSans-2212"/>
       <use xlink:href="#DejaVuSans-31" transform="translate(83.789062 0)"/>
       <use xlink:href="#DejaVuSans-30" transform="translate(147.412109 0)"/>
      </g>
     </g>
    </g>
    <g id="ytick_4">
     <g id="line2d_10">
      <g>
       <use xlink:href="#m1780684aca" x="52.40625" y="195.509552" style="stroke: #000000; stroke-width: 0.8"/>
      </g>
     </g>
     <g id="text_11">
      <!-- 0 -->
      <g transform="translate(39.04375 199.30877) scale(0.1 -0.1)">
       <use xlink:href="#DejaVuSans-30"/>
      </g>
     </g>
    </g>
    <g id="ytick_5">
     <g id="line2d_11">
      <g>
       <use xlink:href="#m1780684aca" x="52.40625" y="140.921442" style="stroke: #000000; stroke-width: 0.8"/>
      </g>
     </g>
     <g id="text_12">
      <!-- 10 -->
      <g transform="translate(32.68125 144.720661) scale(0.1 -0.1)">
       <use xlink:href="#DejaVuSans-31"/>
       <use xlink:href="#DejaVuSans-30" transform="translate(63.623047 0)"/>
      </g>
     </g>
    </g>
    <g id="ytick_6">
     <g id="line2d_12">
      <g>
       <use xlink:href="#m1780684aca" x="52.40625" y="86.333333" style="stroke: #000000; stroke-width: 0.8"/>
      </g>
     </g>
     <g id="text_13">
      <!-- 20 -->
      <g transform="translate(32.68125 90.132551) scale(0.1 -0.1)">
       <use xlink:href="#DejaVuSans-32"/>
       <use xlink:href="#DejaVuSans-30" transform="translate(63.623047 0)"/>
      </g>
     </g>
    </g>
    <g id="text_14">
     <!-- Composite Péclet number Pe -->
     <g transform="translate(17.597969 299.787434) rotate(-90) scale(0.13 -0.13)">
      <defs>
       <path id="DejaVuSans-43" d="M 4122 4306 
L 4122 3641 
Q 3803 3938 3442 4084 
Q 3081 4231 2675 4231 
Q 1875 4231 1450 3742 
Q 1025 3253 1025 2328 
Q 1025 1406 1450 917 
Q 1875 428 2675 428 
Q 3081 428 3442 575 
Q 3803 722 4122 1019 
L 4122 359 
Q 3791 134 3420 21 
Q 3050 -91 2638 -91 
Q 1578 -91 968 557 
Q 359 1206 359 2328 
Q 359 3453 968 4101 
Q 1578 4750 2638 4750 
Q 3056 4750 3426 4639 
Q 3797 4528 4122 4306 
z
" transform="scale(0.015625)"/>
       <path id="DejaVuSans-6d" d="M 3328 2828 
Q 3544 3216 3844 3400 
Q 4144 3584 4550 3584 
Q 5097 3584 5394 3201 
Q 5691 2819 5691 2113 
L 5691 0 
L 5113 0 
L 5113 2094 
Q 5113 2597 4934 2840 
Q 4756 3084 4391 3084 
Q 3944 3084 3684 2787 
Q 3425 2491 3425 1978 
L 3425 0 
L 2847 0 
L 2847 2094 
Q 2847 2600 2669 2842 
Q 2491 3084 2119 3084 
Q 1678 3084 1418 2786 
Q 1159 2488 1159 1978 
L 1159 0 
L 581 0 
L 581 3500 
L 1159 3500 
L 1159 2956 
Q 1356 3278 1631 3431 
Q 1906 3584 2284 3584 
Q 2666 3584 2933 3390 
Q 3200 3197 3328 2828 
z
" transform="scale(0.015625)"/>
       <path id="DejaVuSans-70" d="M 1159 525 
L 1159 -1331 
L 581 -1331 
L 581 3500 
L 1159 3500 
L 1159 2969 
Q 1341 3281 1617 3432 
Q 1894 3584 2278 3584 
Q 2916 3584 3314 3078 
Q 3713 2572 3713 1747 
Q 3713 922 3314 415 
Q 2916 -91 2278 -91 
Q 1894 -91 1617 61 
Q 1341 213 1159 525 
z
M 3116 1747 
Q 3116 2381 2855 2742 
Q 2594 3103 2138 3103 
Q 1681 3103 1420 2742 
Q 1159 2381 1159 1747 
Q 1159 1113 1420 752 
Q 1681 391 2138 391 
Q 2594 391 2855 752 
Q 3116 1113 3116 1747 
z
" transform="scale(0.015625)"/>
       <path id="DejaVuSans-73" d="M 2834 3397 
L 2834 2853 
Q 2591 2978 2328 3040 
Q 2066 3103 1784 3103 
Q 1356 3103 1142 2972 
Q 928 2841 928 2578 
Q 928 2378 1081 2264 
Q 1234 2150 1697 2047 
L 1894 2003 
Q 2506 1872 2764 1633 
Q 3022 1394 3022 966 
Q 3022 478 2636 193 
Q 2250 -91 1575 -91 
Q 1294 -91 989 -36 
Q 684 19 347 128 
L 347 722 
Q 666 556 975 473 
Q 1284 391 1588 391 
Q 1994 391 2212 530 
Q 2431 669 2431 922 
Q 2431 1156 2273 1281 
Q 2116 1406 1581 1522 
L 1381 1569 
Q 847 1681 609 1914 
Q 372 2147 372 2553 
Q 372 3047 722 3315 
Q 1072 3584 1716 3584 
Q 2034 3584 2315 3537 
Q 2597 3491 2834 3397 
z
" transform="scale(0.015625)"/>
       <path id="DejaVuSans-50" d="M 1259 4147 
L 1259 2394 
L 2053 2394 
Q 2494 2394 2734 2622 
Q 2975 2850 2975 3272 
Q 2975 3691 2734 3919 
Q 2494 4147 2053 4147 
L 1259 4147 
z
M 628 4666 
L 2053 4666 
Q 2838 4666 3239 4311 
Q 3641 3956 3641 3272 
Q 3641 2581 3239 2228 
Q 2838 1875 2053 1875 
L 1259 1875 
L 1259 0 
L 628 0 
L 628 4666 
z
" transform="scale(0.015625)"/>
       <path id="DejaVuSans-e9" d="M 3597 1894 
L 3597 1613 
L 953 1613 
Q 991 1019 1311 708 
Q 1631 397 2203 397 
Q 2534 397 2845 478 
Q 3156 559 3463 722 
L 3463 178 
Q 3153 47 2828 -22 
Q 2503 -91 2169 -91 
Q 1331 -91 842 396 
Q 353 884 353 1716 
Q 353 2575 817 3079 
Q 1281 3584 2069 3584 
Q 2775 3584 3186 3129 
Q 3597 2675 3597 1894 
z
M 3022 2063 
Q 3016 2534 2758 2815 
Q 2500 3097 2075 3097 
Q 1594 3097 1305 2825 
Q 1016 2553 972 2059 
L 3022 2063 
z
M 2466 5119 
L 3088 5119 
L 2070 3944 
L 1591 3944 
L 2466 5119 
z
" transform="scale(0.015625)"/>
       <path id="DejaVuSans-75" d="M 544 1381 
L 544 3500 
L 1119 3500 
L 1119 1403 
Q 1119 906 1312 657 
Q 1506 409 1894 409 
Q 2359 409 2629 706 
Q 2900 1003 2900 1516 
L 2900 3500 
L 3475 3500 
L 3475 0 
L 2900 0 
L 2900 538 
Q 2691 219 2414 64 
Q 2138 -91 1772 -91 
Q 1169 -91 856 284 
Q 544 659 544 1381 
z
M 1991 3584 
L 1991 3584 
z
" transform="scale(0.015625)"/>
      </defs>
      <use xlink:href="#DejaVuSans-43"/>
      <use xlink:href="#DejaVuSans-6f" transform="translate(69.824219 0)"/>
      <use xlink:href="#DejaVuSans-6d" transform="translate(131.005859 0)"/>
      <use xlink:href="#DejaVuSans-70" transform="translate(228.417969 0)"/>
      <use xlink:href="#DejaVuSans-6f" transform="translate(291.894531 0)"/>
      <use xlink:href="#DejaVuSans-73" transform="translate(353.076172 0)"/>
      <use xlink:href="#DejaVuSans-69" transform="translate(405.175781 0)"/>
      <use xlink:href="#DejaVuSans-74" transform="translate(432.958984 0)"/>
      <use xlink:href="#DejaVuSans-65" transform="translate(472.167969 0)"/>
      <use xlink:href="#DejaVuSans-20" transform="translate(533.691406 0)"/>
      <use xlink:href="#DejaVuSans-50" transform="translate(565.478516 0)"/>
      <use xlink:href="#DejaVuSans-e9" transform="translate(622.15625 0)"/>
      <use xlink:href="#DejaVuSans-63" transform="translate(683.679688 0)"/>
      <use xlink:href="#DejaVuSans-6c" transform="translate(738.660156 0)"/>
      <use xlink:href="#DejaVuSans-65" transform="translate(766.443359 0)"/>
      <use xlink:href="#DejaVuSans-74" transform="translate(827.966797 0)"/>
      <use xlink:href="#DejaVuSans-20" transform="translate(867.175781 0)"/>
      <use xlink:href="#DejaVuSans-6e" transform="translate(898.962891 0)"/>
      <use xlink:href="#DejaVuSans-75" transform="translate(962.341797 0)"/>
      <use xlink:href="#DejaVuSans-6d" transform="translate(1025.720703 0)"/>
      <use xlink:href="#DejaVuSans-62" transform="translate(1123.132812 0)"/>
      <use xlink:href="#DejaVuSans-65" transform="translate(1186.609375 0)"/>
      <use xlink:href="#DejaVuSans-72" transform="translate(1248.132812 0)"/>
      <use xlink:href="#DejaVuSans-20" transform="translate(1289.246094 0)"/>
      <use xlink:href="#DejaVuSans-50" transform="translate(1321.033203 0)"/>
      <use xlink:href="#DejaVuSans-65" transform="translate(1377.710938 0)"/>
     </g>
    </g>
   </g>
   <g id="line2d_13">
    <path d="M 52.40625 190.050741 
L 697.50625 190.050741 
" clip-path="url(#pd56f791255)" style="fill: none; stroke-dasharray: 5.55,2.4; stroke-dashoffset: 0; stroke: #ff0000; stroke-opacity: 0.8; stroke-width: 1.5"/>
   </g>
   <g id="line2d_14">
    <path d="M 52.40625 195.509552 
L 697.50625 195.509552 
" clip-path="url(#pd56f791255)" style="fill: none; stroke-dasharray: 0.8,1.32; stroke-dashoffset: 0; stroke: #808080; stroke-opacity: 0.5; stroke-width: 0.8"/>
   </g>
   <g id="line2d_15">
    <path d="M 84.66125 378.5724 
L 84.66125 33.902 
" clip-path="url(#pd56f791255)" style="fill: none; stroke-dasharray: 1.2,1.98; stroke-dashoffset: 0; stroke: #ffd700; stroke-opacity: 0.7; stroke-width: 1.2"/>
   </g>
   <g id="line2d_16">
    <path d="M 245.93625 378.5724 
L 245.93625 33.902 
" clip-path="url(#pd56f791255)" style="fill: none; stroke-dasharray: 5.55,2.4; stroke-dashoffset: 0; stroke: #ffa500; stroke-opacity: 0.8; stroke-width: 1.5"/>
   </g>
   <g id="line2d_17">
    <path d="M 345.642223 378.5724 
L 345.642223 33.902 
" clip-path="url(#pd56f791255)" style="fill: none; stroke-dasharray: 5.55,2.4; stroke-dashoffset: 0; stroke: #800080; stroke-opacity: 0.8; stroke-width: 1.5"/>
   </g>
   <g id="patch_3">
    <path d="M 52.40625 378.5724 
L 52.40625 33.902 
" style="fill: none; stroke: #000000; stroke-width: 0.8; stroke-linejoin: miter; stroke-linecap: square"/>
   </g>
   <g id="patch_4">
    <path d="M 697.50625 378.5724 
L 697.50625 33.902 
" style="fill: none; stroke: #000000; stroke-width: 0.8; stroke-linejoin: miter; stroke-linecap: square"/>
   </g>
   <g id="patch_5">
    <path d="M 52.40625 378.5724 
L 697.50625 378.5724 
" style="fill: none; stroke: #000000; stroke-width: 0.8; stroke-linejoin: miter; stroke-linecap: square"/>
   </g>
   <g id="patch_6">
    <path d="M 52.40625 33.902 
L 697.50625 33.902 
" style="fill: none; stroke: #000000; stroke-width: 0.8; stroke-linejoin: miter; stroke-linecap: square"/>
   </g>
   <g id="line2d_18">
    <path d="M 52.40625 49.568836 
L 62.748535 56.774698 
L 73.090819 63.722168 
L 83.433104 70.424185 
L 95.068174 77.686087 
L 106.703244 84.670243 
L 118.338314 91.393116 
L 129.973384 97.870554 
L 142.90124 104.798405 
L 155.829096 111.462251 
L 168.756951 117.881487 
L 182.977593 124.682398 
L 197.198234 131.233874 
L 212.711661 138.123547 
L 228.225088 144.772693 
L 245.0313 151.736805 
L 263.130298 158.996758 
L 283.814867 167.041107 
L 307.085008 175.840291 
L 336.819076 186.824615 
L 422.142923 218.180637 
L 445.413064 227.062739 
L 464.804847 234.688263 
L 482.903845 242.035936 
L 499.710058 249.095558 
L 515.223484 255.845295 
L 530.736911 262.847924 
L 544.957553 269.514206 
L 559.178194 276.441115 
L 572.10605 282.984976 
L 585.033905 289.783426 
L 596.668975 296.13604 
L 608.304046 302.725862 
L 619.939116 309.568426 
L 631.574186 316.679863 
L 643.209256 324.076935 
L 653.551541 330.905984 
L 663.893825 337.987207 
L 674.23611 345.333794 
L 684.578394 352.959426 
L 694.920679 360.878307 
L 697.50625 362.905564 
L 697.50625 362.905564 
" clip-path="url(#pd56f791255)" style="fill: none; stroke: #0000ff; stroke-width: 2.5; stroke-linecap: square"/>
   </g>
   <g id="text_15">
    <!-- Drift-dominated -->
    <g style="fill: #8b0000" transform="translate(71.75925 168.215497) scale(0.1 -0.1)">
     <defs>
      <path id="DejaVuSans-44" d="M 1259 4147 
L 1259 519 
L 2022 519 
Q 2988 519 3436 956 
Q 3884 1394 3884 2338 
Q 3884 3275 3436 3711 
Q 2988 4147 2022 4147 
L 1259 4147 
z
M 628 4666 
L 1925 4666 
Q 3281 4666 3915 4102 
Q 4550 3538 4550 2338 
Q 4550 1131 3912 565 
Q 3275 0 1925 0 
L 628 0 
L 628 4666 
z
" transform="scale(0.015625)"/>
      <path id="DejaVuSans-2d" d="M 313 2009 
L 1997 2009 
L 1997 1497 
L 313 1497 
L 313 2009 
z
" transform="scale(0.015625)"/>
      <path id="DejaVuSans-64" d="M 2906 2969 
L 2906 4863 
L 3481 4863 
L 3481 0 
L 2906 0 
L 2906 525 
Q 2725 213 2448 61 
Q 2172 -91 1784 -91 
Q 1150 -91 751 415 
Q 353 922 353 1747 
Q 353 2572 751 3078 
Q 1150 3584 1784 3584 
Q 2172 3584 2448 3432 
Q 2725 3281 2906 2969 
z
M 947 1747 
Q 947 1113 1208 752 
Q 1469 391 1925 391 
Q 2381 391 2643 752 
Q 2906 1113 2906 1747 
Q 2906 2381 2643 2742 
Q 2381 3103 1925 3103 
Q 1469 3103 1208 2742 
Q 947 2381 947 1747 
z
" transform="scale(0.015625)"/>
     </defs>
     <use xlink:href="#DejaVuSans-44"/>
     <use xlink:href="#DejaVuSans-72" transform="translate(77.001953 0)"/>
     <use xlink:href="#DejaVuSans-69" transform="translate(118.115234 0)"/>
     <use xlink:href="#DejaVuSans-66" transform="translate(145.898438 0)"/>
     <use xlink:href="#DejaVuSans-74" transform="translate(179.353516 0)"/>
     <use xlink:href="#DejaVuSans-2d" transform="translate(218.5625 0)"/>
     <use xlink:href="#DejaVuSans-64" transform="translate(254.646484 0)"/>
     <use xlink:href="#DejaVuSans-6f" transform="translate(318.123047 0)"/>
     <use xlink:href="#DejaVuSans-6d" transform="translate(379.304688 0)"/>
     <use xlink:href="#DejaVuSans-69" transform="translate(476.716797 0)"/>
     <use xlink:href="#DejaVuSans-6e" transform="translate(504.5 0)"/>
     <use xlink:href="#DejaVuSans-61" transform="translate(567.878906 0)"/>
     <use xlink:href="#DejaVuSans-74" transform="translate(629.158203 0)"/>
     <use xlink:href="#DejaVuSans-65" transform="translate(668.367188 0)"/>
     <use xlink:href="#DejaVuSans-64" transform="translate(729.890625 0)"/>
    </g>
   </g>
   <g id="text_16">
    <!-- Diffusion-dominated -->
    <g style="fill: #4682b4" transform="translate(471.72125 239.180039) scale(0.1 -0.1)">
     <use xlink:href="#DejaVuSans-44"/>
     <use xlink:href="#DejaVuSans-69" transform="translate(77.001953 0)"/>
     <use xlink:href="#DejaVuSans-66" transform="translate(104.785156 0)"/>
     <use xlink:href="#DejaVuSans-66" transform="translate(139.990234 0)"/>
     <use xlink:href="#DejaVuSans-75" transform="translate(175.195312 0)"/>
     <use xlink:href="#DejaVuSans-73" transform="translate(238.574219 0)"/>
     <use xlink:href="#DejaVuSans-69" transform="translate(290.673828 0)"/>
     <use xlink:href="#DejaVuSans-6f" transform="translate(318.457031 0)"/>
     <use xlink:href="#DejaVuSans-6e" transform="translate(379.638672 0)"/>
     <use xlink:href="#DejaVuSans-2d" transform="translate(443.017578 0)"/>
     <use xlink:href="#DejaVuSans-64" transform="translate(479.101562 0)"/>
     <use xlink:href="#DejaVuSans-6f" transform="translate(542.578125 0)"/>
     <use xlink:href="#DejaVuSans-6d" transform="translate(603.759766 0)"/>
     <use xlink:href="#DejaVuSans-69" transform="translate(701.171875 0)"/>
     <use xlink:href="#DejaVuSans-6e" transform="translate(728.955078 0)"/>
     <use xlink:href="#DejaVuSans-61" transform="translate(792.333984 0)"/>
     <use xlink:href="#DejaVuSans-74" transform="translate(853.613281 0)"/>
     <use xlink:href="#DejaVuSans-65" transform="translate(892.822266 0)"/>
     <use xlink:href="#DejaVuSans-64" transform="translate(954.345703 0)"/>
    </g>
   </g>
   <g id="text_17">
    <!-- Stablecoin constraint suppression: Pe vs fraction $f$ -->
    <g transform="translate(237.07125 15.56) scale(0.11 -0.11)">
     <defs>
      <path id="DejaVuSans-3a" d="M 750 794 
L 1409 794 
L 1409 0 
L 750 0 
L 750 794 
z
M 750 3309 
L 1409 3309 
L 1409 2516 
L 750 2516 
L 750 3309 
z
" transform="scale(0.015625)"/>
      <path id="DejaVuSans-76" d="M 191 3500 
L 800 3500 
L 1894 563 
L 2988 3500 
L 3597 3500 
L 2284 0 
L 1503 0 
L 191 3500 
z
" transform="scale(0.015625)"/>
     </defs>
     <use xlink:href="#DejaVuSans-53" transform="translate(0 0.015625)"/>
     <use xlink:href="#DejaVuSans-74" transform="translate(63.476562 0.015625)"/>
     <use xlink:href="#DejaVuSans-61" transform="translate(102.685547 0.015625)"/>
     <use xlink:href="#DejaVuSans-62" transform="translate(163.964844 0.015625)"/>
     <use xlink:href="#DejaVuSans-6c" transform="translate(227.441406 0.015625)"/>
     <use xlink:href="#DejaVuSans-65" transform="translate(255.224609 0.015625)"/>
     <use xlink:href="#DejaVuSans-63" transform="translate(316.748047 0.015625)"/>
     <use xlink:href="#DejaVuSans-6f" transform="translate(371.728516 0.015625)"/>
     <use xlink:href="#DejaVuSans-69" transform="translate(432.910156 0.015625)"/>
     <use xlink:href="#DejaVuSans-6e" transform="translate(460.693359 0.015625)"/>
     <use xlink:href="#DejaVuSans-20" transform="translate(524.072266 0.015625)"/>
     <use xlink:href="#DejaVuSans-63" transform="translate(555.859375 0.015625)"/>
     <use xlink:href="#DejaVuSans-6f" transform="translate(610.839844 0.015625)"/>
     <use xlink:href="#DejaVuSans-6e" transform="translate(672.021484 0.015625)"/>
     <use xlink:href="#DejaVuSans-73" transform="translate(735.400391 0.015625)"/>
     <use xlink:href="#DejaVuSans-74" transform="translate(787.5 0.015625)"/>
     <use xlink:href="#DejaVuSans-72" transform="translate(826.708984 0.015625)"/>
     <use xlink:href="#DejaVuSans-61" transform="translate(867.822266 0.015625)"/>
     <use xlink:href="#DejaVuSans-69" transform="translate(929.101562 0.015625)"/>
     <use xlink:href="#DejaVuSans-6e" transform="translate(956.884766 0.015625)"/>
     <use xlink:href="#DejaVuSans-74" transform="translate(1020.263672 0.015625)"/>
     <use xlink:href="#DejaVuSans-20" transform="translate(1059.472656 0.015625)"/>
     <use xlink:href="#DejaVuSans-73" transform="translate(1091.259766 0.015625)"/>
     <use xlink:href="#DejaVuSans-75" transform="translate(1143.359375 0.015625)"/>
     <use xlink:href="#DejaVuSans-70" transform="translate(1206.738281 0.015625)"/>
     <use xlink:href="#DejaVuSans-70" transform="translate(1270.214844 0.015625)"/>
     <use xlink:href="#DejaVuSans-72" transform="translate(1333.691406 0.015625)"/>
     <use xlink:href="#DejaVuSans-65" transform="translate(1374.804688 0.015625)"/>
     <use xlink:href="#DejaVuSans-73" transform="translate(1436.328125 0.015625)"/>
     <use xlink:href="#DejaVuSans-73" transform="translate(1488.427734 0.015625)"/>
     <use xlink:href="#DejaVuSans-69" transform="translate(1540.527344 0.015625)"/>
     <use xlink:href="#DejaVuSans-6f" transform="translate(1568.310547 0.015625)"/>
     <use xlink:href="#DejaVuSans-6e" transform="translate(1629.492188 0.015625)"/>
     <use xlink:href="#DejaVuSans-3a" transform="translate(1692.871094 0.015625)"/>
     <use xlink:href="#DejaVuSans-20" transform="translate(1726.5625 0.015625)"/>
     <use xlink:href="#DejaVuSans-50" transform="translate(1758.349609 0.015625)"/>
     <use xlink:href="#DejaVuSans-65" transform="translate(1818.652344 0.015625)"/>
     <use xlink:href="#DejaVuSans-20" transform="translate(1880.175781 0.015625)"/>
     <use xlink:href="#DejaVuSans-76" transform="translate(1911.962891 0.015625)"/>
     <use xlink:href="#DejaVuSans-73" transform="translate(1971.142578 0.015625)"/>
     <use xlink:href="#DejaVuSans-20" transform="translate(2023.242188 0.015625)"/>
     <use xlink:href="#DejaVuSans-66" transform="translate(2055.029297 0.015625)"/>
     <use xlink:href="#DejaVuSans-72" transform="translate(2090.234375 0.015625)"/>
     <use xlink:href="#DejaVuSans-61" transform="translate(2131.347656 0.015625)"/>
     <use xlink:href="#DejaVuSans-63" transform="translate(2192.626953 0.015625)"/>
     <use xlink:href="#DejaVuSans-74" transform="translate(2247.607422 0.015625)"/>
     <use xlink:href="#DejaVuSans-69" transform="translate(2286.816406 0.015625)"/>
     <use xlink:href="#DejaVuSans-6f" transform="translate(2314.599609 0.015625)"/>
     <use xlink:href="#DejaVuSans-6e" transform="translate(2375.78125 0.015625)"/>
     <use xlink:href="#DejaVuSans-20" transform="translate(2439.160156 0.015625)"/>
     <use xlink:href="#DejaVuSans-Oblique-66" transform="translate(2470.947266 0.015625)"/>
    </g>
    <!-- ($c_{\rm high}$=0.7, $c_{\rm low}$=0.1, $b_\alpha$=0.867, $b_\gamma$=2.243, $K$=16) -->
    <g transform="translate(241.47125 27.902) scale(0.11 -0.11)">
     <defs>
      <path id="DejaVuSans-28" d="M 1984 4856 
Q 1566 4138 1362 3434 
Q 1159 2731 1159 2009 
Q 1159 1288 1364 580 
Q 1569 -128 1984 -844 
L 1484 -844 
Q 1016 -109 783 600 
Q 550 1309 550 2009 
Q 550 2706 781 3412 
Q 1013 4119 1484 4856 
L 1984 4856 
z
" transform="scale(0.015625)"/>
      <path id="DejaVuSans-Oblique-63" d="M 3431 3366 
L 3316 2797 
Q 3109 2947 2876 3022 
Q 2644 3097 2394 3097 
Q 2119 3097 1870 3000 
Q 1622 2903 1453 2725 
Q 1184 2453 1037 2087 
Q 891 1722 891 1331 
Q 891 859 1127 628 
Q 1363 397 1844 397 
Q 2081 397 2348 469 
Q 2616 541 2906 684 
L 2797 116 
Q 2547 13 2283 -39 
Q 2019 -91 1741 -91 
Q 1044 -91 669 257 
Q 294 606 294 1253 
Q 294 1797 489 2255 
Q 684 2713 1069 3078 
Q 1331 3328 1684 3456 
Q 2038 3584 2456 3584 
Q 2700 3584 2940 3529 
Q 3181 3475 3431 3366 
z
" transform="scale(0.015625)"/>
      <path id="DejaVuSans-68" d="M 3513 2113 
L 3513 0 
L 2938 0 
L 2938 2094 
Q 2938 2591 2744 2837 
Q 2550 3084 2163 3084 
Q 1697 3084 1428 2787 
Q 1159 2491 1159 1978 
L 1159 0 
L 581 0 
L 581 4863 
L 1159 4863 
L 1159 2956 
Q 1366 3272 1645 3428 
Q 1925 3584 2291 3584 
Q 2894 3584 3203 3211 
Q 3513 2838 3513 2113 
z
" transform="scale(0.015625)"/>
      <path id="DejaVuSans-67" d="M 2906 1791 
Q 2906 2416 2648 2759 
Q 2391 3103 1925 3103 
Q 1463 3103 1205 2759 
Q 947 2416 947 1791 
Q 947 1169 1205 825 
Q 1463 481 1925 481 
Q 2391 481 2648 825 
Q 2906 1169 2906 1791 
z
M 3481 434 
Q 3481 -459 3084 -895 
Q 2688 -1331 1869 -1331 
Q 1566 -1331 1297 -1286 
Q 1028 -1241 775 -1147 
L 775 -588 
Q 1028 -725 1275 -790 
Q 1522 -856 1778 -856 
Q 2344 -856 2625 -561 
Q 2906 -266 2906 331 
L 2906 616 
Q 2728 306 2450 153 
Q 2172 0 1784 0 
Q 1141 0 747 490 
Q 353 981 353 1791 
Q 353 2603 747 3093 
Q 1141 3584 1784 3584 
Q 2172 3584 2450 3431 
Q 2728 3278 2906 2969 
L 2906 3500 
L 3481 3500 
L 3481 434 
z
" transform="scale(0.015625)"/>
      <path id="DejaVuSans-3d" d="M 678 2906 
L 4684 2906 
L 4684 2381 
L 678 2381 
L 678 2906 
z
M 678 1631 
L 4684 1631 
L 4684 1100 
L 678 1100 
L 678 1631 
z
" transform="scale(0.015625)"/>
      <path id="DejaVuSans-37" d="M 525 4666 
L 3525 4666 
L 3525 4397 
L 1831 0 
L 1172 0 
L 2766 4134 
L 525 4134 
L 525 4666 
z
" transform="scale(0.015625)"/>
      <path id="DejaVuSans-2c" d="M 750 794 
L 1409 794 
L 1409 256 
L 897 -744 
L 494 -744 
L 750 256 
L 750 794 
z
" transform="scale(0.015625)"/>
      <path id="DejaVuSans-77" d="M 269 3500 
L 844 3500 
L 1563 769 
L 2278 3500 
L 2956 3500 
L 3675 769 
L 4391 3500 
L 4966 3500 
L 4050 0 
L 3372 0 
L 2619 2869 
L 1863 0 
L 1184 0 
L 269 3500 
z
" transform="scale(0.015625)"/>
      <path id="DejaVuSans-Oblique-62" d="M 3169 2138 
Q 3169 2591 2961 2847 
Q 2753 3103 2388 3103 
Q 2122 3103 1889 2973 
Q 1656 2844 1484 2597 
Q 1303 2338 1198 1995 
Q 1094 1653 1094 1313 
Q 1094 881 1298 636 
Q 1503 391 1863 391 
Q 2134 391 2365 517 
Q 2597 644 2772 891 
Q 2950 1147 3059 1487 
Q 3169 1828 3169 2138 
z
M 1381 2969 
Q 1594 3256 1914 3420 
Q 2234 3584 2584 3584 
Q 3122 3584 3439 3221 
Q 3756 2859 3756 2241 
Q 3756 1734 3570 1259 
Q 3384 784 3041 416 
Q 2816 172 2522 40 
Q 2228 -91 1906 -91 
Q 1566 -91 1316 65 
Q 1066 222 909 531 
L 806 0 
L 231 0 
L 1178 4863 
L 1753 4863 
L 1381 2969 
z
" transform="scale(0.015625)"/>
      <path id="DejaVuSans-Oblique-3b1" d="M 2619 1628 
L 2622 2350 
Q 2625 3088 2069 3091 
Q 1653 3094 1394 2747 
Q 1069 2319 959 1747 
Q 825 1059 994 731 
Q 1169 397 1547 397 
Q 1966 397 2319 1063 
L 2619 1628 
z
M 2166 3578 
Q 3141 3594 3128 2584 
Q 3128 2584 3616 3500 
L 4128 3500 
L 3119 1603 
L 3109 919 
Q 3109 766 3194 638 
Q 3291 488 3391 488 
L 3669 488 
L 3575 0 
L 3228 0 
Q 2934 0 2722 263 
Q 2622 394 2619 669 
Q 2416 334 2066 50 
Q 1900 -81 1453 -78 
Q 722 -72 456 397 
Q 184 884 353 1747 
Q 534 2675 1009 3097 
Q 1544 3569 2166 3578 
z
" transform="scale(0.015625)"/>
      <path id="DejaVuSans-Oblique-3b3" d="M 1491 2950 
L 1838 788 
L 3456 3500 
L 4066 3500 
L 1972 0 
L 1713 -1331 
L 1138 -1331 
L 1397 0 
L 988 2613 
Q 925 3006 628 3006 
L 475 3006 
L 569 3500 
L 788 3500 
Q 1403 3500 1491 2950 
z
" transform="scale(0.015625)"/>
      <path id="DejaVuSans-Oblique-4b" d="M 1081 4666 
L 1716 4666 
L 1331 2700 
L 3781 4666 
L 4622 4666 
L 1850 2438 
L 3878 0 
L 3109 0 
L 1247 2272 
L 806 0 
L 172 0 
L 1081 4666 
z
" transform="scale(0.015625)"/>
      <path id="DejaVuSans-29" d="M 513 4856 
L 1013 4856 
Q 1481 4119 1714 3412 
Q 1947 2706 1947 2009 
Q 1947 1309 1714 600 
Q 1481 -109 1013 -844 
L 513 -844 
Q 928 -128 1133 580 
Q 1338 1288 1338 2009 
Q 1338 2731 1133 3434 
Q 928 4138 513 4856 
z
" transform="scale(0.015625)"/>
     </defs>
     <use xlink:href="#DejaVuSans-28" transform="translate(0 0.015625)"/>
     <use xlink:href="#DejaVuSans-Oblique-63" transform="translate(39.013672 0.015625)"/>
     <use xlink:href="#DejaVuSans-68" transform="translate(93.994141 -16.390625) scale(0.7)"/>
     <use xlink:href="#DejaVuSans-69" transform="translate(138.359375 -16.390625) scale(0.7)"/>
     <use xlink:href="#DejaVuSans-67" transform="translate(157.807617 -16.390625) scale(0.7)"/>
     <use xlink:href="#DejaVuSans-68" transform="translate(202.241211 -16.390625) scale(0.7)"/>
     <use xlink:href="#DejaVuSans-3d" transform="translate(249.34082 0.015625)"/>
     <use xlink:href="#DejaVuSans-30" transform="translate(333.129883 0.015625)"/>
     <use xlink:href="#DejaVuSans-2e" transform="translate(396.75293 0.015625)"/>
     <use xlink:href="#DejaVuSans-37" transform="translate(420.790039 0.015625)"/>
     <use xlink:href="#DejaVuSans-2c" transform="translate(484.413086 0.015625)"/>
     <use xlink:href="#DejaVuSans-20" transform="translate(516.200195 0.015625)"/>
     <use xlink:href="#DejaVuSans-Oblique-63" transform="translate(547.987305 0.015625)"/>
     <use xlink:href="#DejaVuSans-6c" transform="translate(602.967773 -16.390625) scale(0.7)"/>
     <use xlink:href="#DejaVuSans-6f" transform="translate(622.416016 -16.390625) scale(0.7)"/>
     <use xlink:href="#DejaVuSans-77" transform="translate(665.243164 -16.390625) scale(0.7)"/>
     <use xlink:href="#DejaVuSans-3d" transform="translate(725.228516 0.015625)"/>
     <use xlink:href="#DejaVuSans-30" transform="translate(809.017578 0.015625)"/>
     <use xlink:href="#DejaVuSans-2e" transform="translate(872.640625 0.015625)"/>
     <use xlink:href="#DejaVuSans-31" transform="translate(904.427734 0.015625)"/>
     <use xlink:href="#DejaVuSans-2c" transform="translate(968.050781 0.015625)"/>
     <use xlink:href="#DejaVuSans-20" transform="translate(999.837891 0.015625)"/>
     <use xlink:href="#DejaVuSans-Oblique-62" transform="translate(1031.625 0.015625)"/>
     <use xlink:href="#DejaVuSans-Oblique-3b1" transform="translate(1095.101562 -16.390625) scale(0.7)"/>
     <use xlink:href="#DejaVuSans-3d" transform="translate(1143.978516 0.015625)"/>
     <use xlink:href="#DejaVuSans-30" transform="translate(1227.767578 0.015625)"/>
     <use xlink:href="#DejaVuSans-2e" transform="translate(1291.390625 0.015625)"/>
     <use xlink:href="#DejaVuSans-38" transform="translate(1320.552734 0.015625)"/>
     <use xlink:href="#DejaVuSans-36" transform="translate(1384.175781 0.015625)"/>
     <use xlink:href="#DejaVuSans-37" transform="translate(1447.798828 0.015625)"/>
     <use xlink:href="#DejaVuSans-2c" transform="translate(1511.421875 0.015625)"/>
     <use xlink:href="#DejaVuSans-20" transform="translate(1543.208984 0.015625)"/>
     <use xlink:href="#DejaVuSans-Oblique-62" transform="translate(1574.996094 0.015625)"/>
     <use xlink:href="#DejaVuSans-Oblique-3b3" transform="translate(1638.472656 -16.390625) scale(0.7)"/>
     <use xlink:href="#DejaVuSans-3d" transform="translate(1682.632812 0.015625)"/>
     <use xlink:href="#DejaVuSans-32" transform="translate(1766.421875 0.015625)"/>
     <use xlink:href="#DejaVuSans-2e" transform="translate(1830.044922 0.015625)"/>
     <use xlink:href="#DejaVuSans-32" transform="translate(1856.332031 0.015625)"/>
     <use xlink:href="#DejaVuSans-34" transform="translate(1919.955078 0.015625)"/>
     <use xlink:href="#DejaVuSans-33" transform="translate(1983.578125 0.015625)"/>
     <use xlink:href="#DejaVuSans-2c" transform="translate(2047.201172 0.015625)"/>
     <use xlink:href="#DejaVuSans-20" transform="translate(2078.988281 0.015625)"/>
     <use xlink:href="#DejaVuSans-Oblique-4b" transform="translate(2110.775391 0.015625)"/>
     <use xlink:href="#DejaVuSans-3d" transform="translate(2176.351562 0.015625)"/>
     <use xlink:href="#DejaVuSans-31" transform="translate(2260.140625 0.015625)"/>
     <use xlink:href="#DejaVuSans-36" transform="translate(2323.763672 0.015625)"/>
     <use xlink:href="#DejaVuSans-29" transform="translate(2387.386719 0.015625)"/>
    </g>
   </g>
   <g id="legend_1">
    <g id="patch_7">
     <path d="M 537.06875 134.2595 
L 691.90625 134.2595 
Q 693.50625 134.2595 693.50625 132.6595 
L 693.50625 39.502 
Q 693.50625 37.902 691.90625 37.902 
L 537.06875 37.902 
Q 535.46875 37.902 535.46875 39.502 
L 535.46875 132.6595 
Q 535.46875 134.2595 537.06875 134.2595 
z
" style="fill: #ffffff; opacity: 0.8; stroke: #cccccc; stroke-linejoin: miter"/>
    </g>
    <g id="line2d_19">
     <path d="M 538.66875 44.382 
L 546.66875 44.382 
L 554.66875 44.382 
" style="fill: none; stroke: #0000ff; stroke-width: 2.5; stroke-linecap: square"/>
    </g>
    <g id="text_18">
     <!-- Analytic Pe$_{\rm eff}(f)$ -->
     <g transform="translate(561.06875 47.182) scale(0.08 -0.08)">
      <defs>
       <path id="DejaVuSans-41" d="M 2188 4044 
L 1331 1722 
L 3047 1722 
L 2188 4044 
z
M 1831 4666 
L 2547 4666 
L 4325 0 
L 3669 0 
L 3244 1197 
L 1141 1197 
L 716 0 
L 50 0 
L 1831 4666 
z
" transform="scale(0.015625)"/>
       <path id="DejaVuSans-79" d="M 2059 -325 
Q 1816 -950 1584 -1140 
Q 1353 -1331 966 -1331 
L 506 -1331 
L 506 -850 
L 844 -850 
Q 1081 -850 1212 -737 
Q 1344 -625 1503 -206 
L 1606 56 
L 191 3500 
L 800 3500 
L 1894 763 
L 2988 3500 
L 3597 3500 
L 2059 -325 
z
" transform="scale(0.015625)"/>
      </defs>
      <use xlink:href="#DejaVuSans-41" transform="translate(0 0.015625)"/>
      <use xlink:href="#DejaVuSans-6e" transform="translate(68.408203 0.015625)"/>
      <use xlink:href="#DejaVuSans-61" transform="translate(131.787109 0.015625)"/>
      <use xlink:href="#DejaVuSans-6c" transform="translate(193.066406 0.015625)"/>
      <use xlink:href="#DejaVuSans-79" transform="translate(220.849609 0.015625)"/>
      <use xlink:href="#DejaVuSans-74" transform="translate(280.029297 0.015625)"/>
      <use xlink:href="#DejaVuSans-69" transform="translate(319.238281 0.015625)"/>
      <use xlink:href="#DejaVuSans-63" transform="translate(347.021484 0.015625)"/>
      <use xlink:href="#DejaVuSans-20" transform="translate(402.001953 0.015625)"/>
      <use xlink:href="#DejaVuSans-50" transform="translate(433.789062 0.015625)"/>
      <use xlink:href="#DejaVuSans-65" transform="translate(494.091797 0.015625)"/>
      <use xlink:href="#DejaVuSans-65" transform="translate(556.572266 -16.390625) scale(0.7)"/>
      <use xlink:href="#DejaVuSans-66" transform="translate(599.638672 -16.390625) scale(0.7)"/>
      <use xlink:href="#DejaVuSans-66" transform="translate(624.282227 -16.390625) scale(0.7)"/>
      <use xlink:href="#DejaVuSans-28" transform="translate(651.660156 0.015625)"/>
      <use xlink:href="#DejaVuSans-Oblique-66" transform="translate(690.673828 0.015625)"/>
      <use xlink:href="#DejaVuSans-29" transform="translate(725.878906 0.015625)"/>
     </g>
    </g>
    <g id="line2d_20">
     <path d="M 538.66875 56.14075 
L 546.66875 56.14075 
L 554.66875 56.14075 
" style="fill: none; stroke-dasharray: 5.55,2.4; stroke-dashoffset: 0; stroke: #ff0000; stroke-opacity: 0.8; stroke-width: 1.5"/>
    </g>
    <g id="text_19">
     <!-- Pe = 1 (drift/diffusion boundary) -->
     <g transform="translate(561.06875 58.94075) scale(0.08 -0.08)">
      <defs>
       <path id="DejaVuSans-2f" d="M 1625 4666 
L 2156 4666 
L 531 -594 
L 0 -594 
L 1625 4666 
z
" transform="scale(0.015625)"/>
      </defs>
      <use xlink:href="#DejaVuSans-50"/>
      <use xlink:href="#DejaVuSans-65" transform="translate(56.677734 0)"/>
      <use xlink:href="#DejaVuSans-20" transform="translate(118.201172 0)"/>
      <use xlink:href="#DejaVuSans-3d" transform="translate(149.988281 0)"/>
      <use xlink:href="#DejaVuSans-20" transform="translate(233.777344 0)"/>
      <use xlink:href="#DejaVuSans-31" transform="translate(265.564453 0)"/>
      <use xlink:href="#DejaVuSans-20" transform="translate(329.1875 0)"/>
      <use xlink:href="#DejaVuSans-28" transform="translate(360.974609 0)"/>
      <use xlink:href="#DejaVuSans-64" transform="translate(399.988281 0)"/>
      <use xlink:href="#DejaVuSans-72" transform="translate(463.464844 0)"/>
      <use xlink:href="#DejaVuSans-69" transform="translate(504.578125 0)"/>
      <use xlink:href="#DejaVuSans-66" transform="translate(532.361328 0)"/>
      <use xlink:href="#DejaVuSans-74" transform="translate(565.816406 0)"/>
      <use xlink:href="#DejaVuSans-2f" transform="translate(605.025391 0)"/>
      <use xlink:href="#DejaVuSans-64" transform="translate(638.716797 0)"/>
      <use xlink:href="#DejaVuSans-69" transform="translate(702.193359 0)"/>
      <use xlink:href="#DejaVuSans-66" transform="translate(729.976562 0)"/>
      <use xlink:href="#DejaVuSans-66" transform="translate(765.181641 0)"/>
      <use xlink:href="#DejaVuSans-75" transform="translate(800.386719 0)"/>
      <use xlink:href="#DejaVuSans-73" transform="translate(863.765625 0)"/>
      <use xlink:href="#DejaVuSans-69" transform="translate(915.865234 0)"/>
      <use xlink:href="#DejaVuSans-6f" transform="translate(943.648438 0)"/>
      <use xlink:href="#DejaVuSans-6e" transform="translate(1004.830078 0)"/>
      <use xlink:href="#DejaVuSans-20" transform="translate(1068.208984 0)"/>
      <use xlink:href="#DejaVuSans-62" transform="translate(1099.996094 0)"/>
      <use xlink:href="#DejaVuSans-6f" transform="translate(1163.472656 0)"/>
      <use xlink:href="#DejaVuSans-75" transform="translate(1224.654297 0)"/>
      <use xlink:href="#DejaVuSans-6e" transform="translate(1288.033203 0)"/>
      <use xlink:href="#DejaVuSans-64" transform="translate(1351.412109 0)"/>
      <use xlink:href="#DejaVuSans-61" transform="translate(1414.888672 0)"/>
      <use xlink:href="#DejaVuSans-72" transform="translate(1476.167969 0)"/>
      <use xlink:href="#DejaVuSans-79" transform="translate(1517.28125 0)"/>
      <use xlink:href="#DejaVuSans-29" transform="translate(1576.460938 0)"/>
     </g>
    </g>
    <g id="line2d_21">
     <path d="M 538.66875 67.88325 
L 546.66875 67.88325 
L 554.66875 67.88325 
" style="fill: none; stroke-dasharray: 1.2,1.98; stroke-dashoffset: 0; stroke: #ffd700; stroke-opacity: 0.7; stroke-width: 1.2"/>
    </g>
    <g id="text_20">
     <!-- $f$=0.05 (EXP low stablecoin) -->
     <g transform="translate(561.06875 70.68325) scale(0.08 -0.08)">
      <defs>
       <path id="DejaVuSans-35" d="M 691 4666 
L 3169 4666 
L 3169 4134 
L 1269 4134 
L 1269 2991 
Q 1406 3038 1543 3061 
Q 1681 3084 1819 3084 
Q 2600 3084 3056 2656 
Q 3513 2228 3513 1497 
Q 3513 744 3044 326 
Q 2575 -91 1722 -91 
Q 1428 -91 1123 -41 
Q 819 9 494 109 
L 494 744 
Q 775 591 1075 516 
Q 1375 441 1709 441 
Q 2250 441 2565 725 
Q 2881 1009 2881 1497 
Q 2881 1984 2565 2268 
Q 2250 2553 1709 2553 
Q 1456 2553 1204 2497 
Q 953 2441 691 2322 
L 691 4666 
z
" transform="scale(0.015625)"/>
       <path id="DejaVuSans-45" d="M 628 4666 
L 3578 4666 
L 3578 4134 
L 1259 4134 
L 1259 2753 
L 3481 2753 
L 3481 2222 
L 1259 2222 
L 1259 531 
L 3634 531 
L 3634 0 
L 628 0 
L 628 4666 
z
" transform="scale(0.015625)"/>
       <path id="DejaVuSans-58" d="M 403 4666 
L 1081 4666 
L 2241 2931 
L 3406 4666 
L 4084 4666 
L 2584 2425 
L 4184 0 
L 3506 0 
L 2194 1984 
L 872 0 
L 191 0 
L 1856 2491 
L 403 4666 
z
" transform="scale(0.015625)"/>
      </defs>
      <use xlink:href="#DejaVuSans-Oblique-66" transform="translate(0 0.015625)"/>
      <use xlink:href="#DejaVuSans-3d" transform="translate(35.205078 0.015625)"/>
      <use xlink:href="#DejaVuSans-30" transform="translate(118.994141 0.015625)"/>
      <use xlink:href="#DejaVuSans-2e" transform="translate(182.617188 0.015625)"/>
      <use xlink:href="#DejaVuSans-30" transform="translate(214.404297 0.015625)"/>
      <use xlink:href="#DejaVuSans-35" transform="translate(278.027344 0.015625)"/>
      <use xlink:href="#DejaVuSans-20" transform="translate(341.650391 0.015625)"/>
      <use xlink:href="#DejaVuSans-28" transform="translate(373.4375 0.015625)"/>
      <use xlink:href="#DejaVuSans-45" transform="translate(412.451172 0.015625)"/>
      <use xlink:href="#DejaVuSans-58" transform="translate(475.634766 0.015625)"/>
      <use xlink:href="#DejaVuSans-50" transform="translate(544.140625 0.015625)"/>
      <use xlink:href="#DejaVuSans-20" transform="translate(604.443359 0.015625)"/>
      <use xlink:href="#DejaVuSans-6c" transform="translate(636.230469 0.015625)"/>
      <use xlink:href="#DejaVuSans-6f" transform="translate(664.013672 0.015625)"/>
      <use xlink:href="#DejaVuSans-77" transform="translate(725.195312 0.015625)"/>
      <use xlink:href="#DejaVuSans-20" transform="translate(806.982422 0.015625)"/>
      <use xlink:href="#DejaVuSans-73" transform="translate(838.769531 0.015625)"/>
      <use xlink:href="#DejaVuSans-74" transform="translate(890.869141 0.015625)"/>
      <use xlink:href="#DejaVuSans-61" transform="translate(930.078125 0.015625)"/>
      <use xlink:href="#DejaVuSans-62" transform="translate(991.357422 0.015625)"/>
      <use xlink:href="#DejaVuSans-6c" transform="translate(1054.833984 0.015625)"/>
      <use xlink:href="#DejaVuSans-65" transform="translate(1082.617188 0.015625)"/>
      <use xlink:href="#DejaVuSans-63" transform="translate(1144.140625 0.015625)"/>
      <use xlink:href="#DejaVuSans-6f" transform="translate(1199.121094 0.015625)"/>
      <use xlink:href="#DejaVuSans-69" transform="translate(1260.302734 0.015625)"/>
      <use xlink:href="#DejaVuSans-6e" transform="translate(1288.085938 0.015625)"/>
      <use xlink:href="#DejaVuSans-29" transform="translate(1351.464844 0.015625)"/>
     </g>
    </g>
    <g id="line2d_22">
     <path d="M 538.66875 79.62575 
L 546.66875 79.62575 
L 554.66875 79.62575 
" style="fill: none; stroke-dasharray: 5.55,2.4; stroke-dashoffset: 0; stroke: #ffa500; stroke-opacity: 0.8; stroke-width: 1.5"/>
    </g>
    <g id="text_21">
     <!-- $f$=0.30 (EXP-021C threshold) -->
     <g transform="translate(561.06875 82.42575) scale(0.08 -0.08)">
      <use xlink:href="#DejaVuSans-Oblique-66" transform="translate(0 0.015625)"/>
      <use xlink:href="#DejaVuSans-3d" transform="translate(35.205078 0.015625)"/>
      <use xlink:href="#DejaVuSans-30" transform="translate(118.994141 0.015625)"/>
      <use xlink:href="#DejaVuSans-2e" transform="translate(182.617188 0.015625)"/>
      <use xlink:href="#DejaVuSans-33" transform="translate(214.404297 0.015625)"/>
      <use xlink:href="#DejaVuSans-30" transform="translate(278.027344 0.015625)"/>
      <use xlink:href="#DejaVuSans-20" transform="translate(341.650391 0.015625)"/>
      <use xlink:href="#DejaVuSans-28" transform="translate(373.4375 0.015625)"/>
      <use xlink:href="#DejaVuSans-45" transform="translate(412.451172 0.015625)"/>
      <use xlink:href="#DejaVuSans-58" transform="translate(475.634766 0.015625)"/>
      <use xlink:href="#DejaVuSans-50" transform="translate(544.140625 0.015625)"/>
      <use xlink:href="#DejaVuSans-2d" transform="translate(604.443359 0.015625)"/>
      <use xlink:href="#DejaVuSans-30" transform="translate(640.527344 0.015625)"/>
      <use xlink:href="#DejaVuSans-32" transform="translate(704.150391 0.015625)"/>
      <use xlink:href="#DejaVuSans-31" transform="translate(767.773438 0.015625)"/>
      <use xlink:href="#DejaVuSans-43" transform="translate(831.396484 0.015625)"/>
      <use xlink:href="#DejaVuSans-20" transform="translate(901.220703 0.015625)"/>
      <use xlink:href="#DejaVuSans-74" transform="translate(933.007812 0.015625)"/>
      <use xlink:href="#DejaVuSans-68" transform="translate(972.216797 0.015625)"/>
      <use xlink:href="#DejaVuSans-72" transform="translate(1035.595703 0.015625)"/>
      <use xlink:href="#DejaVuSans-65" transform="translate(1076.708984 0.015625)"/>
      <use xlink:href="#DejaVuSans-73" transform="translate(1138.232422 0.015625)"/>
      <use xlink:href="#DejaVuSans-68" transform="translate(1190.332031 0.015625)"/>
      <use xlink:href="#DejaVuSans-6f" transform="translate(1253.710938 0.015625)"/>
      <use xlink:href="#DejaVuSans-6c" transform="translate(1314.892578 0.015625)"/>
      <use xlink:href="#DejaVuSans-64" transform="translate(1342.675781 0.015625)"/>
      <use xlink:href="#DejaVuSans-29" transform="translate(1406.152344 0.015625)"/>
     </g>
    </g>
    <g id="line2d_23">
     <path d="M 538.66875 91.36825 
L 546.66875 91.36825 
L 554.66875 91.36825 
" style="fill: none; stroke-dasharray: 5.55,2.4; stroke-dashoffset: 0; stroke: #800080; stroke-opacity: 0.8; stroke-width: 1.5"/>
    </g>
    <g id="text_22">
     <!-- $f_{\rm crit}$=0.45 (THRML mean-field) -->
     <g transform="translate(561.06875 94.16825) scale(0.08 -0.08)">
      <defs>
       <path id="DejaVuSans-54" d="M -19 4666 
L 3928 4666 
L 3928 4134 
L 2272 4134 
L 2272 0 
L 1638 0 
L 1638 4134 
L -19 4134 
L -19 4666 
z
" transform="scale(0.015625)"/>
       <path id="DejaVuSans-48" d="M 628 4666 
L 1259 4666 
L 1259 2753 
L 3553 2753 
L 3553 4666 
L 4184 4666 
L 4184 0 
L 3553 0 
L 3553 2222 
L 1259 2222 
L 1259 0 
L 628 0 
L 628 4666 
z
" transform="scale(0.015625)"/>
       <path id="DejaVuSans-52" d="M 2841 2188 
Q 3044 2119 3236 1894 
Q 3428 1669 3622 1275 
L 4263 0 
L 3584 0 
L 2988 1197 
Q 2756 1666 2539 1819 
Q 2322 1972 1947 1972 
L 1259 1972 
L 1259 0 
L 628 0 
L 628 4666 
L 2053 4666 
Q 2853 4666 3247 4331 
Q 3641 3997 3641 3322 
Q 3641 2881 3436 2590 
Q 3231 2300 2841 2188 
z
M 1259 4147 
L 1259 2491 
L 2053 2491 
Q 2509 2491 2742 2702 
Q 2975 2913 2975 3322 
Q 2975 3731 2742 3939 
Q 2509 4147 2053 4147 
L 1259 4147 
z
" transform="scale(0.015625)"/>
       <path id="DejaVuSans-4d" d="M 628 4666 
L 1569 4666 
L 2759 1491 
L 3956 4666 
L 4897 4666 
L 4897 0 
L 4281 0 
L 4281 4097 
L 3078 897 
L 2444 897 
L 1241 4097 
L 1241 0 
L 628 0 
L 628 4666 
z
" transform="scale(0.015625)"/>
       <path id="DejaVuSans-4c" d="M 628 4666 
L 1259 4666 
L 1259 531 
L 3531 531 
L 3531 0 
L 628 0 
L 628 4666 
z
" transform="scale(0.015625)"/>
      </defs>
      <use xlink:href="#DejaVuSans-Oblique-66" transform="translate(0 0.015625)"/>
      <use xlink:href="#DejaVuSans-63" transform="translate(35.205078 -16.390625) scale(0.7)"/>
      <use xlink:href="#DejaVuSans-72" transform="translate(73.691406 -16.390625) scale(0.7)"/>
      <use xlink:href="#DejaVuSans-69" transform="translate(102.470703 -16.390625) scale(0.7)"/>
      <use xlink:href="#DejaVuSans-74" transform="translate(121.918945 -16.390625) scale(0.7)"/>
      <use xlink:href="#DejaVuSans-3d" transform="translate(152.099609 0.015625)"/>
      <use xlink:href="#DejaVuSans-30" transform="translate(235.888672 0.015625)"/>
      <use xlink:href="#DejaVuSans-2e" transform="translate(299.511719 0.015625)"/>
      <use xlink:href="#DejaVuSans-34" transform="translate(331.298828 0.015625)"/>
      <use xlink:href="#DejaVuSans-35" transform="translate(394.921875 0.015625)"/>
      <use xlink:href="#DejaVuSans-20" transform="translate(458.544922 0.015625)"/>
      <use xlink:href="#DejaVuSans-28" transform="translate(490.332031 0.015625)"/>
      <use xlink:href="#DejaVuSans-54" transform="translate(529.345703 0.015625)"/>
      <use xlink:href="#DejaVuSans-48" transform="translate(590.429688 0.015625)"/>
      <use xlink:href="#DejaVuSans-52" transform="translate(665.625 0.015625)"/>
      <use xlink:href="#DejaVuSans-4d" transform="translate(735.107422 0.015625)"/>
      <use xlink:href="#DejaVuSans-4c" transform="translate(821.386719 0.015625)"/>
      <use xlink:href="#DejaVuSans-20" transform="translate(877.099609 0.015625)"/>
      <use xlink:href="#DejaVuSans-6d" transform="translate(908.886719 0.015625)"/>
      <use xlink:href="#DejaVuSans-65" transform="translate(1006.298828 0.015625)"/>
      <use xlink:href="#DejaVuSans-61" transform="translate(1067.822266 0.015625)"/>
      <use xlink:href="#DejaVuSans-6e" transform="translate(1129.101562 0.015625)"/>
      <use xlink:href="#DejaVuSans-2d" transform="translate(1192.480469 0.015625)"/>
      <use xlink:href="#DejaVuSans-66" transform="translate(1228.564453 0.015625)"/>
      <use xlink:href="#DejaVuSans-69" transform="translate(1263.769531 0.015625)"/>
      <use xlink:href="#DejaVuSans-65" transform="translate(1291.552734 0.015625)"/>
      <use xlink:href="#DejaVuSans-6c" transform="translate(1353.076172 0.015625)"/>
      <use xlink:href="#DejaVuSans-64" transform="translate(1380.859375 0.015625)"/>
      <use xlink:href="#DejaVuSans-29" transform="translate(1444.335938 0.015625)"/>
     </g>
    </g>
    <g id="PathCollection_1">
     <defs>
      <path id="m4d5ce0d8e8" d="M -6.324555 6.324555 
L 6.324555 6.324555 
L 6.324555 -6.324555 
L -6.324555 -6.324555 
z
" style="stroke: #000000; stroke-width: 1.5"/>
     </defs>
     <g>
      <use xlink:href="#m4d5ce0d8e8" x="546.66875" y="103.81075" style="fill: #ff0000; stroke: #000000; stroke-width: 1.5"/>
     </g>
    </g>
    <g id="text_23">
     <!-- THRML: UU (f≈0)  Pe=26.7 -->
     <g transform="translate(561.06875 105.91075) scale(0.08 -0.08)">
      <defs>
       <path id="DejaVuSans-55" d="M 556 4666 
L 1191 4666 
L 1191 1831 
Q 1191 1081 1462 751 
Q 1734 422 2344 422 
Q 2950 422 3222 751 
Q 3494 1081 3494 1831 
L 3494 4666 
L 4128 4666 
L 4128 1753 
Q 4128 841 3676 375 
Q 3225 -91 2344 -91 
Q 1459 -91 1007 375 
Q 556 841 556 1753 
L 556 4666 
z
" transform="scale(0.015625)"/>
       <path id="DejaVuSans-2248" d="M 4684 1947 
L 4684 1388 
Q 4356 1144 4076 1036 
Q 3797 928 3494 928 
Q 3150 928 2694 1113 
Q 2663 1125 2641 1134 
Q 2622 1141 2575 1159 
Q 2091 1350 1797 1350 
Q 1522 1350 1253 1231 
Q 984 1113 678 850 
L 678 1409 
Q 1006 1653 1286 1761 
Q 1566 1869 1869 1869 
Q 2213 1869 2672 1684 
Q 2706 1669 2722 1663 
Q 2741 1656 2788 1638 
Q 3272 1447 3566 1447 
Q 3834 1447 4098 1564 
Q 4363 1681 4684 1947 
z
M 4684 3163 
L 4684 2606 
Q 4356 2359 4076 2251 
Q 3797 2144 3494 2144 
Q 3150 2144 2694 2328 
Q 2663 2341 2641 2350 
Q 2622 2356 2575 2375 
Q 2091 2566 1797 2566 
Q 1522 2566 1253 2447 
Q 984 2328 678 2069 
L 678 2625 
Q 1006 2869 1286 2976 
Q 1566 3084 1869 3084 
Q 2213 3084 2672 2900 
Q 2703 2888 2719 2881 
Q 2741 2872 2788 2853 
Q 3272 2663 3566 2663 
Q 3834 2663 4098 2780 
Q 4363 2897 4684 3163 
z
" transform="scale(0.015625)"/>
      </defs>
      <use xlink:href="#DejaVuSans-54"/>
      <use xlink:href="#DejaVuSans-48" transform="translate(61.083984 0)"/>
      <use xlink:href="#DejaVuSans-52" transform="translate(136.279297 0)"/>
      <use xlink:href="#DejaVuSans-4d" transform="translate(205.761719 0)"/>
      <use xlink:href="#DejaVuSans-4c" transform="translate(292.041016 0)"/>
      <use xlink:href="#DejaVuSans-3a" transform="translate(347.753906 0)"/>
      <use xlink:href="#DejaVuSans-20" transform="translate(381.445312 0)"/>
      <use xlink:href="#DejaVuSans-55" transform="translate(413.232422 0)"/>
      <use xlink:href="#DejaVuSans-55" transform="translate(486.425781 0)"/>
      <use xlink:href="#DejaVuSans-20" transform="translate(559.619141 0)"/>
      <use xlink:href="#DejaVuSans-28" transform="translate(591.40625 0)"/>
      <use xlink:href="#DejaVuSans-66" transform="translate(630.419922 0)"/>
      <use xlink:href="#DejaVuSans-2248" transform="translate(665.625 0)"/>
      <use xlink:href="#DejaVuSans-30" transform="translate(749.414062 0)"/>
      <use xlink:href="#DejaVuSans-29" transform="translate(813.037109 0)"/>
      <use xlink:href="#DejaVuSans-20" transform="translate(852.050781 0)"/>
      <use xlink:href="#DejaVuSans-20" transform="translate(883.837891 0)"/>
      <use xlink:href="#DejaVuSans-50" transform="translate(915.625 0)"/>
      <use xlink:href="#DejaVuSans-65" transform="translate(972.302734 0)"/>
      <use xlink:href="#DejaVuSans-3d" transform="translate(1033.826172 0)"/>
      <use xlink:href="#DejaVuSans-32" transform="translate(1117.615234 0)"/>
      <use xlink:href="#DejaVuSans-36" transform="translate(1181.238281 0)"/>
      <use xlink:href="#DejaVuSans-2e" transform="translate(1244.861328 0)"/>
      <use xlink:href="#DejaVuSans-37" transform="translate(1276.648438 0)"/>
     </g>
    </g>
    <g id="PathCollection_2">
     <defs>
      <path id="m01c895c18b" d="M 0 -6.324555 
L -6.324555 6.324555 
L 6.324555 6.324555 
z
" style="stroke: #000000; stroke-width: 1.5"/>
     </defs>
     <g>
      <use xlink:href="#m01c895c18b" x="546.66875" y="115.55325" style="fill: #ffa500; stroke: #000000; stroke-width: 1.5"/>
     </g>
    </g>
    <g id="text_24">
     <!-- THRML: GU (f=0.5)  Pe=-1.0 -->
     <g transform="translate(561.06875 117.65325) scale(0.08 -0.08)">
      <defs>
       <path id="DejaVuSans-47" d="M 3809 666 
L 3809 1919 
L 2778 1919 
L 2778 2438 
L 4434 2438 
L 4434 434 
Q 4069 175 3628 42 
Q 3188 -91 2688 -91 
Q 1594 -91 976 548 
Q 359 1188 359 2328 
Q 359 3472 976 4111 
Q 1594 4750 2688 4750 
Q 3144 4750 3555 4637 
Q 3966 4525 4313 4306 
L 4313 3634 
Q 3963 3931 3569 4081 
Q 3175 4231 2741 4231 
Q 1884 4231 1454 3753 
Q 1025 3275 1025 2328 
Q 1025 1384 1454 906 
Q 1884 428 2741 428 
Q 3075 428 3337 486 
Q 3600 544 3809 666 
z
" transform="scale(0.015625)"/>
      </defs>
      <use xlink:href="#DejaVuSans-54"/>
      <use xlink:href="#DejaVuSans-48" transform="translate(61.083984 0)"/>
      <use xlink:href="#DejaVuSans-52" transform="translate(136.279297 0)"/>
      <use xlink:href="#DejaVuSans-4d" transform="translate(205.761719 0)"/>
      <use xlink:href="#DejaVuSans-4c" transform="translate(292.041016 0)"/>
      <use xlink:href="#DejaVuSans-3a" transform="translate(347.753906 0)"/>
      <use xlink:href="#DejaVuSans-20" transform="translate(381.445312 0)"/>
      <use xlink:href="#DejaVuSans-47" transform="translate(413.232422 0)"/>
      <use xlink:href="#DejaVuSans-55" transform="translate(490.722656 0)"/>
      <use xlink:href="#DejaVuSans-20" transform="translate(563.916016 0)"/>
      <use xlink:href="#DejaVuSans-28" transform="translate(595.703125 0)"/>
      <use xlink:href="#DejaVuSans-66" transform="translate(634.716797 0)"/>
      <use xlink:href="#DejaVuSans-3d" transform="translate(669.921875 0)"/>
      <use xlink:href="#DejaVuSans-30" transform="translate(753.710938 0)"/>
      <use xlink:href="#DejaVuSans-2e" transform="translate(817.333984 0)"/>
      <use xlink:href="#DejaVuSans-35" transform="translate(849.121094 0)"/>
      <use xlink:href="#DejaVuSans-29" transform="translate(912.744141 0)"/>
      <use xlink:href="#DejaVuSans-20" transform="translate(951.757812 0)"/>
      <use xlink:href="#DejaVuSans-20" transform="translate(983.544922 0)"/>
      <use xlink:href="#DejaVuSans-50" transform="translate(1015.332031 0)"/>
      <use xlink:href="#DejaVuSans-65" transform="translate(1072.009766 0)"/>
      <use xlink:href="#DejaVuSans-3d" transform="translate(1133.533203 0)"/>
      <use xlink:href="#DejaVuSans-2d" transform="translate(1217.322266 0)"/>
      <use xlink:href="#DejaVuSans-31" transform="translate(1253.40625 0)"/>
      <use xlink:href="#DejaVuSans-2e" transform="translate(1317.029297 0)"/>
      <use xlink:href="#DejaVuSans-30" transform="translate(1348.816406 0)"/>
     </g>
    </g>
    <g id="PathCollection_3">
     <defs>
      <path id="ma6bcb7c5b9" d="M -0 8.944272 
L 8.944272 0 
L 0 -8.944272 
L -8.944272 -0 
z
" style="stroke: #000000; stroke-width: 1.5"/>
     </defs>
     <g>
      <use xlink:href="#ma6bcb7c5b9" x="546.66875" y="127.29575" style="fill: #4682b4; stroke: #000000; stroke-width: 1.5"/>
     </g>
    </g>
    <g id="text_25">
     <!-- THRML: GG (f≈1)  Pe=-30.7 -->
     <g transform="translate(561.06875 129.39575) scale(0.08 -0.08)">
      <use xlink:href="#DejaVuSans-54"/>
      <use xlink:href="#DejaVuSans-48" transform="translate(61.083984 0)"/>
      <use xlink:href="#DejaVuSans-52" transform="translate(136.279297 0)"/>
      <use xlink:href="#DejaVuSans-4d" transform="translate(205.761719 0)"/>
      <use xlink:href="#DejaVuSans-4c" transform="translate(292.041016 0)"/>
      <use xlink:href="#DejaVuSans-3a" transform="translate(347.753906 0)"/>
      <use xlink:href="#DejaVuSans-20" transform="translate(381.445312 0)"/>
      <use xlink:href="#DejaVuSans-47" transform="translate(413.232422 0)"/>
      <use xlink:href="#DejaVuSans-47" transform="translate(490.722656 0)"/>
      <use xlink:href="#DejaVuSans-20" transform="translate(568.212891 0)"/>
      <use xlink:href="#DejaVuSans-28" transform="translate(600 0)"/>
      <use xlink:href="#DejaVuSans-66" transform="translate(639.013672 0)"/>
      <use xlink:href="#DejaVuSans-2248" transform="translate(674.21875 0)"/>
      <use xlink:href="#DejaVuSans-31" transform="translate(758.007812 0)"/>
      <use xlink:href="#DejaVuSans-29" transform="translate(821.630859 0)"/>
      <use xlink:href="#DejaVuSans-20" transform="translate(860.644531 0)"/>
      <use xlink:href="#DejaVuSans-20" transform="translate(892.431641 0)"/>
      <use xlink:href="#DejaVuSans-50" transform="translate(924.21875 0)"/>
      <use xlink:href="#DejaVuSans-65" transform="translate(980.896484 0)"/>
      <use xlink:href="#DejaVuSans-3d" transform="translate(1042.419922 0)"/>
      <use xlink:href="#DejaVuSans-2d" transform="translate(1126.208984 0)"/>
      <use xlink:href="#DejaVuSans-33" transform="translate(1162.292969 0)"/>
      <use xlink:href="#DejaVuSans-30" transform="translate(1225.916016 0)"/>
      <use xlink:href="#DejaVuSans-2e" transform="translate(1289.539062 0)"/>
      <use xlink:href="#DejaVuSans-37" transform="translate(1321.326172 0)"/>
     </g>
    </g>
   </g>
   <g id="PathCollection_4">
    <g clip-path="url(#pd56f791255)">
     <use xlink:href="#m4d5ce0d8e8" x="52.40625" y="49.568836" style="fill: #ff0000; stroke: #000000; stroke-width: 1.5"/>
    </g>
   </g>
   <g id="PathCollection_5">
    <g clip-path="url(#pd56f791255)">
     <use xlink:href="#m01c895c18b" x="374.95625" y="200.740336" style="fill: #ffa500; stroke: #000000; stroke-width: 1.5"/>
    </g>
   </g>
   <g id="PathCollection_6">
    <g clip-path="url(#pd56f791255)">
     <use xlink:href="#ma6bcb7c5b9" x="697.50625" y="362.905564" style="fill: #4682b4; stroke: #000000; stroke-width: 1.5"/>
    </g>
   </g>
  </g>
 </g>
 <defs>
  <clipPath id="pd56f791255">
   <rect x="52.40625" y="33.902" width="645.1" height="344.6704"/>
  </clipPath>
 </defs>
</svg>
