<?xml version="1.0" encoding="utf-8" standalone="no"?>
<!DOCTYPE svg PUBLIC "-//W3C//DTD SVG 1.1//EN"
  "http://www.w3.org/Graphics/SVG/1.1/DTD/svg11.dtd">
<svg xmlns:xlink="http://www.w3.org/1999/xlink" width="784.285625pt" height="350.960687pt" viewBox="0 0 784.285625 350.960687" xmlns="http://www.w3.org/2000/svg" version="1.1">
 <metadata>
  <rdf:RDF xmlns:dc="http://purl.org/dc/elements/1.1/" xmlns:cc="http://creativecommons.org/ns#" xmlns:rdf="http://www.w3.org/1999/02/22-rdf-syntax-ns#">
   <cc:Work>
    <dc:type rdf:resource="http://purl.org/dc/dcmitype/StillImage"/>
    <dc:date>2026-02-22T05:33:54.560973</dc:date>
    <dc:format>image/svg+xml</dc:format>
    <dc:creator>
     <cc:Agent>
      <dc:title>Matplotlib v3.10.8, https://matplotlib.org/</dc:title>
     </cc:Agent>
    </dc:creator>
   </cc:Work>
  </rdf:RDF>
 </metadata>
 <defs>
  <style type="text/css">*{stroke-linejoin: round; stroke-linecap: butt}</style>
 </defs>
 <g id="figure_1">
  <g id="patch_1">
   <path d="M 0 350.960687 
L 784.285625 350.960687 
L 784.285625 0 
L 0 0 
z
" style="fill: #060810"/>
  </g>
  <g id="axes_1">
   <g id="patch_2">
    <path d="M 57.555625 314.37225 
L 389.095625 314.37225 
L 389.095625 31.99625 
L 57.555625 31.99625 
z
" style="fill: #060810"/>
   </g>
   <g id="matplotlib.axis_1">
    <g id="xtick_1">
     <g id="line2d_1">
      <path d="M 57.555625 314.37225 
L 57.555625 31.99625 
" clip-path="url(#p25ebde967b)" style="fill: none; stroke: #1a1f2e; stroke-opacity: 0.4; stroke-width: 0.5; stroke-linecap: square"/>
     </g>
     <g id="line2d_2">
      <defs>
       <path id="m9e3df2dc02" d="M 0 0 
L 0 3.5 
" style="stroke: #888899; stroke-width: 0.8"/>
      </defs>
      <g>
       <use xlink:href="#m9e3df2dc02" x="57.555625" y="314.37225" style="fill: #888899; stroke: #888899; stroke-width: 0.8"/>
      </g>
     </g>
     <g id="text_1">
      <!-- 0.1 -->
      <g style="fill: #888899" transform="translate(49.604063 328.970687) scale(0.1 -0.1)">
       <defs>
        <path id="DejaVuSans-30" d="M 2034 4250 
Q 1547 4250 1301 3770 
Q 1056 3291 1056 2328 
Q 1056 1369 1301 889 
Q 1547 409 2034 409 
Q 2525 409 2770 889 
Q 3016 1369 3016 2328 
Q 3016 3291 2770 3770 
Q 2525 4250 2034 4250 
z
M 2034 4750 
Q 2819 4750 3233 4129 
Q 3647 3509 3647 2328 
Q 3647 1150 3233 529 
Q 2819 -91 2034 -91 
Q 1250 -91 836 529 
Q 422 1150 422 2328 
Q 422 3509 836 4129 
Q 1250 4750 2034 4750 
z
" transform="scale(0.015625)"/>
        <path id="DejaVuSans-2e" d="M 684 794 
L 1344 794 
L 1344 0 
L 684 0 
L 684 794 
z
" transform="scale(0.015625)"/>
        <path id="DejaVuSans-31" d="M 794 531 
L 1825 531 
L 1825 4091 
L 703 3866 
L 703 4441 
L 1819 4666 
L 2450 4666 
L 2450 531 
L 3481 531 
L 3481 0 
L 794 0 
L 794 531 
z
" transform="scale(0.015625)"/>
       </defs>
       <use xlink:href="#DejaVuSans-30"/>
       <use xlink:href="#DejaVuSans-2e" transform="translate(63.623047 0)"/>
       <use xlink:href="#DejaVuSans-31" transform="translate(95.410156 0)"/>
      </g>
     </g>
    </g>
    <g id="xtick_2">
     <g id="line2d_3">
      <path d="M 131.231181 314.37225 
L 131.231181 31.99625 
" clip-path="url(#p25ebde967b)" style="fill: none; stroke: #1a1f2e; stroke-opacity: 0.4; stroke-width: 0.5; stroke-linecap: square"/>
     </g>
     <g id="line2d_4">
      <g>
       <use xlink:href="#m9e3df2dc02" x="131.231181" y="314.37225" style="fill: #888899; stroke: #888899; stroke-width: 0.8"/>
      </g>
     </g>
     <g id="text_2">
      <!-- 0.2 -->
      <g style="fill: #888899" transform="translate(123.279618 328.970687) scale(0.1 -0.1)">
       <defs>
        <path id="DejaVuSans-32" d="M 1228 531 
L 3431 531 
L 3431 0 
L 469 0 
L 469 531 
Q 828 903 1448 1529 
Q 2069 2156 2228 2338 
Q 2531 2678 2651 2914 
Q 2772 3150 2772 3378 
Q 2772 3750 2511 3984 
Q 2250 4219 1831 4219 
Q 1534 4219 1204 4116 
Q 875 4013 500 3803 
L 500 4441 
Q 881 4594 1212 4672 
Q 1544 4750 1819 4750 
Q 2544 4750 2975 4387 
Q 3406 4025 3406 3419 
Q 3406 3131 3298 2873 
Q 3191 2616 2906 2266 
Q 2828 2175 2409 1742 
Q 1991 1309 1228 531 
z
" transform="scale(0.015625)"/>
       </defs>
       <use xlink:href="#DejaVuSans-30"/>
       <use xlink:href="#DejaVuSans-2e" transform="translate(63.623047 0)"/>
       <use xlink:href="#DejaVuSans-32" transform="translate(95.410156 0)"/>
      </g>
     </g>
    </g>
    <g id="xtick_3">
     <g id="line2d_5">
      <path d="M 204.906736 314.37225 
L 204.906736 31.99625 
" clip-path="url(#p25ebde967b)" style="fill: none; stroke: #1a1f2e; stroke-opacity: 0.4; stroke-width: 0.5; stroke-linecap: square"/>
     </g>
     <g id="line2d_6">
      <g>
       <use xlink:href="#m9e3df2dc02" x="204.906736" y="314.37225" style="fill: #888899; stroke: #888899; stroke-width: 0.8"/>
      </g>
     </g>
     <g id="text_3">
      <!-- 0.3 -->
      <g style="fill: #888899" transform="translate(196.955174 328.970687) scale(0.1 -0.1)">
       <defs>
        <path id="DejaVuSans-33" d="M 2597 2516 
Q 3050 2419 3304 2112 
Q 3559 1806 3559 1356 
Q 3559 666 3084 287 
Q 2609 -91 1734 -91 
Q 1441 -91 1130 -33 
Q 819 25 488 141 
L 488 750 
Q 750 597 1062 519 
Q 1375 441 1716 441 
Q 2309 441 2620 675 
Q 2931 909 2931 1356 
Q 2931 1769 2642 2001 
Q 2353 2234 1838 2234 
L 1294 2234 
L 1294 2753 
L 1863 2753 
Q 2328 2753 2575 2939 
Q 2822 3125 2822 3475 
Q 2822 3834 2567 4026 
Q 2313 4219 1838 4219 
Q 1578 4219 1281 4162 
Q 984 4106 628 3988 
L 628 4550 
Q 988 4650 1302 4700 
Q 1616 4750 1894 4750 
Q 2613 4750 3031 4423 
Q 3450 4097 3450 3541 
Q 3450 3153 3228 2886 
Q 3006 2619 2597 2516 
z
" transform="scale(0.015625)"/>
       </defs>
       <use xlink:href="#DejaVuSans-30"/>
       <use xlink:href="#DejaVuSans-2e" transform="translate(63.623047 0)"/>
       <use xlink:href="#DejaVuSans-33" transform="translate(95.410156 0)"/>
      </g>
     </g>
    </g>
    <g id="xtick_4">
     <g id="line2d_7">
      <path d="M 278.582292 314.37225 
L 278.582292 31.99625 
" clip-path="url(#p25ebde967b)" style="fill: none; stroke: #1a1f2e; stroke-opacity: 0.4; stroke-width: 0.5; stroke-linecap: square"/>
     </g>
     <g id="line2d_8">
      <g>
       <use xlink:href="#m9e3df2dc02" x="278.582292" y="314.37225" style="fill: #888899; stroke: #888899; stroke-width: 0.8"/>
      </g>
     </g>
     <g id="text_4">
      <!-- 0.4 -->
      <g style="fill: #888899" transform="translate(270.630729 328.970687) scale(0.1 -0.1)">
       <defs>
        <path id="DejaVuSans-34" d="M 2419 4116 
L 825 1625 
L 2419 1625 
L 2419 4116 
z
M 2253 4666 
L 3047 4666 
L 3047 1625 
L 3713 1625 
L 3713 1100 
L 3047 1100 
L 3047 0 
L 2419 0 
L 2419 1100 
L 313 1100 
L 313 1709 
L 2253 4666 
z
" transform="scale(0.015625)"/>
       </defs>
       <use xlink:href="#DejaVuSans-30"/>
       <use xlink:href="#DejaVuSans-2e" transform="translate(63.623047 0)"/>
       <use xlink:href="#DejaVuSans-34" transform="translate(95.410156 0)"/>
      </g>
     </g>
    </g>
    <g id="xtick_5">
     <g id="line2d_9">
      <path d="M 352.257847 314.37225 
L 352.257847 31.99625 
" clip-path="url(#p25ebde967b)" style="fill: none; stroke: #1a1f2e; stroke-opacity: 0.4; stroke-width: 0.5; stroke-linecap: square"/>
     </g>
     <g id="line2d_10">
      <g>
       <use xlink:href="#m9e3df2dc02" x="352.257847" y="314.37225" style="fill: #888899; stroke: #888899; stroke-width: 0.8"/>
      </g>
     </g>
     <g id="text_5">
      <!-- 0.5 -->
      <g style="fill: #888899" transform="translate(344.306285 328.970687) scale(0.1 -0.1)">
       <defs>
        <path id="DejaVuSans-35" d="M 691 4666 
L 3169 4666 
L 3169 4134 
L 1269 4134 
L 1269 2991 
Q 1406 3038 1543 3061 
Q 1681 3084 1819 3084 
Q 2600 3084 3056 2656 
Q 3513 2228 3513 1497 
Q 3513 744 3044 326 
Q 2575 -91 1722 -91 
Q 1428 -91 1123 -41 
Q 819 9 494 109 
L 494 744 
Q 775 591 1075 516 
Q 1375 441 1709 441 
Q 2250 441 2565 725 
Q 2881 1009 2881 1497 
Q 2881 1984 2565 2268 
Q 2250 2553 1709 2553 
Q 1456 2553 1204 2497 
Q 953 2441 691 2322 
L 691 4666 
z
" transform="scale(0.015625)"/>
       </defs>
       <use xlink:href="#DejaVuSans-30"/>
       <use xlink:href="#DejaVuSans-2e" transform="translate(63.623047 0)"/>
       <use xlink:href="#DejaVuSans-35" transform="translate(95.410156 0)"/>
      </g>
     </g>
    </g>
    <g id="text_6">
     <!-- Constraint level c -->
     <g style="fill: #ccccdd" transform="translate(183.959766 341.888969) scale(0.09 -0.09)">
      <defs>
       <path id="DejaVuSans-43" d="M 4122 4306 
L 4122 3641 
Q 3803 3938 3442 4084 
Q 3081 4231 2675 4231 
Q 1875 4231 1450 3742 
Q 1025 3253 1025 2328 
Q 1025 1406 1450 917 
Q 1875 428 2675 428 
Q 3081 428 3442 575 
Q 3803 722 4122 1019 
L 4122 359 
Q 3791 134 3420 21 
Q 3050 -91 2638 -91 
Q 1578 -91 968 557 
Q 359 1206 359 2328 
Q 359 3453 968 4101 
Q 1578 4750 2638 4750 
Q 3056 4750 3426 4639 
Q 3797 4528 4122 4306 
z
" transform="scale(0.015625)"/>
       <path id="DejaVuSans-6f" d="M 1959 3097 
Q 1497 3097 1228 2736 
Q 959 2375 959 1747 
Q 959 1119 1226 758 
Q 1494 397 1959 397 
Q 2419 397 2687 759 
Q 2956 1122 2956 1747 
Q 2956 2369 2687 2733 
Q 2419 3097 1959 3097 
z
M 1959 3584 
Q 2709 3584 3137 3096 
Q 3566 2609 3566 1747 
Q 3566 888 3137 398 
Q 2709 -91 1959 -91 
Q 1206 -91 779 398 
Q 353 888 353 1747 
Q 353 2609 779 3096 
Q 1206 3584 1959 3584 
z
" transform="scale(0.015625)"/>
       <path id="DejaVuSans-6e" d="M 3513 2113 
L 3513 0 
L 2938 0 
L 2938 2094 
Q 2938 2591 2744 2837 
Q 2550 3084 2163 3084 
Q 1697 3084 1428 2787 
Q 1159 2491 1159 1978 
L 1159 0 
L 581 0 
L 581 3500 
L 1159 3500 
L 1159 2956 
Q 1366 3272 1645 3428 
Q 1925 3584 2291 3584 
Q 2894 3584 3203 3211 
Q 3513 2838 3513 2113 
z
" transform="scale(0.015625)"/>
       <path id="DejaVuSans-73" d="M 2834 3397 
L 2834 2853 
Q 2591 2978 2328 3040 
Q 2066 3103 1784 3103 
Q 1356 3103 1142 2972 
Q 928 2841 928 2578 
Q 928 2378 1081 2264 
Q 1234 2150 1697 2047 
L 1894 2003 
Q 2506 1872 2764 1633 
Q 3022 1394 3022 966 
Q 3022 478 2636 193 
Q 2250 -91 1575 -91 
Q 1294 -91 989 -36 
Q 684 19 347 128 
L 347 722 
Q 666 556 975 473 
Q 1284 391 1588 391 
Q 1994 391 2212 530 
Q 2431 669 2431 922 
Q 2431 1156 2273 1281 
Q 2116 1406 1581 1522 
L 1381 1569 
Q 847 1681 609 1914 
Q 372 2147 372 2553 
Q 372 3047 722 3315 
Q 1072 3584 1716 3584 
Q 2034 3584 2315 3537 
Q 2597 3491 2834 3397 
z
" transform="scale(0.015625)"/>
       <path id="DejaVuSans-74" d="M 1172 4494 
L 1172 3500 
L 2356 3500 
L 2356 3053 
L 1172 3053 
L 1172 1153 
Q 1172 725 1289 603 
Q 1406 481 1766 481 
L 2356 481 
L 2356 0 
L 1766 0 
Q 1100 0 847 248 
Q 594 497 594 1153 
L 594 3053 
L 172 3053 
L 172 3500 
L 594 3500 
L 594 4494 
L 1172 4494 
z
" transform="scale(0.015625)"/>
       <path id="DejaVuSans-72" d="M 2631 2963 
Q 2534 3019 2420 3045 
Q 2306 3072 2169 3072 
Q 1681 3072 1420 2755 
Q 1159 2438 1159 1844 
L 1159 0 
L 581 0 
L 581 3500 
L 1159 3500 
L 1159 2956 
Q 1341 3275 1631 3429 
Q 1922 3584 2338 3584 
Q 2397 3584 2469 3576 
Q 2541 3569 2628 3553 
L 2631 2963 
z
" transform="scale(0.015625)"/>
       <path id="DejaVuSans-61" d="M 2194 1759 
Q 1497 1759 1228 1600 
Q 959 1441 959 1056 
Q 959 750 1161 570 
Q 1363 391 1709 391 
Q 2188 391 2477 730 
Q 2766 1069 2766 1631 
L 2766 1759 
L 2194 1759 
z
M 3341 1997 
L 3341 0 
L 2766 0 
L 2766 531 
Q 2569 213 2275 61 
Q 1981 -91 1556 -91 
Q 1019 -91 701 211 
Q 384 513 384 1019 
Q 384 1609 779 1909 
Q 1175 2209 1959 2209 
L 2766 2209 
L 2766 2266 
Q 2766 2663 2505 2880 
Q 2244 3097 1772 3097 
Q 1472 3097 1187 3025 
Q 903 2953 641 2809 
L 641 3341 
Q 956 3463 1253 3523 
Q 1550 3584 1831 3584 
Q 2591 3584 2966 3190 
Q 3341 2797 3341 1997 
z
" transform="scale(0.015625)"/>
       <path id="DejaVuSans-69" d="M 603 3500 
L 1178 3500 
L 1178 0 
L 603 0 
L 603 3500 
z
M 603 4863 
L 1178 4863 
L 1178 4134 
L 603 4134 
L 603 4863 
z
" transform="scale(0.015625)"/>
       <path id="DejaVuSans-20" transform="scale(0.015625)"/>
       <path id="DejaVuSans-6c" d="M 603 4863 
L 1178 4863 
L 1178 0 
L 603 0 
L 603 4863 
z
" transform="scale(0.015625)"/>
       <path id="DejaVuSans-65" d="M 3597 1894 
L 3597 1613 
L 953 1613 
Q 991 1019 1311 708 
Q 1631 397 2203 397 
Q 2534 397 2845 478 
Q 3156 559 3463 722 
L 3463 178 
Q 3153 47 2828 -22 
Q 2503 -91 2169 -91 
Q 1331 -91 842 396 
Q 353 884 353 1716 
Q 353 2575 817 3079 
Q 1281 3584 2069 3584 
Q 2775 3584 3186 3129 
Q 3597 2675 3597 1894 
z
M 3022 2063 
Q 3016 2534 2758 2815 
Q 2500 3097 2075 3097 
Q 1594 3097 1305 2825 
Q 1016 2553 972 2059 
L 3022 2063 
z
" transform="scale(0.015625)"/>
       <path id="DejaVuSans-76" d="M 191 3500 
L 800 3500 
L 1894 563 
L 2988 3500 
L 3597 3500 
L 2284 0 
L 1503 0 
L 191 3500 
z
" transform="scale(0.015625)"/>
       <path id="DejaVuSans-63" d="M 3122 3366 
L 3122 2828 
Q 2878 2963 2633 3030 
Q 2388 3097 2138 3097 
Q 1578 3097 1268 2742 
Q 959 2388 959 1747 
Q 959 1106 1268 751 
Q 1578 397 2138 397 
Q 2388 397 2633 464 
Q 2878 531 3122 666 
L 3122 134 
Q 2881 22 2623 -34 
Q 2366 -91 2075 -91 
Q 1284 -91 818 406 
Q 353 903 353 1747 
Q 353 2603 823 3093 
Q 1294 3584 2113 3584 
Q 2378 3584 2631 3529 
Q 2884 3475 3122 3366 
z
" transform="scale(0.015625)"/>
      </defs>
      <use xlink:href="#DejaVuSans-43"/>
      <use xlink:href="#DejaVuSans-6f" transform="translate(69.824219 0)"/>
      <use xlink:href="#DejaVuSans-6e" transform="translate(131.005859 0)"/>
      <use xlink:href="#DejaVuSans-73" transform="translate(194.384766 0)"/>
      <use xlink:href="#DejaVuSans-74" transform="translate(246.484375 0)"/>
      <use xlink:href="#DejaVuSans-72" transform="translate(285.693359 0)"/>
      <use xlink:href="#DejaVuSans-61" transform="translate(326.806641 0)"/>
      <use xlink:href="#DejaVuSans-69" transform="translate(388.085938 0)"/>
      <use xlink:href="#DejaVuSans-6e" transform="translate(415.869141 0)"/>
      <use xlink:href="#DejaVuSans-74" transform="translate(479.248047 0)"/>
      <use xlink:href="#DejaVuSans-20" transform="translate(518.457031 0)"/>
      <use xlink:href="#DejaVuSans-6c" transform="translate(550.244141 0)"/>
      <use xlink:href="#DejaVuSans-65" transform="translate(578.027344 0)"/>
      <use xlink:href="#DejaVuSans-76" transform="translate(639.550781 0)"/>
      <use xlink:href="#DejaVuSans-65" transform="translate(698.730469 0)"/>
      <use xlink:href="#DejaVuSans-6c" transform="translate(760.253906 0)"/>
      <use xlink:href="#DejaVuSans-20" transform="translate(788.037109 0)"/>
      <use xlink:href="#DejaVuSans-63" transform="translate(819.824219 0)"/>
     </g>
    </g>
   </g>
   <g id="matplotlib.axis_2">
    <g id="ytick_1">
     <g id="line2d_11">
      <path d="M 57.555625 314.37225 
L 389.095625 314.37225 
" clip-path="url(#p25ebde967b)" style="fill: none; stroke: #1a1f2e; stroke-opacity: 0.4; stroke-width: 0.5; stroke-linecap: square"/>
     </g>
     <g id="line2d_12">
      <defs>
       <path id="m71a1a29da3" d="M 0 0 
L -3.5 0 
" style="stroke: #888899; stroke-width: 0.8"/>
      </defs>
      <g>
       <use xlink:href="#m71a1a29da3" x="57.555625" y="314.37225" style="fill: #888899; stroke: #888899; stroke-width: 0.8"/>
      </g>
     </g>
     <g id="text_7">
      <!-- −0.20 -->
      <g style="fill: #888899" transform="translate(19.910313 318.171469) scale(0.1 -0.1)">
       <defs>
        <path id="DejaVuSans-2212" d="M 678 2272 
L 4684 2272 
L 4684 1741 
L 678 1741 
L 678 2272 
z
" transform="scale(0.015625)"/>
       </defs>
       <use xlink:href="#DejaVuSans-2212"/>
       <use xlink:href="#DejaVuSans-30" transform="translate(83.789062 0)"/>
       <use xlink:href="#DejaVuSans-2e" transform="translate(147.412109 0)"/>
       <use xlink:href="#DejaVuSans-32" transform="translate(179.199219 0)"/>
       <use xlink:href="#DejaVuSans-30" transform="translate(242.822266 0)"/>
      </g>
     </g>
    </g>
    <g id="ytick_2">
     <g id="line2d_13">
      <path d="M 57.555625 279.07525 
L 389.095625 279.07525 
" clip-path="url(#p25ebde967b)" style="fill: none; stroke: #1a1f2e; stroke-opacity: 0.4; stroke-width: 0.5; stroke-linecap: square"/>
     </g>
     <g id="line2d_14">
      <g>
       <use xlink:href="#m71a1a29da3" x="57.555625" y="279.07525" style="fill: #888899; stroke: #888899; stroke-width: 0.8"/>
      </g>
     </g>
     <g id="text_8">
      <!-- −0.15 -->
      <g style="fill: #888899" transform="translate(19.910313 282.874469) scale(0.1 -0.1)">
       <use xlink:href="#DejaVuSans-2212"/>
       <use xlink:href="#DejaVuSans-30" transform="translate(83.789062 0)"/>
       <use xlink:href="#DejaVuSans-2e" transform="translate(147.412109 0)"/>
       <use xlink:href="#DejaVuSans-31" transform="translate(179.199219 0)"/>
       <use xlink:href="#DejaVuSans-35" transform="translate(242.822266 0)"/>
      </g>
     </g>
    </g>
    <g id="ytick_3">
     <g id="line2d_15">
      <path d="M 57.555625 243.77825 
L 389.095625 243.77825 
" clip-path="url(#p25ebde967b)" style="fill: none; stroke: #1a1f2e; stroke-opacity: 0.4; stroke-width: 0.5; stroke-linecap: square"/>
     </g>
     <g id="line2d_16">
      <g>
       <use xlink:href="#m71a1a29da3" x="57.555625" y="243.77825" style="fill: #888899; stroke: #888899; stroke-width: 0.8"/>
      </g>
     </g>
     <g id="text_9">
      <!-- −0.10 -->
      <g style="fill: #888899" transform="translate(19.910313 247.577469) scale(0.1 -0.1)">
       <use xlink:href="#DejaVuSans-2212"/>
       <use xlink:href="#DejaVuSans-30" transform="translate(83.789062 0)"/>
       <use xlink:href="#DejaVuSans-2e" transform="translate(147.412109 0)"/>
       <use xlink:href="#DejaVuSans-31" transform="translate(179.199219 0)"/>
       <use xlink:href="#DejaVuSans-30" transform="translate(242.822266 0)"/>
      </g>
     </g>
    </g>
    <g id="ytick_4">
     <g id="line2d_17">
      <path d="M 57.555625 208.48125 
L 389.095625 208.48125 
" clip-path="url(#p25ebde967b)" style="fill: none; stroke: #1a1f2e; stroke-opacity: 0.4; stroke-width: 0.5; stroke-linecap: square"/>
     </g>
     <g id="line2d_18">
      <g>
       <use xlink:href="#m71a1a29da3" x="57.555625" y="208.48125" style="fill: #888899; stroke: #888899; stroke-width: 0.8"/>
      </g>
     </g>
     <g id="text_10">
      <!-- −0.05 -->
      <g style="fill: #888899" transform="translate(19.910313 212.280469) scale(0.1 -0.1)">
       <use xlink:href="#DejaVuSans-2212"/>
       <use xlink:href="#DejaVuSans-30" transform="translate(83.789062 0)"/>
       <use xlink:href="#DejaVuSans-2e" transform="translate(147.412109 0)"/>
       <use xlink:href="#DejaVuSans-30" transform="translate(179.199219 0)"/>
       <use xlink:href="#DejaVuSans-35" transform="translate(242.822266 0)"/>
      </g>
     </g>
    </g>
    <g id="ytick_5">
     <g id="line2d_19">
      <path d="M 57.555625 173.18425 
L 389.095625 173.18425 
" clip-path="url(#p25ebde967b)" style="fill: none; stroke: #1a1f2e; stroke-opacity: 0.4; stroke-width: 0.5; stroke-linecap: square"/>
     </g>
     <g id="line2d_20">
      <g>
       <use xlink:href="#m71a1a29da3" x="57.555625" y="173.18425" style="fill: #888899; stroke: #888899; stroke-width: 0.8"/>
      </g>
     </g>
     <g id="text_11">
      <!-- 0.00 -->
      <g style="fill: #888899" transform="translate(28.29 176.983469) scale(0.1 -0.1)">
       <use xlink:href="#DejaVuSans-30"/>
       <use xlink:href="#DejaVuSans-2e" transform="translate(63.623047 0)"/>
       <use xlink:href="#DejaVuSans-30" transform="translate(95.410156 0)"/>
       <use xlink:href="#DejaVuSans-30" transform="translate(159.033203 0)"/>
      </g>
     </g>
    </g>
    <g id="ytick_6">
     <g id="line2d_21">
      <path d="M 57.555625 137.88725 
L 389.095625 137.88725 
" clip-path="url(#p25ebde967b)" style="fill: none; stroke: #1a1f2e; stroke-opacity: 0.4; stroke-width: 0.5; stroke-linecap: square"/>
     </g>
     <g id="line2d_22">
      <g>
       <use xlink:href="#m71a1a29da3" x="57.555625" y="137.88725" style="fill: #888899; stroke: #888899; stroke-width: 0.8"/>
      </g>
     </g>
     <g id="text_12">
      <!-- 0.05 -->
      <g style="fill: #888899" transform="translate(28.29 141.686469) scale(0.1 -0.1)">
       <use xlink:href="#DejaVuSans-30"/>
       <use xlink:href="#DejaVuSans-2e" transform="translate(63.623047 0)"/>
       <use xlink:href="#DejaVuSans-30" transform="translate(95.410156 0)"/>
       <use xlink:href="#DejaVuSans-35" transform="translate(159.033203 0)"/>
      </g>
     </g>
    </g>
    <g id="ytick_7">
     <g id="line2d_23">
      <path d="M 57.555625 102.59025 
L 389.095625 102.59025 
" clip-path="url(#p25ebde967b)" style="fill: none; stroke: #1a1f2e; stroke-opacity: 0.4; stroke-width: 0.5; stroke-linecap: square"/>
     </g>
     <g id="line2d_24">
      <g>
       <use xlink:href="#m71a1a29da3" x="57.555625" y="102.59025" style="fill: #888899; stroke: #888899; stroke-width: 0.8"/>
      </g>
     </g>
     <g id="text_13">
      <!-- 0.10 -->
      <g style="fill: #888899" transform="translate(28.29 106.389469) scale(0.1 -0.1)">
       <use xlink:href="#DejaVuSans-30"/>
       <use xlink:href="#DejaVuSans-2e" transform="translate(63.623047 0)"/>
       <use xlink:href="#DejaVuSans-31" transform="translate(95.410156 0)"/>
       <use xlink:href="#DejaVuSans-30" transform="translate(159.033203 0)"/>
      </g>
     </g>
    </g>
    <g id="ytick_8">
     <g id="line2d_25">
      <path d="M 57.555625 67.29325 
L 389.095625 67.29325 
" clip-path="url(#p25ebde967b)" style="fill: none; stroke: #1a1f2e; stroke-opacity: 0.4; stroke-width: 0.5; stroke-linecap: square"/>
     </g>
     <g id="line2d_26">
      <g>
       <use xlink:href="#m71a1a29da3" x="57.555625" y="67.29325" style="fill: #888899; stroke: #888899; stroke-width: 0.8"/>
      </g>
     </g>
     <g id="text_14">
      <!-- 0.15 -->
      <g style="fill: #888899" transform="translate(28.29 71.092469) scale(0.1 -0.1)">
       <use xlink:href="#DejaVuSans-30"/>
       <use xlink:href="#DejaVuSans-2e" transform="translate(63.623047 0)"/>
       <use xlink:href="#DejaVuSans-31" transform="translate(95.410156 0)"/>
       <use xlink:href="#DejaVuSans-35" transform="translate(159.033203 0)"/>
      </g>
     </g>
    </g>
    <g id="ytick_9">
     <g id="line2d_27">
      <path d="M 57.555625 31.99625 
L 389.095625 31.99625 
" clip-path="url(#p25ebde967b)" style="fill: none; stroke: #1a1f2e; stroke-opacity: 0.4; stroke-width: 0.5; stroke-linecap: square"/>
     </g>
     <g id="line2d_28">
      <g>
       <use xlink:href="#m71a1a29da3" x="57.555625" y="31.99625" style="fill: #888899; stroke: #888899; stroke-width: 0.8"/>
      </g>
     </g>
     <g id="text_15">
      <!-- 0.20 -->
      <g style="fill: #888899" transform="translate(28.29 35.795469) scale(0.1 -0.1)">
       <use xlink:href="#DejaVuSans-30"/>
       <use xlink:href="#DejaVuSans-2e" transform="translate(63.623047 0)"/>
       <use xlink:href="#DejaVuSans-32" transform="translate(95.410156 0)"/>
       <use xlink:href="#DejaVuSans-30" transform="translate(159.033203 0)"/>
      </g>
     </g>
    </g>
    <g id="text_16">
     <!-- η·τ inferred from R=1.18× at each c -->
     <g style="fill: #ccccdd" transform="translate(14.038594 255.363391) rotate(-90) scale(0.09 -0.09)">
      <defs>
       <path id="DejaVuSans-3b7" d="M 3513 2113 
L 3513 -1331 
L 2938 -1331 
L 2938 2094 
Q 2938 2591 2744 2837 
Q 2550 3084 2163 3084 
Q 1697 3084 1428 2787 
Q 1159 2491 1159 1978 
L 1159 0 
L 581 0 
L 581 3500 
L 1159 3500 
L 1159 2956 
Q 1366 3272 1644 3428 
Q 1925 3584 2291 3584 
Q 2894 3584 3203 3213 
Q 3513 2838 3513 2113 
z
" transform="scale(0.015625)"/>
       <path id="DejaVuSans-b7" d="M 684 2619 
L 1344 2619 
L 1344 1825 
L 684 1825 
L 684 2619 
z
" transform="scale(0.015625)"/>
       <path id="DejaVuSans-3c4" d="M 2319 638 
Q 2431 488 2769 488 
L 3047 488 
L 3047 0 
L 2700 0 
Q 2138 0 1881 300 
Q 1625 606 1625 1269 
L 1625 2925 
L 313 2925 
L 313 3500 
L 3541 3500 
L 3541 2925 
L 2213 2925 
L 2213 1234 
Q 2213 781 2319 638 
z
" transform="scale(0.015625)"/>
       <path id="DejaVuSans-66" d="M 2375 4863 
L 2375 4384 
L 1825 4384 
Q 1516 4384 1395 4259 
Q 1275 4134 1275 3809 
L 1275 3500 
L 2222 3500 
L 2222 3053 
L 1275 3053 
L 1275 0 
L 697 0 
L 697 3053 
L 147 3053 
L 147 3500 
L 697 3500 
L 697 3744 
Q 697 4328 969 4595 
Q 1241 4863 1831 4863 
L 2375 4863 
z
" transform="scale(0.015625)"/>
       <path id="DejaVuSans-64" d="M 2906 2969 
L 2906 4863 
L 3481 4863 
L 3481 0 
L 2906 0 
L 2906 525 
Q 2725 213 2448 61 
Q 2172 -91 1784 -91 
Q 1150 -91 751 415 
Q 353 922 353 1747 
Q 353 2572 751 3078 
Q 1150 3584 1784 3584 
Q 2172 3584 2448 3432 
Q 2725 3281 2906 2969 
z
M 947 1747 
Q 947 1113 1208 752 
Q 1469 391 1925 391 
Q 2381 391 2643 752 
Q 2906 1113 2906 1747 
Q 2906 2381 2643 2742 
Q 2381 3103 1925 3103 
Q 1469 3103 1208 2742 
Q 947 2381 947 1747 
z
" transform="scale(0.015625)"/>
       <path id="DejaVuSans-6d" d="M 3328 2828 
Q 3544 3216 3844 3400 
Q 4144 3584 4550 3584 
Q 5097 3584 5394 3201 
Q 5691 2819 5691 2113 
L 5691 0 
L 5113 0 
L 5113 2094 
Q 5113 2597 4934 2840 
Q 4756 3084 4391 3084 
Q 3944 3084 3684 2787 
Q 3425 2491 3425 1978 
L 3425 0 
L 2847 0 
L 2847 2094 
Q 2847 2600 2669 2842 
Q 2491 3084 2119 3084 
Q 1678 3084 1418 2786 
Q 1159 2488 1159 1978 
L 1159 0 
L 581 0 
L 581 3500 
L 1159 3500 
L 1159 2956 
Q 1356 3278 1631 3431 
Q 1906 3584 2284 3584 
Q 2666 3584 2933 3390 
Q 3200 3197 3328 2828 
z
" transform="scale(0.015625)"/>
       <path id="DejaVuSans-52" d="M 2841 2188 
Q 3044 2119 3236 1894 
Q 3428 1669 3622 1275 
L 4263 0 
L 3584 0 
L 2988 1197 
Q 2756 1666 2539 1819 
Q 2322 1972 1947 1972 
L 1259 1972 
L 1259 0 
L 628 0 
L 628 4666 
L 2053 4666 
Q 2853 4666 3247 4331 
Q 3641 3997 3641 3322 
Q 3641 2881 3436 2590 
Q 3231 2300 2841 2188 
z
M 1259 4147 
L 1259 2491 
L 2053 2491 
Q 2509 2491 2742 2702 
Q 2975 2913 2975 3322 
Q 2975 3731 2742 3939 
Q 2509 4147 2053 4147 
L 1259 4147 
z
" transform="scale(0.015625)"/>
       <path id="DejaVuSans-3d" d="M 678 2906 
L 4684 2906 
L 4684 2381 
L 678 2381 
L 678 2906 
z
M 678 1631 
L 4684 1631 
L 4684 1100 
L 678 1100 
L 678 1631 
z
" transform="scale(0.015625)"/>
       <path id="DejaVuSans-38" d="M 2034 2216 
Q 1584 2216 1326 1975 
Q 1069 1734 1069 1313 
Q 1069 891 1326 650 
Q 1584 409 2034 409 
Q 2484 409 2743 651 
Q 3003 894 3003 1313 
Q 3003 1734 2745 1975 
Q 2488 2216 2034 2216 
z
M 1403 2484 
Q 997 2584 770 2862 
Q 544 3141 544 3541 
Q 544 4100 942 4425 
Q 1341 4750 2034 4750 
Q 2731 4750 3128 4425 
Q 3525 4100 3525 3541 
Q 3525 3141 3298 2862 
Q 3072 2584 2669 2484 
Q 3125 2378 3379 2068 
Q 3634 1759 3634 1313 
Q 3634 634 3220 271 
Q 2806 -91 2034 -91 
Q 1263 -91 848 271 
Q 434 634 434 1313 
Q 434 1759 690 2068 
Q 947 2378 1403 2484 
z
M 1172 3481 
Q 1172 3119 1398 2916 
Q 1625 2713 2034 2713 
Q 2441 2713 2670 2916 
Q 2900 3119 2900 3481 
Q 2900 3844 2670 4047 
Q 2441 4250 2034 4250 
Q 1625 4250 1398 4047 
Q 1172 3844 1172 3481 
z
" transform="scale(0.015625)"/>
       <path id="DejaVuSans-d7" d="M 4488 3438 
L 3059 2003 
L 4488 575 
L 4116 197 
L 2681 1631 
L 1247 197 
L 878 575 
L 2303 2003 
L 878 3438 
L 1247 3816 
L 2681 2381 
L 4116 3816 
L 4488 3438 
z
" transform="scale(0.015625)"/>
       <path id="DejaVuSans-68" d="M 3513 2113 
L 3513 0 
L 2938 0 
L 2938 2094 
Q 2938 2591 2744 2837 
Q 2550 3084 2163 3084 
Q 1697 3084 1428 2787 
Q 1159 2491 1159 1978 
L 1159 0 
L 581 0 
L 581 4863 
L 1159 4863 
L 1159 2956 
Q 1366 3272 1645 3428 
Q 1925 3584 2291 3584 
Q 2894 3584 3203 3211 
Q 3513 2838 3513 2113 
z
" transform="scale(0.015625)"/>
      </defs>
      <use xlink:href="#DejaVuSans-3b7"/>
      <use xlink:href="#DejaVuSans-b7" transform="translate(63.378906 0)"/>
      <use xlink:href="#DejaVuSans-3c4" transform="translate(95.166016 0)"/>
      <use xlink:href="#DejaVuSans-20" transform="translate(155.371094 0)"/>
      <use xlink:href="#DejaVuSans-69" transform="translate(187.158203 0)"/>
      <use xlink:href="#DejaVuSans-6e" transform="translate(214.941406 0)"/>
      <use xlink:href="#DejaVuSans-66" transform="translate(278.320312 0)"/>
      <use xlink:href="#DejaVuSans-65" transform="translate(313.525391 0)"/>
      <use xlink:href="#DejaVuSans-72" transform="translate(375.048828 0)"/>
      <use xlink:href="#DejaVuSans-72" transform="translate(414.412109 0)"/>
      <use xlink:href="#DejaVuSans-65" transform="translate(453.275391 0)"/>
      <use xlink:href="#DejaVuSans-64" transform="translate(514.798828 0)"/>
      <use xlink:href="#DejaVuSans-20" transform="translate(578.275391 0)"/>
      <use xlink:href="#DejaVuSans-66" transform="translate(610.0625 0)"/>
      <use xlink:href="#DejaVuSans-72" transform="translate(645.267578 0)"/>
      <use xlink:href="#DejaVuSans-6f" transform="translate(684.130859 0)"/>
      <use xlink:href="#DejaVuSans-6d" transform="translate(745.3125 0)"/>
      <use xlink:href="#DejaVuSans-20" transform="translate(842.724609 0)"/>
      <use xlink:href="#DejaVuSans-52" transform="translate(874.511719 0)"/>
      <use xlink:href="#DejaVuSans-3d" transform="translate(943.994141 0)"/>
      <use xlink:href="#DejaVuSans-31" transform="translate(1027.783203 0)"/>
      <use xlink:href="#DejaVuSans-2e" transform="translate(1091.40625 0)"/>
      <use xlink:href="#DejaVuSans-31" transform="translate(1123.193359 0)"/>
      <use xlink:href="#DejaVuSans-38" transform="translate(1186.816406 0)"/>
      <use xlink:href="#DejaVuSans-d7" transform="translate(1250.439453 0)"/>
      <use xlink:href="#DejaVuSans-20" transform="translate(1334.228516 0)"/>
      <use xlink:href="#DejaVuSans-61" transform="translate(1366.015625 0)"/>
      <use xlink:href="#DejaVuSans-74" transform="translate(1427.294922 0)"/>
      <use xlink:href="#DejaVuSans-20" transform="translate(1466.503906 0)"/>
      <use xlink:href="#DejaVuSans-65" transform="translate(1498.291016 0)"/>
      <use xlink:href="#DejaVuSans-61" transform="translate(1559.814453 0)"/>
      <use xlink:href="#DejaVuSans-63" transform="translate(1621.09375 0)"/>
      <use xlink:href="#DejaVuSans-68" transform="translate(1676.074219 0)"/>
      <use xlink:href="#DejaVuSans-20" transform="translate(1739.453125 0)"/>
      <use xlink:href="#DejaVuSans-63" transform="translate(1771.240234 0)"/>
     </g>
    </g>
   </g>
   <g id="line2d_29">
    <path d="M 57.555625 168.809796 
L 84.145299 167.872289 
L 105.749409 166.901368 
L 124.02981 165.870111 
L 139.81743 164.760779 
L 153.112267 163.606816 
L 164.745249 162.36893 
L 174.716377 161.076235 
L 183.02565 159.779064 
L 190.503996 158.384626 
L 197.151414 156.908136 
L 202.967906 155.377777 
L 207.95347 153.838032 
L 212.108106 152.351595 
L 216.262743 150.633379 
L 219.586452 149.052303 
L 222.910161 147.244244 
L 226.233871 145.155728 
L 228.726653 143.363051 
L 231.219435 141.333237 
L 233.712216 139.015371 
L 236.204998 136.342838 
L 238.69778 133.226761 
L 240.359635 130.844834 
L 242.02149 128.165831 
L 243.683344 125.130159 
L 245.345199 121.661146 
L 247.007054 117.65844 
L 248.668908 112.988118 
L 250.330763 107.467349 
L 251.992617 100.839838 
L 253.654472 92.734804 
L 255.316327 82.595013 
L 256.147254 76.506189 
L 256.978181 69.542731 
L 257.809109 61.501378 
L 258.640036 52.1106 
L 259.470963 40.999306 
L 260.301891 27.646606 
L 261.132818 11.297742 
L 261.631733 -1 
L 261.631733 -1 
" clip-path="url(#p25ebde967b)" style="fill: none; stroke: #ffaa22; stroke-width: 2; stroke-linecap: square"/>
   </g>
   <g id="line2d_30">
    <path d="M 275.241775 351.960687 
L 275.258582 351.451889 
L 276.08951 331.830811 
L 276.920437 316.097375 
L 277.751364 303.200008 
L 278.582292 292.435022 
L 279.413219 283.313749 
L 281.075074 268.695291 
L 282.736928 257.495302 
L 284.398783 248.63941 
L 286.060638 241.460762 
L 287.722492 235.523542 
L 289.384347 230.530889 
L 291.046201 226.273609 
L 292.708056 222.600032 
L 294.369911 219.397518 
L 296.031765 216.580657 
L 297.69362 214.083512 
L 300.186402 210.827104 
L 302.679184 208.04356 
L 305.171966 205.636368 
L 307.664748 203.53361 
L 310.15753 201.680598 
L 313.481239 199.526605 
L 316.804948 197.666031 
L 320.128658 196.042192 
L 324.283294 194.280833 
L 328.437931 192.759861 
L 333.423495 191.187056 
L 339.239986 189.626565 
L 345.056477 188.297561 
L 351.703896 187.000006 
L 359.182242 185.760556 
L 368.322442 184.488929 
L 378.29357 183.33342 
L 389.095625 182.287381 
L 389.095625 182.287381 
" clip-path="url(#p25ebde967b)" style="fill: none; stroke: #6699ff; stroke-width: 2; stroke-linecap: square"/>
   </g>
   <g id="line2d_31">
    <path clip-path="url(#p25ebde967b)" style="fill: none; stroke-dasharray: 5.55,2.4; stroke-dashoffset: 0; stroke: #ffd700; stroke-width: 1.5"/>
   </g>
   <g id="line2d_32">
    <path d="M 268.535625 314.37225 
L 268.535625 31.99625 
" clip-path="url(#p25ebde967b)" style="fill: none; stroke-dasharray: 0.8,1.32; stroke-dashoffset: 0; stroke: #ffffff; stroke-opacity: 0.4; stroke-width: 0.8"/>
   </g>
   <g id="patch_3">
    <path d="M 57.555625 314.37225 
L 57.555625 31.99625 
" style="fill: none; stroke: #333344; stroke-width: 0.8; stroke-linejoin: miter; stroke-linecap: square"/>
   </g>
   <g id="patch_4">
    <path d="M 389.095625 314.37225 
L 389.095625 31.99625 
" style="fill: none; stroke: #333344; stroke-width: 0.8; stroke-linejoin: miter; stroke-linecap: square"/>
   </g>
   <g id="patch_5">
    <path d="M 57.555625 314.37225 
L 389.095625 314.37225 
" style="fill: none; stroke: #333344; stroke-width: 0.8; stroke-linejoin: miter; stroke-linecap: square"/>
   </g>
   <g id="patch_6">
    <path d="M 57.555625 31.99625 
L 389.095625 31.99625 
" style="fill: none; stroke: #333344; stroke-width: 0.8; stroke-linejoin: miter; stroke-linecap: square"/>
   </g>
   <g id="text_17">
    <g id="patch_7">
     <path d="M 168.068958 100.657962 
L 302.296693 100.657962 
Q 304.546693 100.657962 304.546693 98.407962 
L 304.546693 74.35265 
Q 304.546693 72.10265 302.296693 72.10265 
L 168.068958 72.10265 
Q 165.818958 72.10265 165.818958 74.35265 
L 165.818958 98.407962 
Q 165.818958 100.657962 168.068958 100.657962 
z
" style="fill: #111111; opacity: 0.8; stroke: #333344; stroke-linejoin: miter"/>
    </g>
    <!-- If η·τ were constant across c, -->
    <g style="fill: #aaaabb" transform="translate(168.068958 80.051478) scale(0.075 -0.075)">
     <defs>
      <path id="DejaVuSans-49" d="M 628 4666 
L 1259 4666 
L 1259 0 
L 628 0 
L 628 4666 
z
" transform="scale(0.015625)"/>
      <path id="DejaVuSans-77" d="M 269 3500 
L 844 3500 
L 1563 769 
L 2278 3500 
L 2956 3500 
L 3675 769 
L 4391 3500 
L 4966 3500 
L 4050 0 
L 3372 0 
L 2619 2869 
L 1863 0 
L 1184 0 
L 269 3500 
z
" transform="scale(0.015625)"/>
      <path id="DejaVuSans-2c" d="M 750 794 
L 1409 794 
L 1409 256 
L 897 -744 
L 494 -744 
L 750 256 
L 750 794 
z
" transform="scale(0.015625)"/>
     </defs>
     <use xlink:href="#DejaVuSans-49"/>
     <use xlink:href="#DejaVuSans-66" transform="translate(29.492188 0)"/>
     <use xlink:href="#DejaVuSans-20" transform="translate(64.697266 0)"/>
     <use xlink:href="#DejaVuSans-3b7" transform="translate(96.484375 0)"/>
     <use xlink:href="#DejaVuSans-b7" transform="translate(159.863281 0)"/>
     <use xlink:href="#DejaVuSans-3c4" transform="translate(191.650391 0)"/>
     <use xlink:href="#DejaVuSans-20" transform="translate(251.855469 0)"/>
     <use xlink:href="#DejaVuSans-77" transform="translate(283.642578 0)"/>
     <use xlink:href="#DejaVuSans-65" transform="translate(365.429688 0)"/>
     <use xlink:href="#DejaVuSans-72" transform="translate(426.953125 0)"/>
     <use xlink:href="#DejaVuSans-65" transform="translate(465.816406 0)"/>
     <use xlink:href="#DejaVuSans-20" transform="translate(527.339844 0)"/>
     <use xlink:href="#DejaVuSans-63" transform="translate(559.126953 0)"/>
     <use xlink:href="#DejaVuSans-6f" transform="translate(614.107422 0)"/>
     <use xlink:href="#DejaVuSans-6e" transform="translate(675.289062 0)"/>
     <use xlink:href="#DejaVuSans-73" transform="translate(738.667969 0)"/>
     <use xlink:href="#DejaVuSans-74" transform="translate(790.767578 0)"/>
     <use xlink:href="#DejaVuSans-61" transform="translate(829.976562 0)"/>
     <use xlink:href="#DejaVuSans-6e" transform="translate(891.255859 0)"/>
     <use xlink:href="#DejaVuSans-74" transform="translate(954.634766 0)"/>
     <use xlink:href="#DejaVuSans-20" transform="translate(993.84375 0)"/>
     <use xlink:href="#DejaVuSans-61" transform="translate(1025.630859 0)"/>
     <use xlink:href="#DejaVuSans-63" transform="translate(1086.910156 0)"/>
     <use xlink:href="#DejaVuSans-72" transform="translate(1141.890625 0)"/>
     <use xlink:href="#DejaVuSans-6f" transform="translate(1180.753906 0)"/>
     <use xlink:href="#DejaVuSans-73" transform="translate(1241.935547 0)"/>
     <use xlink:href="#DejaVuSans-73" transform="translate(1294.035156 0)"/>
     <use xlink:href="#DejaVuSans-20" transform="translate(1346.134766 0)"/>
     <use xlink:href="#DejaVuSans-63" transform="translate(1377.921875 0)"/>
     <use xlink:href="#DejaVuSans-2c" transform="translate(1432.902344 0)"/>
    </g>
    <!-- Crooks ratio would perfectly predict -->
    <g style="fill: #aaaabb" transform="translate(168.068958 88.449838) scale(0.075 -0.075)">
     <defs>
      <path id="DejaVuSans-6b" d="M 581 4863 
L 1159 4863 
L 1159 1991 
L 2875 3500 
L 3609 3500 
L 1753 1863 
L 3688 0 
L 2938 0 
L 1159 1709 
L 1159 0 
L 581 0 
L 581 4863 
z
" transform="scale(0.015625)"/>
      <path id="DejaVuSans-75" d="M 544 1381 
L 544 3500 
L 1119 3500 
L 1119 1403 
Q 1119 906 1312 657 
Q 1506 409 1894 409 
Q 2359 409 2629 706 
Q 2900 1003 2900 1516 
L 2900 3500 
L 3475 3500 
L 3475 0 
L 2900 0 
L 2900 538 
Q 2691 219 2414 64 
Q 2138 -91 1772 -91 
Q 1169 -91 856 284 
Q 544 659 544 1381 
z
M 1991 3584 
L 1991 3584 
z
" transform="scale(0.015625)"/>
      <path id="DejaVuSans-70" d="M 1159 525 
L 1159 -1331 
L 581 -1331 
L 581 3500 
L 1159 3500 
L 1159 2969 
Q 1341 3281 1617 3432 
Q 1894 3584 2278 3584 
Q 2916 3584 3314 3078 
Q 3713 2572 3713 1747 
Q 3713 922 3314 415 
Q 2916 -91 2278 -91 
Q 1894 -91 1617 61 
Q 1341 213 1159 525 
z
M 3116 1747 
Q 3116 2381 2855 2742 
Q 2594 3103 2138 3103 
Q 1681 3103 1420 2742 
Q 1159 2381 1159 1747 
Q 1159 1113 1420 752 
Q 1681 391 2138 391 
Q 2594 391 2855 752 
Q 3116 1113 3116 1747 
z
" transform="scale(0.015625)"/>
      <path id="DejaVuSans-79" d="M 2059 -325 
Q 1816 -950 1584 -1140 
Q 1353 -1331 966 -1331 
L 506 -1331 
L 506 -850 
L 844 -850 
Q 1081 -850 1212 -737 
Q 1344 -625 1503 -206 
L 1606 56 
L 191 3500 
L 800 3500 
L 1894 763 
L 2988 3500 
L 3597 3500 
L 2059 -325 
z
" transform="scale(0.015625)"/>
     </defs>
     <use xlink:href="#DejaVuSans-43"/>
     <use xlink:href="#DejaVuSans-72" transform="translate(69.824219 0)"/>
     <use xlink:href="#DejaVuSans-6f" transform="translate(108.6875 0)"/>
     <use xlink:href="#DejaVuSans-6f" transform="translate(169.869141 0)"/>
     <use xlink:href="#DejaVuSans-6b" transform="translate(231.050781 0)"/>
     <use xlink:href="#DejaVuSans-73" transform="translate(288.960938 0)"/>
     <use xlink:href="#DejaVuSans-20" transform="translate(341.060547 0)"/>
     <use xlink:href="#DejaVuSans-72" transform="translate(372.847656 0)"/>
     <use xlink:href="#DejaVuSans-61" transform="translate(413.960938 0)"/>
     <use xlink:href="#DejaVuSans-74" transform="translate(475.240234 0)"/>
     <use xlink:href="#DejaVuSans-69" transform="translate(514.449219 0)"/>
     <use xlink:href="#DejaVuSans-6f" transform="translate(542.232422 0)"/>
     <use xlink:href="#DejaVuSans-20" transform="translate(603.414062 0)"/>
     <use xlink:href="#DejaVuSans-77" transform="translate(635.201172 0)"/>
     <use xlink:href="#DejaVuSans-6f" transform="translate(716.988281 0)"/>
     <use xlink:href="#DejaVuSans-75" transform="translate(778.169922 0)"/>
     <use xlink:href="#DejaVuSans-6c" transform="translate(841.548828 0)"/>
     <use xlink:href="#DejaVuSans-64" transform="translate(869.332031 0)"/>
     <use xlink:href="#DejaVuSans-20" transform="translate(932.808594 0)"/>
     <use xlink:href="#DejaVuSans-70" transform="translate(964.595703 0)"/>
     <use xlink:href="#DejaVuSans-65" transform="translate(1028.072266 0)"/>
     <use xlink:href="#DejaVuSans-72" transform="translate(1089.595703 0)"/>
     <use xlink:href="#DejaVuSans-66" transform="translate(1130.708984 0)"/>
     <use xlink:href="#DejaVuSans-65" transform="translate(1165.914062 0)"/>
     <use xlink:href="#DejaVuSans-63" transform="translate(1227.4375 0)"/>
     <use xlink:href="#DejaVuSans-74" transform="translate(1282.417969 0)"/>
     <use xlink:href="#DejaVuSans-6c" transform="translate(1321.626953 0)"/>
     <use xlink:href="#DejaVuSans-79" transform="translate(1349.410156 0)"/>
     <use xlink:href="#DejaVuSans-20" transform="translate(1408.589844 0)"/>
     <use xlink:href="#DejaVuSans-70" transform="translate(1440.376953 0)"/>
     <use xlink:href="#DejaVuSans-72" transform="translate(1503.853516 0)"/>
     <use xlink:href="#DejaVuSans-65" transform="translate(1542.716797 0)"/>
     <use xlink:href="#DejaVuSans-64" transform="translate(1604.240234 0)"/>
     <use xlink:href="#DejaVuSans-69" transform="translate(1667.716797 0)"/>
     <use xlink:href="#DejaVuSans-63" transform="translate(1695.5 0)"/>
     <use xlink:href="#DejaVuSans-74" transform="translate(1750.480469 0)"/>
    </g>
    <!-- GM ratio at all constraint levels. -->
    <g style="fill: #aaaabb" transform="translate(168.068958 96.848197) scale(0.075 -0.075)">
     <defs>
      <path id="DejaVuSans-47" d="M 3809 666 
L 3809 1919 
L 2778 1919 
L 2778 2438 
L 4434 2438 
L 4434 434 
Q 4069 175 3628 42 
Q 3188 -91 2688 -91 
Q 1594 -91 976 548 
Q 359 1188 359 2328 
Q 359 3472 976 4111 
Q 1594 4750 2688 4750 
Q 3144 4750 3555 4637 
Q 3966 4525 4313 4306 
L 4313 3634 
Q 3963 3931 3569 4081 
Q 3175 4231 2741 4231 
Q 1884 4231 1454 3753 
Q 1025 3275 1025 2328 
Q 1025 1384 1454 906 
Q 1884 428 2741 428 
Q 3075 428 3337 486 
Q 3600 544 3809 666 
z
" transform="scale(0.015625)"/>
      <path id="DejaVuSans-4d" d="M 628 4666 
L 1569 4666 
L 2759 1491 
L 3956 4666 
L 4897 4666 
L 4897 0 
L 4281 0 
L 4281 4097 
L 3078 897 
L 2444 897 
L 1241 4097 
L 1241 0 
L 628 0 
L 628 4666 
z
" transform="scale(0.015625)"/>
     </defs>
     <use xlink:href="#DejaVuSans-47"/>
     <use xlink:href="#DejaVuSans-4d" transform="translate(77.490234 0)"/>
     <use xlink:href="#DejaVuSans-20" transform="translate(163.769531 0)"/>
     <use xlink:href="#DejaVuSans-72" transform="translate(195.556641 0)"/>
     <use xlink:href="#DejaVuSans-61" transform="translate(236.669922 0)"/>
     <use xlink:href="#DejaVuSans-74" transform="translate(297.949219 0)"/>
     <use xlink:href="#DejaVuSans-69" transform="translate(337.158203 0)"/>
     <use xlink:href="#DejaVuSans-6f" transform="translate(364.941406 0)"/>
     <use xlink:href="#DejaVuSans-20" transform="translate(426.123047 0)"/>
     <use xlink:href="#DejaVuSans-61" transform="translate(457.910156 0)"/>
     <use xlink:href="#DejaVuSans-74" transform="translate(519.189453 0)"/>
     <use xlink:href="#DejaVuSans-20" transform="translate(558.398438 0)"/>
     <use xlink:href="#DejaVuSans-61" transform="translate(590.185547 0)"/>
     <use xlink:href="#DejaVuSans-6c" transform="translate(651.464844 0)"/>
     <use xlink:href="#DejaVuSans-6c" transform="translate(679.248047 0)"/>
     <use xlink:href="#DejaVuSans-20" transform="translate(707.03125 0)"/>
     <use xlink:href="#DejaVuSans-63" transform="translate(738.818359 0)"/>
     <use xlink:href="#DejaVuSans-6f" transform="translate(793.798828 0)"/>
     <use xlink:href="#DejaVuSans-6e" transform="translate(854.980469 0)"/>
     <use xlink:href="#DejaVuSans-73" transform="translate(918.359375 0)"/>
     <use xlink:href="#DejaVuSans-74" transform="translate(970.458984 0)"/>
     <use xlink:href="#DejaVuSans-72" transform="translate(1009.667969 0)"/>
     <use xlink:href="#DejaVuSans-61" transform="translate(1050.78125 0)"/>
     <use xlink:href="#DejaVuSans-69" transform="translate(1112.060547 0)"/>
     <use xlink:href="#DejaVuSans-6e" transform="translate(1139.84375 0)"/>
     <use xlink:href="#DejaVuSans-74" transform="translate(1203.222656 0)"/>
     <use xlink:href="#DejaVuSans-20" transform="translate(1242.431641 0)"/>
     <use xlink:href="#DejaVuSans-6c" transform="translate(1274.21875 0)"/>
     <use xlink:href="#DejaVuSans-65" transform="translate(1302.001953 0)"/>
     <use xlink:href="#DejaVuSans-76" transform="translate(1363.525391 0)"/>
     <use xlink:href="#DejaVuSans-65" transform="translate(1422.705078 0)"/>
     <use xlink:href="#DejaVuSans-6c" transform="translate(1484.228516 0)"/>
     <use xlink:href="#DejaVuSans-73" transform="translate(1512.011719 0)"/>
     <use xlink:href="#DejaVuSans-2e" transform="translate(1564.111328 0)"/>
    </g>
   </g>
   <g id="text_18">
    <!-- Crooks Efficiency η·τ -->
    <g style="fill: #ccccdd" transform="translate(171.165469 14.798437) scale(0.1 -0.1)">
     <defs>
      <path id="DejaVuSans-45" d="M 628 4666 
L 3578 4666 
L 3578 4134 
L 1259 4134 
L 1259 2753 
L 3481 2753 
L 3481 2222 
L 1259 2222 
L 1259 531 
L 3634 531 
L 3634 0 
L 628 0 
L 628 4666 
z
" transform="scale(0.015625)"/>
     </defs>
     <use xlink:href="#DejaVuSans-43"/>
     <use xlink:href="#DejaVuSans-72" transform="translate(69.824219 0)"/>
     <use xlink:href="#DejaVuSans-6f" transform="translate(108.6875 0)"/>
     <use xlink:href="#DejaVuSans-6f" transform="translate(169.869141 0)"/>
     <use xlink:href="#DejaVuSans-6b" transform="translate(231.050781 0)"/>
     <use xlink:href="#DejaVuSans-73" transform="translate(288.960938 0)"/>
     <use xlink:href="#DejaVuSans-20" transform="translate(341.060547 0)"/>
     <use xlink:href="#DejaVuSans-45" transform="translate(372.847656 0)"/>
     <use xlink:href="#DejaVuSans-66" transform="translate(436.03125 0)"/>
     <use xlink:href="#DejaVuSans-66" transform="translate(471.236328 0)"/>
     <use xlink:href="#DejaVuSans-69" transform="translate(506.441406 0)"/>
     <use xlink:href="#DejaVuSans-63" transform="translate(534.224609 0)"/>
     <use xlink:href="#DejaVuSans-69" transform="translate(589.205078 0)"/>
     <use xlink:href="#DejaVuSans-65" transform="translate(616.988281 0)"/>
     <use xlink:href="#DejaVuSans-6e" transform="translate(678.511719 0)"/>
     <use xlink:href="#DejaVuSans-63" transform="translate(741.890625 0)"/>
     <use xlink:href="#DejaVuSans-79" transform="translate(796.871094 0)"/>
     <use xlink:href="#DejaVuSans-20" transform="translate(856.050781 0)"/>
     <use xlink:href="#DejaVuSans-3b7" transform="translate(887.837891 0)"/>
     <use xlink:href="#DejaVuSans-b7" transform="translate(951.216797 0)"/>
     <use xlink:href="#DejaVuSans-3c4" transform="translate(983.003906 0)"/>
    </g>
    <!-- (constant if mapping is exact) -->
    <g style="fill: #ccccdd" transform="translate(148.452969 25.99625) scale(0.1 -0.1)">
     <defs>
      <path id="DejaVuSans-28" d="M 1984 4856 
Q 1566 4138 1362 3434 
Q 1159 2731 1159 2009 
Q 1159 1288 1364 580 
Q 1569 -128 1984 -844 
L 1484 -844 
Q 1016 -109 783 600 
Q 550 1309 550 2009 
Q 550 2706 781 3412 
Q 1013 4119 1484 4856 
L 1984 4856 
z
" transform="scale(0.015625)"/>
      <path id="DejaVuSans-67" d="M 2906 1791 
Q 2906 2416 2648 2759 
Q 2391 3103 1925 3103 
Q 1463 3103 1205 2759 
Q 947 2416 947 1791 
Q 947 1169 1205 825 
Q 1463 481 1925 481 
Q 2391 481 2648 825 
Q 2906 1169 2906 1791 
z
M 3481 434 
Q 3481 -459 3084 -895 
Q 2688 -1331 1869 -1331 
Q 1566 -1331 1297 -1286 
Q 1028 -1241 775 -1147 
L 775 -588 
Q 1028 -725 1275 -790 
Q 1522 -856 1778 -856 
Q 2344 -856 2625 -561 
Q 2906 -266 2906 331 
L 2906 616 
Q 2728 306 2450 153 
Q 2172 0 1784 0 
Q 1141 0 747 490 
Q 353 981 353 1791 
Q 353 2603 747 3093 
Q 1141 3584 1784 3584 
Q 2172 3584 2450 3431 
Q 2728 3278 2906 2969 
L 2906 3500 
L 3481 3500 
L 3481 434 
z
" transform="scale(0.015625)"/>
      <path id="DejaVuSans-78" d="M 3513 3500 
L 2247 1797 
L 3578 0 
L 2900 0 
L 1881 1375 
L 863 0 
L 184 0 
L 1544 1831 
L 300 3500 
L 978 3500 
L 1906 2253 
L 2834 3500 
L 3513 3500 
z
" transform="scale(0.015625)"/>
      <path id="DejaVuSans-29" d="M 513 4856 
L 1013 4856 
Q 1481 4119 1714 3412 
Q 1947 2706 1947 2009 
Q 1947 1309 1714 600 
Q 1481 -109 1013 -844 
L 513 -844 
Q 928 -128 1133 580 
Q 1338 1288 1338 2009 
Q 1338 2731 1133 3434 
Q 928 4138 513 4856 
z
" transform="scale(0.015625)"/>
     </defs>
     <use xlink:href="#DejaVuSans-28"/>
     <use xlink:href="#DejaVuSans-63" transform="translate(39.013672 0)"/>
     <use xlink:href="#DejaVuSans-6f" transform="translate(93.994141 0)"/>
     <use xlink:href="#DejaVuSans-6e" transform="translate(155.175781 0)"/>
     <use xlink:href="#DejaVuSans-73" transform="translate(218.554688 0)"/>
     <use xlink:href="#DejaVuSans-74" transform="translate(270.654297 0)"/>
     <use xlink:href="#DejaVuSans-61" transform="translate(309.863281 0)"/>
     <use xlink:href="#DejaVuSans-6e" transform="translate(371.142578 0)"/>
     <use xlink:href="#DejaVuSans-74" transform="translate(434.521484 0)"/>
     <use xlink:href="#DejaVuSans-20" transform="translate(473.730469 0)"/>
     <use xlink:href="#DejaVuSans-69" transform="translate(505.517578 0)"/>
     <use xlink:href="#DejaVuSans-66" transform="translate(533.300781 0)"/>
     <use xlink:href="#DejaVuSans-20" transform="translate(568.505859 0)"/>
     <use xlink:href="#DejaVuSans-6d" transform="translate(600.292969 0)"/>
     <use xlink:href="#DejaVuSans-61" transform="translate(697.705078 0)"/>
     <use xlink:href="#DejaVuSans-70" transform="translate(758.984375 0)"/>
     <use xlink:href="#DejaVuSans-70" transform="translate(822.460938 0)"/>
     <use xlink:href="#DejaVuSans-69" transform="translate(885.9375 0)"/>
     <use xlink:href="#DejaVuSans-6e" transform="translate(913.720703 0)"/>
     <use xlink:href="#DejaVuSans-67" transform="translate(977.099609 0)"/>
     <use xlink:href="#DejaVuSans-20" transform="translate(1040.576172 0)"/>
     <use xlink:href="#DejaVuSans-69" transform="translate(1072.363281 0)"/>
     <use xlink:href="#DejaVuSans-73" transform="translate(1100.146484 0)"/>
     <use xlink:href="#DejaVuSans-20" transform="translate(1152.246094 0)"/>
     <use xlink:href="#DejaVuSans-65" transform="translate(1184.033203 0)"/>
     <use xlink:href="#DejaVuSans-78" transform="translate(1243.806641 0)"/>
     <use xlink:href="#DejaVuSans-61" transform="translate(1302.986328 0)"/>
     <use xlink:href="#DejaVuSans-63" transform="translate(1364.265625 0)"/>
     <use xlink:href="#DejaVuSans-74" transform="translate(1419.246094 0)"/>
     <use xlink:href="#DejaVuSans-29" transform="translate(1458.455078 0)"/>
    </g>
   </g>
   <g id="legend_1">
    <g id="patch_8">
     <path d="M 63.155625 50.13875 
L 247.735625 50.13875 
Q 249.335625 50.13875 249.335625 48.53875 
L 249.335625 37.59625 
Q 249.335625 35.99625 247.735625 35.99625 
L 63.155625 35.99625 
Q 61.555625 35.99625 61.555625 37.59625 
L 61.555625 48.53875 
Q 61.555625 50.13875 63.155625 50.13875 
z
" style="fill: #060810; opacity: 0.25; stroke: #cccccc; stroke-linejoin: miter"/>
    </g>
    <g id="line2d_33">
     <path d="M 64.755625 42.475 
L 72.755625 42.475 
L 80.755625 42.475 
" style="fill: none; stroke-dasharray: 5.55,2.4; stroke-dashoffset: 0; stroke: #ffd700; stroke-width: 1.5"/>
    </g>
    <g id="text_19">
     <!-- Calibrated η·τ = -16.9009 (ETH anchor) -->
     <g style="fill: #ccccdd" transform="translate(87.155625 45.275) scale(0.08 -0.08)">
      <defs>
       <path id="DejaVuSans-62" d="M 3116 1747 
Q 3116 2381 2855 2742 
Q 2594 3103 2138 3103 
Q 1681 3103 1420 2742 
Q 1159 2381 1159 1747 
Q 1159 1113 1420 752 
Q 1681 391 2138 391 
Q 2594 391 2855 752 
Q 3116 1113 3116 1747 
z
M 1159 2969 
Q 1341 3281 1617 3432 
Q 1894 3584 2278 3584 
Q 2916 3584 3314 3078 
Q 3713 2572 3713 1747 
Q 3713 922 3314 415 
Q 2916 -91 2278 -91 
Q 1894 -91 1617 61 
Q 1341 213 1159 525 
L 1159 0 
L 581 0 
L 581 4863 
L 1159 4863 
L 1159 2969 
z
" transform="scale(0.015625)"/>
       <path id="DejaVuSans-2d" d="M 313 2009 
L 1997 2009 
L 1997 1497 
L 313 1497 
L 313 2009 
z
" transform="scale(0.015625)"/>
       <path id="DejaVuSans-36" d="M 2113 2584 
Q 1688 2584 1439 2293 
Q 1191 2003 1191 1497 
Q 1191 994 1439 701 
Q 1688 409 2113 409 
Q 2538 409 2786 701 
Q 3034 994 3034 1497 
Q 3034 2003 2786 2293 
Q 2538 2584 2113 2584 
z
M 3366 4563 
L 3366 3988 
Q 3128 4100 2886 4159 
Q 2644 4219 2406 4219 
Q 1781 4219 1451 3797 
Q 1122 3375 1075 2522 
Q 1259 2794 1537 2939 
Q 1816 3084 2150 3084 
Q 2853 3084 3261 2657 
Q 3669 2231 3669 1497 
Q 3669 778 3244 343 
Q 2819 -91 2113 -91 
Q 1303 -91 875 529 
Q 447 1150 447 2328 
Q 447 3434 972 4092 
Q 1497 4750 2381 4750 
Q 2619 4750 2861 4703 
Q 3103 4656 3366 4563 
z
" transform="scale(0.015625)"/>
       <path id="DejaVuSans-39" d="M 703 97 
L 703 672 
Q 941 559 1184 500 
Q 1428 441 1663 441 
Q 2288 441 2617 861 
Q 2947 1281 2994 2138 
Q 2813 1869 2534 1725 
Q 2256 1581 1919 1581 
Q 1219 1581 811 2004 
Q 403 2428 403 3163 
Q 403 3881 828 4315 
Q 1253 4750 1959 4750 
Q 2769 4750 3195 4129 
Q 3622 3509 3622 2328 
Q 3622 1225 3098 567 
Q 2575 -91 1691 -91 
Q 1453 -91 1209 -44 
Q 966 3 703 97 
z
M 1959 2075 
Q 2384 2075 2632 2365 
Q 2881 2656 2881 3163 
Q 2881 3666 2632 3958 
Q 2384 4250 1959 4250 
Q 1534 4250 1286 3958 
Q 1038 3666 1038 3163 
Q 1038 2656 1286 2365 
Q 1534 2075 1959 2075 
z
" transform="scale(0.015625)"/>
       <path id="DejaVuSans-54" d="M -19 4666 
L 3928 4666 
L 3928 4134 
L 2272 4134 
L 2272 0 
L 1638 0 
L 1638 4134 
L -19 4134 
L -19 4666 
z
" transform="scale(0.015625)"/>
       <path id="DejaVuSans-48" d="M 628 4666 
L 1259 4666 
L 1259 2753 
L 3553 2753 
L 3553 4666 
L 4184 4666 
L 4184 0 
L 3553 0 
L 3553 2222 
L 1259 2222 
L 1259 0 
L 628 0 
L 628 4666 
z
" transform="scale(0.015625)"/>
      </defs>
      <use xlink:href="#DejaVuSans-43"/>
      <use xlink:href="#DejaVuSans-61" transform="translate(69.824219 0)"/>
      <use xlink:href="#DejaVuSans-6c" transform="translate(131.103516 0)"/>
      <use xlink:href="#DejaVuSans-69" transform="translate(158.886719 0)"/>
      <use xlink:href="#DejaVuSans-62" transform="translate(186.669922 0)"/>
      <use xlink:href="#DejaVuSans-72" transform="translate(250.146484 0)"/>
      <use xlink:href="#DejaVuSans-61" transform="translate(291.259766 0)"/>
      <use xlink:href="#DejaVuSans-74" transform="translate(352.539062 0)"/>
      <use xlink:href="#DejaVuSans-65" transform="translate(391.748047 0)"/>
      <use xlink:href="#DejaVuSans-64" transform="translate(453.271484 0)"/>
      <use xlink:href="#DejaVuSans-20" transform="translate(516.748047 0)"/>
      <use xlink:href="#DejaVuSans-3b7" transform="translate(548.535156 0)"/>
      <use xlink:href="#DejaVuSans-b7" transform="translate(611.914062 0)"/>
      <use xlink:href="#DejaVuSans-3c4" transform="translate(643.701172 0)"/>
      <use xlink:href="#DejaVuSans-20" transform="translate(703.90625 0)"/>
      <use xlink:href="#DejaVuSans-3d" transform="translate(735.693359 0)"/>
      <use xlink:href="#DejaVuSans-20" transform="translate(819.482422 0)"/>
      <use xlink:href="#DejaVuSans-2d" transform="translate(851.269531 0)"/>
      <use xlink:href="#DejaVuSans-31" transform="translate(887.353516 0)"/>
      <use xlink:href="#DejaVuSans-36" transform="translate(950.976562 0)"/>
      <use xlink:href="#DejaVuSans-2e" transform="translate(1014.599609 0)"/>
      <use xlink:href="#DejaVuSans-39" transform="translate(1046.386719 0)"/>
      <use xlink:href="#DejaVuSans-30" transform="translate(1110.009766 0)"/>
      <use xlink:href="#DejaVuSans-30" transform="translate(1173.632812 0)"/>
      <use xlink:href="#DejaVuSans-39" transform="translate(1237.255859 0)"/>
      <use xlink:href="#DejaVuSans-20" transform="translate(1300.878906 0)"/>
      <use xlink:href="#DejaVuSans-28" transform="translate(1332.666016 0)"/>
      <use xlink:href="#DejaVuSans-45" transform="translate(1371.679688 0)"/>
      <use xlink:href="#DejaVuSans-54" transform="translate(1434.863281 0)"/>
      <use xlink:href="#DejaVuSans-48" transform="translate(1495.947266 0)"/>
      <use xlink:href="#DejaVuSans-20" transform="translate(1571.142578 0)"/>
      <use xlink:href="#DejaVuSans-61" transform="translate(1602.929688 0)"/>
      <use xlink:href="#DejaVuSans-6e" transform="translate(1664.208984 0)"/>
      <use xlink:href="#DejaVuSans-63" transform="translate(1727.587891 0)"/>
      <use xlink:href="#DejaVuSans-68" transform="translate(1782.568359 0)"/>
      <use xlink:href="#DejaVuSans-6f" transform="translate(1845.947266 0)"/>
      <use xlink:href="#DejaVuSans-72" transform="translate(1907.128906 0)"/>
      <use xlink:href="#DejaVuSans-29" transform="translate(1948.242188 0)"/>
     </g>
    </g>
   </g>
   <g id="PathCollection_1">
    <defs>
     <path id="m094fcb338b" d="M 0 5.477226 
C 1.452577 5.477226 2.845856 4.900111 3.872983 3.872983 
C 4.900111 2.845856 5.477226 1.452577 5.477226 0 
C 5.477226 -1.452577 4.900111 -2.845856 3.872983 -3.872983 
C 2.845856 -4.900111 1.452577 -5.477226 0 -5.477226 
C -1.452577 -5.477226 -2.845856 -4.900111 -3.872983 -3.872983 
C -4.900111 -2.845856 -5.477226 -1.452577 -5.477226 0 
C -5.477226 1.452577 -4.900111 2.845856 -3.872983 3.872983 
C -2.845856 4.900111 -1.452577 5.477226 0 5.477226 
z
" style="stroke: #ffd700"/>
    </defs>
    <g clip-path="url(#p25ebde967b)">
     <use xlink:href="#m094fcb338b" x="266.057447" y="12104.234277" style="fill: #ffd700; stroke: #ffd700"/>
    </g>
   </g>
  </g>
  <g id="axes_2">
   <g id="patch_9">
    <path d="M 445.545625 314.37225 
L 777.085625 314.37225 
L 777.085625 31.99625 
L 445.545625 31.99625 
z
" style="fill: #060810"/>
   </g>
   <g id="matplotlib.axis_3">
    <g id="xtick_6">
     <g id="line2d_34">
      <path d="M 460.615625 314.37225 
L 460.615625 31.99625 
" clip-path="url(#p9a1c782d23)" style="fill: none; stroke: #1a1f2e; stroke-opacity: 0.4; stroke-width: 0.5; stroke-linecap: square"/>
     </g>
     <g id="line2d_35">
      <g>
       <use xlink:href="#m9e3df2dc02" x="460.615625" y="314.37225" style="fill: #888899; stroke: #888899; stroke-width: 0.8"/>
      </g>
     </g>
     <g id="text_20">
      <!-- 0.1 -->
      <g style="fill: #888899" transform="translate(452.664062 328.970687) scale(0.1 -0.1)">
       <use xlink:href="#DejaVuSans-30"/>
       <use xlink:href="#DejaVuSans-2e" transform="translate(63.623047 0)"/>
       <use xlink:href="#DejaVuSans-31" transform="translate(95.410156 0)"/>
      </g>
     </g>
    </g>
    <g id="xtick_7">
     <g id="line2d_36">
      <path d="M 527.593403 314.37225 
L 527.593403 31.99625 
" clip-path="url(#p9a1c782d23)" style="fill: none; stroke: #1a1f2e; stroke-opacity: 0.4; stroke-width: 0.5; stroke-linecap: square"/>
     </g>
     <g id="line2d_37">
      <g>
       <use xlink:href="#m9e3df2dc02" x="527.593403" y="314.37225" style="fill: #888899; stroke: #888899; stroke-width: 0.8"/>
      </g>
     </g>
     <g id="text_21">
      <!-- 0.2 -->
      <g style="fill: #888899" transform="translate(519.64184 328.970687) scale(0.1 -0.1)">
       <use xlink:href="#DejaVuSans-30"/>
       <use xlink:href="#DejaVuSans-2e" transform="translate(63.623047 0)"/>
       <use xlink:href="#DejaVuSans-32" transform="translate(95.410156 0)"/>
      </g>
     </g>
    </g>
    <g id="xtick_8">
     <g id="line2d_38">
      <path d="M 594.571181 314.37225 
L 594.571181 31.99625 
" clip-path="url(#p9a1c782d23)" style="fill: none; stroke: #1a1f2e; stroke-opacity: 0.4; stroke-width: 0.5; stroke-linecap: square"/>
     </g>
     <g id="line2d_39">
      <g>
       <use xlink:href="#m9e3df2dc02" x="594.571181" y="314.37225" style="fill: #888899; stroke: #888899; stroke-width: 0.8"/>
      </g>
     </g>
     <g id="text_22">
      <!-- 0.3 -->
      <g style="fill: #888899" transform="translate(586.619618 328.970687) scale(0.1 -0.1)">
       <use xlink:href="#DejaVuSans-30"/>
       <use xlink:href="#DejaVuSans-2e" transform="translate(63.623047 0)"/>
       <use xlink:href="#DejaVuSans-33" transform="translate(95.410156 0)"/>
      </g>
     </g>
    </g>
    <g id="xtick_9">
     <g id="line2d_40">
      <path d="M 661.548958 314.37225 
L 661.548958 31.99625 
" clip-path="url(#p9a1c782d23)" style="fill: none; stroke: #1a1f2e; stroke-opacity: 0.4; stroke-width: 0.5; stroke-linecap: square"/>
     </g>
     <g id="line2d_41">
      <g>
       <use xlink:href="#m9e3df2dc02" x="661.548958" y="314.37225" style="fill: #888899; stroke: #888899; stroke-width: 0.8"/>
      </g>
     </g>
     <g id="text_23">
      <!-- 0.4 -->
      <g style="fill: #888899" transform="translate(653.597396 328.970687) scale(0.1 -0.1)">
       <use xlink:href="#DejaVuSans-30"/>
       <use xlink:href="#DejaVuSans-2e" transform="translate(63.623047 0)"/>
       <use xlink:href="#DejaVuSans-34" transform="translate(95.410156 0)"/>
      </g>
     </g>
    </g>
    <g id="xtick_10">
     <g id="line2d_42">
      <path d="M 728.526736 314.37225 
L 728.526736 31.99625 
" clip-path="url(#p9a1c782d23)" style="fill: none; stroke: #1a1f2e; stroke-opacity: 0.4; stroke-width: 0.5; stroke-linecap: square"/>
     </g>
     <g id="line2d_43">
      <g>
       <use xlink:href="#m9e3df2dc02" x="728.526736" y="314.37225" style="fill: #888899; stroke: #888899; stroke-width: 0.8"/>
      </g>
     </g>
     <g id="text_24">
      <!-- 0.5 -->
      <g style="fill: #888899" transform="translate(720.575174 328.970687) scale(0.1 -0.1)">
       <use xlink:href="#DejaVuSans-30"/>
       <use xlink:href="#DejaVuSans-2e" transform="translate(63.623047 0)"/>
       <use xlink:href="#DejaVuSans-35" transform="translate(95.410156 0)"/>
      </g>
     </g>
    </g>
    <g id="text_25">
     <!-- Constraint level c -->
     <g style="fill: #ccccdd" transform="translate(571.949766 341.888969) scale(0.09 -0.09)">
      <use xlink:href="#DejaVuSans-43"/>
      <use xlink:href="#DejaVuSans-6f" transform="translate(69.824219 0)"/>
      <use xlink:href="#DejaVuSans-6e" transform="translate(131.005859 0)"/>
      <use xlink:href="#DejaVuSans-73" transform="translate(194.384766 0)"/>
      <use xlink:href="#DejaVuSans-74" transform="translate(246.484375 0)"/>
      <use xlink:href="#DejaVuSans-72" transform="translate(285.693359 0)"/>
      <use xlink:href="#DejaVuSans-61" transform="translate(326.806641 0)"/>
      <use xlink:href="#DejaVuSans-69" transform="translate(388.085938 0)"/>
      <use xlink:href="#DejaVuSans-6e" transform="translate(415.869141 0)"/>
      <use xlink:href="#DejaVuSans-74" transform="translate(479.248047 0)"/>
      <use xlink:href="#DejaVuSans-20" transform="translate(518.457031 0)"/>
      <use xlink:href="#DejaVuSans-6c" transform="translate(550.244141 0)"/>
      <use xlink:href="#DejaVuSans-65" transform="translate(578.027344 0)"/>
      <use xlink:href="#DejaVuSans-76" transform="translate(639.550781 0)"/>
      <use xlink:href="#DejaVuSans-65" transform="translate(698.730469 0)"/>
      <use xlink:href="#DejaVuSans-6c" transform="translate(760.253906 0)"/>
      <use xlink:href="#DejaVuSans-20" transform="translate(788.037109 0)"/>
      <use xlink:href="#DejaVuSans-63" transform="translate(819.824219 0)"/>
     </g>
    </g>
   </g>
   <g id="matplotlib.axis_4">
    <g id="ytick_10">
     <g id="line2d_44">
      <path d="M 445.545625 301.536977 
L 777.085625 301.536977 
" clip-path="url(#p9a1c782d23)" style="fill: none; stroke: #1a1f2e; stroke-opacity: 0.4; stroke-width: 0.5; stroke-linecap: square"/>
     </g>
     <g id="line2d_45">
      <g>
       <use xlink:href="#m71a1a29da3" x="445.545625" y="301.536977" style="fill: #888899; stroke: #888899; stroke-width: 0.8"/>
      </g>
     </g>
     <g id="text_26">
      <!-- 0 -->
      <g style="fill: #888899" transform="translate(432.183125 305.336196) scale(0.1 -0.1)">
       <use xlink:href="#DejaVuSans-30"/>
      </g>
     </g>
    </g>
    <g id="ytick_11">
     <g id="line2d_46">
      <path d="M 445.545625 247.189412 
L 777.085625 247.189412 
" clip-path="url(#p9a1c782d23)" style="fill: none; stroke: #1a1f2e; stroke-opacity: 0.4; stroke-width: 0.5; stroke-linecap: square"/>
     </g>
     <g id="line2d_47">
      <g>
       <use xlink:href="#m71a1a29da3" x="445.545625" y="247.189412" style="fill: #888899; stroke: #888899; stroke-width: 0.8"/>
      </g>
     </g>
     <g id="text_27">
      <!-- 500 -->
      <g style="fill: #888899" transform="translate(419.458125 250.98863) scale(0.1 -0.1)">
       <use xlink:href="#DejaVuSans-35"/>
       <use xlink:href="#DejaVuSans-30" transform="translate(63.623047 0)"/>
       <use xlink:href="#DejaVuSans-30" transform="translate(127.246094 0)"/>
      </g>
     </g>
    </g>
    <g id="ytick_12">
     <g id="line2d_48">
      <path d="M 445.545625 192.841846 
L 777.085625 192.841846 
" clip-path="url(#p9a1c782d23)" style="fill: none; stroke: #1a1f2e; stroke-opacity: 0.4; stroke-width: 0.5; stroke-linecap: square"/>
     </g>
     <g id="line2d_49">
      <g>
       <use xlink:href="#m71a1a29da3" x="445.545625" y="192.841846" style="fill: #888899; stroke: #888899; stroke-width: 0.8"/>
      </g>
     </g>
     <g id="text_28">
      <!-- 1000 -->
      <g style="fill: #888899" transform="translate(413.095625 196.641065) scale(0.1 -0.1)">
       <use xlink:href="#DejaVuSans-31"/>
       <use xlink:href="#DejaVuSans-30" transform="translate(63.623047 0)"/>
       <use xlink:href="#DejaVuSans-30" transform="translate(127.246094 0)"/>
       <use xlink:href="#DejaVuSans-30" transform="translate(190.869141 0)"/>
      </g>
     </g>
    </g>
    <g id="ytick_13">
     <g id="line2d_50">
      <path d="M 445.545625 138.49428 
L 777.085625 138.49428 
" clip-path="url(#p9a1c782d23)" style="fill: none; stroke: #1a1f2e; stroke-opacity: 0.4; stroke-width: 0.5; stroke-linecap: square"/>
     </g>
     <g id="line2d_51">
      <g>
       <use xlink:href="#m71a1a29da3" x="445.545625" y="138.49428" style="fill: #888899; stroke: #888899; stroke-width: 0.8"/>
      </g>
     </g>
     <g id="text_29">
      <!-- 1500 -->
      <g style="fill: #888899" transform="translate(413.095625 142.293499) scale(0.1 -0.1)">
       <use xlink:href="#DejaVuSans-31"/>
       <use xlink:href="#DejaVuSans-35" transform="translate(63.623047 0)"/>
       <use xlink:href="#DejaVuSans-30" transform="translate(127.246094 0)"/>
       <use xlink:href="#DejaVuSans-30" transform="translate(190.869141 0)"/>
      </g>
     </g>
    </g>
    <g id="ytick_14">
     <g id="line2d_52">
      <path d="M 445.545625 84.146715 
L 777.085625 84.146715 
" clip-path="url(#p9a1c782d23)" style="fill: none; stroke: #1a1f2e; stroke-opacity: 0.4; stroke-width: 0.5; stroke-linecap: square"/>
     </g>
     <g id="line2d_53">
      <g>
       <use xlink:href="#m71a1a29da3" x="445.545625" y="84.146715" style="fill: #888899; stroke: #888899; stroke-width: 0.8"/>
      </g>
     </g>
     <g id="text_30">
      <!-- 2000 -->
      <g style="fill: #888899" transform="translate(413.095625 87.945934) scale(0.1 -0.1)">
       <use xlink:href="#DejaVuSans-32"/>
       <use xlink:href="#DejaVuSans-30" transform="translate(63.623047 0)"/>
       <use xlink:href="#DejaVuSans-30" transform="translate(127.246094 0)"/>
       <use xlink:href="#DejaVuSans-30" transform="translate(190.869141 0)"/>
      </g>
     </g>
    </g>
    <g id="text_31">
     <!-- ∂Δμ/∂c (sensitivity of GM ratio to constraint) -->
     <g style="fill: #ccccdd" transform="translate(407.223906 272.038) rotate(-90) scale(0.09 -0.09)">
      <defs>
       <path id="DejaVuSans-2202" d="M 1366 -91 
Q 925 -91 638 175 
Q 297 491 297 1063 
Q 297 1656 597 2119 
Q 906 2594 1463 2594 
Q 1828 2594 2116 2366 
Q 2284 2231 2400 2006 
Q 2441 2259 2441 2547 
Q 2441 2969 2341 3213 
Q 2119 3753 1531 3753 
Q 1309 3753 966 3616 
L 966 4141 
Q 1328 4238 1653 4238 
Q 2491 4238 2847 3469 
Q 3013 3106 3013 2566 
Q 3013 2213 2934 1803 
Q 2738 778 2228 291 
Q 1828 -91 1366 -91 
z
M 831 969 
Q 831 656 969 488 
Q 1116 309 1341 309 
Q 1541 309 1700 450 
Q 1925 644 2091 959 
Q 2228 1219 2297 1497 
Q 2019 2169 1538 2169 
Q 1125 2169 944 1625 
Q 831 1288 831 969 
z
" transform="scale(0.015625)"/>
       <path id="DejaVuSans-394" d="M 2188 4044 
L 906 525 
L 3472 525 
L 2188 4044 
z
M 50 0 
L 1831 4666 
L 2547 4666 
L 4325 0 
L 50 0 
z
" transform="scale(0.015625)"/>
       <path id="DejaVuSans-3bc" d="M 544 -1331 
L 544 3500 
L 1119 3500 
L 1119 1325 
Q 1119 872 1334 640 
Q 1550 409 1972 409 
Q 2434 409 2667 671 
Q 2900 934 2900 1459 
L 2900 3500 
L 3475 3500 
L 3475 806 
Q 3475 619 3529 530 
Q 3584 441 3700 441 
Q 3728 441 3778 458 
Q 3828 475 3916 513 
L 3916 50 
Q 3788 -22 3673 -56 
Q 3559 -91 3450 -91 
Q 3234 -91 3106 31 
Q 2978 153 2931 403 
Q 2775 156 2548 32 
Q 2322 -91 2016 -91 
Q 1697 -91 1473 31 
Q 1250 153 1119 397 
L 1119 -1331 
L 544 -1331 
z
" transform="scale(0.015625)"/>
       <path id="DejaVuSans-2f" d="M 1625 4666 
L 2156 4666 
L 531 -594 
L 0 -594 
L 1625 4666 
z
" transform="scale(0.015625)"/>
      </defs>
      <use xlink:href="#DejaVuSans-2202"/>
      <use xlink:href="#DejaVuSans-394" transform="translate(51.708984 0)"/>
      <use xlink:href="#DejaVuSans-3bc" transform="translate(120.117188 0)"/>
      <use xlink:href="#DejaVuSans-2f" transform="translate(183.740234 0)"/>
      <use xlink:href="#DejaVuSans-2202" transform="translate(217.431641 0)"/>
      <use xlink:href="#DejaVuSans-63" transform="translate(269.140625 0)"/>
      <use xlink:href="#DejaVuSans-20" transform="translate(324.121094 0)"/>
      <use xlink:href="#DejaVuSans-28" transform="translate(355.908203 0)"/>
      <use xlink:href="#DejaVuSans-73" transform="translate(394.921875 0)"/>
      <use xlink:href="#DejaVuSans-65" transform="translate(447.021484 0)"/>
      <use xlink:href="#DejaVuSans-6e" transform="translate(508.544922 0)"/>
      <use xlink:href="#DejaVuSans-73" transform="translate(571.923828 0)"/>
      <use xlink:href="#DejaVuSans-69" transform="translate(624.023438 0)"/>
      <use xlink:href="#DejaVuSans-74" transform="translate(651.806641 0)"/>
      <use xlink:href="#DejaVuSans-69" transform="translate(691.015625 0)"/>
      <use xlink:href="#DejaVuSans-76" transform="translate(718.798828 0)"/>
      <use xlink:href="#DejaVuSans-69" transform="translate(777.978516 0)"/>
      <use xlink:href="#DejaVuSans-74" transform="translate(805.761719 0)"/>
      <use xlink:href="#DejaVuSans-79" transform="translate(844.970703 0)"/>
      <use xlink:href="#DejaVuSans-20" transform="translate(904.150391 0)"/>
      <use xlink:href="#DejaVuSans-6f" transform="translate(935.9375 0)"/>
      <use xlink:href="#DejaVuSans-66" transform="translate(997.119141 0)"/>
      <use xlink:href="#DejaVuSans-20" transform="translate(1032.324219 0)"/>
      <use xlink:href="#DejaVuSans-47" transform="translate(1064.111328 0)"/>
      <use xlink:href="#DejaVuSans-4d" transform="translate(1141.601562 0)"/>
      <use xlink:href="#DejaVuSans-20" transform="translate(1227.880859 0)"/>
      <use xlink:href="#DejaVuSans-72" transform="translate(1259.667969 0)"/>
      <use xlink:href="#DejaVuSans-61" transform="translate(1300.78125 0)"/>
      <use xlink:href="#DejaVuSans-74" transform="translate(1362.060547 0)"/>
      <use xlink:href="#DejaVuSans-69" transform="translate(1401.269531 0)"/>
      <use xlink:href="#DejaVuSans-6f" transform="translate(1429.052734 0)"/>
      <use xlink:href="#DejaVuSans-20" transform="translate(1490.234375 0)"/>
      <use xlink:href="#DejaVuSans-74" transform="translate(1522.021484 0)"/>
      <use xlink:href="#DejaVuSans-6f" transform="translate(1561.230469 0)"/>
      <use xlink:href="#DejaVuSans-20" transform="translate(1622.412109 0)"/>
      <use xlink:href="#DejaVuSans-63" transform="translate(1654.199219 0)"/>
      <use xlink:href="#DejaVuSans-6f" transform="translate(1709.179688 0)"/>
      <use xlink:href="#DejaVuSans-6e" transform="translate(1770.361328 0)"/>
      <use xlink:href="#DejaVuSans-73" transform="translate(1833.740234 0)"/>
      <use xlink:href="#DejaVuSans-74" transform="translate(1885.839844 0)"/>
      <use xlink:href="#DejaVuSans-72" transform="translate(1925.048828 0)"/>
      <use xlink:href="#DejaVuSans-61" transform="translate(1966.162109 0)"/>
      <use xlink:href="#DejaVuSans-69" transform="translate(2027.441406 0)"/>
      <use xlink:href="#DejaVuSans-6e" transform="translate(2055.224609 0)"/>
      <use xlink:href="#DejaVuSans-74" transform="translate(2118.603516 0)"/>
      <use xlink:href="#DejaVuSans-29" transform="translate(2157.8125 0)"/>
     </g>
    </g>
   </g>
   <g id="line2d_54">
    <path d="M 460.615625 44.831523 
L 466.658733 53.540827 
L 472.701841 61.843436 
L 478.744948 69.752965 
L 484.788056 77.282385 
L 490.831164 84.444045 
L 496.874272 91.249688 
L 502.917379 97.710476 
L 508.960487 103.837003 
L 515.003595 109.639317 
L 521.046703 115.126933 
L 527.08981 120.30885 
L 533.132918 125.193567 
L 539.176026 129.789093 
L 545.219134 134.102966 
L 551.262242 138.142259 
L 557.305349 141.913597 
L 563.348457 145.423165 
L 569.391565 148.676717 
L 575.434673 151.67959 
L 581.47778 154.436708 
L 587.520888 156.952592 
L 593.563996 159.231368 
L 599.607104 161.276774 
L 605.650211 163.092164 
L 611.693319 164.680514 
L 617.736427 166.04443 
L 623.779535 167.186148 
L 629.822643 168.107541 
L 635.86575 168.810119 
L 641.908858 169.295035 
L 647.951966 169.563084 
L 653.995074 169.614706 
L 660.038181 169.449985 
L 666.081289 169.068651 
L 672.124397 168.470078 
L 678.167505 167.653286 
L 684.210612 166.616935 
L 690.25372 165.359324 
L 696.296828 163.878393 
L 702.339936 162.171711 
L 708.383044 160.236481 
L 714.426151 158.069528 
L 720.469259 155.6673 
L 726.512367 153.025856 
L 732.555475 150.140864 
L 738.598582 147.007595 
L 744.64169 143.620908 
L 750.684798 139.975251 
L 756.727906 136.064645 
L 762.015625 132.420492 
L 762.015625 132.420492 
" clip-path="url(#p9a1c782d23)" style="fill: none; stroke: #ff6688; stroke-width: 2; stroke-linecap: square"/>
   </g>
   <g id="line2d_55">
    <path d="M 445.545625 301.536977 
L 777.085625 301.536977 
" clip-path="url(#p9a1c782d23)" style="fill: none; stroke-dasharray: 2.96,1.28; stroke-dashoffset: 0; stroke: #ffffff; stroke-opacity: 0.3; stroke-width: 0.8"/>
   </g>
   <g id="line2d_56">
    <path d="M 652.415625 314.37225 
L 652.415625 31.99625 
" clip-path="url(#p9a1c782d23)" style="fill: none; stroke-dasharray: 0.8,1.32; stroke-dashoffset: 0; stroke: #ffffff; stroke-opacity: 0.4; stroke-width: 0.8"/>
   </g>
   <g id="patch_10">
    <path d="M 445.545625 314.37225 
L 445.545625 31.99625 
" style="fill: none; stroke: #333344; stroke-width: 0.8; stroke-linejoin: miter; stroke-linecap: square"/>
   </g>
   <g id="patch_11">
    <path d="M 777.085625 314.37225 
L 777.085625 31.99625 
" style="fill: none; stroke: #333344; stroke-width: 0.8; stroke-linejoin: miter; stroke-linecap: square"/>
   </g>
   <g id="patch_12">
    <path d="M 445.545625 314.37225 
L 777.085625 314.37225 
" style="fill: none; stroke: #333344; stroke-width: 0.8; stroke-linejoin: miter; stroke-linecap: square"/>
   </g>
   <g id="patch_13">
    <path d="M 445.545625 31.99625 
L 777.085625 31.99625 
" style="fill: none; stroke: #333344; stroke-width: 0.8; stroke-linejoin: miter; stroke-linecap: square"/>
   </g>
   <g id="text_32">
    <g id="patch_14">
     <path d="M 594.571181 336.621082 
L 698.221181 336.621082 
Q 700.471181 336.621082 700.471181 334.371082 
L 700.471181 301.91741 
Q 700.471181 299.66741 698.221181 299.66741 
L 594.571181 299.66741 
Q 592.321181 299.66741 592.321181 301.91741 
L 592.321181 334.371082 
Q 592.321181 336.621082 594.571181 336.621082 
z
" style="fill: #111111; opacity: 0.85; stroke: #ffd700; stroke-linejoin: miter"/>
    </g>
    <!-- At ETH (c=0.383): -->
    <g style="fill: #ffd700" transform="translate(594.571181 307.616238) scale(0.075 -0.075)">
     <defs>
      <path id="DejaVuSans-41" d="M 2188 4044 
L 1331 1722 
L 3047 1722 
L 2188 4044 
z
M 1831 4666 
L 2547 4666 
L 4325 0 
L 3669 0 
L 3244 1197 
L 1141 1197 
L 716 0 
L 50 0 
L 1831 4666 
z
" transform="scale(0.015625)"/>
      <path id="DejaVuSans-3a" d="M 750 794 
L 1409 794 
L 1409 0 
L 750 0 
L 750 794 
z
M 750 3309 
L 1409 3309 
L 1409 2516 
L 750 2516 
L 750 3309 
z
" transform="scale(0.015625)"/>
     </defs>
     <use xlink:href="#DejaVuSans-41"/>
     <use xlink:href="#DejaVuSans-74" transform="translate(66.658203 0)"/>
     <use xlink:href="#DejaVuSans-20" transform="translate(105.867188 0)"/>
     <use xlink:href="#DejaVuSans-45" transform="translate(137.654297 0)"/>
     <use xlink:href="#DejaVuSans-54" transform="translate(200.837891 0)"/>
     <use xlink:href="#DejaVuSans-48" transform="translate(261.921875 0)"/>
     <use xlink:href="#DejaVuSans-20" transform="translate(337.117188 0)"/>
     <use xlink:href="#DejaVuSans-28" transform="translate(368.904297 0)"/>
     <use xlink:href="#DejaVuSans-63" transform="translate(407.917969 0)"/>
     <use xlink:href="#DejaVuSans-3d" transform="translate(462.898438 0)"/>
     <use xlink:href="#DejaVuSans-30" transform="translate(546.6875 0)"/>
     <use xlink:href="#DejaVuSans-2e" transform="translate(610.310547 0)"/>
     <use xlink:href="#DejaVuSans-33" transform="translate(642.097656 0)"/>
     <use xlink:href="#DejaVuSans-38" transform="translate(705.720703 0)"/>
     <use xlink:href="#DejaVuSans-33" transform="translate(769.34375 0)"/>
     <use xlink:href="#DejaVuSans-29" transform="translate(832.966797 0)"/>
     <use xlink:href="#DejaVuSans-3a" transform="translate(871.980469 0)"/>
    </g>
    <!-- ∂Δμ/∂c ≈ 1213.761 -->
    <g style="fill: #ffd700" transform="translate(594.571181 316.014598) scale(0.075 -0.075)">
     <defs>
      <path id="DejaVuSans-2248" d="M 4684 1947 
L 4684 1388 
Q 4356 1144 4076 1036 
Q 3797 928 3494 928 
Q 3150 928 2694 1113 
Q 2663 1125 2641 1134 
Q 2622 1141 2575 1159 
Q 2091 1350 1797 1350 
Q 1522 1350 1253 1231 
Q 984 1113 678 850 
L 678 1409 
Q 1006 1653 1286 1761 
Q 1566 1869 1869 1869 
Q 2213 1869 2672 1684 
Q 2706 1669 2722 1663 
Q 2741 1656 2788 1638 
Q 3272 1447 3566 1447 
Q 3834 1447 4098 1564 
Q 4363 1681 4684 1947 
z
M 4684 3163 
L 4684 2606 
Q 4356 2359 4076 2251 
Q 3797 2144 3494 2144 
Q 3150 2144 2694 2328 
Q 2663 2341 2641 2350 
Q 2622 2356 2575 2375 
Q 2091 2566 1797 2566 
Q 1522 2566 1253 2447 
Q 984 2328 678 2069 
L 678 2625 
Q 1006 2869 1286 2976 
Q 1566 3084 1869 3084 
Q 2213 3084 2672 2900 
Q 2703 2888 2719 2881 
Q 2741 2872 2788 2853 
Q 3272 2663 3566 2663 
Q 3834 2663 4098 2780 
Q 4363 2897 4684 3163 
z
" transform="scale(0.015625)"/>
      <path id="DejaVuSans-37" d="M 525 4666 
L 3525 4666 
L 3525 4397 
L 1831 0 
L 1172 0 
L 2766 4134 
L 525 4134 
L 525 4666 
z
" transform="scale(0.015625)"/>
     </defs>
     <use xlink:href="#DejaVuSans-2202"/>
     <use xlink:href="#DejaVuSans-394" transform="translate(51.708984 0)"/>
     <use xlink:href="#DejaVuSans-3bc" transform="translate(120.117188 0)"/>
     <use xlink:href="#DejaVuSans-2f" transform="translate(183.740234 0)"/>
     <use xlink:href="#DejaVuSans-2202" transform="translate(217.431641 0)"/>
     <use xlink:href="#DejaVuSans-63" transform="translate(269.140625 0)"/>
     <use xlink:href="#DejaVuSans-20" transform="translate(324.121094 0)"/>
     <use xlink:href="#DejaVuSans-2248" transform="translate(355.908203 0)"/>
     <use xlink:href="#DejaVuSans-20" transform="translate(439.697266 0)"/>
     <use xlink:href="#DejaVuSans-31" transform="translate(471.484375 0)"/>
     <use xlink:href="#DejaVuSans-32" transform="translate(535.107422 0)"/>
     <use xlink:href="#DejaVuSans-31" transform="translate(598.730469 0)"/>
     <use xlink:href="#DejaVuSans-33" transform="translate(662.353516 0)"/>
     <use xlink:href="#DejaVuSans-2e" transform="translate(725.976562 0)"/>
     <use xlink:href="#DejaVuSans-37" transform="translate(757.763672 0)"/>
     <use xlink:href="#DejaVuSans-36" transform="translate(821.386719 0)"/>
     <use xlink:href="#DejaVuSans-31" transform="translate(885.009766 0)"/>
    </g>
    <!-- → 1pp relaxation in c -->
    <g style="fill: #ffd700" transform="translate(594.571181 324.412957) scale(0.075 -0.075)">
     <defs>
      <path id="DejaVuSans-2192" d="M 5050 2147 
L 5050 1866 
L 3822 638 
L 3447 1013 
L 4175 1741 
L 366 1741 
L 366 2272 
L 4175 2272 
L 3447 3000 
L 3822 3375 
L 5050 2147 
z
" transform="scale(0.015625)"/>
     </defs>
     <use xlink:href="#DejaVuSans-2192"/>
     <use xlink:href="#DejaVuSans-20" transform="translate(83.789062 0)"/>
     <use xlink:href="#DejaVuSans-31" transform="translate(115.576172 0)"/>
     <use xlink:href="#DejaVuSans-70" transform="translate(179.199219 0)"/>
     <use xlink:href="#DejaVuSans-70" transform="translate(242.675781 0)"/>
     <use xlink:href="#DejaVuSans-20" transform="translate(306.152344 0)"/>
     <use xlink:href="#DejaVuSans-72" transform="translate(337.939453 0)"/>
     <use xlink:href="#DejaVuSans-65" transform="translate(376.802734 0)"/>
     <use xlink:href="#DejaVuSans-6c" transform="translate(438.326172 0)"/>
     <use xlink:href="#DejaVuSans-61" transform="translate(466.109375 0)"/>
     <use xlink:href="#DejaVuSans-78" transform="translate(527.388672 0)"/>
     <use xlink:href="#DejaVuSans-61" transform="translate(586.568359 0)"/>
     <use xlink:href="#DejaVuSans-74" transform="translate(647.847656 0)"/>
     <use xlink:href="#DejaVuSans-69" transform="translate(687.056641 0)"/>
     <use xlink:href="#DejaVuSans-6f" transform="translate(714.839844 0)"/>
     <use xlink:href="#DejaVuSans-6e" transform="translate(776.021484 0)"/>
     <use xlink:href="#DejaVuSans-20" transform="translate(839.400391 0)"/>
     <use xlink:href="#DejaVuSans-69" transform="translate(871.1875 0)"/>
     <use xlink:href="#DejaVuSans-6e" transform="translate(898.970703 0)"/>
     <use xlink:href="#DejaVuSans-20" transform="translate(962.349609 0)"/>
     <use xlink:href="#DejaVuSans-63" transform="translate(994.136719 0)"/>
    </g>
    <!-- → 1213.8% shift in log-ratio -->
    <g style="fill: #ffd700" transform="translate(594.571181 332.811316) scale(0.075 -0.075)">
     <defs>
      <path id="DejaVuSans-25" d="M 4653 2053 
Q 4381 2053 4226 1822 
Q 4072 1591 4072 1178 
Q 4072 772 4226 539 
Q 4381 306 4653 306 
Q 4919 306 5073 539 
Q 5228 772 5228 1178 
Q 5228 1588 5073 1820 
Q 4919 2053 4653 2053 
z
M 4653 2450 
Q 5147 2450 5437 2106 
Q 5728 1763 5728 1178 
Q 5728 594 5436 251 
Q 5144 -91 4653 -91 
Q 4153 -91 3862 251 
Q 3572 594 3572 1178 
Q 3572 1766 3864 2108 
Q 4156 2450 4653 2450 
z
M 1428 4353 
Q 1159 4353 1004 4120 
Q 850 3888 850 3481 
Q 850 3069 1003 2837 
Q 1156 2606 1428 2606 
Q 1700 2606 1854 2837 
Q 2009 3069 2009 3481 
Q 2009 3884 1853 4118 
Q 1697 4353 1428 4353 
z
M 4250 4750 
L 4750 4750 
L 1831 -91 
L 1331 -91 
L 4250 4750 
z
M 1428 4750 
Q 1922 4750 2215 4408 
Q 2509 4066 2509 3481 
Q 2509 2891 2217 2550 
Q 1925 2209 1428 2209 
Q 931 2209 642 2551 
Q 353 2894 353 3481 
Q 353 4063 643 4406 
Q 934 4750 1428 4750 
z
" transform="scale(0.015625)"/>
     </defs>
     <use xlink:href="#DejaVuSans-2192"/>
     <use xlink:href="#DejaVuSans-20" transform="translate(83.789062 0)"/>
     <use xlink:href="#DejaVuSans-31" transform="translate(115.576172 0)"/>
     <use xlink:href="#DejaVuSans-32" transform="translate(179.199219 0)"/>
     <use xlink:href="#DejaVuSans-31" transform="translate(242.822266 0)"/>
     <use xlink:href="#DejaVuSans-33" transform="translate(306.445312 0)"/>
     <use xlink:href="#DejaVuSans-2e" transform="translate(370.068359 0)"/>
     <use xlink:href="#DejaVuSans-38" transform="translate(401.855469 0)"/>
     <use xlink:href="#DejaVuSans-25" transform="translate(465.478516 0)"/>
     <use xlink:href="#DejaVuSans-20" transform="translate(560.498047 0)"/>
     <use xlink:href="#DejaVuSans-73" transform="translate(592.285156 0)"/>
     <use xlink:href="#DejaVuSans-68" transform="translate(644.384766 0)"/>
     <use xlink:href="#DejaVuSans-69" transform="translate(707.763672 0)"/>
     <use xlink:href="#DejaVuSans-66" transform="translate(735.546875 0)"/>
     <use xlink:href="#DejaVuSans-74" transform="translate(769.001953 0)"/>
     <use xlink:href="#DejaVuSans-20" transform="translate(808.210938 0)"/>
     <use xlink:href="#DejaVuSans-69" transform="translate(839.998047 0)"/>
     <use xlink:href="#DejaVuSans-6e" transform="translate(867.78125 0)"/>
     <use xlink:href="#DejaVuSans-20" transform="translate(931.160156 0)"/>
     <use xlink:href="#DejaVuSans-6c" transform="translate(962.947266 0)"/>
     <use xlink:href="#DejaVuSans-6f" transform="translate(990.730469 0)"/>
     <use xlink:href="#DejaVuSans-67" transform="translate(1051.912109 0)"/>
     <use xlink:href="#DejaVuSans-2d" transform="translate(1115.388672 0)"/>
     <use xlink:href="#DejaVuSans-72" transform="translate(1151.472656 0)"/>
     <use xlink:href="#DejaVuSans-61" transform="translate(1192.585938 0)"/>
     <use xlink:href="#DejaVuSans-74" transform="translate(1253.865234 0)"/>
     <use xlink:href="#DejaVuSans-69" transform="translate(1293.074219 0)"/>
     <use xlink:href="#DejaVuSans-6f" transform="translate(1320.857422 0)"/>
    </g>
   </g>
   <g id="text_33">
    <!-- GM Ratio Sensitivity -->
    <g style="fill: #ccccdd" transform="translate(561.084375 14.798437) scale(0.1 -0.1)">
     <defs>
      <path id="DejaVuSans-53" d="M 3425 4513 
L 3425 3897 
Q 3066 4069 2747 4153 
Q 2428 4238 2131 4238 
Q 1616 4238 1336 4038 
Q 1056 3838 1056 3469 
Q 1056 3159 1242 3001 
Q 1428 2844 1947 2747 
L 2328 2669 
Q 3034 2534 3370 2195 
Q 3706 1856 3706 1288 
Q 3706 609 3251 259 
Q 2797 -91 1919 -91 
Q 1588 -91 1214 -16 
Q 841 59 441 206 
L 441 856 
Q 825 641 1194 531 
Q 1563 422 1919 422 
Q 2459 422 2753 634 
Q 3047 847 3047 1241 
Q 3047 1584 2836 1778 
Q 2625 1972 2144 2069 
L 1759 2144 
Q 1053 2284 737 2584 
Q 422 2884 422 3419 
Q 422 4038 858 4394 
Q 1294 4750 2059 4750 
Q 2388 4750 2728 4690 
Q 3069 4631 3425 4513 
z
" transform="scale(0.015625)"/>
     </defs>
     <use xlink:href="#DejaVuSans-47"/>
     <use xlink:href="#DejaVuSans-4d" transform="translate(77.490234 0)"/>
     <use xlink:href="#DejaVuSans-20" transform="translate(163.769531 0)"/>
     <use xlink:href="#DejaVuSans-52" transform="translate(195.556641 0)"/>
     <use xlink:href="#DejaVuSans-61" transform="translate(262.789062 0)"/>
     <use xlink:href="#DejaVuSans-74" transform="translate(324.068359 0)"/>
     <use xlink:href="#DejaVuSans-69" transform="translate(363.277344 0)"/>
     <use xlink:href="#DejaVuSans-6f" transform="translate(391.060547 0)"/>
     <use xlink:href="#DejaVuSans-20" transform="translate(452.242188 0)"/>
     <use xlink:href="#DejaVuSans-53" transform="translate(484.029297 0)"/>
     <use xlink:href="#DejaVuSans-65" transform="translate(547.505859 0)"/>
     <use xlink:href="#DejaVuSans-6e" transform="translate(609.029297 0)"/>
     <use xlink:href="#DejaVuSans-73" transform="translate(672.408203 0)"/>
     <use xlink:href="#DejaVuSans-69" transform="translate(724.507812 0)"/>
     <use xlink:href="#DejaVuSans-74" transform="translate(752.291016 0)"/>
     <use xlink:href="#DejaVuSans-69" transform="translate(791.5 0)"/>
     <use xlink:href="#DejaVuSans-76" transform="translate(819.283203 0)"/>
     <use xlink:href="#DejaVuSans-69" transform="translate(878.462891 0)"/>
     <use xlink:href="#DejaVuSans-74" transform="translate(906.246094 0)"/>
     <use xlink:href="#DejaVuSans-79" transform="translate(945.455078 0)"/>
    </g>
    <!-- dΔμ/dc = η·τ × dPe/dc -->
    <g style="fill: #ccccdd" transform="translate(554.735937 25.99625) scale(0.1 -0.1)">
     <defs>
      <path id="DejaVuSans-50" d="M 1259 4147 
L 1259 2394 
L 2053 2394 
Q 2494 2394 2734 2622 
Q 2975 2850 2975 3272 
Q 2975 3691 2734 3919 
Q 2494 4147 2053 4147 
L 1259 4147 
z
M 628 4666 
L 2053 4666 
Q 2838 4666 3239 4311 
Q 3641 3956 3641 3272 
Q 3641 2581 3239 2228 
Q 2838 1875 2053 1875 
L 1259 1875 
L 1259 0 
L 628 0 
L 628 4666 
z
" transform="scale(0.015625)"/>
     </defs>
     <use xlink:href="#DejaVuSans-64"/>
     <use xlink:href="#DejaVuSans-394" transform="translate(63.476562 0)"/>
     <use xlink:href="#DejaVuSans-3bc" transform="translate(131.884766 0)"/>
     <use xlink:href="#DejaVuSans-2f" transform="translate(195.507812 0)"/>
     <use xlink:href="#DejaVuSans-64" transform="translate(229.199219 0)"/>
     <use xlink:href="#DejaVuSans-63" transform="translate(292.675781 0)"/>
     <use xlink:href="#DejaVuSans-20" transform="translate(347.65625 0)"/>
     <use xlink:href="#DejaVuSans-3d" transform="translate(379.443359 0)"/>
     <use xlink:href="#DejaVuSans-20" transform="translate(463.232422 0)"/>
     <use xlink:href="#DejaVuSans-3b7" transform="translate(495.019531 0)"/>
     <use xlink:href="#DejaVuSans-b7" transform="translate(558.398438 0)"/>
     <use xlink:href="#DejaVuSans-3c4" transform="translate(590.185547 0)"/>
     <use xlink:href="#DejaVuSans-20" transform="translate(650.390625 0)"/>
     <use xlink:href="#DejaVuSans-d7" transform="translate(682.177734 0)"/>
     <use xlink:href="#DejaVuSans-20" transform="translate(765.966797 0)"/>
     <use xlink:href="#DejaVuSans-64" transform="translate(797.753906 0)"/>
     <use xlink:href="#DejaVuSans-50" transform="translate(861.230469 0)"/>
     <use xlink:href="#DejaVuSans-65" transform="translate(917.908203 0)"/>
     <use xlink:href="#DejaVuSans-2f" transform="translate(979.431641 0)"/>
     <use xlink:href="#DejaVuSans-64" transform="translate(1013.123047 0)"/>
     <use xlink:href="#DejaVuSans-63" transform="translate(1076.599609 0)"/>
    </g>
   </g>
   <g id="legend_2">
    <g id="patch_15">
     <path d="M 451.145625 180.2555 
L 573.830625 180.2555 
Q 575.430625 180.2555 575.430625 178.6555 
L 575.430625 167.713 
Q 575.430625 166.113 573.830625 166.113 
L 451.145625 166.113 
Q 449.545625 166.113 449.545625 167.713 
L 449.545625 178.6555 
Q 449.545625 180.2555 451.145625 180.2555 
z
" style="fill: #060810; opacity: 0.25; stroke: #cccccc; stroke-linejoin: miter"/>
    </g>
    <g id="PathCollection_2">
     <g>
      <use xlink:href="#m094fcb338b" x="460.745625" y="173.29175" style="fill: #ffd700; stroke: #ffd700"/>
     </g>
    </g>
    <g id="text_34">
     <!-- ETH: ∂Δμ/∂c = 1213.761 -->
     <g style="fill: #ccccdd" transform="translate(475.145625 175.39175) scale(0.08 -0.08)">
      <use xlink:href="#DejaVuSans-45"/>
      <use xlink:href="#DejaVuSans-54" transform="translate(63.183594 0)"/>
      <use xlink:href="#DejaVuSans-48" transform="translate(124.267578 0)"/>
      <use xlink:href="#DejaVuSans-3a" transform="translate(199.462891 0)"/>
      <use xlink:href="#DejaVuSans-20" transform="translate(233.154297 0)"/>
      <use xlink:href="#DejaVuSans-2202" transform="translate(264.941406 0)"/>
      <use xlink:href="#DejaVuSans-394" transform="translate(316.650391 0)"/>
      <use xlink:href="#DejaVuSans-3bc" transform="translate(385.058594 0)"/>
      <use xlink:href="#DejaVuSans-2f" transform="translate(448.681641 0)"/>
      <use xlink:href="#DejaVuSans-2202" transform="translate(482.373047 0)"/>
      <use xlink:href="#DejaVuSans-63" transform="translate(534.082031 0)"/>
      <use xlink:href="#DejaVuSans-20" transform="translate(589.0625 0)"/>
      <use xlink:href="#DejaVuSans-3d" transform="translate(620.849609 0)"/>
      <use xlink:href="#DejaVuSans-20" transform="translate(704.638672 0)"/>
      <use xlink:href="#DejaVuSans-31" transform="translate(736.425781 0)"/>
      <use xlink:href="#DejaVuSans-32" transform="translate(800.048828 0)"/>
      <use xlink:href="#DejaVuSans-31" transform="translate(863.671875 0)"/>
      <use xlink:href="#DejaVuSans-33" transform="translate(927.294922 0)"/>
      <use xlink:href="#DejaVuSans-2e" transform="translate(990.917969 0)"/>
      <use xlink:href="#DejaVuSans-37" transform="translate(1022.705078 0)"/>
      <use xlink:href="#DejaVuSans-36" transform="translate(1086.328125 0)"/>
      <use xlink:href="#DejaVuSans-31" transform="translate(1149.951172 0)"/>
     </g>
    </g>
   </g>
   <g id="PathCollection_3">
    <g clip-path="url(#p9a1c782d23)">
     <use xlink:href="#m094fcb338b" x="650.162736" y="169.607062" style="fill: #ffd700; stroke: #ffd700"/>
    </g>
   </g>
  </g>
 </g>
 <defs>
  <clipPath id="p25ebde967b">
   <rect x="57.555625" y="31.99625" width="331.54" height="282.376"/>
  </clipPath>
  <clipPath id="p9a1c782d23">
   <rect x="445.545625" y="31.99625" width="331.54" height="282.376"/>
  </clipPath>
 </defs>
</svg>
