<?xml version="1.0" encoding="utf-8" standalone="no"?>
<!DOCTYPE svg PUBLIC "-//W3C//DTD SVG 1.1//EN"
  "http://www.w3.org/Graphics/SVG/1.1/DTD/svg11.dtd">
<svg xmlns:xlink="http://www.w3.org/1999/xlink" width="712.46125pt" height="394.234375pt" viewBox="0 0 712.46125 394.234375" xmlns="http://www.w3.org/2000/svg" version="1.1">
 <metadata>
  <rdf:RDF xmlns:dc="http://purl.org/dc/elements/1.1/" xmlns:cc="http://creativecommons.org/ns#" xmlns:rdf="http://www.w3.org/1999/02/22-rdf-syntax-ns#">
   <cc:Work>
    <dc:type rdf:resource="http://purl.org/dc/dcmitype/StillImage"/>
    <dc:date>2026-02-22T05:33:53.439671</dc:date>
    <dc:format>image/svg+xml</dc:format>
    <dc:creator>
     <cc:Agent>
      <dc:title>Matplotlib v3.10.8, https://matplotlib.org/</dc:title>
     </cc:Agent>
    </dc:creator>
   </cc:Work>
  </rdf:RDF>
 </metadata>
 <defs>
  <style type="text/css">*{stroke-linejoin: round; stroke-linecap: butt}</style>
 </defs>
 <g id="figure_1">
  <g id="patch_1">
   <path d="M 0 394.234375 
L 712.46125 394.234375 
L 712.46125 0 
L 0 0 
z
" style="fill: #060810"/>
  </g>
  <g id="axes_1">
   <g id="patch_2">
    <path d="M 43.78125 356.678125 
L 705.26125 356.678125 
L 705.26125 28.318125 
L 43.78125 28.318125 
z
" style="fill: #060810"/>
   </g>
   <g id="patch_3">
    <path d="M 71.342917 356.678125 
L 465.975871 356.678125 
L 465.975871 28.318125 
L 71.342917 28.318125 
z
" clip-path="url(#p9251f0b6db)" style="fill: #ff4444; opacity: 0.08; stroke: #ff4444; stroke-linejoin: miter"/>
   </g>
   <g id="patch_4">
    <path d="M 465.975871 356.678125 
L 691.480417 356.678125 
L 691.480417 28.318125 
L 465.975871 28.318125 
z
" clip-path="url(#p9251f0b6db)" style="fill: #4488ff; opacity: 0.06; stroke: #4488ff; stroke-linejoin: miter"/>
   </g>
   <g id="matplotlib.axis_1">
    <g id="xtick_1">
     <g id="line2d_1">
      <path d="M 71.342917 356.678125 
L 71.342917 28.318125 
" clip-path="url(#p9251f0b6db)" style="fill: none; stroke: #1a1f2e; stroke-opacity: 0.4; stroke-width: 0.5; stroke-linecap: square"/>
     </g>
     <g id="line2d_2">
      <defs>
       <path id="m0aacdc9ccd" d="M 0 0 
L 0 3.5 
" style="stroke: #888899; stroke-width: 0.8"/>
      </defs>
      <g>
       <use xlink:href="#m0aacdc9ccd" x="71.342917" y="356.678125" style="fill: #888899; stroke: #888899; stroke-width: 0.8"/>
      </g>
     </g>
     <g id="text_1">
      <!-- 0.1 -->
      <g style="fill: #888899" transform="translate(63.391354 371.276563) scale(0.1 -0.1)">
       <defs>
        <path id="DejaVuSans-30" d="M 2034 4250 
Q 1547 4250 1301 3770 
Q 1056 3291 1056 2328 
Q 1056 1369 1301 889 
Q 1547 409 2034 409 
Q 2525 409 2770 889 
Q 3016 1369 3016 2328 
Q 3016 3291 2770 3770 
Q 2525 4250 2034 4250 
z
M 2034 4750 
Q 2819 4750 3233 4129 
Q 3647 3509 3647 2328 
Q 3647 1150 3233 529 
Q 2819 -91 2034 -91 
Q 1250 -91 836 529 
Q 422 1150 422 2328 
Q 422 3509 836 4129 
Q 1250 4750 2034 4750 
z
" transform="scale(0.015625)"/>
        <path id="DejaVuSans-2e" d="M 684 794 
L 1344 794 
L 1344 0 
L 684 0 
L 684 794 
z
" transform="scale(0.015625)"/>
        <path id="DejaVuSans-31" d="M 794 531 
L 1825 531 
L 1825 4091 
L 703 3866 
L 703 4441 
L 1819 4666 
L 2450 4666 
L 2450 531 
L 3481 531 
L 3481 0 
L 794 0 
L 794 531 
z
" transform="scale(0.015625)"/>
       </defs>
       <use xlink:href="#DejaVuSans-30"/>
       <use xlink:href="#DejaVuSans-2e" transform="translate(63.623047 0)"/>
       <use xlink:href="#DejaVuSans-31" transform="translate(95.410156 0)"/>
      </g>
     </g>
    </g>
    <g id="xtick_2">
     <g id="line2d_3">
      <path d="M 209.15125 356.678125 
L 209.15125 28.318125 
" clip-path="url(#p9251f0b6db)" style="fill: none; stroke: #1a1f2e; stroke-opacity: 0.4; stroke-width: 0.5; stroke-linecap: square"/>
     </g>
     <g id="line2d_4">
      <g>
       <use xlink:href="#m0aacdc9ccd" x="209.15125" y="356.678125" style="fill: #888899; stroke: #888899; stroke-width: 0.8"/>
      </g>
     </g>
     <g id="text_2">
      <!-- 0.2 -->
      <g style="fill: #888899" transform="translate(201.199688 371.276563) scale(0.1 -0.1)">
       <defs>
        <path id="DejaVuSans-32" d="M 1228 531 
L 3431 531 
L 3431 0 
L 469 0 
L 469 531 
Q 828 903 1448 1529 
Q 2069 2156 2228 2338 
Q 2531 2678 2651 2914 
Q 2772 3150 2772 3378 
Q 2772 3750 2511 3984 
Q 2250 4219 1831 4219 
Q 1534 4219 1204 4116 
Q 875 4013 500 3803 
L 500 4441 
Q 881 4594 1212 4672 
Q 1544 4750 1819 4750 
Q 2544 4750 2975 4387 
Q 3406 4025 3406 3419 
Q 3406 3131 3298 2873 
Q 3191 2616 2906 2266 
Q 2828 2175 2409 1742 
Q 1991 1309 1228 531 
z
" transform="scale(0.015625)"/>
       </defs>
       <use xlink:href="#DejaVuSans-30"/>
       <use xlink:href="#DejaVuSans-2e" transform="translate(63.623047 0)"/>
       <use xlink:href="#DejaVuSans-32" transform="translate(95.410156 0)"/>
      </g>
     </g>
    </g>
    <g id="xtick_3">
     <g id="line2d_5">
      <path d="M 346.959583 356.678125 
L 346.959583 28.318125 
" clip-path="url(#p9251f0b6db)" style="fill: none; stroke: #1a1f2e; stroke-opacity: 0.4; stroke-width: 0.5; stroke-linecap: square"/>
     </g>
     <g id="line2d_6">
      <g>
       <use xlink:href="#m0aacdc9ccd" x="346.959583" y="356.678125" style="fill: #888899; stroke: #888899; stroke-width: 0.8"/>
      </g>
     </g>
     <g id="text_3">
      <!-- 0.3 -->
      <g style="fill: #888899" transform="translate(339.008021 371.276563) scale(0.1 -0.1)">
       <defs>
        <path id="DejaVuSans-33" d="M 2597 2516 
Q 3050 2419 3304 2112 
Q 3559 1806 3559 1356 
Q 3559 666 3084 287 
Q 2609 -91 1734 -91 
Q 1441 -91 1130 -33 
Q 819 25 488 141 
L 488 750 
Q 750 597 1062 519 
Q 1375 441 1716 441 
Q 2309 441 2620 675 
Q 2931 909 2931 1356 
Q 2931 1769 2642 2001 
Q 2353 2234 1838 2234 
L 1294 2234 
L 1294 2753 
L 1863 2753 
Q 2328 2753 2575 2939 
Q 2822 3125 2822 3475 
Q 2822 3834 2567 4026 
Q 2313 4219 1838 4219 
Q 1578 4219 1281 4162 
Q 984 4106 628 3988 
L 628 4550 
Q 988 4650 1302 4700 
Q 1616 4750 1894 4750 
Q 2613 4750 3031 4423 
Q 3450 4097 3450 3541 
Q 3450 3153 3228 2886 
Q 3006 2619 2597 2516 
z
" transform="scale(0.015625)"/>
       </defs>
       <use xlink:href="#DejaVuSans-30"/>
       <use xlink:href="#DejaVuSans-2e" transform="translate(63.623047 0)"/>
       <use xlink:href="#DejaVuSans-33" transform="translate(95.410156 0)"/>
      </g>
     </g>
    </g>
    <g id="xtick_4">
     <g id="line2d_7">
      <path d="M 484.767917 356.678125 
L 484.767917 28.318125 
" clip-path="url(#p9251f0b6db)" style="fill: none; stroke: #1a1f2e; stroke-opacity: 0.4; stroke-width: 0.5; stroke-linecap: square"/>
     </g>
     <g id="line2d_8">
      <g>
       <use xlink:href="#m0aacdc9ccd" x="484.767917" y="356.678125" style="fill: #888899; stroke: #888899; stroke-width: 0.8"/>
      </g>
     </g>
     <g id="text_4">
      <!-- 0.4 -->
      <g style="fill: #888899" transform="translate(476.816354 371.276563) scale(0.1 -0.1)">
       <defs>
        <path id="DejaVuSans-34" d="M 2419 4116 
L 825 1625 
L 2419 1625 
L 2419 4116 
z
M 2253 4666 
L 3047 4666 
L 3047 1625 
L 3713 1625 
L 3713 1100 
L 3047 1100 
L 3047 0 
L 2419 0 
L 2419 1100 
L 313 1100 
L 313 1709 
L 2253 4666 
z
" transform="scale(0.015625)"/>
       </defs>
       <use xlink:href="#DejaVuSans-30"/>
       <use xlink:href="#DejaVuSans-2e" transform="translate(63.623047 0)"/>
       <use xlink:href="#DejaVuSans-34" transform="translate(95.410156 0)"/>
      </g>
     </g>
    </g>
    <g id="xtick_5">
     <g id="line2d_9">
      <path d="M 622.57625 356.678125 
L 622.57625 28.318125 
" clip-path="url(#p9251f0b6db)" style="fill: none; stroke: #1a1f2e; stroke-opacity: 0.4; stroke-width: 0.5; stroke-linecap: square"/>
     </g>
     <g id="line2d_10">
      <g>
       <use xlink:href="#m0aacdc9ccd" x="622.57625" y="356.678125" style="fill: #888899; stroke: #888899; stroke-width: 0.8"/>
      </g>
     </g>
     <g id="text_5">
      <!-- 0.5 -->
      <g style="fill: #888899" transform="translate(614.624687 371.276563) scale(0.1 -0.1)">
       <defs>
        <path id="DejaVuSans-35" d="M 691 4666 
L 3169 4666 
L 3169 4134 
L 1269 4134 
L 1269 2991 
Q 1406 3038 1543 3061 
Q 1681 3084 1819 3084 
Q 2600 3084 3056 2656 
Q 3513 2228 3513 1497 
Q 3513 744 3044 326 
Q 2575 -91 1722 -91 
Q 1428 -91 1123 -41 
Q 819 9 494 109 
L 494 744 
Q 775 591 1075 516 
Q 1375 441 1709 441 
Q 2250 441 2565 725 
Q 2881 1009 2881 1497 
Q 2881 1984 2565 2268 
Q 2250 2553 1709 2553 
Q 1456 2553 1204 2497 
Q 953 2441 691 2322 
L 691 4666 
z
" transform="scale(0.015625)"/>
       </defs>
       <use xlink:href="#DejaVuSans-30"/>
       <use xlink:href="#DejaVuSans-2e" transform="translate(63.623047 0)"/>
       <use xlink:href="#DejaVuSans-35" transform="translate(95.410156 0)"/>
      </g>
     </g>
    </g>
    <g id="text_6">
     <!-- Constraint level c -->
     <g style="fill: #ccccdd" transform="translate(330.781406 384.954687) scale(0.1 -0.1)">
      <defs>
       <path id="DejaVuSans-43" d="M 4122 4306 
L 4122 3641 
Q 3803 3938 3442 4084 
Q 3081 4231 2675 4231 
Q 1875 4231 1450 3742 
Q 1025 3253 1025 2328 
Q 1025 1406 1450 917 
Q 1875 428 2675 428 
Q 3081 428 3442 575 
Q 3803 722 4122 1019 
L 4122 359 
Q 3791 134 3420 21 
Q 3050 -91 2638 -91 
Q 1578 -91 968 557 
Q 359 1206 359 2328 
Q 359 3453 968 4101 
Q 1578 4750 2638 4750 
Q 3056 4750 3426 4639 
Q 3797 4528 4122 4306 
z
" transform="scale(0.015625)"/>
       <path id="DejaVuSans-6f" d="M 1959 3097 
Q 1497 3097 1228 2736 
Q 959 2375 959 1747 
Q 959 1119 1226 758 
Q 1494 397 1959 397 
Q 2419 397 2687 759 
Q 2956 1122 2956 1747 
Q 2956 2369 2687 2733 
Q 2419 3097 1959 3097 
z
M 1959 3584 
Q 2709 3584 3137 3096 
Q 3566 2609 3566 1747 
Q 3566 888 3137 398 
Q 2709 -91 1959 -91 
Q 1206 -91 779 398 
Q 353 888 353 1747 
Q 353 2609 779 3096 
Q 1206 3584 1959 3584 
z
" transform="scale(0.015625)"/>
       <path id="DejaVuSans-6e" d="M 3513 2113 
L 3513 0 
L 2938 0 
L 2938 2094 
Q 2938 2591 2744 2837 
Q 2550 3084 2163 3084 
Q 1697 3084 1428 2787 
Q 1159 2491 1159 1978 
L 1159 0 
L 581 0 
L 581 3500 
L 1159 3500 
L 1159 2956 
Q 1366 3272 1645 3428 
Q 1925 3584 2291 3584 
Q 2894 3584 3203 3211 
Q 3513 2838 3513 2113 
z
" transform="scale(0.015625)"/>
       <path id="DejaVuSans-73" d="M 2834 3397 
L 2834 2853 
Q 2591 2978 2328 3040 
Q 2066 3103 1784 3103 
Q 1356 3103 1142 2972 
Q 928 2841 928 2578 
Q 928 2378 1081 2264 
Q 1234 2150 1697 2047 
L 1894 2003 
Q 2506 1872 2764 1633 
Q 3022 1394 3022 966 
Q 3022 478 2636 193 
Q 2250 -91 1575 -91 
Q 1294 -91 989 -36 
Q 684 19 347 128 
L 347 722 
Q 666 556 975 473 
Q 1284 391 1588 391 
Q 1994 391 2212 530 
Q 2431 669 2431 922 
Q 2431 1156 2273 1281 
Q 2116 1406 1581 1522 
L 1381 1569 
Q 847 1681 609 1914 
Q 372 2147 372 2553 
Q 372 3047 722 3315 
Q 1072 3584 1716 3584 
Q 2034 3584 2315 3537 
Q 2597 3491 2834 3397 
z
" transform="scale(0.015625)"/>
       <path id="DejaVuSans-74" d="M 1172 4494 
L 1172 3500 
L 2356 3500 
L 2356 3053 
L 1172 3053 
L 1172 1153 
Q 1172 725 1289 603 
Q 1406 481 1766 481 
L 2356 481 
L 2356 0 
L 1766 0 
Q 1100 0 847 248 
Q 594 497 594 1153 
L 594 3053 
L 172 3053 
L 172 3500 
L 594 3500 
L 594 4494 
L 1172 4494 
z
" transform="scale(0.015625)"/>
       <path id="DejaVuSans-72" d="M 2631 2963 
Q 2534 3019 2420 3045 
Q 2306 3072 2169 3072 
Q 1681 3072 1420 2755 
Q 1159 2438 1159 1844 
L 1159 0 
L 581 0 
L 581 3500 
L 1159 3500 
L 1159 2956 
Q 1341 3275 1631 3429 
Q 1922 3584 2338 3584 
Q 2397 3584 2469 3576 
Q 2541 3569 2628 3553 
L 2631 2963 
z
" transform="scale(0.015625)"/>
       <path id="DejaVuSans-61" d="M 2194 1759 
Q 1497 1759 1228 1600 
Q 959 1441 959 1056 
Q 959 750 1161 570 
Q 1363 391 1709 391 
Q 2188 391 2477 730 
Q 2766 1069 2766 1631 
L 2766 1759 
L 2194 1759 
z
M 3341 1997 
L 3341 0 
L 2766 0 
L 2766 531 
Q 2569 213 2275 61 
Q 1981 -91 1556 -91 
Q 1019 -91 701 211 
Q 384 513 384 1019 
Q 384 1609 779 1909 
Q 1175 2209 1959 2209 
L 2766 2209 
L 2766 2266 
Q 2766 2663 2505 2880 
Q 2244 3097 1772 3097 
Q 1472 3097 1187 3025 
Q 903 2953 641 2809 
L 641 3341 
Q 956 3463 1253 3523 
Q 1550 3584 1831 3584 
Q 2591 3584 2966 3190 
Q 3341 2797 3341 1997 
z
" transform="scale(0.015625)"/>
       <path id="DejaVuSans-69" d="M 603 3500 
L 1178 3500 
L 1178 0 
L 603 0 
L 603 3500 
z
M 603 4863 
L 1178 4863 
L 1178 4134 
L 603 4134 
L 603 4863 
z
" transform="scale(0.015625)"/>
       <path id="DejaVuSans-20" transform="scale(0.015625)"/>
       <path id="DejaVuSans-6c" d="M 603 4863 
L 1178 4863 
L 1178 0 
L 603 0 
L 603 4863 
z
" transform="scale(0.015625)"/>
       <path id="DejaVuSans-65" d="M 3597 1894 
L 3597 1613 
L 953 1613 
Q 991 1019 1311 708 
Q 1631 397 2203 397 
Q 2534 397 2845 478 
Q 3156 559 3463 722 
L 3463 178 
Q 3153 47 2828 -22 
Q 2503 -91 2169 -91 
Q 1331 -91 842 396 
Q 353 884 353 1716 
Q 353 2575 817 3079 
Q 1281 3584 2069 3584 
Q 2775 3584 3186 3129 
Q 3597 2675 3597 1894 
z
M 3022 2063 
Q 3016 2534 2758 2815 
Q 2500 3097 2075 3097 
Q 1594 3097 1305 2825 
Q 1016 2553 972 2059 
L 3022 2063 
z
" transform="scale(0.015625)"/>
       <path id="DejaVuSans-76" d="M 191 3500 
L 800 3500 
L 1894 563 
L 2988 3500 
L 3597 3500 
L 2284 0 
L 1503 0 
L 191 3500 
z
" transform="scale(0.015625)"/>
       <path id="DejaVuSans-63" d="M 3122 3366 
L 3122 2828 
Q 2878 2963 2633 3030 
Q 2388 3097 2138 3097 
Q 1578 3097 1268 2742 
Q 959 2388 959 1747 
Q 959 1106 1268 751 
Q 1578 397 2138 397 
Q 2388 397 2633 464 
Q 2878 531 3122 666 
L 3122 134 
Q 2881 22 2623 -34 
Q 2366 -91 2075 -91 
Q 1284 -91 818 406 
Q 353 903 353 1747 
Q 353 2603 823 3093 
Q 1294 3584 2113 3584 
Q 2378 3584 2631 3529 
Q 2884 3475 3122 3366 
z
" transform="scale(0.015625)"/>
      </defs>
      <use xlink:href="#DejaVuSans-43"/>
      <use xlink:href="#DejaVuSans-6f" transform="translate(69.824219 0)"/>
      <use xlink:href="#DejaVuSans-6e" transform="translate(131.005859 0)"/>
      <use xlink:href="#DejaVuSans-73" transform="translate(194.384766 0)"/>
      <use xlink:href="#DejaVuSans-74" transform="translate(246.484375 0)"/>
      <use xlink:href="#DejaVuSans-72" transform="translate(285.693359 0)"/>
      <use xlink:href="#DejaVuSans-61" transform="translate(326.806641 0)"/>
      <use xlink:href="#DejaVuSans-69" transform="translate(388.085938 0)"/>
      <use xlink:href="#DejaVuSans-6e" transform="translate(415.869141 0)"/>
      <use xlink:href="#DejaVuSans-74" transform="translate(479.248047 0)"/>
      <use xlink:href="#DejaVuSans-20" transform="translate(518.457031 0)"/>
      <use xlink:href="#DejaVuSans-6c" transform="translate(550.244141 0)"/>
      <use xlink:href="#DejaVuSans-65" transform="translate(578.027344 0)"/>
      <use xlink:href="#DejaVuSans-76" transform="translate(639.550781 0)"/>
      <use xlink:href="#DejaVuSans-65" transform="translate(698.730469 0)"/>
      <use xlink:href="#DejaVuSans-6c" transform="translate(760.253906 0)"/>
      <use xlink:href="#DejaVuSans-20" transform="translate(788.037109 0)"/>
      <use xlink:href="#DejaVuSans-63" transform="translate(819.824219 0)"/>
     </g>
    </g>
   </g>
   <g id="matplotlib.axis_2">
    <g id="ytick_1">
     <g id="line2d_11">
      <path d="M 43.78125 321.496696 
L 705.26125 321.496696 
" clip-path="url(#p9251f0b6db)" style="fill: none; stroke: #1a1f2e; stroke-opacity: 0.4; stroke-width: 0.5; stroke-linecap: square"/>
     </g>
     <g id="line2d_12">
      <defs>
       <path id="m289c0bbfce" d="M 0 0 
L -3.5 0 
" style="stroke: #888899; stroke-width: 0.8"/>
      </defs>
      <g>
       <use xlink:href="#m289c0bbfce" x="43.78125" y="321.496696" style="fill: #888899; stroke: #888899; stroke-width: 0.8"/>
      </g>
     </g>
     <g id="text_7">
      <!-- 0.5 -->
      <g style="fill: #888899" transform="translate(20.878125 325.295915) scale(0.1 -0.1)">
       <use xlink:href="#DejaVuSans-30"/>
       <use xlink:href="#DejaVuSans-2e" transform="translate(63.623047 0)"/>
       <use xlink:href="#DejaVuSans-35" transform="translate(95.410156 0)"/>
      </g>
     </g>
    </g>
    <g id="ytick_2">
     <g id="line2d_13">
      <path d="M 43.78125 262.860982 
L 705.26125 262.860982 
" clip-path="url(#p9251f0b6db)" style="fill: none; stroke: #1a1f2e; stroke-opacity: 0.4; stroke-width: 0.5; stroke-linecap: square"/>
     </g>
     <g id="line2d_14">
      <g>
       <use xlink:href="#m289c0bbfce" x="43.78125" y="262.860982" style="fill: #888899; stroke: #888899; stroke-width: 0.8"/>
      </g>
     </g>
     <g id="text_8">
      <!-- 1.0 -->
      <g style="fill: #888899" transform="translate(20.878125 266.660201) scale(0.1 -0.1)">
       <use xlink:href="#DejaVuSans-31"/>
       <use xlink:href="#DejaVuSans-2e" transform="translate(63.623047 0)"/>
       <use xlink:href="#DejaVuSans-30" transform="translate(95.410156 0)"/>
      </g>
     </g>
    </g>
    <g id="ytick_3">
     <g id="line2d_15">
      <path d="M 43.78125 204.225268 
L 705.26125 204.225268 
" clip-path="url(#p9251f0b6db)" style="fill: none; stroke: #1a1f2e; stroke-opacity: 0.4; stroke-width: 0.5; stroke-linecap: square"/>
     </g>
     <g id="line2d_16">
      <g>
       <use xlink:href="#m289c0bbfce" x="43.78125" y="204.225268" style="fill: #888899; stroke: #888899; stroke-width: 0.8"/>
      </g>
     </g>
     <g id="text_9">
      <!-- 1.5 -->
      <g style="fill: #888899" transform="translate(20.878125 208.024487) scale(0.1 -0.1)">
       <use xlink:href="#DejaVuSans-31"/>
       <use xlink:href="#DejaVuSans-2e" transform="translate(63.623047 0)"/>
       <use xlink:href="#DejaVuSans-35" transform="translate(95.410156 0)"/>
      </g>
     </g>
    </g>
    <g id="ytick_4">
     <g id="line2d_17">
      <path d="M 43.78125 145.589554 
L 705.26125 145.589554 
" clip-path="url(#p9251f0b6db)" style="fill: none; stroke: #1a1f2e; stroke-opacity: 0.4; stroke-width: 0.5; stroke-linecap: square"/>
     </g>
     <g id="line2d_18">
      <g>
       <use xlink:href="#m289c0bbfce" x="43.78125" y="145.589554" style="fill: #888899; stroke: #888899; stroke-width: 0.8"/>
      </g>
     </g>
     <g id="text_10">
      <!-- 2.0 -->
      <g style="fill: #888899" transform="translate(20.878125 149.388772) scale(0.1 -0.1)">
       <use xlink:href="#DejaVuSans-32"/>
       <use xlink:href="#DejaVuSans-2e" transform="translate(63.623047 0)"/>
       <use xlink:href="#DejaVuSans-30" transform="translate(95.410156 0)"/>
      </g>
     </g>
    </g>
    <g id="ytick_5">
     <g id="line2d_19">
      <path d="M 43.78125 86.953839 
L 705.26125 86.953839 
" clip-path="url(#p9251f0b6db)" style="fill: none; stroke: #1a1f2e; stroke-opacity: 0.4; stroke-width: 0.5; stroke-linecap: square"/>
     </g>
     <g id="line2d_20">
      <g>
       <use xlink:href="#m289c0bbfce" x="43.78125" y="86.953839" style="fill: #888899; stroke: #888899; stroke-width: 0.8"/>
      </g>
     </g>
     <g id="text_11">
      <!-- 2.5 -->
      <g style="fill: #888899" transform="translate(20.878125 90.753058) scale(0.1 -0.1)">
       <use xlink:href="#DejaVuSans-32"/>
       <use xlink:href="#DejaVuSans-2e" transform="translate(63.623047 0)"/>
       <use xlink:href="#DejaVuSans-35" transform="translate(95.410156 0)"/>
      </g>
     </g>
    </g>
    <g id="ytick_6">
     <g id="line2d_21">
      <path d="M 43.78125 28.318125 
L 705.26125 28.318125 
" clip-path="url(#p9251f0b6db)" style="fill: none; stroke: #1a1f2e; stroke-opacity: 0.4; stroke-width: 0.5; stroke-linecap: square"/>
     </g>
     <g id="line2d_22">
      <g>
       <use xlink:href="#m289c0bbfce" x="43.78125" y="28.318125" style="fill: #888899; stroke: #888899; stroke-width: 0.8"/>
      </g>
     </g>
     <g id="text_12">
      <!-- 3.0 -->
      <g style="fill: #888899" transform="translate(20.878125 32.117344) scale(0.1 -0.1)">
       <use xlink:href="#DejaVuSans-33"/>
       <use xlink:href="#DejaVuSans-2e" transform="translate(63.623047 0)"/>
       <use xlink:href="#DejaVuSans-30" transform="translate(95.410156 0)"/>
      </g>
     </g>
    </g>
    <g id="text_13">
     <!-- Crooks GM ratio R(c) -->
     <g style="fill: #ccccdd" transform="translate(14.798438 244.159844) rotate(-90) scale(0.1 -0.1)">
      <defs>
       <path id="DejaVuSans-6b" d="M 581 4863 
L 1159 4863 
L 1159 1991 
L 2875 3500 
L 3609 3500 
L 1753 1863 
L 3688 0 
L 2938 0 
L 1159 1709 
L 1159 0 
L 581 0 
L 581 4863 
z
" transform="scale(0.015625)"/>
       <path id="DejaVuSans-47" d="M 3809 666 
L 3809 1919 
L 2778 1919 
L 2778 2438 
L 4434 2438 
L 4434 434 
Q 4069 175 3628 42 
Q 3188 -91 2688 -91 
Q 1594 -91 976 548 
Q 359 1188 359 2328 
Q 359 3472 976 4111 
Q 1594 4750 2688 4750 
Q 3144 4750 3555 4637 
Q 3966 4525 4313 4306 
L 4313 3634 
Q 3963 3931 3569 4081 
Q 3175 4231 2741 4231 
Q 1884 4231 1454 3753 
Q 1025 3275 1025 2328 
Q 1025 1384 1454 906 
Q 1884 428 2741 428 
Q 3075 428 3337 486 
Q 3600 544 3809 666 
z
" transform="scale(0.015625)"/>
       <path id="DejaVuSans-4d" d="M 628 4666 
L 1569 4666 
L 2759 1491 
L 3956 4666 
L 4897 4666 
L 4897 0 
L 4281 0 
L 4281 4097 
L 3078 897 
L 2444 897 
L 1241 4097 
L 1241 0 
L 628 0 
L 628 4666 
z
" transform="scale(0.015625)"/>
       <path id="DejaVuSans-52" d="M 2841 2188 
Q 3044 2119 3236 1894 
Q 3428 1669 3622 1275 
L 4263 0 
L 3584 0 
L 2988 1197 
Q 2756 1666 2539 1819 
Q 2322 1972 1947 1972 
L 1259 1972 
L 1259 0 
L 628 0 
L 628 4666 
L 2053 4666 
Q 2853 4666 3247 4331 
Q 3641 3997 3641 3322 
Q 3641 2881 3436 2590 
Q 3231 2300 2841 2188 
z
M 1259 4147 
L 1259 2491 
L 2053 2491 
Q 2509 2491 2742 2702 
Q 2975 2913 2975 3322 
Q 2975 3731 2742 3939 
Q 2509 4147 2053 4147 
L 1259 4147 
z
" transform="scale(0.015625)"/>
       <path id="DejaVuSans-28" d="M 1984 4856 
Q 1566 4138 1362 3434 
Q 1159 2731 1159 2009 
Q 1159 1288 1364 580 
Q 1569 -128 1984 -844 
L 1484 -844 
Q 1016 -109 783 600 
Q 550 1309 550 2009 
Q 550 2706 781 3412 
Q 1013 4119 1484 4856 
L 1984 4856 
z
" transform="scale(0.015625)"/>
       <path id="DejaVuSans-29" d="M 513 4856 
L 1013 4856 
Q 1481 4119 1714 3412 
Q 1947 2706 1947 2009 
Q 1947 1309 1714 600 
Q 1481 -109 1013 -844 
L 513 -844 
Q 928 -128 1133 580 
Q 1338 1288 1338 2009 
Q 1338 2731 1133 3434 
Q 928 4138 513 4856 
z
" transform="scale(0.015625)"/>
      </defs>
      <use xlink:href="#DejaVuSans-43"/>
      <use xlink:href="#DejaVuSans-72" transform="translate(69.824219 0)"/>
      <use xlink:href="#DejaVuSans-6f" transform="translate(108.6875 0)"/>
      <use xlink:href="#DejaVuSans-6f" transform="translate(169.869141 0)"/>
      <use xlink:href="#DejaVuSans-6b" transform="translate(231.050781 0)"/>
      <use xlink:href="#DejaVuSans-73" transform="translate(288.960938 0)"/>
      <use xlink:href="#DejaVuSans-20" transform="translate(341.060547 0)"/>
      <use xlink:href="#DejaVuSans-47" transform="translate(372.847656 0)"/>
      <use xlink:href="#DejaVuSans-4d" transform="translate(450.337891 0)"/>
      <use xlink:href="#DejaVuSans-20" transform="translate(536.617188 0)"/>
      <use xlink:href="#DejaVuSans-72" transform="translate(568.404297 0)"/>
      <use xlink:href="#DejaVuSans-61" transform="translate(609.517578 0)"/>
      <use xlink:href="#DejaVuSans-74" transform="translate(670.796875 0)"/>
      <use xlink:href="#DejaVuSans-69" transform="translate(710.005859 0)"/>
      <use xlink:href="#DejaVuSans-6f" transform="translate(737.789062 0)"/>
      <use xlink:href="#DejaVuSans-20" transform="translate(798.970703 0)"/>
      <use xlink:href="#DejaVuSans-52" transform="translate(830.757812 0)"/>
      <use xlink:href="#DejaVuSans-28" transform="translate(900.240234 0)"/>
      <use xlink:href="#DejaVuSans-63" transform="translate(939.253906 0)"/>
      <use xlink:href="#DejaVuSans-29" transform="translate(994.234375 0)"/>
     </g>
    </g>
   </g>
   <g id="line2d_23">
    <path d="M 43.78125 262.860982 
L 705.26125 262.860982 
" clip-path="url(#p9251f0b6db)" style="fill: none; stroke-dasharray: 2.96,1.28; stroke-dashoffset: 0; stroke: #ffffff; stroke-opacity: 0.35; stroke-width: 0.8"/>
   </g>
   <g id="line2d_24">
    <path d="M 71.342917 380.127087 
L 456.791789 380.09643 
L 458.346018 379.990918 
L 459.900247 379.576093 
L 461.454477 377.945398 
L 463.008706 371.535635 
L 464.562935 346.342208 
L 464.562935 346.342208 
" clip-path="url(#p9251f0b6db)" style="fill: none; stroke: #ffaa22; stroke-width: 2.5; stroke-linecap: square"/>
   </g>
   <g id="line2d_25">
    <path d="M 466.117165 247.321985 
L 467.108826 -1 
L 467.108826 -1 
" clip-path="url(#p9251f0b6db)" style="fill: none; stroke: #6699ff; stroke-width: 2.5; stroke-linecap: square"/>
   </g>
   <g id="line2d_26">
    <path d="M 465.975871 356.678125 
L 465.975871 28.318125 
" clip-path="url(#p9251f0b6db)" style="fill: none; stroke-dasharray: 1.2,1.98; stroke-dashoffset: 0; stroke: #ffffff; stroke-opacity: 0.5; stroke-width: 1.2"/>
   </g>
   <g id="patch_5">
    <path d="M 43.78125 356.678125 
L 43.78125 28.318125 
" style="fill: none; stroke: #333344; stroke-width: 0.8; stroke-linejoin: miter; stroke-linecap: square"/>
   </g>
   <g id="patch_6">
    <path d="M 705.26125 356.678125 
L 705.26125 28.318125 
" style="fill: none; stroke: #333344; stroke-width: 0.8; stroke-linejoin: miter; stroke-linecap: square"/>
   </g>
   <g id="patch_7">
    <path d="M 43.78125 356.678125 
L 705.26125 356.678125 
" style="fill: none; stroke: #333344; stroke-width: 0.8; stroke-linejoin: miter; stroke-linecap: square"/>
   </g>
   <g id="patch_8">
    <path d="M 43.78125 28.318125 
L 705.26125 28.318125 
" style="fill: none; stroke: #333344; stroke-width: 0.8; stroke-linejoin: miter; stroke-linecap: square"/>
   </g>
   <g id="text_14">
    <!-- c_crit = 0.386 -->
    <g style="fill: #aaaabb" transform="translate(472.866288 86.953839) scale(0.08 -0.08)">
     <defs>
      <path id="DejaVuSans-5f" d="M 3263 -1063 
L 3263 -1509 
L -63 -1509 
L -63 -1063 
L 3263 -1063 
z
" transform="scale(0.015625)"/>
      <path id="DejaVuSans-3d" d="M 678 2906 
L 4684 2906 
L 4684 2381 
L 678 2381 
L 678 2906 
z
M 678 1631 
L 4684 1631 
L 4684 1100 
L 678 1100 
L 678 1631 
z
" transform="scale(0.015625)"/>
      <path id="DejaVuSans-38" d="M 2034 2216 
Q 1584 2216 1326 1975 
Q 1069 1734 1069 1313 
Q 1069 891 1326 650 
Q 1584 409 2034 409 
Q 2484 409 2743 651 
Q 3003 894 3003 1313 
Q 3003 1734 2745 1975 
Q 2488 2216 2034 2216 
z
M 1403 2484 
Q 997 2584 770 2862 
Q 544 3141 544 3541 
Q 544 4100 942 4425 
Q 1341 4750 2034 4750 
Q 2731 4750 3128 4425 
Q 3525 4100 3525 3541 
Q 3525 3141 3298 2862 
Q 3072 2584 2669 2484 
Q 3125 2378 3379 2068 
Q 3634 1759 3634 1313 
Q 3634 634 3220 271 
Q 2806 -91 2034 -91 
Q 1263 -91 848 271 
Q 434 634 434 1313 
Q 434 1759 690 2068 
Q 947 2378 1403 2484 
z
M 1172 3481 
Q 1172 3119 1398 2916 
Q 1625 2713 2034 2713 
Q 2441 2713 2670 2916 
Q 2900 3119 2900 3481 
Q 2900 3844 2670 4047 
Q 2441 4250 2034 4250 
Q 1625 4250 1398 4047 
Q 1172 3844 1172 3481 
z
" transform="scale(0.015625)"/>
      <path id="DejaVuSans-36" d="M 2113 2584 
Q 1688 2584 1439 2293 
Q 1191 2003 1191 1497 
Q 1191 994 1439 701 
Q 1688 409 2113 409 
Q 2538 409 2786 701 
Q 3034 994 3034 1497 
Q 3034 2003 2786 2293 
Q 2538 2584 2113 2584 
z
M 3366 4563 
L 3366 3988 
Q 3128 4100 2886 4159 
Q 2644 4219 2406 4219 
Q 1781 4219 1451 3797 
Q 1122 3375 1075 2522 
Q 1259 2794 1537 2939 
Q 1816 3084 2150 3084 
Q 2853 3084 3261 2657 
Q 3669 2231 3669 1497 
Q 3669 778 3244 343 
Q 2819 -91 2113 -91 
Q 1303 -91 875 529 
Q 447 1150 447 2328 
Q 447 3434 972 4092 
Q 1497 4750 2381 4750 
Q 2619 4750 2861 4703 
Q 3103 4656 3366 4563 
z
" transform="scale(0.015625)"/>
     </defs>
     <use xlink:href="#DejaVuSans-63"/>
     <use xlink:href="#DejaVuSans-5f" transform="translate(54.980469 0)"/>
     <use xlink:href="#DejaVuSans-63" transform="translate(104.980469 0)"/>
     <use xlink:href="#DejaVuSans-72" transform="translate(159.960938 0)"/>
     <use xlink:href="#DejaVuSans-69" transform="translate(201.074219 0)"/>
     <use xlink:href="#DejaVuSans-74" transform="translate(228.857422 0)"/>
     <use xlink:href="#DejaVuSans-20" transform="translate(268.066406 0)"/>
     <use xlink:href="#DejaVuSans-3d" transform="translate(299.853516 0)"/>
     <use xlink:href="#DejaVuSans-20" transform="translate(383.642578 0)"/>
     <use xlink:href="#DejaVuSans-30" transform="translate(415.429688 0)"/>
     <use xlink:href="#DejaVuSans-2e" transform="translate(479.052734 0)"/>
     <use xlink:href="#DejaVuSans-33" transform="translate(510.839844 0)"/>
     <use xlink:href="#DejaVuSans-38" transform="translate(574.462891 0)"/>
     <use xlink:href="#DejaVuSans-36" transform="translate(638.085938 0)"/>
    </g>
   </g>
   <g id="patch_9">
    <path d="M 443.227206 236.310494 
Q 451.326449 238.743684 458.569085 240.919531 
" style="fill: none; stroke: #ffd700; stroke-width: 0.8; stroke-linecap: round"/>
    <path d="M 455.964747 238.466488 
L 458.569085 240.919531 
L 455.044047 241.531176 
" style="fill: none; stroke: #ffd700; stroke-width: 0.8; stroke-linecap: round"/>
   </g>
   <g id="text_15">
    <!-- ETH bull -->
    <g style="fill: #ffd700" transform="translate(406.217167 232.370411) scale(0.08 -0.08)">
     <defs>
      <path id="DejaVuSans-45" d="M 628 4666 
L 3578 4666 
L 3578 4134 
L 1259 4134 
L 1259 2753 
L 3481 2753 
L 3481 2222 
L 1259 2222 
L 1259 531 
L 3634 531 
L 3634 0 
L 628 0 
L 628 4666 
z
" transform="scale(0.015625)"/>
      <path id="DejaVuSans-54" d="M -19 4666 
L 3928 4666 
L 3928 4134 
L 2272 4134 
L 2272 0 
L 1638 0 
L 1638 4134 
L -19 4134 
L -19 4666 
z
" transform="scale(0.015625)"/>
      <path id="DejaVuSans-48" d="M 628 4666 
L 1259 4666 
L 1259 2753 
L 3553 2753 
L 3553 4666 
L 4184 4666 
L 4184 0 
L 3553 0 
L 3553 2222 
L 1259 2222 
L 1259 0 
L 628 0 
L 628 4666 
z
" transform="scale(0.015625)"/>
      <path id="DejaVuSans-62" d="M 3116 1747 
Q 3116 2381 2855 2742 
Q 2594 3103 2138 3103 
Q 1681 3103 1420 2742 
Q 1159 2381 1159 1747 
Q 1159 1113 1420 752 
Q 1681 391 2138 391 
Q 2594 391 2855 752 
Q 3116 1113 3116 1747 
z
M 1159 2969 
Q 1341 3281 1617 3432 
Q 1894 3584 2278 3584 
Q 2916 3584 3314 3078 
Q 3713 2572 3713 1747 
Q 3713 922 3314 415 
Q 2916 -91 2278 -91 
Q 1894 -91 1617 61 
Q 1341 213 1159 525 
L 1159 0 
L 581 0 
L 581 4863 
L 1159 4863 
L 1159 2969 
z
" transform="scale(0.015625)"/>
      <path id="DejaVuSans-75" d="M 544 1381 
L 544 3500 
L 1119 3500 
L 1119 1403 
Q 1119 906 1312 657 
Q 1506 409 1894 409 
Q 2359 409 2629 706 
Q 2900 1003 2900 1516 
L 2900 3500 
L 3475 3500 
L 3475 0 
L 2900 0 
L 2900 538 
Q 2691 219 2414 64 
Q 2138 -91 1772 -91 
Q 1169 -91 856 284 
Q 544 659 544 1381 
z
M 1991 3584 
L 1991 3584 
z
" transform="scale(0.015625)"/>
     </defs>
     <use xlink:href="#DejaVuSans-45"/>
     <use xlink:href="#DejaVuSans-54" transform="translate(63.183594 0)"/>
     <use xlink:href="#DejaVuSans-48" transform="translate(124.267578 0)"/>
     <use xlink:href="#DejaVuSans-20" transform="translate(199.462891 0)"/>
     <use xlink:href="#DejaVuSans-62" transform="translate(231.25 0)"/>
     <use xlink:href="#DejaVuSans-75" transform="translate(294.726562 0)"/>
     <use xlink:href="#DejaVuSans-6c" transform="translate(358.105469 0)"/>
     <use xlink:href="#DejaVuSans-6c" transform="translate(385.888672 0)"/>
    </g>
   </g>
   <g id="text_16">
    <!-- AI -->
    <g style="fill: #ff2222" transform="translate(68.160964 366.811179) scale(0.065 -0.065)">
     <defs>
      <path id="DejaVuSans-41" d="M 2188 4044 
L 1331 1722 
L 3047 1722 
L 2188 4044 
z
M 1831 4666 
L 2547 4666 
L 4325 0 
L 3669 0 
L 3244 1197 
L 1141 1197 
L 716 0 
L 50 0 
L 1831 4666 
z
" transform="scale(0.015625)"/>
      <path id="DejaVuSans-49" d="M 628 4666 
L 1259 4666 
L 1259 0 
L 628 0 
L 628 4666 
z
" transform="scale(0.015625)"/>
     </defs>
     <use xlink:href="#DejaVuSans-41"/>
     <use xlink:href="#DejaVuSans-49" transform="translate(68.408203 0)"/>
    </g>
    <!-- (uncon) -->
    <g style="fill: #ff2222" transform="translate(58.852253 374.089757) scale(0.065 -0.065)">
     <use xlink:href="#DejaVuSans-28"/>
     <use xlink:href="#DejaVuSans-75" transform="translate(39.013672 0)"/>
     <use xlink:href="#DejaVuSans-6e" transform="translate(102.392578 0)"/>
     <use xlink:href="#DejaVuSans-63" transform="translate(165.771484 0)"/>
     <use xlink:href="#DejaVuSans-6f" transform="translate(220.751953 0)"/>
     <use xlink:href="#DejaVuSans-6e" transform="translate(281.933594 0)"/>
     <use xlink:href="#DejaVuSans-29" transform="translate(345.3125 0)"/>
    </g>
   </g>
   <g id="text_17">
    <!-- Crypto -->
    <g style="fill: #ff8844" transform="translate(198.29625 366.811179) scale(0.065 -0.065)">
     <defs>
      <path id="DejaVuSans-79" d="M 2059 -325 
Q 1816 -950 1584 -1140 
Q 1353 -1331 966 -1331 
L 506 -1331 
L 506 -850 
L 844 -850 
Q 1081 -850 1212 -737 
Q 1344 -625 1503 -206 
L 1606 56 
L 191 3500 
L 800 3500 
L 1894 763 
L 2988 3500 
L 3597 3500 
L 2059 -325 
z
" transform="scale(0.015625)"/>
      <path id="DejaVuSans-70" d="M 1159 525 
L 1159 -1331 
L 581 -1331 
L 581 3500 
L 1159 3500 
L 1159 2969 
Q 1341 3281 1617 3432 
Q 1894 3584 2278 3584 
Q 2916 3584 3314 3078 
Q 3713 2572 3713 1747 
Q 3713 922 3314 415 
Q 2916 -91 2278 -91 
Q 1894 -91 1617 61 
Q 1341 213 1159 525 
z
M 3116 1747 
Q 3116 2381 2855 2742 
Q 2594 3103 2138 3103 
Q 1681 3103 1420 2742 
Q 1159 2381 1159 1747 
Q 1159 1113 1420 752 
Q 1681 391 2138 391 
Q 2594 391 2855 752 
Q 3116 1113 3116 1747 
z
" transform="scale(0.015625)"/>
     </defs>
     <use xlink:href="#DejaVuSans-43"/>
     <use xlink:href="#DejaVuSans-72" transform="translate(69.824219 0)"/>
     <use xlink:href="#DejaVuSans-79" transform="translate(110.9375 0)"/>
     <use xlink:href="#DejaVuSans-70" transform="translate(170.117188 0)"/>
     <use xlink:href="#DejaVuSans-74" transform="translate(233.59375 0)"/>
     <use xlink:href="#DejaVuSans-6f" transform="translate(272.802734 0)"/>
    </g>
    <!-- (spec) -->
    <g style="fill: #ff8844" transform="translate(199.072188 374.089757) scale(0.065 -0.065)">
     <use xlink:href="#DejaVuSans-28"/>
     <use xlink:href="#DejaVuSans-73" transform="translate(39.013672 0)"/>
     <use xlink:href="#DejaVuSans-70" transform="translate(91.113281 0)"/>
     <use xlink:href="#DejaVuSans-65" transform="translate(154.589844 0)"/>
     <use xlink:href="#DejaVuSans-63" transform="translate(216.113281 0)"/>
     <use xlink:href="#DejaVuSans-29" transform="translate(271.09375 0)"/>
    </g>
   </g>
   <g id="text_18">
    <!-- Gambling -->
    <g style="fill: #ffaa22" transform="translate(262.387878 374.089757) scale(0.065 -0.065)">
     <defs>
      <path id="DejaVuSans-6d" d="M 3328 2828 
Q 3544 3216 3844 3400 
Q 4144 3584 4550 3584 
Q 5097 3584 5394 3201 
Q 5691 2819 5691 2113 
L 5691 0 
L 5113 0 
L 5113 2094 
Q 5113 2597 4934 2840 
Q 4756 3084 4391 3084 
Q 3944 3084 3684 2787 
Q 3425 2491 3425 1978 
L 3425 0 
L 2847 0 
L 2847 2094 
Q 2847 2600 2669 2842 
Q 2491 3084 2119 3084 
Q 1678 3084 1418 2786 
Q 1159 2488 1159 1978 
L 1159 0 
L 581 0 
L 581 3500 
L 1159 3500 
L 1159 2956 
Q 1356 3278 1631 3431 
Q 1906 3584 2284 3584 
Q 2666 3584 2933 3390 
Q 3200 3197 3328 2828 
z
" transform="scale(0.015625)"/>
      <path id="DejaVuSans-67" d="M 2906 1791 
Q 2906 2416 2648 2759 
Q 2391 3103 1925 3103 
Q 1463 3103 1205 2759 
Q 947 2416 947 1791 
Q 947 1169 1205 825 
Q 1463 481 1925 481 
Q 2391 481 2648 825 
Q 2906 1169 2906 1791 
z
M 3481 434 
Q 3481 -459 3084 -895 
Q 2688 -1331 1869 -1331 
Q 1566 -1331 1297 -1286 
Q 1028 -1241 775 -1147 
L 775 -588 
Q 1028 -725 1275 -790 
Q 1522 -856 1778 -856 
Q 2344 -856 2625 -561 
Q 2906 -266 2906 331 
L 2906 616 
Q 2728 306 2450 153 
Q 2172 0 1784 0 
Q 1141 0 747 490 
Q 353 981 353 1791 
Q 353 2603 747 3093 
Q 1141 3584 1784 3584 
Q 2172 3584 2450 3431 
Q 2728 3278 2906 2969 
L 2906 3500 
L 3481 3500 
L 3481 434 
z
" transform="scale(0.015625)"/>
     </defs>
     <use xlink:href="#DejaVuSans-47"/>
     <use xlink:href="#DejaVuSans-61" transform="translate(77.490234 0)"/>
     <use xlink:href="#DejaVuSans-6d" transform="translate(138.769531 0)"/>
     <use xlink:href="#DejaVuSans-62" transform="translate(236.181641 0)"/>
     <use xlink:href="#DejaVuSans-6c" transform="translate(299.658203 0)"/>
     <use xlink:href="#DejaVuSans-69" transform="translate(327.441406 0)"/>
     <use xlink:href="#DejaVuSans-6e" transform="translate(355.224609 0)"/>
     <use xlink:href="#DejaVuSans-67" transform="translate(418.603516 0)"/>
    </g>
   </g>
   <g id="text_19">
    <!-- Social -->
    <g style="fill: #aaaaff" transform="translate(337.323333 366.811179) scale(0.065 -0.065)">
     <defs>
      <path id="DejaVuSans-53" d="M 3425 4513 
L 3425 3897 
Q 3066 4069 2747 4153 
Q 2428 4238 2131 4238 
Q 1616 4238 1336 4038 
Q 1056 3838 1056 3469 
Q 1056 3159 1242 3001 
Q 1428 2844 1947 2747 
L 2328 2669 
Q 3034 2534 3370 2195 
Q 3706 1856 3706 1288 
Q 3706 609 3251 259 
Q 2797 -91 1919 -91 
Q 1588 -91 1214 -16 
Q 841 59 441 206 
L 441 856 
Q 825 641 1194 531 
Q 1563 422 1919 422 
Q 2459 422 2753 634 
Q 3047 847 3047 1241 
Q 3047 1584 2836 1778 
Q 2625 1972 2144 2069 
L 1759 2144 
Q 1053 2284 737 2584 
Q 422 2884 422 3419 
Q 422 4038 858 4394 
Q 1294 4750 2059 4750 
Q 2388 4750 2728 4690 
Q 3069 4631 3425 4513 
z
" transform="scale(0.015625)"/>
     </defs>
     <use xlink:href="#DejaVuSans-53"/>
     <use xlink:href="#DejaVuSans-6f" transform="translate(63.476562 0)"/>
     <use xlink:href="#DejaVuSans-63" transform="translate(124.658203 0)"/>
     <use xlink:href="#DejaVuSans-69" transform="translate(179.638672 0)"/>
     <use xlink:href="#DejaVuSans-61" transform="translate(207.421875 0)"/>
     <use xlink:href="#DejaVuSans-6c" transform="translate(268.701172 0)"/>
    </g>
    <!-- Media -->
    <g style="fill: #aaaaff" transform="translate(337.197904 374.089757) scale(0.065 -0.065)">
     <defs>
      <path id="DejaVuSans-64" d="M 2906 2969 
L 2906 4863 
L 3481 4863 
L 3481 0 
L 2906 0 
L 2906 525 
Q 2725 213 2448 61 
Q 2172 -91 1784 -91 
Q 1150 -91 751 415 
Q 353 922 353 1747 
Q 353 2572 751 3078 
Q 1150 3584 1784 3584 
Q 2172 3584 2448 3432 
Q 2725 3281 2906 2969 
z
M 947 1747 
Q 947 1113 1208 752 
Q 1469 391 1925 391 
Q 2381 391 2643 752 
Q 2906 1113 2906 1747 
Q 2906 2381 2643 2742 
Q 2381 3103 1925 3103 
Q 1469 3103 1208 2742 
Q 947 2381 947 1747 
z
" transform="scale(0.015625)"/>
     </defs>
     <use xlink:href="#DejaVuSans-4d"/>
     <use xlink:href="#DejaVuSans-65" transform="translate(86.279297 0)"/>
     <use xlink:href="#DejaVuSans-64" transform="translate(147.802734 0)"/>
     <use xlink:href="#DejaVuSans-69" transform="translate(211.279297 0)"/>
     <use xlink:href="#DejaVuSans-61" transform="translate(239.0625 0)"/>
    </g>
   </g>
   <g id="text_20">
    <!-- Crypto -->
    <g style="fill: #66ccff" transform="translate(501.474583 -73335138556834324480) scale(0.065 -0.065)">
     <use xlink:href="#DejaVuSans-43"/>
     <use xlink:href="#DejaVuSans-72" transform="translate(69.824219 0)"/>
     <use xlink:href="#DejaVuSans-79" transform="translate(110.9375 0)"/>
     <use xlink:href="#DejaVuSans-70" transform="translate(170.117188 0)"/>
     <use xlink:href="#DejaVuSans-74" transform="translate(233.59375 0)"/>
     <use xlink:href="#DejaVuSans-6f" transform="translate(272.802734 0)"/>
    </g>
    <!-- (base) -->
    <g style="fill: #66ccff" transform="translate(502.045872 -73335138556834324480) scale(0.065 -0.065)">
     <use xlink:href="#DejaVuSans-28"/>
     <use xlink:href="#DejaVuSans-62" transform="translate(39.013672 0)"/>
     <use xlink:href="#DejaVuSans-61" transform="translate(102.490234 0)"/>
     <use xlink:href="#DejaVuSans-73" transform="translate(163.769531 0)"/>
     <use xlink:href="#DejaVuSans-65" transform="translate(215.869141 0)"/>
     <use xlink:href="#DejaVuSans-29" transform="translate(277.392578 0)"/>
    </g>
   </g>
   <g id="text_21">
    <!-- AI -->
    <g style="fill: #4488ff" transform="translate(550.49013 -1169026728429665772588187442638487552) scale(0.065 -0.065)">
     <use xlink:href="#DejaVuSans-41"/>
     <use xlink:href="#DejaVuSans-49" transform="translate(68.408203 0)"/>
    </g>
    <!-- (con) -->
    <g style="fill: #4488ff" transform="translate(545.300794 -1169026728429665772588187442638487552) scale(0.065 -0.065)">
     <use xlink:href="#DejaVuSans-28"/>
     <use xlink:href="#DejaVuSans-63" transform="translate(39.013672 0)"/>
     <use xlink:href="#DejaVuSans-6f" transform="translate(93.994141 0)"/>
     <use xlink:href="#DejaVuSans-6e" transform="translate(155.175781 0)"/>
     <use xlink:href="#DejaVuSans-29" transform="translate(218.554688 0)"/>
    </g>
   </g>
   <g id="text_22">
    <!-- Crooks Fluctuation Ratio vs Constraint Level -->
    <g style="fill: #ccccdd" transform="translate(241.955 16.318125) scale(0.12 -0.12)">
     <defs>
      <path id="DejaVuSans-46" d="M 628 4666 
L 3309 4666 
L 3309 4134 
L 1259 4134 
L 1259 2759 
L 3109 2759 
L 3109 2228 
L 1259 2228 
L 1259 0 
L 628 0 
L 628 4666 
z
" transform="scale(0.015625)"/>
      <path id="DejaVuSans-4c" d="M 628 4666 
L 1259 4666 
L 1259 531 
L 3531 531 
L 3531 0 
L 628 0 
L 628 4666 
z
" transform="scale(0.015625)"/>
     </defs>
     <use xlink:href="#DejaVuSans-43"/>
     <use xlink:href="#DejaVuSans-72" transform="translate(69.824219 0)"/>
     <use xlink:href="#DejaVuSans-6f" transform="translate(108.6875 0)"/>
     <use xlink:href="#DejaVuSans-6f" transform="translate(169.869141 0)"/>
     <use xlink:href="#DejaVuSans-6b" transform="translate(231.050781 0)"/>
     <use xlink:href="#DejaVuSans-73" transform="translate(288.960938 0)"/>
     <use xlink:href="#DejaVuSans-20" transform="translate(341.060547 0)"/>
     <use xlink:href="#DejaVuSans-46" transform="translate(372.847656 0)"/>
     <use xlink:href="#DejaVuSans-6c" transform="translate(430.367188 0)"/>
     <use xlink:href="#DejaVuSans-75" transform="translate(458.150391 0)"/>
     <use xlink:href="#DejaVuSans-63" transform="translate(521.529297 0)"/>
     <use xlink:href="#DejaVuSans-74" transform="translate(576.509766 0)"/>
     <use xlink:href="#DejaVuSans-75" transform="translate(615.71875 0)"/>
     <use xlink:href="#DejaVuSans-61" transform="translate(679.097656 0)"/>
     <use xlink:href="#DejaVuSans-74" transform="translate(740.376953 0)"/>
     <use xlink:href="#DejaVuSans-69" transform="translate(779.585938 0)"/>
     <use xlink:href="#DejaVuSans-6f" transform="translate(807.369141 0)"/>
     <use xlink:href="#DejaVuSans-6e" transform="translate(868.550781 0)"/>
     <use xlink:href="#DejaVuSans-20" transform="translate(931.929688 0)"/>
     <use xlink:href="#DejaVuSans-52" transform="translate(963.716797 0)"/>
     <use xlink:href="#DejaVuSans-61" transform="translate(1030.949219 0)"/>
     <use xlink:href="#DejaVuSans-74" transform="translate(1092.228516 0)"/>
     <use xlink:href="#DejaVuSans-69" transform="translate(1131.4375 0)"/>
     <use xlink:href="#DejaVuSans-6f" transform="translate(1159.220703 0)"/>
     <use xlink:href="#DejaVuSans-20" transform="translate(1220.402344 0)"/>
     <use xlink:href="#DejaVuSans-76" transform="translate(1252.189453 0)"/>
     <use xlink:href="#DejaVuSans-73" transform="translate(1311.369141 0)"/>
     <use xlink:href="#DejaVuSans-20" transform="translate(1363.46875 0)"/>
     <use xlink:href="#DejaVuSans-43" transform="translate(1395.255859 0)"/>
     <use xlink:href="#DejaVuSans-6f" transform="translate(1465.080078 0)"/>
     <use xlink:href="#DejaVuSans-6e" transform="translate(1526.261719 0)"/>
     <use xlink:href="#DejaVuSans-73" transform="translate(1589.640625 0)"/>
     <use xlink:href="#DejaVuSans-74" transform="translate(1641.740234 0)"/>
     <use xlink:href="#DejaVuSans-72" transform="translate(1680.949219 0)"/>
     <use xlink:href="#DejaVuSans-61" transform="translate(1722.0625 0)"/>
     <use xlink:href="#DejaVuSans-69" transform="translate(1783.341797 0)"/>
     <use xlink:href="#DejaVuSans-6e" transform="translate(1811.125 0)"/>
     <use xlink:href="#DejaVuSans-74" transform="translate(1874.503906 0)"/>
     <use xlink:href="#DejaVuSans-20" transform="translate(1913.712891 0)"/>
     <use xlink:href="#DejaVuSans-4c" transform="translate(1945.5 0)"/>
     <use xlink:href="#DejaVuSans-65" transform="translate(1999.462891 0)"/>
     <use xlink:href="#DejaVuSans-76" transform="translate(2060.986328 0)"/>
     <use xlink:href="#DejaVuSans-65" transform="translate(2120.166016 0)"/>
     <use xlink:href="#DejaVuSans-6c" transform="translate(2181.689453 0)"/>
    </g>
   </g>
   <g id="legend_1">
    <g id="patch_10">
     <path d="M 573.947969 100.786875 
L 700.01125 100.786875 
Q 701.51125 100.786875 701.51125 99.286875 
L 701.51125 33.568125 
Q 701.51125 32.068125 700.01125 32.068125 
L 573.947969 32.068125 
Q 572.447969 32.068125 572.447969 33.568125 
L 572.447969 99.286875 
Q 572.447969 100.786875 573.947969 100.786875 
z
" style="fill: #060810; opacity: 0.25; stroke: #cccccc; stroke-linejoin: miter"/>
    </g>
    <g id="patch_11">
     <path d="M 575.447969 40.766953 
L 590.447969 40.766953 
L 590.447969 35.516953 
L 575.447969 35.516953 
z
" style="fill: #ff4444; opacity: 0.08; stroke: #ff4444; stroke-linejoin: miter"/>
    </g>
    <g id="text_23">
     <!-- Drift regime (Pe &gt; 0) -->
     <g style="fill: #ccccdd" transform="translate(596.447969 40.766953) scale(0.075 -0.075)">
      <defs>
       <path id="DejaVuSans-44" d="M 1259 4147 
L 1259 519 
L 2022 519 
Q 2988 519 3436 956 
Q 3884 1394 3884 2338 
Q 3884 3275 3436 3711 
Q 2988 4147 2022 4147 
L 1259 4147 
z
M 628 4666 
L 1925 4666 
Q 3281 4666 3915 4102 
Q 4550 3538 4550 2338 
Q 4550 1131 3912 565 
Q 3275 0 1925 0 
L 628 0 
L 628 4666 
z
" transform="scale(0.015625)"/>
       <path id="DejaVuSans-66" d="M 2375 4863 
L 2375 4384 
L 1825 4384 
Q 1516 4384 1395 4259 
Q 1275 4134 1275 3809 
L 1275 3500 
L 2222 3500 
L 2222 3053 
L 1275 3053 
L 1275 0 
L 697 0 
L 697 3053 
L 147 3053 
L 147 3500 
L 697 3500 
L 697 3744 
Q 697 4328 969 4595 
Q 1241 4863 1831 4863 
L 2375 4863 
z
" transform="scale(0.015625)"/>
       <path id="DejaVuSans-50" d="M 1259 4147 
L 1259 2394 
L 2053 2394 
Q 2494 2394 2734 2622 
Q 2975 2850 2975 3272 
Q 2975 3691 2734 3919 
Q 2494 4147 2053 4147 
L 1259 4147 
z
M 628 4666 
L 2053 4666 
Q 2838 4666 3239 4311 
Q 3641 3956 3641 3272 
Q 3641 2581 3239 2228 
Q 2838 1875 2053 1875 
L 1259 1875 
L 1259 0 
L 628 0 
L 628 4666 
z
" transform="scale(0.015625)"/>
       <path id="DejaVuSans-3e" d="M 678 3150 
L 678 3719 
L 4684 2266 
L 4684 1747 
L 678 294 
L 678 863 
L 3897 2003 
L 678 3150 
z
" transform="scale(0.015625)"/>
      </defs>
      <use xlink:href="#DejaVuSans-44"/>
      <use xlink:href="#DejaVuSans-72" transform="translate(77.001953 0)"/>
      <use xlink:href="#DejaVuSans-69" transform="translate(118.115234 0)"/>
      <use xlink:href="#DejaVuSans-66" transform="translate(145.898438 0)"/>
      <use xlink:href="#DejaVuSans-74" transform="translate(179.353516 0)"/>
      <use xlink:href="#DejaVuSans-20" transform="translate(218.5625 0)"/>
      <use xlink:href="#DejaVuSans-72" transform="translate(250.349609 0)"/>
      <use xlink:href="#DejaVuSans-65" transform="translate(289.212891 0)"/>
      <use xlink:href="#DejaVuSans-67" transform="translate(350.736328 0)"/>
      <use xlink:href="#DejaVuSans-69" transform="translate(414.212891 0)"/>
      <use xlink:href="#DejaVuSans-6d" transform="translate(441.996094 0)"/>
      <use xlink:href="#DejaVuSans-65" transform="translate(539.408203 0)"/>
      <use xlink:href="#DejaVuSans-20" transform="translate(600.931641 0)"/>
      <use xlink:href="#DejaVuSans-28" transform="translate(632.71875 0)"/>
      <use xlink:href="#DejaVuSans-50" transform="translate(671.732422 0)"/>
      <use xlink:href="#DejaVuSans-65" transform="translate(728.410156 0)"/>
      <use xlink:href="#DejaVuSans-20" transform="translate(789.933594 0)"/>
      <use xlink:href="#DejaVuSans-3e" transform="translate(821.720703 0)"/>
      <use xlink:href="#DejaVuSans-20" transform="translate(905.509766 0)"/>
      <use xlink:href="#DejaVuSans-30" transform="translate(937.296875 0)"/>
      <use xlink:href="#DejaVuSans-29" transform="translate(1000.919922 0)"/>
     </g>
    </g>
    <g id="patch_12">
     <path d="M 575.447969 51.775547 
L 590.447969 51.775547 
L 590.447969 46.525547 
L 575.447969 46.525547 
z
" style="fill: #4488ff; opacity: 0.06; stroke: #4488ff; stroke-linejoin: miter"/>
    </g>
    <g id="text_24">
     <!-- Diffusion regime (Pe &lt; 0) -->
     <g style="fill: #ccccdd" transform="translate(596.447969 51.775547) scale(0.075 -0.075)">
      <defs>
       <path id="DejaVuSans-3c" d="M 4684 3150 
L 1459 2003 
L 4684 863 
L 4684 294 
L 678 1747 
L 678 2266 
L 4684 3719 
L 4684 3150 
z
" transform="scale(0.015625)"/>
      </defs>
      <use xlink:href="#DejaVuSans-44"/>
      <use xlink:href="#DejaVuSans-69" transform="translate(77.001953 0)"/>
      <use xlink:href="#DejaVuSans-66" transform="translate(104.785156 0)"/>
      <use xlink:href="#DejaVuSans-66" transform="translate(139.990234 0)"/>
      <use xlink:href="#DejaVuSans-75" transform="translate(175.195312 0)"/>
      <use xlink:href="#DejaVuSans-73" transform="translate(238.574219 0)"/>
      <use xlink:href="#DejaVuSans-69" transform="translate(290.673828 0)"/>
      <use xlink:href="#DejaVuSans-6f" transform="translate(318.457031 0)"/>
      <use xlink:href="#DejaVuSans-6e" transform="translate(379.638672 0)"/>
      <use xlink:href="#DejaVuSans-20" transform="translate(443.017578 0)"/>
      <use xlink:href="#DejaVuSans-72" transform="translate(474.804688 0)"/>
      <use xlink:href="#DejaVuSans-65" transform="translate(513.667969 0)"/>
      <use xlink:href="#DejaVuSans-67" transform="translate(575.191406 0)"/>
      <use xlink:href="#DejaVuSans-69" transform="translate(638.667969 0)"/>
      <use xlink:href="#DejaVuSans-6d" transform="translate(666.451172 0)"/>
      <use xlink:href="#DejaVuSans-65" transform="translate(763.863281 0)"/>
      <use xlink:href="#DejaVuSans-20" transform="translate(825.386719 0)"/>
      <use xlink:href="#DejaVuSans-28" transform="translate(857.173828 0)"/>
      <use xlink:href="#DejaVuSans-50" transform="translate(896.1875 0)"/>
      <use xlink:href="#DejaVuSans-65" transform="translate(952.865234 0)"/>
      <use xlink:href="#DejaVuSans-20" transform="translate(1014.388672 0)"/>
      <use xlink:href="#DejaVuSans-3c" transform="translate(1046.175781 0)"/>
      <use xlink:href="#DejaVuSans-20" transform="translate(1129.964844 0)"/>
      <use xlink:href="#DejaVuSans-30" transform="translate(1161.751953 0)"/>
      <use xlink:href="#DejaVuSans-29" transform="translate(1225.375 0)"/>
     </g>
    </g>
    <g id="line2d_27">
     <path d="M 575.447969 60.159141 
L 582.947969 60.159141 
L 590.447969 60.159141 
" style="fill: none; stroke-dasharray: 2.96,1.28; stroke-dashoffset: 0; stroke: #ffffff; stroke-opacity: 0.35; stroke-width: 0.8"/>
    </g>
    <g id="text_25">
     <!-- R = 1 (symmetric) -->
     <g style="fill: #ccccdd" transform="translate(596.447969 62.784141) scale(0.075 -0.075)">
      <use xlink:href="#DejaVuSans-52"/>
      <use xlink:href="#DejaVuSans-20" transform="translate(69.482422 0)"/>
      <use xlink:href="#DejaVuSans-3d" transform="translate(101.269531 0)"/>
      <use xlink:href="#DejaVuSans-20" transform="translate(185.058594 0)"/>
      <use xlink:href="#DejaVuSans-31" transform="translate(216.845703 0)"/>
      <use xlink:href="#DejaVuSans-20" transform="translate(280.46875 0)"/>
      <use xlink:href="#DejaVuSans-28" transform="translate(312.255859 0)"/>
      <use xlink:href="#DejaVuSans-73" transform="translate(351.269531 0)"/>
      <use xlink:href="#DejaVuSans-79" transform="translate(403.369141 0)"/>
      <use xlink:href="#DejaVuSans-6d" transform="translate(462.548828 0)"/>
      <use xlink:href="#DejaVuSans-6d" transform="translate(559.960938 0)"/>
      <use xlink:href="#DejaVuSans-65" transform="translate(657.373047 0)"/>
      <use xlink:href="#DejaVuSans-74" transform="translate(718.896484 0)"/>
      <use xlink:href="#DejaVuSans-72" transform="translate(758.105469 0)"/>
      <use xlink:href="#DejaVuSans-69" transform="translate(799.21875 0)"/>
      <use xlink:href="#DejaVuSans-63" transform="translate(827.001953 0)"/>
      <use xlink:href="#DejaVuSans-29" transform="translate(881.982422 0)"/>
     </g>
    </g>
    <g id="line2d_28">
     <path d="M 575.447969 71.167734 
L 582.947969 71.167734 
L 590.447969 71.167734 
" style="fill: none; stroke: #ffaa22; stroke-width: 2.5; stroke-linecap: square"/>
    </g>
    <g id="text_26">
     <!-- R_Crooks (Pe &gt; 0) -->
     <g style="fill: #ccccdd" transform="translate(596.447969 73.792734) scale(0.075 -0.075)">
      <use xlink:href="#DejaVuSans-52"/>
      <use xlink:href="#DejaVuSans-5f" transform="translate(69.482422 0)"/>
      <use xlink:href="#DejaVuSans-43" transform="translate(119.482422 0)"/>
      <use xlink:href="#DejaVuSans-72" transform="translate(189.306641 0)"/>
      <use xlink:href="#DejaVuSans-6f" transform="translate(228.169922 0)"/>
      <use xlink:href="#DejaVuSans-6f" transform="translate(289.351562 0)"/>
      <use xlink:href="#DejaVuSans-6b" transform="translate(350.533203 0)"/>
      <use xlink:href="#DejaVuSans-73" transform="translate(408.443359 0)"/>
      <use xlink:href="#DejaVuSans-20" transform="translate(460.542969 0)"/>
      <use xlink:href="#DejaVuSans-28" transform="translate(492.330078 0)"/>
      <use xlink:href="#DejaVuSans-50" transform="translate(531.34375 0)"/>
      <use xlink:href="#DejaVuSans-65" transform="translate(588.021484 0)"/>
      <use xlink:href="#DejaVuSans-20" transform="translate(649.544922 0)"/>
      <use xlink:href="#DejaVuSans-3e" transform="translate(681.332031 0)"/>
      <use xlink:href="#DejaVuSans-20" transform="translate(765.121094 0)"/>
      <use xlink:href="#DejaVuSans-30" transform="translate(796.908203 0)"/>
      <use xlink:href="#DejaVuSans-29" transform="translate(860.53125 0)"/>
     </g>
    </g>
    <g id="line2d_29">
     <path d="M 575.447969 82.384922 
L 582.947969 82.384922 
L 590.447969 82.384922 
" style="fill: none; stroke: #6699ff; stroke-width: 2.5; stroke-linecap: square"/>
    </g>
    <g id="text_27">
     <!-- R_Crooks (Pe &lt; 0) -->
     <g style="fill: #ccccdd" transform="translate(596.447969 85.009922) scale(0.075 -0.075)">
      <use xlink:href="#DejaVuSans-52"/>
      <use xlink:href="#DejaVuSans-5f" transform="translate(69.482422 0)"/>
      <use xlink:href="#DejaVuSans-43" transform="translate(119.482422 0)"/>
      <use xlink:href="#DejaVuSans-72" transform="translate(189.306641 0)"/>
      <use xlink:href="#DejaVuSans-6f" transform="translate(228.169922 0)"/>
      <use xlink:href="#DejaVuSans-6f" transform="translate(289.351562 0)"/>
      <use xlink:href="#DejaVuSans-6b" transform="translate(350.533203 0)"/>
      <use xlink:href="#DejaVuSans-73" transform="translate(408.443359 0)"/>
      <use xlink:href="#DejaVuSans-20" transform="translate(460.542969 0)"/>
      <use xlink:href="#DejaVuSans-28" transform="translate(492.330078 0)"/>
      <use xlink:href="#DejaVuSans-50" transform="translate(531.34375 0)"/>
      <use xlink:href="#DejaVuSans-65" transform="translate(588.021484 0)"/>
      <use xlink:href="#DejaVuSans-20" transform="translate(649.544922 0)"/>
      <use xlink:href="#DejaVuSans-3c" transform="translate(681.332031 0)"/>
      <use xlink:href="#DejaVuSans-20" transform="translate(765.121094 0)"/>
      <use xlink:href="#DejaVuSans-30" transform="translate(796.908203 0)"/>
      <use xlink:href="#DejaVuSans-29" transform="translate(860.53125 0)"/>
     </g>
    </g>
    <g id="PathCollection_1">
     <defs>
      <path id="mb6140c3194" d="M 0 5.477226 
C 1.452577 5.477226 2.845856 4.900111 3.872983 3.872983 
C 4.900111 2.845856 5.477226 1.452577 5.477226 0 
C 5.477226 -1.452577 4.900111 -2.845856 3.872983 -3.872983 
C 2.845856 -4.900111 1.452577 -5.477226 0 -5.477226 
C -1.452577 -5.477226 -2.845856 -4.900111 -3.872983 -3.872983 
C -4.900111 -2.845856 -5.477226 -1.452577 -5.477226 0 
C -5.477226 1.452577 -4.900111 2.845856 -3.872983 3.872983 
C -2.845856 4.900111 -1.452577 5.477226 0 5.477226 
z
" style="stroke: #ffd700"/>
     </defs>
     <g>
      <use xlink:href="#mb6140c3194" x="582.947969" y="94.258359" style="fill: #ffd700; stroke: #ffd700"/>
     </g>
    </g>
    <g id="text_28">
     <!-- nb15 empirical GM (1.18) -->
     <g style="fill: #ccccdd" transform="translate(596.447969 96.227109) scale(0.075 -0.075)">
      <defs>
       <path id="DejaVuSans-d7" d="M 4488 3438 
L 3059 2003 
L 4488 575 
L 4116 197 
L 2681 1631 
L 1247 197 
L 878 575 
L 2303 2003 
L 878 3438 
L 1247 3816 
L 2681 2381 
L 4116 3816 
L 4488 3438 
z
" transform="scale(0.015625)"/>
      </defs>
      <use xlink:href="#DejaVuSans-6e"/>
      <use xlink:href="#DejaVuSans-62" transform="translate(63.378906 0)"/>
      <use xlink:href="#DejaVuSans-31" transform="translate(126.855469 0)"/>
      <use xlink:href="#DejaVuSans-35" transform="translate(190.478516 0)"/>
      <use xlink:href="#DejaVuSans-20" transform="translate(254.101562 0)"/>
      <use xlink:href="#DejaVuSans-65" transform="translate(285.888672 0)"/>
      <use xlink:href="#DejaVuSans-6d" transform="translate(347.412109 0)"/>
      <use xlink:href="#DejaVuSans-70" transform="translate(444.824219 0)"/>
      <use xlink:href="#DejaVuSans-69" transform="translate(508.300781 0)"/>
      <use xlink:href="#DejaVuSans-72" transform="translate(536.083984 0)"/>
      <use xlink:href="#DejaVuSans-69" transform="translate(577.197266 0)"/>
      <use xlink:href="#DejaVuSans-63" transform="translate(604.980469 0)"/>
      <use xlink:href="#DejaVuSans-61" transform="translate(659.960938 0)"/>
      <use xlink:href="#DejaVuSans-6c" transform="translate(721.240234 0)"/>
      <use xlink:href="#DejaVuSans-20" transform="translate(749.023438 0)"/>
      <use xlink:href="#DejaVuSans-47" transform="translate(780.810547 0)"/>
      <use xlink:href="#DejaVuSans-4d" transform="translate(858.300781 0)"/>
      <use xlink:href="#DejaVuSans-20" transform="translate(944.580078 0)"/>
      <use xlink:href="#DejaVuSans-28" transform="translate(976.367188 0)"/>
      <use xlink:href="#DejaVuSans-31" transform="translate(1015.380859 0)"/>
      <use xlink:href="#DejaVuSans-2e" transform="translate(1079.003906 0)"/>
      <use xlink:href="#DejaVuSans-31" transform="translate(1110.791016 0)"/>
      <use xlink:href="#DejaVuSans-38" transform="translate(1174.414062 0)"/>
      <use xlink:href="#DejaVuSans-d7" transform="translate(1238.037109 0)"/>
      <use xlink:href="#DejaVuSans-29" transform="translate(1321.826172 0)"/>
     </g>
    </g>
   </g>
   <g id="PathCollection_2">
    <defs>
     <path id="ma89414d80e" d="M 0 3.872983 
C 1.027127 3.872983 2.012324 3.464901 2.738613 2.738613 
C 3.464901 2.012324 3.872983 1.027127 3.872983 0 
C 3.872983 -1.027127 3.464901 -2.012324 2.738613 -2.738613 
C 2.012324 -3.464901 1.027127 -3.872983 0 -3.872983 
C -1.027127 -3.872983 -2.012324 -3.464901 -2.738613 -2.738613 
C -3.464901 -2.012324 -3.872983 -1.027127 -3.872983 0 
C -3.872983 1.027127 -3.464901 2.012324 -2.738613 2.738613 
C -2.012324 3.464901 -1.027127 3.872983 0 3.872983 
z
" style="stroke: #ff2222; stroke-opacity: 0.9"/>
    </defs>
    <g clip-path="url(#p9251f0b6db)">
     <use xlink:href="#ma89414d80e" x="71.342917" y="380.132411" style="fill: #ff2222; fill-opacity: 0.9; stroke: #ff2222; stroke-opacity: 0.9"/>
    </g>
   </g>
   <g id="PathCollection_3">
    <defs>
     <path id="m00ed063e86" d="M 0 3.872983 
C 1.027127 3.872983 2.012324 3.464901 2.738613 2.738613 
C 3.464901 2.012324 3.872983 1.027127 3.872983 0 
C 3.872983 -1.027127 3.464901 -2.012324 2.738613 -2.738613 
C 2.012324 -3.464901 1.027127 -3.872983 0 -3.872983 
C -1.027127 -3.872983 -2.012324 -3.464901 -2.738613 -2.738613 
C -3.464901 -2.012324 -3.872983 -1.027127 -3.872983 0 
C -3.872983 1.027127 -3.464901 2.012324 -2.738613 2.738613 
C -2.012324 3.464901 -1.027127 3.872983 0 3.872983 
z
" style="stroke: #ff8844; stroke-opacity: 0.9"/>
    </defs>
    <g clip-path="url(#p9251f0b6db)">
     <use xlink:href="#m00ed063e86" x="209.15125" y="380.132411" style="fill: #ff8844; fill-opacity: 0.9; stroke: #ff8844; stroke-opacity: 0.9"/>
    </g>
   </g>
   <g id="PathCollection_4">
    <defs>
     <path id="mce2c015c2f" d="M 0 3.872983 
C 1.027127 3.872983 2.012324 3.464901 2.738613 2.738613 
C 3.464901 2.012324 3.872983 1.027127 3.872983 0 
C 3.872983 -1.027127 3.464901 -2.012324 2.738613 -2.738613 
C 2.012324 -3.464901 1.027127 -3.872983 0 -3.872983 
C -1.027127 -3.872983 -2.012324 -3.464901 -2.738613 -2.738613 
C -3.464901 -2.012324 -3.872983 -1.027127 -3.872983 0 
C -3.872983 1.027127 -3.464901 2.012324 -2.738613 2.738613 
C -2.012324 3.464901 -1.027127 3.872983 0 3.872983 
z
" style="stroke: #ffaa22; stroke-opacity: 0.9"/>
    </defs>
    <g clip-path="url(#p9251f0b6db)">
     <use xlink:href="#mce2c015c2f" x="278.055417" y="380.132411" style="fill: #ffaa22; fill-opacity: 0.9; stroke: #ffaa22; stroke-opacity: 0.9"/>
    </g>
   </g>
   <g id="PathCollection_5">
    <defs>
     <path id="md2351c9e39" d="M 0 3.872983 
C 1.027127 3.872983 2.012324 3.464901 2.738613 2.738613 
C 3.464901 2.012324 3.872983 1.027127 3.872983 0 
C 3.872983 -1.027127 3.464901 -2.012324 2.738613 -2.738613 
C 2.012324 -3.464901 1.027127 -3.872983 0 -3.872983 
C -1.027127 -3.872983 -2.012324 -3.464901 -2.738613 -2.738613 
C -3.464901 -2.012324 -3.872983 -1.027127 -3.872983 0 
C -3.872983 1.027127 -3.464901 2.012324 -2.738613 2.738613 
C -2.012324 3.464901 -1.027127 3.872983 0 3.872983 
z
" style="stroke: #aaaaff; stroke-opacity: 0.9"/>
    </defs>
    <g clip-path="url(#p9251f0b6db)">
     <use xlink:href="#md2351c9e39" x="346.959583" y="380.132411" style="fill: #aaaaff; fill-opacity: 0.9; stroke: #aaaaff; stroke-opacity: 0.9"/>
    </g>
   </g>
   <g id="PathCollection_6">
    <defs>
     <path id="mbc1ae859a0" d="M 0 3.872983 
C 1.027127 3.872983 2.012324 3.464901 2.738613 2.738613 
C 3.464901 2.012324 3.872983 1.027127 3.872983 0 
C 3.872983 -1.027127 3.464901 -2.012324 2.738613 -2.738613 
C 2.012324 -3.464901 1.027127 -3.872983 0 -3.872983 
C -1.027127 -3.872983 -2.012324 -3.464901 -2.738613 -2.738613 
C -3.464901 -2.012324 -3.872983 -1.027127 -3.872983 0 
C -3.872983 1.027127 -3.464901 2.012324 -2.738613 2.738613 
C -2.012324 3.464901 -1.027127 3.872983 0 3.872983 
z
" style="stroke: #66ccff; stroke-opacity: 0.9"/>
    </defs>
    <g clip-path="url(#p9251f0b6db)"/>
   </g>
   <g id="PathCollection_7">
    <defs>
     <path id="mf93ed8ffd8" d="M 0 3.872983 
C 1.027127 3.872983 2.012324 3.464901 2.738613 2.738613 
C 3.464901 2.012324 3.872983 1.027127 3.872983 0 
C 3.872983 -1.027127 3.464901 -2.012324 2.738613 -2.738613 
C 2.012324 -3.464901 1.027127 -3.872983 0 -3.872983 
C -1.027127 -3.872983 -2.012324 -3.464901 -2.738613 -2.738613 
C -3.464901 -2.012324 -3.872983 -1.027127 -3.872983 0 
C -3.872983 1.027127 -3.464901 2.012324 -2.738613 2.738613 
C -2.012324 3.464901 -1.027127 3.872983 0 3.872983 
z
" style="stroke: #4488ff; stroke-opacity: 0.9"/>
    </defs>
    <g clip-path="url(#p9251f0b6db)"/>
   </g>
   <g id="PathCollection_8">
    <g clip-path="url(#p9251f0b6db)">
     <use xlink:href="#mb6140c3194" x="461.3405" y="241.752125" style="fill: #ffd700; stroke: #ffd700"/>
     <use xlink:href="#mb6140c3194" x="470.987083" y="241.752125" style="fill: #ffd700; stroke: #ffd700"/>
    </g>
   </g>
  </g>
 </g>
 <defs>
  <clipPath id="p9251f0b6db">
   <rect x="43.78125" y="28.318125" width="661.48" height="328.36"/>
  </clipPath>
 </defs>
</svg>
