<?xml version="1.0" encoding="utf-8" standalone="no"?>
<!DOCTYPE svg PUBLIC "-//W3C//DTD SVG 1.1//EN"
  "http://www.w3.org/Graphics/SVG/1.1/DTD/svg11.dtd">
<svg xmlns:xlink="http://www.w3.org/1999/xlink" width="1000.430845pt" height="348.370344pt" viewBox="0 0 1000.430845 348.370344" xmlns="http://www.w3.org/2000/svg" version="1.1">
 <metadata>
  <rdf:RDF xmlns:dc="http://purl.org/dc/elements/1.1/" xmlns:cc="http://creativecommons.org/ns#" xmlns:rdf="http://www.w3.org/1999/02/22-rdf-syntax-ns#">
   <cc:Work>
    <dc:type rdf:resource="http://purl.org/dc/dcmitype/StillImage"/>
    <dc:date>2026-02-22T05:34:24.071280</dc:date>
    <dc:format>image/svg+xml</dc:format>
    <dc:creator>
     <cc:Agent>
      <dc:title>Matplotlib v3.10.8, https://matplotlib.org/</dc:title>
     </cc:Agent>
    </dc:creator>
   </cc:Work>
  </rdf:RDF>
 </metadata>
 <defs>
  <style type="text/css">*{stroke-linejoin: round; stroke-linecap: butt}</style>
 </defs>
 <g id="figure_1">
  <g id="patch_1">
   <path d="M 0 348.370344 
L 1000.430845 348.370344 
L 1000.430845 0 
L 0 0 
z
" style="fill: #ffffff"/>
  </g>
  <g id="axes_1">
   <g id="patch_2">
    <path d="M 44.749063 309.406281 
L 485.830845 309.406281 
L 485.830845 21.558281 
L 44.749063 21.558281 
z
" style="fill: #ffffff"/>
   </g>
   <g id="matplotlib.axis_1">
    <g id="xtick_1">
     <g id="line2d_1">
      <defs>
       <path id="m081ae25d55" d="M 0 0 
L 0 3.5 
" style="stroke: #000000; stroke-width: 0.8"/>
      </defs>
      <g>
       <use xlink:href="#m081ae25d55" x="44.749063" y="309.406281" style="stroke: #000000; stroke-width: 0.8"/>
      </g>
     </g>
     <g id="text_1">
      <!-- $\mathdefault{10^{-1}}$ -->
      <g transform="translate(32.999063 324.004719) scale(0.1 -0.1)">
       <defs>
        <path id="DejaVuSans-31" d="M 794 531 
L 1825 531 
L 1825 4091 
L 703 3866 
L 703 4441 
L 1819 4666 
L 2450 4666 
L 2450 531 
L 3481 531 
L 3481 0 
L 794 0 
L 794 531 
z
" transform="scale(0.015625)"/>
        <path id="DejaVuSans-30" d="M 2034 4250 
Q 1547 4250 1301 3770 
Q 1056 3291 1056 2328 
Q 1056 1369 1301 889 
Q 1547 409 2034 409 
Q 2525 409 2770 889 
Q 3016 1369 3016 2328 
Q 3016 3291 2770 3770 
Q 2525 4250 2034 4250 
z
M 2034 4750 
Q 2819 4750 3233 4129 
Q 3647 3509 3647 2328 
Q 3647 1150 3233 529 
Q 2819 -91 2034 -91 
Q 1250 -91 836 529 
Q 422 1150 422 2328 
Q 422 3509 836 4129 
Q 1250 4750 2034 4750 
z
" transform="scale(0.015625)"/>
        <path id="DejaVuSans-2212" d="M 678 2272 
L 4684 2272 
L 4684 1741 
L 678 1741 
L 678 2272 
z
" transform="scale(0.015625)"/>
       </defs>
       <use xlink:href="#DejaVuSans-31" transform="translate(0 0.684375)"/>
       <use xlink:href="#DejaVuSans-30" transform="translate(63.623047 0.684375)"/>
       <use xlink:href="#DejaVuSans-2212" transform="translate(128.203125 38.965625) scale(0.7)"/>
       <use xlink:href="#DejaVuSans-31" transform="translate(186.855469 38.965625) scale(0.7)"/>
      </g>
     </g>
    </g>
    <g id="xtick_2">
     <g id="line2d_2">
      <g>
       <use xlink:href="#m081ae25d55" x="118.262693" y="309.406281" style="stroke: #000000; stroke-width: 0.8"/>
      </g>
     </g>
     <g id="text_2">
      <!-- $\mathdefault{10^{0}}$ -->
      <g transform="translate(109.462693 324.004719) scale(0.1 -0.1)">
       <use xlink:href="#DejaVuSans-31" transform="translate(0 0.765625)"/>
       <use xlink:href="#DejaVuSans-30" transform="translate(63.623047 0.765625)"/>
       <use xlink:href="#DejaVuSans-30" transform="translate(128.203125 39.046875) scale(0.7)"/>
      </g>
     </g>
    </g>
    <g id="xtick_3">
     <g id="line2d_3">
      <g>
       <use xlink:href="#m081ae25d55" x="191.776323" y="309.406281" style="stroke: #000000; stroke-width: 0.8"/>
      </g>
     </g>
     <g id="text_3">
      <!-- $\mathdefault{10^{1}}$ -->
      <g transform="translate(182.976323 324.004719) scale(0.1 -0.1)">
       <use xlink:href="#DejaVuSans-31" transform="translate(0 0.684375)"/>
       <use xlink:href="#DejaVuSans-30" transform="translate(63.623047 0.684375)"/>
       <use xlink:href="#DejaVuSans-31" transform="translate(128.203125 38.965625) scale(0.7)"/>
      </g>
     </g>
    </g>
    <g id="xtick_4">
     <g id="line2d_4">
      <g>
       <use xlink:href="#m081ae25d55" x="265.289954" y="309.406281" style="stroke: #000000; stroke-width: 0.8"/>
      </g>
     </g>
     <g id="text_4">
      <!-- $\mathdefault{10^{2}}$ -->
      <g transform="translate(256.489954 324.004719) scale(0.1 -0.1)">
       <defs>
        <path id="DejaVuSans-32" d="M 1228 531 
L 3431 531 
L 3431 0 
L 469 0 
L 469 531 
Q 828 903 1448 1529 
Q 2069 2156 2228 2338 
Q 2531 2678 2651 2914 
Q 2772 3150 2772 3378 
Q 2772 3750 2511 3984 
Q 2250 4219 1831 4219 
Q 1534 4219 1204 4116 
Q 875 4013 500 3803 
L 500 4441 
Q 881 4594 1212 4672 
Q 1544 4750 1819 4750 
Q 2544 4750 2975 4387 
Q 3406 4025 3406 3419 
Q 3406 3131 3298 2873 
Q 3191 2616 2906 2266 
Q 2828 2175 2409 1742 
Q 1991 1309 1228 531 
z
" transform="scale(0.015625)"/>
       </defs>
       <use xlink:href="#DejaVuSans-31" transform="translate(0 0.765625)"/>
       <use xlink:href="#DejaVuSans-30" transform="translate(63.623047 0.765625)"/>
       <use xlink:href="#DejaVuSans-32" transform="translate(128.203125 39.046875) scale(0.7)"/>
      </g>
     </g>
    </g>
    <g id="xtick_5">
     <g id="line2d_5">
      <g>
       <use xlink:href="#m081ae25d55" x="338.803584" y="309.406281" style="stroke: #000000; stroke-width: 0.8"/>
      </g>
     </g>
     <g id="text_5">
      <!-- $\mathdefault{10^{3}}$ -->
      <g transform="translate(330.003584 324.004719) scale(0.1 -0.1)">
       <defs>
        <path id="DejaVuSans-33" d="M 2597 2516 
Q 3050 2419 3304 2112 
Q 3559 1806 3559 1356 
Q 3559 666 3084 287 
Q 2609 -91 1734 -91 
Q 1441 -91 1130 -33 
Q 819 25 488 141 
L 488 750 
Q 750 597 1062 519 
Q 1375 441 1716 441 
Q 2309 441 2620 675 
Q 2931 909 2931 1356 
Q 2931 1769 2642 2001 
Q 2353 2234 1838 2234 
L 1294 2234 
L 1294 2753 
L 1863 2753 
Q 2328 2753 2575 2939 
Q 2822 3125 2822 3475 
Q 2822 3834 2567 4026 
Q 2313 4219 1838 4219 
Q 1578 4219 1281 4162 
Q 984 4106 628 3988 
L 628 4550 
Q 988 4650 1302 4700 
Q 1616 4750 1894 4750 
Q 2613 4750 3031 4423 
Q 3450 4097 3450 3541 
Q 3450 3153 3228 2886 
Q 3006 2619 2597 2516 
z
" transform="scale(0.015625)"/>
       </defs>
       <use xlink:href="#DejaVuSans-31" transform="translate(0 0.765625)"/>
       <use xlink:href="#DejaVuSans-30" transform="translate(63.623047 0.765625)"/>
       <use xlink:href="#DejaVuSans-33" transform="translate(128.203125 39.046875) scale(0.7)"/>
      </g>
     </g>
    </g>
    <g id="xtick_6">
     <g id="line2d_6">
      <g>
       <use xlink:href="#m081ae25d55" x="412.317215" y="309.406281" style="stroke: #000000; stroke-width: 0.8"/>
      </g>
     </g>
     <g id="text_6">
      <!-- $\mathdefault{10^{4}}$ -->
      <g transform="translate(403.517215 324.004719) scale(0.1 -0.1)">
       <defs>
        <path id="DejaVuSans-34" d="M 2419 4116 
L 825 1625 
L 2419 1625 
L 2419 4116 
z
M 2253 4666 
L 3047 4666 
L 3047 1625 
L 3713 1625 
L 3713 1100 
L 3047 1100 
L 3047 0 
L 2419 0 
L 2419 1100 
L 313 1100 
L 313 1709 
L 2253 4666 
z
" transform="scale(0.015625)"/>
       </defs>
       <use xlink:href="#DejaVuSans-31" transform="translate(0 0.684375)"/>
       <use xlink:href="#DejaVuSans-30" transform="translate(63.623047 0.684375)"/>
       <use xlink:href="#DejaVuSans-34" transform="translate(128.203125 38.965625) scale(0.7)"/>
      </g>
     </g>
    </g>
    <g id="xtick_7">
     <g id="line2d_7">
      <g>
       <use xlink:href="#m081ae25d55" x="485.830845" y="309.406281" style="stroke: #000000; stroke-width: 0.8"/>
      </g>
     </g>
     <g id="text_7">
      <!-- $\mathdefault{10^{5}}$ -->
      <g transform="translate(477.030845 324.004719) scale(0.1 -0.1)">
       <defs>
        <path id="DejaVuSans-35" d="M 691 4666 
L 3169 4666 
L 3169 4134 
L 1269 4134 
L 1269 2991 
Q 1406 3038 1543 3061 
Q 1681 3084 1819 3084 
Q 2600 3084 3056 2656 
Q 3513 2228 3513 1497 
Q 3513 744 3044 326 
Q 2575 -91 1722 -91 
Q 1428 -91 1123 -41 
Q 819 9 494 109 
L 494 744 
Q 775 591 1075 516 
Q 1375 441 1709 441 
Q 2250 441 2565 725 
Q 2881 1009 2881 1497 
Q 2881 1984 2565 2268 
Q 2250 2553 1709 2553 
Q 1456 2553 1204 2497 
Q 953 2441 691 2322 
L 691 4666 
z
" transform="scale(0.015625)"/>
       </defs>
       <use xlink:href="#DejaVuSans-31" transform="translate(0 0.684375)"/>
       <use xlink:href="#DejaVuSans-30" transform="translate(63.623047 0.684375)"/>
       <use xlink:href="#DejaVuSans-35" transform="translate(128.203125 38.965625) scale(0.7)"/>
      </g>
     </g>
    </g>
    <g id="xtick_8">
     <g id="line2d_8">
      <defs>
       <path id="m2cd70c23cc" d="M 0 0 
L 0 2 
" style="stroke: #000000; stroke-width: 0.6"/>
      </defs>
      <g>
       <use xlink:href="#m2cd70c23cc" x="66.87887" y="309.406281" style="stroke: #000000; stroke-width: 0.6"/>
      </g>
     </g>
    </g>
    <g id="xtick_9">
     <g id="line2d_9">
      <g>
       <use xlink:href="#m2cd70c23cc" x="79.823978" y="309.406281" style="stroke: #000000; stroke-width: 0.6"/>
      </g>
     </g>
    </g>
    <g id="xtick_10">
     <g id="line2d_10">
      <g>
       <use xlink:href="#m2cd70c23cc" x="89.008678" y="309.406281" style="stroke: #000000; stroke-width: 0.6"/>
      </g>
     </g>
    </g>
    <g id="xtick_11">
     <g id="line2d_11">
      <g>
       <use xlink:href="#m2cd70c23cc" x="96.132885" y="309.406281" style="stroke: #000000; stroke-width: 0.6"/>
      </g>
     </g>
    </g>
    <g id="xtick_12">
     <g id="line2d_12">
      <g>
       <use xlink:href="#m2cd70c23cc" x="101.953786" y="309.406281" style="stroke: #000000; stroke-width: 0.6"/>
      </g>
     </g>
    </g>
    <g id="xtick_13">
     <g id="line2d_13">
      <g>
       <use xlink:href="#m2cd70c23cc" x="106.875287" y="309.406281" style="stroke: #000000; stroke-width: 0.6"/>
      </g>
     </g>
    </g>
    <g id="xtick_14">
     <g id="line2d_14">
      <g>
       <use xlink:href="#m2cd70c23cc" x="111.138486" y="309.406281" style="stroke: #000000; stroke-width: 0.6"/>
      </g>
     </g>
    </g>
    <g id="xtick_15">
     <g id="line2d_15">
      <g>
       <use xlink:href="#m2cd70c23cc" x="114.898894" y="309.406281" style="stroke: #000000; stroke-width: 0.6"/>
      </g>
     </g>
    </g>
    <g id="xtick_16">
     <g id="line2d_16">
      <g>
       <use xlink:href="#m2cd70c23cc" x="140.392501" y="309.406281" style="stroke: #000000; stroke-width: 0.6"/>
      </g>
     </g>
    </g>
    <g id="xtick_17">
     <g id="line2d_17">
      <g>
       <use xlink:href="#m2cd70c23cc" x="153.337609" y="309.406281" style="stroke: #000000; stroke-width: 0.6"/>
      </g>
     </g>
    </g>
    <g id="xtick_18">
     <g id="line2d_18">
      <g>
       <use xlink:href="#m2cd70c23cc" x="162.522309" y="309.406281" style="stroke: #000000; stroke-width: 0.6"/>
      </g>
     </g>
    </g>
    <g id="xtick_19">
     <g id="line2d_19">
      <g>
       <use xlink:href="#m2cd70c23cc" x="169.646516" y="309.406281" style="stroke: #000000; stroke-width: 0.6"/>
      </g>
     </g>
    </g>
    <g id="xtick_20">
     <g id="line2d_20">
      <g>
       <use xlink:href="#m2cd70c23cc" x="175.467416" y="309.406281" style="stroke: #000000; stroke-width: 0.6"/>
      </g>
     </g>
    </g>
    <g id="xtick_21">
     <g id="line2d_21">
      <g>
       <use xlink:href="#m2cd70c23cc" x="180.388918" y="309.406281" style="stroke: #000000; stroke-width: 0.6"/>
      </g>
     </g>
    </g>
    <g id="xtick_22">
     <g id="line2d_22">
      <g>
       <use xlink:href="#m2cd70c23cc" x="184.652116" y="309.406281" style="stroke: #000000; stroke-width: 0.6"/>
      </g>
     </g>
    </g>
    <g id="xtick_23">
     <g id="line2d_23">
      <g>
       <use xlink:href="#m2cd70c23cc" x="188.412524" y="309.406281" style="stroke: #000000; stroke-width: 0.6"/>
      </g>
     </g>
    </g>
    <g id="xtick_24">
     <g id="line2d_24">
      <g>
       <use xlink:href="#m2cd70c23cc" x="213.906131" y="309.406281" style="stroke: #000000; stroke-width: 0.6"/>
      </g>
     </g>
    </g>
    <g id="xtick_25">
     <g id="line2d_25">
      <g>
       <use xlink:href="#m2cd70c23cc" x="226.851239" y="309.406281" style="stroke: #000000; stroke-width: 0.6"/>
      </g>
     </g>
    </g>
    <g id="xtick_26">
     <g id="line2d_26">
      <g>
       <use xlink:href="#m2cd70c23cc" x="236.035939" y="309.406281" style="stroke: #000000; stroke-width: 0.6"/>
      </g>
     </g>
    </g>
    <g id="xtick_27">
     <g id="line2d_27">
      <g>
       <use xlink:href="#m2cd70c23cc" x="243.160146" y="309.406281" style="stroke: #000000; stroke-width: 0.6"/>
      </g>
     </g>
    </g>
    <g id="xtick_28">
     <g id="line2d_28">
      <g>
       <use xlink:href="#m2cd70c23cc" x="248.981047" y="309.406281" style="stroke: #000000; stroke-width: 0.6"/>
      </g>
     </g>
    </g>
    <g id="xtick_29">
     <g id="line2d_29">
      <g>
       <use xlink:href="#m2cd70c23cc" x="253.902548" y="309.406281" style="stroke: #000000; stroke-width: 0.6"/>
      </g>
     </g>
    </g>
    <g id="xtick_30">
     <g id="line2d_30">
      <g>
       <use xlink:href="#m2cd70c23cc" x="258.165747" y="309.406281" style="stroke: #000000; stroke-width: 0.6"/>
      </g>
     </g>
    </g>
    <g id="xtick_31">
     <g id="line2d_31">
      <g>
       <use xlink:href="#m2cd70c23cc" x="261.926155" y="309.406281" style="stroke: #000000; stroke-width: 0.6"/>
      </g>
     </g>
    </g>
    <g id="xtick_32">
     <g id="line2d_32">
      <g>
       <use xlink:href="#m2cd70c23cc" x="287.419762" y="309.406281" style="stroke: #000000; stroke-width: 0.6"/>
      </g>
     </g>
    </g>
    <g id="xtick_33">
     <g id="line2d_33">
      <g>
       <use xlink:href="#m2cd70c23cc" x="300.364869" y="309.406281" style="stroke: #000000; stroke-width: 0.6"/>
      </g>
     </g>
    </g>
    <g id="xtick_34">
     <g id="line2d_34">
      <g>
       <use xlink:href="#m2cd70c23cc" x="309.54957" y="309.406281" style="stroke: #000000; stroke-width: 0.6"/>
      </g>
     </g>
    </g>
    <g id="xtick_35">
     <g id="line2d_35">
      <g>
       <use xlink:href="#m2cd70c23cc" x="316.673776" y="309.406281" style="stroke: #000000; stroke-width: 0.6"/>
      </g>
     </g>
    </g>
    <g id="xtick_36">
     <g id="line2d_36">
      <g>
       <use xlink:href="#m2cd70c23cc" x="322.494677" y="309.406281" style="stroke: #000000; stroke-width: 0.6"/>
      </g>
     </g>
    </g>
    <g id="xtick_37">
     <g id="line2d_37">
      <g>
       <use xlink:href="#m2cd70c23cc" x="327.416179" y="309.406281" style="stroke: #000000; stroke-width: 0.6"/>
      </g>
     </g>
    </g>
    <g id="xtick_38">
     <g id="line2d_38">
      <g>
       <use xlink:href="#m2cd70c23cc" x="331.679377" y="309.406281" style="stroke: #000000; stroke-width: 0.6"/>
      </g>
     </g>
    </g>
    <g id="xtick_39">
     <g id="line2d_39">
      <g>
       <use xlink:href="#m2cd70c23cc" x="335.439785" y="309.406281" style="stroke: #000000; stroke-width: 0.6"/>
      </g>
     </g>
    </g>
    <g id="xtick_40">
     <g id="line2d_40">
      <g>
       <use xlink:href="#m2cd70c23cc" x="360.933392" y="309.406281" style="stroke: #000000; stroke-width: 0.6"/>
      </g>
     </g>
    </g>
    <g id="xtick_41">
     <g id="line2d_41">
      <g>
       <use xlink:href="#m2cd70c23cc" x="373.8785" y="309.406281" style="stroke: #000000; stroke-width: 0.6"/>
      </g>
     </g>
    </g>
    <g id="xtick_42">
     <g id="line2d_42">
      <g>
       <use xlink:href="#m2cd70c23cc" x="383.0632" y="309.406281" style="stroke: #000000; stroke-width: 0.6"/>
      </g>
     </g>
    </g>
    <g id="xtick_43">
     <g id="line2d_43">
      <g>
       <use xlink:href="#m2cd70c23cc" x="390.187407" y="309.406281" style="stroke: #000000; stroke-width: 0.6"/>
      </g>
     </g>
    </g>
    <g id="xtick_44">
     <g id="line2d_44">
      <g>
       <use xlink:href="#m2cd70c23cc" x="396.008308" y="309.406281" style="stroke: #000000; stroke-width: 0.6"/>
      </g>
     </g>
    </g>
    <g id="xtick_45">
     <g id="line2d_45">
      <g>
       <use xlink:href="#m2cd70c23cc" x="400.929809" y="309.406281" style="stroke: #000000; stroke-width: 0.6"/>
      </g>
     </g>
    </g>
    <g id="xtick_46">
     <g id="line2d_46">
      <g>
       <use xlink:href="#m2cd70c23cc" x="405.193008" y="309.406281" style="stroke: #000000; stroke-width: 0.6"/>
      </g>
     </g>
    </g>
    <g id="xtick_47">
     <g id="line2d_47">
      <g>
       <use xlink:href="#m2cd70c23cc" x="408.953415" y="309.406281" style="stroke: #000000; stroke-width: 0.6"/>
      </g>
     </g>
    </g>
    <g id="xtick_48">
     <g id="line2d_48">
      <g>
       <use xlink:href="#m2cd70c23cc" x="434.447023" y="309.406281" style="stroke: #000000; stroke-width: 0.6"/>
      </g>
     </g>
    </g>
    <g id="xtick_49">
     <g id="line2d_49">
      <g>
       <use xlink:href="#m2cd70c23cc" x="447.39213" y="309.406281" style="stroke: #000000; stroke-width: 0.6"/>
      </g>
     </g>
    </g>
    <g id="xtick_50">
     <g id="line2d_50">
      <g>
       <use xlink:href="#m2cd70c23cc" x="456.57683" y="309.406281" style="stroke: #000000; stroke-width: 0.6"/>
      </g>
     </g>
    </g>
    <g id="xtick_51">
     <g id="line2d_51">
      <g>
       <use xlink:href="#m2cd70c23cc" x="463.701037" y="309.406281" style="stroke: #000000; stroke-width: 0.6"/>
      </g>
     </g>
    </g>
    <g id="xtick_52">
     <g id="line2d_52">
      <g>
       <use xlink:href="#m2cd70c23cc" x="469.521938" y="309.406281" style="stroke: #000000; stroke-width: 0.6"/>
      </g>
     </g>
    </g>
    <g id="xtick_53">
     <g id="line2d_53">
      <g>
       <use xlink:href="#m2cd70c23cc" x="474.44344" y="309.406281" style="stroke: #000000; stroke-width: 0.6"/>
      </g>
     </g>
    </g>
    <g id="xtick_54">
     <g id="line2d_54">
      <g>
       <use xlink:href="#m2cd70c23cc" x="478.706638" y="309.406281" style="stroke: #000000; stroke-width: 0.6"/>
      </g>
     </g>
    </g>
    <g id="xtick_55">
     <g id="line2d_55">
      <g>
       <use xlink:href="#m2cd70c23cc" x="482.467046" y="309.406281" style="stroke: #000000; stroke-width: 0.6"/>
      </g>
     </g>
    </g>
    <g id="text_8">
     <!-- Péclet number Pe (log scale) -->
     <g transform="translate(186.889173 338.882687) scale(0.11 -0.11)">
      <defs>
       <path id="DejaVuSans-50" d="M 1259 4147 
L 1259 2394 
L 2053 2394 
Q 2494 2394 2734 2622 
Q 2975 2850 2975 3272 
Q 2975 3691 2734 3919 
Q 2494 4147 2053 4147 
L 1259 4147 
z
M 628 4666 
L 2053 4666 
Q 2838 4666 3239 4311 
Q 3641 3956 3641 3272 
Q 3641 2581 3239 2228 
Q 2838 1875 2053 1875 
L 1259 1875 
L 1259 0 
L 628 0 
L 628 4666 
z
" transform="scale(0.015625)"/>
       <path id="DejaVuSans-e9" d="M 3597 1894 
L 3597 1613 
L 953 1613 
Q 991 1019 1311 708 
Q 1631 397 2203 397 
Q 2534 397 2845 478 
Q 3156 559 3463 722 
L 3463 178 
Q 3153 47 2828 -22 
Q 2503 -91 2169 -91 
Q 1331 -91 842 396 
Q 353 884 353 1716 
Q 353 2575 817 3079 
Q 1281 3584 2069 3584 
Q 2775 3584 3186 3129 
Q 3597 2675 3597 1894 
z
M 3022 2063 
Q 3016 2534 2758 2815 
Q 2500 3097 2075 3097 
Q 1594 3097 1305 2825 
Q 1016 2553 972 2059 
L 3022 2063 
z
M 2466 5119 
L 3088 5119 
L 2070 3944 
L 1591 3944 
L 2466 5119 
z
" transform="scale(0.015625)"/>
       <path id="DejaVuSans-63" d="M 3122 3366 
L 3122 2828 
Q 2878 2963 2633 3030 
Q 2388 3097 2138 3097 
Q 1578 3097 1268 2742 
Q 959 2388 959 1747 
Q 959 1106 1268 751 
Q 1578 397 2138 397 
Q 2388 397 2633 464 
Q 2878 531 3122 666 
L 3122 134 
Q 2881 22 2623 -34 
Q 2366 -91 2075 -91 
Q 1284 -91 818 406 
Q 353 903 353 1747 
Q 353 2603 823 3093 
Q 1294 3584 2113 3584 
Q 2378 3584 2631 3529 
Q 2884 3475 3122 3366 
z
" transform="scale(0.015625)"/>
       <path id="DejaVuSans-6c" d="M 603 4863 
L 1178 4863 
L 1178 0 
L 603 0 
L 603 4863 
z
" transform="scale(0.015625)"/>
       <path id="DejaVuSans-65" d="M 3597 1894 
L 3597 1613 
L 953 1613 
Q 991 1019 1311 708 
Q 1631 397 2203 397 
Q 2534 397 2845 478 
Q 3156 559 3463 722 
L 3463 178 
Q 3153 47 2828 -22 
Q 2503 -91 2169 -91 
Q 1331 -91 842 396 
Q 353 884 353 1716 
Q 353 2575 817 3079 
Q 1281 3584 2069 3584 
Q 2775 3584 3186 3129 
Q 3597 2675 3597 1894 
z
M 3022 2063 
Q 3016 2534 2758 2815 
Q 2500 3097 2075 3097 
Q 1594 3097 1305 2825 
Q 1016 2553 972 2059 
L 3022 2063 
z
" transform="scale(0.015625)"/>
       <path id="DejaVuSans-74" d="M 1172 4494 
L 1172 3500 
L 2356 3500 
L 2356 3053 
L 1172 3053 
L 1172 1153 
Q 1172 725 1289 603 
Q 1406 481 1766 481 
L 2356 481 
L 2356 0 
L 1766 0 
Q 1100 0 847 248 
Q 594 497 594 1153 
L 594 3053 
L 172 3053 
L 172 3500 
L 594 3500 
L 594 4494 
L 1172 4494 
z
" transform="scale(0.015625)"/>
       <path id="DejaVuSans-20" transform="scale(0.015625)"/>
       <path id="DejaVuSans-6e" d="M 3513 2113 
L 3513 0 
L 2938 0 
L 2938 2094 
Q 2938 2591 2744 2837 
Q 2550 3084 2163 3084 
Q 1697 3084 1428 2787 
Q 1159 2491 1159 1978 
L 1159 0 
L 581 0 
L 581 3500 
L 1159 3500 
L 1159 2956 
Q 1366 3272 1645 3428 
Q 1925 3584 2291 3584 
Q 2894 3584 3203 3211 
Q 3513 2838 3513 2113 
z
" transform="scale(0.015625)"/>
       <path id="DejaVuSans-75" d="M 544 1381 
L 544 3500 
L 1119 3500 
L 1119 1403 
Q 1119 906 1312 657 
Q 1506 409 1894 409 
Q 2359 409 2629 706 
Q 2900 1003 2900 1516 
L 2900 3500 
L 3475 3500 
L 3475 0 
L 2900 0 
L 2900 538 
Q 2691 219 2414 64 
Q 2138 -91 1772 -91 
Q 1169 -91 856 284 
Q 544 659 544 1381 
z
M 1991 3584 
L 1991 3584 
z
" transform="scale(0.015625)"/>
       <path id="DejaVuSans-6d" d="M 3328 2828 
Q 3544 3216 3844 3400 
Q 4144 3584 4550 3584 
Q 5097 3584 5394 3201 
Q 5691 2819 5691 2113 
L 5691 0 
L 5113 0 
L 5113 2094 
Q 5113 2597 4934 2840 
Q 4756 3084 4391 3084 
Q 3944 3084 3684 2787 
Q 3425 2491 3425 1978 
L 3425 0 
L 2847 0 
L 2847 2094 
Q 2847 2600 2669 2842 
Q 2491 3084 2119 3084 
Q 1678 3084 1418 2786 
Q 1159 2488 1159 1978 
L 1159 0 
L 581 0 
L 581 3500 
L 1159 3500 
L 1159 2956 
Q 1356 3278 1631 3431 
Q 1906 3584 2284 3584 
Q 2666 3584 2933 3390 
Q 3200 3197 3328 2828 
z
" transform="scale(0.015625)"/>
       <path id="DejaVuSans-62" d="M 3116 1747 
Q 3116 2381 2855 2742 
Q 2594 3103 2138 3103 
Q 1681 3103 1420 2742 
Q 1159 2381 1159 1747 
Q 1159 1113 1420 752 
Q 1681 391 2138 391 
Q 2594 391 2855 752 
Q 3116 1113 3116 1747 
z
M 1159 2969 
Q 1341 3281 1617 3432 
Q 1894 3584 2278 3584 
Q 2916 3584 3314 3078 
Q 3713 2572 3713 1747 
Q 3713 922 3314 415 
Q 2916 -91 2278 -91 
Q 1894 -91 1617 61 
Q 1341 213 1159 525 
L 1159 0 
L 581 0 
L 581 4863 
L 1159 4863 
L 1159 2969 
z
" transform="scale(0.015625)"/>
       <path id="DejaVuSans-72" d="M 2631 2963 
Q 2534 3019 2420 3045 
Q 2306 3072 2169 3072 
Q 1681 3072 1420 2755 
Q 1159 2438 1159 1844 
L 1159 0 
L 581 0 
L 581 3500 
L 1159 3500 
L 1159 2956 
Q 1341 3275 1631 3429 
Q 1922 3584 2338 3584 
Q 2397 3584 2469 3576 
Q 2541 3569 2628 3553 
L 2631 2963 
z
" transform="scale(0.015625)"/>
       <path id="DejaVuSans-28" d="M 1984 4856 
Q 1566 4138 1362 3434 
Q 1159 2731 1159 2009 
Q 1159 1288 1364 580 
Q 1569 -128 1984 -844 
L 1484 -844 
Q 1016 -109 783 600 
Q 550 1309 550 2009 
Q 550 2706 781 3412 
Q 1013 4119 1484 4856 
L 1984 4856 
z
" transform="scale(0.015625)"/>
       <path id="DejaVuSans-6f" d="M 1959 3097 
Q 1497 3097 1228 2736 
Q 959 2375 959 1747 
Q 959 1119 1226 758 
Q 1494 397 1959 397 
Q 2419 397 2687 759 
Q 2956 1122 2956 1747 
Q 2956 2369 2687 2733 
Q 2419 3097 1959 3097 
z
M 1959 3584 
Q 2709 3584 3137 3096 
Q 3566 2609 3566 1747 
Q 3566 888 3137 398 
Q 2709 -91 1959 -91 
Q 1206 -91 779 398 
Q 353 888 353 1747 
Q 353 2609 779 3096 
Q 1206 3584 1959 3584 
z
" transform="scale(0.015625)"/>
       <path id="DejaVuSans-67" d="M 2906 1791 
Q 2906 2416 2648 2759 
Q 2391 3103 1925 3103 
Q 1463 3103 1205 2759 
Q 947 2416 947 1791 
Q 947 1169 1205 825 
Q 1463 481 1925 481 
Q 2391 481 2648 825 
Q 2906 1169 2906 1791 
z
M 3481 434 
Q 3481 -459 3084 -895 
Q 2688 -1331 1869 -1331 
Q 1566 -1331 1297 -1286 
Q 1028 -1241 775 -1147 
L 775 -588 
Q 1028 -725 1275 -790 
Q 1522 -856 1778 -856 
Q 2344 -856 2625 -561 
Q 2906 -266 2906 331 
L 2906 616 
Q 2728 306 2450 153 
Q 2172 0 1784 0 
Q 1141 0 747 490 
Q 353 981 353 1791 
Q 353 2603 747 3093 
Q 1141 3584 1784 3584 
Q 2172 3584 2450 3431 
Q 2728 3278 2906 2969 
L 2906 3500 
L 3481 3500 
L 3481 434 
z
" transform="scale(0.015625)"/>
       <path id="DejaVuSans-73" d="M 2834 3397 
L 2834 2853 
Q 2591 2978 2328 3040 
Q 2066 3103 1784 3103 
Q 1356 3103 1142 2972 
Q 928 2841 928 2578 
Q 928 2378 1081 2264 
Q 1234 2150 1697 2047 
L 1894 2003 
Q 2506 1872 2764 1633 
Q 3022 1394 3022 966 
Q 3022 478 2636 193 
Q 2250 -91 1575 -91 
Q 1294 -91 989 -36 
Q 684 19 347 128 
L 347 722 
Q 666 556 975 473 
Q 1284 391 1588 391 
Q 1994 391 2212 530 
Q 2431 669 2431 922 
Q 2431 1156 2273 1281 
Q 2116 1406 1581 1522 
L 1381 1569 
Q 847 1681 609 1914 
Q 372 2147 372 2553 
Q 372 3047 722 3315 
Q 1072 3584 1716 3584 
Q 2034 3584 2315 3537 
Q 2597 3491 2834 3397 
z
" transform="scale(0.015625)"/>
       <path id="DejaVuSans-61" d="M 2194 1759 
Q 1497 1759 1228 1600 
Q 959 1441 959 1056 
Q 959 750 1161 570 
Q 1363 391 1709 391 
Q 2188 391 2477 730 
Q 2766 1069 2766 1631 
L 2766 1759 
L 2194 1759 
z
M 3341 1997 
L 3341 0 
L 2766 0 
L 2766 531 
Q 2569 213 2275 61 
Q 1981 -91 1556 -91 
Q 1019 -91 701 211 
Q 384 513 384 1019 
Q 384 1609 779 1909 
Q 1175 2209 1959 2209 
L 2766 2209 
L 2766 2266 
Q 2766 2663 2505 2880 
Q 2244 3097 1772 3097 
Q 1472 3097 1187 3025 
Q 903 2953 641 2809 
L 641 3341 
Q 956 3463 1253 3523 
Q 1550 3584 1831 3584 
Q 2591 3584 2966 3190 
Q 3341 2797 3341 1997 
z
" transform="scale(0.015625)"/>
       <path id="DejaVuSans-29" d="M 513 4856 
L 1013 4856 
Q 1481 4119 1714 3412 
Q 1947 2706 1947 2009 
Q 1947 1309 1714 600 
Q 1481 -109 1013 -844 
L 513 -844 
Q 928 -128 1133 580 
Q 1338 1288 1338 2009 
Q 1338 2731 1133 3434 
Q 928 4138 513 4856 
z
" transform="scale(0.015625)"/>
      </defs>
      <use xlink:href="#DejaVuSans-50"/>
      <use xlink:href="#DejaVuSans-e9" transform="translate(56.677734 0)"/>
      <use xlink:href="#DejaVuSans-63" transform="translate(118.201172 0)"/>
      <use xlink:href="#DejaVuSans-6c" transform="translate(173.181641 0)"/>
      <use xlink:href="#DejaVuSans-65" transform="translate(200.964844 0)"/>
      <use xlink:href="#DejaVuSans-74" transform="translate(262.488281 0)"/>
      <use xlink:href="#DejaVuSans-20" transform="translate(301.697266 0)"/>
      <use xlink:href="#DejaVuSans-6e" transform="translate(333.484375 0)"/>
      <use xlink:href="#DejaVuSans-75" transform="translate(396.863281 0)"/>
      <use xlink:href="#DejaVuSans-6d" transform="translate(460.242188 0)"/>
      <use xlink:href="#DejaVuSans-62" transform="translate(557.654297 0)"/>
      <use xlink:href="#DejaVuSans-65" transform="translate(621.130859 0)"/>
      <use xlink:href="#DejaVuSans-72" transform="translate(682.654297 0)"/>
      <use xlink:href="#DejaVuSans-20" transform="translate(723.767578 0)"/>
      <use xlink:href="#DejaVuSans-50" transform="translate(755.554688 0)"/>
      <use xlink:href="#DejaVuSans-65" transform="translate(812.232422 0)"/>
      <use xlink:href="#DejaVuSans-20" transform="translate(873.755859 0)"/>
      <use xlink:href="#DejaVuSans-28" transform="translate(905.542969 0)"/>
      <use xlink:href="#DejaVuSans-6c" transform="translate(944.556641 0)"/>
      <use xlink:href="#DejaVuSans-6f" transform="translate(972.339844 0)"/>
      <use xlink:href="#DejaVuSans-67" transform="translate(1033.521484 0)"/>
      <use xlink:href="#DejaVuSans-20" transform="translate(1096.998047 0)"/>
      <use xlink:href="#DejaVuSans-73" transform="translate(1128.785156 0)"/>
      <use xlink:href="#DejaVuSans-63" transform="translate(1180.884766 0)"/>
      <use xlink:href="#DejaVuSans-61" transform="translate(1235.865234 0)"/>
      <use xlink:href="#DejaVuSans-6c" transform="translate(1297.144531 0)"/>
      <use xlink:href="#DejaVuSans-65" transform="translate(1324.927734 0)"/>
      <use xlink:href="#DejaVuSans-29" transform="translate(1386.451172 0)"/>
     </g>
    </g>
   </g>
   <g id="matplotlib.axis_2">
    <g id="ytick_1">
     <g id="line2d_56">
      <defs>
       <path id="m16b842417c" d="M 0 0 
L -3.5 0 
" style="stroke: #000000; stroke-width: 0.8"/>
      </defs>
      <g>
       <use xlink:href="#m16b842417c" x="44.749063" y="296.322281" style="stroke: #000000; stroke-width: 0.8"/>
      </g>
     </g>
     <g id="text_9">
      <!-- 0.0 -->
      <g transform="translate(21.845938 300.1215) scale(0.1 -0.1)">
       <defs>
        <path id="DejaVuSans-2e" d="M 684 794 
L 1344 794 
L 1344 0 
L 684 0 
L 684 794 
z
" transform="scale(0.015625)"/>
       </defs>
       <use xlink:href="#DejaVuSans-30"/>
       <use xlink:href="#DejaVuSans-2e" transform="translate(63.623047 0)"/>
       <use xlink:href="#DejaVuSans-30" transform="translate(95.410156 0)"/>
      </g>
     </g>
    </g>
    <g id="ytick_2">
     <g id="line2d_57">
      <g>
       <use xlink:href="#m16b842417c" x="44.749063" y="257.737471" style="stroke: #000000; stroke-width: 0.8"/>
      </g>
     </g>
     <g id="text_10">
      <!-- 0.1 -->
      <g transform="translate(21.845938 261.536689) scale(0.1 -0.1)">
       <use xlink:href="#DejaVuSans-30"/>
       <use xlink:href="#DejaVuSans-2e" transform="translate(63.623047 0)"/>
       <use xlink:href="#DejaVuSans-31" transform="translate(95.410156 0)"/>
      </g>
     </g>
    </g>
    <g id="ytick_3">
     <g id="line2d_58">
      <g>
       <use xlink:href="#m16b842417c" x="44.749063" y="219.15266" style="stroke: #000000; stroke-width: 0.8"/>
      </g>
     </g>
     <g id="text_11">
      <!-- 0.2 -->
      <g transform="translate(21.845938 222.951879) scale(0.1 -0.1)">
       <use xlink:href="#DejaVuSans-30"/>
       <use xlink:href="#DejaVuSans-2e" transform="translate(63.623047 0)"/>
       <use xlink:href="#DejaVuSans-32" transform="translate(95.410156 0)"/>
      </g>
     </g>
    </g>
    <g id="ytick_4">
     <g id="line2d_59">
      <g>
       <use xlink:href="#m16b842417c" x="44.749063" y="180.56785" style="stroke: #000000; stroke-width: 0.8"/>
      </g>
     </g>
     <g id="text_12">
      <!-- 0.3 -->
      <g transform="translate(21.845938 184.367068) scale(0.1 -0.1)">
       <use xlink:href="#DejaVuSans-30"/>
       <use xlink:href="#DejaVuSans-2e" transform="translate(63.623047 0)"/>
       <use xlink:href="#DejaVuSans-33" transform="translate(95.410156 0)"/>
      </g>
     </g>
    </g>
    <g id="ytick_5">
     <g id="line2d_60">
      <g>
       <use xlink:href="#m16b842417c" x="44.749063" y="141.983039" style="stroke: #000000; stroke-width: 0.8"/>
      </g>
     </g>
     <g id="text_13">
      <!-- 0.4 -->
      <g transform="translate(21.845938 145.782258) scale(0.1 -0.1)">
       <use xlink:href="#DejaVuSans-30"/>
       <use xlink:href="#DejaVuSans-2e" transform="translate(63.623047 0)"/>
       <use xlink:href="#DejaVuSans-34" transform="translate(95.410156 0)"/>
      </g>
     </g>
    </g>
    <g id="ytick_6">
     <g id="line2d_61">
      <g>
       <use xlink:href="#m16b842417c" x="44.749063" y="103.398229" style="stroke: #000000; stroke-width: 0.8"/>
      </g>
     </g>
     <g id="text_14">
      <!-- 0.5 -->
      <g transform="translate(21.845938 107.197447) scale(0.1 -0.1)">
       <use xlink:href="#DejaVuSans-30"/>
       <use xlink:href="#DejaVuSans-2e" transform="translate(63.623047 0)"/>
       <use xlink:href="#DejaVuSans-35" transform="translate(95.410156 0)"/>
      </g>
     </g>
    </g>
    <g id="ytick_7">
     <g id="line2d_62">
      <g>
       <use xlink:href="#m16b842417c" x="44.749063" y="64.813418" style="stroke: #000000; stroke-width: 0.8"/>
      </g>
     </g>
     <g id="text_15">
      <!-- 0.6 -->
      <g transform="translate(21.845938 68.612637) scale(0.1 -0.1)">
       <defs>
        <path id="DejaVuSans-36" d="M 2113 2584 
Q 1688 2584 1439 2293 
Q 1191 2003 1191 1497 
Q 1191 994 1439 701 
Q 1688 409 2113 409 
Q 2538 409 2786 701 
Q 3034 994 3034 1497 
Q 3034 2003 2786 2293 
Q 2538 2584 2113 2584 
z
M 3366 4563 
L 3366 3988 
Q 3128 4100 2886 4159 
Q 2644 4219 2406 4219 
Q 1781 4219 1451 3797 
Q 1122 3375 1075 2522 
Q 1259 2794 1537 2939 
Q 1816 3084 2150 3084 
Q 2853 3084 3261 2657 
Q 3669 2231 3669 1497 
Q 3669 778 3244 343 
Q 2819 -91 2113 -91 
Q 1303 -91 875 529 
Q 447 1150 447 2328 
Q 447 3434 972 4092 
Q 1497 4750 2381 4750 
Q 2619 4750 2861 4703 
Q 3103 4656 3366 4563 
z
" transform="scale(0.015625)"/>
       </defs>
       <use xlink:href="#DejaVuSans-30"/>
       <use xlink:href="#DejaVuSans-2e" transform="translate(63.623047 0)"/>
       <use xlink:href="#DejaVuSans-36" transform="translate(95.410156 0)"/>
      </g>
     </g>
    </g>
    <g id="ytick_8">
     <g id="line2d_63">
      <g>
       <use xlink:href="#m16b842417c" x="44.749063" y="26.228607" style="stroke: #000000; stroke-width: 0.8"/>
      </g>
     </g>
     <g id="text_16">
      <!-- 0.7 -->
      <g transform="translate(21.845938 30.027826) scale(0.1 -0.1)">
       <defs>
        <path id="DejaVuSans-37" d="M 525 4666 
L 3525 4666 
L 3525 4397 
L 1831 0 
L 1172 0 
L 2766 4134 
L 525 4134 
L 525 4666 
z
" transform="scale(0.015625)"/>
       </defs>
       <use xlink:href="#DejaVuSans-30"/>
       <use xlink:href="#DejaVuSans-2e" transform="translate(63.623047 0)"/>
       <use xlink:href="#DejaVuSans-37" transform="translate(95.410156 0)"/>
      </g>
     </g>
    </g>
    <g id="text_17">
     <!-- Probability density -->
     <g transform="translate(15.558281 216.468141) rotate(-90) scale(0.11 -0.11)">
      <defs>
       <path id="DejaVuSans-69" d="M 603 3500 
L 1178 3500 
L 1178 0 
L 603 0 
L 603 3500 
z
M 603 4863 
L 1178 4863 
L 1178 4134 
L 603 4134 
L 603 4863 
z
" transform="scale(0.015625)"/>
       <path id="DejaVuSans-79" d="M 2059 -325 
Q 1816 -950 1584 -1140 
Q 1353 -1331 966 -1331 
L 506 -1331 
L 506 -850 
L 844 -850 
Q 1081 -850 1212 -737 
Q 1344 -625 1503 -206 
L 1606 56 
L 191 3500 
L 800 3500 
L 1894 763 
L 2988 3500 
L 3597 3500 
L 2059 -325 
z
" transform="scale(0.015625)"/>
       <path id="DejaVuSans-64" d="M 2906 2969 
L 2906 4863 
L 3481 4863 
L 3481 0 
L 2906 0 
L 2906 525 
Q 2725 213 2448 61 
Q 2172 -91 1784 -91 
Q 1150 -91 751 415 
Q 353 922 353 1747 
Q 353 2572 751 3078 
Q 1150 3584 1784 3584 
Q 2172 3584 2448 3432 
Q 2725 3281 2906 2969 
z
M 947 1747 
Q 947 1113 1208 752 
Q 1469 391 1925 391 
Q 2381 391 2643 752 
Q 2906 1113 2906 1747 
Q 2906 2381 2643 2742 
Q 2381 3103 1925 3103 
Q 1469 3103 1208 2742 
Q 947 2381 947 1747 
z
" transform="scale(0.015625)"/>
      </defs>
      <use xlink:href="#DejaVuSans-50"/>
      <use xlink:href="#DejaVuSans-72" transform="translate(58.552734 0)"/>
      <use xlink:href="#DejaVuSans-6f" transform="translate(97.416016 0)"/>
      <use xlink:href="#DejaVuSans-62" transform="translate(158.597656 0)"/>
      <use xlink:href="#DejaVuSans-61" transform="translate(222.074219 0)"/>
      <use xlink:href="#DejaVuSans-62" transform="translate(283.353516 0)"/>
      <use xlink:href="#DejaVuSans-69" transform="translate(346.830078 0)"/>
      <use xlink:href="#DejaVuSans-6c" transform="translate(374.613281 0)"/>
      <use xlink:href="#DejaVuSans-69" transform="translate(402.396484 0)"/>
      <use xlink:href="#DejaVuSans-74" transform="translate(430.179688 0)"/>
      <use xlink:href="#DejaVuSans-79" transform="translate(469.388672 0)"/>
      <use xlink:href="#DejaVuSans-20" transform="translate(528.568359 0)"/>
      <use xlink:href="#DejaVuSans-64" transform="translate(560.355469 0)"/>
      <use xlink:href="#DejaVuSans-65" transform="translate(623.832031 0)"/>
      <use xlink:href="#DejaVuSans-6e" transform="translate(685.355469 0)"/>
      <use xlink:href="#DejaVuSans-73" transform="translate(748.734375 0)"/>
      <use xlink:href="#DejaVuSans-69" transform="translate(800.833984 0)"/>
      <use xlink:href="#DejaVuSans-74" transform="translate(828.617188 0)"/>
      <use xlink:href="#DejaVuSans-79" transform="translate(867.826172 0)"/>
     </g>
    </g>
   </g>
   <g id="line2d_64">
    <path d="M 44.749063 34.642281 
L 48.281249 54.273811 
L 51.813435 72.66295 
L 55.345622 89.867676 
L 58.877808 105.945055 
L 62.409995 120.951076 
L 65.942181 134.940521 
L 69.474368 147.96684 
L 73.006554 160.082048 
L 76.538741 171.336632 
L 80.070927 181.779482 
L 83.603113 191.457826 
L 87.1353 200.417185 
L 90.667486 208.701335 
L 94.199673 216.352288 
L 97.731859 223.410275 
L 101.264046 229.913744 
L 104.796232 235.89937 
L 108.328419 241.402064 
L 111.860605 246.454997 
L 115.392791 251.089628 
L 118.924978 255.33574 
L 122.457164 259.221474 
L 125.989351 262.77338 
L 129.521537 266.016455 
L 133.053724 268.974202 
L 136.58591 271.668679 
L 140.55962 274.410954 
L 144.53333 276.873559 
L 148.507039 279.081872 
L 152.922272 281.265767 
L 157.337506 283.194158 
L 161.752739 284.893966 
L 166.609495 286.528897 
L 171.907775 288.065251 
L 177.206054 289.376695 
L 182.945857 290.578485 
L 189.127184 291.655453 
L 196.191556 292.655496 
L 204.138976 293.540524 
L 212.969442 294.288199 
L 223.124478 294.914386 
L 235.045607 295.418079 
L 249.615876 295.804305 
L 269.042902 296.082471 
L 297.741917 296.249662 
L 355.58147 296.316963 
L 485.830845 296.322276 
L 485.830845 296.322276 
" clip-path="url(#p39db46fe09)" style="fill: none; stroke: #ffd700; stroke-width: 2; stroke-linecap: square"/>
   </g>
   <g id="line2d_65">
    <path d="M 44.749063 62.098737 
L 61.526948 111.291657 
L 68.591321 131.1961 
L 74.331124 146.733368 
L 79.629404 160.462595 
L 84.48616 172.466583 
L 89.342916 183.869054 
L 93.758149 193.684921 
L 98.173383 202.958879 
L 102.588616 211.680362 
L 106.562325 219.053664 
L 110.536035 225.97679 
L 114.509745 232.454051 
L 118.483455 238.492841 
L 122.457164 244.103278 
L 126.430874 249.297838 
L 130.404584 254.091002 
L 134.378294 258.498904 
L 138.352003 262.538998 
L 142.325713 266.229738 
L 146.299423 269.590283 
L 150.273133 272.640223 
L 154.246842 275.399329 
L 158.220552 277.887331 
L 162.194262 280.123719 
L 166.609495 282.336681 
L 171.024728 284.287911 
L 175.439961 286.00172 
L 180.296717 287.640233 
L 185.153474 289.048309 
L 190.451753 290.353075 
L 196.191556 291.530129 
L 202.372883 292.563531 
L 208.995732 293.445937 
L 216.501629 294.217694 
L 224.890571 294.854943 
L 234.604084 295.370437 
L 246.525213 295.775002 
L 261.978529 296.064786 
L 284.496218 296.24256 
L 327.765502 296.31573 
L 485.830845 296.322281 
L 485.830845 296.322281 
" clip-path="url(#p39db46fe09)" style="fill: none; stroke: #4682b4; stroke-width: 2; stroke-linecap: square"/>
   </g>
   <g id="line2d_66">
    <path d="M 158.5316 309.406281 
L 158.5316 21.558281 
" clip-path="url(#p39db46fe09)" style="fill: none; stroke-dasharray: 3.7,1.6; stroke-dashoffset: 0; stroke: #ffd700; stroke-opacity: 0.6"/>
   </g>
   <g id="line2d_67">
    <path d="M 348.313866 309.406281 
L 348.313866 21.558281 
" clip-path="url(#p39db46fe09)" style="fill: none; stroke-dasharray: 1.2,1.98; stroke-dashoffset: 0; stroke: #ffd700; stroke-opacity: 0.6; stroke-width: 1.2"/>
   </g>
   <g id="line2d_68">
    <path d="M 153.124052 309.406281 
L 153.124052 21.558281 
" clip-path="url(#p39db46fe09)" style="fill: none; stroke-dasharray: 3.7,1.6; stroke-dashoffset: 0; stroke: #4682b4; stroke-opacity: 0.6"/>
   </g>
   <g id="line2d_69">
    <path d="M 243.792376 309.406281 
L 243.792376 21.558281 
" clip-path="url(#p39db46fe09)" style="fill: none; stroke-dasharray: 1.2,1.98; stroke-dashoffset: 0; stroke: #4682b4; stroke-opacity: 0.6; stroke-width: 1.2"/>
   </g>
   <g id="patch_3">
    <path d="M 44.749063 309.406281 
L 44.749063 21.558281 
" style="fill: none; stroke: #000000; stroke-width: 0.8; stroke-linejoin: miter; stroke-linecap: square"/>
   </g>
   <g id="patch_4">
    <path d="M 485.830845 309.406281 
L 485.830845 21.558281 
" style="fill: none; stroke: #000000; stroke-width: 0.8; stroke-linejoin: miter; stroke-linecap: square"/>
   </g>
   <g id="patch_5">
    <path d="M 44.749063 309.406281 
L 485.830845 309.406281 
" style="fill: none; stroke: #000000; stroke-width: 0.8; stroke-linejoin: miter; stroke-linecap: square"/>
   </g>
   <g id="patch_6">
    <path d="M 44.749063 21.558281 
L 485.830845 21.558281 
" style="fill: none; stroke: #000000; stroke-width: 0.8; stroke-linejoin: miter; stroke-linecap: square"/>
   </g>
   <g id="text_18">
    <!-- LogNormal distributions: forward vs reverse -->
    <g transform="translate(144.632844 15.558281) scale(0.11 -0.11)">
     <defs>
      <path id="DejaVuSans-4c" d="M 628 4666 
L 1259 4666 
L 1259 531 
L 3531 531 
L 3531 0 
L 628 0 
L 628 4666 
z
" transform="scale(0.015625)"/>
      <path id="DejaVuSans-4e" d="M 628 4666 
L 1478 4666 
L 3547 763 
L 3547 4666 
L 4159 4666 
L 4159 0 
L 3309 0 
L 1241 3903 
L 1241 0 
L 628 0 
L 628 4666 
z
" transform="scale(0.015625)"/>
      <path id="DejaVuSans-3a" d="M 750 794 
L 1409 794 
L 1409 0 
L 750 0 
L 750 794 
z
M 750 3309 
L 1409 3309 
L 1409 2516 
L 750 2516 
L 750 3309 
z
" transform="scale(0.015625)"/>
      <path id="DejaVuSans-66" d="M 2375 4863 
L 2375 4384 
L 1825 4384 
Q 1516 4384 1395 4259 
Q 1275 4134 1275 3809 
L 1275 3500 
L 2222 3500 
L 2222 3053 
L 1275 3053 
L 1275 0 
L 697 0 
L 697 3053 
L 147 3053 
L 147 3500 
L 697 3500 
L 697 3744 
Q 697 4328 969 4595 
Q 1241 4863 1831 4863 
L 2375 4863 
z
" transform="scale(0.015625)"/>
      <path id="DejaVuSans-77" d="M 269 3500 
L 844 3500 
L 1563 769 
L 2278 3500 
L 2956 3500 
L 3675 769 
L 4391 3500 
L 4966 3500 
L 4050 0 
L 3372 0 
L 2619 2869 
L 1863 0 
L 1184 0 
L 269 3500 
z
" transform="scale(0.015625)"/>
      <path id="DejaVuSans-76" d="M 191 3500 
L 800 3500 
L 1894 563 
L 2988 3500 
L 3597 3500 
L 2284 0 
L 1503 0 
L 191 3500 
z
" transform="scale(0.015625)"/>
     </defs>
     <use xlink:href="#DejaVuSans-4c"/>
     <use xlink:href="#DejaVuSans-6f" transform="translate(53.962891 0)"/>
     <use xlink:href="#DejaVuSans-67" transform="translate(115.144531 0)"/>
     <use xlink:href="#DejaVuSans-4e" transform="translate(178.621094 0)"/>
     <use xlink:href="#DejaVuSans-6f" transform="translate(253.425781 0)"/>
     <use xlink:href="#DejaVuSans-72" transform="translate(314.607422 0)"/>
     <use xlink:href="#DejaVuSans-6d" transform="translate(353.970703 0)"/>
     <use xlink:href="#DejaVuSans-61" transform="translate(451.382812 0)"/>
     <use xlink:href="#DejaVuSans-6c" transform="translate(512.662109 0)"/>
     <use xlink:href="#DejaVuSans-20" transform="translate(540.445312 0)"/>
     <use xlink:href="#DejaVuSans-64" transform="translate(572.232422 0)"/>
     <use xlink:href="#DejaVuSans-69" transform="translate(635.708984 0)"/>
     <use xlink:href="#DejaVuSans-73" transform="translate(663.492188 0)"/>
     <use xlink:href="#DejaVuSans-74" transform="translate(715.591797 0)"/>
     <use xlink:href="#DejaVuSans-72" transform="translate(754.800781 0)"/>
     <use xlink:href="#DejaVuSans-69" transform="translate(795.914062 0)"/>
     <use xlink:href="#DejaVuSans-62" transform="translate(823.697266 0)"/>
     <use xlink:href="#DejaVuSans-75" transform="translate(887.173828 0)"/>
     <use xlink:href="#DejaVuSans-74" transform="translate(950.552734 0)"/>
     <use xlink:href="#DejaVuSans-69" transform="translate(989.761719 0)"/>
     <use xlink:href="#DejaVuSans-6f" transform="translate(1017.544922 0)"/>
     <use xlink:href="#DejaVuSans-6e" transform="translate(1078.726562 0)"/>
     <use xlink:href="#DejaVuSans-73" transform="translate(1142.105469 0)"/>
     <use xlink:href="#DejaVuSans-3a" transform="translate(1194.205078 0)"/>
     <use xlink:href="#DejaVuSans-20" transform="translate(1227.896484 0)"/>
     <use xlink:href="#DejaVuSans-66" transform="translate(1259.683594 0)"/>
     <use xlink:href="#DejaVuSans-6f" transform="translate(1294.888672 0)"/>
     <use xlink:href="#DejaVuSans-72" transform="translate(1356.070312 0)"/>
     <use xlink:href="#DejaVuSans-77" transform="translate(1397.183594 0)"/>
     <use xlink:href="#DejaVuSans-61" transform="translate(1478.970703 0)"/>
     <use xlink:href="#DejaVuSans-72" transform="translate(1540.25 0)"/>
     <use xlink:href="#DejaVuSans-64" transform="translate(1579.613281 0)"/>
     <use xlink:href="#DejaVuSans-20" transform="translate(1643.089844 0)"/>
     <use xlink:href="#DejaVuSans-76" transform="translate(1674.876953 0)"/>
     <use xlink:href="#DejaVuSans-73" transform="translate(1734.056641 0)"/>
     <use xlink:href="#DejaVuSans-20" transform="translate(1786.15625 0)"/>
     <use xlink:href="#DejaVuSans-72" transform="translate(1817.943359 0)"/>
     <use xlink:href="#DejaVuSans-65" transform="translate(1856.806641 0)"/>
     <use xlink:href="#DejaVuSans-76" transform="translate(1918.330078 0)"/>
     <use xlink:href="#DejaVuSans-65" transform="translate(1977.509766 0)"/>
     <use xlink:href="#DejaVuSans-72" transform="translate(2039.033203 0)"/>
     <use xlink:href="#DejaVuSans-73" transform="translate(2080.146484 0)"/>
     <use xlink:href="#DejaVuSans-65" transform="translate(2132.246094 0)"/>
    </g>
   </g>
   <g id="legend_1">
    <g id="patch_7">
     <path d="M 387.792095 98.413281 
L 480.230845 98.413281 
Q 481.830845 98.413281 481.830845 96.813281 
L 481.830845 27.158281 
Q 481.830845 25.558281 480.230845 25.558281 
L 387.792095 25.558281 
Q 386.192095 25.558281 386.192095 27.158281 
L 386.192095 96.813281 
Q 386.192095 98.413281 387.792095 98.413281 
z
" style="fill: #ffffff; opacity: 0.8; stroke: #cccccc; stroke-linejoin: miter"/>
    </g>
    <g id="line2d_70">
     <path d="M 389.392095 32.037031 
L 397.392095 32.037031 
L 405.392095 32.037031 
" style="fill: none; stroke: #ffd700; stroke-width: 2; stroke-linecap: square"/>
    </g>
    <g id="text_19">
     <!-- Forward  σ=3.45 -->
     <g transform="translate(411.792095 34.837031) scale(0.08 -0.08)">
      <defs>
       <path id="DejaVuSans-46" d="M 628 4666 
L 3309 4666 
L 3309 4134 
L 1259 4134 
L 1259 2759 
L 3109 2759 
L 3109 2228 
L 1259 2228 
L 1259 0 
L 628 0 
L 628 4666 
z
" transform="scale(0.015625)"/>
       <path id="DejaVuSans-3c3" d="M 1959 3044 
Q 1484 3044 1228 2700 
Q 959 2341 959 1747 
Q 959 1119 1226 758 
Q 1494 397 1959 397 
Q 2419 397 2687 759 
Q 2956 1122 2956 1747 
Q 2956 2319 2688 2700 
Q 2441 3044 1959 3044 
z
M 1959 3500 
L 3869 3500 
L 3869 2925 
L 3225 2925 
Q 3566 2438 3566 1747 
Q 3566 888 3138 400 
Q 2709 -91 1959 -91 
Q 1206 -91 781 400 
Q 353 888 353 1747 
Q 353 2613 781 3097 
Q 1134 3500 1959 3500 
z
" transform="scale(0.015625)"/>
       <path id="DejaVuSans-3d" d="M 678 2906 
L 4684 2906 
L 4684 2381 
L 678 2381 
L 678 2906 
z
M 678 1631 
L 4684 1631 
L 4684 1100 
L 678 1100 
L 678 1631 
z
" transform="scale(0.015625)"/>
      </defs>
      <use xlink:href="#DejaVuSans-46"/>
      <use xlink:href="#DejaVuSans-6f" transform="translate(53.894531 0)"/>
      <use xlink:href="#DejaVuSans-72" transform="translate(115.076172 0)"/>
      <use xlink:href="#DejaVuSans-77" transform="translate(156.189453 0)"/>
      <use xlink:href="#DejaVuSans-61" transform="translate(237.976562 0)"/>
      <use xlink:href="#DejaVuSans-72" transform="translate(299.255859 0)"/>
      <use xlink:href="#DejaVuSans-64" transform="translate(338.619141 0)"/>
      <use xlink:href="#DejaVuSans-20" transform="translate(402.095703 0)"/>
      <use xlink:href="#DejaVuSans-20" transform="translate(433.882812 0)"/>
      <use xlink:href="#DejaVuSans-3c3" transform="translate(465.669922 0)"/>
      <use xlink:href="#DejaVuSans-3d" transform="translate(529.048828 0)"/>
      <use xlink:href="#DejaVuSans-33" transform="translate(612.837891 0)"/>
      <use xlink:href="#DejaVuSans-2e" transform="translate(676.460938 0)"/>
      <use xlink:href="#DejaVuSans-34" transform="translate(708.248047 0)"/>
      <use xlink:href="#DejaVuSans-35" transform="translate(771.871094 0)"/>
     </g>
    </g>
    <g id="line2d_71">
     <path d="M 389.392095 43.779531 
L 397.392095 43.779531 
L 405.392095 43.779531 
" style="fill: none; stroke: #4682b4; stroke-width: 2; stroke-linecap: square"/>
    </g>
    <g id="text_20">
     <!-- Reverse  σ=2.38 -->
     <g transform="translate(411.792095 46.579531) scale(0.08 -0.08)">
      <defs>
       <path id="DejaVuSans-52" d="M 2841 2188 
Q 3044 2119 3236 1894 
Q 3428 1669 3622 1275 
L 4263 0 
L 3584 0 
L 2988 1197 
Q 2756 1666 2539 1819 
Q 2322 1972 1947 1972 
L 1259 1972 
L 1259 0 
L 628 0 
L 628 4666 
L 2053 4666 
Q 2853 4666 3247 4331 
Q 3641 3997 3641 3322 
Q 3641 2881 3436 2590 
Q 3231 2300 2841 2188 
z
M 1259 4147 
L 1259 2491 
L 2053 2491 
Q 2509 2491 2742 2702 
Q 2975 2913 2975 3322 
Q 2975 3731 2742 3939 
Q 2509 4147 2053 4147 
L 1259 4147 
z
" transform="scale(0.015625)"/>
       <path id="DejaVuSans-38" d="M 2034 2216 
Q 1584 2216 1326 1975 
Q 1069 1734 1069 1313 
Q 1069 891 1326 650 
Q 1584 409 2034 409 
Q 2484 409 2743 651 
Q 3003 894 3003 1313 
Q 3003 1734 2745 1975 
Q 2488 2216 2034 2216 
z
M 1403 2484 
Q 997 2584 770 2862 
Q 544 3141 544 3541 
Q 544 4100 942 4425 
Q 1341 4750 2034 4750 
Q 2731 4750 3128 4425 
Q 3525 4100 3525 3541 
Q 3525 3141 3298 2862 
Q 3072 2584 2669 2484 
Q 3125 2378 3379 2068 
Q 3634 1759 3634 1313 
Q 3634 634 3220 271 
Q 2806 -91 2034 -91 
Q 1263 -91 848 271 
Q 434 634 434 1313 
Q 434 1759 690 2068 
Q 947 2378 1403 2484 
z
M 1172 3481 
Q 1172 3119 1398 2916 
Q 1625 2713 2034 2713 
Q 2441 2713 2670 2916 
Q 2900 3119 2900 3481 
Q 2900 3844 2670 4047 
Q 2441 4250 2034 4250 
Q 1625 4250 1398 4047 
Q 1172 3844 1172 3481 
z
" transform="scale(0.015625)"/>
      </defs>
      <use xlink:href="#DejaVuSans-52"/>
      <use xlink:href="#DejaVuSans-65" transform="translate(64.982422 0)"/>
      <use xlink:href="#DejaVuSans-76" transform="translate(126.505859 0)"/>
      <use xlink:href="#DejaVuSans-65" transform="translate(185.685547 0)"/>
      <use xlink:href="#DejaVuSans-72" transform="translate(247.208984 0)"/>
      <use xlink:href="#DejaVuSans-73" transform="translate(288.322266 0)"/>
      <use xlink:href="#DejaVuSans-65" transform="translate(340.421875 0)"/>
      <use xlink:href="#DejaVuSans-20" transform="translate(401.945312 0)"/>
      <use xlink:href="#DejaVuSans-20" transform="translate(433.732422 0)"/>
      <use xlink:href="#DejaVuSans-3c3" transform="translate(465.519531 0)"/>
      <use xlink:href="#DejaVuSans-3d" transform="translate(528.898438 0)"/>
      <use xlink:href="#DejaVuSans-32" transform="translate(612.6875 0)"/>
      <use xlink:href="#DejaVuSans-2e" transform="translate(676.310547 0)"/>
      <use xlink:href="#DejaVuSans-33" transform="translate(708.097656 0)"/>
      <use xlink:href="#DejaVuSans-38" transform="translate(771.720703 0)"/>
     </g>
    </g>
    <g id="line2d_72">
     <path d="M 389.392095 55.522031 
L 397.392095 55.522031 
L 405.392095 55.522031 
" style="fill: none; stroke-dasharray: 3.7,1.6; stroke-dashoffset: 0; stroke: #ffd700; stroke-opacity: 0.6"/>
    </g>
    <g id="text_21">
     <!-- GM=3.53 -->
     <g transform="translate(411.792095 58.322031) scale(0.08 -0.08)">
      <defs>
       <path id="DejaVuSans-47" d="M 3809 666 
L 3809 1919 
L 2778 1919 
L 2778 2438 
L 4434 2438 
L 4434 434 
Q 4069 175 3628 42 
Q 3188 -91 2688 -91 
Q 1594 -91 976 548 
Q 359 1188 359 2328 
Q 359 3472 976 4111 
Q 1594 4750 2688 4750 
Q 3144 4750 3555 4637 
Q 3966 4525 4313 4306 
L 4313 3634 
Q 3963 3931 3569 4081 
Q 3175 4231 2741 4231 
Q 1884 4231 1454 3753 
Q 1025 3275 1025 2328 
Q 1025 1384 1454 906 
Q 1884 428 2741 428 
Q 3075 428 3337 486 
Q 3600 544 3809 666 
z
" transform="scale(0.015625)"/>
       <path id="DejaVuSans-4d" d="M 628 4666 
L 1569 4666 
L 2759 1491 
L 3956 4666 
L 4897 4666 
L 4897 0 
L 4281 0 
L 4281 4097 
L 3078 897 
L 2444 897 
L 1241 4097 
L 1241 0 
L 628 0 
L 628 4666 
z
" transform="scale(0.015625)"/>
      </defs>
      <use xlink:href="#DejaVuSans-47"/>
      <use xlink:href="#DejaVuSans-4d" transform="translate(77.490234 0)"/>
      <use xlink:href="#DejaVuSans-3d" transform="translate(163.769531 0)"/>
      <use xlink:href="#DejaVuSans-33" transform="translate(247.558594 0)"/>
      <use xlink:href="#DejaVuSans-2e" transform="translate(311.181641 0)"/>
      <use xlink:href="#DejaVuSans-35" transform="translate(342.96875 0)"/>
      <use xlink:href="#DejaVuSans-33" transform="translate(406.591797 0)"/>
     </g>
    </g>
    <g id="line2d_73">
     <path d="M 389.392095 67.264531 
L 397.392095 67.264531 
L 405.392095 67.264531 
" style="fill: none; stroke-dasharray: 1.2,1.98; stroke-dashoffset: 0; stroke: #ffd700; stroke-opacity: 0.6; stroke-width: 1.2"/>
    </g>
    <g id="text_22">
     <!-- Mean=1347 -->
     <g transform="translate(411.792095 70.064531) scale(0.08 -0.08)">
      <use xlink:href="#DejaVuSans-4d"/>
      <use xlink:href="#DejaVuSans-65" transform="translate(86.279297 0)"/>
      <use xlink:href="#DejaVuSans-61" transform="translate(147.802734 0)"/>
      <use xlink:href="#DejaVuSans-6e" transform="translate(209.082031 0)"/>
      <use xlink:href="#DejaVuSans-3d" transform="translate(272.460938 0)"/>
      <use xlink:href="#DejaVuSans-31" transform="translate(356.25 0)"/>
      <use xlink:href="#DejaVuSans-33" transform="translate(419.873047 0)"/>
      <use xlink:href="#DejaVuSans-34" transform="translate(483.496094 0)"/>
      <use xlink:href="#DejaVuSans-37" transform="translate(547.119141 0)"/>
     </g>
    </g>
    <g id="line2d_74">
     <path d="M 389.392095 79.007031 
L 397.392095 79.007031 
L 405.392095 79.007031 
" style="fill: none; stroke-dasharray: 3.7,1.6; stroke-dashoffset: 0; stroke: #4682b4; stroke-opacity: 0.6"/>
    </g>
    <g id="text_23">
     <!-- GM=2.98 -->
     <g transform="translate(411.792095 81.807031) scale(0.08 -0.08)">
      <defs>
       <path id="DejaVuSans-39" d="M 703 97 
L 703 672 
Q 941 559 1184 500 
Q 1428 441 1663 441 
Q 2288 441 2617 861 
Q 2947 1281 2994 2138 
Q 2813 1869 2534 1725 
Q 2256 1581 1919 1581 
Q 1219 1581 811 2004 
Q 403 2428 403 3163 
Q 403 3881 828 4315 
Q 1253 4750 1959 4750 
Q 2769 4750 3195 4129 
Q 3622 3509 3622 2328 
Q 3622 1225 3098 567 
Q 2575 -91 1691 -91 
Q 1453 -91 1209 -44 
Q 966 3 703 97 
z
M 1959 2075 
Q 2384 2075 2632 2365 
Q 2881 2656 2881 3163 
Q 2881 3666 2632 3958 
Q 2384 4250 1959 4250 
Q 1534 4250 1286 3958 
Q 1038 3666 1038 3163 
Q 1038 2656 1286 2365 
Q 1534 2075 1959 2075 
z
" transform="scale(0.015625)"/>
      </defs>
      <use xlink:href="#DejaVuSans-47"/>
      <use xlink:href="#DejaVuSans-4d" transform="translate(77.490234 0)"/>
      <use xlink:href="#DejaVuSans-3d" transform="translate(163.769531 0)"/>
      <use xlink:href="#DejaVuSans-32" transform="translate(247.558594 0)"/>
      <use xlink:href="#DejaVuSans-2e" transform="translate(311.181641 0)"/>
      <use xlink:href="#DejaVuSans-39" transform="translate(342.96875 0)"/>
      <use xlink:href="#DejaVuSans-38" transform="translate(406.591797 0)"/>
     </g>
    </g>
    <g id="line2d_75">
     <path d="M 389.392095 90.749531 
L 397.392095 90.749531 
L 405.392095 90.749531 
" style="fill: none; stroke-dasharray: 1.2,1.98; stroke-dashoffset: 0; stroke: #4682b4; stroke-opacity: 0.6; stroke-width: 1.2"/>
    </g>
    <g id="text_24">
     <!-- Mean=51 -->
     <g transform="translate(411.792095 93.549531) scale(0.08 -0.08)">
      <use xlink:href="#DejaVuSans-4d"/>
      <use xlink:href="#DejaVuSans-65" transform="translate(86.279297 0)"/>
      <use xlink:href="#DejaVuSans-61" transform="translate(147.802734 0)"/>
      <use xlink:href="#DejaVuSans-6e" transform="translate(209.082031 0)"/>
      <use xlink:href="#DejaVuSans-3d" transform="translate(272.460938 0)"/>
      <use xlink:href="#DejaVuSans-35" transform="translate(356.25 0)"/>
      <use xlink:href="#DejaVuSans-31" transform="translate(419.873047 0)"/>
     </g>
    </g>
   </g>
  </g>
  <g id="axes_2">
   <g id="patch_8">
    <path d="M 543.349063 309.406281 
L 984.430845 309.406281 
L 984.430845 21.558281 
L 543.349063 21.558281 
z
" style="fill: #ffffff"/>
   </g>
   <g id="matplotlib.axis_3">
    <g id="xtick_56">
     <g id="line2d_76">
      <g>
       <use xlink:href="#m081ae25d55" x="543.349063" y="309.406281" style="stroke: #000000; stroke-width: 0.8"/>
      </g>
     </g>
     <g id="text_25">
      <!-- $\mathdefault{10^{-1}}$ -->
      <g transform="translate(531.599063 324.004719) scale(0.1 -0.1)">
       <use xlink:href="#DejaVuSans-31" transform="translate(0 0.684375)"/>
       <use xlink:href="#DejaVuSans-30" transform="translate(63.623047 0.684375)"/>
       <use xlink:href="#DejaVuSans-2212" transform="translate(128.203125 38.965625) scale(0.7)"/>
       <use xlink:href="#DejaVuSans-31" transform="translate(186.855469 38.965625) scale(0.7)"/>
      </g>
     </g>
    </g>
    <g id="xtick_57">
     <g id="line2d_77">
      <g>
       <use xlink:href="#m081ae25d55" x="616.862693" y="309.406281" style="stroke: #000000; stroke-width: 0.8"/>
      </g>
     </g>
     <g id="text_26">
      <!-- $\mathdefault{10^{0}}$ -->
      <g transform="translate(608.062693 324.004719) scale(0.1 -0.1)">
       <use xlink:href="#DejaVuSans-31" transform="translate(0 0.765625)"/>
       <use xlink:href="#DejaVuSans-30" transform="translate(63.623047 0.765625)"/>
       <use xlink:href="#DejaVuSans-30" transform="translate(128.203125 39.046875) scale(0.7)"/>
      </g>
     </g>
    </g>
    <g id="xtick_58">
     <g id="line2d_78">
      <g>
       <use xlink:href="#m081ae25d55" x="690.376323" y="309.406281" style="stroke: #000000; stroke-width: 0.8"/>
      </g>
     </g>
     <g id="text_27">
      <!-- $\mathdefault{10^{1}}$ -->
      <g transform="translate(681.576323 324.004719) scale(0.1 -0.1)">
       <use xlink:href="#DejaVuSans-31" transform="translate(0 0.684375)"/>
       <use xlink:href="#DejaVuSans-30" transform="translate(63.623047 0.684375)"/>
       <use xlink:href="#DejaVuSans-31" transform="translate(128.203125 38.965625) scale(0.7)"/>
      </g>
     </g>
    </g>
    <g id="xtick_59">
     <g id="line2d_79">
      <g>
       <use xlink:href="#m081ae25d55" x="763.889954" y="309.406281" style="stroke: #000000; stroke-width: 0.8"/>
      </g>
     </g>
     <g id="text_28">
      <!-- $\mathdefault{10^{2}}$ -->
      <g transform="translate(755.089954 324.004719) scale(0.1 -0.1)">
       <use xlink:href="#DejaVuSans-31" transform="translate(0 0.765625)"/>
       <use xlink:href="#DejaVuSans-30" transform="translate(63.623047 0.765625)"/>
       <use xlink:href="#DejaVuSans-32" transform="translate(128.203125 39.046875) scale(0.7)"/>
      </g>
     </g>
    </g>
    <g id="xtick_60">
     <g id="line2d_80">
      <g>
       <use xlink:href="#m081ae25d55" x="837.403584" y="309.406281" style="stroke: #000000; stroke-width: 0.8"/>
      </g>
     </g>
     <g id="text_29">
      <!-- $\mathdefault{10^{3}}$ -->
      <g transform="translate(828.603584 324.004719) scale(0.1 -0.1)">
       <use xlink:href="#DejaVuSans-31" transform="translate(0 0.765625)"/>
       <use xlink:href="#DejaVuSans-30" transform="translate(63.623047 0.765625)"/>
       <use xlink:href="#DejaVuSans-33" transform="translate(128.203125 39.046875) scale(0.7)"/>
      </g>
     </g>
    </g>
    <g id="xtick_61">
     <g id="line2d_81">
      <g>
       <use xlink:href="#m081ae25d55" x="910.917215" y="309.406281" style="stroke: #000000; stroke-width: 0.8"/>
      </g>
     </g>
     <g id="text_30">
      <!-- $\mathdefault{10^{4}}$ -->
      <g transform="translate(902.117215 324.004719) scale(0.1 -0.1)">
       <use xlink:href="#DejaVuSans-31" transform="translate(0 0.684375)"/>
       <use xlink:href="#DejaVuSans-30" transform="translate(63.623047 0.684375)"/>
       <use xlink:href="#DejaVuSans-34" transform="translate(128.203125 38.965625) scale(0.7)"/>
      </g>
     </g>
    </g>
    <g id="xtick_62">
     <g id="line2d_82">
      <g>
       <use xlink:href="#m081ae25d55" x="984.430845" y="309.406281" style="stroke: #000000; stroke-width: 0.8"/>
      </g>
     </g>
     <g id="text_31">
      <!-- $\mathdefault{10^{5}}$ -->
      <g transform="translate(975.630845 324.004719) scale(0.1 -0.1)">
       <use xlink:href="#DejaVuSans-31" transform="translate(0 0.684375)"/>
       <use xlink:href="#DejaVuSans-30" transform="translate(63.623047 0.684375)"/>
       <use xlink:href="#DejaVuSans-35" transform="translate(128.203125 38.965625) scale(0.7)"/>
      </g>
     </g>
    </g>
    <g id="xtick_63">
     <g id="line2d_83">
      <g>
       <use xlink:href="#m2cd70c23cc" x="565.47887" y="309.406281" style="stroke: #000000; stroke-width: 0.6"/>
      </g>
     </g>
    </g>
    <g id="xtick_64">
     <g id="line2d_84">
      <g>
       <use xlink:href="#m2cd70c23cc" x="578.423978" y="309.406281" style="stroke: #000000; stroke-width: 0.6"/>
      </g>
     </g>
    </g>
    <g id="xtick_65">
     <g id="line2d_85">
      <g>
       <use xlink:href="#m2cd70c23cc" x="587.608678" y="309.406281" style="stroke: #000000; stroke-width: 0.6"/>
      </g>
     </g>
    </g>
    <g id="xtick_66">
     <g id="line2d_86">
      <g>
       <use xlink:href="#m2cd70c23cc" x="594.732885" y="309.406281" style="stroke: #000000; stroke-width: 0.6"/>
      </g>
     </g>
    </g>
    <g id="xtick_67">
     <g id="line2d_87">
      <g>
       <use xlink:href="#m2cd70c23cc" x="600.553786" y="309.406281" style="stroke: #000000; stroke-width: 0.6"/>
      </g>
     </g>
    </g>
    <g id="xtick_68">
     <g id="line2d_88">
      <g>
       <use xlink:href="#m2cd70c23cc" x="605.475287" y="309.406281" style="stroke: #000000; stroke-width: 0.6"/>
      </g>
     </g>
    </g>
    <g id="xtick_69">
     <g id="line2d_89">
      <g>
       <use xlink:href="#m2cd70c23cc" x="609.738486" y="309.406281" style="stroke: #000000; stroke-width: 0.6"/>
      </g>
     </g>
    </g>
    <g id="xtick_70">
     <g id="line2d_90">
      <g>
       <use xlink:href="#m2cd70c23cc" x="613.498894" y="309.406281" style="stroke: #000000; stroke-width: 0.6"/>
      </g>
     </g>
    </g>
    <g id="xtick_71">
     <g id="line2d_91">
      <g>
       <use xlink:href="#m2cd70c23cc" x="638.992501" y="309.406281" style="stroke: #000000; stroke-width: 0.6"/>
      </g>
     </g>
    </g>
    <g id="xtick_72">
     <g id="line2d_92">
      <g>
       <use xlink:href="#m2cd70c23cc" x="651.937609" y="309.406281" style="stroke: #000000; stroke-width: 0.6"/>
      </g>
     </g>
    </g>
    <g id="xtick_73">
     <g id="line2d_93">
      <g>
       <use xlink:href="#m2cd70c23cc" x="661.122309" y="309.406281" style="stroke: #000000; stroke-width: 0.6"/>
      </g>
     </g>
    </g>
    <g id="xtick_74">
     <g id="line2d_94">
      <g>
       <use xlink:href="#m2cd70c23cc" x="668.246516" y="309.406281" style="stroke: #000000; stroke-width: 0.6"/>
      </g>
     </g>
    </g>
    <g id="xtick_75">
     <g id="line2d_95">
      <g>
       <use xlink:href="#m2cd70c23cc" x="674.067416" y="309.406281" style="stroke: #000000; stroke-width: 0.6"/>
      </g>
     </g>
    </g>
    <g id="xtick_76">
     <g id="line2d_96">
      <g>
       <use xlink:href="#m2cd70c23cc" x="678.988918" y="309.406281" style="stroke: #000000; stroke-width: 0.6"/>
      </g>
     </g>
    </g>
    <g id="xtick_77">
     <g id="line2d_97">
      <g>
       <use xlink:href="#m2cd70c23cc" x="683.252116" y="309.406281" style="stroke: #000000; stroke-width: 0.6"/>
      </g>
     </g>
    </g>
    <g id="xtick_78">
     <g id="line2d_98">
      <g>
       <use xlink:href="#m2cd70c23cc" x="687.012524" y="309.406281" style="stroke: #000000; stroke-width: 0.6"/>
      </g>
     </g>
    </g>
    <g id="xtick_79">
     <g id="line2d_99">
      <g>
       <use xlink:href="#m2cd70c23cc" x="712.506131" y="309.406281" style="stroke: #000000; stroke-width: 0.6"/>
      </g>
     </g>
    </g>
    <g id="xtick_80">
     <g id="line2d_100">
      <g>
       <use xlink:href="#m2cd70c23cc" x="725.451239" y="309.406281" style="stroke: #000000; stroke-width: 0.6"/>
      </g>
     </g>
    </g>
    <g id="xtick_81">
     <g id="line2d_101">
      <g>
       <use xlink:href="#m2cd70c23cc" x="734.635939" y="309.406281" style="stroke: #000000; stroke-width: 0.6"/>
      </g>
     </g>
    </g>
    <g id="xtick_82">
     <g id="line2d_102">
      <g>
       <use xlink:href="#m2cd70c23cc" x="741.760146" y="309.406281" style="stroke: #000000; stroke-width: 0.6"/>
      </g>
     </g>
    </g>
    <g id="xtick_83">
     <g id="line2d_103">
      <g>
       <use xlink:href="#m2cd70c23cc" x="747.581047" y="309.406281" style="stroke: #000000; stroke-width: 0.6"/>
      </g>
     </g>
    </g>
    <g id="xtick_84">
     <g id="line2d_104">
      <g>
       <use xlink:href="#m2cd70c23cc" x="752.502548" y="309.406281" style="stroke: #000000; stroke-width: 0.6"/>
      </g>
     </g>
    </g>
    <g id="xtick_85">
     <g id="line2d_105">
      <g>
       <use xlink:href="#m2cd70c23cc" x="756.765747" y="309.406281" style="stroke: #000000; stroke-width: 0.6"/>
      </g>
     </g>
    </g>
    <g id="xtick_86">
     <g id="line2d_106">
      <g>
       <use xlink:href="#m2cd70c23cc" x="760.526155" y="309.406281" style="stroke: #000000; stroke-width: 0.6"/>
      </g>
     </g>
    </g>
    <g id="xtick_87">
     <g id="line2d_107">
      <g>
       <use xlink:href="#m2cd70c23cc" x="786.019762" y="309.406281" style="stroke: #000000; stroke-width: 0.6"/>
      </g>
     </g>
    </g>
    <g id="xtick_88">
     <g id="line2d_108">
      <g>
       <use xlink:href="#m2cd70c23cc" x="798.964869" y="309.406281" style="stroke: #000000; stroke-width: 0.6"/>
      </g>
     </g>
    </g>
    <g id="xtick_89">
     <g id="line2d_109">
      <g>
       <use xlink:href="#m2cd70c23cc" x="808.14957" y="309.406281" style="stroke: #000000; stroke-width: 0.6"/>
      </g>
     </g>
    </g>
    <g id="xtick_90">
     <g id="line2d_110">
      <g>
       <use xlink:href="#m2cd70c23cc" x="815.273776" y="309.406281" style="stroke: #000000; stroke-width: 0.6"/>
      </g>
     </g>
    </g>
    <g id="xtick_91">
     <g id="line2d_111">
      <g>
       <use xlink:href="#m2cd70c23cc" x="821.094677" y="309.406281" style="stroke: #000000; stroke-width: 0.6"/>
      </g>
     </g>
    </g>
    <g id="xtick_92">
     <g id="line2d_112">
      <g>
       <use xlink:href="#m2cd70c23cc" x="826.016179" y="309.406281" style="stroke: #000000; stroke-width: 0.6"/>
      </g>
     </g>
    </g>
    <g id="xtick_93">
     <g id="line2d_113">
      <g>
       <use xlink:href="#m2cd70c23cc" x="830.279377" y="309.406281" style="stroke: #000000; stroke-width: 0.6"/>
      </g>
     </g>
    </g>
    <g id="xtick_94">
     <g id="line2d_114">
      <g>
       <use xlink:href="#m2cd70c23cc" x="834.039785" y="309.406281" style="stroke: #000000; stroke-width: 0.6"/>
      </g>
     </g>
    </g>
    <g id="xtick_95">
     <g id="line2d_115">
      <g>
       <use xlink:href="#m2cd70c23cc" x="859.533392" y="309.406281" style="stroke: #000000; stroke-width: 0.6"/>
      </g>
     </g>
    </g>
    <g id="xtick_96">
     <g id="line2d_116">
      <g>
       <use xlink:href="#m2cd70c23cc" x="872.4785" y="309.406281" style="stroke: #000000; stroke-width: 0.6"/>
      </g>
     </g>
    </g>
    <g id="xtick_97">
     <g id="line2d_117">
      <g>
       <use xlink:href="#m2cd70c23cc" x="881.6632" y="309.406281" style="stroke: #000000; stroke-width: 0.6"/>
      </g>
     </g>
    </g>
    <g id="xtick_98">
     <g id="line2d_118">
      <g>
       <use xlink:href="#m2cd70c23cc" x="888.787407" y="309.406281" style="stroke: #000000; stroke-width: 0.6"/>
      </g>
     </g>
    </g>
    <g id="xtick_99">
     <g id="line2d_119">
      <g>
       <use xlink:href="#m2cd70c23cc" x="894.608308" y="309.406281" style="stroke: #000000; stroke-width: 0.6"/>
      </g>
     </g>
    </g>
    <g id="xtick_100">
     <g id="line2d_120">
      <g>
       <use xlink:href="#m2cd70c23cc" x="899.529809" y="309.406281" style="stroke: #000000; stroke-width: 0.6"/>
      </g>
     </g>
    </g>
    <g id="xtick_101">
     <g id="line2d_121">
      <g>
       <use xlink:href="#m2cd70c23cc" x="903.793008" y="309.406281" style="stroke: #000000; stroke-width: 0.6"/>
      </g>
     </g>
    </g>
    <g id="xtick_102">
     <g id="line2d_122">
      <g>
       <use xlink:href="#m2cd70c23cc" x="907.553415" y="309.406281" style="stroke: #000000; stroke-width: 0.6"/>
      </g>
     </g>
    </g>
    <g id="xtick_103">
     <g id="line2d_123">
      <g>
       <use xlink:href="#m2cd70c23cc" x="933.047023" y="309.406281" style="stroke: #000000; stroke-width: 0.6"/>
      </g>
     </g>
    </g>
    <g id="xtick_104">
     <g id="line2d_124">
      <g>
       <use xlink:href="#m2cd70c23cc" x="945.99213" y="309.406281" style="stroke: #000000; stroke-width: 0.6"/>
      </g>
     </g>
    </g>
    <g id="xtick_105">
     <g id="line2d_125">
      <g>
       <use xlink:href="#m2cd70c23cc" x="955.17683" y="309.406281" style="stroke: #000000; stroke-width: 0.6"/>
      </g>
     </g>
    </g>
    <g id="xtick_106">
     <g id="line2d_126">
      <g>
       <use xlink:href="#m2cd70c23cc" x="962.301037" y="309.406281" style="stroke: #000000; stroke-width: 0.6"/>
      </g>
     </g>
    </g>
    <g id="xtick_107">
     <g id="line2d_127">
      <g>
       <use xlink:href="#m2cd70c23cc" x="968.121938" y="309.406281" style="stroke: #000000; stroke-width: 0.6"/>
      </g>
     </g>
    </g>
    <g id="xtick_108">
     <g id="line2d_128">
      <g>
       <use xlink:href="#m2cd70c23cc" x="973.04344" y="309.406281" style="stroke: #000000; stroke-width: 0.6"/>
      </g>
     </g>
    </g>
    <g id="xtick_109">
     <g id="line2d_129">
      <g>
       <use xlink:href="#m2cd70c23cc" x="977.306638" y="309.406281" style="stroke: #000000; stroke-width: 0.6"/>
      </g>
     </g>
    </g>
    <g id="xtick_110">
     <g id="line2d_130">
      <g>
       <use xlink:href="#m2cd70c23cc" x="981.067046" y="309.406281" style="stroke: #000000; stroke-width: 0.6"/>
      </g>
     </g>
    </g>
    <g id="text_32">
     <!-- Péclet number Pe (log scale) -->
     <g transform="translate(685.489173 338.882687) scale(0.11 -0.11)">
      <use xlink:href="#DejaVuSans-50"/>
      <use xlink:href="#DejaVuSans-e9" transform="translate(56.677734 0)"/>
      <use xlink:href="#DejaVuSans-63" transform="translate(118.201172 0)"/>
      <use xlink:href="#DejaVuSans-6c" transform="translate(173.181641 0)"/>
      <use xlink:href="#DejaVuSans-65" transform="translate(200.964844 0)"/>
      <use xlink:href="#DejaVuSans-74" transform="translate(262.488281 0)"/>
      <use xlink:href="#DejaVuSans-20" transform="translate(301.697266 0)"/>
      <use xlink:href="#DejaVuSans-6e" transform="translate(333.484375 0)"/>
      <use xlink:href="#DejaVuSans-75" transform="translate(396.863281 0)"/>
      <use xlink:href="#DejaVuSans-6d" transform="translate(460.242188 0)"/>
      <use xlink:href="#DejaVuSans-62" transform="translate(557.654297 0)"/>
      <use xlink:href="#DejaVuSans-65" transform="translate(621.130859 0)"/>
      <use xlink:href="#DejaVuSans-72" transform="translate(682.654297 0)"/>
      <use xlink:href="#DejaVuSans-20" transform="translate(723.767578 0)"/>
      <use xlink:href="#DejaVuSans-50" transform="translate(755.554688 0)"/>
      <use xlink:href="#DejaVuSans-65" transform="translate(812.232422 0)"/>
      <use xlink:href="#DejaVuSans-20" transform="translate(873.755859 0)"/>
      <use xlink:href="#DejaVuSans-28" transform="translate(905.542969 0)"/>
      <use xlink:href="#DejaVuSans-6c" transform="translate(944.556641 0)"/>
      <use xlink:href="#DejaVuSans-6f" transform="translate(972.339844 0)"/>
      <use xlink:href="#DejaVuSans-67" transform="translate(1033.521484 0)"/>
      <use xlink:href="#DejaVuSans-20" transform="translate(1096.998047 0)"/>
      <use xlink:href="#DejaVuSans-73" transform="translate(1128.785156 0)"/>
      <use xlink:href="#DejaVuSans-63" transform="translate(1180.884766 0)"/>
      <use xlink:href="#DejaVuSans-61" transform="translate(1235.865234 0)"/>
      <use xlink:href="#DejaVuSans-6c" transform="translate(1297.144531 0)"/>
      <use xlink:href="#DejaVuSans-65" transform="translate(1324.927734 0)"/>
      <use xlink:href="#DejaVuSans-29" transform="translate(1386.451172 0)"/>
     </g>
    </g>
   </g>
   <g id="matplotlib.axis_4">
    <g id="ytick_9">
     <g id="line2d_131">
      <g>
       <use xlink:href="#m16b842417c" x="543.349063" y="261.493464" style="stroke: #000000; stroke-width: 0.8"/>
      </g>
     </g>
     <g id="text_33">
      <!-- 0.2 -->
      <g transform="translate(520.445938 265.292683) scale(0.1 -0.1)">
       <use xlink:href="#DejaVuSans-30"/>
       <use xlink:href="#DejaVuSans-2e" transform="translate(63.623047 0)"/>
       <use xlink:href="#DejaVuSans-32" transform="translate(95.410156 0)"/>
      </g>
     </g>
    </g>
    <g id="ytick_10">
     <g id="line2d_132">
      <g>
       <use xlink:href="#m16b842417c" x="543.349063" y="204.780233" style="stroke: #000000; stroke-width: 0.8"/>
      </g>
     </g>
     <g id="text_34">
      <!-- 0.4 -->
      <g transform="translate(520.445938 208.579452) scale(0.1 -0.1)">
       <use xlink:href="#DejaVuSans-30"/>
       <use xlink:href="#DejaVuSans-2e" transform="translate(63.623047 0)"/>
       <use xlink:href="#DejaVuSans-34" transform="translate(95.410156 0)"/>
      </g>
     </g>
    </g>
    <g id="ytick_11">
     <g id="line2d_133">
      <g>
       <use xlink:href="#m16b842417c" x="543.349063" y="148.067002" style="stroke: #000000; stroke-width: 0.8"/>
      </g>
     </g>
     <g id="text_35">
      <!-- 0.6 -->
      <g transform="translate(520.445938 151.866221) scale(0.1 -0.1)">
       <use xlink:href="#DejaVuSans-30"/>
       <use xlink:href="#DejaVuSans-2e" transform="translate(63.623047 0)"/>
       <use xlink:href="#DejaVuSans-36" transform="translate(95.410156 0)"/>
      </g>
     </g>
    </g>
    <g id="ytick_12">
     <g id="line2d_134">
      <g>
       <use xlink:href="#m16b842417c" x="543.349063" y="91.353772" style="stroke: #000000; stroke-width: 0.8"/>
      </g>
     </g>
     <g id="text_36">
      <!-- 0.8 -->
      <g transform="translate(520.445938 95.15299) scale(0.1 -0.1)">
       <use xlink:href="#DejaVuSans-30"/>
       <use xlink:href="#DejaVuSans-2e" transform="translate(63.623047 0)"/>
       <use xlink:href="#DejaVuSans-38" transform="translate(95.410156 0)"/>
      </g>
     </g>
    </g>
    <g id="ytick_13">
     <g id="line2d_135">
      <g>
       <use xlink:href="#m16b842417c" x="543.349063" y="34.640541" style="stroke: #000000; stroke-width: 0.8"/>
      </g>
     </g>
     <g id="text_37">
      <!-- 1.0 -->
      <g transform="translate(520.445938 38.439759) scale(0.1 -0.1)">
       <use xlink:href="#DejaVuSans-31"/>
       <use xlink:href="#DejaVuSans-2e" transform="translate(63.623047 0)"/>
       <use xlink:href="#DejaVuSans-30" transform="translate(95.410156 0)"/>
      </g>
     </g>
    </g>
    <g id="text_38">
     <!-- CDF -->
     <g transform="translate(514.158281 176.721187) rotate(-90) scale(0.11 -0.11)">
      <defs>
       <path id="DejaVuSans-43" d="M 4122 4306 
L 4122 3641 
Q 3803 3938 3442 4084 
Q 3081 4231 2675 4231 
Q 1875 4231 1450 3742 
Q 1025 3253 1025 2328 
Q 1025 1406 1450 917 
Q 1875 428 2675 428 
Q 3081 428 3442 575 
Q 3803 722 4122 1019 
L 4122 359 
Q 3791 134 3420 21 
Q 3050 -91 2638 -91 
Q 1578 -91 968 557 
Q 359 1206 359 2328 
Q 359 3453 968 4101 
Q 1578 4750 2638 4750 
Q 3056 4750 3426 4639 
Q 3797 4528 4122 4306 
z
" transform="scale(0.015625)"/>
       <path id="DejaVuSans-44" d="M 1259 4147 
L 1259 519 
L 2022 519 
Q 2988 519 3436 956 
Q 3884 1394 3884 2338 
Q 3884 3275 3436 3711 
Q 2988 4147 2022 4147 
L 1259 4147 
z
M 628 4666 
L 1925 4666 
Q 3281 4666 3915 4102 
Q 4550 3538 4550 2338 
Q 4550 1131 3912 565 
Q 3275 0 1925 0 
L 628 0 
L 628 4666 
z
" transform="scale(0.015625)"/>
      </defs>
      <use xlink:href="#DejaVuSans-43"/>
      <use xlink:href="#DejaVuSans-44" transform="translate(69.824219 0)"/>
      <use xlink:href="#DejaVuSans-46" transform="translate(146.826172 0)"/>
     </g>
    </g>
   </g>
   <g id="line2d_136">
    <path d="M 543.349063 275.484829 
L 549.971912 271.371358 
L 556.594762 267.009865 
L 563.659135 262.086235 
L 570.723507 256.886967 
L 577.78788 251.419188 
L 585.293777 245.326423 
L 593.241196 238.573589 
L 601.188616 231.531921 
L 610.019082 223.400601 
L 619.291071 214.558029 
L 629.88763 204.137708 
L 642.691806 191.220239 
L 668.741681 164.514591 
L 683.753474 149.329974 
L 694.791556 138.464175 
L 704.505069 129.202061 
L 713.335535 121.079776 
L 721.724478 113.664779 
L 729.671898 106.938584 
L 737.177794 100.872571 
L 744.68369 95.099865 
L 751.748063 89.944819 
L 758.812436 85.06632 
L 765.876809 80.468499 
L 772.499658 76.414458 
L 779.122508 72.608066 
L 785.745357 69.047101 
L 792.368207 65.727773 
L 798.991057 62.644859 
L 806.05543 59.609659 
L 813.119802 56.826766 
L 820.184175 54.285689 
L 827.248548 51.974948 
L 834.754444 49.758458 
L 842.260341 47.772802 
L 850.20776 45.904389 
L 858.596703 44.172779 
L 866.985646 42.666484 
L 875.816112 41.300443 
L 885.529625 40.029193 
L 895.684661 38.926944 
L 906.722743 37.954224 
L 919.085396 37.097779 
L 932.772618 36.381875 
L 948.225934 35.801092 
L 966.769913 35.336911 
L 984.430845 35.058375 
L 984.430845 35.058375 
" clip-path="url(#pd1609ff30d)" style="fill: none; stroke: #ffd700; stroke-width: 2; stroke-linecap: square"/>
   </g>
   <g id="line2d_137">
    <path d="M 543.349063 296.322281 
L 548.205819 293.582898 
L 553.062575 290.595077 
L 557.919332 287.349533 
L 562.776088 283.838365 
L 567.632844 280.055273 
L 572.489601 275.995766 
L 577.346357 271.657353 
L 582.203113 267.039719 
L 587.501393 261.68627 
L 592.799673 256.008882 
L 598.097952 250.017065 
L 603.837755 243.186459 
L 610.019082 235.459918 
L 616.200408 227.381754 
L 623.264781 217.769975 
L 631.2122 206.554763 
L 640.925713 192.4246 
L 660.352739 163.622137 
L 671.390821 147.505877 
L 679.779764 135.63728 
L 686.844137 126.004194 
L 693.466987 117.338753 
L 699.648313 109.614481 
L 705.388116 102.786147 
L 711.127919 96.311449 
L 716.426198 90.66304 
L 721.724478 85.339253 
L 727.022758 80.345692 
L 731.879514 76.060262 
L 736.73627 72.053428 
L 741.593027 68.322305 
L 746.449783 64.862044 
L 751.30654 61.666026 
L 756.163296 58.726069 
L 761.020052 56.032652 
L 765.876809 53.575129 
L 771.175088 51.149645 
L 776.473368 48.975234 
L 781.771648 47.035329 
L 787.511451 45.17877 
L 793.251254 43.555949 
L 799.43258 42.045181 
L 806.05543 40.67031 
L 813.119802 39.448182 
L 820.625699 38.388143 
L 828.573118 37.492053 
L 837.403584 36.721155 
L 847.55862 36.06682 
L 859.038226 35.553204 
L 873.166972 35.152437 
L 891.269428 34.873423 
L 917.760826 34.7074 
L 970.743623 34.644448 
L 984.430845 34.642281 
L 984.430845 34.642281 
" clip-path="url(#pd1609ff30d)" style="fill: none; stroke: #4682b4; stroke-width: 2; stroke-linecap: square"/>
   </g>
   <g id="line2d_138">
    <path d="M 543.349063 46.650734 
L 984.430845 46.650734 
" clip-path="url(#pd1609ff30d)" style="fill: none; stroke-dasharray: 1,1.65; stroke-dashoffset: 0; stroke: #ffd700; stroke-opacity: 0.7"/>
   </g>
   <g id="line2d_139">
    <path d="M 543.349063 67.734333 
L 984.430845 67.734333 
" clip-path="url(#pd1609ff30d)" style="fill: none; stroke-dasharray: 1,1.65; stroke-dashoffset: 0; stroke: #4682b4; stroke-opacity: 0.7"/>
   </g>
   <g id="line2d_140">
    <path d="M 543.349063 176.423618 
L 984.430845 176.423618 
" clip-path="url(#pd1609ff30d)" style="fill: none; stroke-dasharray: 2.96,1.28; stroke-dashoffset: 0; stroke: #ffffff; stroke-opacity: 0.4; stroke-width: 0.8"/>
   </g>
   <g id="patch_9">
    <path d="M 543.349063 309.406281 
L 543.349063 21.558281 
" style="fill: none; stroke: #000000; stroke-width: 0.8; stroke-linejoin: miter; stroke-linecap: square"/>
   </g>
   <g id="patch_10">
    <path d="M 984.430845 309.406281 
L 984.430845 21.558281 
" style="fill: none; stroke: #000000; stroke-width: 0.8; stroke-linejoin: miter; stroke-linecap: square"/>
   </g>
   <g id="patch_11">
    <path d="M 543.349063 309.406281 
L 984.430845 309.406281 
" style="fill: none; stroke: #000000; stroke-width: 0.8; stroke-linejoin: miter; stroke-linecap: square"/>
   </g>
   <g id="patch_12">
    <path d="M 543.349063 21.558281 
L 984.430845 21.558281 
" style="fill: none; stroke: #000000; stroke-width: 0.8; stroke-linejoin: miter; stroke-linecap: square"/>
   </g>
   <g id="text_39">
    <!-- CDF: where does the arithmetic mean sit? -->
    <g transform="translate(648.397688 15.558281) scale(0.11 -0.11)">
     <defs>
      <path id="DejaVuSans-68" d="M 3513 2113 
L 3513 0 
L 2938 0 
L 2938 2094 
Q 2938 2591 2744 2837 
Q 2550 3084 2163 3084 
Q 1697 3084 1428 2787 
Q 1159 2491 1159 1978 
L 1159 0 
L 581 0 
L 581 4863 
L 1159 4863 
L 1159 2956 
Q 1366 3272 1645 3428 
Q 1925 3584 2291 3584 
Q 2894 3584 3203 3211 
Q 3513 2838 3513 2113 
z
" transform="scale(0.015625)"/>
      <path id="DejaVuSans-3f" d="M 1222 794 
L 1856 794 
L 1856 0 
L 1222 0 
L 1222 794 
z
M 1838 1253 
L 1241 1253 
L 1241 1734 
Q 1241 2050 1328 2253 
Q 1416 2456 1697 2725 
L 1978 3003 
Q 2156 3169 2236 3316 
Q 2316 3463 2316 3616 
Q 2316 3894 2111 4066 
Q 1906 4238 1569 4238 
Q 1322 4238 1042 4128 
Q 763 4019 459 3809 
L 459 4397 
Q 753 4575 1054 4662 
Q 1356 4750 1678 4750 
Q 2253 4750 2601 4447 
Q 2950 4144 2950 3647 
Q 2950 3409 2837 3195 
Q 2725 2981 2444 2713 
L 2169 2444 
Q 2022 2297 1961 2214 
Q 1900 2131 1875 2053 
Q 1856 1988 1847 1894 
Q 1838 1800 1838 1638 
L 1838 1253 
z
" transform="scale(0.015625)"/>
     </defs>
     <use xlink:href="#DejaVuSans-43"/>
     <use xlink:href="#DejaVuSans-44" transform="translate(69.824219 0)"/>
     <use xlink:href="#DejaVuSans-46" transform="translate(146.826172 0)"/>
     <use xlink:href="#DejaVuSans-3a" transform="translate(196.595703 0)"/>
     <use xlink:href="#DejaVuSans-20" transform="translate(230.287109 0)"/>
     <use xlink:href="#DejaVuSans-77" transform="translate(262.074219 0)"/>
     <use xlink:href="#DejaVuSans-68" transform="translate(343.861328 0)"/>
     <use xlink:href="#DejaVuSans-65" transform="translate(407.240234 0)"/>
     <use xlink:href="#DejaVuSans-72" transform="translate(468.763672 0)"/>
     <use xlink:href="#DejaVuSans-65" transform="translate(507.626953 0)"/>
     <use xlink:href="#DejaVuSans-20" transform="translate(569.150391 0)"/>
     <use xlink:href="#DejaVuSans-64" transform="translate(600.9375 0)"/>
     <use xlink:href="#DejaVuSans-6f" transform="translate(664.414062 0)"/>
     <use xlink:href="#DejaVuSans-65" transform="translate(725.595703 0)"/>
     <use xlink:href="#DejaVuSans-73" transform="translate(787.119141 0)"/>
     <use xlink:href="#DejaVuSans-20" transform="translate(839.21875 0)"/>
     <use xlink:href="#DejaVuSans-74" transform="translate(871.005859 0)"/>
     <use xlink:href="#DejaVuSans-68" transform="translate(910.214844 0)"/>
     <use xlink:href="#DejaVuSans-65" transform="translate(973.59375 0)"/>
     <use xlink:href="#DejaVuSans-20" transform="translate(1035.117188 0)"/>
     <use xlink:href="#DejaVuSans-61" transform="translate(1066.904297 0)"/>
     <use xlink:href="#DejaVuSans-72" transform="translate(1128.183594 0)"/>
     <use xlink:href="#DejaVuSans-69" transform="translate(1169.296875 0)"/>
     <use xlink:href="#DejaVuSans-74" transform="translate(1197.080078 0)"/>
     <use xlink:href="#DejaVuSans-68" transform="translate(1236.289062 0)"/>
     <use xlink:href="#DejaVuSans-6d" transform="translate(1299.667969 0)"/>
     <use xlink:href="#DejaVuSans-65" transform="translate(1397.080078 0)"/>
     <use xlink:href="#DejaVuSans-74" transform="translate(1458.603516 0)"/>
     <use xlink:href="#DejaVuSans-69" transform="translate(1497.8125 0)"/>
     <use xlink:href="#DejaVuSans-63" transform="translate(1525.595703 0)"/>
     <use xlink:href="#DejaVuSans-20" transform="translate(1580.576172 0)"/>
     <use xlink:href="#DejaVuSans-6d" transform="translate(1612.363281 0)"/>
     <use xlink:href="#DejaVuSans-65" transform="translate(1709.775391 0)"/>
     <use xlink:href="#DejaVuSans-61" transform="translate(1771.298828 0)"/>
     <use xlink:href="#DejaVuSans-6e" transform="translate(1832.578125 0)"/>
     <use xlink:href="#DejaVuSans-20" transform="translate(1895.957031 0)"/>
     <use xlink:href="#DejaVuSans-73" transform="translate(1927.744141 0)"/>
     <use xlink:href="#DejaVuSans-69" transform="translate(1979.84375 0)"/>
     <use xlink:href="#DejaVuSans-74" transform="translate(2007.626953 0)"/>
     <use xlink:href="#DejaVuSans-3f" transform="translate(2046.835938 0)"/>
    </g>
   </g>
   <g id="legend_2">
    <g id="patch_13">
     <path d="M 850.502095 305.406281 
L 978.830845 305.406281 
Q 980.430845 305.406281 980.430845 303.806281 
L 980.430845 245.893781 
Q 980.430845 244.293781 978.830845 244.293781 
L 850.502095 244.293781 
Q 848.902095 244.293781 848.902095 245.893781 
L 848.902095 303.806281 
Q 848.902095 305.406281 850.502095 305.406281 
z
" style="fill: #ffffff; opacity: 0.8; stroke: #cccccc; stroke-linejoin: miter"/>
    </g>
    <g id="line2d_141">
     <path d="M 852.102095 250.772531 
L 860.102095 250.772531 
L 868.102095 250.772531 
" style="fill: none; stroke: #ffd700; stroke-width: 2; stroke-linecap: square"/>
    </g>
    <g id="text_40">
     <!-- Forward CDF -->
     <g transform="translate(874.502095 253.572531) scale(0.08 -0.08)">
      <use xlink:href="#DejaVuSans-46"/>
      <use xlink:href="#DejaVuSans-6f" transform="translate(53.894531 0)"/>
      <use xlink:href="#DejaVuSans-72" transform="translate(115.076172 0)"/>
      <use xlink:href="#DejaVuSans-77" transform="translate(156.189453 0)"/>
      <use xlink:href="#DejaVuSans-61" transform="translate(237.976562 0)"/>
      <use xlink:href="#DejaVuSans-72" transform="translate(299.255859 0)"/>
      <use xlink:href="#DejaVuSans-64" transform="translate(338.619141 0)"/>
      <use xlink:href="#DejaVuSans-20" transform="translate(402.095703 0)"/>
      <use xlink:href="#DejaVuSans-43" transform="translate(433.882812 0)"/>
      <use xlink:href="#DejaVuSans-44" transform="translate(503.707031 0)"/>
      <use xlink:href="#DejaVuSans-46" transform="translate(580.708984 0)"/>
     </g>
    </g>
    <g id="line2d_142">
     <path d="M 852.102095 262.515031 
L 860.102095 262.515031 
L 868.102095 262.515031 
" style="fill: none; stroke: #4682b4; stroke-width: 2; stroke-linecap: square"/>
    </g>
    <g id="text_41">
     <!-- Reverse CDF -->
     <g transform="translate(874.502095 265.315031) scale(0.08 -0.08)">
      <use xlink:href="#DejaVuSans-52"/>
      <use xlink:href="#DejaVuSans-65" transform="translate(64.982422 0)"/>
      <use xlink:href="#DejaVuSans-76" transform="translate(126.505859 0)"/>
      <use xlink:href="#DejaVuSans-65" transform="translate(185.685547 0)"/>
      <use xlink:href="#DejaVuSans-72" transform="translate(247.208984 0)"/>
      <use xlink:href="#DejaVuSans-73" transform="translate(288.322266 0)"/>
      <use xlink:href="#DejaVuSans-65" transform="translate(340.421875 0)"/>
      <use xlink:href="#DejaVuSans-20" transform="translate(401.945312 0)"/>
      <use xlink:href="#DejaVuSans-43" transform="translate(433.732422 0)"/>
      <use xlink:href="#DejaVuSans-44" transform="translate(503.556641 0)"/>
      <use xlink:href="#DejaVuSans-46" transform="translate(580.558594 0)"/>
     </g>
    </g>
    <g id="line2d_143">
     <path d="M 852.102095 274.257531 
L 860.102095 274.257531 
L 868.102095 274.257531 
" style="fill: none; stroke-dasharray: 1,1.65; stroke-dashoffset: 0; stroke: #ffd700; stroke-opacity: 0.7"/>
    </g>
    <g id="text_42">
     <!-- Forward mean = 96th pct -->
     <g transform="translate(874.502095 277.057531) scale(0.08 -0.08)">
      <defs>
       <path id="DejaVuSans-70" d="M 1159 525 
L 1159 -1331 
L 581 -1331 
L 581 3500 
L 1159 3500 
L 1159 2969 
Q 1341 3281 1617 3432 
Q 1894 3584 2278 3584 
Q 2916 3584 3314 3078 
Q 3713 2572 3713 1747 
Q 3713 922 3314 415 
Q 2916 -91 2278 -91 
Q 1894 -91 1617 61 
Q 1341 213 1159 525 
z
M 3116 1747 
Q 3116 2381 2855 2742 
Q 2594 3103 2138 3103 
Q 1681 3103 1420 2742 
Q 1159 2381 1159 1747 
Q 1159 1113 1420 752 
Q 1681 391 2138 391 
Q 2594 391 2855 752 
Q 3116 1113 3116 1747 
z
" transform="scale(0.015625)"/>
      </defs>
      <use xlink:href="#DejaVuSans-46"/>
      <use xlink:href="#DejaVuSans-6f" transform="translate(53.894531 0)"/>
      <use xlink:href="#DejaVuSans-72" transform="translate(115.076172 0)"/>
      <use xlink:href="#DejaVuSans-77" transform="translate(156.189453 0)"/>
      <use xlink:href="#DejaVuSans-61" transform="translate(237.976562 0)"/>
      <use xlink:href="#DejaVuSans-72" transform="translate(299.255859 0)"/>
      <use xlink:href="#DejaVuSans-64" transform="translate(338.619141 0)"/>
      <use xlink:href="#DejaVuSans-20" transform="translate(402.095703 0)"/>
      <use xlink:href="#DejaVuSans-6d" transform="translate(433.882812 0)"/>
      <use xlink:href="#DejaVuSans-65" transform="translate(531.294922 0)"/>
      <use xlink:href="#DejaVuSans-61" transform="translate(592.818359 0)"/>
      <use xlink:href="#DejaVuSans-6e" transform="translate(654.097656 0)"/>
      <use xlink:href="#DejaVuSans-20" transform="translate(717.476562 0)"/>
      <use xlink:href="#DejaVuSans-3d" transform="translate(749.263672 0)"/>
      <use xlink:href="#DejaVuSans-20" transform="translate(833.052734 0)"/>
      <use xlink:href="#DejaVuSans-39" transform="translate(864.839844 0)"/>
      <use xlink:href="#DejaVuSans-36" transform="translate(928.462891 0)"/>
      <use xlink:href="#DejaVuSans-74" transform="translate(992.085938 0)"/>
      <use xlink:href="#DejaVuSans-68" transform="translate(1031.294922 0)"/>
      <use xlink:href="#DejaVuSans-20" transform="translate(1094.673828 0)"/>
      <use xlink:href="#DejaVuSans-70" transform="translate(1126.460938 0)"/>
      <use xlink:href="#DejaVuSans-63" transform="translate(1189.9375 0)"/>
      <use xlink:href="#DejaVuSans-74" transform="translate(1244.917969 0)"/>
     </g>
    </g>
    <g id="line2d_144">
     <path d="M 852.102095 286.000031 
L 860.102095 286.000031 
L 868.102095 286.000031 
" style="fill: none; stroke-dasharray: 1,1.65; stroke-dashoffset: 0; stroke: #4682b4; stroke-opacity: 0.7"/>
    </g>
    <g id="text_43">
     <!-- Reverse mean = 88th pct -->
     <g transform="translate(874.502095 288.800031) scale(0.08 -0.08)">
      <use xlink:href="#DejaVuSans-52"/>
      <use xlink:href="#DejaVuSans-65" transform="translate(64.982422 0)"/>
      <use xlink:href="#DejaVuSans-76" transform="translate(126.505859 0)"/>
      <use xlink:href="#DejaVuSans-65" transform="translate(185.685547 0)"/>
      <use xlink:href="#DejaVuSans-72" transform="translate(247.208984 0)"/>
      <use xlink:href="#DejaVuSans-73" transform="translate(288.322266 0)"/>
      <use xlink:href="#DejaVuSans-65" transform="translate(340.421875 0)"/>
      <use xlink:href="#DejaVuSans-20" transform="translate(401.945312 0)"/>
      <use xlink:href="#DejaVuSans-6d" transform="translate(433.732422 0)"/>
      <use xlink:href="#DejaVuSans-65" transform="translate(531.144531 0)"/>
      <use xlink:href="#DejaVuSans-61" transform="translate(592.667969 0)"/>
      <use xlink:href="#DejaVuSans-6e" transform="translate(653.947266 0)"/>
      <use xlink:href="#DejaVuSans-20" transform="translate(717.326172 0)"/>
      <use xlink:href="#DejaVuSans-3d" transform="translate(749.113281 0)"/>
      <use xlink:href="#DejaVuSans-20" transform="translate(832.902344 0)"/>
      <use xlink:href="#DejaVuSans-38" transform="translate(864.689453 0)"/>
      <use xlink:href="#DejaVuSans-38" transform="translate(928.3125 0)"/>
      <use xlink:href="#DejaVuSans-74" transform="translate(991.935547 0)"/>
      <use xlink:href="#DejaVuSans-68" transform="translate(1031.144531 0)"/>
      <use xlink:href="#DejaVuSans-20" transform="translate(1094.523438 0)"/>
      <use xlink:href="#DejaVuSans-70" transform="translate(1126.310547 0)"/>
      <use xlink:href="#DejaVuSans-63" transform="translate(1189.787109 0)"/>
      <use xlink:href="#DejaVuSans-74" transform="translate(1244.767578 0)"/>
     </g>
    </g>
    <g id="line2d_145">
     <path d="M 852.102095 297.742531 
L 860.102095 297.742531 
L 868.102095 297.742531 
" style="fill: none; stroke-dasharray: 2.96,1.28; stroke-dashoffset: 0; stroke: #ffffff; stroke-opacity: 0.4; stroke-width: 0.8"/>
    </g>
    <g id="text_44">
     <!-- Median = 50th pct -->
     <g transform="translate(874.502095 300.542531) scale(0.08 -0.08)">
      <use xlink:href="#DejaVuSans-4d"/>
      <use xlink:href="#DejaVuSans-65" transform="translate(86.279297 0)"/>
      <use xlink:href="#DejaVuSans-64" transform="translate(147.802734 0)"/>
      <use xlink:href="#DejaVuSans-69" transform="translate(211.279297 0)"/>
      <use xlink:href="#DejaVuSans-61" transform="translate(239.0625 0)"/>
      <use xlink:href="#DejaVuSans-6e" transform="translate(300.341797 0)"/>
      <use xlink:href="#DejaVuSans-20" transform="translate(363.720703 0)"/>
      <use xlink:href="#DejaVuSans-3d" transform="translate(395.507812 0)"/>
      <use xlink:href="#DejaVuSans-20" transform="translate(479.296875 0)"/>
      <use xlink:href="#DejaVuSans-35" transform="translate(511.083984 0)"/>
      <use xlink:href="#DejaVuSans-30" transform="translate(574.707031 0)"/>
      <use xlink:href="#DejaVuSans-74" transform="translate(638.330078 0)"/>
      <use xlink:href="#DejaVuSans-68" transform="translate(677.539062 0)"/>
      <use xlink:href="#DejaVuSans-20" transform="translate(740.917969 0)"/>
      <use xlink:href="#DejaVuSans-70" transform="translate(772.705078 0)"/>
      <use xlink:href="#DejaVuSans-63" transform="translate(836.181641 0)"/>
      <use xlink:href="#DejaVuSans-74" transform="translate(891.162109 0)"/>
     </g>
    </g>
   </g>
  </g>
 </g>
 <defs>
  <clipPath id="p39db46fe09">
   <rect x="44.749063" y="21.558281" width="441.081783" height="287.848"/>
  </clipPath>
  <clipPath id="pd1609ff30d">
   <rect x="543.349063" y="21.558281" width="441.081783" height="287.848"/>
  </clipPath>
 </defs>
</svg>
