<?xml version="1.0" encoding="utf-8" standalone="no"?>
<!DOCTYPE svg PUBLIC "-//W3C//DTD SVG 1.1//EN"
  "http://www.w3.org/Graphics/SVG/1.1/DTD/svg11.dtd">
<svg xmlns:xlink="http://www.w3.org/1999/xlink" width="784.497812pt" height="422.942625pt" viewBox="0 0 784.497812 422.942625" xmlns="http://www.w3.org/2000/svg" version="1.1">
 <metadata>
  <rdf:RDF xmlns:dc="http://purl.org/dc/elements/1.1/" xmlns:cc="http://creativecommons.org/ns#" xmlns:rdf="http://www.w3.org/1999/02/22-rdf-syntax-ns#">
   <cc:Work>
    <dc:type rdf:resource="http://purl.org/dc/dcmitype/StillImage"/>
    <dc:date>2026-02-22T05:34:30.099808</dc:date>
    <dc:format>image/svg+xml</dc:format>
    <dc:creator>
     <cc:Agent>
      <dc:title>Matplotlib v3.10.8, https://matplotlib.org/</dc:title>
     </cc:Agent>
    </dc:creator>
   </cc:Work>
  </rdf:RDF>
 </metadata>
 <defs>
  <style type="text/css">*{stroke-linejoin: round; stroke-linecap: butt}</style>
 </defs>
 <g id="figure_1">
  <g id="patch_1">
   <path d="M 0 422.942625 
L 784.497812 422.942625 
L 784.497812 0 
L 0 0 
z
" style="fill: #ffffff"/>
  </g>
  <g id="axes_1">
   <g id="patch_2">
    <path d="M 51.88625 382.482938 
L 769.34625 382.482938 
L 769.34625 43.472188 
L 51.88625 43.472188 
z
" style="fill: #ffffff"/>
   </g>
   <g id="patch_3">
    <path d="M 51.88625 382.482938 
L 497.590774 382.482938 
L 497.590774 43.472188 
L 51.88625 43.472188 
z
" clip-path="url(#p14597899fe)" style="fill: #e74c3c; opacity: 0.08; stroke: #e74c3c; stroke-linejoin: miter"/>
   </g>
   <g id="patch_4">
    <path d="M 497.590774 382.482938 
L 514.239142 382.482938 
L 514.239142 43.472188 
L 497.590774 43.472188 
z
" clip-path="url(#p14597899fe)" style="fill: #f39c12; opacity: 0.12; stroke: #f39c12; stroke-linejoin: miter"/>
   </g>
   <g id="patch_5">
    <path d="M 514.239142 382.482938 
L 769.34625 382.482938 
L 769.34625 43.472188 
L 514.239142 43.472188 
z
" clip-path="url(#p14597899fe)" style="fill: #3498db; opacity: 0.08; stroke: #3498db; stroke-linejoin: miter"/>
   </g>
   <g id="matplotlib.axis_1">
    <g id="xtick_1">
     <g id="line2d_1">
      <path d="M 51.88625 382.482938 
L 51.88625 43.472188 
" clip-path="url(#p14597899fe)" style="fill: none; stroke-dasharray: 0.8,1.32; stroke-dashoffset: 0; stroke: #b0b0b0; stroke-opacity: 0.3; stroke-width: 0.8"/>
     </g>
     <g id="line2d_2">
      <defs>
       <path id="m3c93eee34c" d="M 0 0 
L 0 3.5 
" style="stroke: #000000; stroke-width: 0.8"/>
      </defs>
      <g>
       <use xlink:href="#m3c93eee34c" x="51.88625" y="382.482938" style="stroke: #000000; stroke-width: 0.8"/>
      </g>
     </g>
     <g id="text_1">
      <!-- 0.0 -->
      <g transform="translate(43.934688 397.081375) scale(0.1 -0.1)">
       <defs>
        <path id="DejaVuSans-30" d="M 2034 4250 
Q 1547 4250 1301 3770 
Q 1056 3291 1056 2328 
Q 1056 1369 1301 889 
Q 1547 409 2034 409 
Q 2525 409 2770 889 
Q 3016 1369 3016 2328 
Q 3016 3291 2770 3770 
Q 2525 4250 2034 4250 
z
M 2034 4750 
Q 2819 4750 3233 4129 
Q 3647 3509 3647 2328 
Q 3647 1150 3233 529 
Q 2819 -91 2034 -91 
Q 1250 -91 836 529 
Q 422 1150 422 2328 
Q 422 3509 836 4129 
Q 1250 4750 2034 4750 
z
" transform="scale(0.015625)"/>
        <path id="DejaVuSans-2e" d="M 684 794 
L 1344 794 
L 1344 0 
L 684 0 
L 684 794 
z
" transform="scale(0.015625)"/>
       </defs>
       <use xlink:href="#DejaVuSans-30"/>
       <use xlink:href="#DejaVuSans-2e" transform="translate(63.623047 0)"/>
       <use xlink:href="#DejaVuSans-30" transform="translate(95.410156 0)"/>
      </g>
     </g>
    </g>
    <g id="xtick_2">
     <g id="line2d_3">
      <path d="M 171.462917 382.482938 
L 171.462917 43.472188 
" clip-path="url(#p14597899fe)" style="fill: none; stroke-dasharray: 0.8,1.32; stroke-dashoffset: 0; stroke: #b0b0b0; stroke-opacity: 0.3; stroke-width: 0.8"/>
     </g>
     <g id="line2d_4">
      <g>
       <use xlink:href="#m3c93eee34c" x="171.462917" y="382.482938" style="stroke: #000000; stroke-width: 0.8"/>
      </g>
     </g>
     <g id="text_2">
      <!-- 0.1 -->
      <g transform="translate(163.511354 397.081375) scale(0.1 -0.1)">
       <defs>
        <path id="DejaVuSans-31" d="M 794 531 
L 1825 531 
L 1825 4091 
L 703 3866 
L 703 4441 
L 1819 4666 
L 2450 4666 
L 2450 531 
L 3481 531 
L 3481 0 
L 794 0 
L 794 531 
z
" transform="scale(0.015625)"/>
       </defs>
       <use xlink:href="#DejaVuSans-30"/>
       <use xlink:href="#DejaVuSans-2e" transform="translate(63.623047 0)"/>
       <use xlink:href="#DejaVuSans-31" transform="translate(95.410156 0)"/>
      </g>
     </g>
    </g>
    <g id="xtick_3">
     <g id="line2d_5">
      <path d="M 291.039583 382.482938 
L 291.039583 43.472188 
" clip-path="url(#p14597899fe)" style="fill: none; stroke-dasharray: 0.8,1.32; stroke-dashoffset: 0; stroke: #b0b0b0; stroke-opacity: 0.3; stroke-width: 0.8"/>
     </g>
     <g id="line2d_6">
      <g>
       <use xlink:href="#m3c93eee34c" x="291.039583" y="382.482938" style="stroke: #000000; stroke-width: 0.8"/>
      </g>
     </g>
     <g id="text_3">
      <!-- 0.2 -->
      <g transform="translate(283.088021 397.081375) scale(0.1 -0.1)">
       <defs>
        <path id="DejaVuSans-32" d="M 1228 531 
L 3431 531 
L 3431 0 
L 469 0 
L 469 531 
Q 828 903 1448 1529 
Q 2069 2156 2228 2338 
Q 2531 2678 2651 2914 
Q 2772 3150 2772 3378 
Q 2772 3750 2511 3984 
Q 2250 4219 1831 4219 
Q 1534 4219 1204 4116 
Q 875 4013 500 3803 
L 500 4441 
Q 881 4594 1212 4672 
Q 1544 4750 1819 4750 
Q 2544 4750 2975 4387 
Q 3406 4025 3406 3419 
Q 3406 3131 3298 2873 
Q 3191 2616 2906 2266 
Q 2828 2175 2409 1742 
Q 1991 1309 1228 531 
z
" transform="scale(0.015625)"/>
       </defs>
       <use xlink:href="#DejaVuSans-30"/>
       <use xlink:href="#DejaVuSans-2e" transform="translate(63.623047 0)"/>
       <use xlink:href="#DejaVuSans-32" transform="translate(95.410156 0)"/>
      </g>
     </g>
    </g>
    <g id="xtick_4">
     <g id="line2d_7">
      <path d="M 410.61625 382.482938 
L 410.61625 43.472188 
" clip-path="url(#p14597899fe)" style="fill: none; stroke-dasharray: 0.8,1.32; stroke-dashoffset: 0; stroke: #b0b0b0; stroke-opacity: 0.3; stroke-width: 0.8"/>
     </g>
     <g id="line2d_8">
      <g>
       <use xlink:href="#m3c93eee34c" x="410.61625" y="382.482938" style="stroke: #000000; stroke-width: 0.8"/>
      </g>
     </g>
     <g id="text_4">
      <!-- 0.3 -->
      <g transform="translate(402.664687 397.081375) scale(0.1 -0.1)">
       <defs>
        <path id="DejaVuSans-33" d="M 2597 2516 
Q 3050 2419 3304 2112 
Q 3559 1806 3559 1356 
Q 3559 666 3084 287 
Q 2609 -91 1734 -91 
Q 1441 -91 1130 -33 
Q 819 25 488 141 
L 488 750 
Q 750 597 1062 519 
Q 1375 441 1716 441 
Q 2309 441 2620 675 
Q 2931 909 2931 1356 
Q 2931 1769 2642 2001 
Q 2353 2234 1838 2234 
L 1294 2234 
L 1294 2753 
L 1863 2753 
Q 2328 2753 2575 2939 
Q 2822 3125 2822 3475 
Q 2822 3834 2567 4026 
Q 2313 4219 1838 4219 
Q 1578 4219 1281 4162 
Q 984 4106 628 3988 
L 628 4550 
Q 988 4650 1302 4700 
Q 1616 4750 1894 4750 
Q 2613 4750 3031 4423 
Q 3450 4097 3450 3541 
Q 3450 3153 3228 2886 
Q 3006 2619 2597 2516 
z
" transform="scale(0.015625)"/>
       </defs>
       <use xlink:href="#DejaVuSans-30"/>
       <use xlink:href="#DejaVuSans-2e" transform="translate(63.623047 0)"/>
       <use xlink:href="#DejaVuSans-33" transform="translate(95.410156 0)"/>
      </g>
     </g>
    </g>
    <g id="xtick_5">
     <g id="line2d_9">
      <path d="M 530.192917 382.482938 
L 530.192917 43.472188 
" clip-path="url(#p14597899fe)" style="fill: none; stroke-dasharray: 0.8,1.32; stroke-dashoffset: 0; stroke: #b0b0b0; stroke-opacity: 0.3; stroke-width: 0.8"/>
     </g>
     <g id="line2d_10">
      <g>
       <use xlink:href="#m3c93eee34c" x="530.192917" y="382.482938" style="stroke: #000000; stroke-width: 0.8"/>
      </g>
     </g>
     <g id="text_5">
      <!-- 0.4 -->
      <g transform="translate(522.241354 397.081375) scale(0.1 -0.1)">
       <defs>
        <path id="DejaVuSans-34" d="M 2419 4116 
L 825 1625 
L 2419 1625 
L 2419 4116 
z
M 2253 4666 
L 3047 4666 
L 3047 1625 
L 3713 1625 
L 3713 1100 
L 3047 1100 
L 3047 0 
L 2419 0 
L 2419 1100 
L 313 1100 
L 313 1709 
L 2253 4666 
z
" transform="scale(0.015625)"/>
       </defs>
       <use xlink:href="#DejaVuSans-30"/>
       <use xlink:href="#DejaVuSans-2e" transform="translate(63.623047 0)"/>
       <use xlink:href="#DejaVuSans-34" transform="translate(95.410156 0)"/>
      </g>
     </g>
    </g>
    <g id="xtick_6">
     <g id="line2d_11">
      <path d="M 649.769583 382.482938 
L 649.769583 43.472188 
" clip-path="url(#p14597899fe)" style="fill: none; stroke-dasharray: 0.8,1.32; stroke-dashoffset: 0; stroke: #b0b0b0; stroke-opacity: 0.3; stroke-width: 0.8"/>
     </g>
     <g id="line2d_12">
      <g>
       <use xlink:href="#m3c93eee34c" x="649.769583" y="382.482938" style="stroke: #000000; stroke-width: 0.8"/>
      </g>
     </g>
     <g id="text_6">
      <!-- 0.5 -->
      <g transform="translate(641.818021 397.081375) scale(0.1 -0.1)">
       <defs>
        <path id="DejaVuSans-35" d="M 691 4666 
L 3169 4666 
L 3169 4134 
L 1269 4134 
L 1269 2991 
Q 1406 3038 1543 3061 
Q 1681 3084 1819 3084 
Q 2600 3084 3056 2656 
Q 3513 2228 3513 1497 
Q 3513 744 3044 326 
Q 2575 -91 1722 -91 
Q 1428 -91 1123 -41 
Q 819 9 494 109 
L 494 744 
Q 775 591 1075 516 
Q 1375 441 1709 441 
Q 2250 441 2565 725 
Q 2881 1009 2881 1497 
Q 2881 1984 2565 2268 
Q 2250 2553 1709 2553 
Q 1456 2553 1204 2497 
Q 953 2441 691 2322 
L 691 4666 
z
" transform="scale(0.015625)"/>
       </defs>
       <use xlink:href="#DejaVuSans-30"/>
       <use xlink:href="#DejaVuSans-2e" transform="translate(63.623047 0)"/>
       <use xlink:href="#DejaVuSans-35" transform="translate(95.410156 0)"/>
      </g>
     </g>
    </g>
    <g id="xtick_7">
     <g id="line2d_13">
      <path d="M 769.34625 382.482938 
L 769.34625 43.472188 
" clip-path="url(#p14597899fe)" style="fill: none; stroke-dasharray: 0.8,1.32; stroke-dashoffset: 0; stroke: #b0b0b0; stroke-opacity: 0.3; stroke-width: 0.8"/>
     </g>
     <g id="line2d_14">
      <g>
       <use xlink:href="#m3c93eee34c" x="769.34625" y="382.482938" style="stroke: #000000; stroke-width: 0.8"/>
      </g>
     </g>
     <g id="text_7">
      <!-- 0.6 -->
      <g transform="translate(761.394687 397.081375) scale(0.1 -0.1)">
       <defs>
        <path id="DejaVuSans-36" d="M 2113 2584 
Q 1688 2584 1439 2293 
Q 1191 2003 1191 1497 
Q 1191 994 1439 701 
Q 1688 409 2113 409 
Q 2538 409 2786 701 
Q 3034 994 3034 1497 
Q 3034 2003 2786 2293 
Q 2538 2584 2113 2584 
z
M 3366 4563 
L 3366 3988 
Q 3128 4100 2886 4159 
Q 2644 4219 2406 4219 
Q 1781 4219 1451 3797 
Q 1122 3375 1075 2522 
Q 1259 2794 1537 2939 
Q 1816 3084 2150 3084 
Q 2853 3084 3261 2657 
Q 3669 2231 3669 1497 
Q 3669 778 3244 343 
Q 2819 -91 2113 -91 
Q 1303 -91 875 529 
Q 447 1150 447 2328 
Q 447 3434 972 4092 
Q 1497 4750 2381 4750 
Q 2619 4750 2861 4703 
Q 3103 4656 3366 4563 
z
" transform="scale(0.015625)"/>
       </defs>
       <use xlink:href="#DejaVuSans-30"/>
       <use xlink:href="#DejaVuSans-2e" transform="translate(63.623047 0)"/>
       <use xlink:href="#DejaVuSans-36" transform="translate(95.410156 0)"/>
      </g>
     </g>
    </g>
    <g id="text_8">
     <!-- Constraint level c -->
     <g transform="translate(353.754453 413.039031) scale(0.13 -0.13)">
      <defs>
       <path id="DejaVuSans-43" d="M 4122 4306 
L 4122 3641 
Q 3803 3938 3442 4084 
Q 3081 4231 2675 4231 
Q 1875 4231 1450 3742 
Q 1025 3253 1025 2328 
Q 1025 1406 1450 917 
Q 1875 428 2675 428 
Q 3081 428 3442 575 
Q 3803 722 4122 1019 
L 4122 359 
Q 3791 134 3420 21 
Q 3050 -91 2638 -91 
Q 1578 -91 968 557 
Q 359 1206 359 2328 
Q 359 3453 968 4101 
Q 1578 4750 2638 4750 
Q 3056 4750 3426 4639 
Q 3797 4528 4122 4306 
z
" transform="scale(0.015625)"/>
       <path id="DejaVuSans-6f" d="M 1959 3097 
Q 1497 3097 1228 2736 
Q 959 2375 959 1747 
Q 959 1119 1226 758 
Q 1494 397 1959 397 
Q 2419 397 2687 759 
Q 2956 1122 2956 1747 
Q 2956 2369 2687 2733 
Q 2419 3097 1959 3097 
z
M 1959 3584 
Q 2709 3584 3137 3096 
Q 3566 2609 3566 1747 
Q 3566 888 3137 398 
Q 2709 -91 1959 -91 
Q 1206 -91 779 398 
Q 353 888 353 1747 
Q 353 2609 779 3096 
Q 1206 3584 1959 3584 
z
" transform="scale(0.015625)"/>
       <path id="DejaVuSans-6e" d="M 3513 2113 
L 3513 0 
L 2938 0 
L 2938 2094 
Q 2938 2591 2744 2837 
Q 2550 3084 2163 3084 
Q 1697 3084 1428 2787 
Q 1159 2491 1159 1978 
L 1159 0 
L 581 0 
L 581 3500 
L 1159 3500 
L 1159 2956 
Q 1366 3272 1645 3428 
Q 1925 3584 2291 3584 
Q 2894 3584 3203 3211 
Q 3513 2838 3513 2113 
z
" transform="scale(0.015625)"/>
       <path id="DejaVuSans-73" d="M 2834 3397 
L 2834 2853 
Q 2591 2978 2328 3040 
Q 2066 3103 1784 3103 
Q 1356 3103 1142 2972 
Q 928 2841 928 2578 
Q 928 2378 1081 2264 
Q 1234 2150 1697 2047 
L 1894 2003 
Q 2506 1872 2764 1633 
Q 3022 1394 3022 966 
Q 3022 478 2636 193 
Q 2250 -91 1575 -91 
Q 1294 -91 989 -36 
Q 684 19 347 128 
L 347 722 
Q 666 556 975 473 
Q 1284 391 1588 391 
Q 1994 391 2212 530 
Q 2431 669 2431 922 
Q 2431 1156 2273 1281 
Q 2116 1406 1581 1522 
L 1381 1569 
Q 847 1681 609 1914 
Q 372 2147 372 2553 
Q 372 3047 722 3315 
Q 1072 3584 1716 3584 
Q 2034 3584 2315 3537 
Q 2597 3491 2834 3397 
z
" transform="scale(0.015625)"/>
       <path id="DejaVuSans-74" d="M 1172 4494 
L 1172 3500 
L 2356 3500 
L 2356 3053 
L 1172 3053 
L 1172 1153 
Q 1172 725 1289 603 
Q 1406 481 1766 481 
L 2356 481 
L 2356 0 
L 1766 0 
Q 1100 0 847 248 
Q 594 497 594 1153 
L 594 3053 
L 172 3053 
L 172 3500 
L 594 3500 
L 594 4494 
L 1172 4494 
z
" transform="scale(0.015625)"/>
       <path id="DejaVuSans-72" d="M 2631 2963 
Q 2534 3019 2420 3045 
Q 2306 3072 2169 3072 
Q 1681 3072 1420 2755 
Q 1159 2438 1159 1844 
L 1159 0 
L 581 0 
L 581 3500 
L 1159 3500 
L 1159 2956 
Q 1341 3275 1631 3429 
Q 1922 3584 2338 3584 
Q 2397 3584 2469 3576 
Q 2541 3569 2628 3553 
L 2631 2963 
z
" transform="scale(0.015625)"/>
       <path id="DejaVuSans-61" d="M 2194 1759 
Q 1497 1759 1228 1600 
Q 959 1441 959 1056 
Q 959 750 1161 570 
Q 1363 391 1709 391 
Q 2188 391 2477 730 
Q 2766 1069 2766 1631 
L 2766 1759 
L 2194 1759 
z
M 3341 1997 
L 3341 0 
L 2766 0 
L 2766 531 
Q 2569 213 2275 61 
Q 1981 -91 1556 -91 
Q 1019 -91 701 211 
Q 384 513 384 1019 
Q 384 1609 779 1909 
Q 1175 2209 1959 2209 
L 2766 2209 
L 2766 2266 
Q 2766 2663 2505 2880 
Q 2244 3097 1772 3097 
Q 1472 3097 1187 3025 
Q 903 2953 641 2809 
L 641 3341 
Q 956 3463 1253 3523 
Q 1550 3584 1831 3584 
Q 2591 3584 2966 3190 
Q 3341 2797 3341 1997 
z
" transform="scale(0.015625)"/>
       <path id="DejaVuSans-69" d="M 603 3500 
L 1178 3500 
L 1178 0 
L 603 0 
L 603 3500 
z
M 603 4863 
L 1178 4863 
L 1178 4134 
L 603 4134 
L 603 4863 
z
" transform="scale(0.015625)"/>
       <path id="DejaVuSans-20" transform="scale(0.015625)"/>
       <path id="DejaVuSans-6c" d="M 603 4863 
L 1178 4863 
L 1178 0 
L 603 0 
L 603 4863 
z
" transform="scale(0.015625)"/>
       <path id="DejaVuSans-65" d="M 3597 1894 
L 3597 1613 
L 953 1613 
Q 991 1019 1311 708 
Q 1631 397 2203 397 
Q 2534 397 2845 478 
Q 3156 559 3463 722 
L 3463 178 
Q 3153 47 2828 -22 
Q 2503 -91 2169 -91 
Q 1331 -91 842 396 
Q 353 884 353 1716 
Q 353 2575 817 3079 
Q 1281 3584 2069 3584 
Q 2775 3584 3186 3129 
Q 3597 2675 3597 1894 
z
M 3022 2063 
Q 3016 2534 2758 2815 
Q 2500 3097 2075 3097 
Q 1594 3097 1305 2825 
Q 1016 2553 972 2059 
L 3022 2063 
z
" transform="scale(0.015625)"/>
       <path id="DejaVuSans-76" d="M 191 3500 
L 800 3500 
L 1894 563 
L 2988 3500 
L 3597 3500 
L 2284 0 
L 1503 0 
L 191 3500 
z
" transform="scale(0.015625)"/>
       <path id="DejaVuSans-63" d="M 3122 3366 
L 3122 2828 
Q 2878 2963 2633 3030 
Q 2388 3097 2138 3097 
Q 1578 3097 1268 2742 
Q 959 2388 959 1747 
Q 959 1106 1268 751 
Q 1578 397 2138 397 
Q 2388 397 2633 464 
Q 2878 531 3122 666 
L 3122 134 
Q 2881 22 2623 -34 
Q 2366 -91 2075 -91 
Q 1284 -91 818 406 
Q 353 903 353 1747 
Q 353 2603 823 3093 
Q 1294 3584 2113 3584 
Q 2378 3584 2631 3529 
Q 2884 3475 3122 3366 
z
" transform="scale(0.015625)"/>
      </defs>
      <use xlink:href="#DejaVuSans-43"/>
      <use xlink:href="#DejaVuSans-6f" transform="translate(69.824219 0)"/>
      <use xlink:href="#DejaVuSans-6e" transform="translate(131.005859 0)"/>
      <use xlink:href="#DejaVuSans-73" transform="translate(194.384766 0)"/>
      <use xlink:href="#DejaVuSans-74" transform="translate(246.484375 0)"/>
      <use xlink:href="#DejaVuSans-72" transform="translate(285.693359 0)"/>
      <use xlink:href="#DejaVuSans-61" transform="translate(326.806641 0)"/>
      <use xlink:href="#DejaVuSans-69" transform="translate(388.085938 0)"/>
      <use xlink:href="#DejaVuSans-6e" transform="translate(415.869141 0)"/>
      <use xlink:href="#DejaVuSans-74" transform="translate(479.248047 0)"/>
      <use xlink:href="#DejaVuSans-20" transform="translate(518.457031 0)"/>
      <use xlink:href="#DejaVuSans-6c" transform="translate(550.244141 0)"/>
      <use xlink:href="#DejaVuSans-65" transform="translate(578.027344 0)"/>
      <use xlink:href="#DejaVuSans-76" transform="translate(639.550781 0)"/>
      <use xlink:href="#DejaVuSans-65" transform="translate(698.730469 0)"/>
      <use xlink:href="#DejaVuSans-6c" transform="translate(760.253906 0)"/>
      <use xlink:href="#DejaVuSans-20" transform="translate(788.037109 0)"/>
      <use xlink:href="#DejaVuSans-63" transform="translate(819.824219 0)"/>
     </g>
    </g>
   </g>
   <g id="matplotlib.axis_2">
    <g id="ytick_1">
     <g id="line2d_15">
      <path d="M 51.88625 354.232042 
L 769.34625 354.232042 
" clip-path="url(#p14597899fe)" style="fill: none; stroke-dasharray: 0.8,1.32; stroke-dashoffset: 0; stroke: #b0b0b0; stroke-opacity: 0.3; stroke-width: 0.8"/>
     </g>
     <g id="line2d_16">
      <defs>
       <path id="md8453c6c14" d="M 0 0 
L -3.5 0 
" style="stroke: #000000; stroke-width: 0.8"/>
      </defs>
      <g>
       <use xlink:href="#md8453c6c14" x="51.88625" y="354.232042" style="stroke: #000000; stroke-width: 0.8"/>
      </g>
     </g>
     <g id="text_9">
      <!-- −10 -->
      <g transform="translate(23.781563 358.03126) scale(0.1 -0.1)">
       <defs>
        <path id="DejaVuSans-2212" d="M 678 2272 
L 4684 2272 
L 4684 1741 
L 678 1741 
L 678 2272 
z
" transform="scale(0.015625)"/>
       </defs>
       <use xlink:href="#DejaVuSans-2212"/>
       <use xlink:href="#DejaVuSans-31" transform="translate(83.789062 0)"/>
       <use xlink:href="#DejaVuSans-30" transform="translate(147.412109 0)"/>
      </g>
     </g>
    </g>
    <g id="ytick_2">
     <g id="line2d_17">
      <path d="M 51.88625 297.73025 
L 769.34625 297.73025 
" clip-path="url(#p14597899fe)" style="fill: none; stroke-dasharray: 0.8,1.32; stroke-dashoffset: 0; stroke: #b0b0b0; stroke-opacity: 0.3; stroke-width: 0.8"/>
     </g>
     <g id="line2d_18">
      <g>
       <use xlink:href="#md8453c6c14" x="51.88625" y="297.73025" style="stroke: #000000; stroke-width: 0.8"/>
      </g>
     </g>
     <g id="text_10">
      <!-- 0 -->
      <g transform="translate(38.52375 301.529469) scale(0.1 -0.1)">
       <use xlink:href="#DejaVuSans-30"/>
      </g>
     </g>
    </g>
    <g id="ytick_3">
     <g id="line2d_19">
      <path d="M 51.88625 241.228458 
L 769.34625 241.228458 
" clip-path="url(#p14597899fe)" style="fill: none; stroke-dasharray: 0.8,1.32; stroke-dashoffset: 0; stroke: #b0b0b0; stroke-opacity: 0.3; stroke-width: 0.8"/>
     </g>
     <g id="line2d_20">
      <g>
       <use xlink:href="#md8453c6c14" x="51.88625" y="241.228458" style="stroke: #000000; stroke-width: 0.8"/>
      </g>
     </g>
     <g id="text_11">
      <!-- 10 -->
      <g transform="translate(32.16125 245.027677) scale(0.1 -0.1)">
       <use xlink:href="#DejaVuSans-31"/>
       <use xlink:href="#DejaVuSans-30" transform="translate(63.623047 0)"/>
      </g>
     </g>
    </g>
    <g id="ytick_4">
     <g id="line2d_21">
      <path d="M 51.88625 184.726667 
L 769.34625 184.726667 
" clip-path="url(#p14597899fe)" style="fill: none; stroke-dasharray: 0.8,1.32; stroke-dashoffset: 0; stroke: #b0b0b0; stroke-opacity: 0.3; stroke-width: 0.8"/>
     </g>
     <g id="line2d_22">
      <g>
       <use xlink:href="#md8453c6c14" x="51.88625" y="184.726667" style="stroke: #000000; stroke-width: 0.8"/>
      </g>
     </g>
     <g id="text_12">
      <!-- 20 -->
      <g transform="translate(32.16125 188.525885) scale(0.1 -0.1)">
       <use xlink:href="#DejaVuSans-32"/>
       <use xlink:href="#DejaVuSans-30" transform="translate(63.623047 0)"/>
      </g>
     </g>
    </g>
    <g id="ytick_5">
     <g id="line2d_23">
      <path d="M 51.88625 128.224875 
L 769.34625 128.224875 
" clip-path="url(#p14597899fe)" style="fill: none; stroke-dasharray: 0.8,1.32; stroke-dashoffset: 0; stroke: #b0b0b0; stroke-opacity: 0.3; stroke-width: 0.8"/>
     </g>
     <g id="line2d_24">
      <g>
       <use xlink:href="#md8453c6c14" x="51.88625" y="128.224875" style="stroke: #000000; stroke-width: 0.8"/>
      </g>
     </g>
     <g id="text_13">
      <!-- 30 -->
      <g transform="translate(32.16125 132.024094) scale(0.1 -0.1)">
       <use xlink:href="#DejaVuSans-33"/>
       <use xlink:href="#DejaVuSans-30" transform="translate(63.623047 0)"/>
      </g>
     </g>
    </g>
    <g id="ytick_6">
     <g id="line2d_25">
      <path d="M 51.88625 71.723083 
L 769.34625 71.723083 
" clip-path="url(#p14597899fe)" style="fill: none; stroke-dasharray: 0.8,1.32; stroke-dashoffset: 0; stroke: #b0b0b0; stroke-opacity: 0.3; stroke-width: 0.8"/>
     </g>
     <g id="line2d_26">
      <g>
       <use xlink:href="#md8453c6c14" x="51.88625" y="71.723083" style="stroke: #000000; stroke-width: 0.8"/>
      </g>
     </g>
     <g id="text_14">
      <!-- 40 -->
      <g transform="translate(32.16125 75.522302) scale(0.1 -0.1)">
       <use xlink:href="#DejaVuSans-34"/>
       <use xlink:href="#DejaVuSans-30" transform="translate(63.623047 0)"/>
      </g>
     </g>
    </g>
    <g id="text_15">
     <!-- Peclet number Pe  (signed) -->
     <g transform="translate(17.077969 300.538656) rotate(-90) scale(0.13 -0.13)">
      <defs>
       <path id="DejaVuSans-50" d="M 1259 4147 
L 1259 2394 
L 2053 2394 
Q 2494 2394 2734 2622 
Q 2975 2850 2975 3272 
Q 2975 3691 2734 3919 
Q 2494 4147 2053 4147 
L 1259 4147 
z
M 628 4666 
L 2053 4666 
Q 2838 4666 3239 4311 
Q 3641 3956 3641 3272 
Q 3641 2581 3239 2228 
Q 2838 1875 2053 1875 
L 1259 1875 
L 1259 0 
L 628 0 
L 628 4666 
z
" transform="scale(0.015625)"/>
       <path id="DejaVuSans-75" d="M 544 1381 
L 544 3500 
L 1119 3500 
L 1119 1403 
Q 1119 906 1312 657 
Q 1506 409 1894 409 
Q 2359 409 2629 706 
Q 2900 1003 2900 1516 
L 2900 3500 
L 3475 3500 
L 3475 0 
L 2900 0 
L 2900 538 
Q 2691 219 2414 64 
Q 2138 -91 1772 -91 
Q 1169 -91 856 284 
Q 544 659 544 1381 
z
M 1991 3584 
L 1991 3584 
z
" transform="scale(0.015625)"/>
       <path id="DejaVuSans-6d" d="M 3328 2828 
Q 3544 3216 3844 3400 
Q 4144 3584 4550 3584 
Q 5097 3584 5394 3201 
Q 5691 2819 5691 2113 
L 5691 0 
L 5113 0 
L 5113 2094 
Q 5113 2597 4934 2840 
Q 4756 3084 4391 3084 
Q 3944 3084 3684 2787 
Q 3425 2491 3425 1978 
L 3425 0 
L 2847 0 
L 2847 2094 
Q 2847 2600 2669 2842 
Q 2491 3084 2119 3084 
Q 1678 3084 1418 2786 
Q 1159 2488 1159 1978 
L 1159 0 
L 581 0 
L 581 3500 
L 1159 3500 
L 1159 2956 
Q 1356 3278 1631 3431 
Q 1906 3584 2284 3584 
Q 2666 3584 2933 3390 
Q 3200 3197 3328 2828 
z
" transform="scale(0.015625)"/>
       <path id="DejaVuSans-62" d="M 3116 1747 
Q 3116 2381 2855 2742 
Q 2594 3103 2138 3103 
Q 1681 3103 1420 2742 
Q 1159 2381 1159 1747 
Q 1159 1113 1420 752 
Q 1681 391 2138 391 
Q 2594 391 2855 752 
Q 3116 1113 3116 1747 
z
M 1159 2969 
Q 1341 3281 1617 3432 
Q 1894 3584 2278 3584 
Q 2916 3584 3314 3078 
Q 3713 2572 3713 1747 
Q 3713 922 3314 415 
Q 2916 -91 2278 -91 
Q 1894 -91 1617 61 
Q 1341 213 1159 525 
L 1159 0 
L 581 0 
L 581 4863 
L 1159 4863 
L 1159 2969 
z
" transform="scale(0.015625)"/>
       <path id="DejaVuSans-28" d="M 1984 4856 
Q 1566 4138 1362 3434 
Q 1159 2731 1159 2009 
Q 1159 1288 1364 580 
Q 1569 -128 1984 -844 
L 1484 -844 
Q 1016 -109 783 600 
Q 550 1309 550 2009 
Q 550 2706 781 3412 
Q 1013 4119 1484 4856 
L 1984 4856 
z
" transform="scale(0.015625)"/>
       <path id="DejaVuSans-67" d="M 2906 1791 
Q 2906 2416 2648 2759 
Q 2391 3103 1925 3103 
Q 1463 3103 1205 2759 
Q 947 2416 947 1791 
Q 947 1169 1205 825 
Q 1463 481 1925 481 
Q 2391 481 2648 825 
Q 2906 1169 2906 1791 
z
M 3481 434 
Q 3481 -459 3084 -895 
Q 2688 -1331 1869 -1331 
Q 1566 -1331 1297 -1286 
Q 1028 -1241 775 -1147 
L 775 -588 
Q 1028 -725 1275 -790 
Q 1522 -856 1778 -856 
Q 2344 -856 2625 -561 
Q 2906 -266 2906 331 
L 2906 616 
Q 2728 306 2450 153 
Q 2172 0 1784 0 
Q 1141 0 747 490 
Q 353 981 353 1791 
Q 353 2603 747 3093 
Q 1141 3584 1784 3584 
Q 2172 3584 2450 3431 
Q 2728 3278 2906 2969 
L 2906 3500 
L 3481 3500 
L 3481 434 
z
" transform="scale(0.015625)"/>
       <path id="DejaVuSans-64" d="M 2906 2969 
L 2906 4863 
L 3481 4863 
L 3481 0 
L 2906 0 
L 2906 525 
Q 2725 213 2448 61 
Q 2172 -91 1784 -91 
Q 1150 -91 751 415 
Q 353 922 353 1747 
Q 353 2572 751 3078 
Q 1150 3584 1784 3584 
Q 2172 3584 2448 3432 
Q 2725 3281 2906 2969 
z
M 947 1747 
Q 947 1113 1208 752 
Q 1469 391 1925 391 
Q 2381 391 2643 752 
Q 2906 1113 2906 1747 
Q 2906 2381 2643 2742 
Q 2381 3103 1925 3103 
Q 1469 3103 1208 2742 
Q 947 2381 947 1747 
z
" transform="scale(0.015625)"/>
       <path id="DejaVuSans-29" d="M 513 4856 
L 1013 4856 
Q 1481 4119 1714 3412 
Q 1947 2706 1947 2009 
Q 1947 1309 1714 600 
Q 1481 -109 1013 -844 
L 513 -844 
Q 928 -128 1133 580 
Q 1338 1288 1338 2009 
Q 1338 2731 1133 3434 
Q 928 4138 513 4856 
z
" transform="scale(0.015625)"/>
      </defs>
      <use xlink:href="#DejaVuSans-50"/>
      <use xlink:href="#DejaVuSans-65" transform="translate(56.677734 0)"/>
      <use xlink:href="#DejaVuSans-63" transform="translate(118.201172 0)"/>
      <use xlink:href="#DejaVuSans-6c" transform="translate(173.181641 0)"/>
      <use xlink:href="#DejaVuSans-65" transform="translate(200.964844 0)"/>
      <use xlink:href="#DejaVuSans-74" transform="translate(262.488281 0)"/>
      <use xlink:href="#DejaVuSans-20" transform="translate(301.697266 0)"/>
      <use xlink:href="#DejaVuSans-6e" transform="translate(333.484375 0)"/>
      <use xlink:href="#DejaVuSans-75" transform="translate(396.863281 0)"/>
      <use xlink:href="#DejaVuSans-6d" transform="translate(460.242188 0)"/>
      <use xlink:href="#DejaVuSans-62" transform="translate(557.654297 0)"/>
      <use xlink:href="#DejaVuSans-65" transform="translate(621.130859 0)"/>
      <use xlink:href="#DejaVuSans-72" transform="translate(682.654297 0)"/>
      <use xlink:href="#DejaVuSans-20" transform="translate(723.767578 0)"/>
      <use xlink:href="#DejaVuSans-50" transform="translate(755.554688 0)"/>
      <use xlink:href="#DejaVuSans-65" transform="translate(812.232422 0)"/>
      <use xlink:href="#DejaVuSans-20" transform="translate(873.755859 0)"/>
      <use xlink:href="#DejaVuSans-20" transform="translate(905.542969 0)"/>
      <use xlink:href="#DejaVuSans-28" transform="translate(937.330078 0)"/>
      <use xlink:href="#DejaVuSans-73" transform="translate(976.34375 0)"/>
      <use xlink:href="#DejaVuSans-69" transform="translate(1028.443359 0)"/>
      <use xlink:href="#DejaVuSans-67" transform="translate(1056.226562 0)"/>
      <use xlink:href="#DejaVuSans-6e" transform="translate(1119.703125 0)"/>
      <use xlink:href="#DejaVuSans-65" transform="translate(1183.082031 0)"/>
      <use xlink:href="#DejaVuSans-64" transform="translate(1244.605469 0)"/>
      <use xlink:href="#DejaVuSans-29" transform="translate(1308.082031 0)"/>
     </g>
    </g>
   </g>
   <g id="line2d_27">
    <path d="M 51.88625 292.080071 
L 769.34625 292.080071 
" clip-path="url(#p14597899fe)" style="fill: none; stroke-dasharray: 3.7,1.6; stroke-dashoffset: 0; stroke: #e74c3c; stroke-opacity: 0.7"/>
   </g>
   <g id="line2d_28">
    <path d="M 51.88625 303.380429 
L 769.34625 303.380429 
" clip-path="url(#p14597899fe)" style="fill: none; stroke-dasharray: 3.7,1.6; stroke-dashoffset: 0; stroke: #e74c3c; stroke-opacity: 0.7"/>
   </g>
   <g id="line2d_29">
    <path d="M 497.590774 382.482938 
L 497.590774 43.472188 
" clip-path="url(#p14597899fe)" style="fill: none; stroke-dasharray: 1,1.65; stroke-dashoffset: 0; stroke: #e74c3c; stroke-opacity: 0.7"/>
   </g>
   <g id="line2d_30">
    <path d="M 514.239142 382.482938 
L 514.239142 43.472188 
" clip-path="url(#p14597899fe)" style="fill: none; stroke-dasharray: 7.4,3.2; stroke-dashoffset: 0; stroke: #2c3e50; stroke-opacity: 0.9; stroke-width: 2"/>
   </g>
   <g id="patch_6">
    <path d="M 51.88625 382.482938 
L 51.88625 43.472188 
" style="fill: none; stroke: #000000; stroke-width: 0.8; stroke-linejoin: miter; stroke-linecap: square"/>
   </g>
   <g id="patch_7">
    <path d="M 769.34625 382.482938 
L 769.34625 43.472188 
" style="fill: none; stroke: #000000; stroke-width: 0.8; stroke-linejoin: miter; stroke-linecap: square"/>
   </g>
   <g id="patch_8">
    <path d="M 51.88625 382.482938 
L 769.34625 382.482938 
" style="fill: none; stroke: #000000; stroke-width: 0.8; stroke-linejoin: miter; stroke-linecap: square"/>
   </g>
   <g id="patch_9">
    <path d="M 51.88625 43.472188 
L 769.34625 43.472188 
" style="fill: none; stroke: #000000; stroke-width: 0.8; stroke-linejoin: miter; stroke-linecap: square"/>
   </g>
   <g id="text_16">
    <!-- AI-UU -->
    <g style="fill: #e74c3c" transform="translate(395.238585 245.34593) scale(0.09 -0.09)">
     <defs>
      <path id="DejaVuSans-Bold-41" d="M 3419 850 
L 1538 850 
L 1241 0 
L 31 0 
L 1759 4666 
L 3194 4666 
L 4922 0 
L 3713 0 
L 3419 850 
z
M 1838 1716 
L 3116 1716 
L 2478 3572 
L 1838 1716 
z
" transform="scale(0.015625)"/>
      <path id="DejaVuSans-Bold-49" d="M 588 4666 
L 1791 4666 
L 1791 0 
L 588 0 
L 588 4666 
z
" transform="scale(0.015625)"/>
      <path id="DejaVuSans-Bold-2d" d="M 347 2297 
L 2309 2297 
L 2309 1388 
L 347 1388 
L 347 2297 
z
" transform="scale(0.015625)"/>
      <path id="DejaVuSans-Bold-55" d="M 588 4666 
L 1791 4666 
L 1791 1869 
Q 1791 1291 1980 1042 
Q 2169 794 2597 794 
Q 3028 794 3217 1042 
Q 3406 1291 3406 1869 
L 3406 4666 
L 4609 4666 
L 4609 1869 
Q 4609 878 4112 393 
Q 3616 -91 2597 -91 
Q 1581 -91 1084 393 
Q 588 878 588 1869 
L 588 4666 
z
" transform="scale(0.015625)"/>
     </defs>
     <use xlink:href="#DejaVuSans-Bold-41"/>
     <use xlink:href="#DejaVuSans-Bold-49" transform="translate(77.392578 0)"/>
     <use xlink:href="#DejaVuSans-Bold-2d" transform="translate(114.599609 0)"/>
     <use xlink:href="#DejaVuSans-Bold-55" transform="translate(156.103516 0)"/>
     <use xlink:href="#DejaVuSans-Bold-55" transform="translate(237.304688 0)"/>
    </g>
   </g>
   <g id="text_17">
    <!-- ETH -->
    <g style="fill: #627eea" transform="translate(460.857994 269.076682) scale(0.09 -0.09)">
     <defs>
      <path id="DejaVuSans-Bold-45" d="M 588 4666 
L 3834 4666 
L 3834 3756 
L 1791 3756 
L 1791 2888 
L 3713 2888 
L 3713 1978 
L 1791 1978 
L 1791 909 
L 3903 909 
L 3903 0 
L 588 0 
L 588 4666 
z
" transform="scale(0.015625)"/>
      <path id="DejaVuSans-Bold-54" d="M 31 4666 
L 4331 4666 
L 4331 3756 
L 2784 3756 
L 2784 0 
L 1581 0 
L 1581 3756 
L 31 3756 
L 31 4666 
z
" transform="scale(0.015625)"/>
      <path id="DejaVuSans-Bold-48" d="M 588 4666 
L 1791 4666 
L 1791 2888 
L 3566 2888 
L 3566 4666 
L 4769 4666 
L 4769 0 
L 3566 0 
L 3566 1978 
L 1791 1978 
L 1791 0 
L 588 0 
L 588 4666 
z
" transform="scale(0.015625)"/>
     </defs>
     <use xlink:href="#DejaVuSans-Bold-45"/>
     <use xlink:href="#DejaVuSans-Bold-54" transform="translate(68.310547 0)"/>
     <use xlink:href="#DejaVuSans-Bold-48" transform="translate(136.523438 0)"/>
    </g>
   </g>
   <g id="text_18">
    <!-- AI-GG -->
    <g style="fill: #2ecc71" transform="translate(509.953277 285.914216) scale(0.09 -0.09)">
     <defs>
      <path id="DejaVuSans-Bold-47" d="M 4781 347 
Q 4331 128 3847 18 
Q 3363 -91 2847 -91 
Q 1681 -91 1000 561 
Q 319 1213 319 2328 
Q 319 3456 1012 4103 
Q 1706 4750 2913 4750 
Q 3378 4750 3804 4662 
Q 4231 4575 4609 4403 
L 4609 3438 
Q 4219 3659 3833 3768 
Q 3447 3878 3059 3878 
Q 2341 3878 1952 3476 
Q 1563 3075 1563 2328 
Q 1563 1588 1938 1184 
Q 2313 781 3003 781 
Q 3191 781 3352 804 
Q 3513 828 3641 878 
L 3641 1784 
L 2906 1784 
L 2906 2591 
L 4781 2591 
L 4781 347 
z
" transform="scale(0.015625)"/>
     </defs>
     <use xlink:href="#DejaVuSans-Bold-41"/>
     <use xlink:href="#DejaVuSans-Bold-49" transform="translate(77.392578 0)"/>
     <use xlink:href="#DejaVuSans-Bold-2d" transform="translate(114.599609 0)"/>
     <use xlink:href="#DejaVuSans-Bold-47" transform="translate(156.103516 0)"/>
     <use xlink:href="#DejaVuSans-Bold-47" transform="translate(238.183594 0)"/>
    </g>
   </g>
   <g id="text_19">
    <!-- Buddhist -->
    <g style="fill: #ff6600" transform="translate(522.609508 290.208352) scale(0.09 -0.09)">
     <defs>
      <path id="DejaVuSans-Bold-42" d="M 2456 2859 
Q 2741 2859 2887 2984 
Q 3034 3109 3034 3353 
Q 3034 3594 2887 3720 
Q 2741 3847 2456 3847 
L 1791 3847 
L 1791 2859 
L 2456 2859 
z
M 2497 819 
Q 2859 819 3042 972 
Q 3225 1125 3225 1434 
Q 3225 1738 3044 1889 
Q 2863 2041 2497 2041 
L 1791 2041 
L 1791 819 
L 2497 819 
z
M 3616 2497 
Q 4003 2384 4215 2081 
Q 4428 1778 4428 1338 
Q 4428 663 3972 331 
Q 3516 0 2584 0 
L 588 0 
L 588 4666 
L 2394 4666 
Q 3366 4666 3802 4372 
Q 4238 4078 4238 3431 
Q 4238 3091 4078 2852 
Q 3919 2613 3616 2497 
z
" transform="scale(0.015625)"/>
      <path id="DejaVuSans-Bold-75" d="M 500 1363 
L 500 3500 
L 1625 3500 
L 1625 3150 
Q 1625 2866 1622 2436 
Q 1619 2006 1619 1863 
Q 1619 1441 1641 1255 
Q 1663 1069 1716 984 
Q 1784 875 1895 815 
Q 2006 756 2150 756 
Q 2500 756 2700 1025 
Q 2900 1294 2900 1772 
L 2900 3500 
L 4019 3500 
L 4019 0 
L 2900 0 
L 2900 506 
Q 2647 200 2364 54 
Q 2081 -91 1741 -91 
Q 1134 -91 817 281 
Q 500 653 500 1363 
z
" transform="scale(0.015625)"/>
      <path id="DejaVuSans-Bold-64" d="M 2919 2988 
L 2919 4863 
L 4044 4863 
L 4044 0 
L 2919 0 
L 2919 506 
Q 2688 197 2409 53 
Q 2131 -91 1766 -91 
Q 1119 -91 703 423 
Q 288 938 288 1747 
Q 288 2556 703 3070 
Q 1119 3584 1766 3584 
Q 2128 3584 2408 3439 
Q 2688 3294 2919 2988 
z
M 2181 722 
Q 2541 722 2730 984 
Q 2919 1247 2919 1747 
Q 2919 2247 2730 2509 
Q 2541 2772 2181 2772 
Q 1825 2772 1636 2509 
Q 1447 2247 1447 1747 
Q 1447 1247 1636 984 
Q 1825 722 2181 722 
z
" transform="scale(0.015625)"/>
      <path id="DejaVuSans-Bold-68" d="M 4056 2131 
L 4056 0 
L 2931 0 
L 2931 347 
L 2931 1625 
Q 2931 2084 2911 2256 
Q 2891 2428 2841 2509 
Q 2775 2619 2662 2680 
Q 2550 2741 2406 2741 
Q 2056 2741 1856 2470 
Q 1656 2200 1656 1722 
L 1656 0 
L 538 0 
L 538 4863 
L 1656 4863 
L 1656 2988 
Q 1909 3294 2193 3439 
Q 2478 3584 2822 3584 
Q 3428 3584 3742 3212 
Q 4056 2841 4056 2131 
z
" transform="scale(0.015625)"/>
      <path id="DejaVuSans-Bold-69" d="M 538 3500 
L 1656 3500 
L 1656 0 
L 538 0 
L 538 3500 
z
M 538 4863 
L 1656 4863 
L 1656 3950 
L 538 3950 
L 538 4863 
z
" transform="scale(0.015625)"/>
      <path id="DejaVuSans-Bold-73" d="M 3272 3391 
L 3272 2541 
Q 2913 2691 2578 2766 
Q 2244 2841 1947 2841 
Q 1628 2841 1473 2761 
Q 1319 2681 1319 2516 
Q 1319 2381 1436 2309 
Q 1553 2238 1856 2203 
L 2053 2175 
Q 2913 2066 3209 1816 
Q 3506 1566 3506 1031 
Q 3506 472 3093 190 
Q 2681 -91 1863 -91 
Q 1516 -91 1145 -36 
Q 775 19 384 128 
L 384 978 
Q 719 816 1070 734 
Q 1422 653 1784 653 
Q 2113 653 2278 743 
Q 2444 834 2444 1013 
Q 2444 1163 2330 1236 
Q 2216 1309 1875 1350 
L 1678 1375 
Q 931 1469 631 1722 
Q 331 1975 331 2491 
Q 331 3047 712 3315 
Q 1094 3584 1881 3584 
Q 2191 3584 2531 3537 
Q 2872 3491 3272 3391 
z
" transform="scale(0.015625)"/>
      <path id="DejaVuSans-Bold-74" d="M 1759 4494 
L 1759 3500 
L 2913 3500 
L 2913 2700 
L 1759 2700 
L 1759 1216 
Q 1759 972 1856 886 
Q 1953 800 2241 800 
L 2816 800 
L 2816 0 
L 1856 0 
Q 1194 0 917 276 
Q 641 553 641 1216 
L 641 2700 
L 84 2700 
L 84 3500 
L 641 3500 
L 641 4494 
L 1759 4494 
z
" transform="scale(0.015625)"/>
     </defs>
     <use xlink:href="#DejaVuSans-Bold-42"/>
     <use xlink:href="#DejaVuSans-Bold-75" transform="translate(76.220703 0)"/>
     <use xlink:href="#DejaVuSans-Bold-64" transform="translate(147.412109 0)"/>
     <use xlink:href="#DejaVuSans-Bold-64" transform="translate(218.994141 0)"/>
     <use xlink:href="#DejaVuSans-Bold-68" transform="translate(290.576172 0)"/>
     <use xlink:href="#DejaVuSans-Bold-69" transform="translate(361.767578 0)"/>
     <use xlink:href="#DejaVuSans-Bold-73" transform="translate(396.044922 0)"/>
     <use xlink:href="#DejaVuSans-Bold-74" transform="translate(455.566406 0)"/>
    </g>
   </g>
   <g id="text_20">
    <!-- Mainline -->
    <g style="fill: #6699cc" transform="translate(576.059764 328.469102) scale(0.09 -0.09)">
     <defs>
      <path id="DejaVuSans-Bold-4d" d="M 588 4666 
L 2119 4666 
L 3181 2169 
L 4250 4666 
L 5778 4666 
L 5778 0 
L 4641 0 
L 4641 3413 
L 3566 897 
L 2803 897 
L 1728 3413 
L 1728 0 
L 588 0 
L 588 4666 
z
" transform="scale(0.015625)"/>
      <path id="DejaVuSans-Bold-61" d="M 2106 1575 
Q 1756 1575 1579 1456 
Q 1403 1338 1403 1106 
Q 1403 894 1545 773 
Q 1688 653 1941 653 
Q 2256 653 2472 879 
Q 2688 1106 2688 1447 
L 2688 1575 
L 2106 1575 
z
M 3816 1997 
L 3816 0 
L 2688 0 
L 2688 519 
Q 2463 200 2181 54 
Q 1900 -91 1497 -91 
Q 953 -91 614 226 
Q 275 544 275 1050 
Q 275 1666 698 1953 
Q 1122 2241 2028 2241 
L 2688 2241 
L 2688 2328 
Q 2688 2594 2478 2717 
Q 2269 2841 1825 2841 
Q 1466 2841 1156 2769 
Q 847 2697 581 2553 
L 581 3406 
Q 941 3494 1303 3539 
Q 1666 3584 2028 3584 
Q 2975 3584 3395 3211 
Q 3816 2838 3816 1997 
z
" transform="scale(0.015625)"/>
      <path id="DejaVuSans-Bold-6e" d="M 4056 2131 
L 4056 0 
L 2931 0 
L 2931 347 
L 2931 1631 
Q 2931 2084 2911 2256 
Q 2891 2428 2841 2509 
Q 2775 2619 2662 2680 
Q 2550 2741 2406 2741 
Q 2056 2741 1856 2470 
Q 1656 2200 1656 1722 
L 1656 0 
L 538 0 
L 538 3500 
L 1656 3500 
L 1656 2988 
Q 1909 3294 2193 3439 
Q 2478 3584 2822 3584 
Q 3428 3584 3742 3212 
Q 4056 2841 4056 2131 
z
" transform="scale(0.015625)"/>
      <path id="DejaVuSans-Bold-6c" d="M 538 4863 
L 1656 4863 
L 1656 0 
L 538 0 
L 538 4863 
z
" transform="scale(0.015625)"/>
      <path id="DejaVuSans-Bold-65" d="M 4031 1759 
L 4031 1441 
L 1416 1441 
Q 1456 1047 1700 850 
Q 1944 653 2381 653 
Q 2734 653 3104 758 
Q 3475 863 3866 1075 
L 3866 213 
Q 3469 63 3072 -14 
Q 2675 -91 2278 -91 
Q 1328 -91 801 392 
Q 275 875 275 1747 
Q 275 2603 792 3093 
Q 1309 3584 2216 3584 
Q 3041 3584 3536 3087 
Q 4031 2591 4031 1759 
z
M 2881 2131 
Q 2881 2450 2695 2645 
Q 2509 2841 2209 2841 
Q 1884 2841 1681 2658 
Q 1478 2475 1428 2131 
L 2881 2131 
z
" transform="scale(0.015625)"/>
     </defs>
     <use xlink:href="#DejaVuSans-Bold-4d"/>
     <use xlink:href="#DejaVuSans-Bold-61" transform="translate(99.511719 0)"/>
     <use xlink:href="#DejaVuSans-Bold-69" transform="translate(166.992188 0)"/>
     <use xlink:href="#DejaVuSans-Bold-6e" transform="translate(201.269531 0)"/>
     <use xlink:href="#DejaVuSans-Bold-6c" transform="translate(272.460938 0)"/>
     <use xlink:href="#DejaVuSans-Bold-69" transform="translate(306.738281 0)"/>
     <use xlink:href="#DejaVuSans-Bold-6e" transform="translate(341.015625 0)"/>
     <use xlink:href="#DejaVuSans-Bold-65" transform="translate(412.207031 0)"/>
    </g>
   </g>
   <g id="text_21">
    <!-- JW -->
    <g style="fill: #cc0066" transform="translate(664.42367 360.618621) scale(0.09 -0.09)">
     <defs>
      <path id="DejaVuSans-Bold-4a" d="M 588 4666 
L 1791 4666 
L 1791 453 
Q 1791 -419 1317 -850 
Q 844 -1281 -116 -1281 
L -359 -1281 
L -359 -372 
L -172 -372 
Q 203 -372 395 -162 
Q 588 47 588 453 
L 588 4666 
z
" transform="scale(0.015625)"/>
      <path id="DejaVuSans-Bold-57" d="M 191 4666 
L 1344 4666 
L 2150 1275 
L 2950 4666 
L 4109 4666 
L 4909 1275 
L 5716 4666 
L 6859 4666 
L 5759 0 
L 4372 0 
L 3525 3547 
L 2688 0 
L 1300 0 
L 191 4666 
z
" transform="scale(0.015625)"/>
     </defs>
     <use xlink:href="#DejaVuSans-Bold-4a"/>
     <use xlink:href="#DejaVuSans-Bold-57" transform="translate(37.207031 0)"/>
    </g>
   </g>
   <g id="text_22">
    <g id="patch_10">
     <path d="M 241.882385 190.559496 
L 316.281448 190.559496 
Q 318.981448 190.559496 318.981448 187.859496 
L 318.981448 158.993121 
Q 318.981448 156.293121 316.281448 156.293121 
L 241.882385 156.293121 
Q 239.182385 156.293121 239.182385 158.993121 
L 239.182385 187.859496 
Q 239.182385 190.559496 241.882385 190.559496 
z
" style="fill: #ffffff; opacity: 0.8; stroke: #000000; stroke-linejoin: miter"/>
    </g>
    <!-- Attractive void -->
    <g style="fill: #c0392b" transform="translate(246.071604 165.831715) scale(0.09 -0.09)">
     <defs>
      <path id="DejaVuSans-41" d="M 2188 4044 
L 1331 1722 
L 3047 1722 
L 2188 4044 
z
M 1831 4666 
L 2547 4666 
L 4325 0 
L 3669 0 
L 3244 1197 
L 1141 1197 
L 716 0 
L 50 0 
L 1831 4666 
z
" transform="scale(0.015625)"/>
     </defs>
     <use xlink:href="#DejaVuSans-41"/>
     <use xlink:href="#DejaVuSans-74" transform="translate(66.658203 0)"/>
     <use xlink:href="#DejaVuSans-74" transform="translate(105.867188 0)"/>
     <use xlink:href="#DejaVuSans-72" transform="translate(145.076172 0)"/>
     <use xlink:href="#DejaVuSans-61" transform="translate(186.189453 0)"/>
     <use xlink:href="#DejaVuSans-63" transform="translate(247.46875 0)"/>
     <use xlink:href="#DejaVuSans-74" transform="translate(302.449219 0)"/>
     <use xlink:href="#DejaVuSans-69" transform="translate(341.658203 0)"/>
     <use xlink:href="#DejaVuSans-76" transform="translate(369.441406 0)"/>
     <use xlink:href="#DejaVuSans-65" transform="translate(428.621094 0)"/>
     <use xlink:href="#DejaVuSans-20" transform="translate(490.144531 0)"/>
     <use xlink:href="#DejaVuSans-76" transform="translate(521.931641 0)"/>
     <use xlink:href="#DejaVuSans-6f" transform="translate(581.111328 0)"/>
     <use xlink:href="#DejaVuSans-69" transform="translate(642.292969 0)"/>
     <use xlink:href="#DejaVuSans-64" transform="translate(670.076172 0)"/>
    </g>
    <!-- Pe &gt; 1 -->
    <g style="fill: #c0392b" transform="translate(264.268479 175.909746) scale(0.09 -0.09)">
     <defs>
      <path id="DejaVuSans-3e" d="M 678 3150 
L 678 3719 
L 4684 2266 
L 4684 1747 
L 678 294 
L 678 863 
L 3897 2003 
L 678 3150 
z
" transform="scale(0.015625)"/>
     </defs>
     <use xlink:href="#DejaVuSans-50"/>
     <use xlink:href="#DejaVuSans-65" transform="translate(56.677734 0)"/>
     <use xlink:href="#DejaVuSans-20" transform="translate(118.201172 0)"/>
     <use xlink:href="#DejaVuSans-3e" transform="translate(149.988281 0)"/>
     <use xlink:href="#DejaVuSans-20" transform="translate(233.777344 0)"/>
     <use xlink:href="#DejaVuSans-31" transform="translate(265.564453 0)"/>
    </g>
    <!-- drift toward stay -->
    <g style="fill: #c0392b" transform="translate(241.882385 185.987777) scale(0.09 -0.09)">
     <defs>
      <path id="DejaVuSans-66" d="M 2375 4863 
L 2375 4384 
L 1825 4384 
Q 1516 4384 1395 4259 
Q 1275 4134 1275 3809 
L 1275 3500 
L 2222 3500 
L 2222 3053 
L 1275 3053 
L 1275 0 
L 697 0 
L 697 3053 
L 147 3053 
L 147 3500 
L 697 3500 
L 697 3744 
Q 697 4328 969 4595 
Q 1241 4863 1831 4863 
L 2375 4863 
z
" transform="scale(0.015625)"/>
      <path id="DejaVuSans-77" d="M 269 3500 
L 844 3500 
L 1563 769 
L 2278 3500 
L 2956 3500 
L 3675 769 
L 4391 3500 
L 4966 3500 
L 4050 0 
L 3372 0 
L 2619 2869 
L 1863 0 
L 1184 0 
L 269 3500 
z
" transform="scale(0.015625)"/>
      <path id="DejaVuSans-79" d="M 2059 -325 
Q 1816 -950 1584 -1140 
Q 1353 -1331 966 -1331 
L 506 -1331 
L 506 -850 
L 844 -850 
Q 1081 -850 1212 -737 
Q 1344 -625 1503 -206 
L 1606 56 
L 191 3500 
L 800 3500 
L 1894 763 
L 2988 3500 
L 3597 3500 
L 2059 -325 
z
" transform="scale(0.015625)"/>
     </defs>
     <use xlink:href="#DejaVuSans-64"/>
     <use xlink:href="#DejaVuSans-72" transform="translate(63.476562 0)"/>
     <use xlink:href="#DejaVuSans-69" transform="translate(104.589844 0)"/>
     <use xlink:href="#DejaVuSans-66" transform="translate(132.373047 0)"/>
     <use xlink:href="#DejaVuSans-74" transform="translate(165.828125 0)"/>
     <use xlink:href="#DejaVuSans-20" transform="translate(205.037109 0)"/>
     <use xlink:href="#DejaVuSans-74" transform="translate(236.824219 0)"/>
     <use xlink:href="#DejaVuSans-6f" transform="translate(276.033203 0)"/>
     <use xlink:href="#DejaVuSans-77" transform="translate(337.214844 0)"/>
     <use xlink:href="#DejaVuSans-61" transform="translate(419.001953 0)"/>
     <use xlink:href="#DejaVuSans-72" transform="translate(480.28125 0)"/>
     <use xlink:href="#DejaVuSans-64" transform="translate(519.644531 0)"/>
     <use xlink:href="#DejaVuSans-20" transform="translate(583.121094 0)"/>
     <use xlink:href="#DejaVuSans-73" transform="translate(614.908203 0)"/>
     <use xlink:href="#DejaVuSans-74" transform="translate(667.007812 0)"/>
     <use xlink:href="#DejaVuSans-61" transform="translate(706.216797 0)"/>
     <use xlink:href="#DejaVuSans-79" transform="translate(767.496094 0)"/>
    </g>
   </g>
   <g id="text_23">
    <g id="patch_11">
     <path d="M 479.317497 261.857293 
L 532.512419 261.857293 
Q 534.012419 261.857293 534.012419 260.357293 
L 534.012419 244.70034 
Q 534.012419 243.20034 532.512419 243.20034 
L 479.317497 243.20034 
Q 477.817497 243.20034 477.817497 244.70034 
L 477.817497 260.357293 
Q 477.817497 261.857293 479.317497 261.857293 
z
" style="fill: #ffffff; opacity: 0.8; stroke: #000000; stroke-linejoin: miter"/>
    </g>
    <!-- Diffusion -->
    <g style="fill: #d35400" transform="translate(489.302458 250.399168) scale(0.075 -0.075)">
     <defs>
      <path id="DejaVuSans-44" d="M 1259 4147 
L 1259 519 
L 2022 519 
Q 2988 519 3436 956 
Q 3884 1394 3884 2338 
Q 3884 3275 3436 3711 
Q 2988 4147 2022 4147 
L 1259 4147 
z
M 628 4666 
L 1925 4666 
Q 3281 4666 3915 4102 
Q 4550 3538 4550 2338 
Q 4550 1131 3912 565 
Q 3275 0 1925 0 
L 628 0 
L 628 4666 
z
" transform="scale(0.015625)"/>
     </defs>
     <use xlink:href="#DejaVuSans-44"/>
     <use xlink:href="#DejaVuSans-69" transform="translate(77.001953 0)"/>
     <use xlink:href="#DejaVuSans-66" transform="translate(104.785156 0)"/>
     <use xlink:href="#DejaVuSans-66" transform="translate(139.990234 0)"/>
     <use xlink:href="#DejaVuSans-75" transform="translate(175.195312 0)"/>
     <use xlink:href="#DejaVuSans-73" transform="translate(238.574219 0)"/>
     <use xlink:href="#DejaVuSans-69" transform="translate(290.673828 0)"/>
     <use xlink:href="#DejaVuSans-6f" transform="translate(318.457031 0)"/>
     <use xlink:href="#DejaVuSans-6e" transform="translate(379.638672 0)"/>
    </g>
    <!-- width = 0.014 -->
    <g style="fill: #d35400" transform="translate(479.317497 258.797528) scale(0.075 -0.075)">
     <defs>
      <path id="DejaVuSans-68" d="M 3513 2113 
L 3513 0 
L 2938 0 
L 2938 2094 
Q 2938 2591 2744 2837 
Q 2550 3084 2163 3084 
Q 1697 3084 1428 2787 
Q 1159 2491 1159 1978 
L 1159 0 
L 581 0 
L 581 4863 
L 1159 4863 
L 1159 2956 
Q 1366 3272 1645 3428 
Q 1925 3584 2291 3584 
Q 2894 3584 3203 3211 
Q 3513 2838 3513 2113 
z
" transform="scale(0.015625)"/>
      <path id="DejaVuSans-3d" d="M 678 2906 
L 4684 2906 
L 4684 2381 
L 678 2381 
L 678 2906 
z
M 678 1631 
L 4684 1631 
L 4684 1100 
L 678 1100 
L 678 1631 
z
" transform="scale(0.015625)"/>
     </defs>
     <use xlink:href="#DejaVuSans-77"/>
     <use xlink:href="#DejaVuSans-69" transform="translate(81.787109 0)"/>
     <use xlink:href="#DejaVuSans-64" transform="translate(109.570312 0)"/>
     <use xlink:href="#DejaVuSans-74" transform="translate(173.046875 0)"/>
     <use xlink:href="#DejaVuSans-68" transform="translate(212.255859 0)"/>
     <use xlink:href="#DejaVuSans-20" transform="translate(275.634766 0)"/>
     <use xlink:href="#DejaVuSans-3d" transform="translate(307.421875 0)"/>
     <use xlink:href="#DejaVuSans-20" transform="translate(391.210938 0)"/>
     <use xlink:href="#DejaVuSans-30" transform="translate(422.998047 0)"/>
     <use xlink:href="#DejaVuSans-2e" transform="translate(486.621094 0)"/>
     <use xlink:href="#DejaVuSans-30" transform="translate(518.408203 0)"/>
     <use xlink:href="#DejaVuSans-31" transform="translate(582.03125 0)"/>
     <use xlink:href="#DejaVuSans-34" transform="translate(645.654297 0)"/>
    </g>
   </g>
   <g id="text_24">
    <g id="patch_12">
     <path d="M 601.773948 348.764512 
L 673.849885 348.764512 
Q 676.549885 348.764512 676.549885 346.064512 
L 676.549885 317.198137 
Q 676.549885 314.498137 673.849885 314.498137 
L 601.773948 314.498137 
Q 599.073948 314.498137 599.073948 317.198137 
L 599.073948 346.064512 
Q 599.073948 348.764512 601.773948 348.764512 
z
" style="fill: #ffffff; opacity: 0.8; stroke: #000000; stroke-linejoin: miter"/>
    </g>
    <!-- Repulsive void -->
    <g style="fill: #2980b9" transform="translate(605.179182 324.036731) scale(0.09 -0.09)">
     <defs>
      <path id="DejaVuSans-52" d="M 2841 2188 
Q 3044 2119 3236 1894 
Q 3428 1669 3622 1275 
L 4263 0 
L 3584 0 
L 2988 1197 
Q 2756 1666 2539 1819 
Q 2322 1972 1947 1972 
L 1259 1972 
L 1259 0 
L 628 0 
L 628 4666 
L 2053 4666 
Q 2853 4666 3247 4331 
Q 3641 3997 3641 3322 
Q 3641 2881 3436 2590 
Q 3231 2300 2841 2188 
z
M 1259 4147 
L 1259 2491 
L 2053 2491 
Q 2509 2491 2742 2702 
Q 2975 2913 2975 3322 
Q 2975 3731 2742 3939 
Q 2509 4147 2053 4147 
L 1259 4147 
z
" transform="scale(0.015625)"/>
      <path id="DejaVuSans-70" d="M 1159 525 
L 1159 -1331 
L 581 -1331 
L 581 3500 
L 1159 3500 
L 1159 2969 
Q 1341 3281 1617 3432 
Q 1894 3584 2278 3584 
Q 2916 3584 3314 3078 
Q 3713 2572 3713 1747 
Q 3713 922 3314 415 
Q 2916 -91 2278 -91 
Q 1894 -91 1617 61 
Q 1341 213 1159 525 
z
M 3116 1747 
Q 3116 2381 2855 2742 
Q 2594 3103 2138 3103 
Q 1681 3103 1420 2742 
Q 1159 2381 1159 1747 
Q 1159 1113 1420 752 
Q 1681 391 2138 391 
Q 2594 391 2855 752 
Q 3116 1113 3116 1747 
z
" transform="scale(0.015625)"/>
     </defs>
     <use xlink:href="#DejaVuSans-52"/>
     <use xlink:href="#DejaVuSans-65" transform="translate(64.982422 0)"/>
     <use xlink:href="#DejaVuSans-70" transform="translate(126.505859 0)"/>
     <use xlink:href="#DejaVuSans-75" transform="translate(189.982422 0)"/>
     <use xlink:href="#DejaVuSans-6c" transform="translate(253.361328 0)"/>
     <use xlink:href="#DejaVuSans-73" transform="translate(281.144531 0)"/>
     <use xlink:href="#DejaVuSans-69" transform="translate(333.244141 0)"/>
     <use xlink:href="#DejaVuSans-76" transform="translate(361.027344 0)"/>
     <use xlink:href="#DejaVuSans-65" transform="translate(420.207031 0)"/>
     <use xlink:href="#DejaVuSans-20" transform="translate(481.730469 0)"/>
     <use xlink:href="#DejaVuSans-76" transform="translate(513.517578 0)"/>
     <use xlink:href="#DejaVuSans-6f" transform="translate(572.697266 0)"/>
     <use xlink:href="#DejaVuSans-69" transform="translate(633.878906 0)"/>
     <use xlink:href="#DejaVuSans-64" transform="translate(661.662109 0)"/>
    </g>
    <!-- Pe &lt; 0 -->
    <g style="fill: #2980b9" transform="translate(622.998479 334.114762) scale(0.09 -0.09)">
     <defs>
      <path id="DejaVuSans-3c" d="M 4684 3150 
L 1459 2003 
L 4684 863 
L 4684 294 
L 678 1747 
L 678 2266 
L 4684 3719 
L 4684 3150 
z
" transform="scale(0.015625)"/>
     </defs>
     <use xlink:href="#DejaVuSans-50"/>
     <use xlink:href="#DejaVuSans-65" transform="translate(56.677734 0)"/>
     <use xlink:href="#DejaVuSans-20" transform="translate(118.201172 0)"/>
     <use xlink:href="#DejaVuSans-3c" transform="translate(149.988281 0)"/>
     <use xlink:href="#DejaVuSans-20" transform="translate(233.777344 0)"/>
     <use xlink:href="#DejaVuSans-30" transform="translate(265.564453 0)"/>
    </g>
    <!-- drift toward exit -->
    <g style="fill: #2980b9" transform="translate(601.773948 344.192794) scale(0.09 -0.09)">
     <defs>
      <path id="DejaVuSans-78" d="M 3513 3500 
L 2247 1797 
L 3578 0 
L 2900 0 
L 1881 1375 
L 863 0 
L 184 0 
L 1544 1831 
L 300 3500 
L 978 3500 
L 1906 2253 
L 2834 3500 
L 3513 3500 
z
" transform="scale(0.015625)"/>
     </defs>
     <use xlink:href="#DejaVuSans-64"/>
     <use xlink:href="#DejaVuSans-72" transform="translate(63.476562 0)"/>
     <use xlink:href="#DejaVuSans-69" transform="translate(104.589844 0)"/>
     <use xlink:href="#DejaVuSans-66" transform="translate(132.373047 0)"/>
     <use xlink:href="#DejaVuSans-74" transform="translate(165.828125 0)"/>
     <use xlink:href="#DejaVuSans-20" transform="translate(205.037109 0)"/>
     <use xlink:href="#DejaVuSans-74" transform="translate(236.824219 0)"/>
     <use xlink:href="#DejaVuSans-6f" transform="translate(276.033203 0)"/>
     <use xlink:href="#DejaVuSans-77" transform="translate(337.214844 0)"/>
     <use xlink:href="#DejaVuSans-61" transform="translate(419.001953 0)"/>
     <use xlink:href="#DejaVuSans-72" transform="translate(480.28125 0)"/>
     <use xlink:href="#DejaVuSans-64" transform="translate(519.644531 0)"/>
     <use xlink:href="#DejaVuSans-20" transform="translate(583.121094 0)"/>
     <use xlink:href="#DejaVuSans-65" transform="translate(614.908203 0)"/>
     <use xlink:href="#DejaVuSans-78" transform="translate(674.681641 0)"/>
     <use xlink:href="#DejaVuSans-69" transform="translate(733.861328 0)"/>
     <use xlink:href="#DejaVuSans-74" transform="translate(761.644531 0)"/>
    </g>
   </g>
   <g id="text_25">
    <!-- Pe(c) — three void regimes -->
    <g transform="translate(342.757656 14.798438) scale(0.1 -0.1)">
     <defs>
      <path id="DejaVuSans-2014" d="M 313 1978 
L 6088 1978 
L 6088 1528 
L 313 1528 
L 313 1978 
z
" transform="scale(0.015625)"/>
     </defs>
     <use xlink:href="#DejaVuSans-50"/>
     <use xlink:href="#DejaVuSans-65" transform="translate(56.677734 0)"/>
     <use xlink:href="#DejaVuSans-28" transform="translate(118.201172 0)"/>
     <use xlink:href="#DejaVuSans-63" transform="translate(157.214844 0)"/>
     <use xlink:href="#DejaVuSans-29" transform="translate(212.195312 0)"/>
     <use xlink:href="#DejaVuSans-20" transform="translate(251.208984 0)"/>
     <use xlink:href="#DejaVuSans-2014" transform="translate(282.996094 0)"/>
     <use xlink:href="#DejaVuSans-20" transform="translate(382.996094 0)"/>
     <use xlink:href="#DejaVuSans-74" transform="translate(414.783203 0)"/>
     <use xlink:href="#DejaVuSans-68" transform="translate(453.992188 0)"/>
     <use xlink:href="#DejaVuSans-72" transform="translate(517.371094 0)"/>
     <use xlink:href="#DejaVuSans-65" transform="translate(556.234375 0)"/>
     <use xlink:href="#DejaVuSans-65" transform="translate(617.757812 0)"/>
     <use xlink:href="#DejaVuSans-20" transform="translate(679.28125 0)"/>
     <use xlink:href="#DejaVuSans-76" transform="translate(711.068359 0)"/>
     <use xlink:href="#DejaVuSans-6f" transform="translate(770.248047 0)"/>
     <use xlink:href="#DejaVuSans-69" transform="translate(831.429688 0)"/>
     <use xlink:href="#DejaVuSans-64" transform="translate(859.212891 0)"/>
     <use xlink:href="#DejaVuSans-20" transform="translate(922.689453 0)"/>
     <use xlink:href="#DejaVuSans-72" transform="translate(954.476562 0)"/>
     <use xlink:href="#DejaVuSans-65" transform="translate(993.339844 0)"/>
     <use xlink:href="#DejaVuSans-67" transform="translate(1054.863281 0)"/>
     <use xlink:href="#DejaVuSans-69" transform="translate(1118.339844 0)"/>
     <use xlink:href="#DejaVuSans-6d" transform="translate(1146.123047 0)"/>
     <use xlink:href="#DejaVuSans-65" transform="translate(1243.535156 0)"/>
     <use xlink:href="#DejaVuSans-73" transform="translate(1305.058594 0)"/>
    </g>
    <!-- K=16, b_alpha=0.867, b_gamma=2.243  (canonical, EXP-001) -->
    <g transform="translate(254.275625 25.99625) scale(0.1 -0.1)">
     <defs>
      <path id="DejaVuSans-4b" d="M 628 4666 
L 1259 4666 
L 1259 2694 
L 3353 4666 
L 4166 4666 
L 1850 2491 
L 4331 0 
L 3500 0 
L 1259 2247 
L 1259 0 
L 628 0 
L 628 4666 
z
" transform="scale(0.015625)"/>
      <path id="DejaVuSans-2c" d="M 750 794 
L 1409 794 
L 1409 256 
L 897 -744 
L 494 -744 
L 750 256 
L 750 794 
z
" transform="scale(0.015625)"/>
      <path id="DejaVuSans-5f" d="M 3263 -1063 
L 3263 -1509 
L -63 -1509 
L -63 -1063 
L 3263 -1063 
z
" transform="scale(0.015625)"/>
      <path id="DejaVuSans-38" d="M 2034 2216 
Q 1584 2216 1326 1975 
Q 1069 1734 1069 1313 
Q 1069 891 1326 650 
Q 1584 409 2034 409 
Q 2484 409 2743 651 
Q 3003 894 3003 1313 
Q 3003 1734 2745 1975 
Q 2488 2216 2034 2216 
z
M 1403 2484 
Q 997 2584 770 2862 
Q 544 3141 544 3541 
Q 544 4100 942 4425 
Q 1341 4750 2034 4750 
Q 2731 4750 3128 4425 
Q 3525 4100 3525 3541 
Q 3525 3141 3298 2862 
Q 3072 2584 2669 2484 
Q 3125 2378 3379 2068 
Q 3634 1759 3634 1313 
Q 3634 634 3220 271 
Q 2806 -91 2034 -91 
Q 1263 -91 848 271 
Q 434 634 434 1313 
Q 434 1759 690 2068 
Q 947 2378 1403 2484 
z
M 1172 3481 
Q 1172 3119 1398 2916 
Q 1625 2713 2034 2713 
Q 2441 2713 2670 2916 
Q 2900 3119 2900 3481 
Q 2900 3844 2670 4047 
Q 2441 4250 2034 4250 
Q 1625 4250 1398 4047 
Q 1172 3844 1172 3481 
z
" transform="scale(0.015625)"/>
      <path id="DejaVuSans-37" d="M 525 4666 
L 3525 4666 
L 3525 4397 
L 1831 0 
L 1172 0 
L 2766 4134 
L 525 4134 
L 525 4666 
z
" transform="scale(0.015625)"/>
      <path id="DejaVuSans-45" d="M 628 4666 
L 3578 4666 
L 3578 4134 
L 1259 4134 
L 1259 2753 
L 3481 2753 
L 3481 2222 
L 1259 2222 
L 1259 531 
L 3634 531 
L 3634 0 
L 628 0 
L 628 4666 
z
" transform="scale(0.015625)"/>
      <path id="DejaVuSans-58" d="M 403 4666 
L 1081 4666 
L 2241 2931 
L 3406 4666 
L 4084 4666 
L 2584 2425 
L 4184 0 
L 3506 0 
L 2194 1984 
L 872 0 
L 191 0 
L 1856 2491 
L 403 4666 
z
" transform="scale(0.015625)"/>
      <path id="DejaVuSans-2d" d="M 313 2009 
L 1997 2009 
L 1997 1497 
L 313 1497 
L 313 2009 
z
" transform="scale(0.015625)"/>
     </defs>
     <use xlink:href="#DejaVuSans-4b"/>
     <use xlink:href="#DejaVuSans-3d" transform="translate(65.576172 0)"/>
     <use xlink:href="#DejaVuSans-31" transform="translate(149.365234 0)"/>
     <use xlink:href="#DejaVuSans-36" transform="translate(212.988281 0)"/>
     <use xlink:href="#DejaVuSans-2c" transform="translate(276.611328 0)"/>
     <use xlink:href="#DejaVuSans-20" transform="translate(308.398438 0)"/>
     <use xlink:href="#DejaVuSans-62" transform="translate(340.185547 0)"/>
     <use xlink:href="#DejaVuSans-5f" transform="translate(403.662109 0)"/>
     <use xlink:href="#DejaVuSans-61" transform="translate(453.662109 0)"/>
     <use xlink:href="#DejaVuSans-6c" transform="translate(514.941406 0)"/>
     <use xlink:href="#DejaVuSans-70" transform="translate(542.724609 0)"/>
     <use xlink:href="#DejaVuSans-68" transform="translate(606.201172 0)"/>
     <use xlink:href="#DejaVuSans-61" transform="translate(669.580078 0)"/>
     <use xlink:href="#DejaVuSans-3d" transform="translate(730.859375 0)"/>
     <use xlink:href="#DejaVuSans-30" transform="translate(814.648438 0)"/>
     <use xlink:href="#DejaVuSans-2e" transform="translate(878.271484 0)"/>
     <use xlink:href="#DejaVuSans-38" transform="translate(910.058594 0)"/>
     <use xlink:href="#DejaVuSans-36" transform="translate(973.681641 0)"/>
     <use xlink:href="#DejaVuSans-37" transform="translate(1037.304688 0)"/>
     <use xlink:href="#DejaVuSans-2c" transform="translate(1100.927734 0)"/>
     <use xlink:href="#DejaVuSans-20" transform="translate(1132.714844 0)"/>
     <use xlink:href="#DejaVuSans-62" transform="translate(1164.501953 0)"/>
     <use xlink:href="#DejaVuSans-5f" transform="translate(1227.978516 0)"/>
     <use xlink:href="#DejaVuSans-67" transform="translate(1277.978516 0)"/>
     <use xlink:href="#DejaVuSans-61" transform="translate(1341.455078 0)"/>
     <use xlink:href="#DejaVuSans-6d" transform="translate(1402.734375 0)"/>
     <use xlink:href="#DejaVuSans-6d" transform="translate(1500.146484 0)"/>
     <use xlink:href="#DejaVuSans-61" transform="translate(1597.558594 0)"/>
     <use xlink:href="#DejaVuSans-3d" transform="translate(1658.837891 0)"/>
     <use xlink:href="#DejaVuSans-32" transform="translate(1742.626953 0)"/>
     <use xlink:href="#DejaVuSans-2e" transform="translate(1806.25 0)"/>
     <use xlink:href="#DejaVuSans-32" transform="translate(1838.037109 0)"/>
     <use xlink:href="#DejaVuSans-34" transform="translate(1901.660156 0)"/>
     <use xlink:href="#DejaVuSans-33" transform="translate(1965.283203 0)"/>
     <use xlink:href="#DejaVuSans-20" transform="translate(2028.90625 0)"/>
     <use xlink:href="#DejaVuSans-20" transform="translate(2060.693359 0)"/>
     <use xlink:href="#DejaVuSans-28" transform="translate(2092.480469 0)"/>
     <use xlink:href="#DejaVuSans-63" transform="translate(2131.494141 0)"/>
     <use xlink:href="#DejaVuSans-61" transform="translate(2186.474609 0)"/>
     <use xlink:href="#DejaVuSans-6e" transform="translate(2247.753906 0)"/>
     <use xlink:href="#DejaVuSans-6f" transform="translate(2311.132812 0)"/>
     <use xlink:href="#DejaVuSans-6e" transform="translate(2372.314453 0)"/>
     <use xlink:href="#DejaVuSans-69" transform="translate(2435.693359 0)"/>
     <use xlink:href="#DejaVuSans-63" transform="translate(2463.476562 0)"/>
     <use xlink:href="#DejaVuSans-61" transform="translate(2518.457031 0)"/>
     <use xlink:href="#DejaVuSans-6c" transform="translate(2579.736328 0)"/>
     <use xlink:href="#DejaVuSans-2c" transform="translate(2607.519531 0)"/>
     <use xlink:href="#DejaVuSans-20" transform="translate(2639.306641 0)"/>
     <use xlink:href="#DejaVuSans-45" transform="translate(2671.09375 0)"/>
     <use xlink:href="#DejaVuSans-58" transform="translate(2734.277344 0)"/>
     <use xlink:href="#DejaVuSans-50" transform="translate(2802.783203 0)"/>
     <use xlink:href="#DejaVuSans-2d" transform="translate(2860.835938 0)"/>
     <use xlink:href="#DejaVuSans-30" transform="translate(2896.919922 0)"/>
     <use xlink:href="#DejaVuSans-30" transform="translate(2960.542969 0)"/>
     <use xlink:href="#DejaVuSans-31" transform="translate(3024.166016 0)"/>
     <use xlink:href="#DejaVuSans-29" transform="translate(3087.789062 0)"/>
    </g>
    <!-- c_zero=0.3867 is K-invariant; c_crit=0.3727 is K-dependent -->
    <g transform="translate(261.888906 37.472188) scale(0.1 -0.1)">
     <defs>
      <path id="DejaVuSans-7a" d="M 353 3500 
L 3084 3500 
L 3084 2975 
L 922 459 
L 3084 459 
L 3084 0 
L 275 0 
L 275 525 
L 2438 3041 
L 353 3041 
L 353 3500 
z
" transform="scale(0.015625)"/>
      <path id="DejaVuSans-3b" d="M 750 3309 
L 1409 3309 
L 1409 2516 
L 750 2516 
L 750 3309 
z
M 750 794 
L 1409 794 
L 1409 256 
L 897 -744 
L 494 -744 
L 750 256 
L 750 794 
z
" transform="scale(0.015625)"/>
     </defs>
     <use xlink:href="#DejaVuSans-63"/>
     <use xlink:href="#DejaVuSans-5f" transform="translate(54.980469 0)"/>
     <use xlink:href="#DejaVuSans-7a" transform="translate(104.980469 0)"/>
     <use xlink:href="#DejaVuSans-65" transform="translate(157.470703 0)"/>
     <use xlink:href="#DejaVuSans-72" transform="translate(218.994141 0)"/>
     <use xlink:href="#DejaVuSans-6f" transform="translate(257.857422 0)"/>
     <use xlink:href="#DejaVuSans-3d" transform="translate(319.039062 0)"/>
     <use xlink:href="#DejaVuSans-30" transform="translate(402.828125 0)"/>
     <use xlink:href="#DejaVuSans-2e" transform="translate(466.451172 0)"/>
     <use xlink:href="#DejaVuSans-33" transform="translate(498.238281 0)"/>
     <use xlink:href="#DejaVuSans-38" transform="translate(561.861328 0)"/>
     <use xlink:href="#DejaVuSans-36" transform="translate(625.484375 0)"/>
     <use xlink:href="#DejaVuSans-37" transform="translate(689.107422 0)"/>
     <use xlink:href="#DejaVuSans-20" transform="translate(752.730469 0)"/>
     <use xlink:href="#DejaVuSans-69" transform="translate(784.517578 0)"/>
     <use xlink:href="#DejaVuSans-73" transform="translate(812.300781 0)"/>
     <use xlink:href="#DejaVuSans-20" transform="translate(864.400391 0)"/>
     <use xlink:href="#DejaVuSans-4b" transform="translate(896.1875 0)"/>
     <use xlink:href="#DejaVuSans-2d" transform="translate(951.263672 0)"/>
     <use xlink:href="#DejaVuSans-69" transform="translate(987.347656 0)"/>
     <use xlink:href="#DejaVuSans-6e" transform="translate(1015.130859 0)"/>
     <use xlink:href="#DejaVuSans-76" transform="translate(1078.509766 0)"/>
     <use xlink:href="#DejaVuSans-61" transform="translate(1137.689453 0)"/>
     <use xlink:href="#DejaVuSans-72" transform="translate(1198.96875 0)"/>
     <use xlink:href="#DejaVuSans-69" transform="translate(1240.082031 0)"/>
     <use xlink:href="#DejaVuSans-61" transform="translate(1267.865234 0)"/>
     <use xlink:href="#DejaVuSans-6e" transform="translate(1329.144531 0)"/>
     <use xlink:href="#DejaVuSans-74" transform="translate(1392.523438 0)"/>
     <use xlink:href="#DejaVuSans-3b" transform="translate(1431.732422 0)"/>
     <use xlink:href="#DejaVuSans-20" transform="translate(1465.423828 0)"/>
     <use xlink:href="#DejaVuSans-63" transform="translate(1497.210938 0)"/>
     <use xlink:href="#DejaVuSans-5f" transform="translate(1552.191406 0)"/>
     <use xlink:href="#DejaVuSans-63" transform="translate(1602.191406 0)"/>
     <use xlink:href="#DejaVuSans-72" transform="translate(1657.171875 0)"/>
     <use xlink:href="#DejaVuSans-69" transform="translate(1698.285156 0)"/>
     <use xlink:href="#DejaVuSans-74" transform="translate(1726.068359 0)"/>
     <use xlink:href="#DejaVuSans-3d" transform="translate(1765.277344 0)"/>
     <use xlink:href="#DejaVuSans-30" transform="translate(1849.066406 0)"/>
     <use xlink:href="#DejaVuSans-2e" transform="translate(1912.689453 0)"/>
     <use xlink:href="#DejaVuSans-33" transform="translate(1944.476562 0)"/>
     <use xlink:href="#DejaVuSans-37" transform="translate(2008.099609 0)"/>
     <use xlink:href="#DejaVuSans-32" transform="translate(2071.722656 0)"/>
     <use xlink:href="#DejaVuSans-37" transform="translate(2135.345703 0)"/>
     <use xlink:href="#DejaVuSans-20" transform="translate(2198.96875 0)"/>
     <use xlink:href="#DejaVuSans-69" transform="translate(2230.755859 0)"/>
     <use xlink:href="#DejaVuSans-73" transform="translate(2258.539062 0)"/>
     <use xlink:href="#DejaVuSans-20" transform="translate(2310.638672 0)"/>
     <use xlink:href="#DejaVuSans-4b" transform="translate(2342.425781 0)"/>
     <use xlink:href="#DejaVuSans-2d" transform="translate(2397.501953 0)"/>
     <use xlink:href="#DejaVuSans-64" transform="translate(2433.585938 0)"/>
     <use xlink:href="#DejaVuSans-65" transform="translate(2497.0625 0)"/>
     <use xlink:href="#DejaVuSans-70" transform="translate(2558.585938 0)"/>
     <use xlink:href="#DejaVuSans-65" transform="translate(2622.0625 0)"/>
     <use xlink:href="#DejaVuSans-6e" transform="translate(2683.585938 0)"/>
     <use xlink:href="#DejaVuSans-64" transform="translate(2746.964844 0)"/>
     <use xlink:href="#DejaVuSans-65" transform="translate(2810.441406 0)"/>
     <use xlink:href="#DejaVuSans-6e" transform="translate(2871.964844 0)"/>
     <use xlink:href="#DejaVuSans-74" transform="translate(2935.34375 0)"/>
    </g>
   </g>
   <g id="line2d_31">
    <path d="M 51.88625 297.73025 
L 769.34625 297.73025 
" clip-path="url(#p14597899fe)" style="fill: none; stroke: #000000; stroke-width: 1.2; stroke-linecap: square"/>
   </g>
   <g id="line2d_32">
    <path d="M 51.88625 49.565518 
L 61.468354 58.901976 
L 71.050457 67.929756 
L 80.632561 76.660526 
L 90.214664 85.10557 
L 99.796768 93.275802 
L 109.378871 101.181784 
L 120.158737 109.77286 
L 130.938604 118.05647 
L 141.71847 126.046164 
L 152.498337 133.755013 
L 163.278203 141.195626 
L 174.05807 148.380174 
L 184.837936 155.320412 
L 196.815566 162.759045 
L 208.793195 169.925089 
L 220.770824 176.833017 
L 232.748454 183.49678 
L 245.923846 190.560957 
L 259.099238 197.363233 
L 272.274631 203.92023 
L 286.647786 210.812394 
L 301.020941 217.451761 
L 315.394096 223.857643 
L 330.965015 230.555459 
L 347.733696 237.51269 
L 364.502377 244.231516 
L 382.468821 251.195904 
L 401.633028 258.392219 
L 423.192761 266.246712 
L 447.14802 274.734401 
L 477.092093 285.09053 
L 526.200374 301.788417 
L 569.319839 316.544814 
L 596.868387 326.206039 
L 619.625883 334.412071 
L 639.987853 341.979284 
L 659.15206 349.336556 
L 677.118504 356.475646 
L 693.887185 363.379024 
L 709.458103 370.021429 
L 725.029021 376.910602 
L 739.402177 383.509186 
L 753.775332 390.357254 
L 766.950724 396.870811 
L 769.34625 398.080649 
L 769.34625 398.080649 
" clip-path="url(#p14597899fe)" style="fill: none; stroke: #000000; stroke-width: 2.5; stroke-linecap: square"/>
   </g>
   <g id="legend_1">
    <g id="patch_13">
     <path d="M 540.771953 113.127031 
L 763.39625 113.127031 
Q 765.09625 113.127031 765.09625 111.427031 
L 765.09625 49.422187 
Q 765.09625 47.722187 763.39625 47.722187 
L 540.771953 47.722187 
Q 539.071953 47.722187 539.071953 49.422187 
L 539.071953 111.427031 
Q 539.071953 113.127031 540.771953 113.127031 
z
" style="fill: #ffffff; opacity: 0.9; stroke: #cccccc; stroke-linejoin: miter"/>
    </g>
    <g id="patch_14">
     <path d="M 542.471953 57.580859 
L 559.471953 57.580859 
L 559.471953 51.630859 
L 542.471953 51.630859 
z
" style="fill: #e74c3c; opacity: 0.08; stroke: #e74c3c; stroke-linejoin: miter"/>
    </g>
    <g id="text_26">
     <!-- Attractive void (Pe &gt; 1) -->
     <g transform="translate(566.271953 57.580859) scale(0.085 -0.085)">
      <use xlink:href="#DejaVuSans-41"/>
      <use xlink:href="#DejaVuSans-74" transform="translate(66.658203 0)"/>
      <use xlink:href="#DejaVuSans-74" transform="translate(105.867188 0)"/>
      <use xlink:href="#DejaVuSans-72" transform="translate(145.076172 0)"/>
      <use xlink:href="#DejaVuSans-61" transform="translate(186.189453 0)"/>
      <use xlink:href="#DejaVuSans-63" transform="translate(247.46875 0)"/>
      <use xlink:href="#DejaVuSans-74" transform="translate(302.449219 0)"/>
      <use xlink:href="#DejaVuSans-69" transform="translate(341.658203 0)"/>
      <use xlink:href="#DejaVuSans-76" transform="translate(369.441406 0)"/>
      <use xlink:href="#DejaVuSans-65" transform="translate(428.621094 0)"/>
      <use xlink:href="#DejaVuSans-20" transform="translate(490.144531 0)"/>
      <use xlink:href="#DejaVuSans-76" transform="translate(521.931641 0)"/>
      <use xlink:href="#DejaVuSans-6f" transform="translate(581.111328 0)"/>
      <use xlink:href="#DejaVuSans-69" transform="translate(642.292969 0)"/>
      <use xlink:href="#DejaVuSans-64" transform="translate(670.076172 0)"/>
      <use xlink:href="#DejaVuSans-20" transform="translate(733.552734 0)"/>
      <use xlink:href="#DejaVuSans-28" transform="translate(765.339844 0)"/>
      <use xlink:href="#DejaVuSans-50" transform="translate(804.353516 0)"/>
      <use xlink:href="#DejaVuSans-65" transform="translate(861.03125 0)"/>
      <use xlink:href="#DejaVuSans-20" transform="translate(922.554688 0)"/>
      <use xlink:href="#DejaVuSans-3e" transform="translate(954.341797 0)"/>
      <use xlink:href="#DejaVuSans-20" transform="translate(1038.130859 0)"/>
      <use xlink:href="#DejaVuSans-31" transform="translate(1069.917969 0)"/>
      <use xlink:href="#DejaVuSans-29" transform="translate(1133.541016 0)"/>
     </g>
    </g>
    <g id="patch_15">
     <path d="M 542.471953 70.057266 
L 559.471953 70.057266 
L 559.471953 64.107266 
L 542.471953 64.107266 
z
" style="fill: #f39c12; opacity: 0.12; stroke: #f39c12; stroke-linejoin: miter"/>
    </g>
    <g id="text_27">
     <!-- Diffusion zone (0 &lt; Pe &lt; 1) -->
     <g transform="translate(566.271953 70.057266) scale(0.085 -0.085)">
      <use xlink:href="#DejaVuSans-44"/>
      <use xlink:href="#DejaVuSans-69" transform="translate(77.001953 0)"/>
      <use xlink:href="#DejaVuSans-66" transform="translate(104.785156 0)"/>
      <use xlink:href="#DejaVuSans-66" transform="translate(139.990234 0)"/>
      <use xlink:href="#DejaVuSans-75" transform="translate(175.195312 0)"/>
      <use xlink:href="#DejaVuSans-73" transform="translate(238.574219 0)"/>
      <use xlink:href="#DejaVuSans-69" transform="translate(290.673828 0)"/>
      <use xlink:href="#DejaVuSans-6f" transform="translate(318.457031 0)"/>
      <use xlink:href="#DejaVuSans-6e" transform="translate(379.638672 0)"/>
      <use xlink:href="#DejaVuSans-20" transform="translate(443.017578 0)"/>
      <use xlink:href="#DejaVuSans-7a" transform="translate(474.804688 0)"/>
      <use xlink:href="#DejaVuSans-6f" transform="translate(527.294922 0)"/>
      <use xlink:href="#DejaVuSans-6e" transform="translate(588.476562 0)"/>
      <use xlink:href="#DejaVuSans-65" transform="translate(651.855469 0)"/>
      <use xlink:href="#DejaVuSans-20" transform="translate(713.378906 0)"/>
      <use xlink:href="#DejaVuSans-28" transform="translate(745.166016 0)"/>
      <use xlink:href="#DejaVuSans-30" transform="translate(784.179688 0)"/>
      <use xlink:href="#DejaVuSans-20" transform="translate(847.802734 0)"/>
      <use xlink:href="#DejaVuSans-3c" transform="translate(879.589844 0)"/>
      <use xlink:href="#DejaVuSans-20" transform="translate(963.378906 0)"/>
      <use xlink:href="#DejaVuSans-50" transform="translate(995.166016 0)"/>
      <use xlink:href="#DejaVuSans-65" transform="translate(1051.84375 0)"/>
      <use xlink:href="#DejaVuSans-20" transform="translate(1113.367188 0)"/>
      <use xlink:href="#DejaVuSans-3c" transform="translate(1145.154297 0)"/>
      <use xlink:href="#DejaVuSans-20" transform="translate(1228.943359 0)"/>
      <use xlink:href="#DejaVuSans-31" transform="translate(1260.730469 0)"/>
      <use xlink:href="#DejaVuSans-29" transform="translate(1324.353516 0)"/>
     </g>
    </g>
    <g id="patch_16">
     <path d="M 542.471953 82.533672 
L 559.471953 82.533672 
L 559.471953 76.583672 
L 542.471953 76.583672 
z
" style="fill: #3498db; opacity: 0.08; stroke: #3498db; stroke-linejoin: miter"/>
    </g>
    <g id="text_28">
     <!-- Repulsive void (Pe &lt; 0) -->
     <g transform="translate(566.271953 82.533672) scale(0.085 -0.085)">
      <use xlink:href="#DejaVuSans-52"/>
      <use xlink:href="#DejaVuSans-65" transform="translate(64.982422 0)"/>
      <use xlink:href="#DejaVuSans-70" transform="translate(126.505859 0)"/>
      <use xlink:href="#DejaVuSans-75" transform="translate(189.982422 0)"/>
      <use xlink:href="#DejaVuSans-6c" transform="translate(253.361328 0)"/>
      <use xlink:href="#DejaVuSans-73" transform="translate(281.144531 0)"/>
      <use xlink:href="#DejaVuSans-69" transform="translate(333.244141 0)"/>
      <use xlink:href="#DejaVuSans-76" transform="translate(361.027344 0)"/>
      <use xlink:href="#DejaVuSans-65" transform="translate(420.207031 0)"/>
      <use xlink:href="#DejaVuSans-20" transform="translate(481.730469 0)"/>
      <use xlink:href="#DejaVuSans-76" transform="translate(513.517578 0)"/>
      <use xlink:href="#DejaVuSans-6f" transform="translate(572.697266 0)"/>
      <use xlink:href="#DejaVuSans-69" transform="translate(633.878906 0)"/>
      <use xlink:href="#DejaVuSans-64" transform="translate(661.662109 0)"/>
      <use xlink:href="#DejaVuSans-20" transform="translate(725.138672 0)"/>
      <use xlink:href="#DejaVuSans-28" transform="translate(756.925781 0)"/>
      <use xlink:href="#DejaVuSans-50" transform="translate(795.939453 0)"/>
      <use xlink:href="#DejaVuSans-65" transform="translate(852.617188 0)"/>
      <use xlink:href="#DejaVuSans-20" transform="translate(914.140625 0)"/>
      <use xlink:href="#DejaVuSans-3c" transform="translate(945.927734 0)"/>
      <use xlink:href="#DejaVuSans-20" transform="translate(1029.716797 0)"/>
      <use xlink:href="#DejaVuSans-30" transform="translate(1061.503906 0)"/>
      <use xlink:href="#DejaVuSans-29" transform="translate(1125.126953 0)"/>
     </g>
    </g>
    <g id="line2d_33">
     <path d="M 542.471953 92.035078 
L 550.971953 92.035078 
L 559.471953 92.035078 
" style="fill: none; stroke: #000000; stroke-width: 2.5; stroke-linecap: square"/>
    </g>
    <g id="text_29">
     <!-- Pe(c) = K * sinh(2(b_alpha - c*b_gamma)) -->
     <g transform="translate(566.271953 95.010078) scale(0.085 -0.085)">
      <defs>
       <path id="DejaVuSans-2a" d="M 3009 3897 
L 1888 3291 
L 3009 2681 
L 2828 2375 
L 1778 3009 
L 1778 1831 
L 1422 1831 
L 1422 3009 
L 372 2375 
L 191 2681 
L 1313 3291 
L 191 3897 
L 372 4206 
L 1422 3572 
L 1422 4750 
L 1778 4750 
L 1778 3572 
L 2828 4206 
L 3009 3897 
z
" transform="scale(0.015625)"/>
      </defs>
      <use xlink:href="#DejaVuSans-50"/>
      <use xlink:href="#DejaVuSans-65" transform="translate(56.677734 0)"/>
      <use xlink:href="#DejaVuSans-28" transform="translate(118.201172 0)"/>
      <use xlink:href="#DejaVuSans-63" transform="translate(157.214844 0)"/>
      <use xlink:href="#DejaVuSans-29" transform="translate(212.195312 0)"/>
      <use xlink:href="#DejaVuSans-20" transform="translate(251.208984 0)"/>
      <use xlink:href="#DejaVuSans-3d" transform="translate(282.996094 0)"/>
      <use xlink:href="#DejaVuSans-20" transform="translate(366.785156 0)"/>
      <use xlink:href="#DejaVuSans-4b" transform="translate(398.572266 0)"/>
      <use xlink:href="#DejaVuSans-20" transform="translate(464.148438 0)"/>
      <use xlink:href="#DejaVuSans-2a" transform="translate(495.935547 0)"/>
      <use xlink:href="#DejaVuSans-20" transform="translate(545.935547 0)"/>
      <use xlink:href="#DejaVuSans-73" transform="translate(577.722656 0)"/>
      <use xlink:href="#DejaVuSans-69" transform="translate(629.822266 0)"/>
      <use xlink:href="#DejaVuSans-6e" transform="translate(657.605469 0)"/>
      <use xlink:href="#DejaVuSans-68" transform="translate(720.984375 0)"/>
      <use xlink:href="#DejaVuSans-28" transform="translate(784.363281 0)"/>
      <use xlink:href="#DejaVuSans-32" transform="translate(823.376953 0)"/>
      <use xlink:href="#DejaVuSans-28" transform="translate(887 0)"/>
      <use xlink:href="#DejaVuSans-62" transform="translate(926.013672 0)"/>
      <use xlink:href="#DejaVuSans-5f" transform="translate(989.490234 0)"/>
      <use xlink:href="#DejaVuSans-61" transform="translate(1039.490234 0)"/>
      <use xlink:href="#DejaVuSans-6c" transform="translate(1100.769531 0)"/>
      <use xlink:href="#DejaVuSans-70" transform="translate(1128.552734 0)"/>
      <use xlink:href="#DejaVuSans-68" transform="translate(1192.029297 0)"/>
      <use xlink:href="#DejaVuSans-61" transform="translate(1255.408203 0)"/>
      <use xlink:href="#DejaVuSans-20" transform="translate(1316.6875 0)"/>
      <use xlink:href="#DejaVuSans-2d" transform="translate(1348.474609 0)"/>
      <use xlink:href="#DejaVuSans-20" transform="translate(1384.558594 0)"/>
      <use xlink:href="#DejaVuSans-63" transform="translate(1416.345703 0)"/>
      <use xlink:href="#DejaVuSans-2a" transform="translate(1471.326172 0)"/>
      <use xlink:href="#DejaVuSans-62" transform="translate(1521.326172 0)"/>
      <use xlink:href="#DejaVuSans-5f" transform="translate(1584.802734 0)"/>
      <use xlink:href="#DejaVuSans-67" transform="translate(1634.802734 0)"/>
      <use xlink:href="#DejaVuSans-61" transform="translate(1698.279297 0)"/>
      <use xlink:href="#DejaVuSans-6d" transform="translate(1759.558594 0)"/>
      <use xlink:href="#DejaVuSans-6d" transform="translate(1856.970703 0)"/>
      <use xlink:href="#DejaVuSans-61" transform="translate(1954.382812 0)"/>
      <use xlink:href="#DejaVuSans-29" transform="translate(2015.662109 0)"/>
      <use xlink:href="#DejaVuSans-29" transform="translate(2054.675781 0)"/>
     </g>
    </g>
    <g id="line2d_34">
     <path d="M 542.471953 104.747891 
L 550.971953 104.747891 
L 559.471953 104.747891 
" style="fill: none; stroke-dasharray: 7.4,3.2; stroke-dashoffset: 0; stroke: #2c3e50; stroke-opacity: 0.9; stroke-width: 2"/>
    </g>
    <g id="text_30">
     <!-- c_zero = 0.3867 (K-invariant, Pe=0 boundary) -->
     <g transform="translate(566.271953 107.722891) scale(0.085 -0.085)">
      <use xlink:href="#DejaVuSans-63"/>
      <use xlink:href="#DejaVuSans-5f" transform="translate(54.980469 0)"/>
      <use xlink:href="#DejaVuSans-7a" transform="translate(104.980469 0)"/>
      <use xlink:href="#DejaVuSans-65" transform="translate(157.470703 0)"/>
      <use xlink:href="#DejaVuSans-72" transform="translate(218.994141 0)"/>
      <use xlink:href="#DejaVuSans-6f" transform="translate(257.857422 0)"/>
      <use xlink:href="#DejaVuSans-20" transform="translate(319.039062 0)"/>
      <use xlink:href="#DejaVuSans-3d" transform="translate(350.826172 0)"/>
      <use xlink:href="#DejaVuSans-20" transform="translate(434.615234 0)"/>
      <use xlink:href="#DejaVuSans-30" transform="translate(466.402344 0)"/>
      <use xlink:href="#DejaVuSans-2e" transform="translate(530.025391 0)"/>
      <use xlink:href="#DejaVuSans-33" transform="translate(561.8125 0)"/>
      <use xlink:href="#DejaVuSans-38" transform="translate(625.435547 0)"/>
      <use xlink:href="#DejaVuSans-36" transform="translate(689.058594 0)"/>
      <use xlink:href="#DejaVuSans-37" transform="translate(752.681641 0)"/>
      <use xlink:href="#DejaVuSans-20" transform="translate(816.304688 0)"/>
      <use xlink:href="#DejaVuSans-28" transform="translate(848.091797 0)"/>
      <use xlink:href="#DejaVuSans-4b" transform="translate(887.105469 0)"/>
      <use xlink:href="#DejaVuSans-2d" transform="translate(942.181641 0)"/>
      <use xlink:href="#DejaVuSans-69" transform="translate(978.265625 0)"/>
      <use xlink:href="#DejaVuSans-6e" transform="translate(1006.048828 0)"/>
      <use xlink:href="#DejaVuSans-76" transform="translate(1069.427734 0)"/>
      <use xlink:href="#DejaVuSans-61" transform="translate(1128.607422 0)"/>
      <use xlink:href="#DejaVuSans-72" transform="translate(1189.886719 0)"/>
      <use xlink:href="#DejaVuSans-69" transform="translate(1231 0)"/>
      <use xlink:href="#DejaVuSans-61" transform="translate(1258.783203 0)"/>
      <use xlink:href="#DejaVuSans-6e" transform="translate(1320.0625 0)"/>
      <use xlink:href="#DejaVuSans-74" transform="translate(1383.441406 0)"/>
      <use xlink:href="#DejaVuSans-2c" transform="translate(1422.650391 0)"/>
      <use xlink:href="#DejaVuSans-20" transform="translate(1454.4375 0)"/>
      <use xlink:href="#DejaVuSans-50" transform="translate(1486.224609 0)"/>
      <use xlink:href="#DejaVuSans-65" transform="translate(1542.902344 0)"/>
      <use xlink:href="#DejaVuSans-3d" transform="translate(1604.425781 0)"/>
      <use xlink:href="#DejaVuSans-30" transform="translate(1688.214844 0)"/>
      <use xlink:href="#DejaVuSans-20" transform="translate(1751.837891 0)"/>
      <use xlink:href="#DejaVuSans-62" transform="translate(1783.625 0)"/>
      <use xlink:href="#DejaVuSans-6f" transform="translate(1847.101562 0)"/>
      <use xlink:href="#DejaVuSans-75" transform="translate(1908.283203 0)"/>
      <use xlink:href="#DejaVuSans-6e" transform="translate(1971.662109 0)"/>
      <use xlink:href="#DejaVuSans-64" transform="translate(2035.041016 0)"/>
      <use xlink:href="#DejaVuSans-61" transform="translate(2098.517578 0)"/>
      <use xlink:href="#DejaVuSans-72" transform="translate(2159.796875 0)"/>
      <use xlink:href="#DejaVuSans-79" transform="translate(2200.910156 0)"/>
      <use xlink:href="#DejaVuSans-29" transform="translate(2260.089844 0)"/>
     </g>
    </g>
   </g>
   <g id="PathCollection_1">
    <defs>
     <path id="m314ffb164e" d="M -0 9.486833 
L 9.486833 0 
L 0 -9.486833 
L -9.486833 -0 
z
" style="stroke: #ffffff"/>
    </defs>
    <g clip-path="url(#p14597899fe)">
     <use xlink:href="#m314ffb164e" x="386.868218" y="252.867827" style="fill: #e74c3c; stroke: #ffffff"/>
    </g>
   </g>
   <g id="PathCollection_2">
    <defs>
     <path id="m3f57322fcc" d="M 0 -6.708204 
L -6.708204 6.708204 
L 6.708204 6.708204 
z
" style="stroke: #ffffff"/>
    </defs>
    <g clip-path="url(#p14597899fe)">
     <use xlink:href="#m3f57322fcc" x="452.487627" y="276.59858" style="fill: #627eea; stroke: #ffffff"/>
    </g>
   </g>
   <g id="PathCollection_3">
    <defs>
     <path id="m575c2a3834" d="M -0 9.486833 
L 9.486833 0 
L 0 -9.486833 
L -9.486833 -0 
z
" style="stroke: #ffffff"/>
    </defs>
    <g clip-path="url(#p14597899fe)">
     <use xlink:href="#m575c2a3834" x="501.58291" y="293.436114" style="fill: #2ecc71; stroke: #ffffff"/>
    </g>
   </g>
   <g id="PathCollection_4">
    <defs>
     <path id="m3956730bd4" d="M 0 6.708204 
C 1.779036 6.708204 3.485448 6.001385 4.743416 4.743416 
C 6.001385 3.485448 6.708204 1.779036 6.708204 0 
C 6.708204 -1.779036 6.001385 -3.485448 4.743416 -4.743416 
C 3.485448 -6.001385 1.779036 -6.708204 0 -6.708204 
C -1.779036 -6.708204 -3.485448 -6.001385 -4.743416 -4.743416 
C -6.001385 -3.485448 -6.708204 -1.779036 -6.708204 0 
C -6.708204 1.779036 -6.001385 3.485448 -4.743416 4.743416 
C -3.485448 6.001385 -1.779036 6.708204 0 6.708204 
z
" style="stroke: #ffffff"/>
    </defs>
    <g clip-path="url(#p14597899fe)">
     <use xlink:href="#m3956730bd4" x="514.239142" y="297.73025" style="fill: #ff6600; stroke: #ffffff"/>
    </g>
   </g>
   <g id="PathCollection_5">
    <defs>
     <path id="mf6f10040ce" d="M -6.708204 6.708204 
L 6.708204 6.708204 
L 6.708204 -6.708204 
L -6.708204 -6.708204 
z
" style="stroke: #ffffff"/>
    </defs>
    <g clip-path="url(#p14597899fe)">
     <use xlink:href="#mf6f10040ce" x="567.689397" y="315.980329" style="fill: #6699cc; stroke: #ffffff"/>
    </g>
   </g>
   <g id="PathCollection_6">
    <defs>
     <path id="mca009326a0" d="M -2.236068 6.708204 
L 2.236068 6.708204 
L 2.236068 2.236068 
L 6.708204 2.236068 
L 6.708204 -2.236068 
L 2.236068 -2.236068 
L 2.236068 -6.708204 
L -2.236068 -6.708204 
L -2.236068 -2.236068 
L -6.708204 -2.236068 
L -6.708204 2.236068 
L -2.236068 2.236068 
z
" style="stroke: #ffffff"/>
    </defs>
    <g clip-path="url(#p14597899fe)">
     <use xlink:href="#mca009326a0" x="656.053303" y="348.129848" style="fill: #cc0066; stroke: #ffffff"/>
    </g>
   </g>
  </g>
 </g>
 <defs>
  <clipPath id="p14597899fe">
   <rect x="51.88625" y="43.472188" width="717.46" height="339.01075"/>
  </clipPath>
 </defs>
</svg>
