<?xml version="1.0" encoding="utf-8" standalone="no"?>
<!DOCTYPE svg PUBLIC "-//W3C//DTD SVG 1.1//EN"
  "http://www.w3.org/Graphics/SVG/1.1/DTD/svg11.dtd">
<svg xmlns:xlink="http://www.w3.org/1999/xlink" width="977.297862pt" height="482.893767pt" viewBox="0 0 977.297862 482.893767" xmlns="http://www.w3.org/2000/svg" version="1.1">
 <metadata>
  <rdf:RDF xmlns:dc="http://purl.org/dc/elements/1.1/" xmlns:cc="http://creativecommons.org/ns#" xmlns:rdf="http://www.w3.org/1999/02/22-rdf-syntax-ns#">
   <cc:Work>
    <dc:type rdf:resource="http://purl.org/dc/dcmitype/StillImage"/>
    <dc:date>2026-02-22T05:34:49.994942</dc:date>
    <dc:format>image/svg+xml</dc:format>
    <dc:creator>
     <cc:Agent>
      <dc:title>Matplotlib v3.10.8, https://matplotlib.org/</dc:title>
     </cc:Agent>
    </dc:creator>
   </cc:Work>
  </rdf:RDF>
 </metadata>
 <defs>
  <style type="text/css">*{stroke-linejoin: round; stroke-linecap: butt}</style>
 </defs>
 <g id="figure_1">
  <g id="patch_1">
   <path d="M 0 482.893767 
L 977.297862 482.893767 
L 977.297862 -0 
L 0 -0 
z
" style="fill: #060810"/>
  </g>
  <g id="axes_1">
   <g id="patch_2">
    <path d="M 414.492946 274.26 
C 414.492946 249.786831 409.672266 225.551633 400.30679 202.941374 
C 390.941313 180.331114 377.213177 159.785506 359.908033 142.480362 
C 342.60289 125.175218 322.057281 111.447082 299.447021 102.081605 
C 276.836762 92.716129 252.601564 87.895449 228.128395 87.895449 
C 203.655226 87.895449 179.420028 92.716129 156.809769 102.081605 
C 134.199509 111.447082 113.653901 125.175218 96.348757 142.480362 
C 79.043614 159.785506 65.315477 180.331114 55.95 202.941374 
C 46.584524 225.551633 41.763844 249.786831 41.763844 274.26 
C 41.763844 298.733169 46.584524 322.968367 55.95 345.578626 
C 65.315477 368.188886 79.043614 388.734494 96.348757 406.039638 
C 113.653901 423.344782 134.199509 437.072918 156.809769 446.438395 
C 179.420028 455.803871 203.655226 460.624551 228.128395 460.624551 
C 252.601564 460.624551 276.836762 455.803871 299.447021 446.438395 
C 322.057281 437.072918 342.60289 423.344782 359.908033 406.039638 
C 377.213177 388.734494 390.941313 368.188886 400.30679 345.578626 
C 409.672266 322.968367 414.492946 298.733169 414.492946 274.26 
M 228.128395 274.26 
C 228.128395 274.26 228.128395 274.26 228.128395 274.26 
C 228.128395 274.26 228.128395 274.26 228.128395 274.26 
C 228.128395 274.26 228.128395 274.26 228.128395 274.26 
C 228.128395 274.26 228.128395 274.26 228.128395 274.26 
C 228.128395 274.26 228.128395 274.26 228.128395 274.26 
C 228.128395 274.26 228.128395 274.26 228.128395 274.26 
C 228.128395 274.26 228.128395 274.26 228.128395 274.26 
C 228.128395 274.26 228.128395 274.26 228.128395 274.26 
C 228.128395 274.26 228.128395 274.26 228.128395 274.26 
C 228.128395 274.26 228.128395 274.26 228.128395 274.26 
C 228.128395 274.26 228.128395 274.26 228.128395 274.26 
C 228.128395 274.26 228.128395 274.26 228.128395 274.26 
C 228.128395 274.26 228.128395 274.26 228.128395 274.26 
C 228.128395 274.26 228.128395 274.26 228.128395 274.26 
C 228.128395 274.26 228.128395 274.26 228.128395 274.26 
C 228.128395 274.26 228.128395 274.26 228.128395 274.26 
z
" style="fill: #060810"/>
   </g>
   <g id="patch_3">
    <path d="M 402.845162 274.26 
L 361.969203 161.954227 
L 258.467643 102.197573 
L 169.889473 173.387228 
L 63.948338 214.503346 
L 63.948338 334.016654 
L 140.770012 425.569159 
L 248.35456 388.968284 
L 317.355601 349.130515 
z
" clip-path="url(#pd8c0be8638)" style="fill: #ffaa22; opacity: 0.22; stroke: #ffaa22; stroke-linejoin: miter"/>
   </g>
   <g id="matplotlib.axis_1">
    <g id="xtick_1">
     <g id="line2d_1">
      <path d="M 228.128395 274.26 
L 414.492946 274.26 
" clip-path="url(#pd8c0be8638)" style="fill: none; stroke: #1a1f2e; stroke-width: 0.8; stroke-linecap: square"/>
     </g>
     <g id="text_1">
      <!-- Strength -->
      <g style="fill: #888899" transform="translate(410.111032 276.605469) scale(0.085 -0.085)">
       <defs>
        <path id="DejaVuSans-53" d="M 3425 4513 
L 3425 3897 
Q 3066 4069 2747 4153 
Q 2428 4238 2131 4238 
Q 1616 4238 1336 4038 
Q 1056 3838 1056 3469 
Q 1056 3159 1242 3001 
Q 1428 2844 1947 2747 
L 2328 2669 
Q 3034 2534 3370 2195 
Q 3706 1856 3706 1288 
Q 3706 609 3251 259 
Q 2797 -91 1919 -91 
Q 1588 -91 1214 -16 
Q 841 59 441 206 
L 441 856 
Q 825 641 1194 531 
Q 1563 422 1919 422 
Q 2459 422 2753 634 
Q 3047 847 3047 1241 
Q 3047 1584 2836 1778 
Q 2625 1972 2144 2069 
L 1759 2144 
Q 1053 2284 737 2584 
Q 422 2884 422 3419 
Q 422 4038 858 4394 
Q 1294 4750 2059 4750 
Q 2388 4750 2728 4690 
Q 3069 4631 3425 4513 
z
" transform="scale(0.015625)"/>
        <path id="DejaVuSans-74" d="M 1172 4494 
L 1172 3500 
L 2356 3500 
L 2356 3053 
L 1172 3053 
L 1172 1153 
Q 1172 725 1289 603 
Q 1406 481 1766 481 
L 2356 481 
L 2356 0 
L 1766 0 
Q 1100 0 847 248 
Q 594 497 594 1153 
L 594 3053 
L 172 3053 
L 172 3500 
L 594 3500 
L 594 4494 
L 1172 4494 
z
" transform="scale(0.015625)"/>
        <path id="DejaVuSans-72" d="M 2631 2963 
Q 2534 3019 2420 3045 
Q 2306 3072 2169 3072 
Q 1681 3072 1420 2755 
Q 1159 2438 1159 1844 
L 1159 0 
L 581 0 
L 581 3500 
L 1159 3500 
L 1159 2956 
Q 1341 3275 1631 3429 
Q 1922 3584 2338 3584 
Q 2397 3584 2469 3576 
Q 2541 3569 2628 3553 
L 2631 2963 
z
" transform="scale(0.015625)"/>
        <path id="DejaVuSans-65" d="M 3597 1894 
L 3597 1613 
L 953 1613 
Q 991 1019 1311 708 
Q 1631 397 2203 397 
Q 2534 397 2845 478 
Q 3156 559 3463 722 
L 3463 178 
Q 3153 47 2828 -22 
Q 2503 -91 2169 -91 
Q 1331 -91 842 396 
Q 353 884 353 1716 
Q 353 2575 817 3079 
Q 1281 3584 2069 3584 
Q 2775 3584 3186 3129 
Q 3597 2675 3597 1894 
z
M 3022 2063 
Q 3016 2534 2758 2815 
Q 2500 3097 2075 3097 
Q 1594 3097 1305 2825 
Q 1016 2553 972 2059 
L 3022 2063 
z
" transform="scale(0.015625)"/>
        <path id="DejaVuSans-6e" d="M 3513 2113 
L 3513 0 
L 2938 0 
L 2938 2094 
Q 2938 2591 2744 2837 
Q 2550 3084 2163 3084 
Q 1697 3084 1428 2787 
Q 1159 2491 1159 1978 
L 1159 0 
L 581 0 
L 581 3500 
L 1159 3500 
L 1159 2956 
Q 1366 3272 1645 3428 
Q 1925 3584 2291 3584 
Q 2894 3584 3203 3211 
Q 3513 2838 3513 2113 
z
" transform="scale(0.015625)"/>
        <path id="DejaVuSans-67" d="M 2906 1791 
Q 2906 2416 2648 2759 
Q 2391 3103 1925 3103 
Q 1463 3103 1205 2759 
Q 947 2416 947 1791 
Q 947 1169 1205 825 
Q 1463 481 1925 481 
Q 2391 481 2648 825 
Q 2906 1169 2906 1791 
z
M 3481 434 
Q 3481 -459 3084 -895 
Q 2688 -1331 1869 -1331 
Q 1566 -1331 1297 -1286 
Q 1028 -1241 775 -1147 
L 775 -588 
Q 1028 -725 1275 -790 
Q 1522 -856 1778 -856 
Q 2344 -856 2625 -561 
Q 2906 -266 2906 331 
L 2906 616 
Q 2728 306 2450 153 
Q 2172 0 1784 0 
Q 1141 0 747 490 
Q 353 981 353 1791 
Q 353 2603 747 3093 
Q 1141 3584 1784 3584 
Q 2172 3584 2450 3431 
Q 2728 3278 2906 2969 
L 2906 3500 
L 3481 3500 
L 3481 434 
z
" transform="scale(0.015625)"/>
        <path id="DejaVuSans-68" d="M 3513 2113 
L 3513 0 
L 2938 0 
L 2938 2094 
Q 2938 2591 2744 2837 
Q 2550 3084 2163 3084 
Q 1697 3084 1428 2787 
Q 1159 2491 1159 1978 
L 1159 0 
L 581 0 
L 581 4863 
L 1159 4863 
L 1159 2956 
Q 1366 3272 1645 3428 
Q 1925 3584 2291 3584 
Q 2894 3584 3203 3211 
Q 3513 2838 3513 2113 
z
" transform="scale(0.015625)"/>
       </defs>
       <use xlink:href="#DejaVuSans-53"/>
       <use xlink:href="#DejaVuSans-74" transform="translate(63.476562 0)"/>
       <use xlink:href="#DejaVuSans-72" transform="translate(102.685547 0)"/>
       <use xlink:href="#DejaVuSans-65" transform="translate(141.548828 0)"/>
       <use xlink:href="#DejaVuSans-6e" transform="translate(203.072266 0)"/>
       <use xlink:href="#DejaVuSans-67" transform="translate(266.451172 0)"/>
       <use xlink:href="#DejaVuSans-74" transform="translate(329.927734 0)"/>
       <use xlink:href="#DejaVuSans-68" transform="translate(369.136719 0)"/>
      </g>
     </g>
    </g>
    <g id="xtick_2">
     <g id="line2d_2">
      <path d="M 228.128395 274.26 
L 370.891924 154.467176 
" clip-path="url(#pd8c0be8638)" style="fill: none; stroke: #1a1f2e; stroke-width: 0.8; stroke-linecap: square"/>
     </g>
     <g id="text_2">
      <!-- Consistency -->
      <g style="fill: #888899" transform="translate(355.91932 147.813618) scale(0.085 -0.085)">
       <defs>
        <path id="DejaVuSans-43" d="M 4122 4306 
L 4122 3641 
Q 3803 3938 3442 4084 
Q 3081 4231 2675 4231 
Q 1875 4231 1450 3742 
Q 1025 3253 1025 2328 
Q 1025 1406 1450 917 
Q 1875 428 2675 428 
Q 3081 428 3442 575 
Q 3803 722 4122 1019 
L 4122 359 
Q 3791 134 3420 21 
Q 3050 -91 2638 -91 
Q 1578 -91 968 557 
Q 359 1206 359 2328 
Q 359 3453 968 4101 
Q 1578 4750 2638 4750 
Q 3056 4750 3426 4639 
Q 3797 4528 4122 4306 
z
" transform="scale(0.015625)"/>
        <path id="DejaVuSans-6f" d="M 1959 3097 
Q 1497 3097 1228 2736 
Q 959 2375 959 1747 
Q 959 1119 1226 758 
Q 1494 397 1959 397 
Q 2419 397 2687 759 
Q 2956 1122 2956 1747 
Q 2956 2369 2687 2733 
Q 2419 3097 1959 3097 
z
M 1959 3584 
Q 2709 3584 3137 3096 
Q 3566 2609 3566 1747 
Q 3566 888 3137 398 
Q 2709 -91 1959 -91 
Q 1206 -91 779 398 
Q 353 888 353 1747 
Q 353 2609 779 3096 
Q 1206 3584 1959 3584 
z
" transform="scale(0.015625)"/>
        <path id="DejaVuSans-73" d="M 2834 3397 
L 2834 2853 
Q 2591 2978 2328 3040 
Q 2066 3103 1784 3103 
Q 1356 3103 1142 2972 
Q 928 2841 928 2578 
Q 928 2378 1081 2264 
Q 1234 2150 1697 2047 
L 1894 2003 
Q 2506 1872 2764 1633 
Q 3022 1394 3022 966 
Q 3022 478 2636 193 
Q 2250 -91 1575 -91 
Q 1294 -91 989 -36 
Q 684 19 347 128 
L 347 722 
Q 666 556 975 473 
Q 1284 391 1588 391 
Q 1994 391 2212 530 
Q 2431 669 2431 922 
Q 2431 1156 2273 1281 
Q 2116 1406 1581 1522 
L 1381 1569 
Q 847 1681 609 1914 
Q 372 2147 372 2553 
Q 372 3047 722 3315 
Q 1072 3584 1716 3584 
Q 2034 3584 2315 3537 
Q 2597 3491 2834 3397 
z
" transform="scale(0.015625)"/>
        <path id="DejaVuSans-69" d="M 603 3500 
L 1178 3500 
L 1178 0 
L 603 0 
L 603 3500 
z
M 603 4863 
L 1178 4863 
L 1178 4134 
L 603 4134 
L 603 4863 
z
" transform="scale(0.015625)"/>
        <path id="DejaVuSans-63" d="M 3122 3366 
L 3122 2828 
Q 2878 2963 2633 3030 
Q 2388 3097 2138 3097 
Q 1578 3097 1268 2742 
Q 959 2388 959 1747 
Q 959 1106 1268 751 
Q 1578 397 2138 397 
Q 2388 397 2633 464 
Q 2878 531 3122 666 
L 3122 134 
Q 2881 22 2623 -34 
Q 2366 -91 2075 -91 
Q 1284 -91 818 406 
Q 353 903 353 1747 
Q 353 2603 823 3093 
Q 1294 3584 2113 3584 
Q 2378 3584 2631 3529 
Q 2884 3475 3122 3366 
z
" transform="scale(0.015625)"/>
        <path id="DejaVuSans-79" d="M 2059 -325 
Q 1816 -950 1584 -1140 
Q 1353 -1331 966 -1331 
L 506 -1331 
L 506 -850 
L 844 -850 
Q 1081 -850 1212 -737 
Q 1344 -625 1503 -206 
L 1606 56 
L 191 3500 
L 800 3500 
L 1894 763 
L 2988 3500 
L 3597 3500 
L 2059 -325 
z
" transform="scale(0.015625)"/>
       </defs>
       <use xlink:href="#DejaVuSans-43"/>
       <use xlink:href="#DejaVuSans-6f" transform="translate(69.824219 0)"/>
       <use xlink:href="#DejaVuSans-6e" transform="translate(131.005859 0)"/>
       <use xlink:href="#DejaVuSans-73" transform="translate(194.384766 0)"/>
       <use xlink:href="#DejaVuSans-69" transform="translate(246.484375 0)"/>
       <use xlink:href="#DejaVuSans-73" transform="translate(274.267578 0)"/>
       <use xlink:href="#DejaVuSans-74" transform="translate(326.367188 0)"/>
       <use xlink:href="#DejaVuSans-65" transform="translate(365.576172 0)"/>
       <use xlink:href="#DejaVuSans-6e" transform="translate(427.099609 0)"/>
       <use xlink:href="#DejaVuSans-63" transform="translate(490.478516 0)"/>
       <use xlink:href="#DejaVuSans-79" transform="translate(545.458984 0)"/>
      </g>
     </g>
    </g>
    <g id="xtick_3">
     <g id="line2d_3">
      <path d="M 228.128395 274.26 
L 260.49026 90.726745 
" clip-path="url(#pd8c0be8638)" style="fill: none; stroke: #1a1f2e; stroke-width: 0.8; stroke-linecap: square"/>
     </g>
     <g id="text_3">
      <!-- Specificity -->
      <g style="fill: #888899" transform="translate(241.016569 79.284905) scale(0.085 -0.085)">
       <defs>
        <path id="DejaVuSans-70" d="M 1159 525 
L 1159 -1331 
L 581 -1331 
L 581 3500 
L 1159 3500 
L 1159 2969 
Q 1341 3281 1617 3432 
Q 1894 3584 2278 3584 
Q 2916 3584 3314 3078 
Q 3713 2572 3713 1747 
Q 3713 922 3314 415 
Q 2916 -91 2278 -91 
Q 1894 -91 1617 61 
Q 1341 213 1159 525 
z
M 3116 1747 
Q 3116 2381 2855 2742 
Q 2594 3103 2138 3103 
Q 1681 3103 1420 2742 
Q 1159 2381 1159 1747 
Q 1159 1113 1420 752 
Q 1681 391 2138 391 
Q 2594 391 2855 752 
Q 3116 1113 3116 1747 
z
" transform="scale(0.015625)"/>
        <path id="DejaVuSans-66" d="M 2375 4863 
L 2375 4384 
L 1825 4384 
Q 1516 4384 1395 4259 
Q 1275 4134 1275 3809 
L 1275 3500 
L 2222 3500 
L 2222 3053 
L 1275 3053 
L 1275 0 
L 697 0 
L 697 3053 
L 147 3053 
L 147 3500 
L 697 3500 
L 697 3744 
Q 697 4328 969 4595 
Q 1241 4863 1831 4863 
L 2375 4863 
z
" transform="scale(0.015625)"/>
       </defs>
       <use xlink:href="#DejaVuSans-53"/>
       <use xlink:href="#DejaVuSans-70" transform="translate(63.476562 0)"/>
       <use xlink:href="#DejaVuSans-65" transform="translate(126.953125 0)"/>
       <use xlink:href="#DejaVuSans-63" transform="translate(188.476562 0)"/>
       <use xlink:href="#DejaVuSans-69" transform="translate(243.457031 0)"/>
       <use xlink:href="#DejaVuSans-66" transform="translate(271.240234 0)"/>
       <use xlink:href="#DejaVuSans-69" transform="translate(306.445312 0)"/>
       <use xlink:href="#DejaVuSans-63" transform="translate(334.228516 0)"/>
       <use xlink:href="#DejaVuSans-69" transform="translate(389.208984 0)"/>
       <use xlink:href="#DejaVuSans-74" transform="translate(416.992188 0)"/>
       <use xlink:href="#DejaVuSans-79" transform="translate(456.201172 0)"/>
      </g>
     </g>
    </g>
    <g id="xtick_4">
     <g id="line2d_4">
      <path d="M 228.128395 274.26 
L 134.946119 112.863564 
" clip-path="url(#pd8c0be8638)" style="fill: none; stroke: #1a1f2e; stroke-width: 0.8; stroke-linecap: square"/>
     </g>
     <g id="text_4">
      <!-- Temporality -->
      <g style="fill: #888899" transform="translate(103.124791 103.084677) scale(0.085 -0.085)">
       <defs>
        <path id="DejaVuSans-54" d="M -19 4666 
L 3928 4666 
L 3928 4134 
L 2272 4134 
L 2272 0 
L 1638 0 
L 1638 4134 
L -19 4134 
L -19 4666 
z
" transform="scale(0.015625)"/>
        <path id="DejaVuSans-6d" d="M 3328 2828 
Q 3544 3216 3844 3400 
Q 4144 3584 4550 3584 
Q 5097 3584 5394 3201 
Q 5691 2819 5691 2113 
L 5691 0 
L 5113 0 
L 5113 2094 
Q 5113 2597 4934 2840 
Q 4756 3084 4391 3084 
Q 3944 3084 3684 2787 
Q 3425 2491 3425 1978 
L 3425 0 
L 2847 0 
L 2847 2094 
Q 2847 2600 2669 2842 
Q 2491 3084 2119 3084 
Q 1678 3084 1418 2786 
Q 1159 2488 1159 1978 
L 1159 0 
L 581 0 
L 581 3500 
L 1159 3500 
L 1159 2956 
Q 1356 3278 1631 3431 
Q 1906 3584 2284 3584 
Q 2666 3584 2933 3390 
Q 3200 3197 3328 2828 
z
" transform="scale(0.015625)"/>
        <path id="DejaVuSans-61" d="M 2194 1759 
Q 1497 1759 1228 1600 
Q 959 1441 959 1056 
Q 959 750 1161 570 
Q 1363 391 1709 391 
Q 2188 391 2477 730 
Q 2766 1069 2766 1631 
L 2766 1759 
L 2194 1759 
z
M 3341 1997 
L 3341 0 
L 2766 0 
L 2766 531 
Q 2569 213 2275 61 
Q 1981 -91 1556 -91 
Q 1019 -91 701 211 
Q 384 513 384 1019 
Q 384 1609 779 1909 
Q 1175 2209 1959 2209 
L 2766 2209 
L 2766 2266 
Q 2766 2663 2505 2880 
Q 2244 3097 1772 3097 
Q 1472 3097 1187 3025 
Q 903 2953 641 2809 
L 641 3341 
Q 956 3463 1253 3523 
Q 1550 3584 1831 3584 
Q 2591 3584 2966 3190 
Q 3341 2797 3341 1997 
z
" transform="scale(0.015625)"/>
        <path id="DejaVuSans-6c" d="M 603 4863 
L 1178 4863 
L 1178 0 
L 603 0 
L 603 4863 
z
" transform="scale(0.015625)"/>
       </defs>
       <use xlink:href="#DejaVuSans-54"/>
       <use xlink:href="#DejaVuSans-65" transform="translate(44.083984 0)"/>
       <use xlink:href="#DejaVuSans-6d" transform="translate(105.607422 0)"/>
       <use xlink:href="#DejaVuSans-70" transform="translate(203.019531 0)"/>
       <use xlink:href="#DejaVuSans-6f" transform="translate(266.496094 0)"/>
       <use xlink:href="#DejaVuSans-72" transform="translate(327.677734 0)"/>
       <use xlink:href="#DejaVuSans-61" transform="translate(368.791016 0)"/>
       <use xlink:href="#DejaVuSans-6c" transform="translate(430.070312 0)"/>
       <use xlink:href="#DejaVuSans-69" transform="translate(457.853516 0)"/>
       <use xlink:href="#DejaVuSans-74" transform="translate(485.636719 0)"/>
       <use xlink:href="#DejaVuSans-79" transform="translate(524.845703 0)"/>
      </g>
     </g>
    </g>
    <g id="xtick_5">
     <g id="line2d_5">
      <path d="M 228.128395 274.26 
L 53.003001 210.519569 
" clip-path="url(#pd8c0be8638)" style="fill: none; stroke: #1a1f2e; stroke-width: 0.8; stroke-linecap: square"/>
     </g>
     <g id="text_5">
      <!-- Dose-Response -->
      <g style="fill: #888899" transform="translate(7.2 208.076756) scale(0.085 -0.085)">
       <defs>
        <path id="DejaVuSans-44" d="M 1259 4147 
L 1259 519 
L 2022 519 
Q 2988 519 3436 956 
Q 3884 1394 3884 2338 
Q 3884 3275 3436 3711 
Q 2988 4147 2022 4147 
L 1259 4147 
z
M 628 4666 
L 1925 4666 
Q 3281 4666 3915 4102 
Q 4550 3538 4550 2338 
Q 4550 1131 3912 565 
Q 3275 0 1925 0 
L 628 0 
L 628 4666 
z
" transform="scale(0.015625)"/>
        <path id="DejaVuSans-2d" d="M 313 2009 
L 1997 2009 
L 1997 1497 
L 313 1497 
L 313 2009 
z
" transform="scale(0.015625)"/>
        <path id="DejaVuSans-52" d="M 2841 2188 
Q 3044 2119 3236 1894 
Q 3428 1669 3622 1275 
L 4263 0 
L 3584 0 
L 2988 1197 
Q 2756 1666 2539 1819 
Q 2322 1972 1947 1972 
L 1259 1972 
L 1259 0 
L 628 0 
L 628 4666 
L 2053 4666 
Q 2853 4666 3247 4331 
Q 3641 3997 3641 3322 
Q 3641 2881 3436 2590 
Q 3231 2300 2841 2188 
z
M 1259 4147 
L 1259 2491 
L 2053 2491 
Q 2509 2491 2742 2702 
Q 2975 2913 2975 3322 
Q 2975 3731 2742 3939 
Q 2509 4147 2053 4147 
L 1259 4147 
z
" transform="scale(0.015625)"/>
       </defs>
       <use xlink:href="#DejaVuSans-44"/>
       <use xlink:href="#DejaVuSans-6f" transform="translate(77.001953 0)"/>
       <use xlink:href="#DejaVuSans-73" transform="translate(138.183594 0)"/>
       <use xlink:href="#DejaVuSans-65" transform="translate(190.283203 0)"/>
       <use xlink:href="#DejaVuSans-2d" transform="translate(251.806641 0)"/>
       <use xlink:href="#DejaVuSans-52" transform="translate(287.890625 0)"/>
       <use xlink:href="#DejaVuSans-65" transform="translate(352.873047 0)"/>
       <use xlink:href="#DejaVuSans-73" transform="translate(414.396484 0)"/>
       <use xlink:href="#DejaVuSans-70" transform="translate(466.496094 0)"/>
       <use xlink:href="#DejaVuSans-6f" transform="translate(529.972656 0)"/>
       <use xlink:href="#DejaVuSans-6e" transform="translate(591.154297 0)"/>
       <use xlink:href="#DejaVuSans-73" transform="translate(654.533203 0)"/>
       <use xlink:href="#DejaVuSans-65" transform="translate(706.632812 0)"/>
      </g>
     </g>
    </g>
    <g id="xtick_6">
     <g id="line2d_6">
      <path d="M 228.128395 274.26 
L 53.003001 338.000431 
" clip-path="url(#pd8c0be8638)" style="fill: none; stroke: #1a1f2e; stroke-width: 0.8; stroke-linecap: square"/>
     </g>
     <g id="text_6">
      <!-- Plausibility -->
      <g style="fill: #888899" transform="translate(16.989609 345.134181) scale(0.085 -0.085)">
       <defs>
        <path id="DejaVuSans-50" d="M 1259 4147 
L 1259 2394 
L 2053 2394 
Q 2494 2394 2734 2622 
Q 2975 2850 2975 3272 
Q 2975 3691 2734 3919 
Q 2494 4147 2053 4147 
L 1259 4147 
z
M 628 4666 
L 2053 4666 
Q 2838 4666 3239 4311 
Q 3641 3956 3641 3272 
Q 3641 2581 3239 2228 
Q 2838 1875 2053 1875 
L 1259 1875 
L 1259 0 
L 628 0 
L 628 4666 
z
" transform="scale(0.015625)"/>
        <path id="DejaVuSans-75" d="M 544 1381 
L 544 3500 
L 1119 3500 
L 1119 1403 
Q 1119 906 1312 657 
Q 1506 409 1894 409 
Q 2359 409 2629 706 
Q 2900 1003 2900 1516 
L 2900 3500 
L 3475 3500 
L 3475 0 
L 2900 0 
L 2900 538 
Q 2691 219 2414 64 
Q 2138 -91 1772 -91 
Q 1169 -91 856 284 
Q 544 659 544 1381 
z
M 1991 3584 
L 1991 3584 
z
" transform="scale(0.015625)"/>
        <path id="DejaVuSans-62" d="M 3116 1747 
Q 3116 2381 2855 2742 
Q 2594 3103 2138 3103 
Q 1681 3103 1420 2742 
Q 1159 2381 1159 1747 
Q 1159 1113 1420 752 
Q 1681 391 2138 391 
Q 2594 391 2855 752 
Q 3116 1113 3116 1747 
z
M 1159 2969 
Q 1341 3281 1617 3432 
Q 1894 3584 2278 3584 
Q 2916 3584 3314 3078 
Q 3713 2572 3713 1747 
Q 3713 922 3314 415 
Q 2916 -91 2278 -91 
Q 1894 -91 1617 61 
Q 1341 213 1159 525 
L 1159 0 
L 581 0 
L 581 4863 
L 1159 4863 
L 1159 2969 
z
" transform="scale(0.015625)"/>
       </defs>
       <use xlink:href="#DejaVuSans-50"/>
       <use xlink:href="#DejaVuSans-6c" transform="translate(60.302734 0)"/>
       <use xlink:href="#DejaVuSans-61" transform="translate(88.085938 0)"/>
       <use xlink:href="#DejaVuSans-75" transform="translate(149.365234 0)"/>
       <use xlink:href="#DejaVuSans-73" transform="translate(212.744141 0)"/>
       <use xlink:href="#DejaVuSans-69" transform="translate(264.84375 0)"/>
       <use xlink:href="#DejaVuSans-62" transform="translate(292.626953 0)"/>
       <use xlink:href="#DejaVuSans-69" transform="translate(356.103516 0)"/>
       <use xlink:href="#DejaVuSans-6c" transform="translate(383.886719 0)"/>
       <use xlink:href="#DejaVuSans-69" transform="translate(411.669922 0)"/>
       <use xlink:href="#DejaVuSans-74" transform="translate(439.453125 0)"/>
       <use xlink:href="#DejaVuSans-79" transform="translate(478.662109 0)"/>
      </g>
     </g>
    </g>
    <g id="xtick_7">
     <g id="line2d_7">
      <path d="M 228.128395 274.26 
L 134.946119 435.656436 
" clip-path="url(#pd8c0be8638)" style="fill: none; stroke: #1a1f2e; stroke-width: 0.8; stroke-linecap: square"/>
     </g>
     <g id="text_7">
      <!-- Coherence -->
      <g style="fill: #888899" transform="translate(105.157487 450.12626) scale(0.085 -0.085)">
       <use xlink:href="#DejaVuSans-43"/>
       <use xlink:href="#DejaVuSans-6f" transform="translate(69.824219 0)"/>
       <use xlink:href="#DejaVuSans-68" transform="translate(131.005859 0)"/>
       <use xlink:href="#DejaVuSans-65" transform="translate(194.384766 0)"/>
       <use xlink:href="#DejaVuSans-72" transform="translate(255.908203 0)"/>
       <use xlink:href="#DejaVuSans-65" transform="translate(294.771484 0)"/>
       <use xlink:href="#DejaVuSans-6e" transform="translate(356.294922 0)"/>
       <use xlink:href="#DejaVuSans-63" transform="translate(419.673828 0)"/>
       <use xlink:href="#DejaVuSans-65" transform="translate(474.654297 0)"/>
      </g>
     </g>
    </g>
    <g id="xtick_8">
     <g id="line2d_8">
      <path d="M 228.128395 274.26 
L 260.49026 457.793255 
" clip-path="url(#pd8c0be8638)" style="fill: none; stroke: #1a1f2e; stroke-width: 0.8; stroke-linecap: square"/>
     </g>
     <g id="text_8">
      <!-- Experiment -->
      <g style="fill: #888899" transform="translate(238.364967 473.926032) scale(0.085 -0.085)">
       <defs>
        <path id="DejaVuSans-45" d="M 628 4666 
L 3578 4666 
L 3578 4134 
L 1259 4134 
L 1259 2753 
L 3481 2753 
L 3481 2222 
L 1259 2222 
L 1259 531 
L 3634 531 
L 3634 0 
L 628 0 
L 628 4666 
z
" transform="scale(0.015625)"/>
        <path id="DejaVuSans-78" d="M 3513 3500 
L 2247 1797 
L 3578 0 
L 2900 0 
L 1881 1375 
L 863 0 
L 184 0 
L 1544 1831 
L 300 3500 
L 978 3500 
L 1906 2253 
L 2834 3500 
L 3513 3500 
z
" transform="scale(0.015625)"/>
       </defs>
       <use xlink:href="#DejaVuSans-45"/>
       <use xlink:href="#DejaVuSans-78" transform="translate(63.183594 0)"/>
       <use xlink:href="#DejaVuSans-70" transform="translate(122.363281 0)"/>
       <use xlink:href="#DejaVuSans-65" transform="translate(185.839844 0)"/>
       <use xlink:href="#DejaVuSans-72" transform="translate(247.363281 0)"/>
       <use xlink:href="#DejaVuSans-69" transform="translate(288.476562 0)"/>
       <use xlink:href="#DejaVuSans-6d" transform="translate(316.259766 0)"/>
       <use xlink:href="#DejaVuSans-65" transform="translate(413.671875 0)"/>
       <use xlink:href="#DejaVuSans-6e" transform="translate(475.195312 0)"/>
       <use xlink:href="#DejaVuSans-74" transform="translate(538.574219 0)"/>
      </g>
     </g>
    </g>
    <g id="xtick_9">
     <g id="line2d_9">
      <path d="M 228.128395 274.26 
L 370.891924 394.052824 
" clip-path="url(#pd8c0be8638)" style="fill: none; stroke: #1a1f2e; stroke-width: 0.8; stroke-linecap: square"/>
     </g>
     <g id="text_9">
      <!-- Analogy -->
      <g style="fill: #888899" transform="translate(364.416663 405.39732) scale(0.085 -0.085)">
       <defs>
        <path id="DejaVuSans-41" d="M 2188 4044 
L 1331 1722 
L 3047 1722 
L 2188 4044 
z
M 1831 4666 
L 2547 4666 
L 4325 0 
L 3669 0 
L 3244 1197 
L 1141 1197 
L 716 0 
L 50 0 
L 1831 4666 
z
" transform="scale(0.015625)"/>
       </defs>
       <use xlink:href="#DejaVuSans-41"/>
       <use xlink:href="#DejaVuSans-6e" transform="translate(68.408203 0)"/>
       <use xlink:href="#DejaVuSans-61" transform="translate(131.787109 0)"/>
       <use xlink:href="#DejaVuSans-6c" transform="translate(193.066406 0)"/>
       <use xlink:href="#DejaVuSans-6f" transform="translate(220.849609 0)"/>
       <use xlink:href="#DejaVuSans-67" transform="translate(282.03125 0)"/>
       <use xlink:href="#DejaVuSans-79" transform="translate(345.507812 0)"/>
      </g>
     </g>
    </g>
   </g>
   <g id="matplotlib.axis_2">
    <g id="ytick_1">
     <g id="line2d_10">
      <path d="M 286.367317 274.26 
C 286.367317 266.612135 284.860855 259.038635 281.934143 251.972929 
C 279.007432 244.907223 274.717389 238.48672 269.309532 233.078863 
C 263.901675 227.671006 257.481172 223.380963 250.415466 220.454252 
C 243.34976 217.52754 235.77626 216.021078 228.128395 216.021078 
C 220.48053 216.021078 212.90703 217.52754 205.841324 220.454252 
C 198.775618 223.380963 192.355115 227.671006 186.947258 233.078863 
C 181.539401 238.48672 177.249358 244.907223 174.322647 251.972929 
C 171.395935 259.038635 169.889473 266.612135 169.889473 274.26 
C 169.889473 281.907865 171.395935 289.481365 174.322647 296.547071 
C 177.249358 303.612777 181.539401 310.03328 186.947258 315.441137 
C 192.355115 320.848994 198.775618 325.139037 205.841324 328.065748 
C 212.90703 330.99246 220.48053 332.498922 228.128395 332.498922 
C 235.77626 332.498922 243.34976 330.99246 250.415466 328.065748 
C 257.481172 325.139037 263.901675 320.848994 269.309532 315.441137 
C 274.717389 310.03328 279.007432 303.612777 281.934143 296.547071 
C 284.860855 289.481365 286.367317 281.907865 286.367317 274.26 
" clip-path="url(#pd8c0be8638)" style="fill: none; stroke: #1a1f2e; stroke-width: 0.8; stroke-linecap: square"/>
     </g>
     <g id="text_10">
      <!-- 1 -->
      <g style="fill: #888899" transform="translate(281.934143 250.517148) scale(0.07 -0.07)">
       <defs>
        <path id="DejaVuSans-31" d="M 794 531 
L 1825 531 
L 1825 4091 
L 703 3866 
L 703 4441 
L 1819 4666 
L 2450 4666 
L 2450 531 
L 3481 531 
L 3481 0 
L 794 0 
L 794 531 
z
" transform="scale(0.015625)"/>
       </defs>
       <use xlink:href="#DejaVuSans-31"/>
      </g>
     </g>
    </g>
    <g id="ytick_2">
     <g id="line2d_11">
      <path d="M 344.60624 274.26 
C 344.60624 258.96427 341.593314 243.817271 335.739892 229.685859 
C 329.886469 215.554446 321.306383 202.713441 310.490669 191.897726 
C 299.674954 181.082012 286.833949 172.501926 272.702536 166.648503 
C 258.571124 160.795081 243.424125 157.782155 228.128395 157.782155 
C 212.832665 157.782155 197.685666 160.795081 183.554254 166.648503 
C 169.422841 172.501926 156.581836 181.082012 145.766121 191.897726 
C 134.950407 202.713441 126.370321 215.554446 120.516898 229.685859 
C 114.663476 243.817271 111.65055 258.96427 111.65055 274.26 
C 111.65055 289.55573 114.663476 304.702729 120.516898 318.834141 
C 126.370321 332.965554 134.950407 345.806559 145.766121 356.622274 
C 156.581836 367.437988 169.422841 376.018074 183.554254 381.871497 
C 197.685666 387.724919 212.832665 390.737845 228.128395 390.737845 
C 243.424125 390.737845 258.571124 387.724919 272.702536 381.871497 
C 286.833949 376.018074 299.674954 367.437988 310.490669 356.622274 
C 321.306383 345.806559 329.886469 332.965554 335.739892 318.834141 
C 341.593314 304.702729 344.60624 289.55573 344.60624 274.26 
" clip-path="url(#pd8c0be8638)" style="fill: none; stroke: #1a1f2e; stroke-width: 0.8; stroke-linecap: square"/>
     </g>
     <g id="text_11">
      <!-- 2 -->
      <g style="fill: #888899" transform="translate(335.739892 228.230077) scale(0.07 -0.07)">
       <defs>
        <path id="DejaVuSans-32" d="M 1228 531 
L 3431 531 
L 3431 0 
L 469 0 
L 469 531 
Q 828 903 1448 1529 
Q 2069 2156 2228 2338 
Q 2531 2678 2651 2914 
Q 2772 3150 2772 3378 
Q 2772 3750 2511 3984 
Q 2250 4219 1831 4219 
Q 1534 4219 1204 4116 
Q 875 4013 500 3803 
L 500 4441 
Q 881 4594 1212 4672 
Q 1544 4750 1819 4750 
Q 2544 4750 2975 4387 
Q 3406 4025 3406 3419 
Q 3406 3131 3298 2873 
Q 3191 2616 2906 2266 
Q 2828 2175 2409 1742 
Q 1991 1309 1228 531 
z
" transform="scale(0.015625)"/>
       </defs>
       <use xlink:href="#DejaVuSans-32"/>
      </g>
     </g>
    </g>
    <g id="ytick_3">
     <g id="line2d_12">
      <path d="M 402.845162 274.26 
C 402.845162 251.316404 398.325774 228.595906 389.54564 207.398788 
C 380.765506 186.20167 367.895378 166.940161 351.671806 150.716589 
C 335.448234 134.493017 316.186725 121.622889 294.989607 112.842755 
C 273.792489 104.062621 251.071991 99.543233 228.128395 99.543233 
C 205.184799 99.543233 182.464301 104.062621 161.267183 112.842755 
C 140.070065 121.622889 120.808556 134.493017 104.584984 150.716589 
C 88.361412 166.940161 75.491284 186.20167 66.71115 207.398788 
C 57.931016 228.595906 53.411628 251.316404 53.411628 274.26 
C 53.411628 297.203596 57.931016 319.924094 66.71115 341.121212 
C 75.491284 362.31833 88.361412 381.579839 104.584984 397.803411 
C 120.808556 414.026983 140.070065 426.897111 161.267183 435.677245 
C 182.464301 444.457379 205.184799 448.976767 228.128395 448.976767 
C 251.071991 448.976767 273.792489 444.457379 294.989607 435.677245 
C 316.186725 426.897111 335.448234 414.026983 351.671806 397.803411 
C 367.895378 381.579839 380.765506 362.31833 389.54564 341.121212 
C 398.325774 319.924094 402.845162 297.203596 402.845162 274.26 
" clip-path="url(#pd8c0be8638)" style="fill: none; stroke: #1a1f2e; stroke-width: 0.8; stroke-linecap: square"/>
     </g>
     <g id="text_12">
      <!-- 3 -->
      <g style="fill: #888899" transform="translate(389.54564 205.943007) scale(0.07 -0.07)">
       <defs>
        <path id="DejaVuSans-33" d="M 2597 2516 
Q 3050 2419 3304 2112 
Q 3559 1806 3559 1356 
Q 3559 666 3084 287 
Q 2609 -91 1734 -91 
Q 1441 -91 1130 -33 
Q 819 25 488 141 
L 488 750 
Q 750 597 1062 519 
Q 1375 441 1716 441 
Q 2309 441 2620 675 
Q 2931 909 2931 1356 
Q 2931 1769 2642 2001 
Q 2353 2234 1838 2234 
L 1294 2234 
L 1294 2753 
L 1863 2753 
Q 2328 2753 2575 2939 
Q 2822 3125 2822 3475 
Q 2822 3834 2567 4026 
Q 2313 4219 1838 4219 
Q 1578 4219 1281 4162 
Q 984 4106 628 3988 
L 628 4550 
Q 988 4650 1302 4700 
Q 1616 4750 1894 4750 
Q 2613 4750 3031 4423 
Q 3450 4097 3450 3541 
Q 3450 3153 3228 2886 
Q 3006 2619 2597 2516 
z
" transform="scale(0.015625)"/>
       </defs>
       <use xlink:href="#DejaVuSans-33"/>
      </g>
     </g>
    </g>
   </g>
   <g id="line2d_13">
    <path d="M 286.367317 274.26 
L 272.741998 236.824742 
L 238.241478 216.905858 
L 199.008934 223.823614 
L 173.40171 254.341115 
L 173.40171 294.178885 
L 199.008934 324.696386 
L 238.241478 331.614142 
L 272.741998 311.695258 
L 286.367317 274.26 
" clip-path="url(#pd8c0be8638)" style="fill: none; stroke-dasharray: 2.59,1.12; stroke-dashoffset: 0; stroke: #333344; stroke-opacity: 0.6; stroke-width: 0.7"/>
   </g>
   <g id="line2d_14">
    <path d="M 344.60624 274.26 
L 317.355601 199.389485 
L 248.35456 159.551716 
L 169.889473 173.387228 
L 118.675024 234.422231 
L 118.675024 314.097769 
L 169.889473 375.132772 
L 248.35456 388.968284 
L 317.355601 349.130515 
L 344.60624 274.26 
" clip-path="url(#pd8c0be8638)" style="fill: none; stroke-dasharray: 2.59,1.12; stroke-dashoffset: 0; stroke: #333344; stroke-opacity: 0.6; stroke-width: 0.7"/>
   </g>
   <g id="line2d_15">
    <path d="M 402.845162 274.26 
L 361.969203 161.954227 
L 258.467643 102.197573 
L 140.770012 122.950841 
L 63.948338 214.503346 
L 63.948338 334.016654 
L 140.770012 425.569159 
L 258.467643 446.322427 
L 361.969203 386.565773 
L 402.845162 274.26 
" clip-path="url(#pd8c0be8638)" style="fill: none; stroke-dasharray: 2.59,1.12; stroke-dashoffset: 0; stroke: #333344; stroke-opacity: 0.6; stroke-width: 0.7"/>
   </g>
   <g id="line2d_16">
    <path d="M 402.845162 274.26 
L 361.969203 161.954227 
L 258.467643 102.197573 
L 169.889473 173.387228 
L 63.948338 214.503346 
L 63.948338 334.016654 
L 140.770012 425.569159 
L 248.35456 388.968284 
L 317.355601 349.130515 
L 402.845162 274.26 
" clip-path="url(#pd8c0be8638)" style="fill: none; stroke: #ffaa22; stroke-width: 2.5; stroke-linecap: square"/>
   </g>
   <g id="patch_4">
    <path d="M 414.492946 274.26 
C 414.492946 249.786831 409.672266 225.551633 400.30679 202.941374 
C 390.941313 180.331114 377.213177 159.785506 359.908033 142.480362 
C 342.60289 125.175218 322.057281 111.447082 299.447021 102.081605 
C 276.836762 92.716129 252.601564 87.895449 228.128395 87.895449 
C 203.655226 87.895449 179.420028 92.716129 156.809769 102.081605 
C 134.199509 111.447082 113.653901 125.175218 96.348757 142.480362 
C 79.043614 159.785506 65.315477 180.331114 55.95 202.941374 
C 46.584524 225.551633 41.763844 249.786831 41.763844 274.26 
C 41.763844 298.733169 46.584524 322.968367 55.95 345.578626 
C 65.315477 368.188886 79.043614 388.734494 96.348757 406.039638 
C 113.653901 423.344782 134.199509 437.072918 156.809769 446.438395 
C 179.420028 455.803871 203.655226 460.624551 228.128395 460.624551 
C 252.601564 460.624551 276.836762 455.803871 299.447021 446.438395 
C 322.057281 437.072918 342.60289 423.344782 359.908033 406.039638 
C 377.213177 388.734494 390.941313 368.188886 400.30679 345.578626 
C 409.672266 322.968367 414.492946 298.733169 414.492946 274.26 
" style="fill: none; stroke: #333344; stroke-width: 0.8; stroke-linejoin: miter; stroke-linecap: square"/>
   </g>
   <g id="text_13">
    <!-- 24/27 -->
    <g style="fill: #ffaa22" transform="translate(427.397237 278.123125) scale(0.14 -0.14)">
     <defs>
      <path id="DejaVuSans-Bold-32" d="M 1844 884 
L 3897 884 
L 3897 0 
L 506 0 
L 506 884 
L 2209 2388 
Q 2438 2594 2547 2791 
Q 2656 2988 2656 3200 
Q 2656 3528 2436 3728 
Q 2216 3928 1850 3928 
Q 1569 3928 1234 3808 
Q 900 3688 519 3450 
L 519 4475 
Q 925 4609 1322 4679 
Q 1719 4750 2100 4750 
Q 2938 4750 3402 4381 
Q 3866 4013 3866 3353 
Q 3866 2972 3669 2642 
Q 3472 2313 2841 1759 
L 1844 884 
z
" transform="scale(0.015625)"/>
      <path id="DejaVuSans-Bold-34" d="M 2356 3675 
L 1038 1722 
L 2356 1722 
L 2356 3675 
z
M 2156 4666 
L 3494 4666 
L 3494 1722 
L 4159 1722 
L 4159 850 
L 3494 850 
L 3494 0 
L 2356 0 
L 2356 850 
L 288 850 
L 288 1881 
L 2156 4666 
z
" transform="scale(0.015625)"/>
      <path id="DejaVuSans-Bold-2f" d="M 1644 4666 
L 2338 4666 
L 691 -594 
L 0 -594 
L 1644 4666 
z
" transform="scale(0.015625)"/>
      <path id="DejaVuSans-Bold-37" d="M 428 4666 
L 3944 4666 
L 3944 3988 
L 2125 0 
L 953 0 
L 2675 3781 
L 428 3781 
L 428 4666 
z
" transform="scale(0.015625)"/>
     </defs>
     <use xlink:href="#DejaVuSans-Bold-32"/>
     <use xlink:href="#DejaVuSans-Bold-34" transform="translate(69.580078 0)"/>
     <use xlink:href="#DejaVuSans-Bold-2f" transform="translate(139.160156 0)"/>
     <use xlink:href="#DejaVuSans-Bold-32" transform="translate(175.683594 0)"/>
     <use xlink:href="#DejaVuSans-Bold-37" transform="translate(245.263672 0)"/>
    </g>
   </g>
   <g id="text_14">
    <!-- THRML causal scorecard -->
    <g style="fill: #ccccdd" transform="translate(161.034411 57.826233) scale(0.11 -0.11)">
     <defs>
      <path id="DejaVuSans-48" d="M 628 4666 
L 1259 4666 
L 1259 2753 
L 3553 2753 
L 3553 4666 
L 4184 4666 
L 4184 0 
L 3553 0 
L 3553 2222 
L 1259 2222 
L 1259 0 
L 628 0 
L 628 4666 
z
" transform="scale(0.015625)"/>
      <path id="DejaVuSans-4d" d="M 628 4666 
L 1569 4666 
L 2759 1491 
L 3956 4666 
L 4897 4666 
L 4897 0 
L 4281 0 
L 4281 4097 
L 3078 897 
L 2444 897 
L 1241 4097 
L 1241 0 
L 628 0 
L 628 4666 
z
" transform="scale(0.015625)"/>
      <path id="DejaVuSans-4c" d="M 628 4666 
L 1259 4666 
L 1259 531 
L 3531 531 
L 3531 0 
L 628 0 
L 628 4666 
z
" transform="scale(0.015625)"/>
      <path id="DejaVuSans-20" transform="scale(0.015625)"/>
      <path id="DejaVuSans-64" d="M 2906 2969 
L 2906 4863 
L 3481 4863 
L 3481 0 
L 2906 0 
L 2906 525 
Q 2725 213 2448 61 
Q 2172 -91 1784 -91 
Q 1150 -91 751 415 
Q 353 922 353 1747 
Q 353 2572 751 3078 
Q 1150 3584 1784 3584 
Q 2172 3584 2448 3432 
Q 2725 3281 2906 2969 
z
M 947 1747 
Q 947 1113 1208 752 
Q 1469 391 1925 391 
Q 2381 391 2643 752 
Q 2906 1113 2906 1747 
Q 2906 2381 2643 2742 
Q 2381 3103 1925 3103 
Q 1469 3103 1208 2742 
Q 947 2381 947 1747 
z
" transform="scale(0.015625)"/>
     </defs>
     <use xlink:href="#DejaVuSans-54"/>
     <use xlink:href="#DejaVuSans-48" transform="translate(61.083984 0)"/>
     <use xlink:href="#DejaVuSans-52" transform="translate(136.279297 0)"/>
     <use xlink:href="#DejaVuSans-4d" transform="translate(205.761719 0)"/>
     <use xlink:href="#DejaVuSans-4c" transform="translate(292.041016 0)"/>
     <use xlink:href="#DejaVuSans-20" transform="translate(347.753906 0)"/>
     <use xlink:href="#DejaVuSans-63" transform="translate(379.541016 0)"/>
     <use xlink:href="#DejaVuSans-61" transform="translate(434.521484 0)"/>
     <use xlink:href="#DejaVuSans-75" transform="translate(495.800781 0)"/>
     <use xlink:href="#DejaVuSans-73" transform="translate(559.179688 0)"/>
     <use xlink:href="#DejaVuSans-61" transform="translate(611.279297 0)"/>
     <use xlink:href="#DejaVuSans-6c" transform="translate(672.558594 0)"/>
     <use xlink:href="#DejaVuSans-20" transform="translate(700.341797 0)"/>
     <use xlink:href="#DejaVuSans-73" transform="translate(732.128906 0)"/>
     <use xlink:href="#DejaVuSans-63" transform="translate(784.228516 0)"/>
     <use xlink:href="#DejaVuSans-6f" transform="translate(839.208984 0)"/>
     <use xlink:href="#DejaVuSans-72" transform="translate(900.390625 0)"/>
     <use xlink:href="#DejaVuSans-65" transform="translate(939.253906 0)"/>
     <use xlink:href="#DejaVuSans-63" transform="translate(1000.777344 0)"/>
     <use xlink:href="#DejaVuSans-61" transform="translate(1055.757812 0)"/>
     <use xlink:href="#DejaVuSans-72" transform="translate(1117.037109 0)"/>
     <use xlink:href="#DejaVuSans-64" transform="translate(1156.400391 0)"/>
    </g>
   </g>
   <g id="PathCollection_1">
    <defs>
     <path id="mfc05b0afd9" d="M 0 4.1833 
C 1.109424 4.1833 2.173559 3.742521 2.95804 2.95804 
C 3.742521 2.173559 4.1833 1.109424 4.1833 0 
C 4.1833 -1.109424 3.742521 -2.173559 2.95804 -2.95804 
C 2.173559 -3.742521 1.109424 -4.1833 0 -4.1833 
C -1.109424 -4.1833 -2.173559 -3.742521 -2.95804 -2.95804 
C -3.742521 -2.173559 -4.1833 -1.109424 -4.1833 0 
C -4.1833 1.109424 -3.742521 2.173559 -2.95804 2.95804 
C -2.173559 3.742521 -1.109424 4.1833 0 4.1833 
z
" style="stroke: #ffffff; stroke-width: 0.8"/>
    </defs>
    <g clip-path="url(#pd8c0be8638)">
     <use xlink:href="#mfc05b0afd9" x="402.845162" y="274.26" style="fill: #ffaa22; stroke: #ffffff; stroke-width: 0.8"/>
     <use xlink:href="#mfc05b0afd9" x="361.969203" y="161.954227" style="fill: #ffaa22; stroke: #ffffff; stroke-width: 0.8"/>
     <use xlink:href="#mfc05b0afd9" x="258.467643" y="102.197573" style="fill: #ffaa22; stroke: #ffffff; stroke-width: 0.8"/>
     <use xlink:href="#mfc05b0afd9" x="169.889473" y="173.387228" style="fill: #ffaa22; stroke: #ffffff; stroke-width: 0.8"/>
     <use xlink:href="#mfc05b0afd9" x="63.948338" y="214.503346" style="fill: #ffaa22; stroke: #ffffff; stroke-width: 0.8"/>
     <use xlink:href="#mfc05b0afd9" x="63.948338" y="334.016654" style="fill: #ffaa22; stroke: #ffffff; stroke-width: 0.8"/>
     <use xlink:href="#mfc05b0afd9" x="140.770012" y="425.569159" style="fill: #ffaa22; stroke: #ffffff; stroke-width: 0.8"/>
     <use xlink:href="#mfc05b0afd9" x="248.35456" y="388.968284" style="fill: #ffaa22; stroke: #ffffff; stroke-width: 0.8"/>
     <use xlink:href="#mfc05b0afd9" x="317.355601" y="349.130515" style="fill: #ffaa22; stroke: #ffffff; stroke-width: 0.8"/>
    </g>
   </g>
  </g>
  <g id="axes_2">
   <g id="patch_5">
    <path d="M 913.115446 274.26 
C 913.115446 249.786831 908.294766 225.551633 898.92929 202.941374 
C 889.563813 180.331114 875.835677 159.785506 858.530533 142.480362 
C 841.22539 125.175218 820.679781 111.447082 798.069521 102.081605 
C 775.459262 92.716129 751.224064 87.895449 726.750895 87.895449 
C 702.277726 87.895449 678.042528 92.716129 655.432269 102.081605 
C 632.822009 111.447082 612.276401 125.175218 594.971257 142.480362 
C 577.666114 159.785506 563.937977 180.331114 554.5725 202.941374 
C 545.207024 225.551633 540.386344 249.786831 540.386344 274.26 
C 540.386344 298.733169 545.207024 322.968367 554.5725 345.578626 
C 563.937977 368.188886 577.666114 388.734494 594.971257 406.039638 
C 612.276401 423.344782 632.822009 437.072918 655.432269 446.438395 
C 678.042528 455.803871 702.277726 460.624551 726.750895 460.624551 
C 751.224064 460.624551 775.459262 455.803871 798.069521 446.438395 
C 820.679781 437.072918 841.22539 423.344782 858.530533 406.039638 
C 875.835677 388.734494 889.563813 368.188886 898.92929 345.578626 
C 908.294766 322.968367 913.115446 298.733169 913.115446 274.26 
M 726.750895 274.26 
C 726.750895 274.26 726.750895 274.26 726.750895 274.26 
C 726.750895 274.26 726.750895 274.26 726.750895 274.26 
C 726.750895 274.26 726.750895 274.26 726.750895 274.26 
C 726.750895 274.26 726.750895 274.26 726.750895 274.26 
C 726.750895 274.26 726.750895 274.26 726.750895 274.26 
C 726.750895 274.26 726.750895 274.26 726.750895 274.26 
C 726.750895 274.26 726.750895 274.26 726.750895 274.26 
C 726.750895 274.26 726.750895 274.26 726.750895 274.26 
C 726.750895 274.26 726.750895 274.26 726.750895 274.26 
C 726.750895 274.26 726.750895 274.26 726.750895 274.26 
C 726.750895 274.26 726.750895 274.26 726.750895 274.26 
C 726.750895 274.26 726.750895 274.26 726.750895 274.26 
C 726.750895 274.26 726.750895 274.26 726.750895 274.26 
C 726.750895 274.26 726.750895 274.26 726.750895 274.26 
C 726.750895 274.26 726.750895 274.26 726.750895 274.26 
C 726.750895 274.26 726.750895 274.26 726.750895 274.26 
z
" style="fill: #060810"/>
   </g>
   <g id="patch_6">
    <path d="M 901.467662 274.26 
L 860.591703 161.954227 
L 746.97706 159.551716 
L 639.392512 122.950841 
L 617.297524 234.422231 
L 562.570838 334.016654 
L 639.392512 425.569159 
L 746.97706 388.968284 
L 815.978101 349.130515 
z
" clip-path="url(#peef98cf8ec)" style="fill: #6699ff; opacity: 0.22; stroke: #6699ff; stroke-linejoin: miter"/>
   </g>
   <g id="matplotlib.axis_3">
    <g id="xtick_10">
     <g id="line2d_17">
      <path d="M 726.750895 274.26 
L 913.115446 274.26 
" clip-path="url(#peef98cf8ec)" style="fill: none; stroke: #1a1f2e; stroke-width: 0.8; stroke-linecap: square"/>
     </g>
     <g id="text_15">
      <!-- Strength -->
      <g style="fill: #888899" transform="translate(908.733532 276.605469) scale(0.085 -0.085)">
       <use xlink:href="#DejaVuSans-53"/>
       <use xlink:href="#DejaVuSans-74" transform="translate(63.476562 0)"/>
       <use xlink:href="#DejaVuSans-72" transform="translate(102.685547 0)"/>
       <use xlink:href="#DejaVuSans-65" transform="translate(141.548828 0)"/>
       <use xlink:href="#DejaVuSans-6e" transform="translate(203.072266 0)"/>
       <use xlink:href="#DejaVuSans-67" transform="translate(266.451172 0)"/>
       <use xlink:href="#DejaVuSans-74" transform="translate(329.927734 0)"/>
       <use xlink:href="#DejaVuSans-68" transform="translate(369.136719 0)"/>
      </g>
     </g>
    </g>
    <g id="xtick_11">
     <g id="line2d_18">
      <path d="M 726.750895 274.26 
L 869.514424 154.467176 
" clip-path="url(#peef98cf8ec)" style="fill: none; stroke: #1a1f2e; stroke-width: 0.8; stroke-linecap: square"/>
     </g>
     <g id="text_16">
      <!-- Consistency -->
      <g style="fill: #888899" transform="translate(854.54182 147.813618) scale(0.085 -0.085)">
       <use xlink:href="#DejaVuSans-43"/>
       <use xlink:href="#DejaVuSans-6f" transform="translate(69.824219 0)"/>
       <use xlink:href="#DejaVuSans-6e" transform="translate(131.005859 0)"/>
       <use xlink:href="#DejaVuSans-73" transform="translate(194.384766 0)"/>
       <use xlink:href="#DejaVuSans-69" transform="translate(246.484375 0)"/>
       <use xlink:href="#DejaVuSans-73" transform="translate(274.267578 0)"/>
       <use xlink:href="#DejaVuSans-74" transform="translate(326.367188 0)"/>
       <use xlink:href="#DejaVuSans-65" transform="translate(365.576172 0)"/>
       <use xlink:href="#DejaVuSans-6e" transform="translate(427.099609 0)"/>
       <use xlink:href="#DejaVuSans-63" transform="translate(490.478516 0)"/>
       <use xlink:href="#DejaVuSans-79" transform="translate(545.458984 0)"/>
      </g>
     </g>
    </g>
    <g id="xtick_12">
     <g id="line2d_19">
      <path d="M 726.750895 274.26 
L 759.11276 90.726745 
" clip-path="url(#peef98cf8ec)" style="fill: none; stroke: #1a1f2e; stroke-width: 0.8; stroke-linecap: square"/>
     </g>
     <g id="text_17">
      <!-- Specificity -->
      <g style="fill: #888899" transform="translate(739.639069 79.284905) scale(0.085 -0.085)">
       <use xlink:href="#DejaVuSans-53"/>
       <use xlink:href="#DejaVuSans-70" transform="translate(63.476562 0)"/>
       <use xlink:href="#DejaVuSans-65" transform="translate(126.953125 0)"/>
       <use xlink:href="#DejaVuSans-63" transform="translate(188.476562 0)"/>
       <use xlink:href="#DejaVuSans-69" transform="translate(243.457031 0)"/>
       <use xlink:href="#DejaVuSans-66" transform="translate(271.240234 0)"/>
       <use xlink:href="#DejaVuSans-69" transform="translate(306.445312 0)"/>
       <use xlink:href="#DejaVuSans-63" transform="translate(334.228516 0)"/>
       <use xlink:href="#DejaVuSans-69" transform="translate(389.208984 0)"/>
       <use xlink:href="#DejaVuSans-74" transform="translate(416.992188 0)"/>
       <use xlink:href="#DejaVuSans-79" transform="translate(456.201172 0)"/>
      </g>
     </g>
    </g>
    <g id="xtick_13">
     <g id="line2d_20">
      <path d="M 726.750895 274.26 
L 633.568619 112.863564 
" clip-path="url(#peef98cf8ec)" style="fill: none; stroke: #1a1f2e; stroke-width: 0.8; stroke-linecap: square"/>
     </g>
     <g id="text_18">
      <!-- Temporality -->
      <g style="fill: #888899" transform="translate(601.747291 103.084677) scale(0.085 -0.085)">
       <use xlink:href="#DejaVuSans-54"/>
       <use xlink:href="#DejaVuSans-65" transform="translate(44.083984 0)"/>
       <use xlink:href="#DejaVuSans-6d" transform="translate(105.607422 0)"/>
       <use xlink:href="#DejaVuSans-70" transform="translate(203.019531 0)"/>
       <use xlink:href="#DejaVuSans-6f" transform="translate(266.496094 0)"/>
       <use xlink:href="#DejaVuSans-72" transform="translate(327.677734 0)"/>
       <use xlink:href="#DejaVuSans-61" transform="translate(368.791016 0)"/>
       <use xlink:href="#DejaVuSans-6c" transform="translate(430.070312 0)"/>
       <use xlink:href="#DejaVuSans-69" transform="translate(457.853516 0)"/>
       <use xlink:href="#DejaVuSans-74" transform="translate(485.636719 0)"/>
       <use xlink:href="#DejaVuSans-79" transform="translate(524.845703 0)"/>
      </g>
     </g>
    </g>
    <g id="xtick_14">
     <g id="line2d_21">
      <path d="M 726.750895 274.26 
L 551.625501 210.519569 
" clip-path="url(#peef98cf8ec)" style="fill: none; stroke: #1a1f2e; stroke-width: 0.8; stroke-linecap: square"/>
     </g>
     <g id="text_19">
      <!-- Dose-Response -->
      <g style="fill: #888899" transform="translate(505.8225 208.076756) scale(0.085 -0.085)">
       <use xlink:href="#DejaVuSans-44"/>
       <use xlink:href="#DejaVuSans-6f" transform="translate(77.001953 0)"/>
       <use xlink:href="#DejaVuSans-73" transform="translate(138.183594 0)"/>
       <use xlink:href="#DejaVuSans-65" transform="translate(190.283203 0)"/>
       <use xlink:href="#DejaVuSans-2d" transform="translate(251.806641 0)"/>
       <use xlink:href="#DejaVuSans-52" transform="translate(287.890625 0)"/>
       <use xlink:href="#DejaVuSans-65" transform="translate(352.873047 0)"/>
       <use xlink:href="#DejaVuSans-73" transform="translate(414.396484 0)"/>
       <use xlink:href="#DejaVuSans-70" transform="translate(466.496094 0)"/>
       <use xlink:href="#DejaVuSans-6f" transform="translate(529.972656 0)"/>
       <use xlink:href="#DejaVuSans-6e" transform="translate(591.154297 0)"/>
       <use xlink:href="#DejaVuSans-73" transform="translate(654.533203 0)"/>
       <use xlink:href="#DejaVuSans-65" transform="translate(706.632812 0)"/>
      </g>
     </g>
    </g>
    <g id="xtick_15">
     <g id="line2d_22">
      <path d="M 726.750895 274.26 
L 551.625501 338.000431 
" clip-path="url(#peef98cf8ec)" style="fill: none; stroke: #1a1f2e; stroke-width: 0.8; stroke-linecap: square"/>
     </g>
     <g id="text_20">
      <!-- Plausibility -->
      <g style="fill: #888899" transform="translate(515.612109 345.134181) scale(0.085 -0.085)">
       <use xlink:href="#DejaVuSans-50"/>
       <use xlink:href="#DejaVuSans-6c" transform="translate(60.302734 0)"/>
       <use xlink:href="#DejaVuSans-61" transform="translate(88.085938 0)"/>
       <use xlink:href="#DejaVuSans-75" transform="translate(149.365234 0)"/>
       <use xlink:href="#DejaVuSans-73" transform="translate(212.744141 0)"/>
       <use xlink:href="#DejaVuSans-69" transform="translate(264.84375 0)"/>
       <use xlink:href="#DejaVuSans-62" transform="translate(292.626953 0)"/>
       <use xlink:href="#DejaVuSans-69" transform="translate(356.103516 0)"/>
       <use xlink:href="#DejaVuSans-6c" transform="translate(383.886719 0)"/>
       <use xlink:href="#DejaVuSans-69" transform="translate(411.669922 0)"/>
       <use xlink:href="#DejaVuSans-74" transform="translate(439.453125 0)"/>
       <use xlink:href="#DejaVuSans-79" transform="translate(478.662109 0)"/>
      </g>
     </g>
    </g>
    <g id="xtick_16">
     <g id="line2d_23">
      <path d="M 726.750895 274.26 
L 633.568619 435.656436 
" clip-path="url(#peef98cf8ec)" style="fill: none; stroke: #1a1f2e; stroke-width: 0.8; stroke-linecap: square"/>
     </g>
     <g id="text_21">
      <!-- Coherence -->
      <g style="fill: #888899" transform="translate(603.779987 450.12626) scale(0.085 -0.085)">
       <use xlink:href="#DejaVuSans-43"/>
       <use xlink:href="#DejaVuSans-6f" transform="translate(69.824219 0)"/>
       <use xlink:href="#DejaVuSans-68" transform="translate(131.005859 0)"/>
       <use xlink:href="#DejaVuSans-65" transform="translate(194.384766 0)"/>
       <use xlink:href="#DejaVuSans-72" transform="translate(255.908203 0)"/>
       <use xlink:href="#DejaVuSans-65" transform="translate(294.771484 0)"/>
       <use xlink:href="#DejaVuSans-6e" transform="translate(356.294922 0)"/>
       <use xlink:href="#DejaVuSans-63" transform="translate(419.673828 0)"/>
       <use xlink:href="#DejaVuSans-65" transform="translate(474.654297 0)"/>
      </g>
     </g>
    </g>
    <g id="xtick_17">
     <g id="line2d_24">
      <path d="M 726.750895 274.26 
L 759.11276 457.793255 
" clip-path="url(#peef98cf8ec)" style="fill: none; stroke: #1a1f2e; stroke-width: 0.8; stroke-linecap: square"/>
     </g>
     <g id="text_22">
      <!-- Experiment -->
      <g style="fill: #888899" transform="translate(736.987467 473.926032) scale(0.085 -0.085)">
       <use xlink:href="#DejaVuSans-45"/>
       <use xlink:href="#DejaVuSans-78" transform="translate(63.183594 0)"/>
       <use xlink:href="#DejaVuSans-70" transform="translate(122.363281 0)"/>
       <use xlink:href="#DejaVuSans-65" transform="translate(185.839844 0)"/>
       <use xlink:href="#DejaVuSans-72" transform="translate(247.363281 0)"/>
       <use xlink:href="#DejaVuSans-69" transform="translate(288.476562 0)"/>
       <use xlink:href="#DejaVuSans-6d" transform="translate(316.259766 0)"/>
       <use xlink:href="#DejaVuSans-65" transform="translate(413.671875 0)"/>
       <use xlink:href="#DejaVuSans-6e" transform="translate(475.195312 0)"/>
       <use xlink:href="#DejaVuSans-74" transform="translate(538.574219 0)"/>
      </g>
     </g>
    </g>
    <g id="xtick_18">
     <g id="line2d_25">
      <path d="M 726.750895 274.26 
L 869.514424 394.052824 
" clip-path="url(#peef98cf8ec)" style="fill: none; stroke: #1a1f2e; stroke-width: 0.8; stroke-linecap: square"/>
     </g>
     <g id="text_23">
      <!-- Analogy -->
      <g style="fill: #888899" transform="translate(863.039163 405.39732) scale(0.085 -0.085)">
       <use xlink:href="#DejaVuSans-41"/>
       <use xlink:href="#DejaVuSans-6e" transform="translate(68.408203 0)"/>
       <use xlink:href="#DejaVuSans-61" transform="translate(131.787109 0)"/>
       <use xlink:href="#DejaVuSans-6c" transform="translate(193.066406 0)"/>
       <use xlink:href="#DejaVuSans-6f" transform="translate(220.849609 0)"/>
       <use xlink:href="#DejaVuSans-67" transform="translate(282.03125 0)"/>
       <use xlink:href="#DejaVuSans-79" transform="translate(345.507812 0)"/>
      </g>
     </g>
    </g>
   </g>
   <g id="matplotlib.axis_4">
    <g id="ytick_4">
     <g id="line2d_26">
      <path d="M 784.989817 274.26 
C 784.989817 266.612135 783.483355 259.038635 780.556643 251.972929 
C 777.629932 244.907223 773.339889 238.48672 767.932032 233.078863 
C 762.524175 227.671006 756.103672 223.380963 749.037966 220.454252 
C 741.97226 217.52754 734.39876 216.021078 726.750895 216.021078 
C 719.10303 216.021078 711.52953 217.52754 704.463824 220.454252 
C 697.398118 223.380963 690.977615 227.671006 685.569758 233.078863 
C 680.161901 238.48672 675.871858 244.907223 672.945147 251.972929 
C 670.018435 259.038635 668.511973 266.612135 668.511973 274.26 
C 668.511973 281.907865 670.018435 289.481365 672.945147 296.547071 
C 675.871858 303.612777 680.161901 310.03328 685.569758 315.441137 
C 690.977615 320.848994 697.398118 325.139037 704.463824 328.065748 
C 711.52953 330.99246 719.10303 332.498922 726.750895 332.498922 
C 734.39876 332.498922 741.97226 330.99246 749.037966 328.065748 
C 756.103672 325.139037 762.524175 320.848994 767.932032 315.441137 
C 773.339889 310.03328 777.629932 303.612777 780.556643 296.547071 
C 783.483355 289.481365 784.989817 281.907865 784.989817 274.26 
" clip-path="url(#peef98cf8ec)" style="fill: none; stroke: #1a1f2e; stroke-width: 0.8; stroke-linecap: square"/>
     </g>
     <g id="text_24">
      <!-- 1 -->
      <g style="fill: #888899" transform="translate(780.556643 250.517148) scale(0.07 -0.07)">
       <use xlink:href="#DejaVuSans-31"/>
      </g>
     </g>
    </g>
    <g id="ytick_5">
     <g id="line2d_27">
      <path d="M 843.22874 274.26 
C 843.22874 258.96427 840.215814 243.817271 834.362392 229.685859 
C 828.508969 215.554446 819.928883 202.713441 809.113169 191.897726 
C 798.297454 181.082012 785.456449 172.501926 771.325036 166.648503 
C 757.193624 160.795081 742.046625 157.782155 726.750895 157.782155 
C 711.455165 157.782155 696.308166 160.795081 682.176754 166.648503 
C 668.045341 172.501926 655.204336 181.082012 644.388621 191.897726 
C 633.572907 202.713441 624.992821 215.554446 619.139398 229.685859 
C 613.285976 243.817271 610.27305 258.96427 610.27305 274.26 
C 610.27305 289.55573 613.285976 304.702729 619.139398 318.834141 
C 624.992821 332.965554 633.572907 345.806559 644.388621 356.622274 
C 655.204336 367.437988 668.045341 376.018074 682.176754 381.871497 
C 696.308166 387.724919 711.455165 390.737845 726.750895 390.737845 
C 742.046625 390.737845 757.193624 387.724919 771.325036 381.871497 
C 785.456449 376.018074 798.297454 367.437988 809.113169 356.622274 
C 819.928883 345.806559 828.508969 332.965554 834.362392 318.834141 
C 840.215814 304.702729 843.22874 289.55573 843.22874 274.26 
" clip-path="url(#peef98cf8ec)" style="fill: none; stroke: #1a1f2e; stroke-width: 0.8; stroke-linecap: square"/>
     </g>
     <g id="text_25">
      <!-- 2 -->
      <g style="fill: #888899" transform="translate(834.362392 228.230077) scale(0.07 -0.07)">
       <use xlink:href="#DejaVuSans-32"/>
      </g>
     </g>
    </g>
    <g id="ytick_6">
     <g id="line2d_28">
      <path d="M 901.467662 274.26 
C 901.467662 251.316404 896.948274 228.595906 888.16814 207.398788 
C 879.388006 186.20167 866.517878 166.940161 850.294306 150.716589 
C 834.070734 134.493017 814.809225 121.622889 793.612107 112.842755 
C 772.414989 104.062621 749.694491 99.543233 726.750895 99.543233 
C 703.807299 99.543233 681.086801 104.062621 659.889683 112.842755 
C 638.692565 121.622889 619.431056 134.493017 603.207484 150.716589 
C 586.983912 166.940161 574.113784 186.20167 565.33365 207.398788 
C 556.553516 228.595906 552.034128 251.316404 552.034128 274.26 
C 552.034128 297.203596 556.553516 319.924094 565.33365 341.121212 
C 574.113784 362.31833 586.983912 381.579839 603.207484 397.803411 
C 619.431056 414.026983 638.692565 426.897111 659.889683 435.677245 
C 681.086801 444.457379 703.807299 448.976767 726.750895 448.976767 
C 749.694491 448.976767 772.414989 444.457379 793.612107 435.677245 
C 814.809225 426.897111 834.070734 414.026983 850.294306 397.803411 
C 866.517878 381.579839 879.388006 362.31833 888.16814 341.121212 
C 896.948274 319.924094 901.467662 297.203596 901.467662 274.26 
" clip-path="url(#peef98cf8ec)" style="fill: none; stroke: #1a1f2e; stroke-width: 0.8; stroke-linecap: square"/>
     </g>
     <g id="text_26">
      <!-- 3 -->
      <g style="fill: #888899" transform="translate(888.16814 205.943007) scale(0.07 -0.07)">
       <use xlink:href="#DejaVuSans-33"/>
      </g>
     </g>
    </g>
   </g>
   <g id="line2d_29">
    <path d="M 784.989817 274.26 
L 771.364498 236.824742 
L 736.863978 216.905858 
L 697.631434 223.823614 
L 672.02421 254.341115 
L 672.02421 294.178885 
L 697.631434 324.696386 
L 736.863978 331.614142 
L 771.364498 311.695258 
L 784.989817 274.26 
" clip-path="url(#peef98cf8ec)" style="fill: none; stroke-dasharray: 2.59,1.12; stroke-dashoffset: 0; stroke: #333344; stroke-opacity: 0.6; stroke-width: 0.7"/>
   </g>
   <g id="line2d_30">
    <path d="M 843.22874 274.26 
L 815.978101 199.389485 
L 746.97706 159.551716 
L 668.511973 173.387228 
L 617.297524 234.422231 
L 617.297524 314.097769 
L 668.511973 375.132772 
L 746.97706 388.968284 
L 815.978101 349.130515 
L 843.22874 274.26 
" clip-path="url(#peef98cf8ec)" style="fill: none; stroke-dasharray: 2.59,1.12; stroke-dashoffset: 0; stroke: #333344; stroke-opacity: 0.6; stroke-width: 0.7"/>
   </g>
   <g id="line2d_31">
    <path d="M 901.467662 274.26 
L 860.591703 161.954227 
L 757.090143 102.197573 
L 639.392512 122.950841 
L 562.570838 214.503346 
L 562.570838 334.016654 
L 639.392512 425.569159 
L 757.090143 446.322427 
L 860.591703 386.565773 
L 901.467662 274.26 
" clip-path="url(#peef98cf8ec)" style="fill: none; stroke-dasharray: 2.59,1.12; stroke-dashoffset: 0; stroke: #333344; stroke-opacity: 0.6; stroke-width: 0.7"/>
   </g>
   <g id="line2d_32">
    <path d="M 901.467662 274.26 
L 860.591703 161.954227 
L 746.97706 159.551716 
L 639.392512 122.950841 
L 617.297524 234.422231 
L 562.570838 334.016654 
L 639.392512 425.569159 
L 746.97706 388.968284 
L 815.978101 349.130515 
L 901.467662 274.26 
" clip-path="url(#peef98cf8ec)" style="fill: none; stroke: #6699ff; stroke-width: 2.5; stroke-linecap: square"/>
   </g>
   <g id="patch_7">
    <path d="M 913.115446 274.26 
C 913.115446 249.786831 908.294766 225.551633 898.92929 202.941374 
C 889.563813 180.331114 875.835677 159.785506 858.530533 142.480362 
C 841.22539 125.175218 820.679781 111.447082 798.069521 102.081605 
C 775.459262 92.716129 751.224064 87.895449 726.750895 87.895449 
C 702.277726 87.895449 678.042528 92.716129 655.432269 102.081605 
C 632.822009 111.447082 612.276401 125.175218 594.971257 142.480362 
C 577.666114 159.785506 563.937977 180.331114 554.5725 202.941374 
C 545.207024 225.551633 540.386344 249.786831 540.386344 274.26 
C 540.386344 298.733169 545.207024 322.968367 554.5725 345.578626 
C 563.937977 368.188886 577.666114 388.734494 594.971257 406.039638 
C 612.276401 423.344782 632.822009 437.072918 655.432269 446.438395 
C 678.042528 455.803871 702.277726 460.624551 726.750895 460.624551 
C 751.224064 460.624551 775.459262 455.803871 798.069521 446.438395 
C 820.679781 437.072918 841.22539 423.344782 858.530533 406.039638 
C 875.835677 388.734494 889.563813 368.188886 898.92929 345.578626 
C 908.294766 322.968367 913.115446 298.733169 913.115446 274.26 
" style="fill: none; stroke: #333344; stroke-width: 0.8; stroke-linejoin: miter; stroke-linecap: square"/>
   </g>
   <g id="text_27">
    <!-- 23/27 -->
    <g style="fill: #6699ff" transform="translate(926.019737 278.123125) scale(0.14 -0.14)">
     <defs>
      <path id="DejaVuSans-Bold-33" d="M 2981 2516 
Q 3453 2394 3698 2092 
Q 3944 1791 3944 1325 
Q 3944 631 3412 270 
Q 2881 -91 1863 -91 
Q 1503 -91 1142 -33 
Q 781 25 428 141 
L 428 1069 
Q 766 900 1098 814 
Q 1431 728 1753 728 
Q 2231 728 2486 893 
Q 2741 1059 2741 1369 
Q 2741 1688 2480 1852 
Q 2219 2016 1709 2016 
L 1228 2016 
L 1228 2791 
L 1734 2791 
Q 2188 2791 2409 2933 
Q 2631 3075 2631 3366 
Q 2631 3634 2415 3781 
Q 2200 3928 1806 3928 
Q 1516 3928 1219 3862 
Q 922 3797 628 3669 
L 628 4550 
Q 984 4650 1334 4700 
Q 1684 4750 2022 4750 
Q 2931 4750 3382 4451 
Q 3834 4153 3834 3553 
Q 3834 3144 3618 2883 
Q 3403 2622 2981 2516 
z
" transform="scale(0.015625)"/>
     </defs>
     <use xlink:href="#DejaVuSans-Bold-32"/>
     <use xlink:href="#DejaVuSans-Bold-33" transform="translate(69.580078 0)"/>
     <use xlink:href="#DejaVuSans-Bold-2f" transform="translate(139.160156 0)"/>
     <use xlink:href="#DejaVuSans-Bold-32" transform="translate(175.683594 0)"/>
     <use xlink:href="#DejaVuSans-Bold-37" transform="translate(245.263672 0)"/>
    </g>
   </g>
   <g id="text_28">
    <!-- Comparison: smokingcancer -->
    <g style="fill: #ccccdd" transform="translate(643.783395 57.826233) scale(0.11 -0.11)">
     <defs>
      <path id="DejaVuSans-3a" d="M 750 794 
L 1409 794 
L 1409 0 
L 750 0 
L 750 794 
z
M 750 3309 
L 1409 3309 
L 1409 2516 
L 750 2516 
L 750 3309 
z
" transform="scale(0.015625)"/>
      <path id="DejaVuSans-6b" d="M 581 4863 
L 1159 4863 
L 1159 1991 
L 2875 3500 
L 3609 3500 
L 1753 1863 
L 3688 0 
L 2938 0 
L 1159 1709 
L 1159 0 
L 581 0 
L 581 4863 
z
" transform="scale(0.015625)"/>
      <path id="DejaVuSans-2192" d="M 5050 2147 
L 5050 1866 
L 3822 638 
L 3447 1013 
L 4175 1741 
L 366 1741 
L 366 2272 
L 4175 2272 
L 3447 3000 
L 3822 3375 
L 5050 2147 
z
" transform="scale(0.015625)"/>
     </defs>
     <use xlink:href="#DejaVuSans-43"/>
     <use xlink:href="#DejaVuSans-6f" transform="translate(69.824219 0)"/>
     <use xlink:href="#DejaVuSans-6d" transform="translate(131.005859 0)"/>
     <use xlink:href="#DejaVuSans-70" transform="translate(228.417969 0)"/>
     <use xlink:href="#DejaVuSans-61" transform="translate(291.894531 0)"/>
     <use xlink:href="#DejaVuSans-72" transform="translate(353.173828 0)"/>
     <use xlink:href="#DejaVuSans-69" transform="translate(394.287109 0)"/>
     <use xlink:href="#DejaVuSans-73" transform="translate(422.070312 0)"/>
     <use xlink:href="#DejaVuSans-6f" transform="translate(474.169922 0)"/>
     <use xlink:href="#DejaVuSans-6e" transform="translate(535.351562 0)"/>
     <use xlink:href="#DejaVuSans-3a" transform="translate(598.730469 0)"/>
     <use xlink:href="#DejaVuSans-20" transform="translate(632.421875 0)"/>
     <use xlink:href="#DejaVuSans-73" transform="translate(664.208984 0)"/>
     <use xlink:href="#DejaVuSans-6d" transform="translate(716.308594 0)"/>
     <use xlink:href="#DejaVuSans-6f" transform="translate(813.720703 0)"/>
     <use xlink:href="#DejaVuSans-6b" transform="translate(874.902344 0)"/>
     <use xlink:href="#DejaVuSans-69" transform="translate(932.8125 0)"/>
     <use xlink:href="#DejaVuSans-6e" transform="translate(960.595703 0)"/>
     <use xlink:href="#DejaVuSans-67" transform="translate(1023.974609 0)"/>
     <use xlink:href="#DejaVuSans-2192" transform="translate(1087.451172 0)"/>
     <use xlink:href="#DejaVuSans-63" transform="translate(1171.240234 0)"/>
     <use xlink:href="#DejaVuSans-61" transform="translate(1226.220703 0)"/>
     <use xlink:href="#DejaVuSans-6e" transform="translate(1287.5 0)"/>
     <use xlink:href="#DejaVuSans-63" transform="translate(1350.878906 0)"/>
     <use xlink:href="#DejaVuSans-65" transform="translate(1405.859375 0)"/>
     <use xlink:href="#DejaVuSans-72" transform="translate(1467.382812 0)"/>
    </g>
   </g>
   <g id="PathCollection_2">
    <defs>
     <path id="m12a4e23128" d="M 0 4.1833 
C 1.109424 4.1833 2.173559 3.742521 2.95804 2.95804 
C 3.742521 2.173559 4.1833 1.109424 4.1833 0 
C 4.1833 -1.109424 3.742521 -2.173559 2.95804 -2.95804 
C 2.173559 -3.742521 1.109424 -4.1833 0 -4.1833 
C -1.109424 -4.1833 -2.173559 -3.742521 -2.95804 -2.95804 
C -3.742521 -2.173559 -4.1833 -1.109424 -4.1833 0 
C -4.1833 1.109424 -3.742521 2.173559 -2.95804 2.95804 
C -2.173559 3.742521 -1.109424 4.1833 0 4.1833 
z
" style="stroke: #ffffff; stroke-width: 0.8"/>
    </defs>
    <g clip-path="url(#peef98cf8ec)">
     <use xlink:href="#m12a4e23128" x="901.467662" y="274.26" style="fill: #6699ff; stroke: #ffffff; stroke-width: 0.8"/>
     <use xlink:href="#m12a4e23128" x="860.591703" y="161.954227" style="fill: #6699ff; stroke: #ffffff; stroke-width: 0.8"/>
     <use xlink:href="#m12a4e23128" x="746.97706" y="159.551716" style="fill: #6699ff; stroke: #ffffff; stroke-width: 0.8"/>
     <use xlink:href="#m12a4e23128" x="639.392512" y="122.950841" style="fill: #6699ff; stroke: #ffffff; stroke-width: 0.8"/>
     <use xlink:href="#m12a4e23128" x="617.297524" y="234.422231" style="fill: #6699ff; stroke: #ffffff; stroke-width: 0.8"/>
     <use xlink:href="#m12a4e23128" x="562.570838" y="334.016654" style="fill: #6699ff; stroke: #ffffff; stroke-width: 0.8"/>
     <use xlink:href="#m12a4e23128" x="639.392512" y="425.569159" style="fill: #6699ff; stroke: #ffffff; stroke-width: 0.8"/>
     <use xlink:href="#m12a4e23128" x="746.97706" y="388.968284" style="fill: #6699ff; stroke: #ffffff; stroke-width: 0.8"/>
     <use xlink:href="#m12a4e23128" x="815.978101" y="349.130515" style="fill: #6699ff; stroke: #ffffff; stroke-width: 0.8"/>
    </g>
   </g>
  </g>
  <g id="text_29">
   <!-- Bradford Hill Causal Criteria  THRML vs smokingcancer reference -->
   <g style="fill: #ccccdd" transform="translate(281.665959 16.318125) scale(0.12 -0.12)">
    <defs>
     <path id="DejaVuSans-42" d="M 1259 2228 
L 1259 519 
L 2272 519 
Q 2781 519 3026 730 
Q 3272 941 3272 1375 
Q 3272 1813 3026 2020 
Q 2781 2228 2272 2228 
L 1259 2228 
z
M 1259 4147 
L 1259 2741 
L 2194 2741 
Q 2656 2741 2882 2914 
Q 3109 3088 3109 3444 
Q 3109 3797 2882 3972 
Q 2656 4147 2194 4147 
L 1259 4147 
z
M 628 4666 
L 2241 4666 
Q 2963 4666 3353 4366 
Q 3744 4066 3744 3513 
Q 3744 3084 3544 2831 
Q 3344 2578 2956 2516 
Q 3422 2416 3680 2098 
Q 3938 1781 3938 1306 
Q 3938 681 3513 340 
Q 3088 0 2303 0 
L 628 0 
L 628 4666 
z
" transform="scale(0.015625)"/>
     <path id="DejaVuSans-2014" d="M 313 1978 
L 6088 1978 
L 6088 1528 
L 313 1528 
L 313 1978 
z
" transform="scale(0.015625)"/>
     <path id="DejaVuSans-76" d="M 191 3500 
L 800 3500 
L 1894 563 
L 2988 3500 
L 3597 3500 
L 2284 0 
L 1503 0 
L 191 3500 
z
" transform="scale(0.015625)"/>
    </defs>
    <use xlink:href="#DejaVuSans-42"/>
    <use xlink:href="#DejaVuSans-72" transform="translate(68.603516 0)"/>
    <use xlink:href="#DejaVuSans-61" transform="translate(109.716797 0)"/>
    <use xlink:href="#DejaVuSans-64" transform="translate(170.996094 0)"/>
    <use xlink:href="#DejaVuSans-66" transform="translate(234.472656 0)"/>
    <use xlink:href="#DejaVuSans-6f" transform="translate(269.677734 0)"/>
    <use xlink:href="#DejaVuSans-72" transform="translate(330.859375 0)"/>
    <use xlink:href="#DejaVuSans-64" transform="translate(370.222656 0)"/>
    <use xlink:href="#DejaVuSans-20" transform="translate(433.699219 0)"/>
    <use xlink:href="#DejaVuSans-48" transform="translate(465.486328 0)"/>
    <use xlink:href="#DejaVuSans-69" transform="translate(540.681641 0)"/>
    <use xlink:href="#DejaVuSans-6c" transform="translate(568.464844 0)"/>
    <use xlink:href="#DejaVuSans-6c" transform="translate(596.248047 0)"/>
    <use xlink:href="#DejaVuSans-20" transform="translate(624.03125 0)"/>
    <use xlink:href="#DejaVuSans-43" transform="translate(655.818359 0)"/>
    <use xlink:href="#DejaVuSans-61" transform="translate(725.642578 0)"/>
    <use xlink:href="#DejaVuSans-75" transform="translate(786.921875 0)"/>
    <use xlink:href="#DejaVuSans-73" transform="translate(850.300781 0)"/>
    <use xlink:href="#DejaVuSans-61" transform="translate(902.400391 0)"/>
    <use xlink:href="#DejaVuSans-6c" transform="translate(963.679688 0)"/>
    <use xlink:href="#DejaVuSans-20" transform="translate(991.462891 0)"/>
    <use xlink:href="#DejaVuSans-43" transform="translate(1023.25 0)"/>
    <use xlink:href="#DejaVuSans-72" transform="translate(1093.074219 0)"/>
    <use xlink:href="#DejaVuSans-69" transform="translate(1134.1875 0)"/>
    <use xlink:href="#DejaVuSans-74" transform="translate(1161.970703 0)"/>
    <use xlink:href="#DejaVuSans-65" transform="translate(1201.179688 0)"/>
    <use xlink:href="#DejaVuSans-72" transform="translate(1262.703125 0)"/>
    <use xlink:href="#DejaVuSans-69" transform="translate(1303.816406 0)"/>
    <use xlink:href="#DejaVuSans-61" transform="translate(1331.599609 0)"/>
    <use xlink:href="#DejaVuSans-20" transform="translate(1392.878906 0)"/>
    <use xlink:href="#DejaVuSans-2014" transform="translate(1424.666016 0)"/>
    <use xlink:href="#DejaVuSans-20" transform="translate(1524.666016 0)"/>
    <use xlink:href="#DejaVuSans-54" transform="translate(1556.453125 0)"/>
    <use xlink:href="#DejaVuSans-48" transform="translate(1617.537109 0)"/>
    <use xlink:href="#DejaVuSans-52" transform="translate(1692.732422 0)"/>
    <use xlink:href="#DejaVuSans-4d" transform="translate(1762.214844 0)"/>
    <use xlink:href="#DejaVuSans-4c" transform="translate(1848.494141 0)"/>
    <use xlink:href="#DejaVuSans-20" transform="translate(1904.207031 0)"/>
    <use xlink:href="#DejaVuSans-76" transform="translate(1935.994141 0)"/>
    <use xlink:href="#DejaVuSans-73" transform="translate(1995.173828 0)"/>
    <use xlink:href="#DejaVuSans-20" transform="translate(2047.273438 0)"/>
    <use xlink:href="#DejaVuSans-73" transform="translate(2079.060547 0)"/>
    <use xlink:href="#DejaVuSans-6d" transform="translate(2131.160156 0)"/>
    <use xlink:href="#DejaVuSans-6f" transform="translate(2228.572266 0)"/>
    <use xlink:href="#DejaVuSans-6b" transform="translate(2289.753906 0)"/>
    <use xlink:href="#DejaVuSans-69" transform="translate(2347.664062 0)"/>
    <use xlink:href="#DejaVuSans-6e" transform="translate(2375.447266 0)"/>
    <use xlink:href="#DejaVuSans-67" transform="translate(2438.826172 0)"/>
    <use xlink:href="#DejaVuSans-2192" transform="translate(2502.302734 0)"/>
    <use xlink:href="#DejaVuSans-63" transform="translate(2586.091797 0)"/>
    <use xlink:href="#DejaVuSans-61" transform="translate(2641.072266 0)"/>
    <use xlink:href="#DejaVuSans-6e" transform="translate(2702.351562 0)"/>
    <use xlink:href="#DejaVuSans-63" transform="translate(2765.730469 0)"/>
    <use xlink:href="#DejaVuSans-65" transform="translate(2820.710938 0)"/>
    <use xlink:href="#DejaVuSans-72" transform="translate(2882.234375 0)"/>
    <use xlink:href="#DejaVuSans-20" transform="translate(2923.347656 0)"/>
    <use xlink:href="#DejaVuSans-72" transform="translate(2955.134766 0)"/>
    <use xlink:href="#DejaVuSans-65" transform="translate(2993.998047 0)"/>
    <use xlink:href="#DejaVuSans-66" transform="translate(3055.521484 0)"/>
    <use xlink:href="#DejaVuSans-65" transform="translate(3090.726562 0)"/>
    <use xlink:href="#DejaVuSans-72" transform="translate(3152.25 0)"/>
    <use xlink:href="#DejaVuSans-65" transform="translate(3191.113281 0)"/>
    <use xlink:href="#DejaVuSans-6e" transform="translate(3252.636719 0)"/>
    <use xlink:href="#DejaVuSans-63" transform="translate(3316.015625 0)"/>
    <use xlink:href="#DejaVuSans-65" transform="translate(3370.996094 0)"/>
   </g>
  </g>
 </g>
 <defs>
  <clipPath id="pd8c0be8638">
   <path d="M 414.492946 274.26 
C 414.492946 249.786831 409.672266 225.551633 400.30679 202.941374 
C 390.941313 180.331114 377.213177 159.785506 359.908033 142.480362 
C 342.60289 125.175218 322.057281 111.447082 299.447021 102.081605 
C 276.836762 92.716129 252.601564 87.895449 228.128395 87.895449 
C 203.655226 87.895449 179.420028 92.716129 156.809769 102.081605 
C 134.199509 111.447082 113.653901 125.175218 96.348757 142.480362 
C 79.043614 159.785506 65.315477 180.331114 55.95 202.941374 
C 46.584524 225.551633 41.763844 249.786831 41.763844 274.26 
C 41.763844 298.733169 46.584524 322.968367 55.95 345.578626 
C 65.315477 368.188886 79.043614 388.734494 96.348757 406.039638 
C 113.653901 423.344782 134.199509 437.072918 156.809769 446.438395 
C 179.420028 455.803871 203.655226 460.624551 228.128395 460.624551 
C 252.601564 460.624551 276.836762 455.803871 299.447021 446.438395 
C 322.057281 437.072918 342.60289 423.344782 359.908033 406.039638 
C 377.213177 388.734494 390.941313 368.188886 400.30679 345.578626 
C 409.672266 322.968367 414.492946 298.733169 414.492946 274.26 
M 228.128395 274.26 
C 228.128395 274.26 228.128395 274.26 228.128395 274.26 
C 228.128395 274.26 228.128395 274.26 228.128395 274.26 
C 228.128395 274.26 228.128395 274.26 228.128395 274.26 
C 228.128395 274.26 228.128395 274.26 228.128395 274.26 
C 228.128395 274.26 228.128395 274.26 228.128395 274.26 
C 228.128395 274.26 228.128395 274.26 228.128395 274.26 
C 228.128395 274.26 228.128395 274.26 228.128395 274.26 
C 228.128395 274.26 228.128395 274.26 228.128395 274.26 
C 228.128395 274.26 228.128395 274.26 228.128395 274.26 
C 228.128395 274.26 228.128395 274.26 228.128395 274.26 
C 228.128395 274.26 228.128395 274.26 228.128395 274.26 
C 228.128395 274.26 228.128395 274.26 228.128395 274.26 
C 228.128395 274.26 228.128395 274.26 228.128395 274.26 
C 228.128395 274.26 228.128395 274.26 228.128395 274.26 
C 228.128395 274.26 228.128395 274.26 228.128395 274.26 
C 228.128395 274.26 228.128395 274.26 228.128395 274.26 
z
"/>
  </clipPath>
  <clipPath id="peef98cf8ec">
   <path d="M 913.115446 274.26 
C 913.115446 249.786831 908.294766 225.551633 898.92929 202.941374 
C 889.563813 180.331114 875.835677 159.785506 858.530533 142.480362 
C 841.22539 125.175218 820.679781 111.447082 798.069521 102.081605 
C 775.459262 92.716129 751.224064 87.895449 726.750895 87.895449 
C 702.277726 87.895449 678.042528 92.716129 655.432269 102.081605 
C 632.822009 111.447082 612.276401 125.175218 594.971257 142.480362 
C 577.666114 159.785506 563.937977 180.331114 554.5725 202.941374 
C 545.207024 225.551633 540.386344 249.786831 540.386344 274.26 
C 540.386344 298.733169 545.207024 322.968367 554.5725 345.578626 
C 563.937977 368.188886 577.666114 388.734494 594.971257 406.039638 
C 612.276401 423.344782 632.822009 437.072918 655.432269 446.438395 
C 678.042528 455.803871 702.277726 460.624551 726.750895 460.624551 
C 751.224064 460.624551 775.459262 455.803871 798.069521 446.438395 
C 820.679781 437.072918 841.22539 423.344782 858.530533 406.039638 
C 875.835677 388.734494 889.563813 368.188886 898.92929 345.578626 
C 908.294766 322.968367 913.115446 298.733169 913.115446 274.26 
M 726.750895 274.26 
C 726.750895 274.26 726.750895 274.26 726.750895 274.26 
C 726.750895 274.26 726.750895 274.26 726.750895 274.26 
C 726.750895 274.26 726.750895 274.26 726.750895 274.26 
C 726.750895 274.26 726.750895 274.26 726.750895 274.26 
C 726.750895 274.26 726.750895 274.26 726.750895 274.26 
C 726.750895 274.26 726.750895 274.26 726.750895 274.26 
C 726.750895 274.26 726.750895 274.26 726.750895 274.26 
C 726.750895 274.26 726.750895 274.26 726.750895 274.26 
C 726.750895 274.26 726.750895 274.26 726.750895 274.26 
C 726.750895 274.26 726.750895 274.26 726.750895 274.26 
C 726.750895 274.26 726.750895 274.26 726.750895 274.26 
C 726.750895 274.26 726.750895 274.26 726.750895 274.26 
C 726.750895 274.26 726.750895 274.26 726.750895 274.26 
C 726.750895 274.26 726.750895 274.26 726.750895 274.26 
C 726.750895 274.26 726.750895 274.26 726.750895 274.26 
C 726.750895 274.26 726.750895 274.26 726.750895 274.26 
z
"/>
  </clipPath>
 </defs>
</svg>
