<?xml version="1.0" encoding="utf-8" standalone="no"?>
<!DOCTYPE svg PUBLIC "-//W3C//DTD SVG 1.1//EN"
  "http://www.w3.org/Graphics/SVG/1.1/DTD/svg11.dtd">
<svg xmlns:xlink="http://www.w3.org/1999/xlink" width="928.680938pt" height="351.031938pt" viewBox="0 0 928.680938 351.031938" xmlns="http://www.w3.org/2000/svg" version="1.1">
 <metadata>
  <rdf:RDF xmlns:dc="http://purl.org/dc/elements/1.1/" xmlns:cc="http://creativecommons.org/ns#" xmlns:rdf="http://www.w3.org/1999/02/22-rdf-syntax-ns#">
   <cc:Work>
    <dc:type rdf:resource="http://purl.org/dc/dcmitype/StillImage"/>
    <dc:date>2026-02-22T15:50:03.851762</dc:date>
    <dc:format>image/svg+xml</dc:format>
    <dc:creator>
     <cc:Agent>
      <dc:title>Matplotlib v3.10.8, https://matplotlib.org/</dc:title>
     </cc:Agent>
    </dc:creator>
   </cc:Work>
  </rdf:RDF>
 </metadata>
 <defs>
  <style type="text/css">*{stroke-linejoin: round; stroke-linecap: butt}</style>
 </defs>
 <g id="figure_1">
  <g id="patch_1">
   <path d="M 0 351.031938 
L 928.680938 351.031938 
L 928.680938 0 
L 0 0 
z
" style="fill: #ffffff"/>
  </g>
  <g id="axes_1">
   <g id="patch_2">
    <path d="M 41.570938 312.507875 
L 458.880938 312.507875 
L 458.880938 33.875875 
L 41.570938 33.875875 
z
" style="fill: #ffffff"/>
   </g>
   <g id="FillBetweenPolyCollection_1">
    <path d="M 439.912301 299.842784 
L 439.912301 299.842784 
L 439.912301 291.108239 
L 439.912301 282.373693 
L 439.912301 273.639148 
L 439.912301 264.904602 
L 439.912301 256.170057 
L 439.912301 247.435511 
L 439.912301 238.700966 
L 439.912301 229.96642 
L 439.912301 221.231875 
L 439.912301 212.49733 
L 439.912301 203.762784 
L 439.912301 195.028239 
L 439.912301 186.293693 
L 439.912301 177.559148 
L 439.912301 168.824602 
L 439.912301 160.090057 
L 439.912301 151.355511 
L 439.912301 142.620966 
L 439.912301 133.88642 
L 439.912301 125.151875 
L 439.912301 116.41733 
L 439.912301 107.682784 
L 439.912301 98.948239 
L 439.912301 90.213693 
L 439.912301 81.479148 
L 439.912301 72.744602 
L 439.912301 64.010057 
L 439.912301 55.275511 
L 439.912301 46.540966 
L 439.912301 46.540966 
L 439.912301 46.540966 
L 439.912301 55.275511 
L 439.912301 64.010057 
L 439.912301 72.744602 
L 439.912301 81.479148 
L 439.912301 90.213693 
L 439.912301 98.948239 
L 439.912301 107.682784 
L 439.912301 116.41733 
L 439.912301 125.151875 
L 439.912301 133.88642 
L 439.912301 142.620966 
L 439.912301 151.355511 
L 439.912301 160.090057 
L 439.912301 168.824602 
L 439.912301 177.559148 
L 439.912301 186.293693 
L 439.912301 195.028239 
L 439.912301 203.762784 
L 439.912301 212.49733 
L 439.912301 221.231875 
L 439.912301 229.96642 
L 439.912301 238.700966 
L 439.912301 247.435511 
L 439.912301 256.170057 
L 439.912301 264.904602 
L 439.912301 273.639148 
L 439.912301 282.373693 
L 439.912301 291.108239 
L 439.912301 299.842784 
L 439.912301 299.842784 
z
" clip-path="url(#pf8c849ff02)" style="fill: none"/>
   </g>
   <g id="FillBetweenPolyCollection_2">
    <defs>
     <path id="m02a554b13f" d="M 316.081441 -51.189153 
L 316.081441 -51.189153 
L 307.657837 -51.189153 
L 299.234233 -51.189153 
L 290.810629 -51.189153 
L 282.387025 -51.189153 
L 273.963421 -51.189153 
L 265.539817 -51.189153 
L 257.116213 -51.189153 
L 248.692609 -51.189153 
L 240.269005 -51.189153 
L 231.845401 -51.189153 
L 223.421797 -51.189153 
L 214.998193 -51.189153 
L 206.574589 -51.189153 
L 198.150985 -51.189153 
L 189.727381 -51.189153 
L 181.303777 -51.189153 
L 172.880173 -51.189153 
L 164.456569 -51.189153 
L 156.032965 -51.189153 
L 147.609361 -51.189153 
L 139.185757 -51.189153 
L 130.762153 -51.189153 
L 122.338549 -51.189153 
L 113.914945 -51.189153 
L 105.491341 -51.189153 
L 97.067737 -51.189153 
L 88.644133 -51.189153 
L 80.220529 -51.189153 
L 71.796925 -51.189153 
L 71.796925 -51.189153 
L 71.796925 -51.189153 
L 80.220529 -51.189153 
L 88.644133 -51.189153 
L 97.067737 -51.189153 
L 105.491341 -51.189153 
L 113.914945 -51.189153 
L 122.338549 -51.189153 
L 130.762153 -51.189153 
L 139.185757 -51.189153 
L 147.609361 -51.189153 
L 156.032965 -51.189153 
L 164.456569 -51.189153 
L 172.880173 -51.189153 
L 181.303777 -51.189153 
L 189.727381 -51.189153 
L 198.150985 -51.189153 
L 206.574589 -51.189153 
L 214.998193 -51.189153 
L 223.421797 -51.189153 
L 231.845401 -51.189153 
L 240.269005 -51.189153 
L 248.692609 -51.189153 
L 257.116213 -51.189153 
L 265.539817 -51.189153 
L 273.963421 -51.189153 
L 282.387025 -51.189153 
L 290.810629 -51.189153 
L 299.234233 -51.189153 
L 307.657837 -51.189153 
L 316.081441 -51.189153 
z
" style="stroke: #800080; stroke-opacity: 0.12"/>
    </defs>
    <g clip-path="url(#pf8c849ff02)">
     <use xlink:href="#m02a554b13f" x="0" y="351.031938" style="fill: #800080; fill-opacity: 0.12; stroke: #800080; stroke-opacity: 0.12"/>
    </g>
   </g>
   <g id="matplotlib.axis_1">
    <g id="xtick_1">
     <g id="line2d_1">
      <defs>
       <path id="md83a51a69e" d="M 0 0 
L 0 3.5 
" style="stroke: #000000; stroke-width: 0.8"/>
      </defs>
      <g>
       <use xlink:href="#md83a51a69e" x="439.912301" y="312.507875" style="stroke: #000000; stroke-width: 0.8"/>
      </g>
     </g>
     <g id="text_1">
      <!-- 0.00 -->
      <g transform="translate(428.779489 327.106313) scale(0.1 -0.1)">
       <defs>
        <path id="DejaVuSans-30" d="M 2034 4250 
Q 1547 4250 1301 3770 
Q 1056 3291 1056 2328 
Q 1056 1369 1301 889 
Q 1547 409 2034 409 
Q 2525 409 2770 889 
Q 3016 1369 3016 2328 
Q 3016 3291 2770 3770 
Q 2525 4250 2034 4250 
z
M 2034 4750 
Q 2819 4750 3233 4129 
Q 3647 3509 3647 2328 
Q 3647 1150 3233 529 
Q 2819 -91 2034 -91 
Q 1250 -91 836 529 
Q 422 1150 422 2328 
Q 422 3509 836 4129 
Q 1250 4750 2034 4750 
z
" transform="scale(0.015625)"/>
        <path id="DejaVuSans-2e" d="M 684 794 
L 1344 794 
L 1344 0 
L 684 0 
L 684 794 
z
" transform="scale(0.015625)"/>
       </defs>
       <use xlink:href="#DejaVuSans-30"/>
       <use xlink:href="#DejaVuSans-2e" transform="translate(63.623047 0)"/>
       <use xlink:href="#DejaVuSans-30" transform="translate(95.410156 0)"/>
       <use xlink:href="#DejaVuSans-30" transform="translate(159.033203 0)"/>
      </g>
     </g>
    </g>
    <g id="xtick_2">
     <g id="line2d_2">
      <g>
       <use xlink:href="#md83a51a69e" x="383.625546" y="312.507875" style="stroke: #000000; stroke-width: 0.8"/>
      </g>
     </g>
     <g id="text_2">
      <!-- 0.05 -->
      <g transform="translate(372.492734 327.106313) scale(0.1 -0.1)">
       <defs>
        <path id="DejaVuSans-35" d="M 691 4666 
L 3169 4666 
L 3169 4134 
L 1269 4134 
L 1269 2991 
Q 1406 3038 1543 3061 
Q 1681 3084 1819 3084 
Q 2600 3084 3056 2656 
Q 3513 2228 3513 1497 
Q 3513 744 3044 326 
Q 2575 -91 1722 -91 
Q 1428 -91 1123 -41 
Q 819 9 494 109 
L 494 744 
Q 775 591 1075 516 
Q 1375 441 1709 441 
Q 2250 441 2565 725 
Q 2881 1009 2881 1497 
Q 2881 1984 2565 2268 
Q 2250 2553 1709 2553 
Q 1456 2553 1204 2497 
Q 953 2441 691 2322 
L 691 4666 
z
" transform="scale(0.015625)"/>
       </defs>
       <use xlink:href="#DejaVuSans-30"/>
       <use xlink:href="#DejaVuSans-2e" transform="translate(63.623047 0)"/>
       <use xlink:href="#DejaVuSans-30" transform="translate(95.410156 0)"/>
       <use xlink:href="#DejaVuSans-35" transform="translate(159.033203 0)"/>
      </g>
     </g>
    </g>
    <g id="xtick_3">
     <g id="line2d_3">
      <g>
       <use xlink:href="#md83a51a69e" x="327.338792" y="312.507875" style="stroke: #000000; stroke-width: 0.8"/>
      </g>
     </g>
     <g id="text_3">
      <!-- 0.10 -->
      <g transform="translate(316.205979 327.106313) scale(0.1 -0.1)">
       <defs>
        <path id="DejaVuSans-31" d="M 794 531 
L 1825 531 
L 1825 4091 
L 703 3866 
L 703 4441 
L 1819 4666 
L 2450 4666 
L 2450 531 
L 3481 531 
L 3481 0 
L 794 0 
L 794 531 
z
" transform="scale(0.015625)"/>
       </defs>
       <use xlink:href="#DejaVuSans-30"/>
       <use xlink:href="#DejaVuSans-2e" transform="translate(63.623047 0)"/>
       <use xlink:href="#DejaVuSans-31" transform="translate(95.410156 0)"/>
       <use xlink:href="#DejaVuSans-30" transform="translate(159.033203 0)"/>
      </g>
     </g>
    </g>
    <g id="xtick_4">
     <g id="line2d_4">
      <g>
       <use xlink:href="#md83a51a69e" x="271.052037" y="312.507875" style="stroke: #000000; stroke-width: 0.8"/>
      </g>
     </g>
     <g id="text_4">
      <!-- 0.15 -->
      <g transform="translate(259.919224 327.106313) scale(0.1 -0.1)">
       <use xlink:href="#DejaVuSans-30"/>
       <use xlink:href="#DejaVuSans-2e" transform="translate(63.623047 0)"/>
       <use xlink:href="#DejaVuSans-31" transform="translate(95.410156 0)"/>
       <use xlink:href="#DejaVuSans-35" transform="translate(159.033203 0)"/>
      </g>
     </g>
    </g>
    <g id="xtick_5">
     <g id="line2d_5">
      <g>
       <use xlink:href="#md83a51a69e" x="214.765282" y="312.507875" style="stroke: #000000; stroke-width: 0.8"/>
      </g>
     </g>
     <g id="text_5">
      <!-- 0.20 -->
      <g transform="translate(203.632469 327.106313) scale(0.1 -0.1)">
       <defs>
        <path id="DejaVuSans-32" d="M 1228 531 
L 3431 531 
L 3431 0 
L 469 0 
L 469 531 
Q 828 903 1448 1529 
Q 2069 2156 2228 2338 
Q 2531 2678 2651 2914 
Q 2772 3150 2772 3378 
Q 2772 3750 2511 3984 
Q 2250 4219 1831 4219 
Q 1534 4219 1204 4116 
Q 875 4013 500 3803 
L 500 4441 
Q 881 4594 1212 4672 
Q 1544 4750 1819 4750 
Q 2544 4750 2975 4387 
Q 3406 4025 3406 3419 
Q 3406 3131 3298 2873 
Q 3191 2616 2906 2266 
Q 2828 2175 2409 1742 
Q 1991 1309 1228 531 
z
" transform="scale(0.015625)"/>
       </defs>
       <use xlink:href="#DejaVuSans-30"/>
       <use xlink:href="#DejaVuSans-2e" transform="translate(63.623047 0)"/>
       <use xlink:href="#DejaVuSans-32" transform="translate(95.410156 0)"/>
       <use xlink:href="#DejaVuSans-30" transform="translate(159.033203 0)"/>
      </g>
     </g>
    </g>
    <g id="xtick_6">
     <g id="line2d_6">
      <g>
       <use xlink:href="#md83a51a69e" x="158.478527" y="312.507875" style="stroke: #000000; stroke-width: 0.8"/>
      </g>
     </g>
     <g id="text_6">
      <!-- 0.25 -->
      <g transform="translate(147.345715 327.106313) scale(0.1 -0.1)">
       <use xlink:href="#DejaVuSans-30"/>
       <use xlink:href="#DejaVuSans-2e" transform="translate(63.623047 0)"/>
       <use xlink:href="#DejaVuSans-32" transform="translate(95.410156 0)"/>
       <use xlink:href="#DejaVuSans-35" transform="translate(159.033203 0)"/>
      </g>
     </g>
    </g>
    <g id="xtick_7">
     <g id="line2d_7">
      <g>
       <use xlink:href="#md83a51a69e" x="102.191772" y="312.507875" style="stroke: #000000; stroke-width: 0.8"/>
      </g>
     </g>
     <g id="text_7">
      <!-- 0.30 -->
      <g transform="translate(91.05896 327.106313) scale(0.1 -0.1)">
       <defs>
        <path id="DejaVuSans-33" d="M 2597 2516 
Q 3050 2419 3304 2112 
Q 3559 1806 3559 1356 
Q 3559 666 3084 287 
Q 2609 -91 1734 -91 
Q 1441 -91 1130 -33 
Q 819 25 488 141 
L 488 750 
Q 750 597 1062 519 
Q 1375 441 1716 441 
Q 2309 441 2620 675 
Q 2931 909 2931 1356 
Q 2931 1769 2642 2001 
Q 2353 2234 1838 2234 
L 1294 2234 
L 1294 2753 
L 1863 2753 
Q 2328 2753 2575 2939 
Q 2822 3125 2822 3475 
Q 2822 3834 2567 4026 
Q 2313 4219 1838 4219 
Q 1578 4219 1281 4162 
Q 984 4106 628 3988 
L 628 4550 
Q 988 4650 1302 4700 
Q 1616 4750 1894 4750 
Q 2613 4750 3031 4423 
Q 3450 4097 3450 3541 
Q 3450 3153 3228 2886 
Q 3006 2619 2597 2516 
z
" transform="scale(0.015625)"/>
       </defs>
       <use xlink:href="#DejaVuSans-30"/>
       <use xlink:href="#DejaVuSans-2e" transform="translate(63.623047 0)"/>
       <use xlink:href="#DejaVuSans-33" transform="translate(95.410156 0)"/>
       <use xlink:href="#DejaVuSans-30" transform="translate(159.033203 0)"/>
      </g>
     </g>
    </g>
    <g id="xtick_8">
     <g id="line2d_8">
      <g>
       <use xlink:href="#md83a51a69e" x="45.905018" y="312.507875" style="stroke: #000000; stroke-width: 0.8"/>
      </g>
     </g>
     <g id="text_8">
      <!-- 0.35 -->
      <g transform="translate(34.772205 327.106313) scale(0.1 -0.1)">
       <use xlink:href="#DejaVuSans-30"/>
       <use xlink:href="#DejaVuSans-2e" transform="translate(63.623047 0)"/>
       <use xlink:href="#DejaVuSans-33" transform="translate(95.410156 0)"/>
       <use xlink:href="#DejaVuSans-35" transform="translate(159.033203 0)"/>
      </g>
     </g>
    </g>
    <g id="text_9">
     <!-- Constraint level $c$ -->
     <g transform="translate(202.100938 341.544281) scale(0.11 -0.11)">
      <defs>
       <path id="DejaVuSans-43" d="M 4122 4306 
L 4122 3641 
Q 3803 3938 3442 4084 
Q 3081 4231 2675 4231 
Q 1875 4231 1450 3742 
Q 1025 3253 1025 2328 
Q 1025 1406 1450 917 
Q 1875 428 2675 428 
Q 3081 428 3442 575 
Q 3803 722 4122 1019 
L 4122 359 
Q 3791 134 3420 21 
Q 3050 -91 2638 -91 
Q 1578 -91 968 557 
Q 359 1206 359 2328 
Q 359 3453 968 4101 
Q 1578 4750 2638 4750 
Q 3056 4750 3426 4639 
Q 3797 4528 4122 4306 
z
" transform="scale(0.015625)"/>
       <path id="DejaVuSans-6f" d="M 1959 3097 
Q 1497 3097 1228 2736 
Q 959 2375 959 1747 
Q 959 1119 1226 758 
Q 1494 397 1959 397 
Q 2419 397 2687 759 
Q 2956 1122 2956 1747 
Q 2956 2369 2687 2733 
Q 2419 3097 1959 3097 
z
M 1959 3584 
Q 2709 3584 3137 3096 
Q 3566 2609 3566 1747 
Q 3566 888 3137 398 
Q 2709 -91 1959 -91 
Q 1206 -91 779 398 
Q 353 888 353 1747 
Q 353 2609 779 3096 
Q 1206 3584 1959 3584 
z
" transform="scale(0.015625)"/>
       <path id="DejaVuSans-6e" d="M 3513 2113 
L 3513 0 
L 2938 0 
L 2938 2094 
Q 2938 2591 2744 2837 
Q 2550 3084 2163 3084 
Q 1697 3084 1428 2787 
Q 1159 2491 1159 1978 
L 1159 0 
L 581 0 
L 581 3500 
L 1159 3500 
L 1159 2956 
Q 1366 3272 1645 3428 
Q 1925 3584 2291 3584 
Q 2894 3584 3203 3211 
Q 3513 2838 3513 2113 
z
" transform="scale(0.015625)"/>
       <path id="DejaVuSans-73" d="M 2834 3397 
L 2834 2853 
Q 2591 2978 2328 3040 
Q 2066 3103 1784 3103 
Q 1356 3103 1142 2972 
Q 928 2841 928 2578 
Q 928 2378 1081 2264 
Q 1234 2150 1697 2047 
L 1894 2003 
Q 2506 1872 2764 1633 
Q 3022 1394 3022 966 
Q 3022 478 2636 193 
Q 2250 -91 1575 -91 
Q 1294 -91 989 -36 
Q 684 19 347 128 
L 347 722 
Q 666 556 975 473 
Q 1284 391 1588 391 
Q 1994 391 2212 530 
Q 2431 669 2431 922 
Q 2431 1156 2273 1281 
Q 2116 1406 1581 1522 
L 1381 1569 
Q 847 1681 609 1914 
Q 372 2147 372 2553 
Q 372 3047 722 3315 
Q 1072 3584 1716 3584 
Q 2034 3584 2315 3537 
Q 2597 3491 2834 3397 
z
" transform="scale(0.015625)"/>
       <path id="DejaVuSans-74" d="M 1172 4494 
L 1172 3500 
L 2356 3500 
L 2356 3053 
L 1172 3053 
L 1172 1153 
Q 1172 725 1289 603 
Q 1406 481 1766 481 
L 2356 481 
L 2356 0 
L 1766 0 
Q 1100 0 847 248 
Q 594 497 594 1153 
L 594 3053 
L 172 3053 
L 172 3500 
L 594 3500 
L 594 4494 
L 1172 4494 
z
" transform="scale(0.015625)"/>
       <path id="DejaVuSans-72" d="M 2631 2963 
Q 2534 3019 2420 3045 
Q 2306 3072 2169 3072 
Q 1681 3072 1420 2755 
Q 1159 2438 1159 1844 
L 1159 0 
L 581 0 
L 581 3500 
L 1159 3500 
L 1159 2956 
Q 1341 3275 1631 3429 
Q 1922 3584 2338 3584 
Q 2397 3584 2469 3576 
Q 2541 3569 2628 3553 
L 2631 2963 
z
" transform="scale(0.015625)"/>
       <path id="DejaVuSans-61" d="M 2194 1759 
Q 1497 1759 1228 1600 
Q 959 1441 959 1056 
Q 959 750 1161 570 
Q 1363 391 1709 391 
Q 2188 391 2477 730 
Q 2766 1069 2766 1631 
L 2766 1759 
L 2194 1759 
z
M 3341 1997 
L 3341 0 
L 2766 0 
L 2766 531 
Q 2569 213 2275 61 
Q 1981 -91 1556 -91 
Q 1019 -91 701 211 
Q 384 513 384 1019 
Q 384 1609 779 1909 
Q 1175 2209 1959 2209 
L 2766 2209 
L 2766 2266 
Q 2766 2663 2505 2880 
Q 2244 3097 1772 3097 
Q 1472 3097 1187 3025 
Q 903 2953 641 2809 
L 641 3341 
Q 956 3463 1253 3523 
Q 1550 3584 1831 3584 
Q 2591 3584 2966 3190 
Q 3341 2797 3341 1997 
z
" transform="scale(0.015625)"/>
       <path id="DejaVuSans-69" d="M 603 3500 
L 1178 3500 
L 1178 0 
L 603 0 
L 603 3500 
z
M 603 4863 
L 1178 4863 
L 1178 4134 
L 603 4134 
L 603 4863 
z
" transform="scale(0.015625)"/>
       <path id="DejaVuSans-20" transform="scale(0.015625)"/>
       <path id="DejaVuSans-6c" d="M 603 4863 
L 1178 4863 
L 1178 0 
L 603 0 
L 603 4863 
z
" transform="scale(0.015625)"/>
       <path id="DejaVuSans-65" d="M 3597 1894 
L 3597 1613 
L 953 1613 
Q 991 1019 1311 708 
Q 1631 397 2203 397 
Q 2534 397 2845 478 
Q 3156 559 3463 722 
L 3463 178 
Q 3153 47 2828 -22 
Q 2503 -91 2169 -91 
Q 1331 -91 842 396 
Q 353 884 353 1716 
Q 353 2575 817 3079 
Q 1281 3584 2069 3584 
Q 2775 3584 3186 3129 
Q 3597 2675 3597 1894 
z
M 3022 2063 
Q 3016 2534 2758 2815 
Q 2500 3097 2075 3097 
Q 1594 3097 1305 2825 
Q 1016 2553 972 2059 
L 3022 2063 
z
" transform="scale(0.015625)"/>
       <path id="DejaVuSans-76" d="M 191 3500 
L 800 3500 
L 1894 563 
L 2988 3500 
L 3597 3500 
L 2284 0 
L 1503 0 
L 191 3500 
z
" transform="scale(0.015625)"/>
       <path id="DejaVuSans-Oblique-63" d="M 3431 3366 
L 3316 2797 
Q 3109 2947 2876 3022 
Q 2644 3097 2394 3097 
Q 2119 3097 1870 3000 
Q 1622 2903 1453 2725 
Q 1184 2453 1037 2087 
Q 891 1722 891 1331 
Q 891 859 1127 628 
Q 1363 397 1844 397 
Q 2081 397 2348 469 
Q 2616 541 2906 684 
L 2797 116 
Q 2547 13 2283 -39 
Q 2019 -91 1741 -91 
Q 1044 -91 669 257 
Q 294 606 294 1253 
Q 294 1797 489 2255 
Q 684 2713 1069 3078 
Q 1331 3328 1684 3456 
Q 2038 3584 2456 3584 
Q 2700 3584 2940 3529 
Q 3181 3475 3431 3366 
z
" transform="scale(0.015625)"/>
      </defs>
      <use xlink:href="#DejaVuSans-43" transform="translate(0 0.015625)"/>
      <use xlink:href="#DejaVuSans-6f" transform="translate(69.824219 0.015625)"/>
      <use xlink:href="#DejaVuSans-6e" transform="translate(131.005859 0.015625)"/>
      <use xlink:href="#DejaVuSans-73" transform="translate(194.384766 0.015625)"/>
      <use xlink:href="#DejaVuSans-74" transform="translate(246.484375 0.015625)"/>
      <use xlink:href="#DejaVuSans-72" transform="translate(285.693359 0.015625)"/>
      <use xlink:href="#DejaVuSans-61" transform="translate(326.806641 0.015625)"/>
      <use xlink:href="#DejaVuSans-69" transform="translate(388.085938 0.015625)"/>
      <use xlink:href="#DejaVuSans-6e" transform="translate(415.869141 0.015625)"/>
      <use xlink:href="#DejaVuSans-74" transform="translate(479.248047 0.015625)"/>
      <use xlink:href="#DejaVuSans-20" transform="translate(518.457031 0.015625)"/>
      <use xlink:href="#DejaVuSans-6c" transform="translate(550.244141 0.015625)"/>
      <use xlink:href="#DejaVuSans-65" transform="translate(578.027344 0.015625)"/>
      <use xlink:href="#DejaVuSans-76" transform="translate(639.550781 0.015625)"/>
      <use xlink:href="#DejaVuSans-65" transform="translate(698.730469 0.015625)"/>
      <use xlink:href="#DejaVuSans-6c" transform="translate(760.253906 0.015625)"/>
      <use xlink:href="#DejaVuSans-20" transform="translate(788.037109 0.015625)"/>
      <use xlink:href="#DejaVuSans-Oblique-63" transform="translate(819.824219 0.015625)"/>
     </g>
    </g>
   </g>
   <g id="matplotlib.axis_2">
    <g id="ytick_1">
     <g id="line2d_9">
      <defs>
       <path id="m41b56bfc4e" d="M 0 0 
L -3.5 0 
" style="stroke: #000000; stroke-width: 0.8"/>
      </defs>
      <g>
       <use xlink:href="#m41b56bfc4e" x="41.570938" y="299.842784" style="stroke: #000000; stroke-width: 0.8"/>
      </g>
     </g>
     <g id="text_10">
      <!-- 0 -->
      <g transform="translate(28.208438 303.642003) scale(0.1 -0.1)">
       <use xlink:href="#DejaVuSans-30"/>
      </g>
     </g>
    </g>
    <g id="ytick_2">
     <g id="line2d_10">
      <g>
       <use xlink:href="#m41b56bfc4e" x="41.570938" y="256.170057" style="stroke: #000000; stroke-width: 0.8"/>
      </g>
     </g>
     <g id="text_11">
      <!-- 5 -->
      <g transform="translate(28.208438 259.969276) scale(0.1 -0.1)">
       <use xlink:href="#DejaVuSans-35"/>
      </g>
     </g>
    </g>
    <g id="ytick_3">
     <g id="line2d_11">
      <g>
       <use xlink:href="#m41b56bfc4e" x="41.570938" y="212.49733" style="stroke: #000000; stroke-width: 0.8"/>
      </g>
     </g>
     <g id="text_12">
      <!-- 10 -->
      <g transform="translate(21.845938 216.296548) scale(0.1 -0.1)">
       <use xlink:href="#DejaVuSans-31"/>
       <use xlink:href="#DejaVuSans-30" transform="translate(63.623047 0)"/>
      </g>
     </g>
    </g>
    <g id="ytick_4">
     <g id="line2d_12">
      <g>
       <use xlink:href="#m41b56bfc4e" x="41.570938" y="168.824602" style="stroke: #000000; stroke-width: 0.8"/>
      </g>
     </g>
     <g id="text_13">
      <!-- 15 -->
      <g transform="translate(21.845938 172.623821) scale(0.1 -0.1)">
       <use xlink:href="#DejaVuSans-31"/>
       <use xlink:href="#DejaVuSans-35" transform="translate(63.623047 0)"/>
      </g>
     </g>
    </g>
    <g id="ytick_5">
     <g id="line2d_13">
      <g>
       <use xlink:href="#m41b56bfc4e" x="41.570938" y="125.151875" style="stroke: #000000; stroke-width: 0.8"/>
      </g>
     </g>
     <g id="text_14">
      <!-- 20 -->
      <g transform="translate(21.845938 128.951094) scale(0.1 -0.1)">
       <use xlink:href="#DejaVuSans-32"/>
       <use xlink:href="#DejaVuSans-30" transform="translate(63.623047 0)"/>
      </g>
     </g>
    </g>
    <g id="ytick_6">
     <g id="line2d_14">
      <g>
       <use xlink:href="#m41b56bfc4e" x="41.570938" y="81.479148" style="stroke: #000000; stroke-width: 0.8"/>
      </g>
     </g>
     <g id="text_15">
      <!-- 25 -->
      <g transform="translate(21.845938 85.278366) scale(0.1 -0.1)">
       <use xlink:href="#DejaVuSans-32"/>
       <use xlink:href="#DejaVuSans-35" transform="translate(63.623047 0)"/>
      </g>
     </g>
    </g>
    <g id="ytick_7">
     <g id="line2d_15">
      <g>
       <use xlink:href="#m41b56bfc4e" x="41.570938" y="37.80642" style="stroke: #000000; stroke-width: 0.8"/>
      </g>
     </g>
     <g id="text_16">
      <!-- 30 -->
      <g transform="translate(21.845938 41.605639) scale(0.1 -0.1)">
       <use xlink:href="#DejaVuSans-33"/>
       <use xlink:href="#DejaVuSans-30" transform="translate(63.623047 0)"/>
      </g>
     </g>
    </g>
    <g id="text_17">
     <!-- Pe estimate (rolling) -->
     <g transform="translate(15.558281 228.746172) rotate(-90) scale(0.11 -0.11)">
      <defs>
       <path id="DejaVuSans-50" d="M 1259 4147 
L 1259 2394 
L 2053 2394 
Q 2494 2394 2734 2622 
Q 2975 2850 2975 3272 
Q 2975 3691 2734 3919 
Q 2494 4147 2053 4147 
L 1259 4147 
z
M 628 4666 
L 2053 4666 
Q 2838 4666 3239 4311 
Q 3641 3956 3641 3272 
Q 3641 2581 3239 2228 
Q 2838 1875 2053 1875 
L 1259 1875 
L 1259 0 
L 628 0 
L 628 4666 
z
" transform="scale(0.015625)"/>
       <path id="DejaVuSans-6d" d="M 3328 2828 
Q 3544 3216 3844 3400 
Q 4144 3584 4550 3584 
Q 5097 3584 5394 3201 
Q 5691 2819 5691 2113 
L 5691 0 
L 5113 0 
L 5113 2094 
Q 5113 2597 4934 2840 
Q 4756 3084 4391 3084 
Q 3944 3084 3684 2787 
Q 3425 2491 3425 1978 
L 3425 0 
L 2847 0 
L 2847 2094 
Q 2847 2600 2669 2842 
Q 2491 3084 2119 3084 
Q 1678 3084 1418 2786 
Q 1159 2488 1159 1978 
L 1159 0 
L 581 0 
L 581 3500 
L 1159 3500 
L 1159 2956 
Q 1356 3278 1631 3431 
Q 1906 3584 2284 3584 
Q 2666 3584 2933 3390 
Q 3200 3197 3328 2828 
z
" transform="scale(0.015625)"/>
       <path id="DejaVuSans-28" d="M 1984 4856 
Q 1566 4138 1362 3434 
Q 1159 2731 1159 2009 
Q 1159 1288 1364 580 
Q 1569 -128 1984 -844 
L 1484 -844 
Q 1016 -109 783 600 
Q 550 1309 550 2009 
Q 550 2706 781 3412 
Q 1013 4119 1484 4856 
L 1984 4856 
z
" transform="scale(0.015625)"/>
       <path id="DejaVuSans-67" d="M 2906 1791 
Q 2906 2416 2648 2759 
Q 2391 3103 1925 3103 
Q 1463 3103 1205 2759 
Q 947 2416 947 1791 
Q 947 1169 1205 825 
Q 1463 481 1925 481 
Q 2391 481 2648 825 
Q 2906 1169 2906 1791 
z
M 3481 434 
Q 3481 -459 3084 -895 
Q 2688 -1331 1869 -1331 
Q 1566 -1331 1297 -1286 
Q 1028 -1241 775 -1147 
L 775 -588 
Q 1028 -725 1275 -790 
Q 1522 -856 1778 -856 
Q 2344 -856 2625 -561 
Q 2906 -266 2906 331 
L 2906 616 
Q 2728 306 2450 153 
Q 2172 0 1784 0 
Q 1141 0 747 490 
Q 353 981 353 1791 
Q 353 2603 747 3093 
Q 1141 3584 1784 3584 
Q 2172 3584 2450 3431 
Q 2728 3278 2906 2969 
L 2906 3500 
L 3481 3500 
L 3481 434 
z
" transform="scale(0.015625)"/>
       <path id="DejaVuSans-29" d="M 513 4856 
L 1013 4856 
Q 1481 4119 1714 3412 
Q 1947 2706 1947 2009 
Q 1947 1309 1714 600 
Q 1481 -109 1013 -844 
L 513 -844 
Q 928 -128 1133 580 
Q 1338 1288 1338 2009 
Q 1338 2731 1133 3434 
Q 928 4138 513 4856 
z
" transform="scale(0.015625)"/>
      </defs>
      <use xlink:href="#DejaVuSans-50"/>
      <use xlink:href="#DejaVuSans-65" transform="translate(56.677734 0)"/>
      <use xlink:href="#DejaVuSans-20" transform="translate(118.201172 0)"/>
      <use xlink:href="#DejaVuSans-65" transform="translate(149.988281 0)"/>
      <use xlink:href="#DejaVuSans-73" transform="translate(211.511719 0)"/>
      <use xlink:href="#DejaVuSans-74" transform="translate(263.611328 0)"/>
      <use xlink:href="#DejaVuSans-69" transform="translate(302.820312 0)"/>
      <use xlink:href="#DejaVuSans-6d" transform="translate(330.603516 0)"/>
      <use xlink:href="#DejaVuSans-61" transform="translate(428.015625 0)"/>
      <use xlink:href="#DejaVuSans-74" transform="translate(489.294922 0)"/>
      <use xlink:href="#DejaVuSans-65" transform="translate(528.503906 0)"/>
      <use xlink:href="#DejaVuSans-20" transform="translate(590.027344 0)"/>
      <use xlink:href="#DejaVuSans-28" transform="translate(621.814453 0)"/>
      <use xlink:href="#DejaVuSans-72" transform="translate(660.828125 0)"/>
      <use xlink:href="#DejaVuSans-6f" transform="translate(699.691406 0)"/>
      <use xlink:href="#DejaVuSans-6c" transform="translate(760.873047 0)"/>
      <use xlink:href="#DejaVuSans-6c" transform="translate(788.65625 0)"/>
      <use xlink:href="#DejaVuSans-69" transform="translate(816.439453 0)"/>
      <use xlink:href="#DejaVuSans-6e" transform="translate(844.222656 0)"/>
      <use xlink:href="#DejaVuSans-67" transform="translate(907.601562 0)"/>
      <use xlink:href="#DejaVuSans-29" transform="translate(971.078125 0)"/>
     </g>
    </g>
   </g>
   <g id="line2d_16">
    <path d="M 83.149677 299.842784 
L 87.671698 299.842784 
L 92.193718 299.842784 
L 96.715739 299.842784 
L 101.23776 299.842784 
L 105.75978 299.842784 
L 110.281801 299.842784 
L 114.803822 299.842784 
L 119.325842 299.842784 
L 123.847863 299.842784 
L 128.369883 299.842784 
L 132.891904 299.842784 
L 137.413925 299.842784 
L 141.935945 299.842784 
L 146.457966 299.842784 
L 150.979987 299.842784 
L 155.502007 299.842784 
L 160.024028 299.842784 
L 164.546049 299.842784 
L 169.068069 299.842784 
L 173.59009 299.842784 
L 178.11211 299.842784 
L 182.634131 299.842784 
L 187.156152 299.842784 
L 191.678172 299.842784 
L 196.200193 299.842784 
L 200.722214 299.842784 
L 205.244234 299.842784 
L 209.766255 299.842784 
L 214.288276 299.842784 
L 218.810296 299.842784 
L 223.332317 299.842784 
L 227.854338 299.842784 
L 232.376358 299.842784 
L 236.898379 299.842784 
L 241.420399 299.842784 
L 245.94242 299.842784 
L 250.464441 299.842784 
L 254.986461 299.842784 
L 259.508482 299.842784 
L 264.030503 299.842784 
L 268.552523 299.842784 
L 273.074544 299.842784 
L 277.596565 299.842784 
L 282.118585 299.842784 
L 286.640606 299.842784 
L 291.162626 299.842784 
L 295.684647 299.842784 
L 300.206668 299.842784 
L 304.728688 299.842784 
" clip-path="url(#pf8c849ff02)" style="fill: none; stroke: #7b2d8b; stroke-width: 2; stroke-linecap: square"/>
    <defs>
     <path id="mac6f879796" d="M 0 2 
C 0.530406 2 1.03916 1.789267 1.414214 1.414214 
C 1.789267 1.03916 2 0.530406 2 0 
C 2 -0.530406 1.789267 -1.03916 1.414214 -1.414214 
C 1.03916 -1.789267 0.530406 -2 0 -2 
C -0.530406 -2 -1.03916 -1.789267 -1.414214 -1.414214 
C -1.789267 -1.03916 -2 -0.530406 -2 0 
C -2 0.530406 -1.789267 1.03916 -1.414214 1.414214 
C -1.03916 1.789267 -0.530406 2 0 2 
z
" style="stroke: #7b2d8b"/>
    </defs>
    <g clip-path="url(#pf8c849ff02)">
     <use xlink:href="#mac6f879796" x="83.149677" y="299.842784" style="fill: #7b2d8b; stroke: #7b2d8b"/>
     <use xlink:href="#mac6f879796" x="87.671698" y="299.842784" style="fill: #7b2d8b; stroke: #7b2d8b"/>
     <use xlink:href="#mac6f879796" x="92.193718" y="299.842784" style="fill: #7b2d8b; stroke: #7b2d8b"/>
     <use xlink:href="#mac6f879796" x="96.715739" y="299.842784" style="fill: #7b2d8b; stroke: #7b2d8b"/>
     <use xlink:href="#mac6f879796" x="101.23776" y="299.842784" style="fill: #7b2d8b; stroke: #7b2d8b"/>
     <use xlink:href="#mac6f879796" x="105.75978" y="299.842784" style="fill: #7b2d8b; stroke: #7b2d8b"/>
     <use xlink:href="#mac6f879796" x="110.281801" y="299.842784" style="fill: #7b2d8b; stroke: #7b2d8b"/>
     <use xlink:href="#mac6f879796" x="114.803822" y="299.842784" style="fill: #7b2d8b; stroke: #7b2d8b"/>
     <use xlink:href="#mac6f879796" x="119.325842" y="299.842784" style="fill: #7b2d8b; stroke: #7b2d8b"/>
     <use xlink:href="#mac6f879796" x="123.847863" y="299.842784" style="fill: #7b2d8b; stroke: #7b2d8b"/>
     <use xlink:href="#mac6f879796" x="128.369883" y="299.842784" style="fill: #7b2d8b; stroke: #7b2d8b"/>
     <use xlink:href="#mac6f879796" x="132.891904" y="299.842784" style="fill: #7b2d8b; stroke: #7b2d8b"/>
     <use xlink:href="#mac6f879796" x="137.413925" y="299.842784" style="fill: #7b2d8b; stroke: #7b2d8b"/>
     <use xlink:href="#mac6f879796" x="141.935945" y="299.842784" style="fill: #7b2d8b; stroke: #7b2d8b"/>
     <use xlink:href="#mac6f879796" x="146.457966" y="299.842784" style="fill: #7b2d8b; stroke: #7b2d8b"/>
     <use xlink:href="#mac6f879796" x="150.979987" y="299.842784" style="fill: #7b2d8b; stroke: #7b2d8b"/>
     <use xlink:href="#mac6f879796" x="155.502007" y="299.842784" style="fill: #7b2d8b; stroke: #7b2d8b"/>
     <use xlink:href="#mac6f879796" x="160.024028" y="299.842784" style="fill: #7b2d8b; stroke: #7b2d8b"/>
     <use xlink:href="#mac6f879796" x="164.546049" y="299.842784" style="fill: #7b2d8b; stroke: #7b2d8b"/>
     <use xlink:href="#mac6f879796" x="169.068069" y="299.842784" style="fill: #7b2d8b; stroke: #7b2d8b"/>
     <use xlink:href="#mac6f879796" x="173.59009" y="299.842784" style="fill: #7b2d8b; stroke: #7b2d8b"/>
     <use xlink:href="#mac6f879796" x="178.11211" y="299.842784" style="fill: #7b2d8b; stroke: #7b2d8b"/>
     <use xlink:href="#mac6f879796" x="182.634131" y="299.842784" style="fill: #7b2d8b; stroke: #7b2d8b"/>
     <use xlink:href="#mac6f879796" x="187.156152" y="299.842784" style="fill: #7b2d8b; stroke: #7b2d8b"/>
     <use xlink:href="#mac6f879796" x="191.678172" y="299.842784" style="fill: #7b2d8b; stroke: #7b2d8b"/>
     <use xlink:href="#mac6f879796" x="196.200193" y="299.842784" style="fill: #7b2d8b; stroke: #7b2d8b"/>
     <use xlink:href="#mac6f879796" x="200.722214" y="299.842784" style="fill: #7b2d8b; stroke: #7b2d8b"/>
     <use xlink:href="#mac6f879796" x="205.244234" y="299.842784" style="fill: #7b2d8b; stroke: #7b2d8b"/>
     <use xlink:href="#mac6f879796" x="209.766255" y="299.842784" style="fill: #7b2d8b; stroke: #7b2d8b"/>
     <use xlink:href="#mac6f879796" x="214.288276" y="299.842784" style="fill: #7b2d8b; stroke: #7b2d8b"/>
     <use xlink:href="#mac6f879796" x="218.810296" y="299.842784" style="fill: #7b2d8b; stroke: #7b2d8b"/>
     <use xlink:href="#mac6f879796" x="223.332317" y="299.842784" style="fill: #7b2d8b; stroke: #7b2d8b"/>
     <use xlink:href="#mac6f879796" x="227.854338" y="299.842784" style="fill: #7b2d8b; stroke: #7b2d8b"/>
     <use xlink:href="#mac6f879796" x="232.376358" y="299.842784" style="fill: #7b2d8b; stroke: #7b2d8b"/>
     <use xlink:href="#mac6f879796" x="236.898379" y="299.842784" style="fill: #7b2d8b; stroke: #7b2d8b"/>
     <use xlink:href="#mac6f879796" x="241.420399" y="299.842784" style="fill: #7b2d8b; stroke: #7b2d8b"/>
     <use xlink:href="#mac6f879796" x="245.94242" y="299.842784" style="fill: #7b2d8b; stroke: #7b2d8b"/>
     <use xlink:href="#mac6f879796" x="250.464441" y="299.842784" style="fill: #7b2d8b; stroke: #7b2d8b"/>
     <use xlink:href="#mac6f879796" x="254.986461" y="299.842784" style="fill: #7b2d8b; stroke: #7b2d8b"/>
     <use xlink:href="#mac6f879796" x="259.508482" y="299.842784" style="fill: #7b2d8b; stroke: #7b2d8b"/>
     <use xlink:href="#mac6f879796" x="264.030503" y="299.842784" style="fill: #7b2d8b; stroke: #7b2d8b"/>
     <use xlink:href="#mac6f879796" x="268.552523" y="299.842784" style="fill: #7b2d8b; stroke: #7b2d8b"/>
     <use xlink:href="#mac6f879796" x="273.074544" y="299.842784" style="fill: #7b2d8b; stroke: #7b2d8b"/>
     <use xlink:href="#mac6f879796" x="277.596565" y="299.842784" style="fill: #7b2d8b; stroke: #7b2d8b"/>
     <use xlink:href="#mac6f879796" x="282.118585" y="299.842784" style="fill: #7b2d8b; stroke: #7b2d8b"/>
     <use xlink:href="#mac6f879796" x="286.640606" y="299.842784" style="fill: #7b2d8b; stroke: #7b2d8b"/>
     <use xlink:href="#mac6f879796" x="291.162626" y="299.842784" style="fill: #7b2d8b; stroke: #7b2d8b"/>
     <use xlink:href="#mac6f879796" x="295.684647" y="299.842784" style="fill: #7b2d8b; stroke: #7b2d8b"/>
     <use xlink:href="#mac6f879796" x="300.206668" y="299.842784" style="fill: #7b2d8b; stroke: #7b2d8b"/>
     <use xlink:href="#mac6f879796" x="304.728688" y="299.842784" style="fill: #7b2d8b; stroke: #7b2d8b"/>
    </g>
   </g>
   <g id="line2d_17">
    <path d="M 304.728688 299.842784 
L 300.206668 299.842784 
L 295.684647 299.842784 
L 291.162626 299.842784 
L 286.640606 299.842784 
L 282.118585 299.842784 
L 277.596565 299.842784 
L 273.074544 299.842784 
L 268.552523 299.842784 
L 264.030503 299.842784 
L 259.508482 299.842784 
L 254.986461 299.842784 
L 250.464441 299.842784 
L 245.94242 299.842784 
L 241.420399 299.842784 
L 236.898379 299.842784 
L 232.376358 299.842784 
L 227.854338 299.842784 
L 223.332317 299.842784 
L 218.810296 299.842784 
L 214.288276 299.842784 
L 209.766255 299.842784 
L 205.244234 299.842784 
L 200.722214 299.842784 
L 196.200193 299.842784 
L 191.678172 299.842784 
L 187.156152 299.842784 
L 182.634131 299.842784 
L 178.11211 299.842784 
L 173.59009 299.842784 
L 169.068069 299.842784 
L 164.546049 299.842784 
L 160.024028 299.842784 
L 155.502007 299.842784 
L 150.979987 299.842784 
L 146.457966 299.842784 
L 141.935945 299.842784 
L 137.413925 299.842784 
L 132.891904 299.842784 
L 128.369883 299.842784 
L 123.847863 299.842784 
L 119.325842 299.842784 
L 114.803822 299.842784 
L 110.281801 299.842784 
L 105.75978 299.842784 
L 101.23776 299.842784 
L 96.715739 299.842784 
L 92.193718 299.842784 
L 87.671698 299.842784 
L 83.149677 299.842784 
" clip-path="url(#pf8c849ff02)" style="fill: none; stroke: #4682b4; stroke-width: 2; stroke-linecap: square"/>
    <defs>
     <path id="mb3a48bf4a9" d="M -2 2 
L 2 2 
L 2 -2 
L -2 -2 
z
" style="stroke: #4682b4; stroke-linejoin: miter"/>
    </defs>
    <g clip-path="url(#pf8c849ff02)">
     <use xlink:href="#mb3a48bf4a9" x="304.728688" y="299.842784" style="fill: #4682b4; stroke: #4682b4; stroke-linejoin: miter"/>
     <use xlink:href="#mb3a48bf4a9" x="300.206668" y="299.842784" style="fill: #4682b4; stroke: #4682b4; stroke-linejoin: miter"/>
     <use xlink:href="#mb3a48bf4a9" x="295.684647" y="299.842784" style="fill: #4682b4; stroke: #4682b4; stroke-linejoin: miter"/>
     <use xlink:href="#mb3a48bf4a9" x="291.162626" y="299.842784" style="fill: #4682b4; stroke: #4682b4; stroke-linejoin: miter"/>
     <use xlink:href="#mb3a48bf4a9" x="286.640606" y="299.842784" style="fill: #4682b4; stroke: #4682b4; stroke-linejoin: miter"/>
     <use xlink:href="#mb3a48bf4a9" x="282.118585" y="299.842784" style="fill: #4682b4; stroke: #4682b4; stroke-linejoin: miter"/>
     <use xlink:href="#mb3a48bf4a9" x="277.596565" y="299.842784" style="fill: #4682b4; stroke: #4682b4; stroke-linejoin: miter"/>
     <use xlink:href="#mb3a48bf4a9" x="273.074544" y="299.842784" style="fill: #4682b4; stroke: #4682b4; stroke-linejoin: miter"/>
     <use xlink:href="#mb3a48bf4a9" x="268.552523" y="299.842784" style="fill: #4682b4; stroke: #4682b4; stroke-linejoin: miter"/>
     <use xlink:href="#mb3a48bf4a9" x="264.030503" y="299.842784" style="fill: #4682b4; stroke: #4682b4; stroke-linejoin: miter"/>
     <use xlink:href="#mb3a48bf4a9" x="259.508482" y="299.842784" style="fill: #4682b4; stroke: #4682b4; stroke-linejoin: miter"/>
     <use xlink:href="#mb3a48bf4a9" x="254.986461" y="299.842784" style="fill: #4682b4; stroke: #4682b4; stroke-linejoin: miter"/>
     <use xlink:href="#mb3a48bf4a9" x="250.464441" y="299.842784" style="fill: #4682b4; stroke: #4682b4; stroke-linejoin: miter"/>
     <use xlink:href="#mb3a48bf4a9" x="245.94242" y="299.842784" style="fill: #4682b4; stroke: #4682b4; stroke-linejoin: miter"/>
     <use xlink:href="#mb3a48bf4a9" x="241.420399" y="299.842784" style="fill: #4682b4; stroke: #4682b4; stroke-linejoin: miter"/>
     <use xlink:href="#mb3a48bf4a9" x="236.898379" y="299.842784" style="fill: #4682b4; stroke: #4682b4; stroke-linejoin: miter"/>
     <use xlink:href="#mb3a48bf4a9" x="232.376358" y="299.842784" style="fill: #4682b4; stroke: #4682b4; stroke-linejoin: miter"/>
     <use xlink:href="#mb3a48bf4a9" x="227.854338" y="299.842784" style="fill: #4682b4; stroke: #4682b4; stroke-linejoin: miter"/>
     <use xlink:href="#mb3a48bf4a9" x="223.332317" y="299.842784" style="fill: #4682b4; stroke: #4682b4; stroke-linejoin: miter"/>
     <use xlink:href="#mb3a48bf4a9" x="218.810296" y="299.842784" style="fill: #4682b4; stroke: #4682b4; stroke-linejoin: miter"/>
     <use xlink:href="#mb3a48bf4a9" x="214.288276" y="299.842784" style="fill: #4682b4; stroke: #4682b4; stroke-linejoin: miter"/>
     <use xlink:href="#mb3a48bf4a9" x="209.766255" y="299.842784" style="fill: #4682b4; stroke: #4682b4; stroke-linejoin: miter"/>
     <use xlink:href="#mb3a48bf4a9" x="205.244234" y="299.842784" style="fill: #4682b4; stroke: #4682b4; stroke-linejoin: miter"/>
     <use xlink:href="#mb3a48bf4a9" x="200.722214" y="299.842784" style="fill: #4682b4; stroke: #4682b4; stroke-linejoin: miter"/>
     <use xlink:href="#mb3a48bf4a9" x="196.200193" y="299.842784" style="fill: #4682b4; stroke: #4682b4; stroke-linejoin: miter"/>
     <use xlink:href="#mb3a48bf4a9" x="191.678172" y="299.842784" style="fill: #4682b4; stroke: #4682b4; stroke-linejoin: miter"/>
     <use xlink:href="#mb3a48bf4a9" x="187.156152" y="299.842784" style="fill: #4682b4; stroke: #4682b4; stroke-linejoin: miter"/>
     <use xlink:href="#mb3a48bf4a9" x="182.634131" y="299.842784" style="fill: #4682b4; stroke: #4682b4; stroke-linejoin: miter"/>
     <use xlink:href="#mb3a48bf4a9" x="178.11211" y="299.842784" style="fill: #4682b4; stroke: #4682b4; stroke-linejoin: miter"/>
     <use xlink:href="#mb3a48bf4a9" x="173.59009" y="299.842784" style="fill: #4682b4; stroke: #4682b4; stroke-linejoin: miter"/>
     <use xlink:href="#mb3a48bf4a9" x="169.068069" y="299.842784" style="fill: #4682b4; stroke: #4682b4; stroke-linejoin: miter"/>
     <use xlink:href="#mb3a48bf4a9" x="164.546049" y="299.842784" style="fill: #4682b4; stroke: #4682b4; stroke-linejoin: miter"/>
     <use xlink:href="#mb3a48bf4a9" x="160.024028" y="299.842784" style="fill: #4682b4; stroke: #4682b4; stroke-linejoin: miter"/>
     <use xlink:href="#mb3a48bf4a9" x="155.502007" y="299.842784" style="fill: #4682b4; stroke: #4682b4; stroke-linejoin: miter"/>
     <use xlink:href="#mb3a48bf4a9" x="150.979987" y="299.842784" style="fill: #4682b4; stroke: #4682b4; stroke-linejoin: miter"/>
     <use xlink:href="#mb3a48bf4a9" x="146.457966" y="299.842784" style="fill: #4682b4; stroke: #4682b4; stroke-linejoin: miter"/>
     <use xlink:href="#mb3a48bf4a9" x="141.935945" y="299.842784" style="fill: #4682b4; stroke: #4682b4; stroke-linejoin: miter"/>
     <use xlink:href="#mb3a48bf4a9" x="137.413925" y="299.842784" style="fill: #4682b4; stroke: #4682b4; stroke-linejoin: miter"/>
     <use xlink:href="#mb3a48bf4a9" x="132.891904" y="299.842784" style="fill: #4682b4; stroke: #4682b4; stroke-linejoin: miter"/>
     <use xlink:href="#mb3a48bf4a9" x="128.369883" y="299.842784" style="fill: #4682b4; stroke: #4682b4; stroke-linejoin: miter"/>
     <use xlink:href="#mb3a48bf4a9" x="123.847863" y="299.842784" style="fill: #4682b4; stroke: #4682b4; stroke-linejoin: miter"/>
     <use xlink:href="#mb3a48bf4a9" x="119.325842" y="299.842784" style="fill: #4682b4; stroke: #4682b4; stroke-linejoin: miter"/>
     <use xlink:href="#mb3a48bf4a9" x="114.803822" y="299.842784" style="fill: #4682b4; stroke: #4682b4; stroke-linejoin: miter"/>
     <use xlink:href="#mb3a48bf4a9" x="110.281801" y="299.842784" style="fill: #4682b4; stroke: #4682b4; stroke-linejoin: miter"/>
     <use xlink:href="#mb3a48bf4a9" x="105.75978" y="299.842784" style="fill: #4682b4; stroke: #4682b4; stroke-linejoin: miter"/>
     <use xlink:href="#mb3a48bf4a9" x="101.23776" y="299.842784" style="fill: #4682b4; stroke: #4682b4; stroke-linejoin: miter"/>
     <use xlink:href="#mb3a48bf4a9" x="96.715739" y="299.842784" style="fill: #4682b4; stroke: #4682b4; stroke-linejoin: miter"/>
     <use xlink:href="#mb3a48bf4a9" x="92.193718" y="299.842784" style="fill: #4682b4; stroke: #4682b4; stroke-linejoin: miter"/>
     <use xlink:href="#mb3a48bf4a9" x="87.671698" y="299.842784" style="fill: #4682b4; stroke: #4682b4; stroke-linejoin: miter"/>
     <use xlink:href="#mb3a48bf4a9" x="83.149677" y="299.842784" style="fill: #4682b4; stroke: #4682b4; stroke-linejoin: miter"/>
    </g>
   </g>
   <g id="patch_3">
    <path d="M 41.570938 312.507875 
L 41.570938 33.875875 
" style="fill: none; stroke: #000000; stroke-width: 0.8; stroke-linejoin: miter; stroke-linecap: square"/>
   </g>
   <g id="patch_4">
    <path d="M 458.880938 312.507875 
L 458.880938 33.875875 
" style="fill: none; stroke: #000000; stroke-width: 0.8; stroke-linejoin: miter; stroke-linecap: square"/>
   </g>
   <g id="patch_5">
    <path d="M 41.570938 312.507875 
L 458.880938 312.507875 
" style="fill: none; stroke: #000000; stroke-width: 0.8; stroke-linejoin: miter; stroke-linecap: square"/>
   </g>
   <g id="patch_6">
    <path d="M 41.570938 33.875875 
L 458.880938 33.875875 
" style="fill: none; stroke: #000000; stroke-width: 0.8; stroke-linejoin: miter; stroke-linecap: square"/>
   </g>
   <g id="text_18">
    <!-- Pe hysteresis loop -->
    <g transform="translate(200.552344 15.558281) scale(0.11 -0.11)">
     <defs>
      <path id="DejaVuSans-68" d="M 3513 2113 
L 3513 0 
L 2938 0 
L 2938 2094 
Q 2938 2591 2744 2837 
Q 2550 3084 2163 3084 
Q 1697 3084 1428 2787 
Q 1159 2491 1159 1978 
L 1159 0 
L 581 0 
L 581 4863 
L 1159 4863 
L 1159 2956 
Q 1366 3272 1645 3428 
Q 1925 3584 2291 3584 
Q 2894 3584 3203 3211 
Q 3513 2838 3513 2113 
z
" transform="scale(0.015625)"/>
      <path id="DejaVuSans-79" d="M 2059 -325 
Q 1816 -950 1584 -1140 
Q 1353 -1331 966 -1331 
L 506 -1331 
L 506 -850 
L 844 -850 
Q 1081 -850 1212 -737 
Q 1344 -625 1503 -206 
L 1606 56 
L 191 3500 
L 800 3500 
L 1894 763 
L 2988 3500 
L 3597 3500 
L 2059 -325 
z
" transform="scale(0.015625)"/>
      <path id="DejaVuSans-70" d="M 1159 525 
L 1159 -1331 
L 581 -1331 
L 581 3500 
L 1159 3500 
L 1159 2969 
Q 1341 3281 1617 3432 
Q 1894 3584 2278 3584 
Q 2916 3584 3314 3078 
Q 3713 2572 3713 1747 
Q 3713 922 3314 415 
Q 2916 -91 2278 -91 
Q 1894 -91 1617 61 
Q 1341 213 1159 525 
z
M 3116 1747 
Q 3116 2381 2855 2742 
Q 2594 3103 2138 3103 
Q 1681 3103 1420 2742 
Q 1159 2381 1159 1747 
Q 1159 1113 1420 752 
Q 1681 391 2138 391 
Q 2594 391 2855 752 
Q 3116 1113 3116 1747 
z
" transform="scale(0.015625)"/>
     </defs>
     <use xlink:href="#DejaVuSans-50"/>
     <use xlink:href="#DejaVuSans-65" transform="translate(56.677734 0)"/>
     <use xlink:href="#DejaVuSans-20" transform="translate(118.201172 0)"/>
     <use xlink:href="#DejaVuSans-68" transform="translate(149.988281 0)"/>
     <use xlink:href="#DejaVuSans-79" transform="translate(213.367188 0)"/>
     <use xlink:href="#DejaVuSans-73" transform="translate(272.546875 0)"/>
     <use xlink:href="#DejaVuSans-74" transform="translate(324.646484 0)"/>
     <use xlink:href="#DejaVuSans-65" transform="translate(363.855469 0)"/>
     <use xlink:href="#DejaVuSans-72" transform="translate(425.378906 0)"/>
     <use xlink:href="#DejaVuSans-65" transform="translate(464.242188 0)"/>
     <use xlink:href="#DejaVuSans-73" transform="translate(525.765625 0)"/>
     <use xlink:href="#DejaVuSans-69" transform="translate(577.865234 0)"/>
     <use xlink:href="#DejaVuSans-73" transform="translate(605.648438 0)"/>
     <use xlink:href="#DejaVuSans-20" transform="translate(657.748047 0)"/>
     <use xlink:href="#DejaVuSans-6c" transform="translate(689.535156 0)"/>
     <use xlink:href="#DejaVuSans-6f" transform="translate(717.318359 0)"/>
     <use xlink:href="#DejaVuSans-6f" transform="translate(778.5 0)"/>
     <use xlink:href="#DejaVuSans-70" transform="translate(839.681641 0)"/>
    </g>
    <!-- (entry vs recovery traverse different Pe paths) -->
    <g transform="translate(122.469531 27.875875) scale(0.11 -0.11)">
     <defs>
      <path id="DejaVuSans-63" d="M 3122 3366 
L 3122 2828 
Q 2878 2963 2633 3030 
Q 2388 3097 2138 3097 
Q 1578 3097 1268 2742 
Q 959 2388 959 1747 
Q 959 1106 1268 751 
Q 1578 397 2138 397 
Q 2388 397 2633 464 
Q 2878 531 3122 666 
L 3122 134 
Q 2881 22 2623 -34 
Q 2366 -91 2075 -91 
Q 1284 -91 818 406 
Q 353 903 353 1747 
Q 353 2603 823 3093 
Q 1294 3584 2113 3584 
Q 2378 3584 2631 3529 
Q 2884 3475 3122 3366 
z
" transform="scale(0.015625)"/>
      <path id="DejaVuSans-64" d="M 2906 2969 
L 2906 4863 
L 3481 4863 
L 3481 0 
L 2906 0 
L 2906 525 
Q 2725 213 2448 61 
Q 2172 -91 1784 -91 
Q 1150 -91 751 415 
Q 353 922 353 1747 
Q 353 2572 751 3078 
Q 1150 3584 1784 3584 
Q 2172 3584 2448 3432 
Q 2725 3281 2906 2969 
z
M 947 1747 
Q 947 1113 1208 752 
Q 1469 391 1925 391 
Q 2381 391 2643 752 
Q 2906 1113 2906 1747 
Q 2906 2381 2643 2742 
Q 2381 3103 1925 3103 
Q 1469 3103 1208 2742 
Q 947 2381 947 1747 
z
" transform="scale(0.015625)"/>
      <path id="DejaVuSans-66" d="M 2375 4863 
L 2375 4384 
L 1825 4384 
Q 1516 4384 1395 4259 
Q 1275 4134 1275 3809 
L 1275 3500 
L 2222 3500 
L 2222 3053 
L 1275 3053 
L 1275 0 
L 697 0 
L 697 3053 
L 147 3053 
L 147 3500 
L 697 3500 
L 697 3744 
Q 697 4328 969 4595 
Q 1241 4863 1831 4863 
L 2375 4863 
z
" transform="scale(0.015625)"/>
     </defs>
     <use xlink:href="#DejaVuSans-28"/>
     <use xlink:href="#DejaVuSans-65" transform="translate(39.013672 0)"/>
     <use xlink:href="#DejaVuSans-6e" transform="translate(100.537109 0)"/>
     <use xlink:href="#DejaVuSans-74" transform="translate(163.916016 0)"/>
     <use xlink:href="#DejaVuSans-72" transform="translate(203.125 0)"/>
     <use xlink:href="#DejaVuSans-79" transform="translate(244.238281 0)"/>
     <use xlink:href="#DejaVuSans-20" transform="translate(303.417969 0)"/>
     <use xlink:href="#DejaVuSans-76" transform="translate(335.205078 0)"/>
     <use xlink:href="#DejaVuSans-73" transform="translate(394.384766 0)"/>
     <use xlink:href="#DejaVuSans-20" transform="translate(446.484375 0)"/>
     <use xlink:href="#DejaVuSans-72" transform="translate(478.271484 0)"/>
     <use xlink:href="#DejaVuSans-65" transform="translate(517.134766 0)"/>
     <use xlink:href="#DejaVuSans-63" transform="translate(578.658203 0)"/>
     <use xlink:href="#DejaVuSans-6f" transform="translate(633.638672 0)"/>
     <use xlink:href="#DejaVuSans-76" transform="translate(694.820312 0)"/>
     <use xlink:href="#DejaVuSans-65" transform="translate(754 0)"/>
     <use xlink:href="#DejaVuSans-72" transform="translate(815.523438 0)"/>
     <use xlink:href="#DejaVuSans-79" transform="translate(856.636719 0)"/>
     <use xlink:href="#DejaVuSans-20" transform="translate(915.816406 0)"/>
     <use xlink:href="#DejaVuSans-74" transform="translate(947.603516 0)"/>
     <use xlink:href="#DejaVuSans-72" transform="translate(986.8125 0)"/>
     <use xlink:href="#DejaVuSans-61" transform="translate(1027.925781 0)"/>
     <use xlink:href="#DejaVuSans-76" transform="translate(1089.205078 0)"/>
     <use xlink:href="#DejaVuSans-65" transform="translate(1148.384766 0)"/>
     <use xlink:href="#DejaVuSans-72" transform="translate(1209.908203 0)"/>
     <use xlink:href="#DejaVuSans-73" transform="translate(1251.021484 0)"/>
     <use xlink:href="#DejaVuSans-65" transform="translate(1303.121094 0)"/>
     <use xlink:href="#DejaVuSans-20" transform="translate(1364.644531 0)"/>
     <use xlink:href="#DejaVuSans-64" transform="translate(1396.431641 0)"/>
     <use xlink:href="#DejaVuSans-69" transform="translate(1459.908203 0)"/>
     <use xlink:href="#DejaVuSans-66" transform="translate(1487.691406 0)"/>
     <use xlink:href="#DejaVuSans-66" transform="translate(1522.896484 0)"/>
     <use xlink:href="#DejaVuSans-65" transform="translate(1558.101562 0)"/>
     <use xlink:href="#DejaVuSans-72" transform="translate(1619.625 0)"/>
     <use xlink:href="#DejaVuSans-65" transform="translate(1658.488281 0)"/>
     <use xlink:href="#DejaVuSans-6e" transform="translate(1720.011719 0)"/>
     <use xlink:href="#DejaVuSans-74" transform="translate(1783.390625 0)"/>
     <use xlink:href="#DejaVuSans-20" transform="translate(1822.599609 0)"/>
     <use xlink:href="#DejaVuSans-50" transform="translate(1854.386719 0)"/>
     <use xlink:href="#DejaVuSans-65" transform="translate(1911.064453 0)"/>
     <use xlink:href="#DejaVuSans-20" transform="translate(1972.587891 0)"/>
     <use xlink:href="#DejaVuSans-70" transform="translate(2004.375 0)"/>
     <use xlink:href="#DejaVuSans-61" transform="translate(2067.851562 0)"/>
     <use xlink:href="#DejaVuSans-74" transform="translate(2129.130859 0)"/>
     <use xlink:href="#DejaVuSans-68" transform="translate(2168.339844 0)"/>
     <use xlink:href="#DejaVuSans-73" transform="translate(2231.71875 0)"/>
     <use xlink:href="#DejaVuSans-29" transform="translate(2283.818359 0)"/>
    </g>
   </g>
   <g id="line2d_18">
    <path d="M 327.338792 66.325664 
L 317.523436 76.794513 
L 307.70808 86.922061 
L 297.892724 96.723802 
L 288.077368 106.214738 
L 278.262012 115.409389 
L 267.554351 125.118527 
L 256.846691 134.50948 
L 246.13903 143.599348 
L 235.431369 152.404685 
L 223.831403 161.641302 
L 212.231437 170.582542 
L 200.631471 179.247515 
L 188.1392 188.291294 
L 175.646929 197.058556 
L 162.262353 206.169882 
L 148.877776 215.014645 
L 134.600895 224.183593 
L 119.431709 233.657846 
L 103.370218 243.42644 
L 85.524116 254.010972 
L 65.893404 265.388133 
L 60.539574 268.451484 
L 60.539574 268.451484 
" clip-path="url(#pf8c849ff02)" style="fill: none; stroke: #000000; stroke-width: 2; stroke-linecap: square"/>
   </g>
   <g id="legend_1">
    <g id="patch_7">
     <path d="M 47.170938 110.953375 
L 207.130938 110.953375 
Q 208.730938 110.953375 208.730938 109.353375 
L 208.730938 39.475875 
Q 208.730938 37.875875 207.130938 37.875875 
L 47.170938 37.875875 
Q 45.570938 37.875875 45.570938 39.475875 
L 45.570938 109.353375 
Q 45.570938 110.953375 47.170938 110.953375 
z
" style="fill: #ffffff; opacity: 0.8; stroke: #cccccc; stroke-linejoin: miter"/>
    </g>
    <g id="line2d_19">
     <path d="M 48.770938 44.354625 
L 56.770938 44.354625 
L 64.770938 44.354625 
" style="fill: none; stroke: #000000; stroke-width: 2; stroke-linecap: square"/>
    </g>
    <g id="text_19">
     <!-- Equilibrium Pe(c) -->
     <g transform="translate(71.170938 47.154625) scale(0.08 -0.08)">
      <defs>
       <path id="DejaVuSans-45" d="M 628 4666 
L 3578 4666 
L 3578 4134 
L 1259 4134 
L 1259 2753 
L 3481 2753 
L 3481 2222 
L 1259 2222 
L 1259 531 
L 3634 531 
L 3634 0 
L 628 0 
L 628 4666 
z
" transform="scale(0.015625)"/>
       <path id="DejaVuSans-71" d="M 947 1747 
Q 947 1113 1208 752 
Q 1469 391 1925 391 
Q 2381 391 2643 752 
Q 2906 1113 2906 1747 
Q 2906 2381 2643 2742 
Q 2381 3103 1925 3103 
Q 1469 3103 1208 2742 
Q 947 2381 947 1747 
z
M 2906 525 
Q 2725 213 2448 61 
Q 2172 -91 1784 -91 
Q 1150 -91 751 415 
Q 353 922 353 1747 
Q 353 2572 751 3078 
Q 1150 3584 1784 3584 
Q 2172 3584 2448 3432 
Q 2725 3281 2906 2969 
L 2906 3500 
L 3481 3500 
L 3481 -1331 
L 2906 -1331 
L 2906 525 
z
" transform="scale(0.015625)"/>
       <path id="DejaVuSans-75" d="M 544 1381 
L 544 3500 
L 1119 3500 
L 1119 1403 
Q 1119 906 1312 657 
Q 1506 409 1894 409 
Q 2359 409 2629 706 
Q 2900 1003 2900 1516 
L 2900 3500 
L 3475 3500 
L 3475 0 
L 2900 0 
L 2900 538 
Q 2691 219 2414 64 
Q 2138 -91 1772 -91 
Q 1169 -91 856 284 
Q 544 659 544 1381 
z
M 1991 3584 
L 1991 3584 
z
" transform="scale(0.015625)"/>
       <path id="DejaVuSans-62" d="M 3116 1747 
Q 3116 2381 2855 2742 
Q 2594 3103 2138 3103 
Q 1681 3103 1420 2742 
Q 1159 2381 1159 1747 
Q 1159 1113 1420 752 
Q 1681 391 2138 391 
Q 2594 391 2855 752 
Q 3116 1113 3116 1747 
z
M 1159 2969 
Q 1341 3281 1617 3432 
Q 1894 3584 2278 3584 
Q 2916 3584 3314 3078 
Q 3713 2572 3713 1747 
Q 3713 922 3314 415 
Q 2916 -91 2278 -91 
Q 1894 -91 1617 61 
Q 1341 213 1159 525 
L 1159 0 
L 581 0 
L 581 4863 
L 1159 4863 
L 1159 2969 
z
" transform="scale(0.015625)"/>
      </defs>
      <use xlink:href="#DejaVuSans-45"/>
      <use xlink:href="#DejaVuSans-71" transform="translate(63.183594 0)"/>
      <use xlink:href="#DejaVuSans-75" transform="translate(126.660156 0)"/>
      <use xlink:href="#DejaVuSans-69" transform="translate(190.039062 0)"/>
      <use xlink:href="#DejaVuSans-6c" transform="translate(217.822266 0)"/>
      <use xlink:href="#DejaVuSans-69" transform="translate(245.605469 0)"/>
      <use xlink:href="#DejaVuSans-62" transform="translate(273.388672 0)"/>
      <use xlink:href="#DejaVuSans-72" transform="translate(336.865234 0)"/>
      <use xlink:href="#DejaVuSans-69" transform="translate(377.978516 0)"/>
      <use xlink:href="#DejaVuSans-75" transform="translate(405.761719 0)"/>
      <use xlink:href="#DejaVuSans-6d" transform="translate(469.140625 0)"/>
      <use xlink:href="#DejaVuSans-20" transform="translate(566.552734 0)"/>
      <use xlink:href="#DejaVuSans-50" transform="translate(598.339844 0)"/>
      <use xlink:href="#DejaVuSans-65" transform="translate(655.017578 0)"/>
      <use xlink:href="#DejaVuSans-28" transform="translate(716.541016 0)"/>
      <use xlink:href="#DejaVuSans-63" transform="translate(755.554688 0)"/>
      <use xlink:href="#DejaVuSans-29" transform="translate(810.535156 0)"/>
     </g>
    </g>
    <g id="line2d_20">
     <path d="M 48.770938 56.097125 
L 56.770938 56.097125 
L 64.770938 56.097125 
" style="fill: none; stroke: #7b2d8b; stroke-width: 2; stroke-linecap: square"/>
     <g>
      <use xlink:href="#mac6f879796" x="56.770938" y="56.097125" style="fill: #7b2d8b; stroke: #7b2d8b"/>
     </g>
    </g>
    <g id="text_20">
     <!-- Entry ramp (bulldeep) -->
     <g transform="translate(71.170938 58.897125) scale(0.08 -0.08)">
      <defs>
       <path id="DejaVuSans-2192" d="M 5050 2147 
L 5050 1866 
L 3822 638 
L 3447 1013 
L 4175 1741 
L 366 1741 
L 366 2272 
L 4175 2272 
L 3447 3000 
L 3822 3375 
L 5050 2147 
z
" transform="scale(0.015625)"/>
      </defs>
      <use xlink:href="#DejaVuSans-45"/>
      <use xlink:href="#DejaVuSans-6e" transform="translate(63.183594 0)"/>
      <use xlink:href="#DejaVuSans-74" transform="translate(126.5625 0)"/>
      <use xlink:href="#DejaVuSans-72" transform="translate(165.771484 0)"/>
      <use xlink:href="#DejaVuSans-79" transform="translate(206.884766 0)"/>
      <use xlink:href="#DejaVuSans-20" transform="translate(266.064453 0)"/>
      <use xlink:href="#DejaVuSans-72" transform="translate(297.851562 0)"/>
      <use xlink:href="#DejaVuSans-61" transform="translate(338.964844 0)"/>
      <use xlink:href="#DejaVuSans-6d" transform="translate(400.244141 0)"/>
      <use xlink:href="#DejaVuSans-70" transform="translate(497.65625 0)"/>
      <use xlink:href="#DejaVuSans-20" transform="translate(561.132812 0)"/>
      <use xlink:href="#DejaVuSans-28" transform="translate(592.919922 0)"/>
      <use xlink:href="#DejaVuSans-62" transform="translate(631.933594 0)"/>
      <use xlink:href="#DejaVuSans-75" transform="translate(695.410156 0)"/>
      <use xlink:href="#DejaVuSans-6c" transform="translate(758.789062 0)"/>
      <use xlink:href="#DejaVuSans-6c" transform="translate(786.572266 0)"/>
      <use xlink:href="#DejaVuSans-2192" transform="translate(814.355469 0)"/>
      <use xlink:href="#DejaVuSans-64" transform="translate(898.144531 0)"/>
      <use xlink:href="#DejaVuSans-65" transform="translate(961.621094 0)"/>
      <use xlink:href="#DejaVuSans-65" transform="translate(1023.144531 0)"/>
      <use xlink:href="#DejaVuSans-70" transform="translate(1084.667969 0)"/>
      <use xlink:href="#DejaVuSans-29" transform="translate(1148.144531 0)"/>
     </g>
    </g>
    <g id="line2d_21">
     <path d="M 48.770938 67.839625 
L 56.770938 67.839625 
L 64.770938 67.839625 
" style="fill: none; stroke: #4682b4; stroke-width: 2; stroke-linecap: square"/>
     <g>
      <use xlink:href="#mb3a48bf4a9" x="56.770938" y="67.839625" style="fill: #4682b4; stroke: #4682b4; stroke-linejoin: miter"/>
     </g>
    </g>
    <g id="text_21">
     <!-- Recovery ramp (deepbull) -->
     <g transform="translate(71.170938 70.639625) scale(0.08 -0.08)">
      <defs>
       <path id="DejaVuSans-52" d="M 2841 2188 
Q 3044 2119 3236 1894 
Q 3428 1669 3622 1275 
L 4263 0 
L 3584 0 
L 2988 1197 
Q 2756 1666 2539 1819 
Q 2322 1972 1947 1972 
L 1259 1972 
L 1259 0 
L 628 0 
L 628 4666 
L 2053 4666 
Q 2853 4666 3247 4331 
Q 3641 3997 3641 3322 
Q 3641 2881 3436 2590 
Q 3231 2300 2841 2188 
z
M 1259 4147 
L 1259 2491 
L 2053 2491 
Q 2509 2491 2742 2702 
Q 2975 2913 2975 3322 
Q 2975 3731 2742 3939 
Q 2509 4147 2053 4147 
L 1259 4147 
z
" transform="scale(0.015625)"/>
      </defs>
      <use xlink:href="#DejaVuSans-52"/>
      <use xlink:href="#DejaVuSans-65" transform="translate(64.982422 0)"/>
      <use xlink:href="#DejaVuSans-63" transform="translate(126.505859 0)"/>
      <use xlink:href="#DejaVuSans-6f" transform="translate(181.486328 0)"/>
      <use xlink:href="#DejaVuSans-76" transform="translate(242.667969 0)"/>
      <use xlink:href="#DejaVuSans-65" transform="translate(301.847656 0)"/>
      <use xlink:href="#DejaVuSans-72" transform="translate(363.371094 0)"/>
      <use xlink:href="#DejaVuSans-79" transform="translate(404.484375 0)"/>
      <use xlink:href="#DejaVuSans-20" transform="translate(463.664062 0)"/>
      <use xlink:href="#DejaVuSans-72" transform="translate(495.451172 0)"/>
      <use xlink:href="#DejaVuSans-61" transform="translate(536.564453 0)"/>
      <use xlink:href="#DejaVuSans-6d" transform="translate(597.84375 0)"/>
      <use xlink:href="#DejaVuSans-70" transform="translate(695.255859 0)"/>
      <use xlink:href="#DejaVuSans-20" transform="translate(758.732422 0)"/>
      <use xlink:href="#DejaVuSans-28" transform="translate(790.519531 0)"/>
      <use xlink:href="#DejaVuSans-64" transform="translate(829.533203 0)"/>
      <use xlink:href="#DejaVuSans-65" transform="translate(893.009766 0)"/>
      <use xlink:href="#DejaVuSans-65" transform="translate(954.533203 0)"/>
      <use xlink:href="#DejaVuSans-70" transform="translate(1016.056641 0)"/>
      <use xlink:href="#DejaVuSans-2192" transform="translate(1079.533203 0)"/>
      <use xlink:href="#DejaVuSans-62" transform="translate(1163.322266 0)"/>
      <use xlink:href="#DejaVuSans-75" transform="translate(1226.798828 0)"/>
      <use xlink:href="#DejaVuSans-6c" transform="translate(1290.177734 0)"/>
      <use xlink:href="#DejaVuSans-6c" transform="translate(1317.960938 0)"/>
      <use xlink:href="#DejaVuSans-29" transform="translate(1345.744141 0)"/>
     </g>
    </g>
    <g id="PathCollection_1">
     <defs>
      <path id="m066a39ea4c" d="M 0 6.123724 
C 1.624031 6.123724 3.181764 5.47849 4.330127 4.330127 
C 5.47849 3.181764 6.123724 1.624031 6.123724 0 
C 6.123724 -1.624031 5.47849 -3.181764 4.330127 -4.330127 
C 3.181764 -5.47849 1.624031 -6.123724 0 -6.123724 
C -1.624031 -6.123724 -3.181764 -5.47849 -4.330127 -4.330127 
C -5.47849 -3.181764 -6.123724 -1.624031 -6.123724 0 
C -6.123724 1.624031 -5.47849 3.181764 -4.330127 4.330127 
C -3.181764 5.47849 -1.624031 6.123724 0 6.123724 
z
" style="stroke: #000000"/>
     </defs>
     <g>
      <use xlink:href="#m066a39ea4c" x="56.770938" y="80.282125" style="fill: #ffd700; stroke: #000000"/>
     </g>
    </g>
    <g id="text_22">
     <!-- Baseline (c_bull=0.337, Pe=3.53) -->
     <g transform="translate(71.170938 82.382125) scale(0.08 -0.08)">
      <defs>
       <path id="DejaVuSans-42" d="M 1259 2228 
L 1259 519 
L 2272 519 
Q 2781 519 3026 730 
Q 3272 941 3272 1375 
Q 3272 1813 3026 2020 
Q 2781 2228 2272 2228 
L 1259 2228 
z
M 1259 4147 
L 1259 2741 
L 2194 2741 
Q 2656 2741 2882 2914 
Q 3109 3088 3109 3444 
Q 3109 3797 2882 3972 
Q 2656 4147 2194 4147 
L 1259 4147 
z
M 628 4666 
L 2241 4666 
Q 2963 4666 3353 4366 
Q 3744 4066 3744 3513 
Q 3744 3084 3544 2831 
Q 3344 2578 2956 2516 
Q 3422 2416 3680 2098 
Q 3938 1781 3938 1306 
Q 3938 681 3513 340 
Q 3088 0 2303 0 
L 628 0 
L 628 4666 
z
" transform="scale(0.015625)"/>
       <path id="DejaVuSans-5f" d="M 3263 -1063 
L 3263 -1509 
L -63 -1509 
L -63 -1063 
L 3263 -1063 
z
" transform="scale(0.015625)"/>
       <path id="DejaVuSans-3d" d="M 678 2906 
L 4684 2906 
L 4684 2381 
L 678 2381 
L 678 2906 
z
M 678 1631 
L 4684 1631 
L 4684 1100 
L 678 1100 
L 678 1631 
z
" transform="scale(0.015625)"/>
       <path id="DejaVuSans-37" d="M 525 4666 
L 3525 4666 
L 3525 4397 
L 1831 0 
L 1172 0 
L 2766 4134 
L 525 4134 
L 525 4666 
z
" transform="scale(0.015625)"/>
       <path id="DejaVuSans-2c" d="M 750 794 
L 1409 794 
L 1409 256 
L 897 -744 
L 494 -744 
L 750 256 
L 750 794 
z
" transform="scale(0.015625)"/>
      </defs>
      <use xlink:href="#DejaVuSans-42"/>
      <use xlink:href="#DejaVuSans-61" transform="translate(68.603516 0)"/>
      <use xlink:href="#DejaVuSans-73" transform="translate(129.882812 0)"/>
      <use xlink:href="#DejaVuSans-65" transform="translate(181.982422 0)"/>
      <use xlink:href="#DejaVuSans-6c" transform="translate(243.505859 0)"/>
      <use xlink:href="#DejaVuSans-69" transform="translate(271.289062 0)"/>
      <use xlink:href="#DejaVuSans-6e" transform="translate(299.072266 0)"/>
      <use xlink:href="#DejaVuSans-65" transform="translate(362.451172 0)"/>
      <use xlink:href="#DejaVuSans-20" transform="translate(423.974609 0)"/>
      <use xlink:href="#DejaVuSans-28" transform="translate(455.761719 0)"/>
      <use xlink:href="#DejaVuSans-63" transform="translate(494.775391 0)"/>
      <use xlink:href="#DejaVuSans-5f" transform="translate(549.755859 0)"/>
      <use xlink:href="#DejaVuSans-62" transform="translate(599.755859 0)"/>
      <use xlink:href="#DejaVuSans-75" transform="translate(663.232422 0)"/>
      <use xlink:href="#DejaVuSans-6c" transform="translate(726.611328 0)"/>
      <use xlink:href="#DejaVuSans-6c" transform="translate(754.394531 0)"/>
      <use xlink:href="#DejaVuSans-3d" transform="translate(782.177734 0)"/>
      <use xlink:href="#DejaVuSans-30" transform="translate(865.966797 0)"/>
      <use xlink:href="#DejaVuSans-2e" transform="translate(929.589844 0)"/>
      <use xlink:href="#DejaVuSans-33" transform="translate(961.376953 0)"/>
      <use xlink:href="#DejaVuSans-33" transform="translate(1025 0)"/>
      <use xlink:href="#DejaVuSans-37" transform="translate(1088.623047 0)"/>
      <use xlink:href="#DejaVuSans-2c" transform="translate(1152.246094 0)"/>
      <use xlink:href="#DejaVuSans-20" transform="translate(1184.033203 0)"/>
      <use xlink:href="#DejaVuSans-50" transform="translate(1215.820312 0)"/>
      <use xlink:href="#DejaVuSans-65" transform="translate(1272.498047 0)"/>
      <use xlink:href="#DejaVuSans-3d" transform="translate(1334.021484 0)"/>
      <use xlink:href="#DejaVuSans-33" transform="translate(1417.810547 0)"/>
      <use xlink:href="#DejaVuSans-2e" transform="translate(1481.433594 0)"/>
      <use xlink:href="#DejaVuSans-35" transform="translate(1513.220703 0)"/>
      <use xlink:href="#DejaVuSans-33" transform="translate(1576.84375 0)"/>
      <use xlink:href="#DejaVuSans-29" transform="translate(1640.466797 0)"/>
     </g>
    </g>
    <g id="PathCollection_2">
     <defs>
      <path id="me5f6618cd6" d="M 0 6.123724 
C 1.624031 6.123724 3.181764 5.47849 4.330127 4.330127 
C 5.47849 3.181764 6.123724 1.624031 6.123724 0 
C 6.123724 -1.624031 5.47849 -3.181764 4.330127 -4.330127 
C 3.181764 -5.47849 1.624031 -6.123724 0 -6.123724 
C -1.624031 -6.123724 -3.181764 -5.47849 -4.330127 -4.330127 
C -5.47849 -3.181764 -6.123724 -1.624031 -6.123724 0 
C -6.123724 1.624031 -5.47849 3.181764 -4.330127 4.330127 
C -3.181764 5.47849 -1.624031 6.123724 0 6.123724 
z
" style="stroke: #000000"/>
     </defs>
     <g>
      <use xlink:href="#me5f6618cd6" x="56.770938" y="92.247125" style="fill: #7b2d8b; stroke: #000000"/>
     </g>
    </g>
    <g id="text_23">
     <!-- Deep void (c=0.10, Pe=26.7) -->
     <g transform="translate(71.170938 94.347125) scale(0.08 -0.08)">
      <defs>
       <path id="DejaVuSans-44" d="M 1259 4147 
L 1259 519 
L 2022 519 
Q 2988 519 3436 956 
Q 3884 1394 3884 2338 
Q 3884 3275 3436 3711 
Q 2988 4147 2022 4147 
L 1259 4147 
z
M 628 4666 
L 1925 4666 
Q 3281 4666 3915 4102 
Q 4550 3538 4550 2338 
Q 4550 1131 3912 565 
Q 3275 0 1925 0 
L 628 0 
L 628 4666 
z
" transform="scale(0.015625)"/>
       <path id="DejaVuSans-36" d="M 2113 2584 
Q 1688 2584 1439 2293 
Q 1191 2003 1191 1497 
Q 1191 994 1439 701 
Q 1688 409 2113 409 
Q 2538 409 2786 701 
Q 3034 994 3034 1497 
Q 3034 2003 2786 2293 
Q 2538 2584 2113 2584 
z
M 3366 4563 
L 3366 3988 
Q 3128 4100 2886 4159 
Q 2644 4219 2406 4219 
Q 1781 4219 1451 3797 
Q 1122 3375 1075 2522 
Q 1259 2794 1537 2939 
Q 1816 3084 2150 3084 
Q 2853 3084 3261 2657 
Q 3669 2231 3669 1497 
Q 3669 778 3244 343 
Q 2819 -91 2113 -91 
Q 1303 -91 875 529 
Q 447 1150 447 2328 
Q 447 3434 972 4092 
Q 1497 4750 2381 4750 
Q 2619 4750 2861 4703 
Q 3103 4656 3366 4563 
z
" transform="scale(0.015625)"/>
      </defs>
      <use xlink:href="#DejaVuSans-44"/>
      <use xlink:href="#DejaVuSans-65" transform="translate(77.001953 0)"/>
      <use xlink:href="#DejaVuSans-65" transform="translate(138.525391 0)"/>
      <use xlink:href="#DejaVuSans-70" transform="translate(200.048828 0)"/>
      <use xlink:href="#DejaVuSans-20" transform="translate(263.525391 0)"/>
      <use xlink:href="#DejaVuSans-76" transform="translate(295.3125 0)"/>
      <use xlink:href="#DejaVuSans-6f" transform="translate(354.492188 0)"/>
      <use xlink:href="#DejaVuSans-69" transform="translate(415.673828 0)"/>
      <use xlink:href="#DejaVuSans-64" transform="translate(443.457031 0)"/>
      <use xlink:href="#DejaVuSans-20" transform="translate(506.933594 0)"/>
      <use xlink:href="#DejaVuSans-28" transform="translate(538.720703 0)"/>
      <use xlink:href="#DejaVuSans-63" transform="translate(577.734375 0)"/>
      <use xlink:href="#DejaVuSans-3d" transform="translate(632.714844 0)"/>
      <use xlink:href="#DejaVuSans-30" transform="translate(716.503906 0)"/>
      <use xlink:href="#DejaVuSans-2e" transform="translate(780.126953 0)"/>
      <use xlink:href="#DejaVuSans-31" transform="translate(811.914062 0)"/>
      <use xlink:href="#DejaVuSans-30" transform="translate(875.537109 0)"/>
      <use xlink:href="#DejaVuSans-2c" transform="translate(939.160156 0)"/>
      <use xlink:href="#DejaVuSans-20" transform="translate(970.947266 0)"/>
      <use xlink:href="#DejaVuSans-50" transform="translate(1002.734375 0)"/>
      <use xlink:href="#DejaVuSans-65" transform="translate(1059.412109 0)"/>
      <use xlink:href="#DejaVuSans-3d" transform="translate(1120.935547 0)"/>
      <use xlink:href="#DejaVuSans-32" transform="translate(1204.724609 0)"/>
      <use xlink:href="#DejaVuSans-36" transform="translate(1268.347656 0)"/>
      <use xlink:href="#DejaVuSans-2e" transform="translate(1331.970703 0)"/>
      <use xlink:href="#DejaVuSans-37" transform="translate(1363.757812 0)"/>
      <use xlink:href="#DejaVuSans-29" transform="translate(1427.380859 0)"/>
     </g>
    </g>
    <g id="patch_8">
     <path d="M 48.770938 106.089625 
L 64.770938 106.089625 
L 64.770938 100.489625 
L 48.770938 100.489625 
z
" style="fill: #800080; fill-opacity: 0.12; stroke: #800080; stroke-opacity: 0.12; stroke-linejoin: miter"/>
    </g>
    <g id="text_24">
     <!-- Hysteresis area -->
     <g transform="translate(71.170938 106.089625) scale(0.08 -0.08)">
      <defs>
       <path id="DejaVuSans-48" d="M 628 4666 
L 1259 4666 
L 1259 2753 
L 3553 2753 
L 3553 4666 
L 4184 4666 
L 4184 0 
L 3553 0 
L 3553 2222 
L 1259 2222 
L 1259 0 
L 628 0 
L 628 4666 
z
" transform="scale(0.015625)"/>
      </defs>
      <use xlink:href="#DejaVuSans-48"/>
      <use xlink:href="#DejaVuSans-79" transform="translate(75.195312 0)"/>
      <use xlink:href="#DejaVuSans-73" transform="translate(134.375 0)"/>
      <use xlink:href="#DejaVuSans-74" transform="translate(186.474609 0)"/>
      <use xlink:href="#DejaVuSans-65" transform="translate(225.683594 0)"/>
      <use xlink:href="#DejaVuSans-72" transform="translate(287.207031 0)"/>
      <use xlink:href="#DejaVuSans-65" transform="translate(326.070312 0)"/>
      <use xlink:href="#DejaVuSans-73" transform="translate(387.59375 0)"/>
      <use xlink:href="#DejaVuSans-69" transform="translate(439.693359 0)"/>
      <use xlink:href="#DejaVuSans-73" transform="translate(467.476562 0)"/>
      <use xlink:href="#DejaVuSans-20" transform="translate(519.576172 0)"/>
      <use xlink:href="#DejaVuSans-61" transform="translate(551.363281 0)"/>
      <use xlink:href="#DejaVuSans-72" transform="translate(612.642578 0)"/>
      <use xlink:href="#DejaVuSans-65" transform="translate(651.505859 0)"/>
      <use xlink:href="#DejaVuSans-61" transform="translate(713.029297 0)"/>
     </g>
    </g>
   </g>
   <g id="PathCollection_3">
    <g clip-path="url(#pf8c849ff02)">
     <use xlink:href="#m066a39ea4c" x="60.539574" y="269.009839" style="fill: #ffd700; stroke: #000000"/>
    </g>
   </g>
   <g id="PathCollection_4">
    <g clip-path="url(#pf8c849ff02)">
     <use xlink:href="#me5f6618cd6" x="327.338792" y="66.325664" style="fill: #7b2d8b; stroke: #000000"/>
    </g>
   </g>
  </g>
  <g id="axes_2">
   <g id="patch_9">
    <path d="M 504.170938 312.507875 
L 921.480938 312.507875 
L 921.480938 33.875875 
L 504.170938 33.875875 
z
" style="fill: #ffffff"/>
   </g>
   <g id="matplotlib.axis_3">
    <g id="xtick_9">
     <g id="line2d_22">
      <g>
       <use xlink:href="#md83a51a69e" x="523.139574" y="312.507875" style="stroke: #000000; stroke-width: 0.8"/>
      </g>
     </g>
     <g id="text_25">
      <!-- 0 -->
      <g transform="translate(519.958324 327.106313) scale(0.1 -0.1)">
       <use xlink:href="#DejaVuSans-30"/>
      </g>
     </g>
    </g>
    <g id="xtick_10">
     <g id="line2d_23">
      <g>
       <use xlink:href="#md83a51a69e" x="592.749249" y="312.507875" style="stroke: #000000; stroke-width: 0.8"/>
      </g>
     </g>
     <g id="text_26">
      <!-- 20 -->
      <g transform="translate(586.386749 327.106313) scale(0.1 -0.1)">
       <use xlink:href="#DejaVuSans-32"/>
       <use xlink:href="#DejaVuSans-30" transform="translate(63.623047 0)"/>
      </g>
     </g>
    </g>
    <g id="xtick_11">
     <g id="line2d_24">
      <g>
       <use xlink:href="#md83a51a69e" x="662.358923" y="312.507875" style="stroke: #000000; stroke-width: 0.8"/>
      </g>
     </g>
     <g id="text_27">
      <!-- 40 -->
      <g transform="translate(655.996423 327.106313) scale(0.1 -0.1)">
       <defs>
        <path id="DejaVuSans-34" d="M 2419 4116 
L 825 1625 
L 2419 1625 
L 2419 4116 
z
M 2253 4666 
L 3047 4666 
L 3047 1625 
L 3713 1625 
L 3713 1100 
L 3047 1100 
L 3047 0 
L 2419 0 
L 2419 1100 
L 313 1100 
L 313 1709 
L 2253 4666 
z
" transform="scale(0.015625)"/>
       </defs>
       <use xlink:href="#DejaVuSans-34"/>
       <use xlink:href="#DejaVuSans-30" transform="translate(63.623047 0)"/>
      </g>
     </g>
    </g>
    <g id="xtick_12">
     <g id="line2d_25">
      <g>
       <use xlink:href="#md83a51a69e" x="731.968598" y="312.507875" style="stroke: #000000; stroke-width: 0.8"/>
      </g>
     </g>
     <g id="text_28">
      <!-- 60 -->
      <g transform="translate(725.606098 327.106313) scale(0.1 -0.1)">
       <use xlink:href="#DejaVuSans-36"/>
       <use xlink:href="#DejaVuSans-30" transform="translate(63.623047 0)"/>
      </g>
     </g>
    </g>
    <g id="xtick_13">
     <g id="line2d_26">
      <g>
       <use xlink:href="#md83a51a69e" x="801.578273" y="312.507875" style="stroke: #000000; stroke-width: 0.8"/>
      </g>
     </g>
     <g id="text_29">
      <!-- 80 -->
      <g transform="translate(795.215773 327.106313) scale(0.1 -0.1)">
       <defs>
        <path id="DejaVuSans-38" d="M 2034 2216 
Q 1584 2216 1326 1975 
Q 1069 1734 1069 1313 
Q 1069 891 1326 650 
Q 1584 409 2034 409 
Q 2484 409 2743 651 
Q 3003 894 3003 1313 
Q 3003 1734 2745 1975 
Q 2488 2216 2034 2216 
z
M 1403 2484 
Q 997 2584 770 2862 
Q 544 3141 544 3541 
Q 544 4100 942 4425 
Q 1341 4750 2034 4750 
Q 2731 4750 3128 4425 
Q 3525 4100 3525 3541 
Q 3525 3141 3298 2862 
Q 3072 2584 2669 2484 
Q 3125 2378 3379 2068 
Q 3634 1759 3634 1313 
Q 3634 634 3220 271 
Q 2806 -91 2034 -91 
Q 1263 -91 848 271 
Q 434 634 434 1313 
Q 434 1759 690 2068 
Q 947 2378 1403 2484 
z
M 1172 3481 
Q 1172 3119 1398 2916 
Q 1625 2713 2034 2713 
Q 2441 2713 2670 2916 
Q 2900 3119 2900 3481 
Q 2900 3844 2670 4047 
Q 2441 4250 2034 4250 
Q 1625 4250 1398 4047 
Q 1172 3844 1172 3481 
z
" transform="scale(0.015625)"/>
       </defs>
       <use xlink:href="#DejaVuSans-38"/>
       <use xlink:href="#DejaVuSans-30" transform="translate(63.623047 0)"/>
      </g>
     </g>
    </g>
    <g id="xtick_14">
     <g id="line2d_27">
      <g>
       <use xlink:href="#md83a51a69e" x="871.187948" y="312.507875" style="stroke: #000000; stroke-width: 0.8"/>
      </g>
     </g>
     <g id="text_30">
      <!-- 100 -->
      <g transform="translate(861.644198 327.106313) scale(0.1 -0.1)">
       <use xlink:href="#DejaVuSans-31"/>
       <use xlink:href="#DejaVuSans-30" transform="translate(63.623047 0)"/>
       <use xlink:href="#DejaVuSans-30" transform="translate(127.246094 0)"/>
      </g>
     </g>
    </g>
    <g id="text_31">
     <!-- Round -->
     <g transform="translate(695.423594 341.544281) scale(0.11 -0.11)">
      <use xlink:href="#DejaVuSans-52"/>
      <use xlink:href="#DejaVuSans-6f" transform="translate(64.982422 0)"/>
      <use xlink:href="#DejaVuSans-75" transform="translate(126.164062 0)"/>
      <use xlink:href="#DejaVuSans-6e" transform="translate(189.542969 0)"/>
      <use xlink:href="#DejaVuSans-64" transform="translate(252.921875 0)"/>
     </g>
    </g>
   </g>
   <g id="matplotlib.axis_4">
    <g id="ytick_8">
     <g id="line2d_28">
      <g>
       <use xlink:href="#m41b56bfc4e" x="504.170938" y="299.842784" style="stroke: #000000; stroke-width: 0.8"/>
      </g>
     </g>
     <g id="text_32">
      <!-- 0 -->
      <g transform="translate(490.808438 303.642003) scale(0.1 -0.1)">
       <use xlink:href="#DejaVuSans-30"/>
      </g>
     </g>
    </g>
    <g id="ytick_9">
     <g id="line2d_29">
      <g>
       <use xlink:href="#m41b56bfc4e" x="504.170938" y="252.469892" style="stroke: #000000; stroke-width: 0.8"/>
      </g>
     </g>
     <g id="text_33">
      <!-- 5 -->
      <g transform="translate(490.808438 256.269111) scale(0.1 -0.1)">
       <use xlink:href="#DejaVuSans-35"/>
      </g>
     </g>
    </g>
    <g id="ytick_10">
     <g id="line2d_30">
      <g>
       <use xlink:href="#m41b56bfc4e" x="504.170938" y="205.097001" style="stroke: #000000; stroke-width: 0.8"/>
      </g>
     </g>
     <g id="text_34">
      <!-- 10 -->
      <g transform="translate(484.445938 208.896219) scale(0.1 -0.1)">
       <use xlink:href="#DejaVuSans-31"/>
       <use xlink:href="#DejaVuSans-30" transform="translate(63.623047 0)"/>
      </g>
     </g>
    </g>
    <g id="ytick_11">
     <g id="line2d_31">
      <g>
       <use xlink:href="#m41b56bfc4e" x="504.170938" y="157.724109" style="stroke: #000000; stroke-width: 0.8"/>
      </g>
     </g>
     <g id="text_35">
      <!-- 15 -->
      <g transform="translate(484.445938 161.523328) scale(0.1 -0.1)">
       <use xlink:href="#DejaVuSans-31"/>
       <use xlink:href="#DejaVuSans-35" transform="translate(63.623047 0)"/>
      </g>
     </g>
    </g>
    <g id="ytick_12">
     <g id="line2d_32">
      <g>
       <use xlink:href="#m41b56bfc4e" x="504.170938" y="110.351217" style="stroke: #000000; stroke-width: 0.8"/>
      </g>
     </g>
     <g id="text_36">
      <!-- 20 -->
      <g transform="translate(484.445938 114.150436) scale(0.1 -0.1)">
       <use xlink:href="#DejaVuSans-32"/>
       <use xlink:href="#DejaVuSans-30" transform="translate(63.623047 0)"/>
      </g>
     </g>
    </g>
    <g id="ytick_13">
     <g id="line2d_33">
      <g>
       <use xlink:href="#m41b56bfc4e" x="504.170938" y="62.978326" style="stroke: #000000; stroke-width: 0.8"/>
      </g>
     </g>
     <g id="text_37">
      <!-- 25 -->
      <g transform="translate(484.445938 66.777544) scale(0.1 -0.1)">
       <use xlink:href="#DejaVuSans-32"/>
       <use xlink:href="#DejaVuSans-35" transform="translate(63.623047 0)"/>
      </g>
     </g>
    </g>
    <g id="text_38">
     <!-- Pe estimate (rolling) -->
     <g transform="translate(478.158281 228.746172) rotate(-90) scale(0.11 -0.11)">
      <use xlink:href="#DejaVuSans-50"/>
      <use xlink:href="#DejaVuSans-65" transform="translate(56.677734 0)"/>
      <use xlink:href="#DejaVuSans-20" transform="translate(118.201172 0)"/>
      <use xlink:href="#DejaVuSans-65" transform="translate(149.988281 0)"/>
      <use xlink:href="#DejaVuSans-73" transform="translate(211.511719 0)"/>
      <use xlink:href="#DejaVuSans-74" transform="translate(263.611328 0)"/>
      <use xlink:href="#DejaVuSans-69" transform="translate(302.820312 0)"/>
      <use xlink:href="#DejaVuSans-6d" transform="translate(330.603516 0)"/>
      <use xlink:href="#DejaVuSans-61" transform="translate(428.015625 0)"/>
      <use xlink:href="#DejaVuSans-74" transform="translate(489.294922 0)"/>
      <use xlink:href="#DejaVuSans-65" transform="translate(528.503906 0)"/>
      <use xlink:href="#DejaVuSans-20" transform="translate(590.027344 0)"/>
      <use xlink:href="#DejaVuSans-28" transform="translate(621.814453 0)"/>
      <use xlink:href="#DejaVuSans-72" transform="translate(660.828125 0)"/>
      <use xlink:href="#DejaVuSans-6f" transform="translate(699.691406 0)"/>
      <use xlink:href="#DejaVuSans-6c" transform="translate(760.873047 0)"/>
      <use xlink:href="#DejaVuSans-6c" transform="translate(788.65625 0)"/>
      <use xlink:href="#DejaVuSans-69" transform="translate(816.439453 0)"/>
      <use xlink:href="#DejaVuSans-6e" transform="translate(844.222656 0)"/>
      <use xlink:href="#DejaVuSans-67" transform="translate(907.601562 0)"/>
      <use xlink:href="#DejaVuSans-29" transform="translate(971.078125 0)"/>
     </g>
    </g>
   </g>
   <g id="line2d_34">
    <path d="M 523.139574 299.842784 
L 526.620058 299.842784 
L 530.100541 299.842784 
L 533.581025 299.842784 
L 537.061509 299.842784 
L 540.541993 299.842784 
L 544.022476 299.842784 
L 547.50296 299.842784 
L 550.983444 299.842784 
L 554.463927 299.842784 
L 557.944411 299.842784 
L 561.424895 299.842784 
L 564.905379 299.842784 
L 568.385862 299.842784 
L 571.866346 299.842784 
L 575.34683 299.842784 
L 578.827314 299.842784 
L 582.307797 299.842784 
L 585.788281 299.842784 
L 589.268765 299.842784 
L 592.749249 299.842784 
L 596.229732 299.842784 
L 599.710216 299.842784 
L 603.1907 299.842784 
L 606.671184 299.842784 
L 610.151667 299.842784 
L 613.632151 299.842784 
L 617.112635 299.842784 
L 620.593118 299.842784 
L 624.073602 299.842784 
L 627.554086 299.842784 
L 631.03457 299.842784 
L 634.515053 299.842784 
L 637.995537 299.842784 
L 641.476021 299.842784 
L 644.956505 299.842784 
L 648.436988 299.842784 
L 651.917472 299.842784 
L 655.397956 299.842784 
L 658.87844 299.842784 
L 662.358923 299.842784 
L 665.839407 299.842784 
L 669.319891 299.842784 
L 672.800375 299.842784 
L 676.280858 299.842784 
L 679.761342 299.842784 
L 683.241826 299.842784 
L 686.722309 299.842784 
L 690.202793 299.842784 
L 693.683277 299.842784 
" clip-path="url(#pbc29026579)" style="fill: none; stroke: #7b2d8b; stroke-width: 2; stroke-linecap: square"/>
   </g>
   <g id="line2d_35">
    <path d="M 731.968598 299.842784 
L 735.449082 299.842784 
L 738.929566 299.842784 
L 742.410049 299.842784 
L 745.890533 299.842784 
L 749.371017 299.842784 
L 752.8515 299.842784 
L 756.331984 299.842784 
L 759.812468 299.842784 
L 763.292952 299.842784 
L 766.773435 299.842784 
L 770.253919 299.842784 
L 773.734403 299.842784 
L 777.214887 299.842784 
L 780.69537 299.842784 
L 784.175854 299.842784 
L 787.656338 299.842784 
L 791.136822 299.842784 
L 794.617305 299.842784 
L 798.097789 299.842784 
L 801.578273 299.842784 
L 805.058757 299.842784 
L 808.53924 299.842784 
L 812.019724 299.842784 
L 815.500208 299.842784 
L 818.980691 299.842784 
L 822.461175 299.842784 
L 825.941659 299.842784 
L 829.422143 299.842784 
L 832.902626 299.842784 
L 836.38311 299.842784 
L 839.863594 299.842784 
L 843.344078 299.842784 
L 846.824561 299.842784 
L 850.305045 299.842784 
L 853.785529 299.842784 
L 857.266013 299.842784 
L 860.746496 299.842784 
L 864.22698 299.842784 
L 867.707464 299.842784 
L 871.187948 299.842784 
L 874.668431 299.842784 
L 878.148915 299.842784 
L 881.629399 299.842784 
L 885.109882 299.842784 
L 888.590366 299.842784 
L 892.07085 299.842784 
L 895.551334 299.842784 
L 899.031817 299.842784 
L 902.512301 299.842784 
" clip-path="url(#pbc29026579)" style="fill: none; stroke: #4682b4; stroke-width: 2; stroke-linecap: square"/>
   </g>
   <g id="line2d_36">
    <path d="M 731.968598 312.507875 
L 731.968598 33.875875 
" clip-path="url(#pbc29026579)" style="fill: none; stroke-dasharray: 1.2,1.98; stroke-dashoffset: 0; stroke: #808080; stroke-width: 1.2"/>
   </g>
   <g id="line2d_37">
    <path d="M 504.170938 266.397523 
L 921.480938 266.397523 
" clip-path="url(#pbc29026579)" style="fill: none; stroke-dasharray: 3.7,1.6; stroke-dashoffset: 0; stroke: #ffd700"/>
   </g>
   <g id="line2d_38">
    <path d="M 504.170938 46.540966 
L 921.480938 46.540966 
" clip-path="url(#pbc29026579)" style="fill: none; stroke-dasharray: 3.7,1.6; stroke-dashoffset: 0; stroke: #7b2d8b; stroke-opacity: 0.6"/>
   </g>
   <g id="patch_10">
    <path d="M 504.170938 312.507875 
L 504.170938 33.875875 
" style="fill: none; stroke: #000000; stroke-width: 0.8; stroke-linejoin: miter; stroke-linecap: square"/>
   </g>
   <g id="patch_11">
    <path d="M 921.480938 312.507875 
L 921.480938 33.875875 
" style="fill: none; stroke: #000000; stroke-width: 0.8; stroke-linejoin: miter; stroke-linecap: square"/>
   </g>
   <g id="patch_12">
    <path d="M 504.170938 312.507875 
L 921.480938 312.507875 
" style="fill: none; stroke: #000000; stroke-width: 0.8; stroke-linejoin: miter; stroke-linecap: square"/>
   </g>
   <g id="patch_13">
    <path d="M 504.170938 33.875875 
L 921.480938 33.875875 
" style="fill: none; stroke: #000000; stroke-width: 0.8; stroke-linejoin: miter; stroke-linecap: square"/>
   </g>
   <g id="text_39">
    <!-- Pe over cyclic constraint excursion -->
    <g transform="translate(617.523828 15.558281) scale(0.11 -0.11)">
     <defs>
      <path id="DejaVuSans-78" d="M 3513 3500 
L 2247 1797 
L 3578 0 
L 2900 0 
L 1881 1375 
L 863 0 
L 184 0 
L 1544 1831 
L 300 3500 
L 978 3500 
L 1906 2253 
L 2834 3500 
L 3513 3500 
z
" transform="scale(0.015625)"/>
     </defs>
     <use xlink:href="#DejaVuSans-50"/>
     <use xlink:href="#DejaVuSans-65" transform="translate(56.677734 0)"/>
     <use xlink:href="#DejaVuSans-20" transform="translate(118.201172 0)"/>
     <use xlink:href="#DejaVuSans-6f" transform="translate(149.988281 0)"/>
     <use xlink:href="#DejaVuSans-76" transform="translate(211.169922 0)"/>
     <use xlink:href="#DejaVuSans-65" transform="translate(270.349609 0)"/>
     <use xlink:href="#DejaVuSans-72" transform="translate(331.873047 0)"/>
     <use xlink:href="#DejaVuSans-20" transform="translate(372.986328 0)"/>
     <use xlink:href="#DejaVuSans-63" transform="translate(404.773438 0)"/>
     <use xlink:href="#DejaVuSans-79" transform="translate(459.753906 0)"/>
     <use xlink:href="#DejaVuSans-63" transform="translate(518.933594 0)"/>
     <use xlink:href="#DejaVuSans-6c" transform="translate(573.914062 0)"/>
     <use xlink:href="#DejaVuSans-69" transform="translate(601.697266 0)"/>
     <use xlink:href="#DejaVuSans-63" transform="translate(629.480469 0)"/>
     <use xlink:href="#DejaVuSans-20" transform="translate(684.460938 0)"/>
     <use xlink:href="#DejaVuSans-63" transform="translate(716.248047 0)"/>
     <use xlink:href="#DejaVuSans-6f" transform="translate(771.228516 0)"/>
     <use xlink:href="#DejaVuSans-6e" transform="translate(832.410156 0)"/>
     <use xlink:href="#DejaVuSans-73" transform="translate(895.789062 0)"/>
     <use xlink:href="#DejaVuSans-74" transform="translate(947.888672 0)"/>
     <use xlink:href="#DejaVuSans-72" transform="translate(987.097656 0)"/>
     <use xlink:href="#DejaVuSans-61" transform="translate(1028.210938 0)"/>
     <use xlink:href="#DejaVuSans-69" transform="translate(1089.490234 0)"/>
     <use xlink:href="#DejaVuSans-6e" transform="translate(1117.273438 0)"/>
     <use xlink:href="#DejaVuSans-74" transform="translate(1180.652344 0)"/>
     <use xlink:href="#DejaVuSans-20" transform="translate(1219.861328 0)"/>
     <use xlink:href="#DejaVuSans-65" transform="translate(1251.648438 0)"/>
     <use xlink:href="#DejaVuSans-78" transform="translate(1311.421875 0)"/>
     <use xlink:href="#DejaVuSans-63" transform="translate(1368.851562 0)"/>
     <use xlink:href="#DejaVuSans-75" transform="translate(1423.832031 0)"/>
     <use xlink:href="#DejaVuSans-72" transform="translate(1487.210938 0)"/>
     <use xlink:href="#DejaVuSans-73" transform="translate(1528.324219 0)"/>
     <use xlink:href="#DejaVuSans-69" transform="translate(1580.423828 0)"/>
     <use xlink:href="#DejaVuSans-6f" transform="translate(1608.207031 0)"/>
     <use xlink:href="#DejaVuSans-6e" transform="translate(1669.388672 0)"/>
    </g>
    <!-- (recovery hugs equilibrium closer  asymmetric) -->
    <g transform="translate(576.843594 27.875875) scale(0.11 -0.11)">
     <defs>
      <path id="DejaVuSans-2014" d="M 313 1978 
L 6088 1978 
L 6088 1528 
L 313 1528 
L 313 1978 
z
" transform="scale(0.015625)"/>
     </defs>
     <use xlink:href="#DejaVuSans-28"/>
     <use xlink:href="#DejaVuSans-72" transform="translate(39.013672 0)"/>
     <use xlink:href="#DejaVuSans-65" transform="translate(77.876953 0)"/>
     <use xlink:href="#DejaVuSans-63" transform="translate(139.400391 0)"/>
     <use xlink:href="#DejaVuSans-6f" transform="translate(194.380859 0)"/>
     <use xlink:href="#DejaVuSans-76" transform="translate(255.5625 0)"/>
     <use xlink:href="#DejaVuSans-65" transform="translate(314.742188 0)"/>
     <use xlink:href="#DejaVuSans-72" transform="translate(376.265625 0)"/>
     <use xlink:href="#DejaVuSans-79" transform="translate(417.378906 0)"/>
     <use xlink:href="#DejaVuSans-20" transform="translate(476.558594 0)"/>
     <use xlink:href="#DejaVuSans-68" transform="translate(508.345703 0)"/>
     <use xlink:href="#DejaVuSans-75" transform="translate(571.724609 0)"/>
     <use xlink:href="#DejaVuSans-67" transform="translate(635.103516 0)"/>
     <use xlink:href="#DejaVuSans-73" transform="translate(698.580078 0)"/>
     <use xlink:href="#DejaVuSans-20" transform="translate(750.679688 0)"/>
     <use xlink:href="#DejaVuSans-65" transform="translate(782.466797 0)"/>
     <use xlink:href="#DejaVuSans-71" transform="translate(843.990234 0)"/>
     <use xlink:href="#DejaVuSans-75" transform="translate(907.466797 0)"/>
     <use xlink:href="#DejaVuSans-69" transform="translate(970.845703 0)"/>
     <use xlink:href="#DejaVuSans-6c" transform="translate(998.628906 0)"/>
     <use xlink:href="#DejaVuSans-69" transform="translate(1026.412109 0)"/>
     <use xlink:href="#DejaVuSans-62" transform="translate(1054.195312 0)"/>
     <use xlink:href="#DejaVuSans-72" transform="translate(1117.671875 0)"/>
     <use xlink:href="#DejaVuSans-69" transform="translate(1158.785156 0)"/>
     <use xlink:href="#DejaVuSans-75" transform="translate(1186.568359 0)"/>
     <use xlink:href="#DejaVuSans-6d" transform="translate(1249.947266 0)"/>
     <use xlink:href="#DejaVuSans-20" transform="translate(1347.359375 0)"/>
     <use xlink:href="#DejaVuSans-63" transform="translate(1379.146484 0)"/>
     <use xlink:href="#DejaVuSans-6c" transform="translate(1434.126953 0)"/>
     <use xlink:href="#DejaVuSans-6f" transform="translate(1461.910156 0)"/>
     <use xlink:href="#DejaVuSans-73" transform="translate(1523.091797 0)"/>
     <use xlink:href="#DejaVuSans-65" transform="translate(1575.191406 0)"/>
     <use xlink:href="#DejaVuSans-72" transform="translate(1636.714844 0)"/>
     <use xlink:href="#DejaVuSans-20" transform="translate(1677.828125 0)"/>
     <use xlink:href="#DejaVuSans-2014" transform="translate(1709.615234 0)"/>
     <use xlink:href="#DejaVuSans-20" transform="translate(1809.615234 0)"/>
     <use xlink:href="#DejaVuSans-61" transform="translate(1841.402344 0)"/>
     <use xlink:href="#DejaVuSans-73" transform="translate(1902.681641 0)"/>
     <use xlink:href="#DejaVuSans-79" transform="translate(1954.78125 0)"/>
     <use xlink:href="#DejaVuSans-6d" transform="translate(2013.960938 0)"/>
     <use xlink:href="#DejaVuSans-6d" transform="translate(2111.373047 0)"/>
     <use xlink:href="#DejaVuSans-65" transform="translate(2208.785156 0)"/>
     <use xlink:href="#DejaVuSans-74" transform="translate(2270.308594 0)"/>
     <use xlink:href="#DejaVuSans-72" transform="translate(2309.517578 0)"/>
     <use xlink:href="#DejaVuSans-69" transform="translate(2350.630859 0)"/>
     <use xlink:href="#DejaVuSans-63" transform="translate(2378.414062 0)"/>
     <use xlink:href="#DejaVuSans-29" transform="translate(2433.394531 0)"/>
    </g>
   </g>
   <g id="legend_2">
    <g id="patch_14">
     <path d="M 803.099688 203.970625 
L 915.880938 203.970625 
Q 917.480938 203.970625 917.480938 202.370625 
L 917.480938 144.013125 
Q 917.480938 142.413125 915.880938 142.413125 
L 803.099688 142.413125 
Q 801.499688 142.413125 801.499688 144.013125 
L 801.499688 202.370625 
Q 801.499688 203.970625 803.099688 203.970625 
z
" style="fill: #ffffff; opacity: 0.8; stroke: #cccccc; stroke-linejoin: miter"/>
    </g>
    <g id="line2d_39">
     <path d="M 804.699688 148.891875 
L 812.699688 148.891875 
L 820.699688 148.891875 
" style="fill: none; stroke: #7b2d8b; stroke-width: 2; stroke-linecap: square"/>
    </g>
    <g id="text_40">
     <!-- Entry (bulldeep) -->
     <g transform="translate(827.099688 151.691875) scale(0.08 -0.08)">
      <use xlink:href="#DejaVuSans-45"/>
      <use xlink:href="#DejaVuSans-6e" transform="translate(63.183594 0)"/>
      <use xlink:href="#DejaVuSans-74" transform="translate(126.5625 0)"/>
      <use xlink:href="#DejaVuSans-72" transform="translate(165.771484 0)"/>
      <use xlink:href="#DejaVuSans-79" transform="translate(206.884766 0)"/>
      <use xlink:href="#DejaVuSans-20" transform="translate(266.064453 0)"/>
      <use xlink:href="#DejaVuSans-28" transform="translate(297.851562 0)"/>
      <use xlink:href="#DejaVuSans-62" transform="translate(336.865234 0)"/>
      <use xlink:href="#DejaVuSans-75" transform="translate(400.341797 0)"/>
      <use xlink:href="#DejaVuSans-6c" transform="translate(463.720703 0)"/>
      <use xlink:href="#DejaVuSans-6c" transform="translate(491.503906 0)"/>
      <use xlink:href="#DejaVuSans-2192" transform="translate(519.287109 0)"/>
      <use xlink:href="#DejaVuSans-64" transform="translate(603.076172 0)"/>
      <use xlink:href="#DejaVuSans-65" transform="translate(666.552734 0)"/>
      <use xlink:href="#DejaVuSans-65" transform="translate(728.076172 0)"/>
      <use xlink:href="#DejaVuSans-70" transform="translate(789.599609 0)"/>
      <use xlink:href="#DejaVuSans-29" transform="translate(853.076172 0)"/>
     </g>
    </g>
    <g id="line2d_40">
     <path d="M 804.699688 160.634375 
L 812.699688 160.634375 
L 820.699688 160.634375 
" style="fill: none; stroke: #4682b4; stroke-width: 2; stroke-linecap: square"/>
    </g>
    <g id="text_41">
     <!-- Recovery (deepbull) -->
     <g transform="translate(827.099688 163.434375) scale(0.08 -0.08)">
      <use xlink:href="#DejaVuSans-52"/>
      <use xlink:href="#DejaVuSans-65" transform="translate(64.982422 0)"/>
      <use xlink:href="#DejaVuSans-63" transform="translate(126.505859 0)"/>
      <use xlink:href="#DejaVuSans-6f" transform="translate(181.486328 0)"/>
      <use xlink:href="#DejaVuSans-76" transform="translate(242.667969 0)"/>
      <use xlink:href="#DejaVuSans-65" transform="translate(301.847656 0)"/>
      <use xlink:href="#DejaVuSans-72" transform="translate(363.371094 0)"/>
      <use xlink:href="#DejaVuSans-79" transform="translate(404.484375 0)"/>
      <use xlink:href="#DejaVuSans-20" transform="translate(463.664062 0)"/>
      <use xlink:href="#DejaVuSans-28" transform="translate(495.451172 0)"/>
      <use xlink:href="#DejaVuSans-64" transform="translate(534.464844 0)"/>
      <use xlink:href="#DejaVuSans-65" transform="translate(597.941406 0)"/>
      <use xlink:href="#DejaVuSans-65" transform="translate(659.464844 0)"/>
      <use xlink:href="#DejaVuSans-70" transform="translate(720.988281 0)"/>
      <use xlink:href="#DejaVuSans-2192" transform="translate(784.464844 0)"/>
      <use xlink:href="#DejaVuSans-62" transform="translate(868.253906 0)"/>
      <use xlink:href="#DejaVuSans-75" transform="translate(931.730469 0)"/>
      <use xlink:href="#DejaVuSans-6c" transform="translate(995.109375 0)"/>
      <use xlink:href="#DejaVuSans-6c" transform="translate(1022.892578 0)"/>
      <use xlink:href="#DejaVuSans-29" transform="translate(1050.675781 0)"/>
     </g>
    </g>
    <g id="line2d_41">
     <path d="M 804.699688 172.376875 
L 812.699688 172.376875 
L 820.699688 172.376875 
" style="fill: none; stroke-dasharray: 1.2,1.98; stroke-dashoffset: 0; stroke: #808080; stroke-width: 1.2"/>
    </g>
    <g id="text_42">
     <!-- Direction reversal -->
     <g transform="translate(827.099688 175.176875) scale(0.08 -0.08)">
      <use xlink:href="#DejaVuSans-44"/>
      <use xlink:href="#DejaVuSans-69" transform="translate(77.001953 0)"/>
      <use xlink:href="#DejaVuSans-72" transform="translate(104.785156 0)"/>
      <use xlink:href="#DejaVuSans-65" transform="translate(143.648438 0)"/>
      <use xlink:href="#DejaVuSans-63" transform="translate(205.171875 0)"/>
      <use xlink:href="#DejaVuSans-74" transform="translate(260.152344 0)"/>
      <use xlink:href="#DejaVuSans-69" transform="translate(299.361328 0)"/>
      <use xlink:href="#DejaVuSans-6f" transform="translate(327.144531 0)"/>
      <use xlink:href="#DejaVuSans-6e" transform="translate(388.326172 0)"/>
      <use xlink:href="#DejaVuSans-20" transform="translate(451.705078 0)"/>
      <use xlink:href="#DejaVuSans-72" transform="translate(483.492188 0)"/>
      <use xlink:href="#DejaVuSans-65" transform="translate(522.355469 0)"/>
      <use xlink:href="#DejaVuSans-76" transform="translate(583.878906 0)"/>
      <use xlink:href="#DejaVuSans-65" transform="translate(643.058594 0)"/>
      <use xlink:href="#DejaVuSans-72" transform="translate(704.582031 0)"/>
      <use xlink:href="#DejaVuSans-73" transform="translate(745.695312 0)"/>
      <use xlink:href="#DejaVuSans-61" transform="translate(797.794922 0)"/>
      <use xlink:href="#DejaVuSans-6c" transform="translate(859.074219 0)"/>
     </g>
    </g>
    <g id="line2d_42">
     <path d="M 804.699688 184.119375 
L 812.699688 184.119375 
L 820.699688 184.119375 
" style="fill: none; stroke-dasharray: 3.7,1.6; stroke-dashoffset: 0; stroke: #ffd700"/>
    </g>
    <g id="text_43">
     <!-- Pe_bull = 3.53 -->
     <g transform="translate(827.099688 186.919375) scale(0.08 -0.08)">
      <use xlink:href="#DejaVuSans-50"/>
      <use xlink:href="#DejaVuSans-65" transform="translate(56.677734 0)"/>
      <use xlink:href="#DejaVuSans-5f" transform="translate(118.201172 0)"/>
      <use xlink:href="#DejaVuSans-62" transform="translate(168.201172 0)"/>
      <use xlink:href="#DejaVuSans-75" transform="translate(231.677734 0)"/>
      <use xlink:href="#DejaVuSans-6c" transform="translate(295.056641 0)"/>
      <use xlink:href="#DejaVuSans-6c" transform="translate(322.839844 0)"/>
      <use xlink:href="#DejaVuSans-20" transform="translate(350.623047 0)"/>
      <use xlink:href="#DejaVuSans-3d" transform="translate(382.410156 0)"/>
      <use xlink:href="#DejaVuSans-20" transform="translate(466.199219 0)"/>
      <use xlink:href="#DejaVuSans-33" transform="translate(497.986328 0)"/>
      <use xlink:href="#DejaVuSans-2e" transform="translate(561.609375 0)"/>
      <use xlink:href="#DejaVuSans-35" transform="translate(593.396484 0)"/>
      <use xlink:href="#DejaVuSans-33" transform="translate(657.019531 0)"/>
     </g>
    </g>
    <g id="line2d_43">
     <path d="M 804.699688 196.084375 
L 812.699688 196.084375 
L 820.699688 196.084375 
" style="fill: none; stroke-dasharray: 3.7,1.6; stroke-dashoffset: 0; stroke: #7b2d8b; stroke-opacity: 0.6"/>
    </g>
    <g id="text_44">
     <!-- Pe_void = 26.7 -->
     <g transform="translate(827.099688 198.884375) scale(0.08 -0.08)">
      <use xlink:href="#DejaVuSans-50"/>
      <use xlink:href="#DejaVuSans-65" transform="translate(56.677734 0)"/>
      <use xlink:href="#DejaVuSans-5f" transform="translate(118.201172 0)"/>
      <use xlink:href="#DejaVuSans-76" transform="translate(168.201172 0)"/>
      <use xlink:href="#DejaVuSans-6f" transform="translate(227.380859 0)"/>
      <use xlink:href="#DejaVuSans-69" transform="translate(288.5625 0)"/>
      <use xlink:href="#DejaVuSans-64" transform="translate(316.345703 0)"/>
      <use xlink:href="#DejaVuSans-20" transform="translate(379.822266 0)"/>
      <use xlink:href="#DejaVuSans-3d" transform="translate(411.609375 0)"/>
      <use xlink:href="#DejaVuSans-20" transform="translate(495.398438 0)"/>
      <use xlink:href="#DejaVuSans-32" transform="translate(527.185547 0)"/>
      <use xlink:href="#DejaVuSans-36" transform="translate(590.808594 0)"/>
      <use xlink:href="#DejaVuSans-2e" transform="translate(654.431641 0)"/>
      <use xlink:href="#DejaVuSans-37" transform="translate(686.21875 0)"/>
     </g>
    </g>
   </g>
  </g>
 </g>
 <defs>
  <clipPath id="pf8c849ff02">
   <rect x="41.570938" y="33.875875" width="417.31" height="278.632"/>
  </clipPath>
  <clipPath id="pbc29026579">
   <rect x="504.170938" y="33.875875" width="417.31" height="278.632"/>
  </clipPath>
 </defs>
</svg>
