<?xml version="1.0" encoding="utf-8" standalone="no"?>
<!DOCTYPE svg PUBLIC "-//W3C//DTD SVG 1.1//EN"
  "http://www.w3.org/Graphics/SVG/1.1/DTD/svg11.dtd">
<svg xmlns:xlink="http://www.w3.org/1999/xlink" width="1000.709063pt" height="351.751937pt" viewBox="0 0 1000.709063 351.751937" xmlns="http://www.w3.org/2000/svg" version="1.1">
 <metadata>
  <rdf:RDF xmlns:dc="http://purl.org/dc/elements/1.1/" xmlns:cc="http://creativecommons.org/ns#" xmlns:rdf="http://www.w3.org/1999/02/22-rdf-syntax-ns#">
   <cc:Work>
    <dc:type rdf:resource="http://purl.org/dc/dcmitype/StillImage"/>
    <dc:date>2026-02-22T15:55:26.424136</dc:date>
    <dc:format>image/svg+xml</dc:format>
    <dc:creator>
     <cc:Agent>
      <dc:title>Matplotlib v3.10.8, https://matplotlib.org/</dc:title>
     </cc:Agent>
    </dc:creator>
   </cc:Work>
  </rdf:RDF>
 </metadata>
 <defs>
  <style type="text/css">*{stroke-linejoin: round; stroke-linecap: butt}</style>
 </defs>
 <g id="figure_1">
  <g id="patch_1">
   <path d="M 0 351.751937 
L 1000.709063 351.751937 
L 1000.709063 0 
L 0 0 
z
" style="fill: #ffffff"/>
  </g>
  <g id="axes_1">
   <g id="patch_2">
    <path d="M 44.749063 313.227875 
L 494.909063 313.227875 
L 494.909063 33.875875 
L 44.749063 33.875875 
z
" style="fill: #ffffff"/>
   </g>
   <g id="patch_3">
    <path d="M 147.607464 313.227875 
L 284.935103 313.227875 
L 284.935103 33.875875 
L 147.607464 33.875875 
z
" clip-path="url(#p78dba3d775)" style="fill: #008000; opacity: 0.05; stroke: #008000; stroke-linejoin: miter"/>
   </g>
   <g id="matplotlib.axis_1">
    <g id="xtick_1">
     <g id="line2d_1">
      <defs>
       <path id="mb4142cb00f" d="M 0 0 
L 0 3.5 
" style="stroke: #000000; stroke-width: 0.8"/>
      </defs>
      <g>
       <use xlink:href="#mb4142cb00f" x="65.210881" y="313.227875" style="stroke: #000000; stroke-width: 0.8"/>
      </g>
     </g>
     <g id="text_1">
      <!-- 0 -->
      <g transform="translate(62.029631 327.826312) scale(0.1 -0.1)">
       <defs>
        <path id="DejaVuSans-30" d="M 2034 4250 
Q 1547 4250 1301 3770 
Q 1056 3291 1056 2328 
Q 1056 1369 1301 889 
Q 1547 409 2034 409 
Q 2525 409 2770 889 
Q 3016 1369 3016 2328 
Q 3016 3291 2770 3770 
Q 2525 4250 2034 4250 
z
M 2034 4750 
Q 2819 4750 3233 4129 
Q 3647 3509 3647 2328 
Q 3647 1150 3233 529 
Q 2819 -91 2034 -91 
Q 1250 -91 836 529 
Q 422 1150 422 2328 
Q 422 3509 836 4129 
Q 1250 4750 2034 4750 
z
" transform="scale(0.015625)"/>
       </defs>
       <use xlink:href="#DejaVuSans-30"/>
      </g>
     </g>
    </g>
    <g id="xtick_2">
     <g id="line2d_2">
      <g>
       <use xlink:href="#mb4142cb00f" x="120.141936" y="313.227875" style="stroke: #000000; stroke-width: 0.8"/>
      </g>
     </g>
     <g id="text_2">
      <!-- 20 -->
      <g transform="translate(113.779436 327.826312) scale(0.1 -0.1)">
       <defs>
        <path id="DejaVuSans-32" d="M 1228 531 
L 3431 531 
L 3431 0 
L 469 0 
L 469 531 
Q 828 903 1448 1529 
Q 2069 2156 2228 2338 
Q 2531 2678 2651 2914 
Q 2772 3150 2772 3378 
Q 2772 3750 2511 3984 
Q 2250 4219 1831 4219 
Q 1534 4219 1204 4116 
Q 875 4013 500 3803 
L 500 4441 
Q 881 4594 1212 4672 
Q 1544 4750 1819 4750 
Q 2544 4750 2975 4387 
Q 3406 4025 3406 3419 
Q 3406 3131 3298 2873 
Q 3191 2616 2906 2266 
Q 2828 2175 2409 1742 
Q 1991 1309 1228 531 
z
" transform="scale(0.015625)"/>
       </defs>
       <use xlink:href="#DejaVuSans-32"/>
       <use xlink:href="#DejaVuSans-30" transform="translate(63.623047 0)"/>
      </g>
     </g>
    </g>
    <g id="xtick_3">
     <g id="line2d_3">
      <g>
       <use xlink:href="#mb4142cb00f" x="175.072992" y="313.227875" style="stroke: #000000; stroke-width: 0.8"/>
      </g>
     </g>
     <g id="text_3">
      <!-- 40 -->
      <g transform="translate(168.710492 327.826312) scale(0.1 -0.1)">
       <defs>
        <path id="DejaVuSans-34" d="M 2419 4116 
L 825 1625 
L 2419 1625 
L 2419 4116 
z
M 2253 4666 
L 3047 4666 
L 3047 1625 
L 3713 1625 
L 3713 1100 
L 3047 1100 
L 3047 0 
L 2419 0 
L 2419 1100 
L 313 1100 
L 313 1709 
L 2253 4666 
z
" transform="scale(0.015625)"/>
       </defs>
       <use xlink:href="#DejaVuSans-34"/>
       <use xlink:href="#DejaVuSans-30" transform="translate(63.623047 0)"/>
      </g>
     </g>
    </g>
    <g id="xtick_4">
     <g id="line2d_4">
      <g>
       <use xlink:href="#mb4142cb00f" x="230.004047" y="313.227875" style="stroke: #000000; stroke-width: 0.8"/>
      </g>
     </g>
     <g id="text_4">
      <!-- 60 -->
      <g transform="translate(223.641547 327.826312) scale(0.1 -0.1)">
       <defs>
        <path id="DejaVuSans-36" d="M 2113 2584 
Q 1688 2584 1439 2293 
Q 1191 2003 1191 1497 
Q 1191 994 1439 701 
Q 1688 409 2113 409 
Q 2538 409 2786 701 
Q 3034 994 3034 1497 
Q 3034 2003 2786 2293 
Q 2538 2584 2113 2584 
z
M 3366 4563 
L 3366 3988 
Q 3128 4100 2886 4159 
Q 2644 4219 2406 4219 
Q 1781 4219 1451 3797 
Q 1122 3375 1075 2522 
Q 1259 2794 1537 2939 
Q 1816 3084 2150 3084 
Q 2853 3084 3261 2657 
Q 3669 2231 3669 1497 
Q 3669 778 3244 343 
Q 2819 -91 2113 -91 
Q 1303 -91 875 529 
Q 447 1150 447 2328 
Q 447 3434 972 4092 
Q 1497 4750 2381 4750 
Q 2619 4750 2861 4703 
Q 3103 4656 3366 4563 
z
" transform="scale(0.015625)"/>
       </defs>
       <use xlink:href="#DejaVuSans-36"/>
       <use xlink:href="#DejaVuSans-30" transform="translate(63.623047 0)"/>
      </g>
     </g>
    </g>
    <g id="xtick_5">
     <g id="line2d_5">
      <g>
       <use xlink:href="#mb4142cb00f" x="284.935103" y="313.227875" style="stroke: #000000; stroke-width: 0.8"/>
      </g>
     </g>
     <g id="text_5">
      <!-- 80 -->
      <g transform="translate(278.572603 327.826312) scale(0.1 -0.1)">
       <defs>
        <path id="DejaVuSans-38" d="M 2034 2216 
Q 1584 2216 1326 1975 
Q 1069 1734 1069 1313 
Q 1069 891 1326 650 
Q 1584 409 2034 409 
Q 2484 409 2743 651 
Q 3003 894 3003 1313 
Q 3003 1734 2745 1975 
Q 2488 2216 2034 2216 
z
M 1403 2484 
Q 997 2584 770 2862 
Q 544 3141 544 3541 
Q 544 4100 942 4425 
Q 1341 4750 2034 4750 
Q 2731 4750 3128 4425 
Q 3525 4100 3525 3541 
Q 3525 3141 3298 2862 
Q 3072 2584 2669 2484 
Q 3125 2378 3379 2068 
Q 3634 1759 3634 1313 
Q 3634 634 3220 271 
Q 2806 -91 2034 -91 
Q 1263 -91 848 271 
Q 434 634 434 1313 
Q 434 1759 690 2068 
Q 947 2378 1403 2484 
z
M 1172 3481 
Q 1172 3119 1398 2916 
Q 1625 2713 2034 2713 
Q 2441 2713 2670 2916 
Q 2900 3119 2900 3481 
Q 2900 3844 2670 4047 
Q 2441 4250 2034 4250 
Q 1625 4250 1398 4047 
Q 1172 3844 1172 3481 
z
" transform="scale(0.015625)"/>
       </defs>
       <use xlink:href="#DejaVuSans-38"/>
       <use xlink:href="#DejaVuSans-30" transform="translate(63.623047 0)"/>
      </g>
     </g>
    </g>
    <g id="xtick_6">
     <g id="line2d_6">
      <g>
       <use xlink:href="#mb4142cb00f" x="339.866158" y="313.227875" style="stroke: #000000; stroke-width: 0.8"/>
      </g>
     </g>
     <g id="text_6">
      <!-- 100 -->
      <g transform="translate(330.322408 327.826312) scale(0.1 -0.1)">
       <defs>
        <path id="DejaVuSans-31" d="M 794 531 
L 1825 531 
L 1825 4091 
L 703 3866 
L 703 4441 
L 1819 4666 
L 2450 4666 
L 2450 531 
L 3481 531 
L 3481 0 
L 794 0 
L 794 531 
z
" transform="scale(0.015625)"/>
       </defs>
       <use xlink:href="#DejaVuSans-31"/>
       <use xlink:href="#DejaVuSans-30" transform="translate(63.623047 0)"/>
       <use xlink:href="#DejaVuSans-30" transform="translate(127.246094 0)"/>
      </g>
     </g>
    </g>
    <g id="xtick_7">
     <g id="line2d_7">
      <g>
       <use xlink:href="#mb4142cb00f" x="394.797214" y="313.227875" style="stroke: #000000; stroke-width: 0.8"/>
      </g>
     </g>
     <g id="text_7">
      <!-- 120 -->
      <g transform="translate(385.253464 327.826312) scale(0.1 -0.1)">
       <use xlink:href="#DejaVuSans-31"/>
       <use xlink:href="#DejaVuSans-32" transform="translate(63.623047 0)"/>
       <use xlink:href="#DejaVuSans-30" transform="translate(127.246094 0)"/>
      </g>
     </g>
    </g>
    <g id="xtick_8">
     <g id="line2d_8">
      <g>
       <use xlink:href="#mb4142cb00f" x="449.728269" y="313.227875" style="stroke: #000000; stroke-width: 0.8"/>
      </g>
     </g>
     <g id="text_8">
      <!-- 140 -->
      <g transform="translate(440.184519 327.826312) scale(0.1 -0.1)">
       <use xlink:href="#DejaVuSans-31"/>
       <use xlink:href="#DejaVuSans-34" transform="translate(63.623047 0)"/>
       <use xlink:href="#DejaVuSans-30" transform="translate(127.246094 0)"/>
      </g>
     </g>
    </g>
    <g id="text_9">
     <!-- Round -->
     <g transform="translate(252.426719 342.264281) scale(0.11 -0.11)">
      <defs>
       <path id="DejaVuSans-52" d="M 2841 2188 
Q 3044 2119 3236 1894 
Q 3428 1669 3622 1275 
L 4263 0 
L 3584 0 
L 2988 1197 
Q 2756 1666 2539 1819 
Q 2322 1972 1947 1972 
L 1259 1972 
L 1259 0 
L 628 0 
L 628 4666 
L 2053 4666 
Q 2853 4666 3247 4331 
Q 3641 3997 3641 3322 
Q 3641 2881 3436 2590 
Q 3231 2300 2841 2188 
z
M 1259 4147 
L 1259 2491 
L 2053 2491 
Q 2509 2491 2742 2702 
Q 2975 2913 2975 3322 
Q 2975 3731 2742 3939 
Q 2509 4147 2053 4147 
L 1259 4147 
z
" transform="scale(0.015625)"/>
       <path id="DejaVuSans-6f" d="M 1959 3097 
Q 1497 3097 1228 2736 
Q 959 2375 959 1747 
Q 959 1119 1226 758 
Q 1494 397 1959 397 
Q 2419 397 2687 759 
Q 2956 1122 2956 1747 
Q 2956 2369 2687 2733 
Q 2419 3097 1959 3097 
z
M 1959 3584 
Q 2709 3584 3137 3096 
Q 3566 2609 3566 1747 
Q 3566 888 3137 398 
Q 2709 -91 1959 -91 
Q 1206 -91 779 398 
Q 353 888 353 1747 
Q 353 2609 779 3096 
Q 1206 3584 1959 3584 
z
" transform="scale(0.015625)"/>
       <path id="DejaVuSans-75" d="M 544 1381 
L 544 3500 
L 1119 3500 
L 1119 1403 
Q 1119 906 1312 657 
Q 1506 409 1894 409 
Q 2359 409 2629 706 
Q 2900 1003 2900 1516 
L 2900 3500 
L 3475 3500 
L 3475 0 
L 2900 0 
L 2900 538 
Q 2691 219 2414 64 
Q 2138 -91 1772 -91 
Q 1169 -91 856 284 
Q 544 659 544 1381 
z
M 1991 3584 
L 1991 3584 
z
" transform="scale(0.015625)"/>
       <path id="DejaVuSans-6e" d="M 3513 2113 
L 3513 0 
L 2938 0 
L 2938 2094 
Q 2938 2591 2744 2837 
Q 2550 3084 2163 3084 
Q 1697 3084 1428 2787 
Q 1159 2491 1159 1978 
L 1159 0 
L 581 0 
L 581 3500 
L 1159 3500 
L 1159 2956 
Q 1366 3272 1645 3428 
Q 1925 3584 2291 3584 
Q 2894 3584 3203 3211 
Q 3513 2838 3513 2113 
z
" transform="scale(0.015625)"/>
       <path id="DejaVuSans-64" d="M 2906 2969 
L 2906 4863 
L 3481 4863 
L 3481 0 
L 2906 0 
L 2906 525 
Q 2725 213 2448 61 
Q 2172 -91 1784 -91 
Q 1150 -91 751 415 
Q 353 922 353 1747 
Q 353 2572 751 3078 
Q 1150 3584 1784 3584 
Q 2172 3584 2448 3432 
Q 2725 3281 2906 2969 
z
M 947 1747 
Q 947 1113 1208 752 
Q 1469 391 1925 391 
Q 2381 391 2643 752 
Q 2906 1113 2906 1747 
Q 2906 2381 2643 2742 
Q 2381 3103 1925 3103 
Q 1469 3103 1208 2742 
Q 947 2381 947 1747 
z
" transform="scale(0.015625)"/>
      </defs>
      <use xlink:href="#DejaVuSans-52"/>
      <use xlink:href="#DejaVuSans-6f" transform="translate(64.982422 0)"/>
      <use xlink:href="#DejaVuSans-75" transform="translate(126.164062 0)"/>
      <use xlink:href="#DejaVuSans-6e" transform="translate(189.542969 0)"/>
      <use xlink:href="#DejaVuSans-64" transform="translate(252.921875 0)"/>
     </g>
    </g>
   </g>
   <g id="matplotlib.axis_2">
    <g id="ytick_1">
     <g id="line2d_9">
      <defs>
       <path id="m085bdb32d3" d="M 0 0 
L -3.5 0 
" style="stroke: #000000; stroke-width: 0.8"/>
      </defs>
      <g>
       <use xlink:href="#m085bdb32d3" x="44.749063" y="300.530057" style="stroke: #000000; stroke-width: 0.8"/>
      </g>
     </g>
     <g id="text_10">
      <!-- 0.0 -->
      <g transform="translate(21.845938 304.329276) scale(0.1 -0.1)">
       <defs>
        <path id="DejaVuSans-2e" d="M 684 794 
L 1344 794 
L 1344 0 
L 684 0 
L 684 794 
z
" transform="scale(0.015625)"/>
       </defs>
       <use xlink:href="#DejaVuSans-30"/>
       <use xlink:href="#DejaVuSans-2e" transform="translate(63.623047 0)"/>
       <use xlink:href="#DejaVuSans-30" transform="translate(95.410156 0)"/>
      </g>
     </g>
    </g>
    <g id="ytick_2">
     <g id="line2d_10">
      <g>
       <use xlink:href="#m085bdb32d3" x="44.749063" y="264.5589" style="stroke: #000000; stroke-width: 0.8"/>
      </g>
     </g>
     <g id="text_11">
      <!-- 0.5 -->
      <g transform="translate(21.845938 268.358119) scale(0.1 -0.1)">
       <defs>
        <path id="DejaVuSans-35" d="M 691 4666 
L 3169 4666 
L 3169 4134 
L 1269 4134 
L 1269 2991 
Q 1406 3038 1543 3061 
Q 1681 3084 1819 3084 
Q 2600 3084 3056 2656 
Q 3513 2228 3513 1497 
Q 3513 744 3044 326 
Q 2575 -91 1722 -91 
Q 1428 -91 1123 -41 
Q 819 9 494 109 
L 494 744 
Q 775 591 1075 516 
Q 1375 441 1709 441 
Q 2250 441 2565 725 
Q 2881 1009 2881 1497 
Q 2881 1984 2565 2268 
Q 2250 2553 1709 2553 
Q 1456 2553 1204 2497 
Q 953 2441 691 2322 
L 691 4666 
z
" transform="scale(0.015625)"/>
       </defs>
       <use xlink:href="#DejaVuSans-30"/>
       <use xlink:href="#DejaVuSans-2e" transform="translate(63.623047 0)"/>
       <use xlink:href="#DejaVuSans-35" transform="translate(95.410156 0)"/>
      </g>
     </g>
    </g>
    <g id="ytick_3">
     <g id="line2d_11">
      <g>
       <use xlink:href="#m085bdb32d3" x="44.749063" y="228.587744" style="stroke: #000000; stroke-width: 0.8"/>
      </g>
     </g>
     <g id="text_12">
      <!-- 1.0 -->
      <g transform="translate(21.845938 232.386963) scale(0.1 -0.1)">
       <use xlink:href="#DejaVuSans-31"/>
       <use xlink:href="#DejaVuSans-2e" transform="translate(63.623047 0)"/>
       <use xlink:href="#DejaVuSans-30" transform="translate(95.410156 0)"/>
      </g>
     </g>
    </g>
    <g id="ytick_4">
     <g id="line2d_12">
      <g>
       <use xlink:href="#m085bdb32d3" x="44.749063" y="192.616588" style="stroke: #000000; stroke-width: 0.8"/>
      </g>
     </g>
     <g id="text_13">
      <!-- 1.5 -->
      <g transform="translate(21.845938 196.415807) scale(0.1 -0.1)">
       <use xlink:href="#DejaVuSans-31"/>
       <use xlink:href="#DejaVuSans-2e" transform="translate(63.623047 0)"/>
       <use xlink:href="#DejaVuSans-35" transform="translate(95.410156 0)"/>
      </g>
     </g>
    </g>
    <g id="ytick_5">
     <g id="line2d_13">
      <g>
       <use xlink:href="#m085bdb32d3" x="44.749063" y="156.645432" style="stroke: #000000; stroke-width: 0.8"/>
      </g>
     </g>
     <g id="text_14">
      <!-- 2.0 -->
      <g transform="translate(21.845938 160.44465) scale(0.1 -0.1)">
       <use xlink:href="#DejaVuSans-32"/>
       <use xlink:href="#DejaVuSans-2e" transform="translate(63.623047 0)"/>
       <use xlink:href="#DejaVuSans-30" transform="translate(95.410156 0)"/>
      </g>
     </g>
    </g>
    <g id="ytick_6">
     <g id="line2d_14">
      <g>
       <use xlink:href="#m085bdb32d3" x="44.749063" y="120.674275" style="stroke: #000000; stroke-width: 0.8"/>
      </g>
     </g>
     <g id="text_15">
      <!-- 2.5 -->
      <g transform="translate(21.845938 124.473494) scale(0.1 -0.1)">
       <use xlink:href="#DejaVuSans-32"/>
       <use xlink:href="#DejaVuSans-2e" transform="translate(63.623047 0)"/>
       <use xlink:href="#DejaVuSans-35" transform="translate(95.410156 0)"/>
      </g>
     </g>
    </g>
    <g id="ytick_7">
     <g id="line2d_15">
      <g>
       <use xlink:href="#m085bdb32d3" x="44.749063" y="84.703119" style="stroke: #000000; stroke-width: 0.8"/>
      </g>
     </g>
     <g id="text_16">
      <!-- 3.0 -->
      <g transform="translate(21.845938 88.502338) scale(0.1 -0.1)">
       <defs>
        <path id="DejaVuSans-33" d="M 2597 2516 
Q 3050 2419 3304 2112 
Q 3559 1806 3559 1356 
Q 3559 666 3084 287 
Q 2609 -91 1734 -91 
Q 1441 -91 1130 -33 
Q 819 25 488 141 
L 488 750 
Q 750 597 1062 519 
Q 1375 441 1716 441 
Q 2309 441 2620 675 
Q 2931 909 2931 1356 
Q 2931 1769 2642 2001 
Q 2353 2234 1838 2234 
L 1294 2234 
L 1294 2753 
L 1863 2753 
Q 2328 2753 2575 2939 
Q 2822 3125 2822 3475 
Q 2822 3834 2567 4026 
Q 2313 4219 1838 4219 
Q 1578 4219 1281 4162 
Q 984 4106 628 3988 
L 628 4550 
Q 988 4650 1302 4700 
Q 1616 4750 1894 4750 
Q 2613 4750 3031 4423 
Q 3450 4097 3450 3541 
Q 3450 3153 3228 2886 
Q 3006 2619 2597 2516 
z
" transform="scale(0.015625)"/>
       </defs>
       <use xlink:href="#DejaVuSans-33"/>
       <use xlink:href="#DejaVuSans-2e" transform="translate(63.623047 0)"/>
       <use xlink:href="#DejaVuSans-30" transform="translate(95.410156 0)"/>
      </g>
     </g>
    </g>
    <g id="ytick_8">
     <g id="line2d_16">
      <g>
       <use xlink:href="#m085bdb32d3" x="44.749063" y="48.731963" style="stroke: #000000; stroke-width: 0.8"/>
      </g>
     </g>
     <g id="text_17">
      <!-- 3.5 -->
      <g transform="translate(21.845938 52.531181) scale(0.1 -0.1)">
       <use xlink:href="#DejaVuSans-33"/>
       <use xlink:href="#DejaVuSans-2e" transform="translate(63.623047 0)"/>
       <use xlink:href="#DejaVuSans-35" transform="translate(95.410156 0)"/>
      </g>
     </g>
    </g>
    <g id="text_18">
     <!-- Rolling Pe -->
     <g transform="translate(15.558281 200.301641) rotate(-90) scale(0.11 -0.11)">
      <defs>
       <path id="DejaVuSans-6c" d="M 603 4863 
L 1178 4863 
L 1178 0 
L 603 0 
L 603 4863 
z
" transform="scale(0.015625)"/>
       <path id="DejaVuSans-69" d="M 603 3500 
L 1178 3500 
L 1178 0 
L 603 0 
L 603 3500 
z
M 603 4863 
L 1178 4863 
L 1178 4134 
L 603 4134 
L 603 4863 
z
" transform="scale(0.015625)"/>
       <path id="DejaVuSans-67" d="M 2906 1791 
Q 2906 2416 2648 2759 
Q 2391 3103 1925 3103 
Q 1463 3103 1205 2759 
Q 947 2416 947 1791 
Q 947 1169 1205 825 
Q 1463 481 1925 481 
Q 2391 481 2648 825 
Q 2906 1169 2906 1791 
z
M 3481 434 
Q 3481 -459 3084 -895 
Q 2688 -1331 1869 -1331 
Q 1566 -1331 1297 -1286 
Q 1028 -1241 775 -1147 
L 775 -588 
Q 1028 -725 1275 -790 
Q 1522 -856 1778 -856 
Q 2344 -856 2625 -561 
Q 2906 -266 2906 331 
L 2906 616 
Q 2728 306 2450 153 
Q 2172 0 1784 0 
Q 1141 0 747 490 
Q 353 981 353 1791 
Q 353 2603 747 3093 
Q 1141 3584 1784 3584 
Q 2172 3584 2450 3431 
Q 2728 3278 2906 2969 
L 2906 3500 
L 3481 3500 
L 3481 434 
z
" transform="scale(0.015625)"/>
       <path id="DejaVuSans-20" transform="scale(0.015625)"/>
       <path id="DejaVuSans-50" d="M 1259 4147 
L 1259 2394 
L 2053 2394 
Q 2494 2394 2734 2622 
Q 2975 2850 2975 3272 
Q 2975 3691 2734 3919 
Q 2494 4147 2053 4147 
L 1259 4147 
z
M 628 4666 
L 2053 4666 
Q 2838 4666 3239 4311 
Q 3641 3956 3641 3272 
Q 3641 2581 3239 2228 
Q 2838 1875 2053 1875 
L 1259 1875 
L 1259 0 
L 628 0 
L 628 4666 
z
" transform="scale(0.015625)"/>
       <path id="DejaVuSans-65" d="M 3597 1894 
L 3597 1613 
L 953 1613 
Q 991 1019 1311 708 
Q 1631 397 2203 397 
Q 2534 397 2845 478 
Q 3156 559 3463 722 
L 3463 178 
Q 3153 47 2828 -22 
Q 2503 -91 2169 -91 
Q 1331 -91 842 396 
Q 353 884 353 1716 
Q 353 2575 817 3079 
Q 1281 3584 2069 3584 
Q 2775 3584 3186 3129 
Q 3597 2675 3597 1894 
z
M 3022 2063 
Q 3016 2534 2758 2815 
Q 2500 3097 2075 3097 
Q 1594 3097 1305 2825 
Q 1016 2553 972 2059 
L 3022 2063 
z
" transform="scale(0.015625)"/>
      </defs>
      <use xlink:href="#DejaVuSans-52"/>
      <use xlink:href="#DejaVuSans-6f" transform="translate(64.982422 0)"/>
      <use xlink:href="#DejaVuSans-6c" transform="translate(126.164062 0)"/>
      <use xlink:href="#DejaVuSans-6c" transform="translate(153.947266 0)"/>
      <use xlink:href="#DejaVuSans-69" transform="translate(181.730469 0)"/>
      <use xlink:href="#DejaVuSans-6e" transform="translate(209.513672 0)"/>
      <use xlink:href="#DejaVuSans-67" transform="translate(272.892578 0)"/>
      <use xlink:href="#DejaVuSans-20" transform="translate(336.369141 0)"/>
      <use xlink:href="#DejaVuSans-50" transform="translate(368.15625 0)"/>
      <use xlink:href="#DejaVuSans-65" transform="translate(424.833984 0)"/>
     </g>
    </g>
   </g>
   <g id="line2d_17">
    <path d="M 65.210881 300.530057 
L 67.957433 300.530057 
L 70.703986 300.530057 
L 73.450539 300.530057 
L 76.197092 300.530057 
L 78.943645 300.530057 
L 81.690197 300.530057 
L 84.43675 300.530057 
L 87.183303 300.530057 
L 89.929856 300.530057 
L 92.676408 300.530057 
L 95.422961 300.530057 
L 98.169514 300.530057 
L 100.916067 300.530057 
L 103.66262 300.530057 
L 106.409172 300.530057 
L 109.155725 300.530057 
L 111.902278 300.530057 
L 114.648831 300.530057 
L 117.395383 300.530057 
L 120.141936 300.530057 
L 122.888489 300.530057 
L 125.635042 300.530057 
L 128.381595 300.530057 
L 131.128147 300.530057 
L 133.8747 300.530057 
L 136.621253 300.530057 
L 139.367806 300.530057 
L 142.114358 300.530057 
L 144.860911 300.530057 
L 147.607464 300.530057 
L 150.354017 300.530057 
L 153.10057 300.530057 
L 155.847122 300.530057 
L 158.593675 300.530057 
L 161.340228 300.530057 
L 164.086781 300.530057 
L 166.833333 300.530057 
L 169.579886 300.530057 
L 172.326439 300.530057 
L 175.072992 300.530057 
L 177.819545 300.530057 
L 180.566097 300.530057 
L 183.31265 300.530057 
L 186.059203 300.530057 
L 188.805756 300.530057 
L 191.552308 300.530057 
L 194.298861 300.530057 
L 197.045414 300.530057 
L 199.791967 300.530057 
L 202.538519 300.530057 
L 205.285072 300.530057 
L 208.031625 300.530057 
L 210.778178 300.530057 
L 213.524731 300.530057 
L 216.271283 300.530057 
L 219.017836 300.530057 
L 221.764389 300.530057 
L 224.510942 300.530057 
L 227.257494 300.530057 
L 230.004047 300.530057 
L 232.7506 300.530057 
L 235.497153 300.530057 
L 238.243706 300.530057 
L 240.990258 300.530057 
L 243.736811 300.530057 
L 246.483364 300.530057 
L 249.229917 300.530057 
L 251.976469 300.530057 
L 254.723022 300.530057 
L 257.469575 300.530057 
L 260.216128 300.530057 
L 262.962681 300.530057 
L 265.709233 300.530057 
L 268.455786 300.530057 
L 271.202339 300.530057 
L 273.948892 300.530057 
L 276.695444 300.530057 
L 279.441997 300.530057 
L 282.18855 300.530057 
L 284.935103 300.530057 
L 287.681656 300.530057 
L 290.428208 300.530057 
L 293.174761 300.530057 
L 295.921314 300.530057 
L 298.667867 300.530057 
L 301.414419 300.530057 
L 304.160972 300.530057 
L 306.907525 300.530057 
L 309.654078 300.530057 
L 312.400631 300.530057 
L 315.147183 300.530057 
L 317.893736 300.530057 
L 320.640289 300.530057 
L 323.386842 300.530057 
L 326.133394 300.530057 
L 328.879947 300.530057 
L 331.6265 300.530057 
L 334.373053 300.530057 
L 337.119606 300.530057 
L 339.866158 300.530057 
L 342.612711 300.530057 
L 345.359264 300.530057 
L 348.105817 300.530057 
L 350.852369 300.530057 
" clip-path="url(#p78dba3d775)" style="fill: none; stroke: #440154; stroke-width: 1.5; stroke-linecap: square"/>
   </g>
   <g id="line2d_18">
    <path d="M 161.340228 313.227875 
L 161.340228 33.875875 
" clip-path="url(#p78dba3d775)" style="fill: none; stroke-dasharray: 0.7,1.155; stroke-dashoffset: 0; stroke: #440154; stroke-opacity: 0.5; stroke-width: 0.7"/>
   </g>
   <g id="line2d_19">
    <path d="M 65.210881 300.530057 
L 67.957433 300.530057 
L 70.703986 300.530057 
L 73.450539 300.530057 
L 76.197092 300.530057 
L 78.943645 300.530057 
L 81.690197 300.530057 
L 84.43675 300.530057 
L 87.183303 300.530057 
L 89.929856 300.530057 
L 92.676408 300.530057 
L 95.422961 300.530057 
L 98.169514 300.530057 
L 100.916067 300.530057 
L 103.66262 300.530057 
L 106.409172 300.530057 
L 109.155725 300.530057 
L 111.902278 300.530057 
L 114.648831 300.530057 
L 117.395383 300.530057 
L 120.141936 300.530057 
L 122.888489 300.530057 
L 125.635042 300.530057 
L 128.381595 300.530057 
L 131.128147 300.530057 
L 133.8747 300.530057 
L 136.621253 300.530057 
L 139.367806 300.530057 
L 142.114358 300.530057 
L 144.860911 300.530057 
L 147.607464 300.530057 
L 150.354017 300.530057 
L 153.10057 300.530057 
L 155.847122 300.530057 
L 158.593675 300.530057 
L 161.340228 300.530057 
L 164.086781 300.530057 
L 166.833333 300.530057 
L 169.579886 300.530057 
L 172.326439 300.530057 
L 175.072992 300.530057 
L 177.819545 300.530057 
L 180.566097 300.530057 
L 183.31265 300.530057 
L 186.059203 300.530057 
L 188.805756 300.530057 
L 191.552308 300.530057 
L 194.298861 300.530057 
L 197.045414 300.530057 
L 199.791967 300.530057 
L 202.538519 300.530057 
L 205.285072 300.530057 
L 208.031625 300.530057 
L 210.778178 300.530057 
L 213.524731 300.530057 
L 216.271283 300.530057 
L 219.017836 300.530057 
L 221.764389 300.530057 
L 224.510942 300.530057 
L 227.257494 300.530057 
L 230.004047 300.530057 
L 232.7506 300.530057 
L 235.497153 300.530057 
L 238.243706 300.530057 
L 240.990258 300.530057 
L 243.736811 300.530057 
L 246.483364 300.530057 
L 249.229917 300.530057 
L 251.976469 300.530057 
L 254.723022 300.530057 
L 257.469575 300.530057 
L 260.216128 300.530057 
L 262.962681 300.530057 
L 265.709233 300.530057 
L 268.455786 300.530057 
L 271.202339 300.530057 
L 273.948892 300.530057 
L 276.695444 300.530057 
L 279.441997 300.530057 
L 282.18855 300.530057 
L 284.935103 300.530057 
L 287.681656 300.530057 
L 290.428208 300.530057 
L 293.174761 300.530057 
L 295.921314 300.530057 
L 298.667867 300.530057 
L 301.414419 300.530057 
L 304.160972 300.530057 
L 306.907525 300.530057 
L 309.654078 300.530057 
L 312.400631 300.530057 
L 315.147183 300.530057 
L 317.893736 300.530057 
L 320.640289 300.530057 
L 323.386842 300.530057 
L 326.133394 300.530057 
L 328.879947 300.530057 
L 331.6265 300.530057 
L 334.373053 300.530057 
L 337.119606 300.530057 
L 339.866158 300.530057 
L 342.612711 300.530057 
L 345.359264 300.530057 
L 348.105817 300.530057 
L 350.852369 300.530057 
L 353.598922 300.530057 
L 356.345475 300.530057 
L 359.092028 300.530057 
L 361.83858 300.530057 
L 364.585133 300.530057 
" clip-path="url(#p78dba3d775)" style="fill: none; stroke: #3b528b; stroke-width: 1.5; stroke-linecap: square"/>
   </g>
   <g id="line2d_20">
    <path d="M 175.072992 313.227875 
L 175.072992 33.875875 
" clip-path="url(#p78dba3d775)" style="fill: none; stroke-dasharray: 0.7,1.155; stroke-dashoffset: 0; stroke: #3b528b; stroke-opacity: 0.5; stroke-width: 0.7"/>
   </g>
   <g id="line2d_21">
    <path d="M 65.210881 300.530057 
L 67.957433 300.530057 
L 70.703986 300.530057 
L 73.450539 300.530057 
L 76.197092 300.530057 
L 78.943645 300.530057 
L 81.690197 300.530057 
L 84.43675 300.530057 
L 87.183303 300.530057 
L 89.929856 300.530057 
L 92.676408 300.530057 
L 95.422961 300.530057 
L 98.169514 300.530057 
L 100.916067 300.530057 
L 103.66262 300.530057 
L 106.409172 300.530057 
L 109.155725 300.530057 
L 111.902278 300.530057 
L 114.648831 300.530057 
L 117.395383 300.530057 
L 120.141936 300.530057 
L 122.888489 300.530057 
L 125.635042 300.530057 
L 128.381595 300.530057 
L 131.128147 300.530057 
L 133.8747 300.530057 
L 136.621253 300.530057 
L 139.367806 300.530057 
L 142.114358 300.530057 
L 144.860911 300.530057 
L 147.607464 300.530057 
L 150.354017 300.530057 
L 153.10057 300.530057 
L 155.847122 300.530057 
L 158.593675 300.530057 
L 161.340228 300.530057 
L 164.086781 300.530057 
L 166.833333 300.530057 
L 169.579886 300.530057 
L 172.326439 300.530057 
L 175.072992 300.530057 
L 177.819545 300.530057 
L 180.566097 300.530057 
L 183.31265 300.530057 
L 186.059203 300.530057 
L 188.805756 300.530057 
L 191.552308 300.530057 
L 194.298861 300.530057 
L 197.045414 300.530057 
L 199.791967 300.530057 
L 202.538519 300.530057 
L 205.285072 300.530057 
L 208.031625 300.530057 
L 210.778178 300.530057 
L 213.524731 300.530057 
L 216.271283 300.530057 
L 219.017836 300.530057 
L 221.764389 300.530057 
L 224.510942 300.530057 
L 227.257494 300.530057 
L 230.004047 300.530057 
L 232.7506 300.530057 
L 235.497153 300.530057 
L 238.243706 300.530057 
L 240.990258 300.530057 
L 243.736811 300.530057 
L 246.483364 300.530057 
L 249.229917 300.530057 
L 251.976469 300.530057 
L 254.723022 300.530057 
L 257.469575 300.530057 
L 260.216128 300.530057 
L 262.962681 300.530057 
L 265.709233 300.530057 
L 268.455786 300.530057 
L 271.202339 300.530057 
L 273.948892 300.530057 
L 276.695444 300.530057 
L 279.441997 300.530057 
L 282.18855 300.530057 
L 284.935103 300.530057 
L 287.681656 300.530057 
L 290.428208 300.530057 
L 293.174761 300.530057 
L 295.921314 300.530057 
L 298.667867 300.530057 
L 301.414419 300.530057 
L 304.160972 300.530057 
L 306.907525 300.530057 
L 309.654078 300.530057 
L 312.400631 300.530057 
L 315.147183 300.530057 
L 317.893736 300.530057 
L 320.640289 300.530057 
L 323.386842 300.530057 
L 326.133394 300.530057 
L 328.879947 300.530057 
L 331.6265 300.530057 
L 334.373053 300.530057 
L 337.119606 300.530057 
L 339.866158 300.530057 
L 342.612711 300.530057 
L 345.359264 300.530057 
L 348.105817 300.530057 
L 350.852369 300.530057 
L 353.598922 300.530057 
L 356.345475 300.530057 
L 359.092028 300.530057 
L 361.83858 300.530057 
L 364.585133 300.530057 
L 367.331686 300.530057 
L 370.078239 300.530057 
L 372.824792 300.530057 
L 375.571344 300.530057 
L 378.317897 300.530057 
L 381.06445 300.530057 
L 383.811003 300.530057 
L 386.557555 300.530057 
L 389.304108 300.530057 
L 392.050661 300.530057 
" clip-path="url(#p78dba3d775)" style="fill: none; stroke: #21918c; stroke-width: 1.5; stroke-linecap: square"/>
   </g>
   <g id="line2d_22">
    <path d="M 202.538519 313.227875 
L 202.538519 33.875875 
" clip-path="url(#p78dba3d775)" style="fill: none; stroke-dasharray: 0.7,1.155; stroke-dashoffset: 0; stroke: #21918c; stroke-opacity: 0.5; stroke-width: 0.7"/>
   </g>
   <g id="line2d_23">
    <path d="M 65.210881 300.530057 
L 419.516189 300.530057 
L 419.516189 300.530057 
" clip-path="url(#p78dba3d775)" style="fill: none; stroke: #5ec962; stroke-width: 1.5; stroke-linecap: square"/>
   </g>
   <g id="line2d_24">
    <path d="M 230.004047 313.227875 
L 230.004047 33.875875 
" clip-path="url(#p78dba3d775)" style="fill: none; stroke-dasharray: 0.7,1.155; stroke-dashoffset: 0; stroke: #5ec962; stroke-opacity: 0.5; stroke-width: 0.7"/>
   </g>
   <g id="line2d_25">
    <path d="M 65.210881 300.530057 
L 474.447244 300.530057 
L 474.447244 300.530057 
" clip-path="url(#p78dba3d775)" style="fill: none; stroke: #fde725; stroke-width: 1.5; stroke-linecap: square"/>
   </g>
   <g id="line2d_26">
    <path d="M 284.935103 313.227875 
L 284.935103 33.875875 
" clip-path="url(#p78dba3d775)" style="fill: none; stroke-dasharray: 0.7,1.155; stroke-dashoffset: 0; stroke: #fde725; stroke-opacity: 0.5; stroke-width: 0.7"/>
   </g>
   <g id="line2d_27">
    <path d="M 44.749063 228.587744 
L 494.909063 228.587744 
" clip-path="url(#p78dba3d775)" style="fill: none; stroke-dasharray: 5.55,2.4; stroke-dashoffset: 0; stroke: #ff0000; stroke-width: 1.5"/>
   </g>
   <g id="line2d_28">
    <path d="M 44.749063 46.573693 
L 494.909063 46.573693 
" clip-path="url(#p78dba3d775)" style="fill: none; stroke-dasharray: 1,1.65; stroke-dashoffset: 0; stroke: #808080"/>
   </g>
   <g id="patch_4">
    <path d="M 44.749063 313.227875 
L 44.749063 33.875875 
" style="fill: none; stroke: #000000; stroke-width: 0.8; stroke-linejoin: miter; stroke-linecap: square"/>
   </g>
   <g id="patch_5">
    <path d="M 494.909063 313.227875 
L 494.909063 33.875875 
" style="fill: none; stroke: #000000; stroke-width: 0.8; stroke-linejoin: miter; stroke-linecap: square"/>
   </g>
   <g id="patch_6">
    <path d="M 44.749063 313.227875 
L 494.909063 313.227875 
" style="fill: none; stroke: #000000; stroke-width: 0.8; stroke-linejoin: miter; stroke-linecap: square"/>
   </g>
   <g id="patch_7">
    <path d="M 44.749063 33.875875 
L 494.909063 33.875875 
" style="fill: none; stroke: #000000; stroke-width: 0.8; stroke-linejoin: miter; stroke-linecap: square"/>
   </g>
   <g id="text_19">
    <!-- Intervention duration sweep -->
    <g transform="translate(191.996328 15.558281) scale(0.11 -0.11)">
     <defs>
      <path id="DejaVuSans-49" d="M 628 4666 
L 1259 4666 
L 1259 0 
L 628 0 
L 628 4666 
z
" transform="scale(0.015625)"/>
      <path id="DejaVuSans-74" d="M 1172 4494 
L 1172 3500 
L 2356 3500 
L 2356 3053 
L 1172 3053 
L 1172 1153 
Q 1172 725 1289 603 
Q 1406 481 1766 481 
L 2356 481 
L 2356 0 
L 1766 0 
Q 1100 0 847 248 
Q 594 497 594 1153 
L 594 3053 
L 172 3053 
L 172 3500 
L 594 3500 
L 594 4494 
L 1172 4494 
z
" transform="scale(0.015625)"/>
      <path id="DejaVuSans-72" d="M 2631 2963 
Q 2534 3019 2420 3045 
Q 2306 3072 2169 3072 
Q 1681 3072 1420 2755 
Q 1159 2438 1159 1844 
L 1159 0 
L 581 0 
L 581 3500 
L 1159 3500 
L 1159 2956 
Q 1341 3275 1631 3429 
Q 1922 3584 2338 3584 
Q 2397 3584 2469 3576 
Q 2541 3569 2628 3553 
L 2631 2963 
z
" transform="scale(0.015625)"/>
      <path id="DejaVuSans-76" d="M 191 3500 
L 800 3500 
L 1894 563 
L 2988 3500 
L 3597 3500 
L 2284 0 
L 1503 0 
L 191 3500 
z
" transform="scale(0.015625)"/>
      <path id="DejaVuSans-61" d="M 2194 1759 
Q 1497 1759 1228 1600 
Q 959 1441 959 1056 
Q 959 750 1161 570 
Q 1363 391 1709 391 
Q 2188 391 2477 730 
Q 2766 1069 2766 1631 
L 2766 1759 
L 2194 1759 
z
M 3341 1997 
L 3341 0 
L 2766 0 
L 2766 531 
Q 2569 213 2275 61 
Q 1981 -91 1556 -91 
Q 1019 -91 701 211 
Q 384 513 384 1019 
Q 384 1609 779 1909 
Q 1175 2209 1959 2209 
L 2766 2209 
L 2766 2266 
Q 2766 2663 2505 2880 
Q 2244 3097 1772 3097 
Q 1472 3097 1187 3025 
Q 903 2953 641 2809 
L 641 3341 
Q 956 3463 1253 3523 
Q 1550 3584 1831 3584 
Q 2591 3584 2966 3190 
Q 3341 2797 3341 1997 
z
" transform="scale(0.015625)"/>
      <path id="DejaVuSans-73" d="M 2834 3397 
L 2834 2853 
Q 2591 2978 2328 3040 
Q 2066 3103 1784 3103 
Q 1356 3103 1142 2972 
Q 928 2841 928 2578 
Q 928 2378 1081 2264 
Q 1234 2150 1697 2047 
L 1894 2003 
Q 2506 1872 2764 1633 
Q 3022 1394 3022 966 
Q 3022 478 2636 193 
Q 2250 -91 1575 -91 
Q 1294 -91 989 -36 
Q 684 19 347 128 
L 347 722 
Q 666 556 975 473 
Q 1284 391 1588 391 
Q 1994 391 2212 530 
Q 2431 669 2431 922 
Q 2431 1156 2273 1281 
Q 2116 1406 1581 1522 
L 1381 1569 
Q 847 1681 609 1914 
Q 372 2147 372 2553 
Q 372 3047 722 3315 
Q 1072 3584 1716 3584 
Q 2034 3584 2315 3537 
Q 2597 3491 2834 3397 
z
" transform="scale(0.015625)"/>
      <path id="DejaVuSans-77" d="M 269 3500 
L 844 3500 
L 1563 769 
L 2278 3500 
L 2956 3500 
L 3675 769 
L 4391 3500 
L 4966 3500 
L 4050 0 
L 3372 0 
L 2619 2869 
L 1863 0 
L 1184 0 
L 269 3500 
z
" transform="scale(0.015625)"/>
      <path id="DejaVuSans-70" d="M 1159 525 
L 1159 -1331 
L 581 -1331 
L 581 3500 
L 1159 3500 
L 1159 2969 
Q 1341 3281 1617 3432 
Q 1894 3584 2278 3584 
Q 2916 3584 3314 3078 
Q 3713 2572 3713 1747 
Q 3713 922 3314 415 
Q 2916 -91 2278 -91 
Q 1894 -91 1617 61 
Q 1341 213 1159 525 
z
M 3116 1747 
Q 3116 2381 2855 2742 
Q 2594 3103 2138 3103 
Q 1681 3103 1420 2742 
Q 1159 2381 1159 1747 
Q 1159 1113 1420 752 
Q 1681 391 2138 391 
Q 2594 391 2855 752 
Q 3116 1113 3116 1747 
z
" transform="scale(0.015625)"/>
     </defs>
     <use xlink:href="#DejaVuSans-49"/>
     <use xlink:href="#DejaVuSans-6e" transform="translate(29.492188 0)"/>
     <use xlink:href="#DejaVuSans-74" transform="translate(92.871094 0)"/>
     <use xlink:href="#DejaVuSans-65" transform="translate(132.080078 0)"/>
     <use xlink:href="#DejaVuSans-72" transform="translate(193.603516 0)"/>
     <use xlink:href="#DejaVuSans-76" transform="translate(234.716797 0)"/>
     <use xlink:href="#DejaVuSans-65" transform="translate(293.896484 0)"/>
     <use xlink:href="#DejaVuSans-6e" transform="translate(355.419922 0)"/>
     <use xlink:href="#DejaVuSans-74" transform="translate(418.798828 0)"/>
     <use xlink:href="#DejaVuSans-69" transform="translate(458.007812 0)"/>
     <use xlink:href="#DejaVuSans-6f" transform="translate(485.791016 0)"/>
     <use xlink:href="#DejaVuSans-6e" transform="translate(546.972656 0)"/>
     <use xlink:href="#DejaVuSans-20" transform="translate(610.351562 0)"/>
     <use xlink:href="#DejaVuSans-64" transform="translate(642.138672 0)"/>
     <use xlink:href="#DejaVuSans-75" transform="translate(705.615234 0)"/>
     <use xlink:href="#DejaVuSans-72" transform="translate(768.994141 0)"/>
     <use xlink:href="#DejaVuSans-61" transform="translate(810.107422 0)"/>
     <use xlink:href="#DejaVuSans-74" transform="translate(871.386719 0)"/>
     <use xlink:href="#DejaVuSans-69" transform="translate(910.595703 0)"/>
     <use xlink:href="#DejaVuSans-6f" transform="translate(938.378906 0)"/>
     <use xlink:href="#DejaVuSans-6e" transform="translate(999.560547 0)"/>
     <use xlink:href="#DejaVuSans-20" transform="translate(1062.939453 0)"/>
     <use xlink:href="#DejaVuSans-73" transform="translate(1094.726562 0)"/>
     <use xlink:href="#DejaVuSans-77" transform="translate(1146.826172 0)"/>
     <use xlink:href="#DejaVuSans-65" transform="translate(1228.613281 0)"/>
     <use xlink:href="#DejaVuSans-65" transform="translate(1290.136719 0)"/>
     <use xlink:href="#DejaVuSans-70" transform="translate(1351.660156 0)"/>
    </g>
    <!-- (c_int=0.0835, 1.5× Δc_critical) -->
    <g transform="translate(182.183984 27.875875) scale(0.11 -0.11)">
     <defs>
      <path id="DejaVuSans-28" d="M 1984 4856 
Q 1566 4138 1362 3434 
Q 1159 2731 1159 2009 
Q 1159 1288 1364 580 
Q 1569 -128 1984 -844 
L 1484 -844 
Q 1016 -109 783 600 
Q 550 1309 550 2009 
Q 550 2706 781 3412 
Q 1013 4119 1484 4856 
L 1984 4856 
z
" transform="scale(0.015625)"/>
      <path id="DejaVuSans-63" d="M 3122 3366 
L 3122 2828 
Q 2878 2963 2633 3030 
Q 2388 3097 2138 3097 
Q 1578 3097 1268 2742 
Q 959 2388 959 1747 
Q 959 1106 1268 751 
Q 1578 397 2138 397 
Q 2388 397 2633 464 
Q 2878 531 3122 666 
L 3122 134 
Q 2881 22 2623 -34 
Q 2366 -91 2075 -91 
Q 1284 -91 818 406 
Q 353 903 353 1747 
Q 353 2603 823 3093 
Q 1294 3584 2113 3584 
Q 2378 3584 2631 3529 
Q 2884 3475 3122 3366 
z
" transform="scale(0.015625)"/>
      <path id="DejaVuSans-5f" d="M 3263 -1063 
L 3263 -1509 
L -63 -1509 
L -63 -1063 
L 3263 -1063 
z
" transform="scale(0.015625)"/>
      <path id="DejaVuSans-3d" d="M 678 2906 
L 4684 2906 
L 4684 2381 
L 678 2381 
L 678 2906 
z
M 678 1631 
L 4684 1631 
L 4684 1100 
L 678 1100 
L 678 1631 
z
" transform="scale(0.015625)"/>
      <path id="DejaVuSans-2c" d="M 750 794 
L 1409 794 
L 1409 256 
L 897 -744 
L 494 -744 
L 750 256 
L 750 794 
z
" transform="scale(0.015625)"/>
      <path id="DejaVuSans-d7" d="M 4488 3438 
L 3059 2003 
L 4488 575 
L 4116 197 
L 2681 1631 
L 1247 197 
L 878 575 
L 2303 2003 
L 878 3438 
L 1247 3816 
L 2681 2381 
L 4116 3816 
L 4488 3438 
z
" transform="scale(0.015625)"/>
      <path id="DejaVuSans-394" d="M 2188 4044 
L 906 525 
L 3472 525 
L 2188 4044 
z
M 50 0 
L 1831 4666 
L 2547 4666 
L 4325 0 
L 50 0 
z
" transform="scale(0.015625)"/>
      <path id="DejaVuSans-29" d="M 513 4856 
L 1013 4856 
Q 1481 4119 1714 3412 
Q 1947 2706 1947 2009 
Q 1947 1309 1714 600 
Q 1481 -109 1013 -844 
L 513 -844 
Q 928 -128 1133 580 
Q 1338 1288 1338 2009 
Q 1338 2731 1133 3434 
Q 928 4138 513 4856 
z
" transform="scale(0.015625)"/>
     </defs>
     <use xlink:href="#DejaVuSans-28"/>
     <use xlink:href="#DejaVuSans-63" transform="translate(39.013672 0)"/>
     <use xlink:href="#DejaVuSans-5f" transform="translate(93.994141 0)"/>
     <use xlink:href="#DejaVuSans-69" transform="translate(143.994141 0)"/>
     <use xlink:href="#DejaVuSans-6e" transform="translate(171.777344 0)"/>
     <use xlink:href="#DejaVuSans-74" transform="translate(235.15625 0)"/>
     <use xlink:href="#DejaVuSans-3d" transform="translate(274.365234 0)"/>
     <use xlink:href="#DejaVuSans-30" transform="translate(358.154297 0)"/>
     <use xlink:href="#DejaVuSans-2e" transform="translate(421.777344 0)"/>
     <use xlink:href="#DejaVuSans-30" transform="translate(453.564453 0)"/>
     <use xlink:href="#DejaVuSans-38" transform="translate(517.1875 0)"/>
     <use xlink:href="#DejaVuSans-33" transform="translate(580.810547 0)"/>
     <use xlink:href="#DejaVuSans-35" transform="translate(644.433594 0)"/>
     <use xlink:href="#DejaVuSans-2c" transform="translate(708.056641 0)"/>
     <use xlink:href="#DejaVuSans-20" transform="translate(739.84375 0)"/>
     <use xlink:href="#DejaVuSans-31" transform="translate(771.630859 0)"/>
     <use xlink:href="#DejaVuSans-2e" transform="translate(835.253906 0)"/>
     <use xlink:href="#DejaVuSans-35" transform="translate(867.041016 0)"/>
     <use xlink:href="#DejaVuSans-d7" transform="translate(930.664062 0)"/>
     <use xlink:href="#DejaVuSans-20" transform="translate(1014.453125 0)"/>
     <use xlink:href="#DejaVuSans-394" transform="translate(1046.240234 0)"/>
     <use xlink:href="#DejaVuSans-63" transform="translate(1114.648438 0)"/>
     <use xlink:href="#DejaVuSans-5f" transform="translate(1169.628906 0)"/>
     <use xlink:href="#DejaVuSans-63" transform="translate(1219.628906 0)"/>
     <use xlink:href="#DejaVuSans-72" transform="translate(1274.609375 0)"/>
     <use xlink:href="#DejaVuSans-69" transform="translate(1315.722656 0)"/>
     <use xlink:href="#DejaVuSans-74" transform="translate(1343.505859 0)"/>
     <use xlink:href="#DejaVuSans-69" transform="translate(1382.714844 0)"/>
     <use xlink:href="#DejaVuSans-63" transform="translate(1410.498047 0)"/>
     <use xlink:href="#DejaVuSans-61" transform="translate(1465.478516 0)"/>
     <use xlink:href="#DejaVuSans-6c" transform="translate(1526.757812 0)"/>
     <use xlink:href="#DejaVuSans-29" transform="translate(1554.541016 0)"/>
    </g>
   </g>
   <g id="legend_1">
    <g id="patch_8">
     <path d="M 374.306563 221.721875 
L 489.309063 221.721875 
Q 490.909063 221.721875 490.909063 220.121875 
L 490.909063 126.981875 
Q 490.909063 125.381875 489.309063 125.381875 
L 374.306563 125.381875 
Q 372.706563 125.381875 372.706563 126.981875 
L 372.706563 220.121875 
Q 372.706563 221.721875 374.306563 221.721875 
z
" style="fill: #ffffff; opacity: 0.8; stroke: #cccccc; stroke-linejoin: miter"/>
    </g>
    <g id="line2d_29">
     <path d="M 375.906563 131.860625 
L 383.906563 131.860625 
L 391.906563 131.860625 
" style="fill: none; stroke: #440154; stroke-width: 1.5; stroke-linecap: square"/>
    </g>
    <g id="text_20">
     <!-- T=5r  post=0.00  ✓ -->
     <g transform="translate(398.306563 134.660625) scale(0.08 -0.08)">
      <defs>
       <path id="DejaVuSans-54" d="M -19 4666 
L 3928 4666 
L 3928 4134 
L 2272 4134 
L 2272 0 
L 1638 0 
L 1638 4134 
L -19 4134 
L -19 4666 
z
" transform="scale(0.015625)"/>
       <path id="DejaVuSans-2713" d="M 1416 2044 
Q 1538 2044 1600 1844 
Q 1725 1469 1778 1469 
Q 1819 1469 1863 1531 
Q 2741 2938 3488 3806 
Q 3681 4031 4103 4031 
Q 4203 4031 4237 4012 
Q 4272 3994 4272 3966 
Q 4272 3922 4169 3794 
Q 2963 2344 1931 731 
Q 1859 619 1638 619 
Q 1413 619 1372 638 
Q 1266 684 1122 1116 
Q 959 1594 959 1716 
Q 959 1847 1178 1969 
Q 1313 2044 1416 2044 
z
" transform="scale(0.015625)"/>
      </defs>
      <use xlink:href="#DejaVuSans-54"/>
      <use xlink:href="#DejaVuSans-3d" transform="translate(61.083984 0)"/>
      <use xlink:href="#DejaVuSans-35" transform="translate(144.873047 0)"/>
      <use xlink:href="#DejaVuSans-72" transform="translate(208.496094 0)"/>
      <use xlink:href="#DejaVuSans-20" transform="translate(249.609375 0)"/>
      <use xlink:href="#DejaVuSans-20" transform="translate(281.396484 0)"/>
      <use xlink:href="#DejaVuSans-70" transform="translate(313.183594 0)"/>
      <use xlink:href="#DejaVuSans-6f" transform="translate(376.660156 0)"/>
      <use xlink:href="#DejaVuSans-73" transform="translate(437.841797 0)"/>
      <use xlink:href="#DejaVuSans-74" transform="translate(489.941406 0)"/>
      <use xlink:href="#DejaVuSans-3d" transform="translate(529.150391 0)"/>
      <use xlink:href="#DejaVuSans-30" transform="translate(612.939453 0)"/>
      <use xlink:href="#DejaVuSans-2e" transform="translate(676.5625 0)"/>
      <use xlink:href="#DejaVuSans-30" transform="translate(708.349609 0)"/>
      <use xlink:href="#DejaVuSans-30" transform="translate(771.972656 0)"/>
      <use xlink:href="#DejaVuSans-20" transform="translate(835.595703 0)"/>
      <use xlink:href="#DejaVuSans-20" transform="translate(867.382812 0)"/>
      <use xlink:href="#DejaVuSans-2713" transform="translate(899.169922 0)"/>
     </g>
    </g>
    <g id="line2d_30">
     <path d="M 375.906563 143.603125 
L 383.906563 143.603125 
L 391.906563 143.603125 
" style="fill: none; stroke: #3b528b; stroke-width: 1.5; stroke-linecap: square"/>
    </g>
    <g id="text_21">
     <!-- T=10r  post=0.00  ✓ -->
     <g transform="translate(398.306563 146.403125) scale(0.08 -0.08)">
      <use xlink:href="#DejaVuSans-54"/>
      <use xlink:href="#DejaVuSans-3d" transform="translate(61.083984 0)"/>
      <use xlink:href="#DejaVuSans-31" transform="translate(144.873047 0)"/>
      <use xlink:href="#DejaVuSans-30" transform="translate(208.496094 0)"/>
      <use xlink:href="#DejaVuSans-72" transform="translate(272.119141 0)"/>
      <use xlink:href="#DejaVuSans-20" transform="translate(313.232422 0)"/>
      <use xlink:href="#DejaVuSans-20" transform="translate(345.019531 0)"/>
      <use xlink:href="#DejaVuSans-70" transform="translate(376.806641 0)"/>
      <use xlink:href="#DejaVuSans-6f" transform="translate(440.283203 0)"/>
      <use xlink:href="#DejaVuSans-73" transform="translate(501.464844 0)"/>
      <use xlink:href="#DejaVuSans-74" transform="translate(553.564453 0)"/>
      <use xlink:href="#DejaVuSans-3d" transform="translate(592.773438 0)"/>
      <use xlink:href="#DejaVuSans-30" transform="translate(676.5625 0)"/>
      <use xlink:href="#DejaVuSans-2e" transform="translate(740.185547 0)"/>
      <use xlink:href="#DejaVuSans-30" transform="translate(771.972656 0)"/>
      <use xlink:href="#DejaVuSans-30" transform="translate(835.595703 0)"/>
      <use xlink:href="#DejaVuSans-20" transform="translate(899.21875 0)"/>
      <use xlink:href="#DejaVuSans-20" transform="translate(931.005859 0)"/>
      <use xlink:href="#DejaVuSans-2713" transform="translate(962.792969 0)"/>
     </g>
    </g>
    <g id="line2d_31">
     <path d="M 375.906563 155.345625 
L 383.906563 155.345625 
L 391.906563 155.345625 
" style="fill: none; stroke: #21918c; stroke-width: 1.5; stroke-linecap: square"/>
    </g>
    <g id="text_22">
     <!-- T=20r  post=0.00  ✓ -->
     <g transform="translate(398.306563 158.145625) scale(0.08 -0.08)">
      <use xlink:href="#DejaVuSans-54"/>
      <use xlink:href="#DejaVuSans-3d" transform="translate(61.083984 0)"/>
      <use xlink:href="#DejaVuSans-32" transform="translate(144.873047 0)"/>
      <use xlink:href="#DejaVuSans-30" transform="translate(208.496094 0)"/>
      <use xlink:href="#DejaVuSans-72" transform="translate(272.119141 0)"/>
      <use xlink:href="#DejaVuSans-20" transform="translate(313.232422 0)"/>
      <use xlink:href="#DejaVuSans-20" transform="translate(345.019531 0)"/>
      <use xlink:href="#DejaVuSans-70" transform="translate(376.806641 0)"/>
      <use xlink:href="#DejaVuSans-6f" transform="translate(440.283203 0)"/>
      <use xlink:href="#DejaVuSans-73" transform="translate(501.464844 0)"/>
      <use xlink:href="#DejaVuSans-74" transform="translate(553.564453 0)"/>
      <use xlink:href="#DejaVuSans-3d" transform="translate(592.773438 0)"/>
      <use xlink:href="#DejaVuSans-30" transform="translate(676.5625 0)"/>
      <use xlink:href="#DejaVuSans-2e" transform="translate(740.185547 0)"/>
      <use xlink:href="#DejaVuSans-30" transform="translate(771.972656 0)"/>
      <use xlink:href="#DejaVuSans-30" transform="translate(835.595703 0)"/>
      <use xlink:href="#DejaVuSans-20" transform="translate(899.21875 0)"/>
      <use xlink:href="#DejaVuSans-20" transform="translate(931.005859 0)"/>
      <use xlink:href="#DejaVuSans-2713" transform="translate(962.792969 0)"/>
     </g>
    </g>
    <g id="line2d_32">
     <path d="M 375.906563 167.088125 
L 383.906563 167.088125 
L 391.906563 167.088125 
" style="fill: none; stroke: #5ec962; stroke-width: 1.5; stroke-linecap: square"/>
    </g>
    <g id="text_23">
     <!-- T=30r  post=0.00  ✓ -->
     <g transform="translate(398.306563 169.888125) scale(0.08 -0.08)">
      <use xlink:href="#DejaVuSans-54"/>
      <use xlink:href="#DejaVuSans-3d" transform="translate(61.083984 0)"/>
      <use xlink:href="#DejaVuSans-33" transform="translate(144.873047 0)"/>
      <use xlink:href="#DejaVuSans-30" transform="translate(208.496094 0)"/>
      <use xlink:href="#DejaVuSans-72" transform="translate(272.119141 0)"/>
      <use xlink:href="#DejaVuSans-20" transform="translate(313.232422 0)"/>
      <use xlink:href="#DejaVuSans-20" transform="translate(345.019531 0)"/>
      <use xlink:href="#DejaVuSans-70" transform="translate(376.806641 0)"/>
      <use xlink:href="#DejaVuSans-6f" transform="translate(440.283203 0)"/>
      <use xlink:href="#DejaVuSans-73" transform="translate(501.464844 0)"/>
      <use xlink:href="#DejaVuSans-74" transform="translate(553.564453 0)"/>
      <use xlink:href="#DejaVuSans-3d" transform="translate(592.773438 0)"/>
      <use xlink:href="#DejaVuSans-30" transform="translate(676.5625 0)"/>
      <use xlink:href="#DejaVuSans-2e" transform="translate(740.185547 0)"/>
      <use xlink:href="#DejaVuSans-30" transform="translate(771.972656 0)"/>
      <use xlink:href="#DejaVuSans-30" transform="translate(835.595703 0)"/>
      <use xlink:href="#DejaVuSans-20" transform="translate(899.21875 0)"/>
      <use xlink:href="#DejaVuSans-20" transform="translate(931.005859 0)"/>
      <use xlink:href="#DejaVuSans-2713" transform="translate(962.792969 0)"/>
     </g>
    </g>
    <g id="line2d_33">
     <path d="M 375.906563 178.830625 
L 383.906563 178.830625 
L 391.906563 178.830625 
" style="fill: none; stroke: #fde725; stroke-width: 1.5; stroke-linecap: square"/>
    </g>
    <g id="text_24">
     <!-- T=50r  post=0.00  ✓ -->
     <g transform="translate(398.306563 181.630625) scale(0.08 -0.08)">
      <use xlink:href="#DejaVuSans-54"/>
      <use xlink:href="#DejaVuSans-3d" transform="translate(61.083984 0)"/>
      <use xlink:href="#DejaVuSans-35" transform="translate(144.873047 0)"/>
      <use xlink:href="#DejaVuSans-30" transform="translate(208.496094 0)"/>
      <use xlink:href="#DejaVuSans-72" transform="translate(272.119141 0)"/>
      <use xlink:href="#DejaVuSans-20" transform="translate(313.232422 0)"/>
      <use xlink:href="#DejaVuSans-20" transform="translate(345.019531 0)"/>
      <use xlink:href="#DejaVuSans-70" transform="translate(376.806641 0)"/>
      <use xlink:href="#DejaVuSans-6f" transform="translate(440.283203 0)"/>
      <use xlink:href="#DejaVuSans-73" transform="translate(501.464844 0)"/>
      <use xlink:href="#DejaVuSans-74" transform="translate(553.564453 0)"/>
      <use xlink:href="#DejaVuSans-3d" transform="translate(592.773438 0)"/>
      <use xlink:href="#DejaVuSans-30" transform="translate(676.5625 0)"/>
      <use xlink:href="#DejaVuSans-2e" transform="translate(740.185547 0)"/>
      <use xlink:href="#DejaVuSans-30" transform="translate(771.972656 0)"/>
      <use xlink:href="#DejaVuSans-30" transform="translate(835.595703 0)"/>
      <use xlink:href="#DejaVuSans-20" transform="translate(899.21875 0)"/>
      <use xlink:href="#DejaVuSans-20" transform="translate(931.005859 0)"/>
      <use xlink:href="#DejaVuSans-2713" transform="translate(962.792969 0)"/>
     </g>
    </g>
    <g id="line2d_34">
     <path d="M 375.906563 190.573125 
L 383.906563 190.573125 
L 391.906563 190.573125 
" style="fill: none; stroke-dasharray: 5.55,2.4; stroke-dashoffset: 0; stroke: #ff0000; stroke-width: 1.5"/>
    </g>
    <g id="text_25">
     <!-- Pe = 1 threshold -->
     <g transform="translate(398.306563 193.373125) scale(0.08 -0.08)">
      <defs>
       <path id="DejaVuSans-68" d="M 3513 2113 
L 3513 0 
L 2938 0 
L 2938 2094 
Q 2938 2591 2744 2837 
Q 2550 3084 2163 3084 
Q 1697 3084 1428 2787 
Q 1159 2491 1159 1978 
L 1159 0 
L 581 0 
L 581 4863 
L 1159 4863 
L 1159 2956 
Q 1366 3272 1645 3428 
Q 1925 3584 2291 3584 
Q 2894 3584 3203 3211 
Q 3513 2838 3513 2113 
z
" transform="scale(0.015625)"/>
      </defs>
      <use xlink:href="#DejaVuSans-50"/>
      <use xlink:href="#DejaVuSans-65" transform="translate(56.677734 0)"/>
      <use xlink:href="#DejaVuSans-20" transform="translate(118.201172 0)"/>
      <use xlink:href="#DejaVuSans-3d" transform="translate(149.988281 0)"/>
      <use xlink:href="#DejaVuSans-20" transform="translate(233.777344 0)"/>
      <use xlink:href="#DejaVuSans-31" transform="translate(265.564453 0)"/>
      <use xlink:href="#DejaVuSans-20" transform="translate(329.1875 0)"/>
      <use xlink:href="#DejaVuSans-74" transform="translate(360.974609 0)"/>
      <use xlink:href="#DejaVuSans-68" transform="translate(400.183594 0)"/>
      <use xlink:href="#DejaVuSans-72" transform="translate(463.5625 0)"/>
      <use xlink:href="#DejaVuSans-65" transform="translate(502.425781 0)"/>
      <use xlink:href="#DejaVuSans-73" transform="translate(563.949219 0)"/>
      <use xlink:href="#DejaVuSans-68" transform="translate(616.048828 0)"/>
      <use xlink:href="#DejaVuSans-6f" transform="translate(679.427734 0)"/>
      <use xlink:href="#DejaVuSans-6c" transform="translate(740.609375 0)"/>
      <use xlink:href="#DejaVuSans-64" transform="translate(768.392578 0)"/>
     </g>
    </g>
    <g id="line2d_35">
     <path d="M 375.906563 202.315625 
L 383.906563 202.315625 
L 391.906563 202.315625 
" style="fill: none; stroke-dasharray: 1,1.65; stroke-dashoffset: 0; stroke: #808080"/>
    </g>
    <g id="text_26">
     <!-- Pe0 = 3.53 -->
     <g transform="translate(398.306563 205.115625) scale(0.08 -0.08)">
      <use xlink:href="#DejaVuSans-50"/>
      <use xlink:href="#DejaVuSans-65" transform="translate(56.677734 0)"/>
      <use xlink:href="#DejaVuSans-30" transform="translate(118.201172 0)"/>
      <use xlink:href="#DejaVuSans-20" transform="translate(181.824219 0)"/>
      <use xlink:href="#DejaVuSans-3d" transform="translate(213.611328 0)"/>
      <use xlink:href="#DejaVuSans-20" transform="translate(297.400391 0)"/>
      <use xlink:href="#DejaVuSans-33" transform="translate(329.1875 0)"/>
      <use xlink:href="#DejaVuSans-2e" transform="translate(392.810547 0)"/>
      <use xlink:href="#DejaVuSans-35" transform="translate(424.597656 0)"/>
      <use xlink:href="#DejaVuSans-33" transform="translate(488.220703 0)"/>
     </g>
    </g>
    <g id="patch_9">
     <path d="M 375.906563 216.858125 
L 391.906563 216.858125 
L 391.906563 211.258125 
L 375.906563 211.258125 
z
" style="fill: #008000; opacity: 0.05; stroke: #008000; stroke-linejoin: miter"/>
    </g>
    <g id="text_27">
     <!-- Max intervention zone -->
     <g transform="translate(398.306563 216.858125) scale(0.08 -0.08)">
      <defs>
       <path id="DejaVuSans-4d" d="M 628 4666 
L 1569 4666 
L 2759 1491 
L 3956 4666 
L 4897 4666 
L 4897 0 
L 4281 0 
L 4281 4097 
L 3078 897 
L 2444 897 
L 1241 4097 
L 1241 0 
L 628 0 
L 628 4666 
z
" transform="scale(0.015625)"/>
       <path id="DejaVuSans-78" d="M 3513 3500 
L 2247 1797 
L 3578 0 
L 2900 0 
L 1881 1375 
L 863 0 
L 184 0 
L 1544 1831 
L 300 3500 
L 978 3500 
L 1906 2253 
L 2834 3500 
L 3513 3500 
z
" transform="scale(0.015625)"/>
       <path id="DejaVuSans-7a" d="M 353 3500 
L 3084 3500 
L 3084 2975 
L 922 459 
L 3084 459 
L 3084 0 
L 275 0 
L 275 525 
L 2438 3041 
L 353 3041 
L 353 3500 
z
" transform="scale(0.015625)"/>
      </defs>
      <use xlink:href="#DejaVuSans-4d"/>
      <use xlink:href="#DejaVuSans-61" transform="translate(86.279297 0)"/>
      <use xlink:href="#DejaVuSans-78" transform="translate(147.558594 0)"/>
      <use xlink:href="#DejaVuSans-20" transform="translate(206.738281 0)"/>
      <use xlink:href="#DejaVuSans-69" transform="translate(238.525391 0)"/>
      <use xlink:href="#DejaVuSans-6e" transform="translate(266.308594 0)"/>
      <use xlink:href="#DejaVuSans-74" transform="translate(329.6875 0)"/>
      <use xlink:href="#DejaVuSans-65" transform="translate(368.896484 0)"/>
      <use xlink:href="#DejaVuSans-72" transform="translate(430.419922 0)"/>
      <use xlink:href="#DejaVuSans-76" transform="translate(471.533203 0)"/>
      <use xlink:href="#DejaVuSans-65" transform="translate(530.712891 0)"/>
      <use xlink:href="#DejaVuSans-6e" transform="translate(592.236328 0)"/>
      <use xlink:href="#DejaVuSans-74" transform="translate(655.615234 0)"/>
      <use xlink:href="#DejaVuSans-69" transform="translate(694.824219 0)"/>
      <use xlink:href="#DejaVuSans-6f" transform="translate(722.607422 0)"/>
      <use xlink:href="#DejaVuSans-6e" transform="translate(783.789062 0)"/>
      <use xlink:href="#DejaVuSans-20" transform="translate(847.167969 0)"/>
      <use xlink:href="#DejaVuSans-7a" transform="translate(878.955078 0)"/>
      <use xlink:href="#DejaVuSans-6f" transform="translate(931.445312 0)"/>
      <use xlink:href="#DejaVuSans-6e" transform="translate(992.626953 0)"/>
      <use xlink:href="#DejaVuSans-65" transform="translate(1056.005859 0)"/>
     </g>
    </g>
   </g>
  </g>
  <g id="axes_2">
   <g id="patch_10">
    <path d="M 543.349063 313.227875 
L 993.509063 313.227875 
L 993.509063 33.875875 
L 543.349063 33.875875 
z
" style="fill: #ffffff"/>
   </g>
   <g id="patch_11">
    <path d="M 563.810881 313.227875 
L 632.016941 313.227875 
L 632.016941 313.227875 
L 563.810881 313.227875 
z
" clip-path="url(#pd11ea296d0)" style="fill: #2ecc71; stroke: #000000; stroke-width: 0.8; stroke-linejoin: miter"/>
   </g>
   <g id="patch_12">
    <path d="M 649.068456 313.227875 
L 717.274517 313.227875 
L 717.274517 313.227875 
L 649.068456 313.227875 
z
" clip-path="url(#pd11ea296d0)" style="fill: #2ecc71; stroke: #000000; stroke-width: 0.8; stroke-linejoin: miter"/>
   </g>
   <g id="patch_13">
    <path d="M 734.326032 313.227875 
L 802.532093 313.227875 
L 802.532093 313.227875 
L 734.326032 313.227875 
z
" clip-path="url(#pd11ea296d0)" style="fill: #2ecc71; stroke: #000000; stroke-width: 0.8; stroke-linejoin: miter"/>
   </g>
   <g id="patch_14">
    <path d="M 819.583608 313.227875 
L 887.789669 313.227875 
L 887.789669 313.227875 
L 819.583608 313.227875 
z
" clip-path="url(#pd11ea296d0)" style="fill: #2ecc71; stroke: #000000; stroke-width: 0.8; stroke-linejoin: miter"/>
   </g>
   <g id="patch_15">
    <path d="M 904.841184 313.227875 
L 973.047244 313.227875 
L 973.047244 313.227875 
L 904.841184 313.227875 
z
" clip-path="url(#pd11ea296d0)" style="fill: #2ecc71; stroke: #000000; stroke-width: 0.8; stroke-linejoin: miter"/>
   </g>
   <g id="matplotlib.axis_3">
    <g id="xtick_9">
     <g id="line2d_36">
      <g>
       <use xlink:href="#mb4142cb00f" x="597.913911" y="313.227875" style="stroke: #000000; stroke-width: 0.8"/>
      </g>
     </g>
     <g id="text_28">
      <!-- 5 -->
      <g transform="translate(594.732661 327.826312) scale(0.1 -0.1)">
       <use xlink:href="#DejaVuSans-35"/>
      </g>
     </g>
    </g>
    <g id="xtick_10">
     <g id="line2d_37">
      <g>
       <use xlink:href="#mb4142cb00f" x="683.171487" y="313.227875" style="stroke: #000000; stroke-width: 0.8"/>
      </g>
     </g>
     <g id="text_29">
      <!-- 10 -->
      <g transform="translate(676.808987 327.826312) scale(0.1 -0.1)">
       <use xlink:href="#DejaVuSans-31"/>
       <use xlink:href="#DejaVuSans-30" transform="translate(63.623047 0)"/>
      </g>
     </g>
    </g>
    <g id="xtick_11">
     <g id="line2d_38">
      <g>
       <use xlink:href="#mb4142cb00f" x="768.429063" y="313.227875" style="stroke: #000000; stroke-width: 0.8"/>
      </g>
     </g>
     <g id="text_30">
      <!-- 20 -->
      <g transform="translate(762.066563 327.826312) scale(0.1 -0.1)">
       <use xlink:href="#DejaVuSans-32"/>
       <use xlink:href="#DejaVuSans-30" transform="translate(63.623047 0)"/>
      </g>
     </g>
    </g>
    <g id="xtick_12">
     <g id="line2d_39">
      <g>
       <use xlink:href="#mb4142cb00f" x="853.686638" y="313.227875" style="stroke: #000000; stroke-width: 0.8"/>
      </g>
     </g>
     <g id="text_31">
      <!-- 30 -->
      <g transform="translate(847.324138 327.826312) scale(0.1 -0.1)">
       <use xlink:href="#DejaVuSans-33"/>
       <use xlink:href="#DejaVuSans-30" transform="translate(63.623047 0)"/>
      </g>
     </g>
    </g>
    <g id="xtick_13">
     <g id="line2d_40">
      <g>
       <use xlink:href="#mb4142cb00f" x="938.944214" y="313.227875" style="stroke: #000000; stroke-width: 0.8"/>
      </g>
     </g>
     <g id="text_32">
      <!-- 50 -->
      <g transform="translate(932.581714 327.826312) scale(0.1 -0.1)">
       <use xlink:href="#DejaVuSans-35"/>
       <use xlink:href="#DejaVuSans-30" transform="translate(63.623047 0)"/>
      </g>
     </g>
    </g>
    <g id="text_33">
     <!-- Intervention duration T (rounds) -->
     <g transform="translate(679.989922 342.264281) scale(0.11 -0.11)">
      <use xlink:href="#DejaVuSans-49"/>
      <use xlink:href="#DejaVuSans-6e" transform="translate(29.492188 0)"/>
      <use xlink:href="#DejaVuSans-74" transform="translate(92.871094 0)"/>
      <use xlink:href="#DejaVuSans-65" transform="translate(132.080078 0)"/>
      <use xlink:href="#DejaVuSans-72" transform="translate(193.603516 0)"/>
      <use xlink:href="#DejaVuSans-76" transform="translate(234.716797 0)"/>
      <use xlink:href="#DejaVuSans-65" transform="translate(293.896484 0)"/>
      <use xlink:href="#DejaVuSans-6e" transform="translate(355.419922 0)"/>
      <use xlink:href="#DejaVuSans-74" transform="translate(418.798828 0)"/>
      <use xlink:href="#DejaVuSans-69" transform="translate(458.007812 0)"/>
      <use xlink:href="#DejaVuSans-6f" transform="translate(485.791016 0)"/>
      <use xlink:href="#DejaVuSans-6e" transform="translate(546.972656 0)"/>
      <use xlink:href="#DejaVuSans-20" transform="translate(610.351562 0)"/>
      <use xlink:href="#DejaVuSans-64" transform="translate(642.138672 0)"/>
      <use xlink:href="#DejaVuSans-75" transform="translate(705.615234 0)"/>
      <use xlink:href="#DejaVuSans-72" transform="translate(768.994141 0)"/>
      <use xlink:href="#DejaVuSans-61" transform="translate(810.107422 0)"/>
      <use xlink:href="#DejaVuSans-74" transform="translate(871.386719 0)"/>
      <use xlink:href="#DejaVuSans-69" transform="translate(910.595703 0)"/>
      <use xlink:href="#DejaVuSans-6f" transform="translate(938.378906 0)"/>
      <use xlink:href="#DejaVuSans-6e" transform="translate(999.560547 0)"/>
      <use xlink:href="#DejaVuSans-20" transform="translate(1062.939453 0)"/>
      <use xlink:href="#DejaVuSans-54" transform="translate(1094.726562 0)"/>
      <use xlink:href="#DejaVuSans-20" transform="translate(1155.810547 0)"/>
      <use xlink:href="#DejaVuSans-28" transform="translate(1187.597656 0)"/>
      <use xlink:href="#DejaVuSans-72" transform="translate(1226.611328 0)"/>
      <use xlink:href="#DejaVuSans-6f" transform="translate(1265.474609 0)"/>
      <use xlink:href="#DejaVuSans-75" transform="translate(1326.65625 0)"/>
      <use xlink:href="#DejaVuSans-6e" transform="translate(1390.035156 0)"/>
      <use xlink:href="#DejaVuSans-64" transform="translate(1453.414062 0)"/>
      <use xlink:href="#DejaVuSans-73" transform="translate(1516.890625 0)"/>
      <use xlink:href="#DejaVuSans-29" transform="translate(1568.990234 0)"/>
     </g>
    </g>
   </g>
   <g id="matplotlib.axis_4">
    <g id="ytick_9">
     <g id="line2d_41">
      <g>
       <use xlink:href="#m085bdb32d3" x="543.349063" y="313.227875" style="stroke: #000000; stroke-width: 0.8"/>
      </g>
     </g>
     <g id="text_34">
      <!-- 0.0 -->
      <g transform="translate(520.445938 317.027094) scale(0.1 -0.1)">
       <use xlink:href="#DejaVuSans-30"/>
       <use xlink:href="#DejaVuSans-2e" transform="translate(63.623047 0)"/>
       <use xlink:href="#DejaVuSans-30" transform="translate(95.410156 0)"/>
      </g>
     </g>
    </g>
    <g id="ytick_10">
     <g id="line2d_42">
      <g>
       <use xlink:href="#m085bdb32d3" x="543.349063" y="275.543806" style="stroke: #000000; stroke-width: 0.8"/>
      </g>
     </g>
     <g id="text_35">
      <!-- 0.5 -->
      <g transform="translate(520.445938 279.343025) scale(0.1 -0.1)">
       <use xlink:href="#DejaVuSans-30"/>
       <use xlink:href="#DejaVuSans-2e" transform="translate(63.623047 0)"/>
       <use xlink:href="#DejaVuSans-35" transform="translate(95.410156 0)"/>
      </g>
     </g>
    </g>
    <g id="ytick_11">
     <g id="line2d_43">
      <g>
       <use xlink:href="#m085bdb32d3" x="543.349063" y="237.859738" style="stroke: #000000; stroke-width: 0.8"/>
      </g>
     </g>
     <g id="text_36">
      <!-- 1.0 -->
      <g transform="translate(520.445938 241.658957) scale(0.1 -0.1)">
       <use xlink:href="#DejaVuSans-31"/>
       <use xlink:href="#DejaVuSans-2e" transform="translate(63.623047 0)"/>
       <use xlink:href="#DejaVuSans-30" transform="translate(95.410156 0)"/>
      </g>
     </g>
    </g>
    <g id="ytick_12">
     <g id="line2d_44">
      <g>
       <use xlink:href="#m085bdb32d3" x="543.349063" y="200.175669" style="stroke: #000000; stroke-width: 0.8"/>
      </g>
     </g>
     <g id="text_37">
      <!-- 1.5 -->
      <g transform="translate(520.445938 203.974888) scale(0.1 -0.1)">
       <use xlink:href="#DejaVuSans-31"/>
       <use xlink:href="#DejaVuSans-2e" transform="translate(63.623047 0)"/>
       <use xlink:href="#DejaVuSans-35" transform="translate(95.410156 0)"/>
      </g>
     </g>
    </g>
    <g id="ytick_13">
     <g id="line2d_45">
      <g>
       <use xlink:href="#m085bdb32d3" x="543.349063" y="162.491601" style="stroke: #000000; stroke-width: 0.8"/>
      </g>
     </g>
     <g id="text_38">
      <!-- 2.0 -->
      <g transform="translate(520.445938 166.29082) scale(0.1 -0.1)">
       <use xlink:href="#DejaVuSans-32"/>
       <use xlink:href="#DejaVuSans-2e" transform="translate(63.623047 0)"/>
       <use xlink:href="#DejaVuSans-30" transform="translate(95.410156 0)"/>
      </g>
     </g>
    </g>
    <g id="ytick_14">
     <g id="line2d_46">
      <g>
       <use xlink:href="#m085bdb32d3" x="543.349063" y="124.807532" style="stroke: #000000; stroke-width: 0.8"/>
      </g>
     </g>
     <g id="text_39">
      <!-- 2.5 -->
      <g transform="translate(520.445938 128.606751) scale(0.1 -0.1)">
       <use xlink:href="#DejaVuSans-32"/>
       <use xlink:href="#DejaVuSans-2e" transform="translate(63.623047 0)"/>
       <use xlink:href="#DejaVuSans-35" transform="translate(95.410156 0)"/>
      </g>
     </g>
    </g>
    <g id="ytick_15">
     <g id="line2d_47">
      <g>
       <use xlink:href="#m085bdb32d3" x="543.349063" y="87.123464" style="stroke: #000000; stroke-width: 0.8"/>
      </g>
     </g>
     <g id="text_40">
      <!-- 3.0 -->
      <g transform="translate(520.445938 90.922683) scale(0.1 -0.1)">
       <use xlink:href="#DejaVuSans-33"/>
       <use xlink:href="#DejaVuSans-2e" transform="translate(63.623047 0)"/>
       <use xlink:href="#DejaVuSans-30" transform="translate(95.410156 0)"/>
      </g>
     </g>
    </g>
    <g id="ytick_16">
     <g id="line2d_48">
      <g>
       <use xlink:href="#m085bdb32d3" x="543.349063" y="49.439395" style="stroke: #000000; stroke-width: 0.8"/>
      </g>
     </g>
     <g id="text_41">
      <!-- 3.5 -->
      <g transform="translate(520.445938 53.238614) scale(0.1 -0.1)">
       <use xlink:href="#DejaVuSans-33"/>
       <use xlink:href="#DejaVuSans-2e" transform="translate(63.623047 0)"/>
       <use xlink:href="#DejaVuSans-35" transform="translate(95.410156 0)"/>
      </g>
     </g>
    </g>
    <g id="text_42">
     <!-- Post-intervention mean Pe -->
     <g transform="translate(514.158281 246.109766) rotate(-90) scale(0.11 -0.11)">
      <defs>
       <path id="DejaVuSans-2d" d="M 313 2009 
L 1997 2009 
L 1997 1497 
L 313 1497 
L 313 2009 
z
" transform="scale(0.015625)"/>
       <path id="DejaVuSans-6d" d="M 3328 2828 
Q 3544 3216 3844 3400 
Q 4144 3584 4550 3584 
Q 5097 3584 5394 3201 
Q 5691 2819 5691 2113 
L 5691 0 
L 5113 0 
L 5113 2094 
Q 5113 2597 4934 2840 
Q 4756 3084 4391 3084 
Q 3944 3084 3684 2787 
Q 3425 2491 3425 1978 
L 3425 0 
L 2847 0 
L 2847 2094 
Q 2847 2600 2669 2842 
Q 2491 3084 2119 3084 
Q 1678 3084 1418 2786 
Q 1159 2488 1159 1978 
L 1159 0 
L 581 0 
L 581 3500 
L 1159 3500 
L 1159 2956 
Q 1356 3278 1631 3431 
Q 1906 3584 2284 3584 
Q 2666 3584 2933 3390 
Q 3200 3197 3328 2828 
z
" transform="scale(0.015625)"/>
      </defs>
      <use xlink:href="#DejaVuSans-50"/>
      <use xlink:href="#DejaVuSans-6f" transform="translate(56.677734 0)"/>
      <use xlink:href="#DejaVuSans-73" transform="translate(117.859375 0)"/>
      <use xlink:href="#DejaVuSans-74" transform="translate(169.958984 0)"/>
      <use xlink:href="#DejaVuSans-2d" transform="translate(209.167969 0)"/>
      <use xlink:href="#DejaVuSans-69" transform="translate(245.251953 0)"/>
      <use xlink:href="#DejaVuSans-6e" transform="translate(273.035156 0)"/>
      <use xlink:href="#DejaVuSans-74" transform="translate(336.414062 0)"/>
      <use xlink:href="#DejaVuSans-65" transform="translate(375.623047 0)"/>
      <use xlink:href="#DejaVuSans-72" transform="translate(437.146484 0)"/>
      <use xlink:href="#DejaVuSans-76" transform="translate(478.259766 0)"/>
      <use xlink:href="#DejaVuSans-65" transform="translate(537.439453 0)"/>
      <use xlink:href="#DejaVuSans-6e" transform="translate(598.962891 0)"/>
      <use xlink:href="#DejaVuSans-74" transform="translate(662.341797 0)"/>
      <use xlink:href="#DejaVuSans-69" transform="translate(701.550781 0)"/>
      <use xlink:href="#DejaVuSans-6f" transform="translate(729.333984 0)"/>
      <use xlink:href="#DejaVuSans-6e" transform="translate(790.515625 0)"/>
      <use xlink:href="#DejaVuSans-20" transform="translate(853.894531 0)"/>
      <use xlink:href="#DejaVuSans-6d" transform="translate(885.681641 0)"/>
      <use xlink:href="#DejaVuSans-65" transform="translate(983.09375 0)"/>
      <use xlink:href="#DejaVuSans-61" transform="translate(1044.617188 0)"/>
      <use xlink:href="#DejaVuSans-6e" transform="translate(1105.896484 0)"/>
      <use xlink:href="#DejaVuSans-20" transform="translate(1169.275391 0)"/>
      <use xlink:href="#DejaVuSans-50" transform="translate(1201.0625 0)"/>
      <use xlink:href="#DejaVuSans-65" transform="translate(1257.740234 0)"/>
     </g>
    </g>
   </g>
   <g id="line2d_49">
    <path d="M 543.349063 237.859738 
L 993.509063 237.859738 
" clip-path="url(#pd11ea296d0)" style="fill: none; stroke-dasharray: 5.55,2.4; stroke-dashoffset: 0; stroke: #ff0000; stroke-width: 1.5"/>
   </g>
   <g id="line2d_50">
    <path d="M 543.349063 47.178351 
L 993.509063 47.178351 
" clip-path="url(#pd11ea296d0)" style="fill: none; stroke-dasharray: 1,1.65; stroke-dashoffset: 0; stroke: #808080"/>
   </g>
   <g id="line2d_51">
    <path d="M 597.913911 313.227875 
L 597.913911 33.875875 
" clip-path="url(#pd11ea296d0)" style="fill: none; stroke-dasharray: 12.8,3.2,2,3.2; stroke-dashoffset: 0; stroke: #008000; stroke-width: 2"/>
   </g>
   <g id="patch_16">
    <path d="M 543.349063 313.227875 
L 543.349063 33.875875 
" style="fill: none; stroke: #000000; stroke-width: 0.8; stroke-linejoin: miter; stroke-linecap: square"/>
   </g>
   <g id="patch_17">
    <path d="M 993.509063 313.227875 
L 993.509063 33.875875 
" style="fill: none; stroke: #000000; stroke-width: 0.8; stroke-linejoin: miter; stroke-linecap: square"/>
   </g>
   <g id="patch_18">
    <path d="M 543.349063 313.227875 
L 993.509063 313.227875 
" style="fill: none; stroke: #000000; stroke-width: 0.8; stroke-linejoin: miter; stroke-linecap: square"/>
   </g>
   <g id="patch_19">
    <path d="M 543.349063 33.875875 
L 993.509063 33.875875 
" style="fill: none; stroke: #000000; stroke-width: 0.8; stroke-linejoin: miter; stroke-linecap: square"/>
   </g>
   <g id="text_43">
    <!-- Minimum intervention duration for durable Pe &lt; 1 -->
    <g transform="translate(630.902422 15.558281) scale(0.11 -0.11)">
     <defs>
      <path id="DejaVuSans-66" d="M 2375 4863 
L 2375 4384 
L 1825 4384 
Q 1516 4384 1395 4259 
Q 1275 4134 1275 3809 
L 1275 3500 
L 2222 3500 
L 2222 3053 
L 1275 3053 
L 1275 0 
L 697 0 
L 697 3053 
L 147 3053 
L 147 3500 
L 697 3500 
L 697 3744 
Q 697 4328 969 4595 
Q 1241 4863 1831 4863 
L 2375 4863 
z
" transform="scale(0.015625)"/>
      <path id="DejaVuSans-62" d="M 3116 1747 
Q 3116 2381 2855 2742 
Q 2594 3103 2138 3103 
Q 1681 3103 1420 2742 
Q 1159 2381 1159 1747 
Q 1159 1113 1420 752 
Q 1681 391 2138 391 
Q 2594 391 2855 752 
Q 3116 1113 3116 1747 
z
M 1159 2969 
Q 1341 3281 1617 3432 
Q 1894 3584 2278 3584 
Q 2916 3584 3314 3078 
Q 3713 2572 3713 1747 
Q 3713 922 3314 415 
Q 2916 -91 2278 -91 
Q 1894 -91 1617 61 
Q 1341 213 1159 525 
L 1159 0 
L 581 0 
L 581 4863 
L 1159 4863 
L 1159 2969 
z
" transform="scale(0.015625)"/>
      <path id="DejaVuSans-3c" d="M 4684 3150 
L 1459 2003 
L 4684 863 
L 4684 294 
L 678 1747 
L 678 2266 
L 4684 3719 
L 4684 3150 
z
" transform="scale(0.015625)"/>
     </defs>
     <use xlink:href="#DejaVuSans-4d"/>
     <use xlink:href="#DejaVuSans-69" transform="translate(86.279297 0)"/>
     <use xlink:href="#DejaVuSans-6e" transform="translate(114.0625 0)"/>
     <use xlink:href="#DejaVuSans-69" transform="translate(177.441406 0)"/>
     <use xlink:href="#DejaVuSans-6d" transform="translate(205.224609 0)"/>
     <use xlink:href="#DejaVuSans-75" transform="translate(302.636719 0)"/>
     <use xlink:href="#DejaVuSans-6d" transform="translate(366.015625 0)"/>
     <use xlink:href="#DejaVuSans-20" transform="translate(463.427734 0)"/>
     <use xlink:href="#DejaVuSans-69" transform="translate(495.214844 0)"/>
     <use xlink:href="#DejaVuSans-6e" transform="translate(522.998047 0)"/>
     <use xlink:href="#DejaVuSans-74" transform="translate(586.376953 0)"/>
     <use xlink:href="#DejaVuSans-65" transform="translate(625.585938 0)"/>
     <use xlink:href="#DejaVuSans-72" transform="translate(687.109375 0)"/>
     <use xlink:href="#DejaVuSans-76" transform="translate(728.222656 0)"/>
     <use xlink:href="#DejaVuSans-65" transform="translate(787.402344 0)"/>
     <use xlink:href="#DejaVuSans-6e" transform="translate(848.925781 0)"/>
     <use xlink:href="#DejaVuSans-74" transform="translate(912.304688 0)"/>
     <use xlink:href="#DejaVuSans-69" transform="translate(951.513672 0)"/>
     <use xlink:href="#DejaVuSans-6f" transform="translate(979.296875 0)"/>
     <use xlink:href="#DejaVuSans-6e" transform="translate(1040.478516 0)"/>
     <use xlink:href="#DejaVuSans-20" transform="translate(1103.857422 0)"/>
     <use xlink:href="#DejaVuSans-64" transform="translate(1135.644531 0)"/>
     <use xlink:href="#DejaVuSans-75" transform="translate(1199.121094 0)"/>
     <use xlink:href="#DejaVuSans-72" transform="translate(1262.5 0)"/>
     <use xlink:href="#DejaVuSans-61" transform="translate(1303.613281 0)"/>
     <use xlink:href="#DejaVuSans-74" transform="translate(1364.892578 0)"/>
     <use xlink:href="#DejaVuSans-69" transform="translate(1404.101562 0)"/>
     <use xlink:href="#DejaVuSans-6f" transform="translate(1431.884766 0)"/>
     <use xlink:href="#DejaVuSans-6e" transform="translate(1493.066406 0)"/>
     <use xlink:href="#DejaVuSans-20" transform="translate(1556.445312 0)"/>
     <use xlink:href="#DejaVuSans-66" transform="translate(1588.232422 0)"/>
     <use xlink:href="#DejaVuSans-6f" transform="translate(1623.4375 0)"/>
     <use xlink:href="#DejaVuSans-72" transform="translate(1684.619141 0)"/>
     <use xlink:href="#DejaVuSans-20" transform="translate(1725.732422 0)"/>
     <use xlink:href="#DejaVuSans-64" transform="translate(1757.519531 0)"/>
     <use xlink:href="#DejaVuSans-75" transform="translate(1820.996094 0)"/>
     <use xlink:href="#DejaVuSans-72" transform="translate(1884.375 0)"/>
     <use xlink:href="#DejaVuSans-61" transform="translate(1925.488281 0)"/>
     <use xlink:href="#DejaVuSans-62" transform="translate(1986.767578 0)"/>
     <use xlink:href="#DejaVuSans-6c" transform="translate(2050.244141 0)"/>
     <use xlink:href="#DejaVuSans-65" transform="translate(2078.027344 0)"/>
     <use xlink:href="#DejaVuSans-20" transform="translate(2139.550781 0)"/>
     <use xlink:href="#DejaVuSans-50" transform="translate(2171.337891 0)"/>
     <use xlink:href="#DejaVuSans-65" transform="translate(2228.015625 0)"/>
     <use xlink:href="#DejaVuSans-20" transform="translate(2289.539062 0)"/>
     <use xlink:href="#DejaVuSans-3c" transform="translate(2321.326172 0)"/>
     <use xlink:href="#DejaVuSans-20" transform="translate(2405.115234 0)"/>
     <use xlink:href="#DejaVuSans-31" transform="translate(2436.902344 0)"/>
    </g>
    <!-- (green = durable, red = rebounds) -->
    <g transform="translate(672.816719 27.875875) scale(0.11 -0.11)">
     <use xlink:href="#DejaVuSans-28"/>
     <use xlink:href="#DejaVuSans-67" transform="translate(39.013672 0)"/>
     <use xlink:href="#DejaVuSans-72" transform="translate(102.490234 0)"/>
     <use xlink:href="#DejaVuSans-65" transform="translate(141.353516 0)"/>
     <use xlink:href="#DejaVuSans-65" transform="translate(202.876953 0)"/>
     <use xlink:href="#DejaVuSans-6e" transform="translate(264.400391 0)"/>
     <use xlink:href="#DejaVuSans-20" transform="translate(327.779297 0)"/>
     <use xlink:href="#DejaVuSans-3d" transform="translate(359.566406 0)"/>
     <use xlink:href="#DejaVuSans-20" transform="translate(443.355469 0)"/>
     <use xlink:href="#DejaVuSans-64" transform="translate(475.142578 0)"/>
     <use xlink:href="#DejaVuSans-75" transform="translate(538.619141 0)"/>
     <use xlink:href="#DejaVuSans-72" transform="translate(601.998047 0)"/>
     <use xlink:href="#DejaVuSans-61" transform="translate(643.111328 0)"/>
     <use xlink:href="#DejaVuSans-62" transform="translate(704.390625 0)"/>
     <use xlink:href="#DejaVuSans-6c" transform="translate(767.867188 0)"/>
     <use xlink:href="#DejaVuSans-65" transform="translate(795.650391 0)"/>
     <use xlink:href="#DejaVuSans-2c" transform="translate(857.173828 0)"/>
     <use xlink:href="#DejaVuSans-20" transform="translate(888.960938 0)"/>
     <use xlink:href="#DejaVuSans-72" transform="translate(920.748047 0)"/>
     <use xlink:href="#DejaVuSans-65" transform="translate(959.611328 0)"/>
     <use xlink:href="#DejaVuSans-64" transform="translate(1021.134766 0)"/>
     <use xlink:href="#DejaVuSans-20" transform="translate(1084.611328 0)"/>
     <use xlink:href="#DejaVuSans-3d" transform="translate(1116.398438 0)"/>
     <use xlink:href="#DejaVuSans-20" transform="translate(1200.1875 0)"/>
     <use xlink:href="#DejaVuSans-72" transform="translate(1231.974609 0)"/>
     <use xlink:href="#DejaVuSans-65" transform="translate(1270.837891 0)"/>
     <use xlink:href="#DejaVuSans-62" transform="translate(1332.361328 0)"/>
     <use xlink:href="#DejaVuSans-6f" transform="translate(1395.837891 0)"/>
     <use xlink:href="#DejaVuSans-75" transform="translate(1457.019531 0)"/>
     <use xlink:href="#DejaVuSans-6e" transform="translate(1520.398438 0)"/>
     <use xlink:href="#DejaVuSans-64" transform="translate(1583.777344 0)"/>
     <use xlink:href="#DejaVuSans-73" transform="translate(1647.253906 0)"/>
     <use xlink:href="#DejaVuSans-29" transform="translate(1699.353516 0)"/>
    </g>
   </g>
   <g id="legend_2">
    <g id="patch_20">
     <path d="M 867.724219 308.727875 
L 987.209063 308.727875 
Q 989.009063 308.727875 989.009063 306.927875 
L 989.009063 268.196937 
Q 989.009063 266.396938 987.209063 266.396938 
L 867.724219 266.396938 
Q 865.924219 266.396938 865.924219 268.196937 
L 865.924219 306.927875 
Q 865.924219 308.727875 867.724219 308.727875 
z
" style="fill: #ffffff; opacity: 0.8; stroke: #cccccc; stroke-linejoin: miter"/>
    </g>
    <g id="line2d_52">
     <path d="M 869.524219 273.685531 
L 878.524219 273.685531 
L 887.524219 273.685531 
" style="fill: none; stroke-dasharray: 5.55,2.4; stroke-dashoffset: 0; stroke: #ff0000; stroke-width: 1.5"/>
    </g>
    <g id="text_44">
     <!-- Pe = 1 threshold -->
     <g transform="translate(894.724219 276.835531) scale(0.09 -0.09)">
      <use xlink:href="#DejaVuSans-50"/>
      <use xlink:href="#DejaVuSans-65" transform="translate(56.677734 0)"/>
      <use xlink:href="#DejaVuSans-20" transform="translate(118.201172 0)"/>
      <use xlink:href="#DejaVuSans-3d" transform="translate(149.988281 0)"/>
      <use xlink:href="#DejaVuSans-20" transform="translate(233.777344 0)"/>
      <use xlink:href="#DejaVuSans-31" transform="translate(265.564453 0)"/>
      <use xlink:href="#DejaVuSans-20" transform="translate(329.1875 0)"/>
      <use xlink:href="#DejaVuSans-74" transform="translate(360.974609 0)"/>
      <use xlink:href="#DejaVuSans-68" transform="translate(400.183594 0)"/>
      <use xlink:href="#DejaVuSans-72" transform="translate(463.5625 0)"/>
      <use xlink:href="#DejaVuSans-65" transform="translate(502.425781 0)"/>
      <use xlink:href="#DejaVuSans-73" transform="translate(563.949219 0)"/>
      <use xlink:href="#DejaVuSans-68" transform="translate(616.048828 0)"/>
      <use xlink:href="#DejaVuSans-6f" transform="translate(679.427734 0)"/>
      <use xlink:href="#DejaVuSans-6c" transform="translate(740.609375 0)"/>
      <use xlink:href="#DejaVuSans-64" transform="translate(768.392578 0)"/>
     </g>
    </g>
    <g id="line2d_53">
     <path d="M 869.524219 286.895844 
L 878.524219 286.895844 
L 887.524219 286.895844 
" style="fill: none; stroke-dasharray: 1,1.65; stroke-dashoffset: 0; stroke: #808080"/>
    </g>
    <g id="text_45">
     <!-- Baseline Pe0 = 3.53 -->
     <g transform="translate(894.724219 290.045844) scale(0.09 -0.09)">
      <defs>
       <path id="DejaVuSans-42" d="M 1259 2228 
L 1259 519 
L 2272 519 
Q 2781 519 3026 730 
Q 3272 941 3272 1375 
Q 3272 1813 3026 2020 
Q 2781 2228 2272 2228 
L 1259 2228 
z
M 1259 4147 
L 1259 2741 
L 2194 2741 
Q 2656 2741 2882 2914 
Q 3109 3088 3109 3444 
Q 3109 3797 2882 3972 
Q 2656 4147 2194 4147 
L 1259 4147 
z
M 628 4666 
L 2241 4666 
Q 2963 4666 3353 4366 
Q 3744 4066 3744 3513 
Q 3744 3084 3544 2831 
Q 3344 2578 2956 2516 
Q 3422 2416 3680 2098 
Q 3938 1781 3938 1306 
Q 3938 681 3513 340 
Q 3088 0 2303 0 
L 628 0 
L 628 4666 
z
" transform="scale(0.015625)"/>
      </defs>
      <use xlink:href="#DejaVuSans-42"/>
      <use xlink:href="#DejaVuSans-61" transform="translate(68.603516 0)"/>
      <use xlink:href="#DejaVuSans-73" transform="translate(129.882812 0)"/>
      <use xlink:href="#DejaVuSans-65" transform="translate(181.982422 0)"/>
      <use xlink:href="#DejaVuSans-6c" transform="translate(243.505859 0)"/>
      <use xlink:href="#DejaVuSans-69" transform="translate(271.289062 0)"/>
      <use xlink:href="#DejaVuSans-6e" transform="translate(299.072266 0)"/>
      <use xlink:href="#DejaVuSans-65" transform="translate(362.451172 0)"/>
      <use xlink:href="#DejaVuSans-20" transform="translate(423.974609 0)"/>
      <use xlink:href="#DejaVuSans-50" transform="translate(455.761719 0)"/>
      <use xlink:href="#DejaVuSans-65" transform="translate(512.439453 0)"/>
      <use xlink:href="#DejaVuSans-30" transform="translate(573.962891 0)"/>
      <use xlink:href="#DejaVuSans-20" transform="translate(637.585938 0)"/>
      <use xlink:href="#DejaVuSans-3d" transform="translate(669.373047 0)"/>
      <use xlink:href="#DejaVuSans-20" transform="translate(753.162109 0)"/>
      <use xlink:href="#DejaVuSans-33" transform="translate(784.949219 0)"/>
      <use xlink:href="#DejaVuSans-2e" transform="translate(848.572266 0)"/>
      <use xlink:href="#DejaVuSans-35" transform="translate(880.359375 0)"/>
      <use xlink:href="#DejaVuSans-33" transform="translate(943.982422 0)"/>
     </g>
    </g>
    <g id="line2d_54">
     <path d="M 869.524219 300.106156 
L 878.524219 300.106156 
L 887.524219 300.106156 
" style="fill: none; stroke-dasharray: 12.8,3.2,2,3.2; stroke-dashoffset: 0; stroke: #008000; stroke-width: 2"/>
    </g>
    <g id="text_46">
     <!-- Min T = 5 rounds -->
     <g transform="translate(894.724219 303.256156) scale(0.09 -0.09)">
      <use xlink:href="#DejaVuSans-4d"/>
      <use xlink:href="#DejaVuSans-69" transform="translate(86.279297 0)"/>
      <use xlink:href="#DejaVuSans-6e" transform="translate(114.0625 0)"/>
      <use xlink:href="#DejaVuSans-20" transform="translate(177.441406 0)"/>
      <use xlink:href="#DejaVuSans-54" transform="translate(209.228516 0)"/>
      <use xlink:href="#DejaVuSans-20" transform="translate(270.3125 0)"/>
      <use xlink:href="#DejaVuSans-3d" transform="translate(302.099609 0)"/>
      <use xlink:href="#DejaVuSans-20" transform="translate(385.888672 0)"/>
      <use xlink:href="#DejaVuSans-35" transform="translate(417.675781 0)"/>
      <use xlink:href="#DejaVuSans-20" transform="translate(481.298828 0)"/>
      <use xlink:href="#DejaVuSans-72" transform="translate(513.085938 0)"/>
      <use xlink:href="#DejaVuSans-6f" transform="translate(551.949219 0)"/>
      <use xlink:href="#DejaVuSans-75" transform="translate(613.130859 0)"/>
      <use xlink:href="#DejaVuSans-6e" transform="translate(676.509766 0)"/>
      <use xlink:href="#DejaVuSans-64" transform="translate(739.888672 0)"/>
      <use xlink:href="#DejaVuSans-73" transform="translate(803.365234 0)"/>
     </g>
    </g>
   </g>
  </g>
 </g>
 <defs>
  <clipPath id="p78dba3d775">
   <rect x="44.749063" y="33.875875" width="450.16" height="279.352"/>
  </clipPath>
  <clipPath id="pd11ea296d0">
   <rect x="543.349063" y="33.875875" width="450.16" height="279.352"/>
  </clipPath>
 </defs>
</svg>
