<?xml version="1.0" encoding="utf-8" standalone="no"?>
<!DOCTYPE svg PUBLIC "-//W3C//DTD SVG 1.1//EN"
  "http://www.w3.org/Graphics/SVG/1.1/DTD/svg11.dtd">
<svg xmlns:xlink="http://www.w3.org/1999/xlink" width="1000.771562pt" height="420.77725pt" viewBox="0 0 1000.771562 420.77725" xmlns="http://www.w3.org/2000/svg" version="1.1">
 <metadata>
  <rdf:RDF xmlns:dc="http://purl.org/dc/elements/1.1/" xmlns:cc="http://creativecommons.org/ns#" xmlns:rdf="http://www.w3.org/1999/02/22-rdf-syntax-ns#">
   <cc:Work>
    <dc:type rdf:resource="http://purl.org/dc/dcmitype/StillImage"/>
    <dc:date>2026-02-22T17:41:25.785717</dc:date>
    <dc:format>image/svg+xml</dc:format>
    <dc:creator>
     <cc:Agent>
      <dc:title>Matplotlib v3.10.8, https://matplotlib.org/</dc:title>
     </cc:Agent>
    </dc:creator>
   </cc:Work>
  </rdf:RDF>
 </metadata>
 <defs>
  <style type="text/css">*{stroke-linejoin: round; stroke-linecap: butt}</style>
 </defs>
 <g id="figure_1">
  <g id="patch_1">
   <path d="M 0 420.77725 
L 1000.771562 420.77725 
L 1000.771562 0 
L 0 0 
z
" style="fill: #ffffff"/>
  </g>
  <g id="axes_1">
   <g id="patch_2">
    <path d="M 51.111563 382.229125 
L 490.636937 382.229125 
L 490.636937 32.274375 
L 51.111563 32.274375 
z
" style="fill: #ffffff"/>
   </g>
   <g id="matplotlib.axis_1">
    <g id="xtick_1">
     <g id="line2d_1">
      <defs>
       <path id="m26d9aeaa55" d="M 0 0 
L 0 3.5 
" style="stroke: #000000; stroke-width: 0.8"/>
      </defs>
      <g>
       <use xlink:href="#m26d9aeaa55" x="51.111562" y="382.229125" style="stroke: #000000; stroke-width: 0.8"/>
      </g>
     </g>
     <g id="text_1">
      <!-- 0.32 -->
      <g transform="translate(39.97875 396.827562) scale(0.1 -0.1)">
       <defs>
        <path id="DejaVuSans-30" d="M 2034 4250 
Q 1547 4250 1301 3770 
Q 1056 3291 1056 2328 
Q 1056 1369 1301 889 
Q 1547 409 2034 409 
Q 2525 409 2770 889 
Q 3016 1369 3016 2328 
Q 3016 3291 2770 3770 
Q 2525 4250 2034 4250 
z
M 2034 4750 
Q 2819 4750 3233 4129 
Q 3647 3509 3647 2328 
Q 3647 1150 3233 529 
Q 2819 -91 2034 -91 
Q 1250 -91 836 529 
Q 422 1150 422 2328 
Q 422 3509 836 4129 
Q 1250 4750 2034 4750 
z
" transform="scale(0.015625)"/>
        <path id="DejaVuSans-2e" d="M 684 794 
L 1344 794 
L 1344 0 
L 684 0 
L 684 794 
z
" transform="scale(0.015625)"/>
        <path id="DejaVuSans-33" d="M 2597 2516 
Q 3050 2419 3304 2112 
Q 3559 1806 3559 1356 
Q 3559 666 3084 287 
Q 2609 -91 1734 -91 
Q 1441 -91 1130 -33 
Q 819 25 488 141 
L 488 750 
Q 750 597 1062 519 
Q 1375 441 1716 441 
Q 2309 441 2620 675 
Q 2931 909 2931 1356 
Q 2931 1769 2642 2001 
Q 2353 2234 1838 2234 
L 1294 2234 
L 1294 2753 
L 1863 2753 
Q 2328 2753 2575 2939 
Q 2822 3125 2822 3475 
Q 2822 3834 2567 4026 
Q 2313 4219 1838 4219 
Q 1578 4219 1281 4162 
Q 984 4106 628 3988 
L 628 4550 
Q 988 4650 1302 4700 
Q 1616 4750 1894 4750 
Q 2613 4750 3031 4423 
Q 3450 4097 3450 3541 
Q 3450 3153 3228 2886 
Q 3006 2619 2597 2516 
z
" transform="scale(0.015625)"/>
        <path id="DejaVuSans-32" d="M 1228 531 
L 3431 531 
L 3431 0 
L 469 0 
L 469 531 
Q 828 903 1448 1529 
Q 2069 2156 2228 2338 
Q 2531 2678 2651 2914 
Q 2772 3150 2772 3378 
Q 2772 3750 2511 3984 
Q 2250 4219 1831 4219 
Q 1534 4219 1204 4116 
Q 875 4013 500 3803 
L 500 4441 
Q 881 4594 1212 4672 
Q 1544 4750 1819 4750 
Q 2544 4750 2975 4387 
Q 3406 4025 3406 3419 
Q 3406 3131 3298 2873 
Q 3191 2616 2906 2266 
Q 2828 2175 2409 1742 
Q 1991 1309 1228 531 
z
" transform="scale(0.015625)"/>
       </defs>
       <use xlink:href="#DejaVuSans-30"/>
       <use xlink:href="#DejaVuSans-2e" transform="translate(63.623047 0)"/>
       <use xlink:href="#DejaVuSans-33" transform="translate(95.410156 0)"/>
       <use xlink:href="#DejaVuSans-32" transform="translate(159.033203 0)"/>
      </g>
     </g>
    </g>
    <g id="xtick_2">
     <g id="line2d_2">
      <g>
       <use xlink:href="#m26d9aeaa55" x="106.052234" y="382.229125" style="stroke: #000000; stroke-width: 0.8"/>
      </g>
     </g>
     <g id="text_2">
      <!-- 0.33 -->
      <g transform="translate(94.919422 396.827562) scale(0.1 -0.1)">
       <use xlink:href="#DejaVuSans-30"/>
       <use xlink:href="#DejaVuSans-2e" transform="translate(63.623047 0)"/>
       <use xlink:href="#DejaVuSans-33" transform="translate(95.410156 0)"/>
       <use xlink:href="#DejaVuSans-33" transform="translate(159.033203 0)"/>
      </g>
     </g>
    </g>
    <g id="xtick_3">
     <g id="line2d_3">
      <g>
       <use xlink:href="#m26d9aeaa55" x="160.992906" y="382.229125" style="stroke: #000000; stroke-width: 0.8"/>
      </g>
     </g>
     <g id="text_3">
      <!-- 0.34 -->
      <g transform="translate(149.860094 396.827562) scale(0.1 -0.1)">
       <defs>
        <path id="DejaVuSans-34" d="M 2419 4116 
L 825 1625 
L 2419 1625 
L 2419 4116 
z
M 2253 4666 
L 3047 4666 
L 3047 1625 
L 3713 1625 
L 3713 1100 
L 3047 1100 
L 3047 0 
L 2419 0 
L 2419 1100 
L 313 1100 
L 313 1709 
L 2253 4666 
z
" transform="scale(0.015625)"/>
       </defs>
       <use xlink:href="#DejaVuSans-30"/>
       <use xlink:href="#DejaVuSans-2e" transform="translate(63.623047 0)"/>
       <use xlink:href="#DejaVuSans-33" transform="translate(95.410156 0)"/>
       <use xlink:href="#DejaVuSans-34" transform="translate(159.033203 0)"/>
      </g>
     </g>
    </g>
    <g id="xtick_4">
     <g id="line2d_4">
      <g>
       <use xlink:href="#m26d9aeaa55" x="215.933578" y="382.229125" style="stroke: #000000; stroke-width: 0.8"/>
      </g>
     </g>
     <g id="text_4">
      <!-- 0.35 -->
      <g transform="translate(204.800766 396.827562) scale(0.1 -0.1)">
       <defs>
        <path id="DejaVuSans-35" d="M 691 4666 
L 3169 4666 
L 3169 4134 
L 1269 4134 
L 1269 2991 
Q 1406 3038 1543 3061 
Q 1681 3084 1819 3084 
Q 2600 3084 3056 2656 
Q 3513 2228 3513 1497 
Q 3513 744 3044 326 
Q 2575 -91 1722 -91 
Q 1428 -91 1123 -41 
Q 819 9 494 109 
L 494 744 
Q 775 591 1075 516 
Q 1375 441 1709 441 
Q 2250 441 2565 725 
Q 2881 1009 2881 1497 
Q 2881 1984 2565 2268 
Q 2250 2553 1709 2553 
Q 1456 2553 1204 2497 
Q 953 2441 691 2322 
L 691 4666 
z
" transform="scale(0.015625)"/>
       </defs>
       <use xlink:href="#DejaVuSans-30"/>
       <use xlink:href="#DejaVuSans-2e" transform="translate(63.623047 0)"/>
       <use xlink:href="#DejaVuSans-33" transform="translate(95.410156 0)"/>
       <use xlink:href="#DejaVuSans-35" transform="translate(159.033203 0)"/>
      </g>
     </g>
    </g>
    <g id="xtick_5">
     <g id="line2d_5">
      <g>
       <use xlink:href="#m26d9aeaa55" x="270.87425" y="382.229125" style="stroke: #000000; stroke-width: 0.8"/>
      </g>
     </g>
     <g id="text_5">
      <!-- 0.36 -->
      <g transform="translate(259.741437 396.827562) scale(0.1 -0.1)">
       <defs>
        <path id="DejaVuSans-36" d="M 2113 2584 
Q 1688 2584 1439 2293 
Q 1191 2003 1191 1497 
Q 1191 994 1439 701 
Q 1688 409 2113 409 
Q 2538 409 2786 701 
Q 3034 994 3034 1497 
Q 3034 2003 2786 2293 
Q 2538 2584 2113 2584 
z
M 3366 4563 
L 3366 3988 
Q 3128 4100 2886 4159 
Q 2644 4219 2406 4219 
Q 1781 4219 1451 3797 
Q 1122 3375 1075 2522 
Q 1259 2794 1537 2939 
Q 1816 3084 2150 3084 
Q 2853 3084 3261 2657 
Q 3669 2231 3669 1497 
Q 3669 778 3244 343 
Q 2819 -91 2113 -91 
Q 1303 -91 875 529 
Q 447 1150 447 2328 
Q 447 3434 972 4092 
Q 1497 4750 2381 4750 
Q 2619 4750 2861 4703 
Q 3103 4656 3366 4563 
z
" transform="scale(0.015625)"/>
       </defs>
       <use xlink:href="#DejaVuSans-30"/>
       <use xlink:href="#DejaVuSans-2e" transform="translate(63.623047 0)"/>
       <use xlink:href="#DejaVuSans-33" transform="translate(95.410156 0)"/>
       <use xlink:href="#DejaVuSans-36" transform="translate(159.033203 0)"/>
      </g>
     </g>
    </g>
    <g id="xtick_6">
     <g id="line2d_6">
      <g>
       <use xlink:href="#m26d9aeaa55" x="325.814922" y="382.229125" style="stroke: #000000; stroke-width: 0.8"/>
      </g>
     </g>
     <g id="text_6">
      <!-- 0.37 -->
      <g transform="translate(314.682109 396.827562) scale(0.1 -0.1)">
       <defs>
        <path id="DejaVuSans-37" d="M 525 4666 
L 3525 4666 
L 3525 4397 
L 1831 0 
L 1172 0 
L 2766 4134 
L 525 4134 
L 525 4666 
z
" transform="scale(0.015625)"/>
       </defs>
       <use xlink:href="#DejaVuSans-30"/>
       <use xlink:href="#DejaVuSans-2e" transform="translate(63.623047 0)"/>
       <use xlink:href="#DejaVuSans-33" transform="translate(95.410156 0)"/>
       <use xlink:href="#DejaVuSans-37" transform="translate(159.033203 0)"/>
      </g>
     </g>
    </g>
    <g id="xtick_7">
     <g id="line2d_7">
      <g>
       <use xlink:href="#m26d9aeaa55" x="380.755594" y="382.229125" style="stroke: #000000; stroke-width: 0.8"/>
      </g>
     </g>
     <g id="text_7">
      <!-- 0.38 -->
      <g transform="translate(369.622781 396.827562) scale(0.1 -0.1)">
       <defs>
        <path id="DejaVuSans-38" d="M 2034 2216 
Q 1584 2216 1326 1975 
Q 1069 1734 1069 1313 
Q 1069 891 1326 650 
Q 1584 409 2034 409 
Q 2484 409 2743 651 
Q 3003 894 3003 1313 
Q 3003 1734 2745 1975 
Q 2488 2216 2034 2216 
z
M 1403 2484 
Q 997 2584 770 2862 
Q 544 3141 544 3541 
Q 544 4100 942 4425 
Q 1341 4750 2034 4750 
Q 2731 4750 3128 4425 
Q 3525 4100 3525 3541 
Q 3525 3141 3298 2862 
Q 3072 2584 2669 2484 
Q 3125 2378 3379 2068 
Q 3634 1759 3634 1313 
Q 3634 634 3220 271 
Q 2806 -91 2034 -91 
Q 1263 -91 848 271 
Q 434 634 434 1313 
Q 434 1759 690 2068 
Q 947 2378 1403 2484 
z
M 1172 3481 
Q 1172 3119 1398 2916 
Q 1625 2713 2034 2713 
Q 2441 2713 2670 2916 
Q 2900 3119 2900 3481 
Q 2900 3844 2670 4047 
Q 2441 4250 2034 4250 
Q 1625 4250 1398 4047 
Q 1172 3844 1172 3481 
z
" transform="scale(0.015625)"/>
       </defs>
       <use xlink:href="#DejaVuSans-30"/>
       <use xlink:href="#DejaVuSans-2e" transform="translate(63.623047 0)"/>
       <use xlink:href="#DejaVuSans-33" transform="translate(95.410156 0)"/>
       <use xlink:href="#DejaVuSans-38" transform="translate(159.033203 0)"/>
      </g>
     </g>
    </g>
    <g id="xtick_8">
     <g id="line2d_8">
      <g>
       <use xlink:href="#m26d9aeaa55" x="435.696266" y="382.229125" style="stroke: #000000; stroke-width: 0.8"/>
      </g>
     </g>
     <g id="text_8">
      <!-- 0.39 -->
      <g transform="translate(424.563453 396.827562) scale(0.1 -0.1)">
       <defs>
        <path id="DejaVuSans-39" d="M 703 97 
L 703 672 
Q 941 559 1184 500 
Q 1428 441 1663 441 
Q 2288 441 2617 861 
Q 2947 1281 2994 2138 
Q 2813 1869 2534 1725 
Q 2256 1581 1919 1581 
Q 1219 1581 811 2004 
Q 403 2428 403 3163 
Q 403 3881 828 4315 
Q 1253 4750 1959 4750 
Q 2769 4750 3195 4129 
Q 3622 3509 3622 2328 
Q 3622 1225 3098 567 
Q 2575 -91 1691 -91 
Q 1453 -91 1209 -44 
Q 966 3 703 97 
z
M 1959 2075 
Q 2384 2075 2632 2365 
Q 2881 2656 2881 3163 
Q 2881 3666 2632 3958 
Q 2384 4250 1959 4250 
Q 1534 4250 1286 3958 
Q 1038 3666 1038 3163 
Q 1038 2656 1286 2365 
Q 1534 2075 1959 2075 
z
" transform="scale(0.015625)"/>
       </defs>
       <use xlink:href="#DejaVuSans-30"/>
       <use xlink:href="#DejaVuSans-2e" transform="translate(63.623047 0)"/>
       <use xlink:href="#DejaVuSans-33" transform="translate(95.410156 0)"/>
       <use xlink:href="#DejaVuSans-39" transform="translate(159.033203 0)"/>
      </g>
     </g>
    </g>
    <g id="xtick_9">
     <g id="line2d_9">
      <g>
       <use xlink:href="#m26d9aeaa55" x="490.636937" y="382.229125" style="stroke: #000000; stroke-width: 0.8"/>
      </g>
     </g>
     <g id="text_9">
      <!-- 0.40 -->
      <g transform="translate(479.504125 396.827562) scale(0.1 -0.1)">
       <use xlink:href="#DejaVuSans-30"/>
       <use xlink:href="#DejaVuSans-2e" transform="translate(63.623047 0)"/>
       <use xlink:href="#DejaVuSans-34" transform="translate(95.410156 0)"/>
       <use xlink:href="#DejaVuSans-30" transform="translate(159.033203 0)"/>
      </g>
     </g>
    </g>
    <g id="text_10">
     <!-- Peripheral constraint $c$ -->
     <g transform="translate(208.61425 411.26725) scale(0.11 -0.11)">
      <defs>
       <path id="DejaVuSans-50" d="M 1259 4147 
L 1259 2394 
L 2053 2394 
Q 2494 2394 2734 2622 
Q 2975 2850 2975 3272 
Q 2975 3691 2734 3919 
Q 2494 4147 2053 4147 
L 1259 4147 
z
M 628 4666 
L 2053 4666 
Q 2838 4666 3239 4311 
Q 3641 3956 3641 3272 
Q 3641 2581 3239 2228 
Q 2838 1875 2053 1875 
L 1259 1875 
L 1259 0 
L 628 0 
L 628 4666 
z
" transform="scale(0.015625)"/>
       <path id="DejaVuSans-65" d="M 3597 1894 
L 3597 1613 
L 953 1613 
Q 991 1019 1311 708 
Q 1631 397 2203 397 
Q 2534 397 2845 478 
Q 3156 559 3463 722 
L 3463 178 
Q 3153 47 2828 -22 
Q 2503 -91 2169 -91 
Q 1331 -91 842 396 
Q 353 884 353 1716 
Q 353 2575 817 3079 
Q 1281 3584 2069 3584 
Q 2775 3584 3186 3129 
Q 3597 2675 3597 1894 
z
M 3022 2063 
Q 3016 2534 2758 2815 
Q 2500 3097 2075 3097 
Q 1594 3097 1305 2825 
Q 1016 2553 972 2059 
L 3022 2063 
z
" transform="scale(0.015625)"/>
       <path id="DejaVuSans-72" d="M 2631 2963 
Q 2534 3019 2420 3045 
Q 2306 3072 2169 3072 
Q 1681 3072 1420 2755 
Q 1159 2438 1159 1844 
L 1159 0 
L 581 0 
L 581 3500 
L 1159 3500 
L 1159 2956 
Q 1341 3275 1631 3429 
Q 1922 3584 2338 3584 
Q 2397 3584 2469 3576 
Q 2541 3569 2628 3553 
L 2631 2963 
z
" transform="scale(0.015625)"/>
       <path id="DejaVuSans-69" d="M 603 3500 
L 1178 3500 
L 1178 0 
L 603 0 
L 603 3500 
z
M 603 4863 
L 1178 4863 
L 1178 4134 
L 603 4134 
L 603 4863 
z
" transform="scale(0.015625)"/>
       <path id="DejaVuSans-70" d="M 1159 525 
L 1159 -1331 
L 581 -1331 
L 581 3500 
L 1159 3500 
L 1159 2969 
Q 1341 3281 1617 3432 
Q 1894 3584 2278 3584 
Q 2916 3584 3314 3078 
Q 3713 2572 3713 1747 
Q 3713 922 3314 415 
Q 2916 -91 2278 -91 
Q 1894 -91 1617 61 
Q 1341 213 1159 525 
z
M 3116 1747 
Q 3116 2381 2855 2742 
Q 2594 3103 2138 3103 
Q 1681 3103 1420 2742 
Q 1159 2381 1159 1747 
Q 1159 1113 1420 752 
Q 1681 391 2138 391 
Q 2594 391 2855 752 
Q 3116 1113 3116 1747 
z
" transform="scale(0.015625)"/>
       <path id="DejaVuSans-68" d="M 3513 2113 
L 3513 0 
L 2938 0 
L 2938 2094 
Q 2938 2591 2744 2837 
Q 2550 3084 2163 3084 
Q 1697 3084 1428 2787 
Q 1159 2491 1159 1978 
L 1159 0 
L 581 0 
L 581 4863 
L 1159 4863 
L 1159 2956 
Q 1366 3272 1645 3428 
Q 1925 3584 2291 3584 
Q 2894 3584 3203 3211 
Q 3513 2838 3513 2113 
z
" transform="scale(0.015625)"/>
       <path id="DejaVuSans-61" d="M 2194 1759 
Q 1497 1759 1228 1600 
Q 959 1441 959 1056 
Q 959 750 1161 570 
Q 1363 391 1709 391 
Q 2188 391 2477 730 
Q 2766 1069 2766 1631 
L 2766 1759 
L 2194 1759 
z
M 3341 1997 
L 3341 0 
L 2766 0 
L 2766 531 
Q 2569 213 2275 61 
Q 1981 -91 1556 -91 
Q 1019 -91 701 211 
Q 384 513 384 1019 
Q 384 1609 779 1909 
Q 1175 2209 1959 2209 
L 2766 2209 
L 2766 2266 
Q 2766 2663 2505 2880 
Q 2244 3097 1772 3097 
Q 1472 3097 1187 3025 
Q 903 2953 641 2809 
L 641 3341 
Q 956 3463 1253 3523 
Q 1550 3584 1831 3584 
Q 2591 3584 2966 3190 
Q 3341 2797 3341 1997 
z
" transform="scale(0.015625)"/>
       <path id="DejaVuSans-6c" d="M 603 4863 
L 1178 4863 
L 1178 0 
L 603 0 
L 603 4863 
z
" transform="scale(0.015625)"/>
       <path id="DejaVuSans-20" transform="scale(0.015625)"/>
       <path id="DejaVuSans-63" d="M 3122 3366 
L 3122 2828 
Q 2878 2963 2633 3030 
Q 2388 3097 2138 3097 
Q 1578 3097 1268 2742 
Q 959 2388 959 1747 
Q 959 1106 1268 751 
Q 1578 397 2138 397 
Q 2388 397 2633 464 
Q 2878 531 3122 666 
L 3122 134 
Q 2881 22 2623 -34 
Q 2366 -91 2075 -91 
Q 1284 -91 818 406 
Q 353 903 353 1747 
Q 353 2603 823 3093 
Q 1294 3584 2113 3584 
Q 2378 3584 2631 3529 
Q 2884 3475 3122 3366 
z
" transform="scale(0.015625)"/>
       <path id="DejaVuSans-6f" d="M 1959 3097 
Q 1497 3097 1228 2736 
Q 959 2375 959 1747 
Q 959 1119 1226 758 
Q 1494 397 1959 397 
Q 2419 397 2687 759 
Q 2956 1122 2956 1747 
Q 2956 2369 2687 2733 
Q 2419 3097 1959 3097 
z
M 1959 3584 
Q 2709 3584 3137 3096 
Q 3566 2609 3566 1747 
Q 3566 888 3137 398 
Q 2709 -91 1959 -91 
Q 1206 -91 779 398 
Q 353 888 353 1747 
Q 353 2609 779 3096 
Q 1206 3584 1959 3584 
z
" transform="scale(0.015625)"/>
       <path id="DejaVuSans-6e" d="M 3513 2113 
L 3513 0 
L 2938 0 
L 2938 2094 
Q 2938 2591 2744 2837 
Q 2550 3084 2163 3084 
Q 1697 3084 1428 2787 
Q 1159 2491 1159 1978 
L 1159 0 
L 581 0 
L 581 3500 
L 1159 3500 
L 1159 2956 
Q 1366 3272 1645 3428 
Q 1925 3584 2291 3584 
Q 2894 3584 3203 3211 
Q 3513 2838 3513 2113 
z
" transform="scale(0.015625)"/>
       <path id="DejaVuSans-73" d="M 2834 3397 
L 2834 2853 
Q 2591 2978 2328 3040 
Q 2066 3103 1784 3103 
Q 1356 3103 1142 2972 
Q 928 2841 928 2578 
Q 928 2378 1081 2264 
Q 1234 2150 1697 2047 
L 1894 2003 
Q 2506 1872 2764 1633 
Q 3022 1394 3022 966 
Q 3022 478 2636 193 
Q 2250 -91 1575 -91 
Q 1294 -91 989 -36 
Q 684 19 347 128 
L 347 722 
Q 666 556 975 473 
Q 1284 391 1588 391 
Q 1994 391 2212 530 
Q 2431 669 2431 922 
Q 2431 1156 2273 1281 
Q 2116 1406 1581 1522 
L 1381 1569 
Q 847 1681 609 1914 
Q 372 2147 372 2553 
Q 372 3047 722 3315 
Q 1072 3584 1716 3584 
Q 2034 3584 2315 3537 
Q 2597 3491 2834 3397 
z
" transform="scale(0.015625)"/>
       <path id="DejaVuSans-74" d="M 1172 4494 
L 1172 3500 
L 2356 3500 
L 2356 3053 
L 1172 3053 
L 1172 1153 
Q 1172 725 1289 603 
Q 1406 481 1766 481 
L 2356 481 
L 2356 0 
L 1766 0 
Q 1100 0 847 248 
Q 594 497 594 1153 
L 594 3053 
L 172 3053 
L 172 3500 
L 594 3500 
L 594 4494 
L 1172 4494 
z
" transform="scale(0.015625)"/>
       <path id="DejaVuSans-Oblique-63" d="M 3431 3366 
L 3316 2797 
Q 3109 2947 2876 3022 
Q 2644 3097 2394 3097 
Q 2119 3097 1870 3000 
Q 1622 2903 1453 2725 
Q 1184 2453 1037 2087 
Q 891 1722 891 1331 
Q 891 859 1127 628 
Q 1363 397 1844 397 
Q 2081 397 2348 469 
Q 2616 541 2906 684 
L 2797 116 
Q 2547 13 2283 -39 
Q 2019 -91 1741 -91 
Q 1044 -91 669 257 
Q 294 606 294 1253 
Q 294 1797 489 2255 
Q 684 2713 1069 3078 
Q 1331 3328 1684 3456 
Q 2038 3584 2456 3584 
Q 2700 3584 2940 3529 
Q 3181 3475 3431 3366 
z
" transform="scale(0.015625)"/>
      </defs>
      <use xlink:href="#DejaVuSans-50" transform="translate(0 0.015625)"/>
      <use xlink:href="#DejaVuSans-65" transform="translate(60.302734 0.015625)"/>
      <use xlink:href="#DejaVuSans-72" transform="translate(121.826172 0.015625)"/>
      <use xlink:href="#DejaVuSans-69" transform="translate(162.939453 0.015625)"/>
      <use xlink:href="#DejaVuSans-70" transform="translate(190.722656 0.015625)"/>
      <use xlink:href="#DejaVuSans-68" transform="translate(254.199219 0.015625)"/>
      <use xlink:href="#DejaVuSans-65" transform="translate(317.578125 0.015625)"/>
      <use xlink:href="#DejaVuSans-72" transform="translate(379.101562 0.015625)"/>
      <use xlink:href="#DejaVuSans-61" transform="translate(420.214844 0.015625)"/>
      <use xlink:href="#DejaVuSans-6c" transform="translate(481.494141 0.015625)"/>
      <use xlink:href="#DejaVuSans-20" transform="translate(509.277344 0.015625)"/>
      <use xlink:href="#DejaVuSans-63" transform="translate(541.064453 0.015625)"/>
      <use xlink:href="#DejaVuSans-6f" transform="translate(596.044922 0.015625)"/>
      <use xlink:href="#DejaVuSans-6e" transform="translate(657.226562 0.015625)"/>
      <use xlink:href="#DejaVuSans-73" transform="translate(720.605469 0.015625)"/>
      <use xlink:href="#DejaVuSans-74" transform="translate(772.705078 0.015625)"/>
      <use xlink:href="#DejaVuSans-72" transform="translate(811.914062 0.015625)"/>
      <use xlink:href="#DejaVuSans-61" transform="translate(853.027344 0.015625)"/>
      <use xlink:href="#DejaVuSans-69" transform="translate(914.306641 0.015625)"/>
      <use xlink:href="#DejaVuSans-6e" transform="translate(942.089844 0.015625)"/>
      <use xlink:href="#DejaVuSans-74" transform="translate(1005.46875 0.015625)"/>
      <use xlink:href="#DejaVuSans-20" transform="translate(1044.677734 0.015625)"/>
      <use xlink:href="#DejaVuSans-Oblique-63" transform="translate(1076.464844 0.015625)"/>
     </g>
    </g>
   </g>
   <g id="matplotlib.axis_2">
    <g id="ytick_1">
     <g id="line2d_10">
      <defs>
       <path id="m497ae88e27" d="M 0 0 
L -3.5 0 
" style="stroke: #000000; stroke-width: 0.8"/>
      </defs>
      <g>
       <use xlink:href="#m497ae88e27" x="51.111563" y="365.564613" style="stroke: #000000; stroke-width: 0.8"/>
      </g>
     </g>
     <g id="text_11">
      <!-- 0.0 -->
      <g transform="translate(28.208438 369.363832) scale(0.1 -0.1)">
       <use xlink:href="#DejaVuSans-30"/>
       <use xlink:href="#DejaVuSans-2e" transform="translate(63.623047 0)"/>
       <use xlink:href="#DejaVuSans-30" transform="translate(95.410156 0)"/>
      </g>
     </g>
    </g>
    <g id="ytick_2">
     <g id="line2d_11">
      <g>
       <use xlink:href="#m497ae88e27" x="51.111563" y="323.903333" style="stroke: #000000; stroke-width: 0.8"/>
      </g>
     </g>
     <g id="text_12">
      <!-- 2.5 -->
      <g transform="translate(28.208438 327.702552) scale(0.1 -0.1)">
       <use xlink:href="#DejaVuSans-32"/>
       <use xlink:href="#DejaVuSans-2e" transform="translate(63.623047 0)"/>
       <use xlink:href="#DejaVuSans-35" transform="translate(95.410156 0)"/>
      </g>
     </g>
    </g>
    <g id="ytick_3">
     <g id="line2d_12">
      <g>
       <use xlink:href="#m497ae88e27" x="51.111563" y="282.242054" style="stroke: #000000; stroke-width: 0.8"/>
      </g>
     </g>
     <g id="text_13">
      <!-- 5.0 -->
      <g transform="translate(28.208438 286.041272) scale(0.1 -0.1)">
       <use xlink:href="#DejaVuSans-35"/>
       <use xlink:href="#DejaVuSans-2e" transform="translate(63.623047 0)"/>
       <use xlink:href="#DejaVuSans-30" transform="translate(95.410156 0)"/>
      </g>
     </g>
    </g>
    <g id="ytick_4">
     <g id="line2d_13">
      <g>
       <use xlink:href="#m497ae88e27" x="51.111563" y="240.580774" style="stroke: #000000; stroke-width: 0.8"/>
      </g>
     </g>
     <g id="text_14">
      <!-- 7.5 -->
      <g transform="translate(28.208438 244.379993) scale(0.1 -0.1)">
       <use xlink:href="#DejaVuSans-37"/>
       <use xlink:href="#DejaVuSans-2e" transform="translate(63.623047 0)"/>
       <use xlink:href="#DejaVuSans-35" transform="translate(95.410156 0)"/>
      </g>
     </g>
    </g>
    <g id="ytick_5">
     <g id="line2d_14">
      <g>
       <use xlink:href="#m497ae88e27" x="51.111563" y="198.919494" style="stroke: #000000; stroke-width: 0.8"/>
      </g>
     </g>
     <g id="text_15">
      <!-- 10.0 -->
      <g transform="translate(21.845938 202.718713) scale(0.1 -0.1)">
       <defs>
        <path id="DejaVuSans-31" d="M 794 531 
L 1825 531 
L 1825 4091 
L 703 3866 
L 703 4441 
L 1819 4666 
L 2450 4666 
L 2450 531 
L 3481 531 
L 3481 0 
L 794 0 
L 794 531 
z
" transform="scale(0.015625)"/>
       </defs>
       <use xlink:href="#DejaVuSans-31"/>
       <use xlink:href="#DejaVuSans-30" transform="translate(63.623047 0)"/>
       <use xlink:href="#DejaVuSans-2e" transform="translate(127.246094 0)"/>
       <use xlink:href="#DejaVuSans-30" transform="translate(159.033203 0)"/>
      </g>
     </g>
    </g>
    <g id="ytick_6">
     <g id="line2d_15">
      <g>
       <use xlink:href="#m497ae88e27" x="51.111563" y="157.258214" style="stroke: #000000; stroke-width: 0.8"/>
      </g>
     </g>
     <g id="text_16">
      <!-- 12.5 -->
      <g transform="translate(21.845938 161.057433) scale(0.1 -0.1)">
       <use xlink:href="#DejaVuSans-31"/>
       <use xlink:href="#DejaVuSans-32" transform="translate(63.623047 0)"/>
       <use xlink:href="#DejaVuSans-2e" transform="translate(127.246094 0)"/>
       <use xlink:href="#DejaVuSans-35" transform="translate(159.033203 0)"/>
      </g>
     </g>
    </g>
    <g id="ytick_7">
     <g id="line2d_16">
      <g>
       <use xlink:href="#m497ae88e27" x="51.111563" y="115.596935" style="stroke: #000000; stroke-width: 0.8"/>
      </g>
     </g>
     <g id="text_17">
      <!-- 15.0 -->
      <g transform="translate(21.845938 119.396153) scale(0.1 -0.1)">
       <use xlink:href="#DejaVuSans-31"/>
       <use xlink:href="#DejaVuSans-35" transform="translate(63.623047 0)"/>
       <use xlink:href="#DejaVuSans-2e" transform="translate(127.246094 0)"/>
       <use xlink:href="#DejaVuSans-30" transform="translate(159.033203 0)"/>
      </g>
     </g>
    </g>
    <g id="ytick_8">
     <g id="line2d_17">
      <g>
       <use xlink:href="#m497ae88e27" x="51.111563" y="73.935655" style="stroke: #000000; stroke-width: 0.8"/>
      </g>
     </g>
     <g id="text_18">
      <!-- 17.5 -->
      <g transform="translate(21.845938 77.734874) scale(0.1 -0.1)">
       <use xlink:href="#DejaVuSans-31"/>
       <use xlink:href="#DejaVuSans-37" transform="translate(63.623047 0)"/>
       <use xlink:href="#DejaVuSans-2e" transform="translate(127.246094 0)"/>
       <use xlink:href="#DejaVuSans-35" transform="translate(159.033203 0)"/>
      </g>
     </g>
    </g>
    <g id="ytick_9">
     <g id="line2d_18">
      <g>
       <use xlink:href="#m497ae88e27" x="51.111563" y="32.274375" style="stroke: #000000; stroke-width: 0.8"/>
      </g>
     </g>
     <g id="text_19">
      <!-- 20.0 -->
      <g transform="translate(21.845938 36.073594) scale(0.1 -0.1)">
       <use xlink:href="#DejaVuSans-32"/>
       <use xlink:href="#DejaVuSans-30" transform="translate(63.623047 0)"/>
       <use xlink:href="#DejaVuSans-2e" transform="translate(127.246094 0)"/>
       <use xlink:href="#DejaVuSans-30" transform="translate(159.033203 0)"/>
      </g>
     </g>
    </g>
    <g id="text_20">
     <!-- Peripheral Pe -->
     <g transform="translate(15.558281 243.311984) rotate(-90) scale(0.11 -0.11)">
      <use xlink:href="#DejaVuSans-50"/>
      <use xlink:href="#DejaVuSans-65" transform="translate(56.677734 0)"/>
      <use xlink:href="#DejaVuSans-72" transform="translate(118.201172 0)"/>
      <use xlink:href="#DejaVuSans-69" transform="translate(159.314453 0)"/>
      <use xlink:href="#DejaVuSans-70" transform="translate(187.097656 0)"/>
      <use xlink:href="#DejaVuSans-68" transform="translate(250.574219 0)"/>
      <use xlink:href="#DejaVuSans-65" transform="translate(313.953125 0)"/>
      <use xlink:href="#DejaVuSans-72" transform="translate(375.476562 0)"/>
      <use xlink:href="#DejaVuSans-61" transform="translate(416.589844 0)"/>
      <use xlink:href="#DejaVuSans-6c" transform="translate(477.869141 0)"/>
      <use xlink:href="#DejaVuSans-20" transform="translate(505.652344 0)"/>
      <use xlink:href="#DejaVuSans-50" transform="translate(537.439453 0)"/>
      <use xlink:href="#DejaVuSans-65" transform="translate(594.117188 0)"/>
     </g>
    </g>
   </g>
   <g id="line2d_19">
    <path d="M 51.111562 284.637954 
L 62.381444 287.198728 
L 73.651325 289.752865 
L 84.921207 292.300583 
L 96.191088 294.842096 
L 107.46097 297.377619 
L 118.730851 299.907369 
L 130.000732 302.431559 
L 141.270614 304.950402 
L 152.540495 307.464112 
L 163.810377 309.972902 
L 175.080258 312.476984 
L 186.350139 314.976571 
L 197.620021 317.471874 
L 208.889902 319.963104 
L 220.159784 322.450472 
L 231.429665 324.93419 
L 242.699546 327.414466 
L 253.969428 329.891512 
L 265.239309 332.365537 
L 276.509191 334.836751 
L 287.779072 337.305362 
L 299.048954 339.771581 
L 310.318835 342.235615 
L 321.588716 344.697673 
L 332.858598 347.157965 
L 344.128479 349.616697 
L 355.398361 352.074079 
L 366.668242 354.530319 
L 377.938123 356.985624 
L 389.208005 359.440203 
L 400.477886 361.894263 
L 411.747768 364.348013 
L 423.017649 366.801659 
L 434.28753 369.25541 
L 445.557412 371.709474 
L 456.827293 374.164058 
L 468.097175 376.61937 
L 479.367056 379.075619 
L 490.636937 381.533011 
" clip-path="url(#pcf251ae530)" style="fill: none; stroke: #000000; stroke-width: 2; stroke-linecap: square"/>
   </g>
   <g id="line2d_20">
    <path d="M 51.111563 348.900101 
L 490.636937 348.900101 
" clip-path="url(#pcf251ae530)" style="fill: none; stroke-dasharray: 5.55,2.4; stroke-dashoffset: 0; stroke: #ff0000; stroke-width: 1.5"/>
   </g>
   <g id="line2d_21">
    <path d="M 340.648903 382.229125 
L 340.648903 32.274375 
" clip-path="url(#pcf251ae530)" style="fill: none; stroke-dasharray: 1,1.65; stroke-dashoffset: 0; stroke: #ff0000; stroke-opacity: 0.7"/>
   </g>
   <g id="line2d_22">
    <path d="M 51.111562 262.253357 
L 62.381444 264.881441 
L 73.651325 267.500995 
L 84.921207 270.112239 
L 96.191088 272.715395 
L 107.46097 275.310684 
L 118.730851 277.898326 
L 130.000732 280.47854 
L 141.270614 283.051544 
L 152.540495 285.617556 
L 163.810377 288.176794 
L 175.080258 290.729475 
L 186.350139 293.275815 
L 197.620021 295.81603 
L 208.889902 298.350335 
L 220.159784 300.878945 
L 231.429665 303.402074 
L 242.699546 305.919935 
L 253.969428 308.432743 
L 265.239309 310.940709 
L 276.509191 313.444048 
L 287.779072 315.94297 
L 299.048954 318.437687 
L 310.318835 320.928411 
L 321.588716 323.415353 
L 332.858598 325.898724 
L 344.128479 328.378734 
L 355.398361 330.855593 
L 366.668242 333.329511 
L 377.938123 335.800698 
L 389.208005 338.269362 
L 400.477886 340.735714 
L 411.747768 343.199963 
L 423.017649 345.662316 
L 434.28753 348.122983 
L 445.557412 350.582172 
L 456.827293 353.040092 
L 468.097175 355.49695 
L 479.367056 357.952956 
L 490.636937 360.408317 
" clip-path="url(#pcf251ae530)" style="fill: none; stroke: #41049d; stroke-width: 2; stroke-linecap: square"/>
   </g>
   <g id="line2d_23">
    <path d="M 51.111562 238.617417 
L 62.381444 241.333691 
L 73.651325 244.039423 
L 84.921207 246.734842 
L 96.191088 249.420176 
L 107.46097 252.095655 
L 118.730851 254.761503 
L 130.000732 257.417949 
L 141.270614 260.065217 
L 152.540495 262.703531 
L 163.810377 265.333116 
L 175.080258 267.954195 
L 186.350139 270.566991 
L 197.620021 273.171724 
L 208.889902 275.768616 
L 220.159784 278.357888 
L 231.429665 280.939759 
L 242.699546 283.514448 
L 253.969428 286.082174 
L 265.239309 288.643154 
L 276.509191 291.197607 
L 287.779072 293.745748 
L 299.048954 296.287794 
L 310.318835 298.823961 
L 321.588716 301.354464 
L 332.858598 303.879518 
L 344.128479 306.399337 
L 355.398361 308.914135 
L 366.668242 311.424125 
L 377.938123 313.929521 
L 389.208005 316.430535 
L 400.477886 318.92738 
L 411.747768 321.420267 
L 423.017649 323.909407 
L 434.28753 326.395013 
L 445.557412 328.877295 
L 456.827293 331.356464 
L 468.097175 333.832731 
L 479.367056 336.306304 
L 490.636937 338.777396 
" clip-path="url(#pcf251ae530)" style="fill: none; stroke: #a62098; stroke-width: 2; stroke-linecap: square"/>
   </g>
   <g id="line2d_24">
    <path d="M 51.111562 186.630265 
L 62.381444 189.59322 
L 73.651325 192.541166 
L 84.921207 195.474356 
L 96.191088 198.393038 
L 107.46097 201.297462 
L 118.730851 204.187875 
L 130.000732 207.064523 
L 141.270614 209.927651 
L 152.540495 212.777503 
L 163.810377 215.614323 
L 175.080258 218.438351 
L 186.350139 221.249829 
L 197.620021 224.048996 
L 208.889902 226.836091 
L 220.159784 229.611351 
L 231.429665 232.375013 
L 242.699546 235.127313 
L 253.969428 237.868485 
L 265.239309 240.598763 
L 276.509191 243.31838 
L 287.779072 246.027567 
L 299.048954 248.726556 
L 310.318835 251.415578 
L 321.588716 254.09486 
L 332.858598 256.764633 
L 344.128479 259.425123 
L 355.398361 262.076558 
L 366.668242 264.719164 
L 377.938123 267.353166 
L 389.208005 269.978789 
L 400.477886 272.596257 
L 411.747768 275.205794 
L 423.017649 277.807622 
L 434.28753 280.401963 
L 445.557412 282.989039 
L 456.827293 285.56907 
L 468.097175 288.142277 
L 479.367056 290.708879 
L 490.636937 293.269096 
" clip-path="url(#pcf251ae530)" style="fill: none; stroke: #e76f5a; stroke-width: 2; stroke-linecap: square"/>
   </g>
   <g id="line2d_25">
    <path d="M 51.111562 126.472484 
L 62.381444 129.791297 
L 73.651325 133.089881 
L 84.921207 136.36852 
L 96.191088 139.627492 
L 107.46097 142.867077 
L 118.730851 146.087551 
L 130.000732 149.28919 
L 141.270614 152.472268 
L 152.540495 155.637056 
L 163.810377 158.783826 
L 175.080258 161.912846 
L 186.350139 165.024385 
L 197.620021 168.118708 
L 208.889902 171.196081 
L 220.159784 174.256767 
L 231.429665 177.301028 
L 242.699546 180.329124 
L 253.969428 183.341315 
L 265.239309 186.337859 
L 276.509191 189.319012 
L 287.779072 192.285031 
L 299.048954 195.236168 
L 310.318835 198.172677 
L 321.588716 201.09481 
L 332.858598 204.002817 
L 344.128479 206.896947 
L 355.398361 209.777449 
L 366.668242 212.64457 
L 377.938123 215.498555 
L 389.208005 218.339649 
L 400.477886 221.168097 
L 411.747768 223.98414 
L 423.017649 226.788021 
L 434.28753 229.57998 
L 445.557412 232.360257 
L 456.827293 235.129091 
L 468.097175 237.886718 
L 479.367056 240.633377 
L 490.636937 243.369303 
" clip-path="url(#pcf251ae530)" style="fill: none; stroke: #fcce25; stroke-width: 2; stroke-linecap: square"/>
   </g>
   <g id="patch_3">
    <path d="M 51.111563 382.229125 
L 51.111563 32.274375 
" style="fill: none; stroke: #000000; stroke-width: 0.8; stroke-linejoin: miter; stroke-linecap: square"/>
   </g>
   <g id="patch_4">
    <path d="M 490.636937 382.229125 
L 490.636937 32.274375 
" style="fill: none; stroke: #000000; stroke-width: 0.8; stroke-linejoin: miter; stroke-linecap: square"/>
   </g>
   <g id="patch_5">
    <path d="M 51.111562 382.229125 
L 490.636937 382.229125 
" style="fill: none; stroke: #000000; stroke-width: 0.8; stroke-linejoin: miter; stroke-linecap: square"/>
   </g>
   <g id="patch_6">
    <path d="M 51.111562 32.274375 
L 490.636937 32.274375 
" style="fill: none; stroke: #000000; stroke-width: 0.8; stroke-linejoin: miter; stroke-linecap: square"/>
   </g>
   <g id="text_21">
    <!-- Hub contamination: one void hub (c=0.1, Pe≈27) -->
    <g transform="translate(147.239094 15.076562) scale(0.1 -0.1)">
     <defs>
      <path id="DejaVuSans-48" d="M 628 4666 
L 1259 4666 
L 1259 2753 
L 3553 2753 
L 3553 4666 
L 4184 4666 
L 4184 0 
L 3553 0 
L 3553 2222 
L 1259 2222 
L 1259 0 
L 628 0 
L 628 4666 
z
" transform="scale(0.015625)"/>
      <path id="DejaVuSans-75" d="M 544 1381 
L 544 3500 
L 1119 3500 
L 1119 1403 
Q 1119 906 1312 657 
Q 1506 409 1894 409 
Q 2359 409 2629 706 
Q 2900 1003 2900 1516 
L 2900 3500 
L 3475 3500 
L 3475 0 
L 2900 0 
L 2900 538 
Q 2691 219 2414 64 
Q 2138 -91 1772 -91 
Q 1169 -91 856 284 
Q 544 659 544 1381 
z
M 1991 3584 
L 1991 3584 
z
" transform="scale(0.015625)"/>
      <path id="DejaVuSans-62" d="M 3116 1747 
Q 3116 2381 2855 2742 
Q 2594 3103 2138 3103 
Q 1681 3103 1420 2742 
Q 1159 2381 1159 1747 
Q 1159 1113 1420 752 
Q 1681 391 2138 391 
Q 2594 391 2855 752 
Q 3116 1113 3116 1747 
z
M 1159 2969 
Q 1341 3281 1617 3432 
Q 1894 3584 2278 3584 
Q 2916 3584 3314 3078 
Q 3713 2572 3713 1747 
Q 3713 922 3314 415 
Q 2916 -91 2278 -91 
Q 1894 -91 1617 61 
Q 1341 213 1159 525 
L 1159 0 
L 581 0 
L 581 4863 
L 1159 4863 
L 1159 2969 
z
" transform="scale(0.015625)"/>
      <path id="DejaVuSans-6d" d="M 3328 2828 
Q 3544 3216 3844 3400 
Q 4144 3584 4550 3584 
Q 5097 3584 5394 3201 
Q 5691 2819 5691 2113 
L 5691 0 
L 5113 0 
L 5113 2094 
Q 5113 2597 4934 2840 
Q 4756 3084 4391 3084 
Q 3944 3084 3684 2787 
Q 3425 2491 3425 1978 
L 3425 0 
L 2847 0 
L 2847 2094 
Q 2847 2600 2669 2842 
Q 2491 3084 2119 3084 
Q 1678 3084 1418 2786 
Q 1159 2488 1159 1978 
L 1159 0 
L 581 0 
L 581 3500 
L 1159 3500 
L 1159 2956 
Q 1356 3278 1631 3431 
Q 1906 3584 2284 3584 
Q 2666 3584 2933 3390 
Q 3200 3197 3328 2828 
z
" transform="scale(0.015625)"/>
      <path id="DejaVuSans-3a" d="M 750 794 
L 1409 794 
L 1409 0 
L 750 0 
L 750 794 
z
M 750 3309 
L 1409 3309 
L 1409 2516 
L 750 2516 
L 750 3309 
z
" transform="scale(0.015625)"/>
      <path id="DejaVuSans-76" d="M 191 3500 
L 800 3500 
L 1894 563 
L 2988 3500 
L 3597 3500 
L 2284 0 
L 1503 0 
L 191 3500 
z
" transform="scale(0.015625)"/>
      <path id="DejaVuSans-64" d="M 2906 2969 
L 2906 4863 
L 3481 4863 
L 3481 0 
L 2906 0 
L 2906 525 
Q 2725 213 2448 61 
Q 2172 -91 1784 -91 
Q 1150 -91 751 415 
Q 353 922 353 1747 
Q 353 2572 751 3078 
Q 1150 3584 1784 3584 
Q 2172 3584 2448 3432 
Q 2725 3281 2906 2969 
z
M 947 1747 
Q 947 1113 1208 752 
Q 1469 391 1925 391 
Q 2381 391 2643 752 
Q 2906 1113 2906 1747 
Q 2906 2381 2643 2742 
Q 2381 3103 1925 3103 
Q 1469 3103 1208 2742 
Q 947 2381 947 1747 
z
" transform="scale(0.015625)"/>
      <path id="DejaVuSans-28" d="M 1984 4856 
Q 1566 4138 1362 3434 
Q 1159 2731 1159 2009 
Q 1159 1288 1364 580 
Q 1569 -128 1984 -844 
L 1484 -844 
Q 1016 -109 783 600 
Q 550 1309 550 2009 
Q 550 2706 781 3412 
Q 1013 4119 1484 4856 
L 1984 4856 
z
" transform="scale(0.015625)"/>
      <path id="DejaVuSans-3d" d="M 678 2906 
L 4684 2906 
L 4684 2381 
L 678 2381 
L 678 2906 
z
M 678 1631 
L 4684 1631 
L 4684 1100 
L 678 1100 
L 678 1631 
z
" transform="scale(0.015625)"/>
      <path id="DejaVuSans-2c" d="M 750 794 
L 1409 794 
L 1409 256 
L 897 -744 
L 494 -744 
L 750 256 
L 750 794 
z
" transform="scale(0.015625)"/>
      <path id="DejaVuSans-2248" d="M 4684 1947 
L 4684 1388 
Q 4356 1144 4076 1036 
Q 3797 928 3494 928 
Q 3150 928 2694 1113 
Q 2663 1125 2641 1134 
Q 2622 1141 2575 1159 
Q 2091 1350 1797 1350 
Q 1522 1350 1253 1231 
Q 984 1113 678 850 
L 678 1409 
Q 1006 1653 1286 1761 
Q 1566 1869 1869 1869 
Q 2213 1869 2672 1684 
Q 2706 1669 2722 1663 
Q 2741 1656 2788 1638 
Q 3272 1447 3566 1447 
Q 3834 1447 4098 1564 
Q 4363 1681 4684 1947 
z
M 4684 3163 
L 4684 2606 
Q 4356 2359 4076 2251 
Q 3797 2144 3494 2144 
Q 3150 2144 2694 2328 
Q 2663 2341 2641 2350 
Q 2622 2356 2575 2375 
Q 2091 2566 1797 2566 
Q 1522 2566 1253 2447 
Q 984 2328 678 2069 
L 678 2625 
Q 1006 2869 1286 2976 
Q 1566 3084 1869 3084 
Q 2213 3084 2672 2900 
Q 2703 2888 2719 2881 
Q 2741 2872 2788 2853 
Q 3272 2663 3566 2663 
Q 3834 2663 4098 2780 
Q 4363 2897 4684 3163 
z
" transform="scale(0.015625)"/>
      <path id="DejaVuSans-29" d="M 513 4856 
L 1013 4856 
Q 1481 4119 1714 3412 
Q 1947 2706 1947 2009 
Q 1947 1309 1714 600 
Q 1481 -109 1013 -844 
L 513 -844 
Q 928 -128 1133 580 
Q 1338 1288 1338 2009 
Q 1338 2731 1133 3434 
Q 928 4138 513 4856 
z
" transform="scale(0.015625)"/>
     </defs>
     <use xlink:href="#DejaVuSans-48"/>
     <use xlink:href="#DejaVuSans-75" transform="translate(75.195312 0)"/>
     <use xlink:href="#DejaVuSans-62" transform="translate(138.574219 0)"/>
     <use xlink:href="#DejaVuSans-20" transform="translate(202.050781 0)"/>
     <use xlink:href="#DejaVuSans-63" transform="translate(233.837891 0)"/>
     <use xlink:href="#DejaVuSans-6f" transform="translate(288.818359 0)"/>
     <use xlink:href="#DejaVuSans-6e" transform="translate(350 0)"/>
     <use xlink:href="#DejaVuSans-74" transform="translate(413.378906 0)"/>
     <use xlink:href="#DejaVuSans-61" transform="translate(452.587891 0)"/>
     <use xlink:href="#DejaVuSans-6d" transform="translate(513.867188 0)"/>
     <use xlink:href="#DejaVuSans-69" transform="translate(611.279297 0)"/>
     <use xlink:href="#DejaVuSans-6e" transform="translate(639.0625 0)"/>
     <use xlink:href="#DejaVuSans-61" transform="translate(702.441406 0)"/>
     <use xlink:href="#DejaVuSans-74" transform="translate(763.720703 0)"/>
     <use xlink:href="#DejaVuSans-69" transform="translate(802.929688 0)"/>
     <use xlink:href="#DejaVuSans-6f" transform="translate(830.712891 0)"/>
     <use xlink:href="#DejaVuSans-6e" transform="translate(891.894531 0)"/>
     <use xlink:href="#DejaVuSans-3a" transform="translate(955.273438 0)"/>
     <use xlink:href="#DejaVuSans-20" transform="translate(988.964844 0)"/>
     <use xlink:href="#DejaVuSans-6f" transform="translate(1020.751953 0)"/>
     <use xlink:href="#DejaVuSans-6e" transform="translate(1081.933594 0)"/>
     <use xlink:href="#DejaVuSans-65" transform="translate(1145.3125 0)"/>
     <use xlink:href="#DejaVuSans-20" transform="translate(1206.835938 0)"/>
     <use xlink:href="#DejaVuSans-76" transform="translate(1238.623047 0)"/>
     <use xlink:href="#DejaVuSans-6f" transform="translate(1297.802734 0)"/>
     <use xlink:href="#DejaVuSans-69" transform="translate(1358.984375 0)"/>
     <use xlink:href="#DejaVuSans-64" transform="translate(1386.767578 0)"/>
     <use xlink:href="#DejaVuSans-20" transform="translate(1450.244141 0)"/>
     <use xlink:href="#DejaVuSans-68" transform="translate(1482.03125 0)"/>
     <use xlink:href="#DejaVuSans-75" transform="translate(1545.410156 0)"/>
     <use xlink:href="#DejaVuSans-62" transform="translate(1608.789062 0)"/>
     <use xlink:href="#DejaVuSans-20" transform="translate(1672.265625 0)"/>
     <use xlink:href="#DejaVuSans-28" transform="translate(1704.052734 0)"/>
     <use xlink:href="#DejaVuSans-63" transform="translate(1743.066406 0)"/>
     <use xlink:href="#DejaVuSans-3d" transform="translate(1798.046875 0)"/>
     <use xlink:href="#DejaVuSans-30" transform="translate(1881.835938 0)"/>
     <use xlink:href="#DejaVuSans-2e" transform="translate(1945.458984 0)"/>
     <use xlink:href="#DejaVuSans-31" transform="translate(1977.246094 0)"/>
     <use xlink:href="#DejaVuSans-2c" transform="translate(2040.869141 0)"/>
     <use xlink:href="#DejaVuSans-20" transform="translate(2072.65625 0)"/>
     <use xlink:href="#DejaVuSans-50" transform="translate(2104.443359 0)"/>
     <use xlink:href="#DejaVuSans-65" transform="translate(2161.121094 0)"/>
     <use xlink:href="#DejaVuSans-2248" transform="translate(2222.644531 0)"/>
     <use xlink:href="#DejaVuSans-32" transform="translate(2306.433594 0)"/>
     <use xlink:href="#DejaVuSans-37" transform="translate(2370.056641 0)"/>
     <use xlink:href="#DejaVuSans-29" transform="translate(2433.679688 0)"/>
    </g>
    <!-- pulls N=19 constrained peripherals above Pe=1 -->
    <g transform="translate(150.596906 26.274375) scale(0.1 -0.1)">
     <defs>
      <path id="DejaVuSans-4e" d="M 628 4666 
L 1478 4666 
L 3547 763 
L 3547 4666 
L 4159 4666 
L 4159 0 
L 3309 0 
L 1241 3903 
L 1241 0 
L 628 0 
L 628 4666 
z
" transform="scale(0.015625)"/>
     </defs>
     <use xlink:href="#DejaVuSans-70"/>
     <use xlink:href="#DejaVuSans-75" transform="translate(63.476562 0)"/>
     <use xlink:href="#DejaVuSans-6c" transform="translate(126.855469 0)"/>
     <use xlink:href="#DejaVuSans-6c" transform="translate(154.638672 0)"/>
     <use xlink:href="#DejaVuSans-73" transform="translate(182.421875 0)"/>
     <use xlink:href="#DejaVuSans-20" transform="translate(234.521484 0)"/>
     <use xlink:href="#DejaVuSans-4e" transform="translate(266.308594 0)"/>
     <use xlink:href="#DejaVuSans-3d" transform="translate(341.113281 0)"/>
     <use xlink:href="#DejaVuSans-31" transform="translate(424.902344 0)"/>
     <use xlink:href="#DejaVuSans-39" transform="translate(488.525391 0)"/>
     <use xlink:href="#DejaVuSans-20" transform="translate(552.148438 0)"/>
     <use xlink:href="#DejaVuSans-63" transform="translate(583.935547 0)"/>
     <use xlink:href="#DejaVuSans-6f" transform="translate(638.916016 0)"/>
     <use xlink:href="#DejaVuSans-6e" transform="translate(700.097656 0)"/>
     <use xlink:href="#DejaVuSans-73" transform="translate(763.476562 0)"/>
     <use xlink:href="#DejaVuSans-74" transform="translate(815.576172 0)"/>
     <use xlink:href="#DejaVuSans-72" transform="translate(854.785156 0)"/>
     <use xlink:href="#DejaVuSans-61" transform="translate(895.898438 0)"/>
     <use xlink:href="#DejaVuSans-69" transform="translate(957.177734 0)"/>
     <use xlink:href="#DejaVuSans-6e" transform="translate(984.960938 0)"/>
     <use xlink:href="#DejaVuSans-65" transform="translate(1048.339844 0)"/>
     <use xlink:href="#DejaVuSans-64" transform="translate(1109.863281 0)"/>
     <use xlink:href="#DejaVuSans-20" transform="translate(1173.339844 0)"/>
     <use xlink:href="#DejaVuSans-70" transform="translate(1205.126953 0)"/>
     <use xlink:href="#DejaVuSans-65" transform="translate(1268.603516 0)"/>
     <use xlink:href="#DejaVuSans-72" transform="translate(1330.126953 0)"/>
     <use xlink:href="#DejaVuSans-69" transform="translate(1371.240234 0)"/>
     <use xlink:href="#DejaVuSans-70" transform="translate(1399.023438 0)"/>
     <use xlink:href="#DejaVuSans-68" transform="translate(1462.5 0)"/>
     <use xlink:href="#DejaVuSans-65" transform="translate(1525.878906 0)"/>
     <use xlink:href="#DejaVuSans-72" transform="translate(1587.402344 0)"/>
     <use xlink:href="#DejaVuSans-61" transform="translate(1628.515625 0)"/>
     <use xlink:href="#DejaVuSans-6c" transform="translate(1689.794922 0)"/>
     <use xlink:href="#DejaVuSans-73" transform="translate(1717.578125 0)"/>
     <use xlink:href="#DejaVuSans-20" transform="translate(1769.677734 0)"/>
     <use xlink:href="#DejaVuSans-61" transform="translate(1801.464844 0)"/>
     <use xlink:href="#DejaVuSans-62" transform="translate(1862.744141 0)"/>
     <use xlink:href="#DejaVuSans-6f" transform="translate(1926.220703 0)"/>
     <use xlink:href="#DejaVuSans-76" transform="translate(1987.402344 0)"/>
     <use xlink:href="#DejaVuSans-65" transform="translate(2046.582031 0)"/>
     <use xlink:href="#DejaVuSans-20" transform="translate(2108.105469 0)"/>
     <use xlink:href="#DejaVuSans-50" transform="translate(2139.892578 0)"/>
     <use xlink:href="#DejaVuSans-65" transform="translate(2196.570312 0)"/>
     <use xlink:href="#DejaVuSans-3d" transform="translate(2258.09375 0)"/>
     <use xlink:href="#DejaVuSans-31" transform="translate(2341.882812 0)"/>
    </g>
   </g>
   <g id="legend_1">
    <g id="patch_7">
     <path d="M 56.711563 121.984375 
L 204.671562 121.984375 
Q 206.271562 121.984375 206.271562 120.384375 
L 206.271562 37.874375 
Q 206.271562 36.274375 204.671562 36.274375 
L 56.711563 36.274375 
Q 55.111563 36.274375 55.111563 37.874375 
L 55.111563 120.384375 
Q 55.111563 121.984375 56.711563 121.984375 
z
" style="fill: #ffffff; opacity: 0.8; stroke: #cccccc; stroke-linejoin: miter"/>
    </g>
    <g id="line2d_26">
     <path d="M 58.311563 42.753125 
L 66.311563 42.753125 
L 74.311563 42.753125 
" style="fill: none; stroke: #000000; stroke-width: 2; stroke-linecap: square"/>
    </g>
    <g id="text_22">
     <!-- Single-agent Pe(c) -->
     <g transform="translate(80.711563 45.553125) scale(0.08 -0.08)">
      <defs>
       <path id="DejaVuSans-53" d="M 3425 4513 
L 3425 3897 
Q 3066 4069 2747 4153 
Q 2428 4238 2131 4238 
Q 1616 4238 1336 4038 
Q 1056 3838 1056 3469 
Q 1056 3159 1242 3001 
Q 1428 2844 1947 2747 
L 2328 2669 
Q 3034 2534 3370 2195 
Q 3706 1856 3706 1288 
Q 3706 609 3251 259 
Q 2797 -91 1919 -91 
Q 1588 -91 1214 -16 
Q 841 59 441 206 
L 441 856 
Q 825 641 1194 531 
Q 1563 422 1919 422 
Q 2459 422 2753 634 
Q 3047 847 3047 1241 
Q 3047 1584 2836 1778 
Q 2625 1972 2144 2069 
L 1759 2144 
Q 1053 2284 737 2584 
Q 422 2884 422 3419 
Q 422 4038 858 4394 
Q 1294 4750 2059 4750 
Q 2388 4750 2728 4690 
Q 3069 4631 3425 4513 
z
" transform="scale(0.015625)"/>
       <path id="DejaVuSans-67" d="M 2906 1791 
Q 2906 2416 2648 2759 
Q 2391 3103 1925 3103 
Q 1463 3103 1205 2759 
Q 947 2416 947 1791 
Q 947 1169 1205 825 
Q 1463 481 1925 481 
Q 2391 481 2648 825 
Q 2906 1169 2906 1791 
z
M 3481 434 
Q 3481 -459 3084 -895 
Q 2688 -1331 1869 -1331 
Q 1566 -1331 1297 -1286 
Q 1028 -1241 775 -1147 
L 775 -588 
Q 1028 -725 1275 -790 
Q 1522 -856 1778 -856 
Q 2344 -856 2625 -561 
Q 2906 -266 2906 331 
L 2906 616 
Q 2728 306 2450 153 
Q 2172 0 1784 0 
Q 1141 0 747 490 
Q 353 981 353 1791 
Q 353 2603 747 3093 
Q 1141 3584 1784 3584 
Q 2172 3584 2450 3431 
Q 2728 3278 2906 2969 
L 2906 3500 
L 3481 3500 
L 3481 434 
z
" transform="scale(0.015625)"/>
       <path id="DejaVuSans-2d" d="M 313 2009 
L 1997 2009 
L 1997 1497 
L 313 1497 
L 313 2009 
z
" transform="scale(0.015625)"/>
      </defs>
      <use xlink:href="#DejaVuSans-53"/>
      <use xlink:href="#DejaVuSans-69" transform="translate(63.476562 0)"/>
      <use xlink:href="#DejaVuSans-6e" transform="translate(91.259766 0)"/>
      <use xlink:href="#DejaVuSans-67" transform="translate(154.638672 0)"/>
      <use xlink:href="#DejaVuSans-6c" transform="translate(218.115234 0)"/>
      <use xlink:href="#DejaVuSans-65" transform="translate(245.898438 0)"/>
      <use xlink:href="#DejaVuSans-2d" transform="translate(307.421875 0)"/>
      <use xlink:href="#DejaVuSans-61" transform="translate(343.505859 0)"/>
      <use xlink:href="#DejaVuSans-67" transform="translate(404.785156 0)"/>
      <use xlink:href="#DejaVuSans-65" transform="translate(468.261719 0)"/>
      <use xlink:href="#DejaVuSans-6e" transform="translate(529.785156 0)"/>
      <use xlink:href="#DejaVuSans-74" transform="translate(593.164062 0)"/>
      <use xlink:href="#DejaVuSans-20" transform="translate(632.373047 0)"/>
      <use xlink:href="#DejaVuSans-50" transform="translate(664.160156 0)"/>
      <use xlink:href="#DejaVuSans-65" transform="translate(720.837891 0)"/>
      <use xlink:href="#DejaVuSans-28" transform="translate(782.361328 0)"/>
      <use xlink:href="#DejaVuSans-63" transform="translate(821.375 0)"/>
      <use xlink:href="#DejaVuSans-29" transform="translate(876.355469 0)"/>
     </g>
    </g>
    <g id="line2d_27">
     <path d="M 58.311563 54.495625 
L 66.311563 54.495625 
L 74.311563 54.495625 
" style="fill: none; stroke-dasharray: 5.55,2.4; stroke-dashoffset: 0; stroke: #ff0000; stroke-width: 1.5"/>
    </g>
    <g id="text_23">
     <!-- Pe = 1 threshold -->
     <g transform="translate(80.711563 57.295625) scale(0.08 -0.08)">
      <use xlink:href="#DejaVuSans-50"/>
      <use xlink:href="#DejaVuSans-65" transform="translate(56.677734 0)"/>
      <use xlink:href="#DejaVuSans-20" transform="translate(118.201172 0)"/>
      <use xlink:href="#DejaVuSans-3d" transform="translate(149.988281 0)"/>
      <use xlink:href="#DejaVuSans-20" transform="translate(233.777344 0)"/>
      <use xlink:href="#DejaVuSans-31" transform="translate(265.564453 0)"/>
      <use xlink:href="#DejaVuSans-20" transform="translate(329.1875 0)"/>
      <use xlink:href="#DejaVuSans-74" transform="translate(360.974609 0)"/>
      <use xlink:href="#DejaVuSans-68" transform="translate(400.183594 0)"/>
      <use xlink:href="#DejaVuSans-72" transform="translate(463.5625 0)"/>
      <use xlink:href="#DejaVuSans-65" transform="translate(502.425781 0)"/>
      <use xlink:href="#DejaVuSans-73" transform="translate(563.949219 0)"/>
      <use xlink:href="#DejaVuSans-68" transform="translate(616.048828 0)"/>
      <use xlink:href="#DejaVuSans-6f" transform="translate(679.427734 0)"/>
      <use xlink:href="#DejaVuSans-6c" transform="translate(740.609375 0)"/>
      <use xlink:href="#DejaVuSans-64" transform="translate(768.392578 0)"/>
     </g>
    </g>
    <g id="line2d_28">
     <path d="M 58.311563 66.238125 
L 66.311563 66.238125 
L 74.311563 66.238125 
" style="fill: none; stroke-dasharray: 1,1.65; stroke-dashoffset: 0; stroke: #ff0000; stroke-opacity: 0.7"/>
    </g>
    <g id="text_24">
     <!-- c_crit = 0.3727 -->
     <g transform="translate(80.711563 69.038125) scale(0.08 -0.08)">
      <defs>
       <path id="DejaVuSans-5f" d="M 3263 -1063 
L 3263 -1509 
L -63 -1509 
L -63 -1063 
L 3263 -1063 
z
" transform="scale(0.015625)"/>
      </defs>
      <use xlink:href="#DejaVuSans-63"/>
      <use xlink:href="#DejaVuSans-5f" transform="translate(54.980469 0)"/>
      <use xlink:href="#DejaVuSans-63" transform="translate(104.980469 0)"/>
      <use xlink:href="#DejaVuSans-72" transform="translate(159.960938 0)"/>
      <use xlink:href="#DejaVuSans-69" transform="translate(201.074219 0)"/>
      <use xlink:href="#DejaVuSans-74" transform="translate(228.857422 0)"/>
      <use xlink:href="#DejaVuSans-20" transform="translate(268.066406 0)"/>
      <use xlink:href="#DejaVuSans-3d" transform="translate(299.853516 0)"/>
      <use xlink:href="#DejaVuSans-20" transform="translate(383.642578 0)"/>
      <use xlink:href="#DejaVuSans-30" transform="translate(415.429688 0)"/>
      <use xlink:href="#DejaVuSans-2e" transform="translate(479.052734 0)"/>
      <use xlink:href="#DejaVuSans-33" transform="translate(510.839844 0)"/>
      <use xlink:href="#DejaVuSans-37" transform="translate(574.462891 0)"/>
      <use xlink:href="#DejaVuSans-32" transform="translate(638.085938 0)"/>
      <use xlink:href="#DejaVuSans-37" transform="translate(701.708984 0)"/>
     </g>
    </g>
    <g id="line2d_29">
     <path d="M 58.311563 78.203125 
L 66.311563 78.203125 
L 74.311563 78.203125 
" style="fill: none; stroke: #41049d; stroke-width: 2; stroke-linecap: square"/>
    </g>
    <g id="text_25">
     <!-- Network Pe_peripheral  J=0.05 -->
     <g transform="translate(80.711563 81.003125) scale(0.08 -0.08)">
      <defs>
       <path id="DejaVuSans-77" d="M 269 3500 
L 844 3500 
L 1563 769 
L 2278 3500 
L 2956 3500 
L 3675 769 
L 4391 3500 
L 4966 3500 
L 4050 0 
L 3372 0 
L 2619 2869 
L 1863 0 
L 1184 0 
L 269 3500 
z
" transform="scale(0.015625)"/>
       <path id="DejaVuSans-6b" d="M 581 4863 
L 1159 4863 
L 1159 1991 
L 2875 3500 
L 3609 3500 
L 1753 1863 
L 3688 0 
L 2938 0 
L 1159 1709 
L 1159 0 
L 581 0 
L 581 4863 
z
" transform="scale(0.015625)"/>
       <path id="DejaVuSans-4a" d="M 628 4666 
L 1259 4666 
L 1259 325 
Q 1259 -519 939 -900 
Q 619 -1281 -91 -1281 
L -331 -1281 
L -331 -750 
L -134 -750 
Q 284 -750 456 -515 
Q 628 -281 628 325 
L 628 4666 
z
" transform="scale(0.015625)"/>
      </defs>
      <use xlink:href="#DejaVuSans-4e"/>
      <use xlink:href="#DejaVuSans-65" transform="translate(74.804688 0)"/>
      <use xlink:href="#DejaVuSans-74" transform="translate(136.328125 0)"/>
      <use xlink:href="#DejaVuSans-77" transform="translate(175.537109 0)"/>
      <use xlink:href="#DejaVuSans-6f" transform="translate(257.324219 0)"/>
      <use xlink:href="#DejaVuSans-72" transform="translate(318.505859 0)"/>
      <use xlink:href="#DejaVuSans-6b" transform="translate(359.619141 0)"/>
      <use xlink:href="#DejaVuSans-20" transform="translate(417.529297 0)"/>
      <use xlink:href="#DejaVuSans-50" transform="translate(449.316406 0)"/>
      <use xlink:href="#DejaVuSans-65" transform="translate(505.994141 0)"/>
      <use xlink:href="#DejaVuSans-5f" transform="translate(567.517578 0)"/>
      <use xlink:href="#DejaVuSans-70" transform="translate(617.517578 0)"/>
      <use xlink:href="#DejaVuSans-65" transform="translate(680.994141 0)"/>
      <use xlink:href="#DejaVuSans-72" transform="translate(742.517578 0)"/>
      <use xlink:href="#DejaVuSans-69" transform="translate(783.630859 0)"/>
      <use xlink:href="#DejaVuSans-70" transform="translate(811.414062 0)"/>
      <use xlink:href="#DejaVuSans-68" transform="translate(874.890625 0)"/>
      <use xlink:href="#DejaVuSans-65" transform="translate(938.269531 0)"/>
      <use xlink:href="#DejaVuSans-72" transform="translate(999.792969 0)"/>
      <use xlink:href="#DejaVuSans-61" transform="translate(1040.90625 0)"/>
      <use xlink:href="#DejaVuSans-6c" transform="translate(1102.185547 0)"/>
      <use xlink:href="#DejaVuSans-20" transform="translate(1129.96875 0)"/>
      <use xlink:href="#DejaVuSans-20" transform="translate(1161.755859 0)"/>
      <use xlink:href="#DejaVuSans-4a" transform="translate(1193.542969 0)"/>
      <use xlink:href="#DejaVuSans-3d" transform="translate(1223.035156 0)"/>
      <use xlink:href="#DejaVuSans-30" transform="translate(1306.824219 0)"/>
      <use xlink:href="#DejaVuSans-2e" transform="translate(1370.447266 0)"/>
      <use xlink:href="#DejaVuSans-30" transform="translate(1402.234375 0)"/>
      <use xlink:href="#DejaVuSans-35" transform="translate(1465.857422 0)"/>
     </g>
    </g>
    <g id="line2d_30">
     <path d="M 58.311563 90.168125 
L 66.311563 90.168125 
L 74.311563 90.168125 
" style="fill: none; stroke: #a62098; stroke-width: 2; stroke-linecap: square"/>
    </g>
    <g id="text_26">
     <!-- Network Pe_peripheral  J=0.10 -->
     <g transform="translate(80.711563 92.968125) scale(0.08 -0.08)">
      <use xlink:href="#DejaVuSans-4e"/>
      <use xlink:href="#DejaVuSans-65" transform="translate(74.804688 0)"/>
      <use xlink:href="#DejaVuSans-74" transform="translate(136.328125 0)"/>
      <use xlink:href="#DejaVuSans-77" transform="translate(175.537109 0)"/>
      <use xlink:href="#DejaVuSans-6f" transform="translate(257.324219 0)"/>
      <use xlink:href="#DejaVuSans-72" transform="translate(318.505859 0)"/>
      <use xlink:href="#DejaVuSans-6b" transform="translate(359.619141 0)"/>
      <use xlink:href="#DejaVuSans-20" transform="translate(417.529297 0)"/>
      <use xlink:href="#DejaVuSans-50" transform="translate(449.316406 0)"/>
      <use xlink:href="#DejaVuSans-65" transform="translate(505.994141 0)"/>
      <use xlink:href="#DejaVuSans-5f" transform="translate(567.517578 0)"/>
      <use xlink:href="#DejaVuSans-70" transform="translate(617.517578 0)"/>
      <use xlink:href="#DejaVuSans-65" transform="translate(680.994141 0)"/>
      <use xlink:href="#DejaVuSans-72" transform="translate(742.517578 0)"/>
      <use xlink:href="#DejaVuSans-69" transform="translate(783.630859 0)"/>
      <use xlink:href="#DejaVuSans-70" transform="translate(811.414062 0)"/>
      <use xlink:href="#DejaVuSans-68" transform="translate(874.890625 0)"/>
      <use xlink:href="#DejaVuSans-65" transform="translate(938.269531 0)"/>
      <use xlink:href="#DejaVuSans-72" transform="translate(999.792969 0)"/>
      <use xlink:href="#DejaVuSans-61" transform="translate(1040.90625 0)"/>
      <use xlink:href="#DejaVuSans-6c" transform="translate(1102.185547 0)"/>
      <use xlink:href="#DejaVuSans-20" transform="translate(1129.96875 0)"/>
      <use xlink:href="#DejaVuSans-20" transform="translate(1161.755859 0)"/>
      <use xlink:href="#DejaVuSans-4a" transform="translate(1193.542969 0)"/>
      <use xlink:href="#DejaVuSans-3d" transform="translate(1223.035156 0)"/>
      <use xlink:href="#DejaVuSans-30" transform="translate(1306.824219 0)"/>
      <use xlink:href="#DejaVuSans-2e" transform="translate(1370.447266 0)"/>
      <use xlink:href="#DejaVuSans-31" transform="translate(1402.234375 0)"/>
      <use xlink:href="#DejaVuSans-30" transform="translate(1465.857422 0)"/>
     </g>
    </g>
    <g id="line2d_31">
     <path d="M 58.311563 102.133125 
L 66.311563 102.133125 
L 74.311563 102.133125 
" style="fill: none; stroke: #e76f5a; stroke-width: 2; stroke-linecap: square"/>
    </g>
    <g id="text_27">
     <!-- Network Pe_peripheral  J=0.20 -->
     <g transform="translate(80.711563 104.933125) scale(0.08 -0.08)">
      <use xlink:href="#DejaVuSans-4e"/>
      <use xlink:href="#DejaVuSans-65" transform="translate(74.804688 0)"/>
      <use xlink:href="#DejaVuSans-74" transform="translate(136.328125 0)"/>
      <use xlink:href="#DejaVuSans-77" transform="translate(175.537109 0)"/>
      <use xlink:href="#DejaVuSans-6f" transform="translate(257.324219 0)"/>
      <use xlink:href="#DejaVuSans-72" transform="translate(318.505859 0)"/>
      <use xlink:href="#DejaVuSans-6b" transform="translate(359.619141 0)"/>
      <use xlink:href="#DejaVuSans-20" transform="translate(417.529297 0)"/>
      <use xlink:href="#DejaVuSans-50" transform="translate(449.316406 0)"/>
      <use xlink:href="#DejaVuSans-65" transform="translate(505.994141 0)"/>
      <use xlink:href="#DejaVuSans-5f" transform="translate(567.517578 0)"/>
      <use xlink:href="#DejaVuSans-70" transform="translate(617.517578 0)"/>
      <use xlink:href="#DejaVuSans-65" transform="translate(680.994141 0)"/>
      <use xlink:href="#DejaVuSans-72" transform="translate(742.517578 0)"/>
      <use xlink:href="#DejaVuSans-69" transform="translate(783.630859 0)"/>
      <use xlink:href="#DejaVuSans-70" transform="translate(811.414062 0)"/>
      <use xlink:href="#DejaVuSans-68" transform="translate(874.890625 0)"/>
      <use xlink:href="#DejaVuSans-65" transform="translate(938.269531 0)"/>
      <use xlink:href="#DejaVuSans-72" transform="translate(999.792969 0)"/>
      <use xlink:href="#DejaVuSans-61" transform="translate(1040.90625 0)"/>
      <use xlink:href="#DejaVuSans-6c" transform="translate(1102.185547 0)"/>
      <use xlink:href="#DejaVuSans-20" transform="translate(1129.96875 0)"/>
      <use xlink:href="#DejaVuSans-20" transform="translate(1161.755859 0)"/>
      <use xlink:href="#DejaVuSans-4a" transform="translate(1193.542969 0)"/>
      <use xlink:href="#DejaVuSans-3d" transform="translate(1223.035156 0)"/>
      <use xlink:href="#DejaVuSans-30" transform="translate(1306.824219 0)"/>
      <use xlink:href="#DejaVuSans-2e" transform="translate(1370.447266 0)"/>
      <use xlink:href="#DejaVuSans-32" transform="translate(1402.234375 0)"/>
      <use xlink:href="#DejaVuSans-30" transform="translate(1465.857422 0)"/>
     </g>
    </g>
    <g id="line2d_32">
     <path d="M 58.311563 114.098125 
L 66.311563 114.098125 
L 74.311563 114.098125 
" style="fill: none; stroke: #fcce25; stroke-width: 2; stroke-linecap: square"/>
    </g>
    <g id="text_28">
     <!-- Network Pe_peripheral  J=0.30 -->
     <g transform="translate(80.711563 116.898125) scale(0.08 -0.08)">
      <use xlink:href="#DejaVuSans-4e"/>
      <use xlink:href="#DejaVuSans-65" transform="translate(74.804688 0)"/>
      <use xlink:href="#DejaVuSans-74" transform="translate(136.328125 0)"/>
      <use xlink:href="#DejaVuSans-77" transform="translate(175.537109 0)"/>
      <use xlink:href="#DejaVuSans-6f" transform="translate(257.324219 0)"/>
      <use xlink:href="#DejaVuSans-72" transform="translate(318.505859 0)"/>
      <use xlink:href="#DejaVuSans-6b" transform="translate(359.619141 0)"/>
      <use xlink:href="#DejaVuSans-20" transform="translate(417.529297 0)"/>
      <use xlink:href="#DejaVuSans-50" transform="translate(449.316406 0)"/>
      <use xlink:href="#DejaVuSans-65" transform="translate(505.994141 0)"/>
      <use xlink:href="#DejaVuSans-5f" transform="translate(567.517578 0)"/>
      <use xlink:href="#DejaVuSans-70" transform="translate(617.517578 0)"/>
      <use xlink:href="#DejaVuSans-65" transform="translate(680.994141 0)"/>
      <use xlink:href="#DejaVuSans-72" transform="translate(742.517578 0)"/>
      <use xlink:href="#DejaVuSans-69" transform="translate(783.630859 0)"/>
      <use xlink:href="#DejaVuSans-70" transform="translate(811.414062 0)"/>
      <use xlink:href="#DejaVuSans-68" transform="translate(874.890625 0)"/>
      <use xlink:href="#DejaVuSans-65" transform="translate(938.269531 0)"/>
      <use xlink:href="#DejaVuSans-72" transform="translate(999.792969 0)"/>
      <use xlink:href="#DejaVuSans-61" transform="translate(1040.90625 0)"/>
      <use xlink:href="#DejaVuSans-6c" transform="translate(1102.185547 0)"/>
      <use xlink:href="#DejaVuSans-20" transform="translate(1129.96875 0)"/>
      <use xlink:href="#DejaVuSans-20" transform="translate(1161.755859 0)"/>
      <use xlink:href="#DejaVuSans-4a" transform="translate(1193.542969 0)"/>
      <use xlink:href="#DejaVuSans-3d" transform="translate(1223.035156 0)"/>
      <use xlink:href="#DejaVuSans-30" transform="translate(1306.824219 0)"/>
      <use xlink:href="#DejaVuSans-2e" transform="translate(1370.447266 0)"/>
      <use xlink:href="#DejaVuSans-33" transform="translate(1402.234375 0)"/>
      <use xlink:href="#DejaVuSans-30" transform="translate(1465.857422 0)"/>
     </g>
    </g>
   </g>
  </g>
  <g id="axes_2">
   <g id="patch_8">
    <path d="M 554.046188 382.229125 
L 993.571563 382.229125 
L 993.571563 32.274375 
L 554.046188 32.274375 
z
" style="fill: #ffffff"/>
   </g>
   <g id="patch_9">
    <path d="M 574.024614 382.229125 
L 658.144303 382.229125 
L 658.144303 334.064199 
L 574.024614 334.064199 
z
" clip-path="url(#pe55e408f58)" style="fill: #41049d; stroke: #000000; stroke-width: 0.8; stroke-linejoin: miter"/>
   </g>
   <g id="patch_10">
    <path d="M 679.174225 382.229125 
L 763.293914 382.229125 
L 763.293914 282.477187 
L 679.174225 282.477187 
z
" clip-path="url(#pe55e408f58)" style="fill: #a62098; stroke: #000000; stroke-width: 0.8; stroke-linejoin: miter"/>
   </g>
   <g id="patch_11">
    <path d="M 784.323836 382.229125 
L 868.443525 382.229125 
L 868.443525 172.225784 
L 784.323836 172.225784 
z
" clip-path="url(#pe55e408f58)" style="fill: #e76f5a; stroke: #000000; stroke-width: 0.8; stroke-linejoin: miter"/>
   </g>
   <g id="patch_12">
    <path d="M 889.473447 382.229125 
L 973.593136 382.229125 
L 973.593136 48.938887 
L 889.473447 48.938887 
z
" clip-path="url(#pe55e408f58)" style="fill: #fcce25; stroke: #000000; stroke-width: 0.8; stroke-linejoin: miter"/>
   </g>
   <g id="matplotlib.axis_3">
    <g id="xtick_10">
     <g id="line2d_33">
      <g>
       <use xlink:href="#m26d9aeaa55" x="616.084458" y="382.229125" style="stroke: #000000; stroke-width: 0.8"/>
      </g>
     </g>
     <g id="text_29">
      <!-- 0.05 -->
      <g transform="translate(604.951646 396.827562) scale(0.1 -0.1)">
       <use xlink:href="#DejaVuSans-30"/>
       <use xlink:href="#DejaVuSans-2e" transform="translate(63.623047 0)"/>
       <use xlink:href="#DejaVuSans-30" transform="translate(95.410156 0)"/>
       <use xlink:href="#DejaVuSans-35" transform="translate(159.033203 0)"/>
      </g>
     </g>
    </g>
    <g id="xtick_11">
     <g id="line2d_34">
      <g>
       <use xlink:href="#m26d9aeaa55" x="721.234069" y="382.229125" style="stroke: #000000; stroke-width: 0.8"/>
      </g>
     </g>
     <g id="text_30">
      <!-- 0.1 -->
      <g transform="translate(713.282507 396.827562) scale(0.1 -0.1)">
       <use xlink:href="#DejaVuSans-30"/>
       <use xlink:href="#DejaVuSans-2e" transform="translate(63.623047 0)"/>
       <use xlink:href="#DejaVuSans-31" transform="translate(95.410156 0)"/>
      </g>
     </g>
    </g>
    <g id="xtick_12">
     <g id="line2d_35">
      <g>
       <use xlink:href="#m26d9aeaa55" x="826.383681" y="382.229125" style="stroke: #000000; stroke-width: 0.8"/>
      </g>
     </g>
     <g id="text_31">
      <!-- 0.2 -->
      <g transform="translate(818.432118 396.827562) scale(0.1 -0.1)">
       <use xlink:href="#DejaVuSans-30"/>
       <use xlink:href="#DejaVuSans-2e" transform="translate(63.623047 0)"/>
       <use xlink:href="#DejaVuSans-32" transform="translate(95.410156 0)"/>
      </g>
     </g>
    </g>
    <g id="xtick_13">
     <g id="line2d_36">
      <g>
       <use xlink:href="#m26d9aeaa55" x="931.533292" y="382.229125" style="stroke: #000000; stroke-width: 0.8"/>
      </g>
     </g>
     <g id="text_32">
      <!-- 0.3 -->
      <g transform="translate(923.581729 396.827562) scale(0.1 -0.1)">
       <use xlink:href="#DejaVuSans-30"/>
       <use xlink:href="#DejaVuSans-2e" transform="translate(63.623047 0)"/>
       <use xlink:href="#DejaVuSans-33" transform="translate(95.410156 0)"/>
      </g>
     </g>
    </g>
    <g id="text_33">
     <!-- Hub-to-peripheral coupling J -->
     <g transform="translate(696.398094 411.265531) scale(0.11 -0.11)">
      <use xlink:href="#DejaVuSans-48"/>
      <use xlink:href="#DejaVuSans-75" transform="translate(75.195312 0)"/>
      <use xlink:href="#DejaVuSans-62" transform="translate(138.574219 0)"/>
      <use xlink:href="#DejaVuSans-2d" transform="translate(202.050781 0)"/>
      <use xlink:href="#DejaVuSans-74" transform="translate(238.134766 0)"/>
      <use xlink:href="#DejaVuSans-6f" transform="translate(277.34375 0)"/>
      <use xlink:href="#DejaVuSans-2d" transform="translate(340.400391 0)"/>
      <use xlink:href="#DejaVuSans-70" transform="translate(376.484375 0)"/>
      <use xlink:href="#DejaVuSans-65" transform="translate(439.960938 0)"/>
      <use xlink:href="#DejaVuSans-72" transform="translate(501.484375 0)"/>
      <use xlink:href="#DejaVuSans-69" transform="translate(542.597656 0)"/>
      <use xlink:href="#DejaVuSans-70" transform="translate(570.380859 0)"/>
      <use xlink:href="#DejaVuSans-68" transform="translate(633.857422 0)"/>
      <use xlink:href="#DejaVuSans-65" transform="translate(697.236328 0)"/>
      <use xlink:href="#DejaVuSans-72" transform="translate(758.759766 0)"/>
      <use xlink:href="#DejaVuSans-61" transform="translate(799.873047 0)"/>
      <use xlink:href="#DejaVuSans-6c" transform="translate(861.152344 0)"/>
      <use xlink:href="#DejaVuSans-20" transform="translate(888.935547 0)"/>
      <use xlink:href="#DejaVuSans-63" transform="translate(920.722656 0)"/>
      <use xlink:href="#DejaVuSans-6f" transform="translate(975.703125 0)"/>
      <use xlink:href="#DejaVuSans-75" transform="translate(1036.884766 0)"/>
      <use xlink:href="#DejaVuSans-70" transform="translate(1100.263672 0)"/>
      <use xlink:href="#DejaVuSans-6c" transform="translate(1163.740234 0)"/>
      <use xlink:href="#DejaVuSans-69" transform="translate(1191.523438 0)"/>
      <use xlink:href="#DejaVuSans-6e" transform="translate(1219.306641 0)"/>
      <use xlink:href="#DejaVuSans-67" transform="translate(1282.685547 0)"/>
      <use xlink:href="#DejaVuSans-20" transform="translate(1346.162109 0)"/>
      <use xlink:href="#DejaVuSans-4a" transform="translate(1377.949219 0)"/>
     </g>
    </g>
   </g>
   <g id="matplotlib.axis_4">
    <g id="ytick_10">
     <g id="line2d_37">
      <g>
       <use xlink:href="#m497ae88e27" x="554.046188" y="382.229125" style="stroke: #000000; stroke-width: 0.8"/>
      </g>
     </g>
     <g id="text_34">
      <!-- 0 -->
      <g transform="translate(540.683688 386.028344) scale(0.1 -0.1)">
       <use xlink:href="#DejaVuSans-30"/>
      </g>
     </g>
    </g>
    <g id="ytick_11">
     <g id="line2d_38">
      <g>
       <use xlink:href="#m497ae88e27" x="554.046188" y="343.116479" style="stroke: #000000; stroke-width: 0.8"/>
      </g>
     </g>
     <g id="text_35">
      <!-- 1 -->
      <g transform="translate(540.683688 346.915697) scale(0.1 -0.1)">
       <use xlink:href="#DejaVuSans-31"/>
      </g>
     </g>
    </g>
    <g id="ytick_12">
     <g id="line2d_39">
      <g>
       <use xlink:href="#m497ae88e27" x="554.046188" y="304.003832" style="stroke: #000000; stroke-width: 0.8"/>
      </g>
     </g>
     <g id="text_36">
      <!-- 2 -->
      <g transform="translate(540.683688 307.803051) scale(0.1 -0.1)">
       <use xlink:href="#DejaVuSans-32"/>
      </g>
     </g>
    </g>
    <g id="ytick_13">
     <g id="line2d_40">
      <g>
       <use xlink:href="#m497ae88e27" x="554.046188" y="264.891186" style="stroke: #000000; stroke-width: 0.8"/>
      </g>
     </g>
     <g id="text_37">
      <!-- 3 -->
      <g transform="translate(540.683688 268.690405) scale(0.1 -0.1)">
       <use xlink:href="#DejaVuSans-33"/>
      </g>
     </g>
    </g>
    <g id="ytick_14">
     <g id="line2d_41">
      <g>
       <use xlink:href="#m497ae88e27" x="554.046188" y="225.77854" style="stroke: #000000; stroke-width: 0.8"/>
      </g>
     </g>
     <g id="text_38">
      <!-- 4 -->
      <g transform="translate(540.683688 229.577758) scale(0.1 -0.1)">
       <use xlink:href="#DejaVuSans-34"/>
      </g>
     </g>
    </g>
    <g id="ytick_15">
     <g id="line2d_42">
      <g>
       <use xlink:href="#m497ae88e27" x="554.046188" y="186.665893" style="stroke: #000000; stroke-width: 0.8"/>
      </g>
     </g>
     <g id="text_39">
      <!-- 5 -->
      <g transform="translate(540.683688 190.465112) scale(0.1 -0.1)">
       <use xlink:href="#DejaVuSans-35"/>
      </g>
     </g>
    </g>
    <g id="ytick_16">
     <g id="line2d_43">
      <g>
       <use xlink:href="#m497ae88e27" x="554.046188" y="147.553247" style="stroke: #000000; stroke-width: 0.8"/>
      </g>
     </g>
     <g id="text_40">
      <!-- 6 -->
      <g transform="translate(540.683688 151.352466) scale(0.1 -0.1)">
       <use xlink:href="#DejaVuSans-36"/>
      </g>
     </g>
    </g>
    <g id="ytick_17">
     <g id="line2d_44">
      <g>
       <use xlink:href="#m497ae88e27" x="554.046188" y="108.4406" style="stroke: #000000; stroke-width: 0.8"/>
      </g>
     </g>
     <g id="text_41">
      <!-- 7 -->
      <g transform="translate(540.683688 112.239819) scale(0.1 -0.1)">
       <use xlink:href="#DejaVuSans-37"/>
      </g>
     </g>
    </g>
    <g id="ytick_18">
     <g id="line2d_45">
      <g>
       <use xlink:href="#m497ae88e27" x="554.046188" y="69.327954" style="stroke: #000000; stroke-width: 0.8"/>
      </g>
     </g>
     <g id="text_42">
      <!-- 8 -->
      <g transform="translate(540.683688 73.127173) scale(0.1 -0.1)">
       <use xlink:href="#DejaVuSans-38"/>
      </g>
     </g>
    </g>
    <g id="text_43">
     <!-- Pe lift above threshold -->
     <g transform="translate(521.7725 268.814797) rotate(-90) scale(0.11 -0.11)">
      <defs>
       <path id="DejaVuSans-66" d="M 2375 4863 
L 2375 4384 
L 1825 4384 
Q 1516 4384 1395 4259 
Q 1275 4134 1275 3809 
L 1275 3500 
L 2222 3500 
L 2222 3053 
L 1275 3053 
L 1275 0 
L 697 0 
L 697 3053 
L 147 3053 
L 147 3500 
L 697 3500 
L 697 3744 
Q 697 4328 969 4595 
Q 1241 4863 1831 4863 
L 2375 4863 
z
" transform="scale(0.015625)"/>
      </defs>
      <use xlink:href="#DejaVuSans-50"/>
      <use xlink:href="#DejaVuSans-65" transform="translate(56.677734 0)"/>
      <use xlink:href="#DejaVuSans-20" transform="translate(118.201172 0)"/>
      <use xlink:href="#DejaVuSans-6c" transform="translate(149.988281 0)"/>
      <use xlink:href="#DejaVuSans-69" transform="translate(177.771484 0)"/>
      <use xlink:href="#DejaVuSans-66" transform="translate(205.554688 0)"/>
      <use xlink:href="#DejaVuSans-74" transform="translate(239.009766 0)"/>
      <use xlink:href="#DejaVuSans-20" transform="translate(278.21875 0)"/>
      <use xlink:href="#DejaVuSans-61" transform="translate(310.005859 0)"/>
      <use xlink:href="#DejaVuSans-62" transform="translate(371.285156 0)"/>
      <use xlink:href="#DejaVuSans-6f" transform="translate(434.761719 0)"/>
      <use xlink:href="#DejaVuSans-76" transform="translate(495.943359 0)"/>
      <use xlink:href="#DejaVuSans-65" transform="translate(555.123047 0)"/>
      <use xlink:href="#DejaVuSans-20" transform="translate(616.646484 0)"/>
      <use xlink:href="#DejaVuSans-74" transform="translate(648.433594 0)"/>
      <use xlink:href="#DejaVuSans-68" transform="translate(687.642578 0)"/>
      <use xlink:href="#DejaVuSans-72" transform="translate(751.021484 0)"/>
      <use xlink:href="#DejaVuSans-65" transform="translate(789.884766 0)"/>
      <use xlink:href="#DejaVuSans-73" transform="translate(851.408203 0)"/>
      <use xlink:href="#DejaVuSans-68" transform="translate(903.507812 0)"/>
      <use xlink:href="#DejaVuSans-6f" transform="translate(966.886719 0)"/>
      <use xlink:href="#DejaVuSans-6c" transform="translate(1028.068359 0)"/>
      <use xlink:href="#DejaVuSans-64" transform="translate(1055.851562 0)"/>
     </g>
     <!-- (at c_per = c_crit) -->
     <g transform="translate(534.090094 256.577297) rotate(-90) scale(0.11 -0.11)">
      <use xlink:href="#DejaVuSans-28"/>
      <use xlink:href="#DejaVuSans-61" transform="translate(39.013672 0)"/>
      <use xlink:href="#DejaVuSans-74" transform="translate(100.292969 0)"/>
      <use xlink:href="#DejaVuSans-20" transform="translate(139.501953 0)"/>
      <use xlink:href="#DejaVuSans-63" transform="translate(171.289062 0)"/>
      <use xlink:href="#DejaVuSans-5f" transform="translate(226.269531 0)"/>
      <use xlink:href="#DejaVuSans-70" transform="translate(276.269531 0)"/>
      <use xlink:href="#DejaVuSans-65" transform="translate(339.746094 0)"/>
      <use xlink:href="#DejaVuSans-72" transform="translate(401.269531 0)"/>
      <use xlink:href="#DejaVuSans-20" transform="translate(442.382812 0)"/>
      <use xlink:href="#DejaVuSans-3d" transform="translate(474.169922 0)"/>
      <use xlink:href="#DejaVuSans-20" transform="translate(557.958984 0)"/>
      <use xlink:href="#DejaVuSans-63" transform="translate(589.746094 0)"/>
      <use xlink:href="#DejaVuSans-5f" transform="translate(644.726562 0)"/>
      <use xlink:href="#DejaVuSans-63" transform="translate(694.726562 0)"/>
      <use xlink:href="#DejaVuSans-72" transform="translate(749.707031 0)"/>
      <use xlink:href="#DejaVuSans-69" transform="translate(790.820312 0)"/>
      <use xlink:href="#DejaVuSans-74" transform="translate(818.603516 0)"/>
      <use xlink:href="#DejaVuSans-29" transform="translate(857.8125 0)"/>
     </g>
    </g>
   </g>
   <g id="line2d_46">
    <path d="M 554.046188 382.229125 
L 993.571563 382.229125 
" clip-path="url(#pe55e408f58)" style="fill: none; stroke-dasharray: 5.55,2.4; stroke-dashoffset: 0; stroke: #ff0000; stroke-width: 1.5"/>
   </g>
   <g id="patch_13">
    <path d="M 554.046188 382.229125 
L 554.046188 32.274375 
" style="fill: none; stroke: #000000; stroke-width: 0.8; stroke-linejoin: miter; stroke-linecap: square"/>
   </g>
   <g id="patch_14">
    <path d="M 993.571563 382.229125 
L 993.571563 32.274375 
" style="fill: none; stroke: #000000; stroke-width: 0.8; stroke-linejoin: miter; stroke-linecap: square"/>
   </g>
   <g id="patch_15">
    <path d="M 554.046188 382.229125 
L 993.571563 382.229125 
" style="fill: none; stroke: #000000; stroke-width: 0.8; stroke-linejoin: miter; stroke-linecap: square"/>
   </g>
   <g id="patch_16">
    <path d="M 554.046188 32.274375 
L 993.571563 32.274375 
" style="fill: none; stroke: #000000; stroke-width: 0.8; stroke-linejoin: miter; stroke-linecap: square"/>
   </g>
   <g id="text_44">
    <!-- +1.2 -->
    <g transform="translate(603.037583 330.028879) scale(0.1 -0.1)">
     <defs>
      <path id="DejaVuSans-Bold-2b" d="M 3053 4013 
L 3053 2375 
L 4684 2375 
L 4684 1638 
L 3053 1638 
L 3053 0 
L 2309 0 
L 2309 1638 
L 678 1638 
L 678 2375 
L 2309 2375 
L 2309 4013 
L 3053 4013 
z
" transform="scale(0.015625)"/>
      <path id="DejaVuSans-Bold-31" d="M 750 831 
L 1813 831 
L 1813 3847 
L 722 3622 
L 722 4441 
L 1806 4666 
L 2950 4666 
L 2950 831 
L 4013 831 
L 4013 0 
L 750 0 
L 750 831 
z
" transform="scale(0.015625)"/>
      <path id="DejaVuSans-Bold-2e" d="M 653 1209 
L 1778 1209 
L 1778 0 
L 653 0 
L 653 1209 
z
" transform="scale(0.015625)"/>
      <path id="DejaVuSans-Bold-32" d="M 1844 884 
L 3897 884 
L 3897 0 
L 506 0 
L 506 884 
L 2209 2388 
Q 2438 2594 2547 2791 
Q 2656 2988 2656 3200 
Q 2656 3528 2436 3728 
Q 2216 3928 1850 3928 
Q 1569 3928 1234 3808 
Q 900 3688 519 3450 
L 519 4475 
Q 925 4609 1322 4679 
Q 1719 4750 2100 4750 
Q 2938 4750 3402 4381 
Q 3866 4013 3866 3353 
Q 3866 2972 3669 2642 
Q 3472 2313 2841 1759 
L 1844 884 
z
" transform="scale(0.015625)"/>
     </defs>
     <use xlink:href="#DejaVuSans-Bold-2b"/>
     <use xlink:href="#DejaVuSans-Bold-31" transform="translate(83.789062 0)"/>
     <use xlink:href="#DejaVuSans-Bold-2e" transform="translate(153.369141 0)"/>
     <use xlink:href="#DejaVuSans-Bold-32" transform="translate(191.357422 0)"/>
    </g>
   </g>
   <g id="text_45">
    <!-- +2.6 -->
    <g transform="translate(708.187194 278.441867) scale(0.1 -0.1)">
     <defs>
      <path id="DejaVuSans-Bold-36" d="M 2316 2303 
Q 2000 2303 1842 2098 
Q 1684 1894 1684 1484 
Q 1684 1075 1842 870 
Q 2000 666 2316 666 
Q 2634 666 2792 870 
Q 2950 1075 2950 1484 
Q 2950 1894 2792 2098 
Q 2634 2303 2316 2303 
z
M 3803 4544 
L 3803 3681 
Q 3506 3822 3243 3889 
Q 2981 3956 2731 3956 
Q 2194 3956 1894 3657 
Q 1594 3359 1544 2772 
Q 1750 2925 1990 3001 
Q 2231 3078 2516 3078 
Q 3231 3078 3670 2659 
Q 4109 2241 4109 1563 
Q 4109 813 3618 361 
Q 3128 -91 2303 -91 
Q 1394 -91 895 523 
Q 397 1138 397 2266 
Q 397 3422 980 4083 
Q 1563 4744 2578 4744 
Q 2900 4744 3203 4694 
Q 3506 4644 3803 4544 
z
" transform="scale(0.015625)"/>
     </defs>
     <use xlink:href="#DejaVuSans-Bold-2b"/>
     <use xlink:href="#DejaVuSans-Bold-32" transform="translate(83.789062 0)"/>
     <use xlink:href="#DejaVuSans-Bold-2e" transform="translate(153.369141 0)"/>
     <use xlink:href="#DejaVuSans-Bold-36" transform="translate(191.357422 0)"/>
    </g>
   </g>
   <g id="text_46">
    <!-- +5.4 -->
    <g transform="translate(813.336806 168.190465) scale(0.1 -0.1)">
     <defs>
      <path id="DejaVuSans-Bold-35" d="M 678 4666 
L 3669 4666 
L 3669 3781 
L 1638 3781 
L 1638 3059 
Q 1775 3097 1914 3117 
Q 2053 3138 2203 3138 
Q 3056 3138 3531 2711 
Q 4006 2284 4006 1522 
Q 4006 766 3489 337 
Q 2972 -91 2053 -91 
Q 1656 -91 1267 -14 
Q 878 63 494 219 
L 494 1166 
Q 875 947 1217 837 
Q 1559 728 1863 728 
Q 2300 728 2551 942 
Q 2803 1156 2803 1522 
Q 2803 1891 2551 2103 
Q 2300 2316 1863 2316 
Q 1603 2316 1309 2248 
Q 1016 2181 678 2041 
L 678 4666 
z
" transform="scale(0.015625)"/>
      <path id="DejaVuSans-Bold-34" d="M 2356 3675 
L 1038 1722 
L 2356 1722 
L 2356 3675 
z
M 2156 4666 
L 3494 4666 
L 3494 1722 
L 4159 1722 
L 4159 850 
L 3494 850 
L 3494 0 
L 2356 0 
L 2356 850 
L 288 850 
L 288 1881 
L 2156 4666 
z
" transform="scale(0.015625)"/>
     </defs>
     <use xlink:href="#DejaVuSans-Bold-2b"/>
     <use xlink:href="#DejaVuSans-Bold-35" transform="translate(83.789062 0)"/>
     <use xlink:href="#DejaVuSans-Bold-2e" transform="translate(153.369141 0)"/>
     <use xlink:href="#DejaVuSans-Bold-34" transform="translate(191.357422 0)"/>
    </g>
   </g>
   <g id="text_47">
    <!-- +8.5 -->
    <g transform="translate(918.486417 44.903567) scale(0.1 -0.1)">
     <defs>
      <path id="DejaVuSans-Bold-38" d="M 2228 2088 
Q 1891 2088 1709 1903 
Q 1528 1719 1528 1375 
Q 1528 1031 1709 848 
Q 1891 666 2228 666 
Q 2563 666 2741 848 
Q 2919 1031 2919 1375 
Q 2919 1722 2741 1905 
Q 2563 2088 2228 2088 
z
M 1350 2484 
Q 925 2613 709 2878 
Q 494 3144 494 3541 
Q 494 4131 934 4440 
Q 1375 4750 2228 4750 
Q 3075 4750 3515 4442 
Q 3956 4134 3956 3541 
Q 3956 3144 3739 2878 
Q 3522 2613 3097 2484 
Q 3572 2353 3814 2058 
Q 4056 1763 4056 1313 
Q 4056 619 3595 264 
Q 3134 -91 2228 -91 
Q 1319 -91 855 264 
Q 391 619 391 1313 
Q 391 1763 633 2058 
Q 875 2353 1350 2484 
z
M 1631 3419 
Q 1631 3141 1786 2991 
Q 1941 2841 2228 2841 
Q 2509 2841 2662 2991 
Q 2816 3141 2816 3419 
Q 2816 3697 2662 3845 
Q 2509 3994 2228 3994 
Q 1941 3994 1786 3844 
Q 1631 3694 1631 3419 
z
" transform="scale(0.015625)"/>
     </defs>
     <use xlink:href="#DejaVuSans-Bold-2b"/>
     <use xlink:href="#DejaVuSans-Bold-38" transform="translate(83.789062 0)"/>
     <use xlink:href="#DejaVuSans-Bold-2e" transform="translate(153.369141 0)"/>
     <use xlink:href="#DejaVuSans-Bold-35" transform="translate(191.357422 0)"/>
    </g>
   </g>
   <g id="text_48">
    <!-- Hub contamination lift at c_per = c_crit -->
    <g transform="translate(675.516687 14.798437) scale(0.1 -0.1)">
     <use xlink:href="#DejaVuSans-48"/>
     <use xlink:href="#DejaVuSans-75" transform="translate(75.195312 0)"/>
     <use xlink:href="#DejaVuSans-62" transform="translate(138.574219 0)"/>
     <use xlink:href="#DejaVuSans-20" transform="translate(202.050781 0)"/>
     <use xlink:href="#DejaVuSans-63" transform="translate(233.837891 0)"/>
     <use xlink:href="#DejaVuSans-6f" transform="translate(288.818359 0)"/>
     <use xlink:href="#DejaVuSans-6e" transform="translate(350 0)"/>
     <use xlink:href="#DejaVuSans-74" transform="translate(413.378906 0)"/>
     <use xlink:href="#DejaVuSans-61" transform="translate(452.587891 0)"/>
     <use xlink:href="#DejaVuSans-6d" transform="translate(513.867188 0)"/>
     <use xlink:href="#DejaVuSans-69" transform="translate(611.279297 0)"/>
     <use xlink:href="#DejaVuSans-6e" transform="translate(639.0625 0)"/>
     <use xlink:href="#DejaVuSans-61" transform="translate(702.441406 0)"/>
     <use xlink:href="#DejaVuSans-74" transform="translate(763.720703 0)"/>
     <use xlink:href="#DejaVuSans-69" transform="translate(802.929688 0)"/>
     <use xlink:href="#DejaVuSans-6f" transform="translate(830.712891 0)"/>
     <use xlink:href="#DejaVuSans-6e" transform="translate(891.894531 0)"/>
     <use xlink:href="#DejaVuSans-20" transform="translate(955.273438 0)"/>
     <use xlink:href="#DejaVuSans-6c" transform="translate(987.060547 0)"/>
     <use xlink:href="#DejaVuSans-69" transform="translate(1014.84375 0)"/>
     <use xlink:href="#DejaVuSans-66" transform="translate(1042.626953 0)"/>
     <use xlink:href="#DejaVuSans-74" transform="translate(1076.082031 0)"/>
     <use xlink:href="#DejaVuSans-20" transform="translate(1115.291016 0)"/>
     <use xlink:href="#DejaVuSans-61" transform="translate(1147.078125 0)"/>
     <use xlink:href="#DejaVuSans-74" transform="translate(1208.357422 0)"/>
     <use xlink:href="#DejaVuSans-20" transform="translate(1247.566406 0)"/>
     <use xlink:href="#DejaVuSans-63" transform="translate(1279.353516 0)"/>
     <use xlink:href="#DejaVuSans-5f" transform="translate(1334.333984 0)"/>
     <use xlink:href="#DejaVuSans-70" transform="translate(1384.333984 0)"/>
     <use xlink:href="#DejaVuSans-65" transform="translate(1447.810547 0)"/>
     <use xlink:href="#DejaVuSans-72" transform="translate(1509.333984 0)"/>
     <use xlink:href="#DejaVuSans-20" transform="translate(1550.447266 0)"/>
     <use xlink:href="#DejaVuSans-3d" transform="translate(1582.234375 0)"/>
     <use xlink:href="#DejaVuSans-20" transform="translate(1666.023438 0)"/>
     <use xlink:href="#DejaVuSans-63" transform="translate(1697.810547 0)"/>
     <use xlink:href="#DejaVuSans-5f" transform="translate(1752.791016 0)"/>
     <use xlink:href="#DejaVuSans-63" transform="translate(1802.791016 0)"/>
     <use xlink:href="#DejaVuSans-72" transform="translate(1857.771484 0)"/>
     <use xlink:href="#DejaVuSans-69" transform="translate(1898.884766 0)"/>
     <use xlink:href="#DejaVuSans-74" transform="translate(1926.667969 0)"/>
    </g>
    <!-- (hub: c=0.1, Pe≈27) -->
    <g transform="translate(722.590906 26.274375) scale(0.1 -0.1)">
     <use xlink:href="#DejaVuSans-28"/>
     <use xlink:href="#DejaVuSans-68" transform="translate(39.013672 0)"/>
     <use xlink:href="#DejaVuSans-75" transform="translate(102.392578 0)"/>
     <use xlink:href="#DejaVuSans-62" transform="translate(165.771484 0)"/>
     <use xlink:href="#DejaVuSans-3a" transform="translate(229.248047 0)"/>
     <use xlink:href="#DejaVuSans-20" transform="translate(262.939453 0)"/>
     <use xlink:href="#DejaVuSans-63" transform="translate(294.726562 0)"/>
     <use xlink:href="#DejaVuSans-3d" transform="translate(349.707031 0)"/>
     <use xlink:href="#DejaVuSans-30" transform="translate(433.496094 0)"/>
     <use xlink:href="#DejaVuSans-2e" transform="translate(497.119141 0)"/>
     <use xlink:href="#DejaVuSans-31" transform="translate(528.90625 0)"/>
     <use xlink:href="#DejaVuSans-2c" transform="translate(592.529297 0)"/>
     <use xlink:href="#DejaVuSans-20" transform="translate(624.316406 0)"/>
     <use xlink:href="#DejaVuSans-50" transform="translate(656.103516 0)"/>
     <use xlink:href="#DejaVuSans-65" transform="translate(712.78125 0)"/>
     <use xlink:href="#DejaVuSans-2248" transform="translate(774.304688 0)"/>
     <use xlink:href="#DejaVuSans-32" transform="translate(858.09375 0)"/>
     <use xlink:href="#DejaVuSans-37" transform="translate(921.716797 0)"/>
     <use xlink:href="#DejaVuSans-29" transform="translate(985.339844 0)"/>
    </g>
   </g>
   <g id="legend_2">
    <g id="patch_17">
     <path d="M 560.346188 52.935 
L 760.660875 52.935 
Q 762.460875 52.935 762.460875 51.135 
L 762.460875 38.574375 
Q 762.460875 36.774375 760.660875 36.774375 
L 560.346188 36.774375 
Q 558.546188 36.774375 558.546188 38.574375 
L 558.546188 51.135 
Q 558.546188 52.935 560.346188 52.935 
z
" style="fill: #ffffff; opacity: 0.8; stroke: #cccccc; stroke-linejoin: miter"/>
    </g>
    <g id="line2d_47">
     <path d="M 562.146188 44.062969 
L 571.146188 44.062969 
L 580.146188 44.062969 
" style="fill: none; stroke-dasharray: 5.55,2.4; stroke-dashoffset: 0; stroke: #ff0000; stroke-width: 1.5"/>
    </g>
    <g id="text_49">
     <!-- Pe_single = 1.0 (regulatory boundary) -->
     <g transform="translate(587.346188 47.212969) scale(0.09 -0.09)">
      <defs>
       <path id="DejaVuSans-79" d="M 2059 -325 
Q 1816 -950 1584 -1140 
Q 1353 -1331 966 -1331 
L 506 -1331 
L 506 -850 
L 844 -850 
Q 1081 -850 1212 -737 
Q 1344 -625 1503 -206 
L 1606 56 
L 191 3500 
L 800 3500 
L 1894 763 
L 2988 3500 
L 3597 3500 
L 2059 -325 
z
" transform="scale(0.015625)"/>
      </defs>
      <use xlink:href="#DejaVuSans-50"/>
      <use xlink:href="#DejaVuSans-65" transform="translate(56.677734 0)"/>
      <use xlink:href="#DejaVuSans-5f" transform="translate(118.201172 0)"/>
      <use xlink:href="#DejaVuSans-73" transform="translate(168.201172 0)"/>
      <use xlink:href="#DejaVuSans-69" transform="translate(220.300781 0)"/>
      <use xlink:href="#DejaVuSans-6e" transform="translate(248.083984 0)"/>
      <use xlink:href="#DejaVuSans-67" transform="translate(311.462891 0)"/>
      <use xlink:href="#DejaVuSans-6c" transform="translate(374.939453 0)"/>
      <use xlink:href="#DejaVuSans-65" transform="translate(402.722656 0)"/>
      <use xlink:href="#DejaVuSans-20" transform="translate(464.246094 0)"/>
      <use xlink:href="#DejaVuSans-3d" transform="translate(496.033203 0)"/>
      <use xlink:href="#DejaVuSans-20" transform="translate(579.822266 0)"/>
      <use xlink:href="#DejaVuSans-31" transform="translate(611.609375 0)"/>
      <use xlink:href="#DejaVuSans-2e" transform="translate(675.232422 0)"/>
      <use xlink:href="#DejaVuSans-30" transform="translate(707.019531 0)"/>
      <use xlink:href="#DejaVuSans-20" transform="translate(770.642578 0)"/>
      <use xlink:href="#DejaVuSans-28" transform="translate(802.429688 0)"/>
      <use xlink:href="#DejaVuSans-72" transform="translate(841.443359 0)"/>
      <use xlink:href="#DejaVuSans-65" transform="translate(880.306641 0)"/>
      <use xlink:href="#DejaVuSans-67" transform="translate(941.830078 0)"/>
      <use xlink:href="#DejaVuSans-75" transform="translate(1005.306641 0)"/>
      <use xlink:href="#DejaVuSans-6c" transform="translate(1068.685547 0)"/>
      <use xlink:href="#DejaVuSans-61" transform="translate(1096.46875 0)"/>
      <use xlink:href="#DejaVuSans-74" transform="translate(1157.748047 0)"/>
      <use xlink:href="#DejaVuSans-6f" transform="translate(1196.957031 0)"/>
      <use xlink:href="#DejaVuSans-72" transform="translate(1258.138672 0)"/>
      <use xlink:href="#DejaVuSans-79" transform="translate(1299.251953 0)"/>
      <use xlink:href="#DejaVuSans-20" transform="translate(1358.431641 0)"/>
      <use xlink:href="#DejaVuSans-62" transform="translate(1390.21875 0)"/>
      <use xlink:href="#DejaVuSans-6f" transform="translate(1453.695312 0)"/>
      <use xlink:href="#DejaVuSans-75" transform="translate(1514.876953 0)"/>
      <use xlink:href="#DejaVuSans-6e" transform="translate(1578.255859 0)"/>
      <use xlink:href="#DejaVuSans-64" transform="translate(1641.634766 0)"/>
      <use xlink:href="#DejaVuSans-61" transform="translate(1705.111328 0)"/>
      <use xlink:href="#DejaVuSans-72" transform="translate(1766.390625 0)"/>
      <use xlink:href="#DejaVuSans-79" transform="translate(1807.503906 0)"/>
      <use xlink:href="#DejaVuSans-29" transform="translate(1866.683594 0)"/>
     </g>
    </g>
   </g>
  </g>
 </g>
 <defs>
  <clipPath id="pcf251ae530">
   <rect x="51.111563" y="32.274375" width="439.525375" height="349.95475"/>
  </clipPath>
  <clipPath id="pe55e408f58">
   <rect x="554.046188" y="32.274375" width="439.525375" height="349.95475"/>
  </clipPath>
 </defs>
</svg>
