<?xml version="1.0" encoding="utf-8" standalone="no"?>
<!DOCTYPE svg PUBLIC "-//W3C//DTD SVG 1.1//EN"
  "http://www.w3.org/Graphics/SVG/1.1/DTD/svg11.dtd">
<svg xmlns:xlink="http://www.w3.org/1999/xlink" width="1000.659688pt" height="348.392875pt" viewBox="0 0 1000.659688 348.392875" xmlns="http://www.w3.org/2000/svg" version="1.1">
 <metadata>
  <rdf:RDF xmlns:dc="http://purl.org/dc/elements/1.1/" xmlns:cc="http://creativecommons.org/ns#" xmlns:rdf="http://www.w3.org/1999/02/22-rdf-syntax-ns#">
   <cc:Work>
    <dc:type rdf:resource="http://purl.org/dc/dcmitype/StillImage"/>
    <dc:date>2026-02-22T17:41:26.608282</dc:date>
    <dc:format>image/svg+xml</dc:format>
    <dc:creator>
     <cc:Agent>
      <dc:title>Matplotlib v3.10.8, https://matplotlib.org/</dc:title>
     </cc:Agent>
    </dc:creator>
   </cc:Work>
  </rdf:RDF>
 </metadata>
 <defs>
  <style type="text/css">*{stroke-linejoin: round; stroke-linecap: butt}</style>
 </defs>
 <g id="figure_1">
  <g id="patch_1">
   <path d="M 0 348.392875 
L 1000.659688 348.392875 
L 1000.659688 0 
L 0 0 
z
" style="fill: #ffffff"/>
  </g>
  <g id="axes_1">
   <g id="patch_2">
    <path d="M 43.588125 309.84475 
L 491.093125 309.84475 
L 491.093125 32.39625 
L 43.588125 32.39625 
z
" style="fill: #ffffff"/>
   </g>
   <g id="FillBetweenPolyCollection_1">
    <defs>
     <path id="md08978292e" d="M 51.046542 -256.4821 
L 51.046542 -246.574918 
L 63.989088 -262.736132 
L 76.931635 -279.145252 
L 89.874181 -288.97744 
L 102.816728 -293.696664 
L 115.759275 -293.35206 
L 128.701821 -301.306771 
L 141.644368 -300.139199 
L 154.586914 -300.082935 
L 167.529461 -301.306771 
L 180.472007 -302.901705 
L 193.414554 -302.901705 
L 206.3571 -302.901705 
L 219.299647 -302.901705 
L 232.242194 -301.837535 
L 245.18474 -302.901705 
L 258.127287 -302.901705 
L 271.069833 -302.901705 
L 284.01238 -302.901705 
L 296.954926 -302.901705 
L 309.897473 -302.901705 
L 322.84002 -302.901705 
L 335.782566 -302.901705 
L 348.725113 -302.901705 
L 361.667659 -302.901705 
L 374.610206 -302.901705 
L 387.552752 -302.901705 
L 400.495299 -302.901705 
L 413.437846 -302.901705 
L 426.380392 -302.901705 
L 439.322939 -302.901705 
L 452.265485 -302.901705 
L 465.208032 -302.901705 
L 478.150578 -302.901705 
L 491.093125 -302.901705 
L 491.093125 -302.901705 
L 491.093125 -302.901705 
L 478.150578 -302.901705 
L 465.208032 -302.901705 
L 452.265485 -302.901705 
L 439.322939 -302.901705 
L 426.380392 -302.901705 
L 413.437846 -302.901705 
L 400.495299 -302.901705 
L 387.552752 -302.901705 
L 374.610206 -302.901705 
L 361.667659 -302.901705 
L 348.725113 -302.901705 
L 335.782566 -302.901705 
L 322.84002 -302.901705 
L 309.897473 -302.901705 
L 296.954926 -302.901705 
L 284.01238 -302.901705 
L 271.069833 -302.901705 
L 258.127287 -302.901705 
L 245.18474 -302.901705 
L 232.242194 -303.382089 
L 219.299647 -302.901705 
L 206.3571 -302.901705 
L 193.414554 -302.901705 
L 180.472007 -302.901705 
L 167.529461 -303.329066 
L 154.586914 -303.38533 
L 141.644368 -302.161494 
L 128.701821 -303.329066 
L 115.759275 -302.526983 
L 102.816728 -299.847234 
L 89.874181 -298.728594 
L 76.931635 -287.544475 
L 63.989088 -281.769715 
L 51.046542 -256.4821 
z
" style="stroke: #e67e22; stroke-opacity: 0.2"/>
    </defs>
    <g clip-path="url(#p0402445455)">
     <use xlink:href="#md08978292e" x="0" y="348.392875" style="fill: #e67e22; fill-opacity: 0.2; stroke: #e67e22; stroke-opacity: 0.2"/>
    </g>
   </g>
   <g id="FillBetweenPolyCollection_2">
    <defs>
     <path id="mea81c96d8f" d="M 51.046542 -197.488611 
L 51.046542 -171.970226 
L 63.989088 -106.835754 
L 76.931635 -91.961439 
L 89.874181 -63.153988 
L 102.816728 -60.272656 
L 115.759275 -53.370304 
L 128.701821 -51.30434 
L 141.644368 -54.311711 
L 154.586914 -51.15942 
L 167.529461 -51.30434 
L 180.472007 -52.405114 
L 193.414554 -52.405114 
L 206.3571 -52.405114 
L 219.299647 -52.405114 
L 232.242194 -51.167768 
L 245.18474 -52.405114 
L 258.127287 -52.405114 
L 271.069833 -52.405114 
L 284.01238 -52.405114 
L 296.954926 -52.405114 
L 309.897473 -52.405114 
L 322.84002 -52.405114 
L 335.782566 -52.405114 
L 348.725113 -52.405114 
L 361.667659 -52.405114 
L 374.610206 -52.405114 
L 387.552752 -52.405114 
L 400.495299 -52.405114 
L 413.437846 -52.405114 
L 426.380392 -52.405114 
L 439.322939 -52.405114 
L 452.265485 -52.405114 
L 465.208032 -52.405114 
L 478.150578 -52.405114 
L 491.093125 -52.405114 
L 491.093125 -52.405114 
L 491.093125 -52.405114 
L 478.150578 -52.405114 
L 465.208032 -52.405114 
L 452.265485 -52.405114 
L 439.322939 -52.405114 
L 426.380392 -52.405114 
L 413.437846 -52.405114 
L 400.495299 -52.405114 
L 387.552752 -52.405114 
L 374.610206 -52.405114 
L 361.667659 -52.405114 
L 348.725113 -52.405114 
L 335.782566 -52.405114 
L 322.84002 -52.405114 
L 309.897473 -52.405114 
L 296.954926 -52.405114 
L 284.01238 -52.405114 
L 271.069833 -52.405114 
L 258.127287 -52.405114 
L 245.18474 -52.405114 
L 232.242194 -55.146145 
L 219.299647 -52.405114 
L 206.3571 -52.405114 
L 193.414554 -52.405114 
L 180.472007 -52.405114 
L 167.529461 -56.513259 
L 154.586914 -59.665549 
L 141.644368 -59.520629 
L 128.701821 -56.513259 
L 115.759275 -77.002574 
L 102.816728 -76.114963 
L 89.874181 -88.270484 
L 76.931635 -113.595703 
L 63.989088 -155.861428 
L 51.046542 -197.488611 
z
" style="stroke: #2980b9; stroke-opacity: 0.2"/>
    </defs>
    <g clip-path="url(#p0402445455)">
     <use xlink:href="#mea81c96d8f" x="0" y="348.392875" style="fill: #2980b9; fill-opacity: 0.2; stroke: #2980b9; stroke-opacity: 0.2"/>
    </g>
   </g>
   <g id="matplotlib.axis_1">
    <g id="xtick_1">
     <g id="line2d_1">
      <defs>
       <path id="m194b0f379c" d="M 0 0 
L 0 3.5 
" style="stroke: #000000; stroke-width: 0.8"/>
      </defs>
      <g>
       <use xlink:href="#m194b0f379c" x="43.588125" y="309.84475" style="stroke: #000000; stroke-width: 0.8"/>
      </g>
     </g>
     <g id="text_1">
      <!-- 0.0 -->
      <g transform="translate(35.636563 324.443188) scale(0.1 -0.1)">
       <defs>
        <path id="DejaVuSans-30" d="M 2034 4250 
Q 1547 4250 1301 3770 
Q 1056 3291 1056 2328 
Q 1056 1369 1301 889 
Q 1547 409 2034 409 
Q 2525 409 2770 889 
Q 3016 1369 3016 2328 
Q 3016 3291 2770 3770 
Q 2525 4250 2034 4250 
z
M 2034 4750 
Q 2819 4750 3233 4129 
Q 3647 3509 3647 2328 
Q 3647 1150 3233 529 
Q 2819 -91 2034 -91 
Q 1250 -91 836 529 
Q 422 1150 422 2328 
Q 422 3509 836 4129 
Q 1250 4750 2034 4750 
z
" transform="scale(0.015625)"/>
        <path id="DejaVuSans-2e" d="M 684 794 
L 1344 794 
L 1344 0 
L 684 0 
L 684 794 
z
" transform="scale(0.015625)"/>
       </defs>
       <use xlink:href="#DejaVuSans-30"/>
       <use xlink:href="#DejaVuSans-2e" transform="translate(63.623047 0)"/>
       <use xlink:href="#DejaVuSans-30" transform="translate(95.410156 0)"/>
      </g>
     </g>
    </g>
    <g id="xtick_2">
     <g id="line2d_2">
      <g>
       <use xlink:href="#m194b0f379c" x="118.172292" y="309.84475" style="stroke: #000000; stroke-width: 0.8"/>
      </g>
     </g>
     <g id="text_2">
      <!-- 0.1 -->
      <g transform="translate(110.220729 324.443188) scale(0.1 -0.1)">
       <defs>
        <path id="DejaVuSans-31" d="M 794 531 
L 1825 531 
L 1825 4091 
L 703 3866 
L 703 4441 
L 1819 4666 
L 2450 4666 
L 2450 531 
L 3481 531 
L 3481 0 
L 794 0 
L 794 531 
z
" transform="scale(0.015625)"/>
       </defs>
       <use xlink:href="#DejaVuSans-30"/>
       <use xlink:href="#DejaVuSans-2e" transform="translate(63.623047 0)"/>
       <use xlink:href="#DejaVuSans-31" transform="translate(95.410156 0)"/>
      </g>
     </g>
    </g>
    <g id="xtick_3">
     <g id="line2d_3">
      <g>
       <use xlink:href="#m194b0f379c" x="192.756458" y="309.84475" style="stroke: #000000; stroke-width: 0.8"/>
      </g>
     </g>
     <g id="text_3">
      <!-- 0.2 -->
      <g transform="translate(184.804896 324.443188) scale(0.1 -0.1)">
       <defs>
        <path id="DejaVuSans-32" d="M 1228 531 
L 3431 531 
L 3431 0 
L 469 0 
L 469 531 
Q 828 903 1448 1529 
Q 2069 2156 2228 2338 
Q 2531 2678 2651 2914 
Q 2772 3150 2772 3378 
Q 2772 3750 2511 3984 
Q 2250 4219 1831 4219 
Q 1534 4219 1204 4116 
Q 875 4013 500 3803 
L 500 4441 
Q 881 4594 1212 4672 
Q 1544 4750 1819 4750 
Q 2544 4750 2975 4387 
Q 3406 4025 3406 3419 
Q 3406 3131 3298 2873 
Q 3191 2616 2906 2266 
Q 2828 2175 2409 1742 
Q 1991 1309 1228 531 
z
" transform="scale(0.015625)"/>
       </defs>
       <use xlink:href="#DejaVuSans-30"/>
       <use xlink:href="#DejaVuSans-2e" transform="translate(63.623047 0)"/>
       <use xlink:href="#DejaVuSans-32" transform="translate(95.410156 0)"/>
      </g>
     </g>
    </g>
    <g id="xtick_4">
     <g id="line2d_4">
      <g>
       <use xlink:href="#m194b0f379c" x="267.340625" y="309.84475" style="stroke: #000000; stroke-width: 0.8"/>
      </g>
     </g>
     <g id="text_4">
      <!-- 0.3 -->
      <g transform="translate(259.389063 324.443188) scale(0.1 -0.1)">
       <defs>
        <path id="DejaVuSans-33" d="M 2597 2516 
Q 3050 2419 3304 2112 
Q 3559 1806 3559 1356 
Q 3559 666 3084 287 
Q 2609 -91 1734 -91 
Q 1441 -91 1130 -33 
Q 819 25 488 141 
L 488 750 
Q 750 597 1062 519 
Q 1375 441 1716 441 
Q 2309 441 2620 675 
Q 2931 909 2931 1356 
Q 2931 1769 2642 2001 
Q 2353 2234 1838 2234 
L 1294 2234 
L 1294 2753 
L 1863 2753 
Q 2328 2753 2575 2939 
Q 2822 3125 2822 3475 
Q 2822 3834 2567 4026 
Q 2313 4219 1838 4219 
Q 1578 4219 1281 4162 
Q 984 4106 628 3988 
L 628 4550 
Q 988 4650 1302 4700 
Q 1616 4750 1894 4750 
Q 2613 4750 3031 4423 
Q 3450 4097 3450 3541 
Q 3450 3153 3228 2886 
Q 3006 2619 2597 2516 
z
" transform="scale(0.015625)"/>
       </defs>
       <use xlink:href="#DejaVuSans-30"/>
       <use xlink:href="#DejaVuSans-2e" transform="translate(63.623047 0)"/>
       <use xlink:href="#DejaVuSans-33" transform="translate(95.410156 0)"/>
      </g>
     </g>
    </g>
    <g id="xtick_5">
     <g id="line2d_5">
      <g>
       <use xlink:href="#m194b0f379c" x="341.924792" y="309.84475" style="stroke: #000000; stroke-width: 0.8"/>
      </g>
     </g>
     <g id="text_5">
      <!-- 0.4 -->
      <g transform="translate(333.973229 324.443188) scale(0.1 -0.1)">
       <defs>
        <path id="DejaVuSans-34" d="M 2419 4116 
L 825 1625 
L 2419 1625 
L 2419 4116 
z
M 2253 4666 
L 3047 4666 
L 3047 1625 
L 3713 1625 
L 3713 1100 
L 3047 1100 
L 3047 0 
L 2419 0 
L 2419 1100 
L 313 1100 
L 313 1709 
L 2253 4666 
z
" transform="scale(0.015625)"/>
       </defs>
       <use xlink:href="#DejaVuSans-30"/>
       <use xlink:href="#DejaVuSans-2e" transform="translate(63.623047 0)"/>
       <use xlink:href="#DejaVuSans-34" transform="translate(95.410156 0)"/>
      </g>
     </g>
    </g>
    <g id="xtick_6">
     <g id="line2d_6">
      <g>
       <use xlink:href="#m194b0f379c" x="416.508958" y="309.84475" style="stroke: #000000; stroke-width: 0.8"/>
      </g>
     </g>
     <g id="text_6">
      <!-- 0.5 -->
      <g transform="translate(408.557396 324.443188) scale(0.1 -0.1)">
       <defs>
        <path id="DejaVuSans-35" d="M 691 4666 
L 3169 4666 
L 3169 4134 
L 1269 4134 
L 1269 2991 
Q 1406 3038 1543 3061 
Q 1681 3084 1819 3084 
Q 2600 3084 3056 2656 
Q 3513 2228 3513 1497 
Q 3513 744 3044 326 
Q 2575 -91 1722 -91 
Q 1428 -91 1123 -41 
Q 819 9 494 109 
L 494 744 
Q 775 591 1075 516 
Q 1375 441 1709 441 
Q 2250 441 2565 725 
Q 2881 1009 2881 1497 
Q 2881 1984 2565 2268 
Q 2250 2553 1709 2553 
Q 1456 2553 1204 2497 
Q 953 2441 691 2322 
L 691 4666 
z
" transform="scale(0.015625)"/>
       </defs>
       <use xlink:href="#DejaVuSans-30"/>
       <use xlink:href="#DejaVuSans-2e" transform="translate(63.623047 0)"/>
       <use xlink:href="#DejaVuSans-35" transform="translate(95.410156 0)"/>
      </g>
     </g>
    </g>
    <g id="xtick_7">
     <g id="line2d_7">
      <g>
       <use xlink:href="#m194b0f379c" x="491.093125" y="309.84475" style="stroke: #000000; stroke-width: 0.8"/>
      </g>
     </g>
     <g id="text_7">
      <!-- 0.6 -->
      <g transform="translate(483.141563 324.443188) scale(0.1 -0.1)">
       <defs>
        <path id="DejaVuSans-36" d="M 2113 2584 
Q 1688 2584 1439 2293 
Q 1191 2003 1191 1497 
Q 1191 994 1439 701 
Q 1688 409 2113 409 
Q 2538 409 2786 701 
Q 3034 994 3034 1497 
Q 3034 2003 2786 2293 
Q 2538 2584 2113 2584 
z
M 3366 4563 
L 3366 3988 
Q 3128 4100 2886 4159 
Q 2644 4219 2406 4219 
Q 1781 4219 1451 3797 
Q 1122 3375 1075 2522 
Q 1259 2794 1537 2939 
Q 1816 3084 2150 3084 
Q 2853 3084 3261 2657 
Q 3669 2231 3669 1497 
Q 3669 778 3244 343 
Q 2819 -91 2113 -91 
Q 1303 -91 875 529 
Q 447 1150 447 2328 
Q 447 3434 972 4092 
Q 1497 4750 2381 4750 
Q 2619 4750 2861 4703 
Q 3103 4656 3366 4563 
z
" transform="scale(0.015625)"/>
       </defs>
       <use xlink:href="#DejaVuSans-30"/>
       <use xlink:href="#DejaVuSans-2e" transform="translate(63.623047 0)"/>
       <use xlink:href="#DejaVuSans-36" transform="translate(95.410156 0)"/>
      </g>
     </g>
    </g>
    <g id="text_8">
     <!-- Edge density $p$ -->
     <g transform="translate(226.310625 338.882875) scale(0.11 -0.11)">
      <defs>
       <path id="DejaVuSans-45" d="M 628 4666 
L 3578 4666 
L 3578 4134 
L 1259 4134 
L 1259 2753 
L 3481 2753 
L 3481 2222 
L 1259 2222 
L 1259 531 
L 3634 531 
L 3634 0 
L 628 0 
L 628 4666 
z
" transform="scale(0.015625)"/>
       <path id="DejaVuSans-64" d="M 2906 2969 
L 2906 4863 
L 3481 4863 
L 3481 0 
L 2906 0 
L 2906 525 
Q 2725 213 2448 61 
Q 2172 -91 1784 -91 
Q 1150 -91 751 415 
Q 353 922 353 1747 
Q 353 2572 751 3078 
Q 1150 3584 1784 3584 
Q 2172 3584 2448 3432 
Q 2725 3281 2906 2969 
z
M 947 1747 
Q 947 1113 1208 752 
Q 1469 391 1925 391 
Q 2381 391 2643 752 
Q 2906 1113 2906 1747 
Q 2906 2381 2643 2742 
Q 2381 3103 1925 3103 
Q 1469 3103 1208 2742 
Q 947 2381 947 1747 
z
" transform="scale(0.015625)"/>
       <path id="DejaVuSans-67" d="M 2906 1791 
Q 2906 2416 2648 2759 
Q 2391 3103 1925 3103 
Q 1463 3103 1205 2759 
Q 947 2416 947 1791 
Q 947 1169 1205 825 
Q 1463 481 1925 481 
Q 2391 481 2648 825 
Q 2906 1169 2906 1791 
z
M 3481 434 
Q 3481 -459 3084 -895 
Q 2688 -1331 1869 -1331 
Q 1566 -1331 1297 -1286 
Q 1028 -1241 775 -1147 
L 775 -588 
Q 1028 -725 1275 -790 
Q 1522 -856 1778 -856 
Q 2344 -856 2625 -561 
Q 2906 -266 2906 331 
L 2906 616 
Q 2728 306 2450 153 
Q 2172 0 1784 0 
Q 1141 0 747 490 
Q 353 981 353 1791 
Q 353 2603 747 3093 
Q 1141 3584 1784 3584 
Q 2172 3584 2450 3431 
Q 2728 3278 2906 2969 
L 2906 3500 
L 3481 3500 
L 3481 434 
z
" transform="scale(0.015625)"/>
       <path id="DejaVuSans-65" d="M 3597 1894 
L 3597 1613 
L 953 1613 
Q 991 1019 1311 708 
Q 1631 397 2203 397 
Q 2534 397 2845 478 
Q 3156 559 3463 722 
L 3463 178 
Q 3153 47 2828 -22 
Q 2503 -91 2169 -91 
Q 1331 -91 842 396 
Q 353 884 353 1716 
Q 353 2575 817 3079 
Q 1281 3584 2069 3584 
Q 2775 3584 3186 3129 
Q 3597 2675 3597 1894 
z
M 3022 2063 
Q 3016 2534 2758 2815 
Q 2500 3097 2075 3097 
Q 1594 3097 1305 2825 
Q 1016 2553 972 2059 
L 3022 2063 
z
" transform="scale(0.015625)"/>
       <path id="DejaVuSans-20" transform="scale(0.015625)"/>
       <path id="DejaVuSans-6e" d="M 3513 2113 
L 3513 0 
L 2938 0 
L 2938 2094 
Q 2938 2591 2744 2837 
Q 2550 3084 2163 3084 
Q 1697 3084 1428 2787 
Q 1159 2491 1159 1978 
L 1159 0 
L 581 0 
L 581 3500 
L 1159 3500 
L 1159 2956 
Q 1366 3272 1645 3428 
Q 1925 3584 2291 3584 
Q 2894 3584 3203 3211 
Q 3513 2838 3513 2113 
z
" transform="scale(0.015625)"/>
       <path id="DejaVuSans-73" d="M 2834 3397 
L 2834 2853 
Q 2591 2978 2328 3040 
Q 2066 3103 1784 3103 
Q 1356 3103 1142 2972 
Q 928 2841 928 2578 
Q 928 2378 1081 2264 
Q 1234 2150 1697 2047 
L 1894 2003 
Q 2506 1872 2764 1633 
Q 3022 1394 3022 966 
Q 3022 478 2636 193 
Q 2250 -91 1575 -91 
Q 1294 -91 989 -36 
Q 684 19 347 128 
L 347 722 
Q 666 556 975 473 
Q 1284 391 1588 391 
Q 1994 391 2212 530 
Q 2431 669 2431 922 
Q 2431 1156 2273 1281 
Q 2116 1406 1581 1522 
L 1381 1569 
Q 847 1681 609 1914 
Q 372 2147 372 2553 
Q 372 3047 722 3315 
Q 1072 3584 1716 3584 
Q 2034 3584 2315 3537 
Q 2597 3491 2834 3397 
z
" transform="scale(0.015625)"/>
       <path id="DejaVuSans-69" d="M 603 3500 
L 1178 3500 
L 1178 0 
L 603 0 
L 603 3500 
z
M 603 4863 
L 1178 4863 
L 1178 4134 
L 603 4134 
L 603 4863 
z
" transform="scale(0.015625)"/>
       <path id="DejaVuSans-74" d="M 1172 4494 
L 1172 3500 
L 2356 3500 
L 2356 3053 
L 1172 3053 
L 1172 1153 
Q 1172 725 1289 603 
Q 1406 481 1766 481 
L 2356 481 
L 2356 0 
L 1766 0 
Q 1100 0 847 248 
Q 594 497 594 1153 
L 594 3053 
L 172 3053 
L 172 3500 
L 594 3500 
L 594 4494 
L 1172 4494 
z
" transform="scale(0.015625)"/>
       <path id="DejaVuSans-79" d="M 2059 -325 
Q 1816 -950 1584 -1140 
Q 1353 -1331 966 -1331 
L 506 -1331 
L 506 -850 
L 844 -850 
Q 1081 -850 1212 -737 
Q 1344 -625 1503 -206 
L 1606 56 
L 191 3500 
L 800 3500 
L 1894 763 
L 2988 3500 
L 3597 3500 
L 2059 -325 
z
" transform="scale(0.015625)"/>
       <path id="DejaVuSans-Oblique-70" d="M 3175 2156 
Q 3175 2616 2975 2859 
Q 2775 3103 2400 3103 
Q 2144 3103 1911 2972 
Q 1678 2841 1497 2591 
Q 1319 2344 1212 1994 
Q 1106 1644 1106 1300 
Q 1106 863 1306 627 
Q 1506 391 1875 391 
Q 2147 391 2380 519 
Q 2613 647 2778 891 
Q 2956 1147 3065 1494 
Q 3175 1841 3175 2156 
z
M 1394 2969 
Q 1625 3272 1939 3428 
Q 2253 3584 2638 3584 
Q 3175 3584 3472 3232 
Q 3769 2881 3769 2247 
Q 3769 1728 3584 1258 
Q 3400 788 3053 416 
Q 2822 169 2531 39 
Q 2241 -91 1919 -91 
Q 1547 -91 1294 64 
Q 1041 219 916 525 
L 556 -1331 
L -19 -1331 
L 922 3500 
L 1497 3500 
L 1394 2969 
z
" transform="scale(0.015625)"/>
      </defs>
      <use xlink:href="#DejaVuSans-45" transform="translate(0 0.015625)"/>
      <use xlink:href="#DejaVuSans-64" transform="translate(63.183594 0.015625)"/>
      <use xlink:href="#DejaVuSans-67" transform="translate(126.660156 0.015625)"/>
      <use xlink:href="#DejaVuSans-65" transform="translate(190.136719 0.015625)"/>
      <use xlink:href="#DejaVuSans-20" transform="translate(251.660156 0.015625)"/>
      <use xlink:href="#DejaVuSans-64" transform="translate(283.447266 0.015625)"/>
      <use xlink:href="#DejaVuSans-65" transform="translate(346.923828 0.015625)"/>
      <use xlink:href="#DejaVuSans-6e" transform="translate(408.447266 0.015625)"/>
      <use xlink:href="#DejaVuSans-73" transform="translate(471.826172 0.015625)"/>
      <use xlink:href="#DejaVuSans-69" transform="translate(523.925781 0.015625)"/>
      <use xlink:href="#DejaVuSans-74" transform="translate(551.708984 0.015625)"/>
      <use xlink:href="#DejaVuSans-79" transform="translate(590.917969 0.015625)"/>
      <use xlink:href="#DejaVuSans-20" transform="translate(650.097656 0.015625)"/>
      <use xlink:href="#DejaVuSans-Oblique-70" transform="translate(681.884766 0.015625)"/>
     </g>
    </g>
   </g>
   <g id="matplotlib.axis_2">
    <g id="ytick_1">
     <g id="line2d_8">
      <defs>
       <path id="m4a742af974" d="M 0 0 
L -3.5 0 
" style="stroke: #000000; stroke-width: 0.8"/>
      </defs>
      <g>
       <use xlink:href="#m4a742af974" x="43.588125" y="294.089629" style="stroke: #000000; stroke-width: 0.8"/>
      </g>
     </g>
     <g id="text_9">
      <!-- −6 -->
      <g transform="translate(21.845938 297.888848) scale(0.1 -0.1)">
       <defs>
        <path id="DejaVuSans-2212" d="M 678 2272 
L 4684 2272 
L 4684 1741 
L 678 1741 
L 678 2272 
z
" transform="scale(0.015625)"/>
       </defs>
       <use xlink:href="#DejaVuSans-2212"/>
       <use xlink:href="#DejaVuSans-36" transform="translate(83.789062 0)"/>
      </g>
     </g>
    </g>
    <g id="ytick_2">
     <g id="line2d_9">
      <g>
       <use xlink:href="#m4a742af974" x="43.588125" y="242.026422" style="stroke: #000000; stroke-width: 0.8"/>
      </g>
     </g>
     <g id="text_10">
      <!-- −4 -->
      <g transform="translate(21.845938 245.825641) scale(0.1 -0.1)">
       <use xlink:href="#DejaVuSans-2212"/>
       <use xlink:href="#DejaVuSans-34" transform="translate(83.789062 0)"/>
      </g>
     </g>
    </g>
    <g id="ytick_3">
     <g id="line2d_10">
      <g>
       <use xlink:href="#m4a742af974" x="43.588125" y="189.963215" style="stroke: #000000; stroke-width: 0.8"/>
      </g>
     </g>
     <g id="text_11">
      <!-- −2 -->
      <g transform="translate(21.845938 193.762434) scale(0.1 -0.1)">
       <use xlink:href="#DejaVuSans-2212"/>
       <use xlink:href="#DejaVuSans-32" transform="translate(83.789062 0)"/>
      </g>
     </g>
    </g>
    <g id="ytick_4">
     <g id="line2d_11">
      <g>
       <use xlink:href="#m4a742af974" x="43.588125" y="137.900008" style="stroke: #000000; stroke-width: 0.8"/>
      </g>
     </g>
     <g id="text_12">
      <!-- 0 -->
      <g transform="translate(30.225625 141.699227) scale(0.1 -0.1)">
       <use xlink:href="#DejaVuSans-30"/>
      </g>
     </g>
    </g>
    <g id="ytick_5">
     <g id="line2d_12">
      <g>
       <use xlink:href="#m4a742af974" x="43.588125" y="85.836801" style="stroke: #000000; stroke-width: 0.8"/>
      </g>
     </g>
     <g id="text_13">
      <!-- 2 -->
      <g transform="translate(30.225625 89.63602) scale(0.1 -0.1)">
       <use xlink:href="#DejaVuSans-32"/>
      </g>
     </g>
    </g>
    <g id="ytick_6">
     <g id="line2d_13">
      <g>
       <use xlink:href="#m4a742af974" x="43.588125" y="33.773594" style="stroke: #000000; stroke-width: 0.8"/>
      </g>
     </g>
     <g id="text_14">
      <!-- 4 -->
      <g transform="translate(30.225625 37.572813) scale(0.1 -0.1)">
       <use xlink:href="#DejaVuSans-34"/>
      </g>
     </g>
    </g>
    <g id="text_15">
     <!-- Mean network Pe -->
     <g transform="translate(15.558281 218.438547) rotate(-90) scale(0.11 -0.11)">
      <defs>
       <path id="DejaVuSans-4d" d="M 628 4666 
L 1569 4666 
L 2759 1491 
L 3956 4666 
L 4897 4666 
L 4897 0 
L 4281 0 
L 4281 4097 
L 3078 897 
L 2444 897 
L 1241 4097 
L 1241 0 
L 628 0 
L 628 4666 
z
" transform="scale(0.015625)"/>
       <path id="DejaVuSans-61" d="M 2194 1759 
Q 1497 1759 1228 1600 
Q 959 1441 959 1056 
Q 959 750 1161 570 
Q 1363 391 1709 391 
Q 2188 391 2477 730 
Q 2766 1069 2766 1631 
L 2766 1759 
L 2194 1759 
z
M 3341 1997 
L 3341 0 
L 2766 0 
L 2766 531 
Q 2569 213 2275 61 
Q 1981 -91 1556 -91 
Q 1019 -91 701 211 
Q 384 513 384 1019 
Q 384 1609 779 1909 
Q 1175 2209 1959 2209 
L 2766 2209 
L 2766 2266 
Q 2766 2663 2505 2880 
Q 2244 3097 1772 3097 
Q 1472 3097 1187 3025 
Q 903 2953 641 2809 
L 641 3341 
Q 956 3463 1253 3523 
Q 1550 3584 1831 3584 
Q 2591 3584 2966 3190 
Q 3341 2797 3341 1997 
z
" transform="scale(0.015625)"/>
       <path id="DejaVuSans-77" d="M 269 3500 
L 844 3500 
L 1563 769 
L 2278 3500 
L 2956 3500 
L 3675 769 
L 4391 3500 
L 4966 3500 
L 4050 0 
L 3372 0 
L 2619 2869 
L 1863 0 
L 1184 0 
L 269 3500 
z
" transform="scale(0.015625)"/>
       <path id="DejaVuSans-6f" d="M 1959 3097 
Q 1497 3097 1228 2736 
Q 959 2375 959 1747 
Q 959 1119 1226 758 
Q 1494 397 1959 397 
Q 2419 397 2687 759 
Q 2956 1122 2956 1747 
Q 2956 2369 2687 2733 
Q 2419 3097 1959 3097 
z
M 1959 3584 
Q 2709 3584 3137 3096 
Q 3566 2609 3566 1747 
Q 3566 888 3137 398 
Q 2709 -91 1959 -91 
Q 1206 -91 779 398 
Q 353 888 353 1747 
Q 353 2609 779 3096 
Q 1206 3584 1959 3584 
z
" transform="scale(0.015625)"/>
       <path id="DejaVuSans-72" d="M 2631 2963 
Q 2534 3019 2420 3045 
Q 2306 3072 2169 3072 
Q 1681 3072 1420 2755 
Q 1159 2438 1159 1844 
L 1159 0 
L 581 0 
L 581 3500 
L 1159 3500 
L 1159 2956 
Q 1341 3275 1631 3429 
Q 1922 3584 2338 3584 
Q 2397 3584 2469 3576 
Q 2541 3569 2628 3553 
L 2631 2963 
z
" transform="scale(0.015625)"/>
       <path id="DejaVuSans-6b" d="M 581 4863 
L 1159 4863 
L 1159 1991 
L 2875 3500 
L 3609 3500 
L 1753 1863 
L 3688 0 
L 2938 0 
L 1159 1709 
L 1159 0 
L 581 0 
L 581 4863 
z
" transform="scale(0.015625)"/>
       <path id="DejaVuSans-50" d="M 1259 4147 
L 1259 2394 
L 2053 2394 
Q 2494 2394 2734 2622 
Q 2975 2850 2975 3272 
Q 2975 3691 2734 3919 
Q 2494 4147 2053 4147 
L 1259 4147 
z
M 628 4666 
L 2053 4666 
Q 2838 4666 3239 4311 
Q 3641 3956 3641 3272 
Q 3641 2581 3239 2228 
Q 2838 1875 2053 1875 
L 1259 1875 
L 1259 0 
L 628 0 
L 628 4666 
z
" transform="scale(0.015625)"/>
      </defs>
      <use xlink:href="#DejaVuSans-4d"/>
      <use xlink:href="#DejaVuSans-65" transform="translate(86.279297 0)"/>
      <use xlink:href="#DejaVuSans-61" transform="translate(147.802734 0)"/>
      <use xlink:href="#DejaVuSans-6e" transform="translate(209.082031 0)"/>
      <use xlink:href="#DejaVuSans-20" transform="translate(272.460938 0)"/>
      <use xlink:href="#DejaVuSans-6e" transform="translate(304.248047 0)"/>
      <use xlink:href="#DejaVuSans-65" transform="translate(367.626953 0)"/>
      <use xlink:href="#DejaVuSans-74" transform="translate(429.150391 0)"/>
      <use xlink:href="#DejaVuSans-77" transform="translate(468.359375 0)"/>
      <use xlink:href="#DejaVuSans-6f" transform="translate(550.146484 0)"/>
      <use xlink:href="#DejaVuSans-72" transform="translate(611.328125 0)"/>
      <use xlink:href="#DejaVuSans-6b" transform="translate(652.441406 0)"/>
      <use xlink:href="#DejaVuSans-20" transform="translate(710.351562 0)"/>
      <use xlink:href="#DejaVuSans-50" transform="translate(742.138672 0)"/>
      <use xlink:href="#DejaVuSans-65" transform="translate(798.816406 0)"/>
     </g>
    </g>
   </g>
   <g id="line2d_14">
    <path d="M 51.046542 96.864366 
L 63.989088 76.139952 
L 76.931635 65.048012 
L 89.874181 54.539858 
L 102.816728 51.620926 
L 115.759275 50.453354 
L 128.701821 46.074956 
L 141.644368 47.242529 
L 154.586914 46.658743 
L 167.529461 46.074956 
L 180.472007 45.49117 
L 193.414554 45.49117 
L 206.3571 45.49117 
L 219.299647 45.49117 
L 232.242194 45.783063 
L 245.18474 45.49117 
L 258.127287 45.49117 
L 271.069833 45.49117 
L 284.01238 45.49117 
L 296.954926 45.49117 
L 309.897473 45.49117 
L 322.84002 45.49117 
L 335.782566 45.49117 
L 348.725113 45.49117 
L 361.667659 45.49117 
L 374.610206 45.49117 
L 387.552752 45.49117 
L 400.495299 45.49117 
L 413.437846 45.49117 
L 426.380392 45.49117 
L 439.322939 45.49117 
L 452.265485 45.49117 
L 465.208032 45.49117 
L 478.150578 45.49117 
L 491.093125 45.49117 
" clip-path="url(#p0402445455)" style="fill: none; stroke: #e67e22; stroke-width: 2; stroke-linecap: square"/>
   </g>
   <g id="line2d_15">
    <path d="M 51.046542 163.663457 
L 63.989088 217.044284 
L 76.931635 245.614304 
L 89.874181 272.680639 
L 102.816728 280.199065 
L 115.759275 283.206436 
L 128.701821 294.484076 
L 141.644368 291.476705 
L 154.586914 292.98039 
L 167.529461 294.484076 
L 180.472007 295.987761 
L 193.414554 295.987761 
L 206.3571 295.987761 
L 219.299647 295.987761 
L 232.242194 295.235918 
L 245.18474 295.987761 
L 258.127287 295.987761 
L 271.069833 295.987761 
L 284.01238 295.987761 
L 296.954926 295.987761 
L 309.897473 295.987761 
L 322.84002 295.987761 
L 335.782566 295.987761 
L 348.725113 295.987761 
L 361.667659 295.987761 
L 374.610206 295.987761 
L 387.552752 295.987761 
L 400.495299 295.987761 
L 413.437846 295.987761 
L 426.380392 295.987761 
L 439.322939 295.987761 
L 452.265485 295.987761 
L 465.208032 295.987761 
L 478.150578 295.987761 
L 491.093125 295.987761 
" clip-path="url(#p0402445455)" style="fill: none; stroke: #2980b9; stroke-width: 2; stroke-linecap: square"/>
   </g>
   <g id="line2d_16">
    <path d="M 43.588125 115.545528 
L 491.093125 115.545528 
" clip-path="url(#p0402445455)" style="fill: none; stroke-dasharray: 4.81,2.08; stroke-dashoffset: 0; stroke: #000000; stroke-width: 1.3"/>
   </g>
   <g id="line2d_17">
    <path d="M 43.588125 111.868405 
L 491.093125 111.868405 
" clip-path="url(#p0402445455)" style="fill: none; stroke-dasharray: 1.5,2.475; stroke-dashoffset: 0; stroke: #ff0000; stroke-width: 1.5"/>
   </g>
   <g id="line2d_18">
    <path d="M 68.449514 309.84475 
L 68.449514 32.39625 
" clip-path="url(#p0402445455)" style="fill: none; stroke-dasharray: 7.68,1.92,1.2,1.92; stroke-dashoffset: 0; stroke: #808080; stroke-opacity: 0.8; stroke-width: 1.2"/>
   </g>
   <g id="patch_3">
    <path d="M 43.588125 309.84475 
L 43.588125 32.39625 
" style="fill: none; stroke: #000000; stroke-width: 0.8; stroke-linejoin: miter; stroke-linecap: square"/>
   </g>
   <g id="patch_4">
    <path d="M 491.093125 309.84475 
L 491.093125 32.39625 
" style="fill: none; stroke: #000000; stroke-width: 0.8; stroke-linejoin: miter; stroke-linecap: square"/>
   </g>
   <g id="patch_5">
    <path d="M 43.588125 309.84475 
L 491.093125 309.84475 
" style="fill: none; stroke: #000000; stroke-width: 0.8; stroke-linejoin: miter; stroke-linecap: square"/>
   </g>
   <g id="patch_6">
    <path d="M 43.588125 32.39625 
L 491.093125 32.39625 
" style="fill: none; stroke: #000000; stroke-width: 0.8; stroke-linejoin: miter; stroke-linecap: square"/>
   </g>
   <g id="text_16">
    <!-- Pe vs connectivity (Erdős-Rényi, N=30) -->
    <g transform="translate(169.525 15.198438) scale(0.1 -0.1)">
     <defs>
      <path id="DejaVuSans-76" d="M 191 3500 
L 800 3500 
L 1894 563 
L 2988 3500 
L 3597 3500 
L 2284 0 
L 1503 0 
L 191 3500 
z
" transform="scale(0.015625)"/>
      <path id="DejaVuSans-63" d="M 3122 3366 
L 3122 2828 
Q 2878 2963 2633 3030 
Q 2388 3097 2138 3097 
Q 1578 3097 1268 2742 
Q 959 2388 959 1747 
Q 959 1106 1268 751 
Q 1578 397 2138 397 
Q 2388 397 2633 464 
Q 2878 531 3122 666 
L 3122 134 
Q 2881 22 2623 -34 
Q 2366 -91 2075 -91 
Q 1284 -91 818 406 
Q 353 903 353 1747 
Q 353 2603 823 3093 
Q 1294 3584 2113 3584 
Q 2378 3584 2631 3529 
Q 2884 3475 3122 3366 
z
" transform="scale(0.015625)"/>
      <path id="DejaVuSans-28" d="M 1984 4856 
Q 1566 4138 1362 3434 
Q 1159 2731 1159 2009 
Q 1159 1288 1364 580 
Q 1569 -128 1984 -844 
L 1484 -844 
Q 1016 -109 783 600 
Q 550 1309 550 2009 
Q 550 2706 781 3412 
Q 1013 4119 1484 4856 
L 1984 4856 
z
" transform="scale(0.015625)"/>
      <path id="DejaVuSans-151" d="M 2892 5119 
L 3448 5119 
L 2673 3944 
L 2251 3944 
L 2892 5119 
z
M 1848 5119 
L 2379 5119 
L 1682 3944 
L 1254 3944 
L 1848 5119 
z
M 1959 3097 
Q 1497 3097 1228 2736 
Q 959 2375 959 1747 
Q 959 1119 1226 758 
Q 1494 397 1959 397 
Q 2419 397 2687 759 
Q 2956 1122 2956 1747 
Q 2956 2369 2687 2733 
Q 2419 3097 1959 3097 
z
M 1959 3584 
Q 2709 3584 3137 3096 
Q 3566 2609 3566 1747 
Q 3566 888 3137 398 
Q 2709 -91 1959 -91 
Q 1206 -91 779 398 
Q 353 888 353 1747 
Q 353 2609 779 3096 
Q 1206 3584 1959 3584 
z
" transform="scale(0.015625)"/>
      <path id="DejaVuSans-2d" d="M 313 2009 
L 1997 2009 
L 1997 1497 
L 313 1497 
L 313 2009 
z
" transform="scale(0.015625)"/>
      <path id="DejaVuSans-52" d="M 2841 2188 
Q 3044 2119 3236 1894 
Q 3428 1669 3622 1275 
L 4263 0 
L 3584 0 
L 2988 1197 
Q 2756 1666 2539 1819 
Q 2322 1972 1947 1972 
L 1259 1972 
L 1259 0 
L 628 0 
L 628 4666 
L 2053 4666 
Q 2853 4666 3247 4331 
Q 3641 3997 3641 3322 
Q 3641 2881 3436 2590 
Q 3231 2300 2841 2188 
z
M 1259 4147 
L 1259 2491 
L 2053 2491 
Q 2509 2491 2742 2702 
Q 2975 2913 2975 3322 
Q 2975 3731 2742 3939 
Q 2509 4147 2053 4147 
L 1259 4147 
z
" transform="scale(0.015625)"/>
      <path id="DejaVuSans-e9" d="M 3597 1894 
L 3597 1613 
L 953 1613 
Q 991 1019 1311 708 
Q 1631 397 2203 397 
Q 2534 397 2845 478 
Q 3156 559 3463 722 
L 3463 178 
Q 3153 47 2828 -22 
Q 2503 -91 2169 -91 
Q 1331 -91 842 396 
Q 353 884 353 1716 
Q 353 2575 817 3079 
Q 1281 3584 2069 3584 
Q 2775 3584 3186 3129 
Q 3597 2675 3597 1894 
z
M 3022 2063 
Q 3016 2534 2758 2815 
Q 2500 3097 2075 3097 
Q 1594 3097 1305 2825 
Q 1016 2553 972 2059 
L 3022 2063 
z
M 2466 5119 
L 3088 5119 
L 2070 3944 
L 1591 3944 
L 2466 5119 
z
" transform="scale(0.015625)"/>
      <path id="DejaVuSans-2c" d="M 750 794 
L 1409 794 
L 1409 256 
L 897 -744 
L 494 -744 
L 750 256 
L 750 794 
z
" transform="scale(0.015625)"/>
      <path id="DejaVuSans-4e" d="M 628 4666 
L 1478 4666 
L 3547 763 
L 3547 4666 
L 4159 4666 
L 4159 0 
L 3309 0 
L 1241 3903 
L 1241 0 
L 628 0 
L 628 4666 
z
" transform="scale(0.015625)"/>
      <path id="DejaVuSans-3d" d="M 678 2906 
L 4684 2906 
L 4684 2381 
L 678 2381 
L 678 2906 
z
M 678 1631 
L 4684 1631 
L 4684 1100 
L 678 1100 
L 678 1631 
z
" transform="scale(0.015625)"/>
      <path id="DejaVuSans-29" d="M 513 4856 
L 1013 4856 
Q 1481 4119 1714 3412 
Q 1947 2706 1947 2009 
Q 1947 1309 1714 600 
Q 1481 -109 1013 -844 
L 513 -844 
Q 928 -128 1133 580 
Q 1338 1288 1338 2009 
Q 1338 2731 1133 3434 
Q 928 4138 513 4856 
z
" transform="scale(0.015625)"/>
     </defs>
     <use xlink:href="#DejaVuSans-50"/>
     <use xlink:href="#DejaVuSans-65" transform="translate(56.677734 0)"/>
     <use xlink:href="#DejaVuSans-20" transform="translate(118.201172 0)"/>
     <use xlink:href="#DejaVuSans-76" transform="translate(149.988281 0)"/>
     <use xlink:href="#DejaVuSans-73" transform="translate(209.167969 0)"/>
     <use xlink:href="#DejaVuSans-20" transform="translate(261.267578 0)"/>
     <use xlink:href="#DejaVuSans-63" transform="translate(293.054688 0)"/>
     <use xlink:href="#DejaVuSans-6f" transform="translate(348.035156 0)"/>
     <use xlink:href="#DejaVuSans-6e" transform="translate(409.216797 0)"/>
     <use xlink:href="#DejaVuSans-6e" transform="translate(472.595703 0)"/>
     <use xlink:href="#DejaVuSans-65" transform="translate(535.974609 0)"/>
     <use xlink:href="#DejaVuSans-63" transform="translate(597.498047 0)"/>
     <use xlink:href="#DejaVuSans-74" transform="translate(652.478516 0)"/>
     <use xlink:href="#DejaVuSans-69" transform="translate(691.6875 0)"/>
     <use xlink:href="#DejaVuSans-76" transform="translate(719.470703 0)"/>
     <use xlink:href="#DejaVuSans-69" transform="translate(778.650391 0)"/>
     <use xlink:href="#DejaVuSans-74" transform="translate(806.433594 0)"/>
     <use xlink:href="#DejaVuSans-79" transform="translate(845.642578 0)"/>
     <use xlink:href="#DejaVuSans-20" transform="translate(904.822266 0)"/>
     <use xlink:href="#DejaVuSans-28" transform="translate(936.609375 0)"/>
     <use xlink:href="#DejaVuSans-45" transform="translate(975.623047 0)"/>
     <use xlink:href="#DejaVuSans-72" transform="translate(1038.806641 0)"/>
     <use xlink:href="#DejaVuSans-64" transform="translate(1078.169922 0)"/>
     <use xlink:href="#DejaVuSans-151" transform="translate(1141.646484 0)"/>
     <use xlink:href="#DejaVuSans-73" transform="translate(1202.828125 0)"/>
     <use xlink:href="#DejaVuSans-2d" transform="translate(1254.927734 0)"/>
     <use xlink:href="#DejaVuSans-52" transform="translate(1291.011719 0)"/>
     <use xlink:href="#DejaVuSans-e9" transform="translate(1355.994141 0)"/>
     <use xlink:href="#DejaVuSans-6e" transform="translate(1417.517578 0)"/>
     <use xlink:href="#DejaVuSans-79" transform="translate(1480.896484 0)"/>
     <use xlink:href="#DejaVuSans-69" transform="translate(1540.076172 0)"/>
     <use xlink:href="#DejaVuSans-2c" transform="translate(1567.859375 0)"/>
     <use xlink:href="#DejaVuSans-20" transform="translate(1599.646484 0)"/>
     <use xlink:href="#DejaVuSans-4e" transform="translate(1631.433594 0)"/>
     <use xlink:href="#DejaVuSans-3d" transform="translate(1706.238281 0)"/>
     <use xlink:href="#DejaVuSans-33" transform="translate(1790.027344 0)"/>
     <use xlink:href="#DejaVuSans-30" transform="translate(1853.650391 0)"/>
     <use xlink:href="#DejaVuSans-29" transform="translate(1917.273438 0)"/>
    </g>
    <!-- Nodes at c_near_crit=0.3747, single-agent Pe=0.859 -->
    <g transform="translate(134.298437 26.39625) scale(0.1 -0.1)">
     <defs>
      <path id="DejaVuSans-5f" d="M 3263 -1063 
L 3263 -1509 
L -63 -1509 
L -63 -1063 
L 3263 -1063 
z
" transform="scale(0.015625)"/>
      <path id="DejaVuSans-37" d="M 525 4666 
L 3525 4666 
L 3525 4397 
L 1831 0 
L 1172 0 
L 2766 4134 
L 525 4134 
L 525 4666 
z
" transform="scale(0.015625)"/>
      <path id="DejaVuSans-6c" d="M 603 4863 
L 1178 4863 
L 1178 0 
L 603 0 
L 603 4863 
z
" transform="scale(0.015625)"/>
      <path id="DejaVuSans-38" d="M 2034 2216 
Q 1584 2216 1326 1975 
Q 1069 1734 1069 1313 
Q 1069 891 1326 650 
Q 1584 409 2034 409 
Q 2484 409 2743 651 
Q 3003 894 3003 1313 
Q 3003 1734 2745 1975 
Q 2488 2216 2034 2216 
z
M 1403 2484 
Q 997 2584 770 2862 
Q 544 3141 544 3541 
Q 544 4100 942 4425 
Q 1341 4750 2034 4750 
Q 2731 4750 3128 4425 
Q 3525 4100 3525 3541 
Q 3525 3141 3298 2862 
Q 3072 2584 2669 2484 
Q 3125 2378 3379 2068 
Q 3634 1759 3634 1313 
Q 3634 634 3220 271 
Q 2806 -91 2034 -91 
Q 1263 -91 848 271 
Q 434 634 434 1313 
Q 434 1759 690 2068 
Q 947 2378 1403 2484 
z
M 1172 3481 
Q 1172 3119 1398 2916 
Q 1625 2713 2034 2713 
Q 2441 2713 2670 2916 
Q 2900 3119 2900 3481 
Q 2900 3844 2670 4047 
Q 2441 4250 2034 4250 
Q 1625 4250 1398 4047 
Q 1172 3844 1172 3481 
z
" transform="scale(0.015625)"/>
      <path id="DejaVuSans-39" d="M 703 97 
L 703 672 
Q 941 559 1184 500 
Q 1428 441 1663 441 
Q 2288 441 2617 861 
Q 2947 1281 2994 2138 
Q 2813 1869 2534 1725 
Q 2256 1581 1919 1581 
Q 1219 1581 811 2004 
Q 403 2428 403 3163 
Q 403 3881 828 4315 
Q 1253 4750 1959 4750 
Q 2769 4750 3195 4129 
Q 3622 3509 3622 2328 
Q 3622 1225 3098 567 
Q 2575 -91 1691 -91 
Q 1453 -91 1209 -44 
Q 966 3 703 97 
z
M 1959 2075 
Q 2384 2075 2632 2365 
Q 2881 2656 2881 3163 
Q 2881 3666 2632 3958 
Q 2384 4250 1959 4250 
Q 1534 4250 1286 3958 
Q 1038 3666 1038 3163 
Q 1038 2656 1286 2365 
Q 1534 2075 1959 2075 
z
" transform="scale(0.015625)"/>
     </defs>
     <use xlink:href="#DejaVuSans-4e"/>
     <use xlink:href="#DejaVuSans-6f" transform="translate(74.804688 0)"/>
     <use xlink:href="#DejaVuSans-64" transform="translate(135.986328 0)"/>
     <use xlink:href="#DejaVuSans-65" transform="translate(199.462891 0)"/>
     <use xlink:href="#DejaVuSans-73" transform="translate(260.986328 0)"/>
     <use xlink:href="#DejaVuSans-20" transform="translate(313.085938 0)"/>
     <use xlink:href="#DejaVuSans-61" transform="translate(344.873047 0)"/>
     <use xlink:href="#DejaVuSans-74" transform="translate(406.152344 0)"/>
     <use xlink:href="#DejaVuSans-20" transform="translate(445.361328 0)"/>
     <use xlink:href="#DejaVuSans-63" transform="translate(477.148438 0)"/>
     <use xlink:href="#DejaVuSans-5f" transform="translate(532.128906 0)"/>
     <use xlink:href="#DejaVuSans-6e" transform="translate(582.128906 0)"/>
     <use xlink:href="#DejaVuSans-65" transform="translate(645.507812 0)"/>
     <use xlink:href="#DejaVuSans-61" transform="translate(707.03125 0)"/>
     <use xlink:href="#DejaVuSans-72" transform="translate(768.310547 0)"/>
     <use xlink:href="#DejaVuSans-5f" transform="translate(809.423828 0)"/>
     <use xlink:href="#DejaVuSans-63" transform="translate(859.423828 0)"/>
     <use xlink:href="#DejaVuSans-72" transform="translate(914.404297 0)"/>
     <use xlink:href="#DejaVuSans-69" transform="translate(955.517578 0)"/>
     <use xlink:href="#DejaVuSans-74" transform="translate(983.300781 0)"/>
     <use xlink:href="#DejaVuSans-3d" transform="translate(1022.509766 0)"/>
     <use xlink:href="#DejaVuSans-30" transform="translate(1106.298828 0)"/>
     <use xlink:href="#DejaVuSans-2e" transform="translate(1169.921875 0)"/>
     <use xlink:href="#DejaVuSans-33" transform="translate(1201.708984 0)"/>
     <use xlink:href="#DejaVuSans-37" transform="translate(1265.332031 0)"/>
     <use xlink:href="#DejaVuSans-34" transform="translate(1328.955078 0)"/>
     <use xlink:href="#DejaVuSans-37" transform="translate(1392.578125 0)"/>
     <use xlink:href="#DejaVuSans-2c" transform="translate(1456.201172 0)"/>
     <use xlink:href="#DejaVuSans-20" transform="translate(1487.988281 0)"/>
     <use xlink:href="#DejaVuSans-73" transform="translate(1519.775391 0)"/>
     <use xlink:href="#DejaVuSans-69" transform="translate(1571.875 0)"/>
     <use xlink:href="#DejaVuSans-6e" transform="translate(1599.658203 0)"/>
     <use xlink:href="#DejaVuSans-67" transform="translate(1663.037109 0)"/>
     <use xlink:href="#DejaVuSans-6c" transform="translate(1726.513672 0)"/>
     <use xlink:href="#DejaVuSans-65" transform="translate(1754.296875 0)"/>
     <use xlink:href="#DejaVuSans-2d" transform="translate(1815.820312 0)"/>
     <use xlink:href="#DejaVuSans-61" transform="translate(1851.904297 0)"/>
     <use xlink:href="#DejaVuSans-67" transform="translate(1913.183594 0)"/>
     <use xlink:href="#DejaVuSans-65" transform="translate(1976.660156 0)"/>
     <use xlink:href="#DejaVuSans-6e" transform="translate(2038.183594 0)"/>
     <use xlink:href="#DejaVuSans-74" transform="translate(2101.5625 0)"/>
     <use xlink:href="#DejaVuSans-20" transform="translate(2140.771484 0)"/>
     <use xlink:href="#DejaVuSans-50" transform="translate(2172.558594 0)"/>
     <use xlink:href="#DejaVuSans-65" transform="translate(2229.236328 0)"/>
     <use xlink:href="#DejaVuSans-3d" transform="translate(2290.759766 0)"/>
     <use xlink:href="#DejaVuSans-30" transform="translate(2374.548828 0)"/>
     <use xlink:href="#DejaVuSans-2e" transform="translate(2438.171875 0)"/>
     <use xlink:href="#DejaVuSans-38" transform="translate(2469.958984 0)"/>
     <use xlink:href="#DejaVuSans-35" transform="translate(2533.582031 0)"/>
     <use xlink:href="#DejaVuSans-39" transform="translate(2597.205078 0)"/>
    </g>
   </g>
   <g id="legend_1">
    <g id="patch_7">
     <path d="M 330.013125 201.67675 
L 485.493125 201.67675 
Q 487.093125 201.67675 487.093125 200.07675 
L 487.093125 142.16425 
Q 487.093125 140.56425 485.493125 140.56425 
L 330.013125 140.56425 
Q 328.413125 140.56425 328.413125 142.16425 
L 328.413125 200.07675 
Q 328.413125 201.67675 330.013125 201.67675 
z
" style="fill: #ffffff; opacity: 0.8; stroke: #cccccc; stroke-linejoin: miter"/>
    </g>
    <g id="line2d_19">
     <path d="M 331.613125 147.043 
L 339.613125 147.043 
L 347.613125 147.043 
" style="fill: none; stroke: #e67e22; stroke-width: 2; stroke-linecap: square"/>
    </g>
    <g id="text_17">
     <!-- Ferro J=0.15 (recommendation) -->
     <g transform="translate(354.013125 149.843) scale(0.08 -0.08)">
      <defs>
       <path id="DejaVuSans-46" d="M 628 4666 
L 3309 4666 
L 3309 4134 
L 1259 4134 
L 1259 2759 
L 3109 2759 
L 3109 2228 
L 1259 2228 
L 1259 0 
L 628 0 
L 628 4666 
z
" transform="scale(0.015625)"/>
       <path id="DejaVuSans-4a" d="M 628 4666 
L 1259 4666 
L 1259 325 
Q 1259 -519 939 -900 
Q 619 -1281 -91 -1281 
L -331 -1281 
L -331 -750 
L -134 -750 
Q 284 -750 456 -515 
Q 628 -281 628 325 
L 628 4666 
z
" transform="scale(0.015625)"/>
       <path id="DejaVuSans-6d" d="M 3328 2828 
Q 3544 3216 3844 3400 
Q 4144 3584 4550 3584 
Q 5097 3584 5394 3201 
Q 5691 2819 5691 2113 
L 5691 0 
L 5113 0 
L 5113 2094 
Q 5113 2597 4934 2840 
Q 4756 3084 4391 3084 
Q 3944 3084 3684 2787 
Q 3425 2491 3425 1978 
L 3425 0 
L 2847 0 
L 2847 2094 
Q 2847 2600 2669 2842 
Q 2491 3084 2119 3084 
Q 1678 3084 1418 2786 
Q 1159 2488 1159 1978 
L 1159 0 
L 581 0 
L 581 3500 
L 1159 3500 
L 1159 2956 
Q 1356 3278 1631 3431 
Q 1906 3584 2284 3584 
Q 2666 3584 2933 3390 
Q 3200 3197 3328 2828 
z
" transform="scale(0.015625)"/>
      </defs>
      <use xlink:href="#DejaVuSans-46"/>
      <use xlink:href="#DejaVuSans-65" transform="translate(52.019531 0)"/>
      <use xlink:href="#DejaVuSans-72" transform="translate(113.542969 0)"/>
      <use xlink:href="#DejaVuSans-72" transform="translate(152.90625 0)"/>
      <use xlink:href="#DejaVuSans-6f" transform="translate(191.769531 0)"/>
      <use xlink:href="#DejaVuSans-20" transform="translate(252.951172 0)"/>
      <use xlink:href="#DejaVuSans-4a" transform="translate(284.738281 0)"/>
      <use xlink:href="#DejaVuSans-3d" transform="translate(314.230469 0)"/>
      <use xlink:href="#DejaVuSans-30" transform="translate(398.019531 0)"/>
      <use xlink:href="#DejaVuSans-2e" transform="translate(461.642578 0)"/>
      <use xlink:href="#DejaVuSans-31" transform="translate(493.429688 0)"/>
      <use xlink:href="#DejaVuSans-35" transform="translate(557.052734 0)"/>
      <use xlink:href="#DejaVuSans-20" transform="translate(620.675781 0)"/>
      <use xlink:href="#DejaVuSans-28" transform="translate(652.462891 0)"/>
      <use xlink:href="#DejaVuSans-72" transform="translate(691.476562 0)"/>
      <use xlink:href="#DejaVuSans-65" transform="translate(730.339844 0)"/>
      <use xlink:href="#DejaVuSans-63" transform="translate(791.863281 0)"/>
      <use xlink:href="#DejaVuSans-6f" transform="translate(846.84375 0)"/>
      <use xlink:href="#DejaVuSans-6d" transform="translate(908.025391 0)"/>
      <use xlink:href="#DejaVuSans-6d" transform="translate(1005.4375 0)"/>
      <use xlink:href="#DejaVuSans-65" transform="translate(1102.849609 0)"/>
      <use xlink:href="#DejaVuSans-6e" transform="translate(1164.373047 0)"/>
      <use xlink:href="#DejaVuSans-64" transform="translate(1227.751953 0)"/>
      <use xlink:href="#DejaVuSans-61" transform="translate(1291.228516 0)"/>
      <use xlink:href="#DejaVuSans-74" transform="translate(1352.507812 0)"/>
      <use xlink:href="#DejaVuSans-69" transform="translate(1391.716797 0)"/>
      <use xlink:href="#DejaVuSans-6f" transform="translate(1419.5 0)"/>
      <use xlink:href="#DejaVuSans-6e" transform="translate(1480.681641 0)"/>
      <use xlink:href="#DejaVuSans-29" transform="translate(1544.060547 0)"/>
     </g>
    </g>
    <g id="line2d_20">
     <path d="M 331.613125 158.7855 
L 339.613125 158.7855 
L 347.613125 158.7855 
" style="fill: none; stroke: #2980b9; stroke-width: 2; stroke-linecap: square"/>
    </g>
    <g id="text_18">
     <!-- Anti  J=-0.52 (counter-cyclical) -->
     <g transform="translate(354.013125 161.5855) scale(0.08 -0.08)">
      <defs>
       <path id="DejaVuSans-41" d="M 2188 4044 
L 1331 1722 
L 3047 1722 
L 2188 4044 
z
M 1831 4666 
L 2547 4666 
L 4325 0 
L 3669 0 
L 3244 1197 
L 1141 1197 
L 716 0 
L 50 0 
L 1831 4666 
z
" transform="scale(0.015625)"/>
       <path id="DejaVuSans-75" d="M 544 1381 
L 544 3500 
L 1119 3500 
L 1119 1403 
Q 1119 906 1312 657 
Q 1506 409 1894 409 
Q 2359 409 2629 706 
Q 2900 1003 2900 1516 
L 2900 3500 
L 3475 3500 
L 3475 0 
L 2900 0 
L 2900 538 
Q 2691 219 2414 64 
Q 2138 -91 1772 -91 
Q 1169 -91 856 284 
Q 544 659 544 1381 
z
M 1991 3584 
L 1991 3584 
z
" transform="scale(0.015625)"/>
      </defs>
      <use xlink:href="#DejaVuSans-41"/>
      <use xlink:href="#DejaVuSans-6e" transform="translate(68.408203 0)"/>
      <use xlink:href="#DejaVuSans-74" transform="translate(131.787109 0)"/>
      <use xlink:href="#DejaVuSans-69" transform="translate(170.996094 0)"/>
      <use xlink:href="#DejaVuSans-20" transform="translate(198.779297 0)"/>
      <use xlink:href="#DejaVuSans-20" transform="translate(230.566406 0)"/>
      <use xlink:href="#DejaVuSans-4a" transform="translate(262.353516 0)"/>
      <use xlink:href="#DejaVuSans-3d" transform="translate(291.845703 0)"/>
      <use xlink:href="#DejaVuSans-2d" transform="translate(375.634766 0)"/>
      <use xlink:href="#DejaVuSans-30" transform="translate(411.71875 0)"/>
      <use xlink:href="#DejaVuSans-2e" transform="translate(475.341797 0)"/>
      <use xlink:href="#DejaVuSans-35" transform="translate(507.128906 0)"/>
      <use xlink:href="#DejaVuSans-32" transform="translate(570.751953 0)"/>
      <use xlink:href="#DejaVuSans-20" transform="translate(634.375 0)"/>
      <use xlink:href="#DejaVuSans-28" transform="translate(666.162109 0)"/>
      <use xlink:href="#DejaVuSans-63" transform="translate(705.175781 0)"/>
      <use xlink:href="#DejaVuSans-6f" transform="translate(760.15625 0)"/>
      <use xlink:href="#DejaVuSans-75" transform="translate(821.337891 0)"/>
      <use xlink:href="#DejaVuSans-6e" transform="translate(884.716797 0)"/>
      <use xlink:href="#DejaVuSans-74" transform="translate(948.095703 0)"/>
      <use xlink:href="#DejaVuSans-65" transform="translate(987.304688 0)"/>
      <use xlink:href="#DejaVuSans-72" transform="translate(1048.828125 0)"/>
      <use xlink:href="#DejaVuSans-2d" transform="translate(1083.566406 0)"/>
      <use xlink:href="#DejaVuSans-63" transform="translate(1119.650391 0)"/>
      <use xlink:href="#DejaVuSans-79" transform="translate(1174.630859 0)"/>
      <use xlink:href="#DejaVuSans-63" transform="translate(1233.810547 0)"/>
      <use xlink:href="#DejaVuSans-6c" transform="translate(1288.791016 0)"/>
      <use xlink:href="#DejaVuSans-69" transform="translate(1316.574219 0)"/>
      <use xlink:href="#DejaVuSans-63" transform="translate(1344.357422 0)"/>
      <use xlink:href="#DejaVuSans-61" transform="translate(1399.337891 0)"/>
      <use xlink:href="#DejaVuSans-6c" transform="translate(1460.617188 0)"/>
      <use xlink:href="#DejaVuSans-29" transform="translate(1488.400391 0)"/>
     </g>
    </g>
    <g id="line2d_21">
     <path d="M 331.613125 170.528 
L 339.613125 170.528 
L 347.613125 170.528 
" style="fill: none; stroke-dasharray: 4.81,2.08; stroke-dashoffset: 0; stroke: #000000; stroke-width: 1.3"/>
    </g>
    <g id="text_19">
     <!-- Single-agent Pe=0.859 -->
     <g transform="translate(354.013125 173.328) scale(0.08 -0.08)">
      <defs>
       <path id="DejaVuSans-53" d="M 3425 4513 
L 3425 3897 
Q 3066 4069 2747 4153 
Q 2428 4238 2131 4238 
Q 1616 4238 1336 4038 
Q 1056 3838 1056 3469 
Q 1056 3159 1242 3001 
Q 1428 2844 1947 2747 
L 2328 2669 
Q 3034 2534 3370 2195 
Q 3706 1856 3706 1288 
Q 3706 609 3251 259 
Q 2797 -91 1919 -91 
Q 1588 -91 1214 -16 
Q 841 59 441 206 
L 441 856 
Q 825 641 1194 531 
Q 1563 422 1919 422 
Q 2459 422 2753 634 
Q 3047 847 3047 1241 
Q 3047 1584 2836 1778 
Q 2625 1972 2144 2069 
L 1759 2144 
Q 1053 2284 737 2584 
Q 422 2884 422 3419 
Q 422 4038 858 4394 
Q 1294 4750 2059 4750 
Q 2388 4750 2728 4690 
Q 3069 4631 3425 4513 
z
" transform="scale(0.015625)"/>
      </defs>
      <use xlink:href="#DejaVuSans-53"/>
      <use xlink:href="#DejaVuSans-69" transform="translate(63.476562 0)"/>
      <use xlink:href="#DejaVuSans-6e" transform="translate(91.259766 0)"/>
      <use xlink:href="#DejaVuSans-67" transform="translate(154.638672 0)"/>
      <use xlink:href="#DejaVuSans-6c" transform="translate(218.115234 0)"/>
      <use xlink:href="#DejaVuSans-65" transform="translate(245.898438 0)"/>
      <use xlink:href="#DejaVuSans-2d" transform="translate(307.421875 0)"/>
      <use xlink:href="#DejaVuSans-61" transform="translate(343.505859 0)"/>
      <use xlink:href="#DejaVuSans-67" transform="translate(404.785156 0)"/>
      <use xlink:href="#DejaVuSans-65" transform="translate(468.261719 0)"/>
      <use xlink:href="#DejaVuSans-6e" transform="translate(529.785156 0)"/>
      <use xlink:href="#DejaVuSans-74" transform="translate(593.164062 0)"/>
      <use xlink:href="#DejaVuSans-20" transform="translate(632.373047 0)"/>
      <use xlink:href="#DejaVuSans-50" transform="translate(664.160156 0)"/>
      <use xlink:href="#DejaVuSans-65" transform="translate(720.837891 0)"/>
      <use xlink:href="#DejaVuSans-3d" transform="translate(782.361328 0)"/>
      <use xlink:href="#DejaVuSans-30" transform="translate(866.150391 0)"/>
      <use xlink:href="#DejaVuSans-2e" transform="translate(929.773438 0)"/>
      <use xlink:href="#DejaVuSans-38" transform="translate(961.560547 0)"/>
      <use xlink:href="#DejaVuSans-35" transform="translate(1025.183594 0)"/>
      <use xlink:href="#DejaVuSans-39" transform="translate(1088.806641 0)"/>
     </g>
    </g>
    <g id="line2d_22">
     <path d="M 331.613125 182.2705 
L 339.613125 182.2705 
L 347.613125 182.2705 
" style="fill: none; stroke-dasharray: 1.5,2.475; stroke-dashoffset: 0; stroke: #ff0000; stroke-width: 1.5"/>
    </g>
    <g id="text_20">
     <!-- Pe = 1 threshold -->
     <g transform="translate(354.013125 185.0705) scale(0.08 -0.08)">
      <defs>
       <path id="DejaVuSans-68" d="M 3513 2113 
L 3513 0 
L 2938 0 
L 2938 2094 
Q 2938 2591 2744 2837 
Q 2550 3084 2163 3084 
Q 1697 3084 1428 2787 
Q 1159 2491 1159 1978 
L 1159 0 
L 581 0 
L 581 4863 
L 1159 4863 
L 1159 2956 
Q 1366 3272 1645 3428 
Q 1925 3584 2291 3584 
Q 2894 3584 3203 3211 
Q 3513 2838 3513 2113 
z
" transform="scale(0.015625)"/>
      </defs>
      <use xlink:href="#DejaVuSans-50"/>
      <use xlink:href="#DejaVuSans-65" transform="translate(56.677734 0)"/>
      <use xlink:href="#DejaVuSans-20" transform="translate(118.201172 0)"/>
      <use xlink:href="#DejaVuSans-3d" transform="translate(149.988281 0)"/>
      <use xlink:href="#DejaVuSans-20" transform="translate(233.777344 0)"/>
      <use xlink:href="#DejaVuSans-31" transform="translate(265.564453 0)"/>
      <use xlink:href="#DejaVuSans-20" transform="translate(329.1875 0)"/>
      <use xlink:href="#DejaVuSans-74" transform="translate(360.974609 0)"/>
      <use xlink:href="#DejaVuSans-68" transform="translate(400.183594 0)"/>
      <use xlink:href="#DejaVuSans-72" transform="translate(463.5625 0)"/>
      <use xlink:href="#DejaVuSans-65" transform="translate(502.425781 0)"/>
      <use xlink:href="#DejaVuSans-73" transform="translate(563.949219 0)"/>
      <use xlink:href="#DejaVuSans-68" transform="translate(616.048828 0)"/>
      <use xlink:href="#DejaVuSans-6f" transform="translate(679.427734 0)"/>
      <use xlink:href="#DejaVuSans-6c" transform="translate(740.609375 0)"/>
      <use xlink:href="#DejaVuSans-64" transform="translate(768.392578 0)"/>
     </g>
    </g>
    <g id="line2d_23">
     <path d="M 331.613125 194.013 
L 339.613125 194.013 
L 347.613125 194.013 
" style="fill: none; stroke-dasharray: 7.68,1.92,1.2,1.92; stroke-dashoffset: 0; stroke: #808080; stroke-opacity: 0.8; stroke-width: 1.2"/>
    </g>
    <g id="text_21">
     <!-- ER percolation p* = 1/N = 0.033 -->
     <g transform="translate(354.013125 196.813) scale(0.08 -0.08)">
      <defs>
       <path id="DejaVuSans-70" d="M 1159 525 
L 1159 -1331 
L 581 -1331 
L 581 3500 
L 1159 3500 
L 1159 2969 
Q 1341 3281 1617 3432 
Q 1894 3584 2278 3584 
Q 2916 3584 3314 3078 
Q 3713 2572 3713 1747 
Q 3713 922 3314 415 
Q 2916 -91 2278 -91 
Q 1894 -91 1617 61 
Q 1341 213 1159 525 
z
M 3116 1747 
Q 3116 2381 2855 2742 
Q 2594 3103 2138 3103 
Q 1681 3103 1420 2742 
Q 1159 2381 1159 1747 
Q 1159 1113 1420 752 
Q 1681 391 2138 391 
Q 2594 391 2855 752 
Q 3116 1113 3116 1747 
z
" transform="scale(0.015625)"/>
       <path id="DejaVuSans-2a" d="M 3009 3897 
L 1888 3291 
L 3009 2681 
L 2828 2375 
L 1778 3009 
L 1778 1831 
L 1422 1831 
L 1422 3009 
L 372 2375 
L 191 2681 
L 1313 3291 
L 191 3897 
L 372 4206 
L 1422 3572 
L 1422 4750 
L 1778 4750 
L 1778 3572 
L 2828 4206 
L 3009 3897 
z
" transform="scale(0.015625)"/>
       <path id="DejaVuSans-2f" d="M 1625 4666 
L 2156 4666 
L 531 -594 
L 0 -594 
L 1625 4666 
z
" transform="scale(0.015625)"/>
      </defs>
      <use xlink:href="#DejaVuSans-45"/>
      <use xlink:href="#DejaVuSans-52" transform="translate(63.183594 0)"/>
      <use xlink:href="#DejaVuSans-20" transform="translate(132.666016 0)"/>
      <use xlink:href="#DejaVuSans-70" transform="translate(164.453125 0)"/>
      <use xlink:href="#DejaVuSans-65" transform="translate(227.929688 0)"/>
      <use xlink:href="#DejaVuSans-72" transform="translate(289.453125 0)"/>
      <use xlink:href="#DejaVuSans-63" transform="translate(328.316406 0)"/>
      <use xlink:href="#DejaVuSans-6f" transform="translate(383.296875 0)"/>
      <use xlink:href="#DejaVuSans-6c" transform="translate(444.478516 0)"/>
      <use xlink:href="#DejaVuSans-61" transform="translate(472.261719 0)"/>
      <use xlink:href="#DejaVuSans-74" transform="translate(533.541016 0)"/>
      <use xlink:href="#DejaVuSans-69" transform="translate(572.75 0)"/>
      <use xlink:href="#DejaVuSans-6f" transform="translate(600.533203 0)"/>
      <use xlink:href="#DejaVuSans-6e" transform="translate(661.714844 0)"/>
      <use xlink:href="#DejaVuSans-20" transform="translate(725.09375 0)"/>
      <use xlink:href="#DejaVuSans-70" transform="translate(756.880859 0)"/>
      <use xlink:href="#DejaVuSans-2a" transform="translate(820.357422 0)"/>
      <use xlink:href="#DejaVuSans-20" transform="translate(870.357422 0)"/>
      <use xlink:href="#DejaVuSans-3d" transform="translate(902.144531 0)"/>
      <use xlink:href="#DejaVuSans-20" transform="translate(985.933594 0)"/>
      <use xlink:href="#DejaVuSans-31" transform="translate(1017.720703 0)"/>
      <use xlink:href="#DejaVuSans-2f" transform="translate(1081.34375 0)"/>
      <use xlink:href="#DejaVuSans-4e" transform="translate(1115.035156 0)"/>
      <use xlink:href="#DejaVuSans-20" transform="translate(1189.839844 0)"/>
      <use xlink:href="#DejaVuSans-3d" transform="translate(1221.626953 0)"/>
      <use xlink:href="#DejaVuSans-20" transform="translate(1305.416016 0)"/>
      <use xlink:href="#DejaVuSans-30" transform="translate(1337.203125 0)"/>
      <use xlink:href="#DejaVuSans-2e" transform="translate(1400.826172 0)"/>
      <use xlink:href="#DejaVuSans-30" transform="translate(1432.613281 0)"/>
      <use xlink:href="#DejaVuSans-33" transform="translate(1496.236328 0)"/>
      <use xlink:href="#DejaVuSans-33" transform="translate(1559.859375 0)"/>
     </g>
    </g>
   </g>
  </g>
  <g id="axes_2">
   <g id="patch_8">
    <path d="M 538.003125 309.84475 
L 985.508125 309.84475 
L 985.508125 32.39625 
L 538.003125 32.39625 
z
" style="fill: #ffffff"/>
   </g>
   <g id="matplotlib.axis_3">
    <g id="xtick_8">
     <g id="line2d_24">
      <g>
       <use xlink:href="#m194b0f379c" x="538.003125" y="309.84475" style="stroke: #000000; stroke-width: 0.8"/>
      </g>
     </g>
     <g id="text_22">
      <!-- 0.0 -->
      <g transform="translate(530.051563 324.443188) scale(0.1 -0.1)">
       <use xlink:href="#DejaVuSans-30"/>
       <use xlink:href="#DejaVuSans-2e" transform="translate(63.623047 0)"/>
       <use xlink:href="#DejaVuSans-30" transform="translate(95.410156 0)"/>
      </g>
     </g>
    </g>
    <g id="xtick_9">
     <g id="line2d_25">
      <g>
       <use xlink:href="#m194b0f379c" x="612.587292" y="309.84475" style="stroke: #000000; stroke-width: 0.8"/>
      </g>
     </g>
     <g id="text_23">
      <!-- 0.1 -->
      <g transform="translate(604.635729 324.443188) scale(0.1 -0.1)">
       <use xlink:href="#DejaVuSans-30"/>
       <use xlink:href="#DejaVuSans-2e" transform="translate(63.623047 0)"/>
       <use xlink:href="#DejaVuSans-31" transform="translate(95.410156 0)"/>
      </g>
     </g>
    </g>
    <g id="xtick_10">
     <g id="line2d_26">
      <g>
       <use xlink:href="#m194b0f379c" x="687.171458" y="309.84475" style="stroke: #000000; stroke-width: 0.8"/>
      </g>
     </g>
     <g id="text_24">
      <!-- 0.2 -->
      <g transform="translate(679.219896 324.443188) scale(0.1 -0.1)">
       <use xlink:href="#DejaVuSans-30"/>
       <use xlink:href="#DejaVuSans-2e" transform="translate(63.623047 0)"/>
       <use xlink:href="#DejaVuSans-32" transform="translate(95.410156 0)"/>
      </g>
     </g>
    </g>
    <g id="xtick_11">
     <g id="line2d_27">
      <g>
       <use xlink:href="#m194b0f379c" x="761.755625" y="309.84475" style="stroke: #000000; stroke-width: 0.8"/>
      </g>
     </g>
     <g id="text_25">
      <!-- 0.3 -->
      <g transform="translate(753.804063 324.443188) scale(0.1 -0.1)">
       <use xlink:href="#DejaVuSans-30"/>
       <use xlink:href="#DejaVuSans-2e" transform="translate(63.623047 0)"/>
       <use xlink:href="#DejaVuSans-33" transform="translate(95.410156 0)"/>
      </g>
     </g>
    </g>
    <g id="xtick_12">
     <g id="line2d_28">
      <g>
       <use xlink:href="#m194b0f379c" x="836.339792" y="309.84475" style="stroke: #000000; stroke-width: 0.8"/>
      </g>
     </g>
     <g id="text_26">
      <!-- 0.4 -->
      <g transform="translate(828.388229 324.443188) scale(0.1 -0.1)">
       <use xlink:href="#DejaVuSans-30"/>
       <use xlink:href="#DejaVuSans-2e" transform="translate(63.623047 0)"/>
       <use xlink:href="#DejaVuSans-34" transform="translate(95.410156 0)"/>
      </g>
     </g>
    </g>
    <g id="xtick_13">
     <g id="line2d_29">
      <g>
       <use xlink:href="#m194b0f379c" x="910.923958" y="309.84475" style="stroke: #000000; stroke-width: 0.8"/>
      </g>
     </g>
     <g id="text_27">
      <!-- 0.5 -->
      <g transform="translate(902.972396 324.443188) scale(0.1 -0.1)">
       <use xlink:href="#DejaVuSans-30"/>
       <use xlink:href="#DejaVuSans-2e" transform="translate(63.623047 0)"/>
       <use xlink:href="#DejaVuSans-35" transform="translate(95.410156 0)"/>
      </g>
     </g>
    </g>
    <g id="xtick_14">
     <g id="line2d_30">
      <g>
       <use xlink:href="#m194b0f379c" x="985.508125" y="309.84475" style="stroke: #000000; stroke-width: 0.8"/>
      </g>
     </g>
     <g id="text_28">
      <!-- 0.6 -->
      <g transform="translate(977.556563 324.443188) scale(0.1 -0.1)">
       <use xlink:href="#DejaVuSans-30"/>
       <use xlink:href="#DejaVuSans-2e" transform="translate(63.623047 0)"/>
       <use xlink:href="#DejaVuSans-36" transform="translate(95.410156 0)"/>
      </g>
     </g>
    </g>
    <g id="text_29">
     <!-- Edge density $p$ -->
     <g transform="translate(720.725625 338.882875) scale(0.11 -0.11)">
      <use xlink:href="#DejaVuSans-45" transform="translate(0 0.015625)"/>
      <use xlink:href="#DejaVuSans-64" transform="translate(63.183594 0.015625)"/>
      <use xlink:href="#DejaVuSans-67" transform="translate(126.660156 0.015625)"/>
      <use xlink:href="#DejaVuSans-65" transform="translate(190.136719 0.015625)"/>
      <use xlink:href="#DejaVuSans-20" transform="translate(251.660156 0.015625)"/>
      <use xlink:href="#DejaVuSans-64" transform="translate(283.447266 0.015625)"/>
      <use xlink:href="#DejaVuSans-65" transform="translate(346.923828 0.015625)"/>
      <use xlink:href="#DejaVuSans-6e" transform="translate(408.447266 0.015625)"/>
      <use xlink:href="#DejaVuSans-73" transform="translate(471.826172 0.015625)"/>
      <use xlink:href="#DejaVuSans-69" transform="translate(523.925781 0.015625)"/>
      <use xlink:href="#DejaVuSans-74" transform="translate(551.708984 0.015625)"/>
      <use xlink:href="#DejaVuSans-79" transform="translate(590.917969 0.015625)"/>
      <use xlink:href="#DejaVuSans-20" transform="translate(650.097656 0.015625)"/>
      <use xlink:href="#DejaVuSans-Oblique-70" transform="translate(681.884766 0.015625)"/>
     </g>
    </g>
   </g>
   <g id="matplotlib.axis_4">
    <g id="ytick_7">
     <g id="line2d_31">
      <g>
       <use xlink:href="#m4a742af974" x="538.003125" y="309.84475" style="stroke: #000000; stroke-width: 0.8"/>
      </g>
     </g>
     <g id="text_30">
      <!-- 0 -->
      <g transform="translate(524.640625 313.643969) scale(0.1 -0.1)">
       <use xlink:href="#DejaVuSans-30"/>
      </g>
     </g>
    </g>
    <g id="ytick_8">
     <g id="line2d_32">
      <g>
       <use xlink:href="#m4a742af974" x="538.003125" y="253.913799" style="stroke: #000000; stroke-width: 0.8"/>
      </g>
     </g>
     <g id="text_31">
      <!-- 1 -->
      <g transform="translate(524.640625 257.713018) scale(0.1 -0.1)">
       <use xlink:href="#DejaVuSans-31"/>
      </g>
     </g>
    </g>
    <g id="ytick_9">
     <g id="line2d_33">
      <g>
       <use xlink:href="#m4a742af974" x="538.003125" y="197.982849" style="stroke: #000000; stroke-width: 0.8"/>
      </g>
     </g>
     <g id="text_32">
      <!-- 2 -->
      <g transform="translate(524.640625 201.782067) scale(0.1 -0.1)">
       <use xlink:href="#DejaVuSans-32"/>
      </g>
     </g>
    </g>
    <g id="ytick_10">
     <g id="line2d_34">
      <g>
       <use xlink:href="#m4a742af974" x="538.003125" y="142.051898" style="stroke: #000000; stroke-width: 0.8"/>
      </g>
     </g>
     <g id="text_33">
      <!-- 3 -->
      <g transform="translate(524.640625 145.851117) scale(0.1 -0.1)">
       <use xlink:href="#DejaVuSans-33"/>
      </g>
     </g>
    </g>
    <g id="ytick_11">
     <g id="line2d_35">
      <g>
       <use xlink:href="#m4a742af974" x="538.003125" y="86.120947" style="stroke: #000000; stroke-width: 0.8"/>
      </g>
     </g>
     <g id="text_34">
      <!-- 4 -->
      <g transform="translate(524.640625 89.920166) scale(0.1 -0.1)">
       <use xlink:href="#DejaVuSans-34"/>
      </g>
     </g>
    </g>
    <g id="text_35">
     <!-- Pe amplification ratio (network / single) -->
     <g transform="translate(518.352969 279.473938) rotate(-90) scale(0.11 -0.11)">
      <defs>
       <path id="DejaVuSans-66" d="M 2375 4863 
L 2375 4384 
L 1825 4384 
Q 1516 4384 1395 4259 
Q 1275 4134 1275 3809 
L 1275 3500 
L 2222 3500 
L 2222 3053 
L 1275 3053 
L 1275 0 
L 697 0 
L 697 3053 
L 147 3053 
L 147 3500 
L 697 3500 
L 697 3744 
Q 697 4328 969 4595 
Q 1241 4863 1831 4863 
L 2375 4863 
z
" transform="scale(0.015625)"/>
      </defs>
      <use xlink:href="#DejaVuSans-50"/>
      <use xlink:href="#DejaVuSans-65" transform="translate(56.677734 0)"/>
      <use xlink:href="#DejaVuSans-20" transform="translate(118.201172 0)"/>
      <use xlink:href="#DejaVuSans-61" transform="translate(149.988281 0)"/>
      <use xlink:href="#DejaVuSans-6d" transform="translate(211.267578 0)"/>
      <use xlink:href="#DejaVuSans-70" transform="translate(308.679688 0)"/>
      <use xlink:href="#DejaVuSans-6c" transform="translate(372.15625 0)"/>
      <use xlink:href="#DejaVuSans-69" transform="translate(399.939453 0)"/>
      <use xlink:href="#DejaVuSans-66" transform="translate(427.722656 0)"/>
      <use xlink:href="#DejaVuSans-69" transform="translate(462.927734 0)"/>
      <use xlink:href="#DejaVuSans-63" transform="translate(490.710938 0)"/>
      <use xlink:href="#DejaVuSans-61" transform="translate(545.691406 0)"/>
      <use xlink:href="#DejaVuSans-74" transform="translate(606.970703 0)"/>
      <use xlink:href="#DejaVuSans-69" transform="translate(646.179688 0)"/>
      <use xlink:href="#DejaVuSans-6f" transform="translate(673.962891 0)"/>
      <use xlink:href="#DejaVuSans-6e" transform="translate(735.144531 0)"/>
      <use xlink:href="#DejaVuSans-20" transform="translate(798.523438 0)"/>
      <use xlink:href="#DejaVuSans-72" transform="translate(830.310547 0)"/>
      <use xlink:href="#DejaVuSans-61" transform="translate(871.423828 0)"/>
      <use xlink:href="#DejaVuSans-74" transform="translate(932.703125 0)"/>
      <use xlink:href="#DejaVuSans-69" transform="translate(971.912109 0)"/>
      <use xlink:href="#DejaVuSans-6f" transform="translate(999.695312 0)"/>
      <use xlink:href="#DejaVuSans-20" transform="translate(1060.876953 0)"/>
      <use xlink:href="#DejaVuSans-28" transform="translate(1092.664062 0)"/>
      <use xlink:href="#DejaVuSans-6e" transform="translate(1131.677734 0)"/>
      <use xlink:href="#DejaVuSans-65" transform="translate(1195.056641 0)"/>
      <use xlink:href="#DejaVuSans-74" transform="translate(1256.580078 0)"/>
      <use xlink:href="#DejaVuSans-77" transform="translate(1295.789062 0)"/>
      <use xlink:href="#DejaVuSans-6f" transform="translate(1377.576172 0)"/>
      <use xlink:href="#DejaVuSans-72" transform="translate(1438.757812 0)"/>
      <use xlink:href="#DejaVuSans-6b" transform="translate(1479.871094 0)"/>
      <use xlink:href="#DejaVuSans-20" transform="translate(1537.78125 0)"/>
      <use xlink:href="#DejaVuSans-2f" transform="translate(1569.568359 0)"/>
      <use xlink:href="#DejaVuSans-20" transform="translate(1603.259766 0)"/>
      <use xlink:href="#DejaVuSans-73" transform="translate(1635.046875 0)"/>
      <use xlink:href="#DejaVuSans-69" transform="translate(1687.146484 0)"/>
      <use xlink:href="#DejaVuSans-6e" transform="translate(1714.929688 0)"/>
      <use xlink:href="#DejaVuSans-67" transform="translate(1778.308594 0)"/>
      <use xlink:href="#DejaVuSans-6c" transform="translate(1841.785156 0)"/>
      <use xlink:href="#DejaVuSans-65" transform="translate(1869.568359 0)"/>
      <use xlink:href="#DejaVuSans-29" transform="translate(1931.091797 0)"/>
     </g>
    </g>
   </g>
   <g id="line2d_36">
    <path d="M 545.461542 207.173497 
L 558.404088 155.320975 
L 571.346635 127.56892 
L 584.289181 101.2775 
L 597.231728 93.974328 
L 610.174275 91.053059 
L 623.116821 80.098301 
L 636.059368 83.01957 
L 649.001914 81.558936 
L 661.944461 80.098301 
L 674.887007 78.637667 
L 687.829554 78.637667 
L 700.7721 78.637667 
L 713.714647 78.637667 
L 726.657194 79.367984 
L 739.59974 78.637667 
L 752.542287 78.637667 
L 765.484833 78.637667 
L 778.42738 78.637667 
L 791.369926 78.637667 
L 804.312473 78.637667 
L 817.25502 78.637667 
L 830.197566 78.637667 
L 843.140113 78.637667 
L 856.082659 78.637667 
L 869.025206 78.637667 
L 881.967752 78.637667 
L 894.910299 78.637667 
L 907.852846 78.637667 
L 920.795392 78.637667 
L 933.737939 78.637667 
L 946.680485 78.637667 
L 959.623032 78.637667 
L 972.565578 78.637667 
L 985.508125 78.637667 
" clip-path="url(#pa17a6af02e)" style="fill: none; stroke: #e67e22; stroke-width: 2; stroke-linecap: square"/>
   </g>
   <g id="line2d_37">
    <path clip-path="url(#pa17a6af02e)" style="fill: none; stroke: #2980b9; stroke-width: 2; stroke-linecap: square"/>
   </g>
   <g id="line2d_38">
    <path d="M 538.003125 253.913799 
L 985.508125 253.913799 
" clip-path="url(#pa17a6af02e)" style="fill: none; stroke-dasharray: 4.81,2.08; stroke-dashoffset: 0; stroke: #000000; stroke-width: 1.3"/>
   </g>
   <g id="line2d_39">
    <path d="M 562.864514 309.84475 
L 562.864514 32.39625 
" clip-path="url(#pa17a6af02e)" style="fill: none; stroke-dasharray: 7.68,1.92,1.2,1.92; stroke-dashoffset: 0; stroke: #808080; stroke-opacity: 0.8; stroke-width: 1.2"/>
   </g>
   <g id="line2d_40">
    <path d="M 558.404088 309.84475 
L 558.404088 32.39625 
" clip-path="url(#pa17a6af02e)" style="fill: none; stroke-dasharray: 1.5,2.475; stroke-dashoffset: 0; stroke: #e67e22; stroke-width: 1.5"/>
   </g>
   <g id="patch_9">
    <path d="M 538.003125 309.84475 
L 538.003125 32.39625 
" style="fill: none; stroke: #000000; stroke-width: 0.8; stroke-linejoin: miter; stroke-linecap: square"/>
   </g>
   <g id="patch_10">
    <path d="M 985.508125 309.84475 
L 985.508125 32.39625 
" style="fill: none; stroke: #000000; stroke-width: 0.8; stroke-linejoin: miter; stroke-linecap: square"/>
   </g>
   <g id="patch_11">
    <path d="M 538.003125 309.84475 
L 985.508125 309.84475 
" style="fill: none; stroke: #000000; stroke-width: 0.8; stroke-linejoin: miter; stroke-linecap: square"/>
   </g>
   <g id="patch_12">
    <path d="M 538.003125 32.39625 
L 985.508125 32.39625 
" style="fill: none; stroke: #000000; stroke-width: 0.8; stroke-linejoin: miter; stroke-linecap: square"/>
   </g>
   <g id="text_36">
    <!-- Pe amplification grows with connectivity -->
    <g transform="translate(660.99625 15.198438) scale(0.1 -0.1)">
     <use xlink:href="#DejaVuSans-50"/>
     <use xlink:href="#DejaVuSans-65" transform="translate(56.677734 0)"/>
     <use xlink:href="#DejaVuSans-20" transform="translate(118.201172 0)"/>
     <use xlink:href="#DejaVuSans-61" transform="translate(149.988281 0)"/>
     <use xlink:href="#DejaVuSans-6d" transform="translate(211.267578 0)"/>
     <use xlink:href="#DejaVuSans-70" transform="translate(308.679688 0)"/>
     <use xlink:href="#DejaVuSans-6c" transform="translate(372.15625 0)"/>
     <use xlink:href="#DejaVuSans-69" transform="translate(399.939453 0)"/>
     <use xlink:href="#DejaVuSans-66" transform="translate(427.722656 0)"/>
     <use xlink:href="#DejaVuSans-69" transform="translate(462.927734 0)"/>
     <use xlink:href="#DejaVuSans-63" transform="translate(490.710938 0)"/>
     <use xlink:href="#DejaVuSans-61" transform="translate(545.691406 0)"/>
     <use xlink:href="#DejaVuSans-74" transform="translate(606.970703 0)"/>
     <use xlink:href="#DejaVuSans-69" transform="translate(646.179688 0)"/>
     <use xlink:href="#DejaVuSans-6f" transform="translate(673.962891 0)"/>
     <use xlink:href="#DejaVuSans-6e" transform="translate(735.144531 0)"/>
     <use xlink:href="#DejaVuSans-20" transform="translate(798.523438 0)"/>
     <use xlink:href="#DejaVuSans-67" transform="translate(830.310547 0)"/>
     <use xlink:href="#DejaVuSans-72" transform="translate(893.787109 0)"/>
     <use xlink:href="#DejaVuSans-6f" transform="translate(932.650391 0)"/>
     <use xlink:href="#DejaVuSans-77" transform="translate(993.832031 0)"/>
     <use xlink:href="#DejaVuSans-73" transform="translate(1075.619141 0)"/>
     <use xlink:href="#DejaVuSans-20" transform="translate(1127.71875 0)"/>
     <use xlink:href="#DejaVuSans-77" transform="translate(1159.505859 0)"/>
     <use xlink:href="#DejaVuSans-69" transform="translate(1241.292969 0)"/>
     <use xlink:href="#DejaVuSans-74" transform="translate(1269.076172 0)"/>
     <use xlink:href="#DejaVuSans-68" transform="translate(1308.285156 0)"/>
     <use xlink:href="#DejaVuSans-20" transform="translate(1371.664062 0)"/>
     <use xlink:href="#DejaVuSans-63" transform="translate(1403.451172 0)"/>
     <use xlink:href="#DejaVuSans-6f" transform="translate(1458.431641 0)"/>
     <use xlink:href="#DejaVuSans-6e" transform="translate(1519.613281 0)"/>
     <use xlink:href="#DejaVuSans-6e" transform="translate(1582.992188 0)"/>
     <use xlink:href="#DejaVuSans-65" transform="translate(1646.371094 0)"/>
     <use xlink:href="#DejaVuSans-63" transform="translate(1707.894531 0)"/>
     <use xlink:href="#DejaVuSans-74" transform="translate(1762.875 0)"/>
     <use xlink:href="#DejaVuSans-69" transform="translate(1802.083984 0)"/>
     <use xlink:href="#DejaVuSans-76" transform="translate(1829.867188 0)"/>
     <use xlink:href="#DejaVuSans-69" transform="translate(1889.046875 0)"/>
     <use xlink:href="#DejaVuSans-74" transform="translate(1916.830078 0)"/>
     <use xlink:href="#DejaVuSans-79" transform="translate(1956.039062 0)"/>
    </g>
    <!-- (above percolation threshold) -->
    <g transform="translate(687.765 26.39625) scale(0.1 -0.1)">
     <defs>
      <path id="DejaVuSans-62" d="M 3116 1747 
Q 3116 2381 2855 2742 
Q 2594 3103 2138 3103 
Q 1681 3103 1420 2742 
Q 1159 2381 1159 1747 
Q 1159 1113 1420 752 
Q 1681 391 2138 391 
Q 2594 391 2855 752 
Q 3116 1113 3116 1747 
z
M 1159 2969 
Q 1341 3281 1617 3432 
Q 1894 3584 2278 3584 
Q 2916 3584 3314 3078 
Q 3713 2572 3713 1747 
Q 3713 922 3314 415 
Q 2916 -91 2278 -91 
Q 1894 -91 1617 61 
Q 1341 213 1159 525 
L 1159 0 
L 581 0 
L 581 4863 
L 1159 4863 
L 1159 2969 
z
" transform="scale(0.015625)"/>
     </defs>
     <use xlink:href="#DejaVuSans-28"/>
     <use xlink:href="#DejaVuSans-61" transform="translate(39.013672 0)"/>
     <use xlink:href="#DejaVuSans-62" transform="translate(100.292969 0)"/>
     <use xlink:href="#DejaVuSans-6f" transform="translate(163.769531 0)"/>
     <use xlink:href="#DejaVuSans-76" transform="translate(224.951172 0)"/>
     <use xlink:href="#DejaVuSans-65" transform="translate(284.130859 0)"/>
     <use xlink:href="#DejaVuSans-20" transform="translate(345.654297 0)"/>
     <use xlink:href="#DejaVuSans-70" transform="translate(377.441406 0)"/>
     <use xlink:href="#DejaVuSans-65" transform="translate(440.917969 0)"/>
     <use xlink:href="#DejaVuSans-72" transform="translate(502.441406 0)"/>
     <use xlink:href="#DejaVuSans-63" transform="translate(541.304688 0)"/>
     <use xlink:href="#DejaVuSans-6f" transform="translate(596.285156 0)"/>
     <use xlink:href="#DejaVuSans-6c" transform="translate(657.466797 0)"/>
     <use xlink:href="#DejaVuSans-61" transform="translate(685.25 0)"/>
     <use xlink:href="#DejaVuSans-74" transform="translate(746.529297 0)"/>
     <use xlink:href="#DejaVuSans-69" transform="translate(785.738281 0)"/>
     <use xlink:href="#DejaVuSans-6f" transform="translate(813.521484 0)"/>
     <use xlink:href="#DejaVuSans-6e" transform="translate(874.703125 0)"/>
     <use xlink:href="#DejaVuSans-20" transform="translate(938.082031 0)"/>
     <use xlink:href="#DejaVuSans-74" transform="translate(969.869141 0)"/>
     <use xlink:href="#DejaVuSans-68" transform="translate(1009.078125 0)"/>
     <use xlink:href="#DejaVuSans-72" transform="translate(1072.457031 0)"/>
     <use xlink:href="#DejaVuSans-65" transform="translate(1111.320312 0)"/>
     <use xlink:href="#DejaVuSans-73" transform="translate(1172.84375 0)"/>
     <use xlink:href="#DejaVuSans-68" transform="translate(1224.943359 0)"/>
     <use xlink:href="#DejaVuSans-6f" transform="translate(1288.322266 0)"/>
     <use xlink:href="#DejaVuSans-6c" transform="translate(1349.503906 0)"/>
     <use xlink:href="#DejaVuSans-64" transform="translate(1377.287109 0)"/>
     <use xlink:href="#DejaVuSans-29" transform="translate(1440.763672 0)"/>
    </g>
   </g>
   <g id="legend_2">
    <g id="patch_13">
     <path d="M 840.280625 201.67675 
L 979.908125 201.67675 
Q 981.508125 201.67675 981.508125 200.07675 
L 981.508125 142.16425 
Q 981.508125 140.56425 979.908125 140.56425 
L 840.280625 140.56425 
Q 838.680625 140.56425 838.680625 142.16425 
L 838.680625 200.07675 
Q 838.680625 201.67675 840.280625 201.67675 
z
" style="fill: #ffffff; opacity: 0.8; stroke: #cccccc; stroke-linejoin: miter"/>
    </g>
    <g id="line2d_41">
     <path d="M 841.880625 147.043 
L 849.880625 147.043 
L 857.880625 147.043 
" style="fill: none; stroke: #e67e22; stroke-width: 2; stroke-linecap: square"/>
    </g>
    <g id="text_37">
     <!-- Ferro amplification -->
     <g transform="translate(864.280625 149.843) scale(0.08 -0.08)">
      <use xlink:href="#DejaVuSans-46"/>
      <use xlink:href="#DejaVuSans-65" transform="translate(52.019531 0)"/>
      <use xlink:href="#DejaVuSans-72" transform="translate(113.542969 0)"/>
      <use xlink:href="#DejaVuSans-72" transform="translate(152.90625 0)"/>
      <use xlink:href="#DejaVuSans-6f" transform="translate(191.769531 0)"/>
      <use xlink:href="#DejaVuSans-20" transform="translate(252.951172 0)"/>
      <use xlink:href="#DejaVuSans-61" transform="translate(284.738281 0)"/>
      <use xlink:href="#DejaVuSans-6d" transform="translate(346.017578 0)"/>
      <use xlink:href="#DejaVuSans-70" transform="translate(443.429688 0)"/>
      <use xlink:href="#DejaVuSans-6c" transform="translate(506.90625 0)"/>
      <use xlink:href="#DejaVuSans-69" transform="translate(534.689453 0)"/>
      <use xlink:href="#DejaVuSans-66" transform="translate(562.472656 0)"/>
      <use xlink:href="#DejaVuSans-69" transform="translate(597.677734 0)"/>
      <use xlink:href="#DejaVuSans-63" transform="translate(625.460938 0)"/>
      <use xlink:href="#DejaVuSans-61" transform="translate(680.441406 0)"/>
      <use xlink:href="#DejaVuSans-74" transform="translate(741.720703 0)"/>
      <use xlink:href="#DejaVuSans-69" transform="translate(780.929688 0)"/>
      <use xlink:href="#DejaVuSans-6f" transform="translate(808.712891 0)"/>
      <use xlink:href="#DejaVuSans-6e" transform="translate(869.894531 0)"/>
     </g>
    </g>
    <g id="line2d_42">
     <path d="M 841.880625 158.7855 
L 849.880625 158.7855 
L 857.880625 158.7855 
" style="fill: none; stroke: #2980b9; stroke-width: 2; stroke-linecap: square"/>
    </g>
    <g id="text_38">
     <!-- Anti suppression -->
     <g transform="translate(864.280625 161.5855) scale(0.08 -0.08)">
      <use xlink:href="#DejaVuSans-41"/>
      <use xlink:href="#DejaVuSans-6e" transform="translate(68.408203 0)"/>
      <use xlink:href="#DejaVuSans-74" transform="translate(131.787109 0)"/>
      <use xlink:href="#DejaVuSans-69" transform="translate(170.996094 0)"/>
      <use xlink:href="#DejaVuSans-20" transform="translate(198.779297 0)"/>
      <use xlink:href="#DejaVuSans-73" transform="translate(230.566406 0)"/>
      <use xlink:href="#DejaVuSans-75" transform="translate(282.666016 0)"/>
      <use xlink:href="#DejaVuSans-70" transform="translate(346.044922 0)"/>
      <use xlink:href="#DejaVuSans-70" transform="translate(409.521484 0)"/>
      <use xlink:href="#DejaVuSans-72" transform="translate(472.998047 0)"/>
      <use xlink:href="#DejaVuSans-65" transform="translate(511.861328 0)"/>
      <use xlink:href="#DejaVuSans-73" transform="translate(573.384766 0)"/>
      <use xlink:href="#DejaVuSans-73" transform="translate(625.484375 0)"/>
      <use xlink:href="#DejaVuSans-69" transform="translate(677.583984 0)"/>
      <use xlink:href="#DejaVuSans-6f" transform="translate(705.367188 0)"/>
      <use xlink:href="#DejaVuSans-6e" transform="translate(766.548828 0)"/>
     </g>
    </g>
    <g id="line2d_43">
     <path d="M 841.880625 170.528 
L 849.880625 170.528 
L 857.880625 170.528 
" style="fill: none; stroke-dasharray: 4.81,2.08; stroke-dashoffset: 0; stroke: #000000; stroke-width: 1.3"/>
    </g>
    <g id="text_39">
     <!-- No network effect -->
     <g transform="translate(864.280625 173.328) scale(0.08 -0.08)">
      <use xlink:href="#DejaVuSans-4e"/>
      <use xlink:href="#DejaVuSans-6f" transform="translate(74.804688 0)"/>
      <use xlink:href="#DejaVuSans-20" transform="translate(135.986328 0)"/>
      <use xlink:href="#DejaVuSans-6e" transform="translate(167.773438 0)"/>
      <use xlink:href="#DejaVuSans-65" transform="translate(231.152344 0)"/>
      <use xlink:href="#DejaVuSans-74" transform="translate(292.675781 0)"/>
      <use xlink:href="#DejaVuSans-77" transform="translate(331.884766 0)"/>
      <use xlink:href="#DejaVuSans-6f" transform="translate(413.671875 0)"/>
      <use xlink:href="#DejaVuSans-72" transform="translate(474.853516 0)"/>
      <use xlink:href="#DejaVuSans-6b" transform="translate(515.966797 0)"/>
      <use xlink:href="#DejaVuSans-20" transform="translate(573.876953 0)"/>
      <use xlink:href="#DejaVuSans-65" transform="translate(605.664062 0)"/>
      <use xlink:href="#DejaVuSans-66" transform="translate(667.1875 0)"/>
      <use xlink:href="#DejaVuSans-66" transform="translate(702.392578 0)"/>
      <use xlink:href="#DejaVuSans-65" transform="translate(737.597656 0)"/>
      <use xlink:href="#DejaVuSans-63" transform="translate(799.121094 0)"/>
      <use xlink:href="#DejaVuSans-74" transform="translate(854.101562 0)"/>
     </g>
    </g>
    <g id="line2d_44">
     <path d="M 841.880625 182.2705 
L 849.880625 182.2705 
L 857.880625 182.2705 
" style="fill: none; stroke-dasharray: 7.68,1.92,1.2,1.92; stroke-dashoffset: 0; stroke: #808080; stroke-opacity: 0.8; stroke-width: 1.2"/>
    </g>
    <g id="text_40">
     <!-- ER percolation p* = 0.033 -->
     <g transform="translate(864.280625 185.0705) scale(0.08 -0.08)">
      <use xlink:href="#DejaVuSans-45"/>
      <use xlink:href="#DejaVuSans-52" transform="translate(63.183594 0)"/>
      <use xlink:href="#DejaVuSans-20" transform="translate(132.666016 0)"/>
      <use xlink:href="#DejaVuSans-70" transform="translate(164.453125 0)"/>
      <use xlink:href="#DejaVuSans-65" transform="translate(227.929688 0)"/>
      <use xlink:href="#DejaVuSans-72" transform="translate(289.453125 0)"/>
      <use xlink:href="#DejaVuSans-63" transform="translate(328.316406 0)"/>
      <use xlink:href="#DejaVuSans-6f" transform="translate(383.296875 0)"/>
      <use xlink:href="#DejaVuSans-6c" transform="translate(444.478516 0)"/>
      <use xlink:href="#DejaVuSans-61" transform="translate(472.261719 0)"/>
      <use xlink:href="#DejaVuSans-74" transform="translate(533.541016 0)"/>
      <use xlink:href="#DejaVuSans-69" transform="translate(572.75 0)"/>
      <use xlink:href="#DejaVuSans-6f" transform="translate(600.533203 0)"/>
      <use xlink:href="#DejaVuSans-6e" transform="translate(661.714844 0)"/>
      <use xlink:href="#DejaVuSans-20" transform="translate(725.09375 0)"/>
      <use xlink:href="#DejaVuSans-70" transform="translate(756.880859 0)"/>
      <use xlink:href="#DejaVuSans-2a" transform="translate(820.357422 0)"/>
      <use xlink:href="#DejaVuSans-20" transform="translate(870.357422 0)"/>
      <use xlink:href="#DejaVuSans-3d" transform="translate(902.144531 0)"/>
      <use xlink:href="#DejaVuSans-20" transform="translate(985.933594 0)"/>
      <use xlink:href="#DejaVuSans-30" transform="translate(1017.720703 0)"/>
      <use xlink:href="#DejaVuSans-2e" transform="translate(1081.34375 0)"/>
      <use xlink:href="#DejaVuSans-30" transform="translate(1113.130859 0)"/>
      <use xlink:href="#DejaVuSans-33" transform="translate(1176.753906 0)"/>
      <use xlink:href="#DejaVuSans-33" transform="translate(1240.376953 0)"/>
     </g>
    </g>
    <g id="line2d_45">
     <path d="M 841.880625 194.013 
L 849.880625 194.013 
L 857.880625 194.013 
" style="fill: none; stroke-dasharray: 1.5,2.475; stroke-dashoffset: 0; stroke: #e67e22; stroke-width: 1.5"/>
    </g>
    <g id="text_41">
     <!-- 2× amplification at p=0.027 -->
     <g transform="translate(864.280625 196.813) scale(0.08 -0.08)">
      <defs>
       <path id="DejaVuSans-d7" d="M 4488 3438 
L 3059 2003 
L 4488 575 
L 4116 197 
L 2681 1631 
L 1247 197 
L 878 575 
L 2303 2003 
L 878 3438 
L 1247 3816 
L 2681 2381 
L 4116 3816 
L 4488 3438 
z
" transform="scale(0.015625)"/>
      </defs>
      <use xlink:href="#DejaVuSans-32"/>
      <use xlink:href="#DejaVuSans-d7" transform="translate(63.623047 0)"/>
      <use xlink:href="#DejaVuSans-20" transform="translate(147.412109 0)"/>
      <use xlink:href="#DejaVuSans-61" transform="translate(179.199219 0)"/>
      <use xlink:href="#DejaVuSans-6d" transform="translate(240.478516 0)"/>
      <use xlink:href="#DejaVuSans-70" transform="translate(337.890625 0)"/>
      <use xlink:href="#DejaVuSans-6c" transform="translate(401.367188 0)"/>
      <use xlink:href="#DejaVuSans-69" transform="translate(429.150391 0)"/>
      <use xlink:href="#DejaVuSans-66" transform="translate(456.933594 0)"/>
      <use xlink:href="#DejaVuSans-69" transform="translate(492.138672 0)"/>
      <use xlink:href="#DejaVuSans-63" transform="translate(519.921875 0)"/>
      <use xlink:href="#DejaVuSans-61" transform="translate(574.902344 0)"/>
      <use xlink:href="#DejaVuSans-74" transform="translate(636.181641 0)"/>
      <use xlink:href="#DejaVuSans-69" transform="translate(675.390625 0)"/>
      <use xlink:href="#DejaVuSans-6f" transform="translate(703.173828 0)"/>
      <use xlink:href="#DejaVuSans-6e" transform="translate(764.355469 0)"/>
      <use xlink:href="#DejaVuSans-20" transform="translate(827.734375 0)"/>
      <use xlink:href="#DejaVuSans-61" transform="translate(859.521484 0)"/>
      <use xlink:href="#DejaVuSans-74" transform="translate(920.800781 0)"/>
      <use xlink:href="#DejaVuSans-20" transform="translate(960.009766 0)"/>
      <use xlink:href="#DejaVuSans-70" transform="translate(991.796875 0)"/>
      <use xlink:href="#DejaVuSans-3d" transform="translate(1055.273438 0)"/>
      <use xlink:href="#DejaVuSans-30" transform="translate(1139.0625 0)"/>
      <use xlink:href="#DejaVuSans-2e" transform="translate(1202.685547 0)"/>
      <use xlink:href="#DejaVuSans-30" transform="translate(1234.472656 0)"/>
      <use xlink:href="#DejaVuSans-32" transform="translate(1298.095703 0)"/>
      <use xlink:href="#DejaVuSans-37" transform="translate(1361.71875 0)"/>
     </g>
    </g>
   </g>
  </g>
 </g>
 <defs>
  <clipPath id="p0402445455">
   <rect x="43.588125" y="32.39625" width="447.505" height="277.4485"/>
  </clipPath>
  <clipPath id="pa17a6af02e">
   <rect x="538.003125" y="32.39625" width="447.505" height="277.4485"/>
  </clipPath>
 </defs>
</svg>
