<?xml version="1.0" encoding="utf-8" standalone="no"?>
<!DOCTYPE svg PUBLIC "-//W3C//DTD SVG 1.1//EN"
  "http://www.w3.org/Graphics/SVG/1.1/DTD/svg11.dtd">
<svg xmlns:xlink="http://www.w3.org/1999/xlink" width="988.985541pt" height="422.896pt" viewBox="0 0 988.985541 422.896" xmlns="http://www.w3.org/2000/svg" version="1.1">
 <metadata>
  <rdf:RDF xmlns:dc="http://purl.org/dc/elements/1.1/" xmlns:cc="http://creativecommons.org/ns#" xmlns:rdf="http://www.w3.org/1999/02/22-rdf-syntax-ns#">
   <cc:Work>
    <dc:type rdf:resource="http://purl.org/dc/dcmitype/StillImage"/>
    <dc:date>2026-02-22T17:54:25.063446</dc:date>
    <dc:format>image/svg+xml</dc:format>
    <dc:creator>
     <cc:Agent>
      <dc:title>Matplotlib v3.10.8, https://matplotlib.org/</dc:title>
     </cc:Agent>
    </dc:creator>
   </cc:Work>
  </rdf:RDF>
 </metadata>
 <defs>
  <style type="text/css">*{stroke-linejoin: round; stroke-linecap: butt}</style>
 </defs>
 <g id="figure_1">
  <g id="patch_1">
   <path d="M 0 422.896 
L 988.985541 422.896 
L 988.985541 0 
L 0 0 
z
" style="fill: #ffffff"/>
  </g>
  <g id="axes_1">
   <g id="patch_2">
    <path d="M 35.514375 384.066 
L 468.040761 384.066 
L 468.040761 31.99625 
L 35.514375 31.99625 
z
" style="fill: #ffffff"/>
   </g>
   <g id="QuadContourSet_1">
    <path d="M 53.726012 365.536013 
L 58.278922 361.830016 
L 76.490559 347.006026 
L 81.043468 343.300029 
L 99.255106 328.476039 
L 103.808015 324.770042 
L 122.019652 309.946053 
L 126.572562 306.240055 
L 144.784199 291.416066 
L 149.337108 287.710068 
L 167.548746 272.886079 
L 172.101655 269.180082 
L 190.313292 254.356092 
L 194.866202 250.650095 
L 213.077839 235.826105 
L 217.630748 232.120108 
L 235.842386 217.296118 
L 240.395295 213.590121 
L 258.606932 198.766132 
L 263.159842 195.060134 
L 281.371479 180.236145 
L 285.924388 176.530147 
L 304.136025 161.706158 
L 308.688935 158.000161 
L 326.900572 143.176171 
L 331.453481 139.470174 
L 349.665119 124.646184 
L 354.218028 120.940187 
L 372.429665 106.116197 
L 376.982575 102.4102 
L 395.194212 87.586211 
L 399.747121 83.880213 
L 417.958759 69.056224 
L 422.511668 65.350226 
L 440.723305 50.526237 
L 445.276215 46.820239 
L 463.487852 31.99625 
L 445.276215 31.99625 
L 422.511668 31.99625 
L 399.747121 31.99625 
L 376.982575 31.99625 
L 354.218028 31.99625 
L 331.453481 31.99625 
L 308.688935 31.99625 
L 285.924388 31.99625 
L 263.159842 31.99625 
L 240.395295 31.99625 
L 217.630748 31.99625 
L 194.866202 31.99625 
L 172.101655 31.99625 
L 149.337108 31.99625 
L 126.572562 31.99625 
L 103.808015 31.99625 
L 81.043468 31.99625 
L 58.278922 31.99625 
L 35.514375 31.99625 
L 35.514375 50.526237 
L 35.514375 69.056224 
L 35.514375 87.586211 
L 35.514375 106.116197 
L 35.514375 124.646184 
L 35.514375 143.176171 
L 35.514375 161.706158 
L 35.514375 180.236145 
L 35.514375 198.766132 
L 35.514375 217.296118 
L 35.514375 235.826105 
L 35.514375 254.356092 
L 35.514375 272.886079 
L 35.514375 291.416066 
L 35.514375 309.946053 
L 35.514375 328.476039 
L 35.514375 347.006026 
L 35.514375 365.536013 
L 35.514375 380.360003 
z
" clip-path="url(#peb31e8cc50)" style="fill: #3498db; fill-opacity: 0.8"/>
    <path d="M 58.278922 369.242011 
L 62.831831 365.536013 
L 81.043468 350.712024 
L 85.596378 347.006026 
L 103.808015 332.182037 
L 108.360924 328.476039 
L 126.572562 313.65205 
L 131.125471 309.946053 
L 149.337108 295.122063 
L 153.890018 291.416066 
L 172.101655 276.592076 
L 176.654564 272.886079 
L 194.866202 258.062089 
L 199.419111 254.356092 
L 217.630748 239.532103 
L 222.183658 235.826105 
L 240.395295 221.002116 
L 244.948204 217.296118 
L 263.159842 202.472129 
L 267.712751 198.766132 
L 285.924388 183.942142 
L 290.477297 180.236145 
L 308.688935 165.412155 
L 313.241844 161.706158 
L 331.453481 146.882168 
L 336.006391 143.176171 
L 354.218028 128.352182 
L 358.770937 124.646184 
L 376.982575 109.822195 
L 381.535484 106.116197 
L 399.747121 91.292208 
L 404.300031 87.586211 
L 422.511668 72.762221 
L 427.064577 69.056224 
L 445.276215 54.232234 
L 449.829124 50.526237 
L 468.040761 35.702247 
L 468.040761 31.99625 
L 463.487852 31.99625 
L 445.276215 46.820239 
L 440.723305 50.526237 
L 422.511668 65.350226 
L 417.958759 69.056224 
L 399.747121 83.880213 
L 395.194212 87.586211 
L 376.982575 102.4102 
L 372.429665 106.116197 
L 354.218028 120.940187 
L 349.665119 124.646184 
L 331.453481 139.470174 
L 326.900572 143.176171 
L 308.688935 158.000161 
L 304.136025 161.706158 
L 285.924388 176.530147 
L 281.371479 180.236145 
L 263.159842 195.060134 
L 258.606932 198.766132 
L 240.395295 213.590121 
L 235.842386 217.296118 
L 217.630748 232.120108 
L 213.077839 235.826105 
L 194.866202 250.650095 
L 190.313292 254.356092 
L 172.101655 269.180082 
L 167.548746 272.886079 
L 149.337108 287.710068 
L 144.784199 291.416066 
L 126.572562 306.240055 
L 122.019652 309.946053 
L 103.808015 324.770042 
L 99.255106 328.476039 
L 81.043468 343.300029 
L 76.490559 347.006026 
L 58.278922 361.830016 
L 53.726012 365.536013 
L 35.514375 380.360003 
L 35.514375 384.066 
L 40.067284 384.066 
z
" clip-path="url(#peb31e8cc50)" style="fill: #ecf0f1; fill-opacity: 0.8"/>
    <path d="M 58.278922 384.066 
L 81.043468 384.066 
L 103.808015 384.066 
L 126.572562 384.066 
L 149.337108 384.066 
L 172.101655 384.066 
L 194.866202 384.066 
L 217.630748 384.066 
L 240.395295 384.066 
L 263.159842 384.066 
L 285.924388 384.066 
L 308.688935 384.066 
L 331.453481 384.066 
L 354.218028 384.066 
L 376.982575 384.066 
L 399.747121 384.066 
L 422.511668 384.066 
L 445.276215 384.066 
L 468.040761 384.066 
L 468.040761 365.536013 
L 468.040761 347.006026 
L 468.040761 328.476039 
L 468.040761 309.946053 
L 468.040761 291.416066 
L 468.040761 272.886079 
L 468.040761 254.356092 
L 468.040761 235.826105 
L 468.040761 217.296118 
L 468.040761 198.766132 
L 468.040761 180.236145 
L 468.040761 161.706158 
L 468.040761 143.176171 
L 468.040761 124.646184 
L 468.040761 106.116197 
L 468.040761 87.586211 
L 468.040761 69.056224 
L 468.040761 50.526237 
L 468.040761 35.702247 
L 449.829124 50.526237 
L 445.276215 54.232234 
L 427.064577 69.056224 
L 422.511668 72.762221 
L 404.300031 87.586211 
L 399.747121 91.292208 
L 381.535484 106.116197 
L 376.982575 109.822195 
L 358.770937 124.646184 
L 354.218028 128.352182 
L 336.006391 143.176171 
L 331.453481 146.882168 
L 313.241844 161.706158 
L 308.688935 165.412155 
L 290.477297 180.236145 
L 285.924388 183.942142 
L 267.712751 198.766132 
L 263.159842 202.472129 
L 244.948204 217.296118 
L 240.395295 221.002116 
L 222.183658 235.826105 
L 217.630748 239.532103 
L 199.419111 254.356092 
L 194.866202 258.062089 
L 176.654564 272.886079 
L 172.101655 276.592076 
L 153.890018 291.416066 
L 149.337108 295.122063 
L 131.125471 309.946053 
L 126.572562 313.65205 
L 108.360924 328.476039 
L 103.808015 332.182037 
L 85.596378 347.006026 
L 81.043468 350.712024 
L 62.831831 365.536013 
L 58.278922 369.242011 
L 40.067284 384.066 
z
" clip-path="url(#peb31e8cc50)" style="fill: #e74c3c; fill-opacity: 0.8"/>
   </g>
   <g id="matplotlib.axis_1">
    <g id="xtick_1">
     <g id="line2d_1">
      <defs>
       <path id="medf54018fa" d="M 0 0 
L 0 3.5 
" style="stroke: #000000; stroke-width: 0.8"/>
      </defs>
      <g>
       <use xlink:href="#medf54018fa" x="77.565551" y="384.066" style="stroke: #000000; stroke-width: 0.8"/>
      </g>
     </g>
     <g id="text_1">
      <!-- 1 -->
      <g transform="translate(74.384301 398.664437) scale(0.1 -0.1)">
       <defs>
        <path id="DejaVuSans-31" d="M 794 531 
L 1825 531 
L 1825 4091 
L 703 3866 
L 703 4441 
L 1819 4666 
L 2450 4666 
L 2450 531 
L 3481 531 
L 3481 0 
L 794 0 
L 794 531 
z
" transform="scale(0.015625)"/>
       </defs>
       <use xlink:href="#DejaVuSans-31"/>
      </g>
     </g>
    </g>
    <g id="xtick_2">
     <g id="line2d_2">
      <g>
       <use xlink:href="#medf54018fa" x="137.638661" y="384.066" style="stroke: #000000; stroke-width: 0.8"/>
      </g>
     </g>
     <g id="text_2">
      <!-- 2 -->
      <g transform="translate(134.457411 398.664437) scale(0.1 -0.1)">
       <defs>
        <path id="DejaVuSans-32" d="M 1228 531 
L 3431 531 
L 3431 0 
L 469 0 
L 469 531 
Q 828 903 1448 1529 
Q 2069 2156 2228 2338 
Q 2531 2678 2651 2914 
Q 2772 3150 2772 3378 
Q 2772 3750 2511 3984 
Q 2250 4219 1831 4219 
Q 1534 4219 1204 4116 
Q 875 4013 500 3803 
L 500 4441 
Q 881 4594 1212 4672 
Q 1544 4750 1819 4750 
Q 2544 4750 2975 4387 
Q 3406 4025 3406 3419 
Q 3406 3131 3298 2873 
Q 3191 2616 2906 2266 
Q 2828 2175 2409 1742 
Q 1991 1309 1228 531 
z
" transform="scale(0.015625)"/>
       </defs>
       <use xlink:href="#DejaVuSans-32"/>
      </g>
     </g>
    </g>
    <g id="xtick_3">
     <g id="line2d_3">
      <g>
       <use xlink:href="#medf54018fa" x="197.71177" y="384.066" style="stroke: #000000; stroke-width: 0.8"/>
      </g>
     </g>
     <g id="text_3">
      <!-- 3 -->
      <g transform="translate(194.53052 398.664437) scale(0.1 -0.1)">
       <defs>
        <path id="DejaVuSans-33" d="M 2597 2516 
Q 3050 2419 3304 2112 
Q 3559 1806 3559 1356 
Q 3559 666 3084 287 
Q 2609 -91 1734 -91 
Q 1441 -91 1130 -33 
Q 819 25 488 141 
L 488 750 
Q 750 597 1062 519 
Q 1375 441 1716 441 
Q 2309 441 2620 675 
Q 2931 909 2931 1356 
Q 2931 1769 2642 2001 
Q 2353 2234 1838 2234 
L 1294 2234 
L 1294 2753 
L 1863 2753 
Q 2328 2753 2575 2939 
Q 2822 3125 2822 3475 
Q 2822 3834 2567 4026 
Q 2313 4219 1838 4219 
Q 1578 4219 1281 4162 
Q 984 4106 628 3988 
L 628 4550 
Q 988 4650 1302 4700 
Q 1616 4750 1894 4750 
Q 2613 4750 3031 4423 
Q 3450 4097 3450 3541 
Q 3450 3153 3228 2886 
Q 3006 2619 2597 2516 
z
" transform="scale(0.015625)"/>
       </defs>
       <use xlink:href="#DejaVuSans-33"/>
      </g>
     </g>
    </g>
    <g id="xtick_4">
     <g id="line2d_4">
      <g>
       <use xlink:href="#medf54018fa" x="257.784879" y="384.066" style="stroke: #000000; stroke-width: 0.8"/>
      </g>
     </g>
     <g id="text_4">
      <!-- 4 -->
      <g transform="translate(254.603629 398.664437) scale(0.1 -0.1)">
       <defs>
        <path id="DejaVuSans-34" d="M 2419 4116 
L 825 1625 
L 2419 1625 
L 2419 4116 
z
M 2253 4666 
L 3047 4666 
L 3047 1625 
L 3713 1625 
L 3713 1100 
L 3047 1100 
L 3047 0 
L 2419 0 
L 2419 1100 
L 313 1100 
L 313 1709 
L 2253 4666 
z
" transform="scale(0.015625)"/>
       </defs>
       <use xlink:href="#DejaVuSans-34"/>
      </g>
     </g>
    </g>
    <g id="xtick_5">
     <g id="line2d_5">
      <g>
       <use xlink:href="#medf54018fa" x="317.857988" y="384.066" style="stroke: #000000; stroke-width: 0.8"/>
      </g>
     </g>
     <g id="text_5">
      <!-- 5 -->
      <g transform="translate(314.676738 398.664437) scale(0.1 -0.1)">
       <defs>
        <path id="DejaVuSans-35" d="M 691 4666 
L 3169 4666 
L 3169 4134 
L 1269 4134 
L 1269 2991 
Q 1406 3038 1543 3061 
Q 1681 3084 1819 3084 
Q 2600 3084 3056 2656 
Q 3513 2228 3513 1497 
Q 3513 744 3044 326 
Q 2575 -91 1722 -91 
Q 1428 -91 1123 -41 
Q 819 9 494 109 
L 494 744 
Q 775 591 1075 516 
Q 1375 441 1709 441 
Q 2250 441 2565 725 
Q 2881 1009 2881 1497 
Q 2881 1984 2565 2268 
Q 2250 2553 1709 2553 
Q 1456 2553 1204 2497 
Q 953 2441 691 2322 
L 691 4666 
z
" transform="scale(0.015625)"/>
       </defs>
       <use xlink:href="#DejaVuSans-35"/>
      </g>
     </g>
    </g>
    <g id="xtick_6">
     <g id="line2d_6">
      <g>
       <use xlink:href="#medf54018fa" x="377.931098" y="384.066" style="stroke: #000000; stroke-width: 0.8"/>
      </g>
     </g>
     <g id="text_6">
      <!-- 6 -->
      <g transform="translate(374.749848 398.664437) scale(0.1 -0.1)">
       <defs>
        <path id="DejaVuSans-36" d="M 2113 2584 
Q 1688 2584 1439 2293 
Q 1191 2003 1191 1497 
Q 1191 994 1439 701 
Q 1688 409 2113 409 
Q 2538 409 2786 701 
Q 3034 994 3034 1497 
Q 3034 2003 2786 2293 
Q 2538 2584 2113 2584 
z
M 3366 4563 
L 3366 3988 
Q 3128 4100 2886 4159 
Q 2644 4219 2406 4219 
Q 1781 4219 1451 3797 
Q 1122 3375 1075 2522 
Q 1259 2794 1537 2939 
Q 1816 3084 2150 3084 
Q 2853 3084 3261 2657 
Q 3669 2231 3669 1497 
Q 3669 778 3244 343 
Q 2819 -91 2113 -91 
Q 1303 -91 875 529 
Q 447 1150 447 2328 
Q 447 3434 972 4092 
Q 1497 4750 2381 4750 
Q 2619 4750 2861 4703 
Q 3103 4656 3366 4563 
z
" transform="scale(0.015625)"/>
       </defs>
       <use xlink:href="#DejaVuSans-36"/>
      </g>
     </g>
    </g>
    <g id="xtick_7">
     <g id="line2d_7">
      <g>
       <use xlink:href="#medf54018fa" x="438.004207" y="384.066" style="stroke: #000000; stroke-width: 0.8"/>
      </g>
     </g>
     <g id="text_7">
      <!-- 7 -->
      <g transform="translate(434.822957 398.664437) scale(0.1 -0.1)">
       <defs>
        <path id="DejaVuSans-37" d="M 525 4666 
L 3525 4666 
L 3525 4397 
L 1831 0 
L 1172 0 
L 2766 4134 
L 525 4134 
L 525 4666 
z
" transform="scale(0.015625)"/>
       </defs>
       <use xlink:href="#DejaVuSans-37"/>
      </g>
     </g>
    </g>
    <g id="text_8">
     <!-- Pe_A (platform A saturation Pe) -->
     <g transform="translate(165.803115 413.102406) scale(0.11 -0.11)">
      <defs>
       <path id="DejaVuSans-50" d="M 1259 4147 
L 1259 2394 
L 2053 2394 
Q 2494 2394 2734 2622 
Q 2975 2850 2975 3272 
Q 2975 3691 2734 3919 
Q 2494 4147 2053 4147 
L 1259 4147 
z
M 628 4666 
L 2053 4666 
Q 2838 4666 3239 4311 
Q 3641 3956 3641 3272 
Q 3641 2581 3239 2228 
Q 2838 1875 2053 1875 
L 1259 1875 
L 1259 0 
L 628 0 
L 628 4666 
z
" transform="scale(0.015625)"/>
       <path id="DejaVuSans-65" d="M 3597 1894 
L 3597 1613 
L 953 1613 
Q 991 1019 1311 708 
Q 1631 397 2203 397 
Q 2534 397 2845 478 
Q 3156 559 3463 722 
L 3463 178 
Q 3153 47 2828 -22 
Q 2503 -91 2169 -91 
Q 1331 -91 842 396 
Q 353 884 353 1716 
Q 353 2575 817 3079 
Q 1281 3584 2069 3584 
Q 2775 3584 3186 3129 
Q 3597 2675 3597 1894 
z
M 3022 2063 
Q 3016 2534 2758 2815 
Q 2500 3097 2075 3097 
Q 1594 3097 1305 2825 
Q 1016 2553 972 2059 
L 3022 2063 
z
" transform="scale(0.015625)"/>
       <path id="DejaVuSans-5f" d="M 3263 -1063 
L 3263 -1509 
L -63 -1509 
L -63 -1063 
L 3263 -1063 
z
" transform="scale(0.015625)"/>
       <path id="DejaVuSans-41" d="M 2188 4044 
L 1331 1722 
L 3047 1722 
L 2188 4044 
z
M 1831 4666 
L 2547 4666 
L 4325 0 
L 3669 0 
L 3244 1197 
L 1141 1197 
L 716 0 
L 50 0 
L 1831 4666 
z
" transform="scale(0.015625)"/>
       <path id="DejaVuSans-20" transform="scale(0.015625)"/>
       <path id="DejaVuSans-28" d="M 1984 4856 
Q 1566 4138 1362 3434 
Q 1159 2731 1159 2009 
Q 1159 1288 1364 580 
Q 1569 -128 1984 -844 
L 1484 -844 
Q 1016 -109 783 600 
Q 550 1309 550 2009 
Q 550 2706 781 3412 
Q 1013 4119 1484 4856 
L 1984 4856 
z
" transform="scale(0.015625)"/>
       <path id="DejaVuSans-70" d="M 1159 525 
L 1159 -1331 
L 581 -1331 
L 581 3500 
L 1159 3500 
L 1159 2969 
Q 1341 3281 1617 3432 
Q 1894 3584 2278 3584 
Q 2916 3584 3314 3078 
Q 3713 2572 3713 1747 
Q 3713 922 3314 415 
Q 2916 -91 2278 -91 
Q 1894 -91 1617 61 
Q 1341 213 1159 525 
z
M 3116 1747 
Q 3116 2381 2855 2742 
Q 2594 3103 2138 3103 
Q 1681 3103 1420 2742 
Q 1159 2381 1159 1747 
Q 1159 1113 1420 752 
Q 1681 391 2138 391 
Q 2594 391 2855 752 
Q 3116 1113 3116 1747 
z
" transform="scale(0.015625)"/>
       <path id="DejaVuSans-6c" d="M 603 4863 
L 1178 4863 
L 1178 0 
L 603 0 
L 603 4863 
z
" transform="scale(0.015625)"/>
       <path id="DejaVuSans-61" d="M 2194 1759 
Q 1497 1759 1228 1600 
Q 959 1441 959 1056 
Q 959 750 1161 570 
Q 1363 391 1709 391 
Q 2188 391 2477 730 
Q 2766 1069 2766 1631 
L 2766 1759 
L 2194 1759 
z
M 3341 1997 
L 3341 0 
L 2766 0 
L 2766 531 
Q 2569 213 2275 61 
Q 1981 -91 1556 -91 
Q 1019 -91 701 211 
Q 384 513 384 1019 
Q 384 1609 779 1909 
Q 1175 2209 1959 2209 
L 2766 2209 
L 2766 2266 
Q 2766 2663 2505 2880 
Q 2244 3097 1772 3097 
Q 1472 3097 1187 3025 
Q 903 2953 641 2809 
L 641 3341 
Q 956 3463 1253 3523 
Q 1550 3584 1831 3584 
Q 2591 3584 2966 3190 
Q 3341 2797 3341 1997 
z
" transform="scale(0.015625)"/>
       <path id="DejaVuSans-74" d="M 1172 4494 
L 1172 3500 
L 2356 3500 
L 2356 3053 
L 1172 3053 
L 1172 1153 
Q 1172 725 1289 603 
Q 1406 481 1766 481 
L 2356 481 
L 2356 0 
L 1766 0 
Q 1100 0 847 248 
Q 594 497 594 1153 
L 594 3053 
L 172 3053 
L 172 3500 
L 594 3500 
L 594 4494 
L 1172 4494 
z
" transform="scale(0.015625)"/>
       <path id="DejaVuSans-66" d="M 2375 4863 
L 2375 4384 
L 1825 4384 
Q 1516 4384 1395 4259 
Q 1275 4134 1275 3809 
L 1275 3500 
L 2222 3500 
L 2222 3053 
L 1275 3053 
L 1275 0 
L 697 0 
L 697 3053 
L 147 3053 
L 147 3500 
L 697 3500 
L 697 3744 
Q 697 4328 969 4595 
Q 1241 4863 1831 4863 
L 2375 4863 
z
" transform="scale(0.015625)"/>
       <path id="DejaVuSans-6f" d="M 1959 3097 
Q 1497 3097 1228 2736 
Q 959 2375 959 1747 
Q 959 1119 1226 758 
Q 1494 397 1959 397 
Q 2419 397 2687 759 
Q 2956 1122 2956 1747 
Q 2956 2369 2687 2733 
Q 2419 3097 1959 3097 
z
M 1959 3584 
Q 2709 3584 3137 3096 
Q 3566 2609 3566 1747 
Q 3566 888 3137 398 
Q 2709 -91 1959 -91 
Q 1206 -91 779 398 
Q 353 888 353 1747 
Q 353 2609 779 3096 
Q 1206 3584 1959 3584 
z
" transform="scale(0.015625)"/>
       <path id="DejaVuSans-72" d="M 2631 2963 
Q 2534 3019 2420 3045 
Q 2306 3072 2169 3072 
Q 1681 3072 1420 2755 
Q 1159 2438 1159 1844 
L 1159 0 
L 581 0 
L 581 3500 
L 1159 3500 
L 1159 2956 
Q 1341 3275 1631 3429 
Q 1922 3584 2338 3584 
Q 2397 3584 2469 3576 
Q 2541 3569 2628 3553 
L 2631 2963 
z
" transform="scale(0.015625)"/>
       <path id="DejaVuSans-6d" d="M 3328 2828 
Q 3544 3216 3844 3400 
Q 4144 3584 4550 3584 
Q 5097 3584 5394 3201 
Q 5691 2819 5691 2113 
L 5691 0 
L 5113 0 
L 5113 2094 
Q 5113 2597 4934 2840 
Q 4756 3084 4391 3084 
Q 3944 3084 3684 2787 
Q 3425 2491 3425 1978 
L 3425 0 
L 2847 0 
L 2847 2094 
Q 2847 2600 2669 2842 
Q 2491 3084 2119 3084 
Q 1678 3084 1418 2786 
Q 1159 2488 1159 1978 
L 1159 0 
L 581 0 
L 581 3500 
L 1159 3500 
L 1159 2956 
Q 1356 3278 1631 3431 
Q 1906 3584 2284 3584 
Q 2666 3584 2933 3390 
Q 3200 3197 3328 2828 
z
" transform="scale(0.015625)"/>
       <path id="DejaVuSans-73" d="M 2834 3397 
L 2834 2853 
Q 2591 2978 2328 3040 
Q 2066 3103 1784 3103 
Q 1356 3103 1142 2972 
Q 928 2841 928 2578 
Q 928 2378 1081 2264 
Q 1234 2150 1697 2047 
L 1894 2003 
Q 2506 1872 2764 1633 
Q 3022 1394 3022 966 
Q 3022 478 2636 193 
Q 2250 -91 1575 -91 
Q 1294 -91 989 -36 
Q 684 19 347 128 
L 347 722 
Q 666 556 975 473 
Q 1284 391 1588 391 
Q 1994 391 2212 530 
Q 2431 669 2431 922 
Q 2431 1156 2273 1281 
Q 2116 1406 1581 1522 
L 1381 1569 
Q 847 1681 609 1914 
Q 372 2147 372 2553 
Q 372 3047 722 3315 
Q 1072 3584 1716 3584 
Q 2034 3584 2315 3537 
Q 2597 3491 2834 3397 
z
" transform="scale(0.015625)"/>
       <path id="DejaVuSans-75" d="M 544 1381 
L 544 3500 
L 1119 3500 
L 1119 1403 
Q 1119 906 1312 657 
Q 1506 409 1894 409 
Q 2359 409 2629 706 
Q 2900 1003 2900 1516 
L 2900 3500 
L 3475 3500 
L 3475 0 
L 2900 0 
L 2900 538 
Q 2691 219 2414 64 
Q 2138 -91 1772 -91 
Q 1169 -91 856 284 
Q 544 659 544 1381 
z
M 1991 3584 
L 1991 3584 
z
" transform="scale(0.015625)"/>
       <path id="DejaVuSans-69" d="M 603 3500 
L 1178 3500 
L 1178 0 
L 603 0 
L 603 3500 
z
M 603 4863 
L 1178 4863 
L 1178 4134 
L 603 4134 
L 603 4863 
z
" transform="scale(0.015625)"/>
       <path id="DejaVuSans-6e" d="M 3513 2113 
L 3513 0 
L 2938 0 
L 2938 2094 
Q 2938 2591 2744 2837 
Q 2550 3084 2163 3084 
Q 1697 3084 1428 2787 
Q 1159 2491 1159 1978 
L 1159 0 
L 581 0 
L 581 3500 
L 1159 3500 
L 1159 2956 
Q 1366 3272 1645 3428 
Q 1925 3584 2291 3584 
Q 2894 3584 3203 3211 
Q 3513 2838 3513 2113 
z
" transform="scale(0.015625)"/>
       <path id="DejaVuSans-29" d="M 513 4856 
L 1013 4856 
Q 1481 4119 1714 3412 
Q 1947 2706 1947 2009 
Q 1947 1309 1714 600 
Q 1481 -109 1013 -844 
L 513 -844 
Q 928 -128 1133 580 
Q 1338 1288 1338 2009 
Q 1338 2731 1133 3434 
Q 928 4138 513 4856 
z
" transform="scale(0.015625)"/>
      </defs>
      <use xlink:href="#DejaVuSans-50"/>
      <use xlink:href="#DejaVuSans-65" transform="translate(56.677734 0)"/>
      <use xlink:href="#DejaVuSans-5f" transform="translate(118.201172 0)"/>
      <use xlink:href="#DejaVuSans-41" transform="translate(168.201172 0)"/>
      <use xlink:href="#DejaVuSans-20" transform="translate(236.609375 0)"/>
      <use xlink:href="#DejaVuSans-28" transform="translate(268.396484 0)"/>
      <use xlink:href="#DejaVuSans-70" transform="translate(307.410156 0)"/>
      <use xlink:href="#DejaVuSans-6c" transform="translate(370.886719 0)"/>
      <use xlink:href="#DejaVuSans-61" transform="translate(398.669922 0)"/>
      <use xlink:href="#DejaVuSans-74" transform="translate(459.949219 0)"/>
      <use xlink:href="#DejaVuSans-66" transform="translate(499.158203 0)"/>
      <use xlink:href="#DejaVuSans-6f" transform="translate(534.363281 0)"/>
      <use xlink:href="#DejaVuSans-72" transform="translate(595.544922 0)"/>
      <use xlink:href="#DejaVuSans-6d" transform="translate(634.908203 0)"/>
      <use xlink:href="#DejaVuSans-20" transform="translate(732.320312 0)"/>
      <use xlink:href="#DejaVuSans-41" transform="translate(764.107422 0)"/>
      <use xlink:href="#DejaVuSans-20" transform="translate(832.515625 0)"/>
      <use xlink:href="#DejaVuSans-73" transform="translate(864.302734 0)"/>
      <use xlink:href="#DejaVuSans-61" transform="translate(916.402344 0)"/>
      <use xlink:href="#DejaVuSans-74" transform="translate(977.681641 0)"/>
      <use xlink:href="#DejaVuSans-75" transform="translate(1016.890625 0)"/>
      <use xlink:href="#DejaVuSans-72" transform="translate(1080.269531 0)"/>
      <use xlink:href="#DejaVuSans-61" transform="translate(1121.382812 0)"/>
      <use xlink:href="#DejaVuSans-74" transform="translate(1182.662109 0)"/>
      <use xlink:href="#DejaVuSans-69" transform="translate(1221.871094 0)"/>
      <use xlink:href="#DejaVuSans-6f" transform="translate(1249.654297 0)"/>
      <use xlink:href="#DejaVuSans-6e" transform="translate(1310.835938 0)"/>
      <use xlink:href="#DejaVuSans-20" transform="translate(1374.214844 0)"/>
      <use xlink:href="#DejaVuSans-50" transform="translate(1406.001953 0)"/>
      <use xlink:href="#DejaVuSans-65" transform="translate(1462.679688 0)"/>
      <use xlink:href="#DejaVuSans-29" transform="translate(1524.203125 0)"/>
     </g>
    </g>
   </g>
   <g id="matplotlib.axis_2">
    <g id="ytick_1">
     <g id="line2d_8">
      <defs>
       <path id="m6c7fa13709" d="M 0 0 
L -3.5 0 
" style="stroke: #000000; stroke-width: 0.8"/>
      </defs>
      <g>
       <use xlink:href="#m6c7fa13709" x="35.514375" y="349.836997" style="stroke: #000000; stroke-width: 0.8"/>
      </g>
     </g>
     <g id="text_9">
      <!-- 1 -->
      <g transform="translate(22.151875 353.636215) scale(0.1 -0.1)">
       <use xlink:href="#DejaVuSans-31"/>
      </g>
     </g>
    </g>
    <g id="ytick_2">
     <g id="line2d_9">
      <g>
       <use xlink:href="#m6c7fa13709" x="35.514375" y="300.93842" style="stroke: #000000; stroke-width: 0.8"/>
      </g>
     </g>
     <g id="text_10">
      <!-- 2 -->
      <g transform="translate(22.151875 304.737639) scale(0.1 -0.1)">
       <use xlink:href="#DejaVuSans-32"/>
      </g>
     </g>
    </g>
    <g id="ytick_3">
     <g id="line2d_10">
      <g>
       <use xlink:href="#m6c7fa13709" x="35.514375" y="252.039844" style="stroke: #000000; stroke-width: 0.8"/>
      </g>
     </g>
     <g id="text_11">
      <!-- 3 -->
      <g transform="translate(22.151875 255.839062) scale(0.1 -0.1)">
       <use xlink:href="#DejaVuSans-33"/>
      </g>
     </g>
    </g>
    <g id="ytick_4">
     <g id="line2d_11">
      <g>
       <use xlink:href="#m6c7fa13709" x="35.514375" y="203.141267" style="stroke: #000000; stroke-width: 0.8"/>
      </g>
     </g>
     <g id="text_12">
      <!-- 4 -->
      <g transform="translate(22.151875 206.940486) scale(0.1 -0.1)">
       <use xlink:href="#DejaVuSans-34"/>
      </g>
     </g>
    </g>
    <g id="ytick_5">
     <g id="line2d_12">
      <g>
       <use xlink:href="#m6c7fa13709" x="35.514375" y="154.242691" style="stroke: #000000; stroke-width: 0.8"/>
      </g>
     </g>
     <g id="text_13">
      <!-- 5 -->
      <g transform="translate(22.151875 158.04191) scale(0.1 -0.1)">
       <use xlink:href="#DejaVuSans-35"/>
      </g>
     </g>
    </g>
    <g id="ytick_6">
     <g id="line2d_13">
      <g>
       <use xlink:href="#m6c7fa13709" x="35.514375" y="105.344115" style="stroke: #000000; stroke-width: 0.8"/>
      </g>
     </g>
     <g id="text_14">
      <!-- 6 -->
      <g transform="translate(22.151875 109.143333) scale(0.1 -0.1)">
       <use xlink:href="#DejaVuSans-36"/>
      </g>
     </g>
    </g>
    <g id="ytick_7">
     <g id="line2d_14">
      <g>
       <use xlink:href="#m6c7fa13709" x="35.514375" y="56.445538" style="stroke: #000000; stroke-width: 0.8"/>
      </g>
     </g>
     <g id="text_15">
      <!-- 7 -->
      <g transform="translate(22.151875 60.244757) scale(0.1 -0.1)">
       <use xlink:href="#DejaVuSans-37"/>
      </g>
     </g>
    </g>
    <g id="text_16">
     <!-- Pe_B (platform B saturation Pe) -->
     <g transform="translate(15.558281 294.027922) rotate(-90) scale(0.11 -0.11)">
      <defs>
       <path id="DejaVuSans-42" d="M 1259 2228 
L 1259 519 
L 2272 519 
Q 2781 519 3026 730 
Q 3272 941 3272 1375 
Q 3272 1813 3026 2020 
Q 2781 2228 2272 2228 
L 1259 2228 
z
M 1259 4147 
L 1259 2741 
L 2194 2741 
Q 2656 2741 2882 2914 
Q 3109 3088 3109 3444 
Q 3109 3797 2882 3972 
Q 2656 4147 2194 4147 
L 1259 4147 
z
M 628 4666 
L 2241 4666 
Q 2963 4666 3353 4366 
Q 3744 4066 3744 3513 
Q 3744 3084 3544 2831 
Q 3344 2578 2956 2516 
Q 3422 2416 3680 2098 
Q 3938 1781 3938 1306 
Q 3938 681 3513 340 
Q 3088 0 2303 0 
L 628 0 
L 628 4666 
z
" transform="scale(0.015625)"/>
      </defs>
      <use xlink:href="#DejaVuSans-50"/>
      <use xlink:href="#DejaVuSans-65" transform="translate(56.677734 0)"/>
      <use xlink:href="#DejaVuSans-5f" transform="translate(118.201172 0)"/>
      <use xlink:href="#DejaVuSans-42" transform="translate(168.201172 0)"/>
      <use xlink:href="#DejaVuSans-20" transform="translate(236.804688 0)"/>
      <use xlink:href="#DejaVuSans-28" transform="translate(268.591797 0)"/>
      <use xlink:href="#DejaVuSans-70" transform="translate(307.605469 0)"/>
      <use xlink:href="#DejaVuSans-6c" transform="translate(371.082031 0)"/>
      <use xlink:href="#DejaVuSans-61" transform="translate(398.865234 0)"/>
      <use xlink:href="#DejaVuSans-74" transform="translate(460.144531 0)"/>
      <use xlink:href="#DejaVuSans-66" transform="translate(499.353516 0)"/>
      <use xlink:href="#DejaVuSans-6f" transform="translate(534.558594 0)"/>
      <use xlink:href="#DejaVuSans-72" transform="translate(595.740234 0)"/>
      <use xlink:href="#DejaVuSans-6d" transform="translate(635.103516 0)"/>
      <use xlink:href="#DejaVuSans-20" transform="translate(732.515625 0)"/>
      <use xlink:href="#DejaVuSans-42" transform="translate(764.302734 0)"/>
      <use xlink:href="#DejaVuSans-20" transform="translate(832.90625 0)"/>
      <use xlink:href="#DejaVuSans-73" transform="translate(864.693359 0)"/>
      <use xlink:href="#DejaVuSans-61" transform="translate(916.792969 0)"/>
      <use xlink:href="#DejaVuSans-74" transform="translate(978.072266 0)"/>
      <use xlink:href="#DejaVuSans-75" transform="translate(1017.28125 0)"/>
      <use xlink:href="#DejaVuSans-72" transform="translate(1080.660156 0)"/>
      <use xlink:href="#DejaVuSans-61" transform="translate(1121.773438 0)"/>
      <use xlink:href="#DejaVuSans-74" transform="translate(1183.052734 0)"/>
      <use xlink:href="#DejaVuSans-69" transform="translate(1222.261719 0)"/>
      <use xlink:href="#DejaVuSans-6f" transform="translate(1250.044922 0)"/>
      <use xlink:href="#DejaVuSans-6e" transform="translate(1311.226562 0)"/>
      <use xlink:href="#DejaVuSans-20" transform="translate(1374.605469 0)"/>
      <use xlink:href="#DejaVuSans-50" transform="translate(1406.392578 0)"/>
      <use xlink:href="#DejaVuSans-65" transform="translate(1463.070312 0)"/>
      <use xlink:href="#DejaVuSans-29" transform="translate(1524.59375 0)"/>
     </g>
    </g>
   </g>
   <g id="line2d_15">
    <path d="M 35.514375 384.066 
L 468.040761 31.99625 
" clip-path="url(#peb31e8cc50)" style="fill: none; stroke-dasharray: 5.55,2.4; stroke-dashoffset: 0; stroke: #000000; stroke-width: 1.5"/>
   </g>
   <g id="patch_3">
    <path d="M 35.514375 384.066 
L 35.514375 31.99625 
" style="fill: none; stroke: #000000; stroke-width: 0.8; stroke-linejoin: miter; stroke-linecap: square"/>
   </g>
   <g id="patch_4">
    <path d="M 468.040761 384.066 
L 468.040761 31.99625 
" style="fill: none; stroke: #000000; stroke-width: 0.8; stroke-linejoin: miter; stroke-linecap: square"/>
   </g>
   <g id="patch_5">
    <path d="M 35.514375 384.066 
L 468.040761 384.066 
" style="fill: none; stroke: #000000; stroke-width: 0.8; stroke-linejoin: miter; stroke-linecap: square"/>
   </g>
   <g id="patch_6">
    <path d="M 35.514375 31.99625 
L 468.040761 31.99625 
" style="fill: none; stroke: #000000; stroke-width: 0.8; stroke-linejoin: miter; stroke-linecap: square"/>
   </g>
   <g id="text_17">
    <!-- Gamb vs Partisan -->
    <g transform="translate(456.02614 124.903545) scale(0.07 -0.07)">
     <defs>
      <path id="DejaVuSans-47" d="M 3809 666 
L 3809 1919 
L 2778 1919 
L 2778 2438 
L 4434 2438 
L 4434 434 
Q 4069 175 3628 42 
Q 3188 -91 2688 -91 
Q 1594 -91 976 548 
Q 359 1188 359 2328 
Q 359 3472 976 4111 
Q 1594 4750 2688 4750 
Q 3144 4750 3555 4637 
Q 3966 4525 4313 4306 
L 4313 3634 
Q 3963 3931 3569 4081 
Q 3175 4231 2741 4231 
Q 1884 4231 1454 3753 
Q 1025 3275 1025 2328 
Q 1025 1384 1454 906 
Q 1884 428 2741 428 
Q 3075 428 3337 486 
Q 3600 544 3809 666 
z
" transform="scale(0.015625)"/>
      <path id="DejaVuSans-62" d="M 3116 1747 
Q 3116 2381 2855 2742 
Q 2594 3103 2138 3103 
Q 1681 3103 1420 2742 
Q 1159 2381 1159 1747 
Q 1159 1113 1420 752 
Q 1681 391 2138 391 
Q 2594 391 2855 752 
Q 3116 1113 3116 1747 
z
M 1159 2969 
Q 1341 3281 1617 3432 
Q 1894 3584 2278 3584 
Q 2916 3584 3314 3078 
Q 3713 2572 3713 1747 
Q 3713 922 3314 415 
Q 2916 -91 2278 -91 
Q 1894 -91 1617 61 
Q 1341 213 1159 525 
L 1159 0 
L 581 0 
L 581 4863 
L 1159 4863 
L 1159 2969 
z
" transform="scale(0.015625)"/>
      <path id="DejaVuSans-76" d="M 191 3500 
L 800 3500 
L 1894 563 
L 2988 3500 
L 3597 3500 
L 2284 0 
L 1503 0 
L 191 3500 
z
" transform="scale(0.015625)"/>
     </defs>
     <use xlink:href="#DejaVuSans-47"/>
     <use xlink:href="#DejaVuSans-61" transform="translate(77.490234 0)"/>
     <use xlink:href="#DejaVuSans-6d" transform="translate(138.769531 0)"/>
     <use xlink:href="#DejaVuSans-62" transform="translate(236.181641 0)"/>
     <use xlink:href="#DejaVuSans-20" transform="translate(299.658203 0)"/>
     <use xlink:href="#DejaVuSans-76" transform="translate(331.445312 0)"/>
     <use xlink:href="#DejaVuSans-73" transform="translate(390.625 0)"/>
     <use xlink:href="#DejaVuSans-20" transform="translate(442.724609 0)"/>
     <use xlink:href="#DejaVuSans-50" transform="translate(474.511719 0)"/>
     <use xlink:href="#DejaVuSans-61" transform="translate(530.314453 0)"/>
     <use xlink:href="#DejaVuSans-72" transform="translate(591.59375 0)"/>
     <use xlink:href="#DejaVuSans-74" transform="translate(632.707031 0)"/>
     <use xlink:href="#DejaVuSans-69" transform="translate(671.916016 0)"/>
     <use xlink:href="#DejaVuSans-73" transform="translate(699.699219 0)"/>
     <use xlink:href="#DejaVuSans-61" transform="translate(751.798828 0)"/>
     <use xlink:href="#DejaVuSans-6e" transform="translate(813.078125 0)"/>
    </g>
   </g>
   <g id="text_18">
    <!-- Partisan vs ETH -->
    <g transform="translate(353.901854 221.233741) scale(0.07 -0.07)">
     <defs>
      <path id="DejaVuSans-45" d="M 628 4666 
L 3578 4666 
L 3578 4134 
L 1259 4134 
L 1259 2753 
L 3481 2753 
L 3481 2222 
L 1259 2222 
L 1259 531 
L 3634 531 
L 3634 0 
L 628 0 
L 628 4666 
z
" transform="scale(0.015625)"/>
      <path id="DejaVuSans-54" d="M -19 4666 
L 3928 4666 
L 3928 4134 
L 2272 4134 
L 2272 0 
L 1638 0 
L 1638 4134 
L -19 4134 
L -19 4666 
z
" transform="scale(0.015625)"/>
      <path id="DejaVuSans-48" d="M 628 4666 
L 1259 4666 
L 1259 2753 
L 3553 2753 
L 3553 4666 
L 4184 4666 
L 4184 0 
L 3553 0 
L 3553 2222 
L 1259 2222 
L 1259 0 
L 628 0 
L 628 4666 
z
" transform="scale(0.015625)"/>
     </defs>
     <use xlink:href="#DejaVuSans-50"/>
     <use xlink:href="#DejaVuSans-61" transform="translate(55.802734 0)"/>
     <use xlink:href="#DejaVuSans-72" transform="translate(117.082031 0)"/>
     <use xlink:href="#DejaVuSans-74" transform="translate(158.195312 0)"/>
     <use xlink:href="#DejaVuSans-69" transform="translate(197.404297 0)"/>
     <use xlink:href="#DejaVuSans-73" transform="translate(225.1875 0)"/>
     <use xlink:href="#DejaVuSans-61" transform="translate(277.287109 0)"/>
     <use xlink:href="#DejaVuSans-6e" transform="translate(338.566406 0)"/>
     <use xlink:href="#DejaVuSans-20" transform="translate(401.945312 0)"/>
     <use xlink:href="#DejaVuSans-76" transform="translate(433.732422 0)"/>
     <use xlink:href="#DejaVuSans-73" transform="translate(492.912109 0)"/>
     <use xlink:href="#DejaVuSans-20" transform="translate(545.011719 0)"/>
     <use xlink:href="#DejaVuSans-45" transform="translate(576.798828 0)"/>
     <use xlink:href="#DejaVuSans-54" transform="translate(639.982422 0)"/>
     <use xlink:href="#DejaVuSans-48" transform="translate(701.066406 0)"/>
    </g>
   </g>
   <g id="text_19">
    <!-- ETH vs Network -->
    <g transform="translate(235.557829 291.158705) scale(0.07 -0.07)">
     <defs>
      <path id="DejaVuSans-4e" d="M 628 4666 
L 1478 4666 
L 3547 763 
L 3547 4666 
L 4159 4666 
L 4159 0 
L 3309 0 
L 1241 3903 
L 1241 0 
L 628 0 
L 628 4666 
z
" transform="scale(0.015625)"/>
      <path id="DejaVuSans-77" d="M 269 3500 
L 844 3500 
L 1563 769 
L 2278 3500 
L 2956 3500 
L 3675 769 
L 4391 3500 
L 4966 3500 
L 4050 0 
L 3372 0 
L 2619 2869 
L 1863 0 
L 1184 0 
L 269 3500 
z
" transform="scale(0.015625)"/>
      <path id="DejaVuSans-6b" d="M 581 4863 
L 1159 4863 
L 1159 1991 
L 2875 3500 
L 3609 3500 
L 1753 1863 
L 3688 0 
L 2938 0 
L 1159 1709 
L 1159 0 
L 581 0 
L 581 4863 
z
" transform="scale(0.015625)"/>
     </defs>
     <use xlink:href="#DejaVuSans-45"/>
     <use xlink:href="#DejaVuSans-54" transform="translate(63.183594 0)"/>
     <use xlink:href="#DejaVuSans-48" transform="translate(124.267578 0)"/>
     <use xlink:href="#DejaVuSans-20" transform="translate(199.462891 0)"/>
     <use xlink:href="#DejaVuSans-76" transform="translate(231.25 0)"/>
     <use xlink:href="#DejaVuSans-73" transform="translate(290.429688 0)"/>
     <use xlink:href="#DejaVuSans-20" transform="translate(342.529297 0)"/>
     <use xlink:href="#DejaVuSans-4e" transform="translate(374.316406 0)"/>
     <use xlink:href="#DejaVuSans-65" transform="translate(449.121094 0)"/>
     <use xlink:href="#DejaVuSans-74" transform="translate(510.644531 0)"/>
     <use xlink:href="#DejaVuSans-77" transform="translate(549.853516 0)"/>
     <use xlink:href="#DejaVuSans-6f" transform="translate(631.640625 0)"/>
     <use xlink:href="#DejaVuSans-72" transform="translate(692.822266 0)"/>
     <use xlink:href="#DejaVuSans-6b" transform="translate(733.935547 0)"/>
    </g>
   </g>
   <g id="text_20">
    <!-- ETH vs Public -->
    <g transform="translate(235.557829 347.392068) scale(0.07 -0.07)">
     <defs>
      <path id="DejaVuSans-63" d="M 3122 3366 
L 3122 2828 
Q 2878 2963 2633 3030 
Q 2388 3097 2138 3097 
Q 1578 3097 1268 2742 
Q 959 2388 959 1747 
Q 959 1106 1268 751 
Q 1578 397 2138 397 
Q 2388 397 2633 464 
Q 2878 531 3122 666 
L 3122 134 
Q 2881 22 2623 -34 
Q 2366 -91 2075 -91 
Q 1284 -91 818 406 
Q 353 903 353 1747 
Q 353 2603 823 3093 
Q 1294 3584 2113 3584 
Q 2378 3584 2631 3529 
Q 2884 3475 3122 3366 
z
" transform="scale(0.015625)"/>
     </defs>
     <use xlink:href="#DejaVuSans-45"/>
     <use xlink:href="#DejaVuSans-54" transform="translate(63.183594 0)"/>
     <use xlink:href="#DejaVuSans-48" transform="translate(124.267578 0)"/>
     <use xlink:href="#DejaVuSans-20" transform="translate(199.462891 0)"/>
     <use xlink:href="#DejaVuSans-76" transform="translate(231.25 0)"/>
     <use xlink:href="#DejaVuSans-73" transform="translate(290.429688 0)"/>
     <use xlink:href="#DejaVuSans-20" transform="translate(342.529297 0)"/>
     <use xlink:href="#DejaVuSans-50" transform="translate(374.316406 0)"/>
     <use xlink:href="#DejaVuSans-75" transform="translate(432.869141 0)"/>
     <use xlink:href="#DejaVuSans-62" transform="translate(496.248047 0)"/>
     <use xlink:href="#DejaVuSans-6c" transform="translate(559.724609 0)"/>
     <use xlink:href="#DejaVuSans-69" transform="translate(587.507812 0)"/>
     <use xlink:href="#DejaVuSans-63" transform="translate(615.291016 0)"/>
    </g>
   </g>
   <g id="text_21">
    <!-- Network vs Wire -->
    <g transform="translate(149.653283 379.176142) scale(0.07 -0.07)">
     <defs>
      <path id="DejaVuSans-57" d="M 213 4666 
L 850 4666 
L 1831 722 
L 2809 4666 
L 3519 4666 
L 4500 722 
L 5478 4666 
L 6119 4666 
L 4947 0 
L 4153 0 
L 3169 4050 
L 2175 0 
L 1381 0 
L 213 4666 
z
" transform="scale(0.015625)"/>
     </defs>
     <use xlink:href="#DejaVuSans-4e"/>
     <use xlink:href="#DejaVuSans-65" transform="translate(74.804688 0)"/>
     <use xlink:href="#DejaVuSans-74" transform="translate(136.328125 0)"/>
     <use xlink:href="#DejaVuSans-77" transform="translate(175.537109 0)"/>
     <use xlink:href="#DejaVuSans-6f" transform="translate(257.324219 0)"/>
     <use xlink:href="#DejaVuSans-72" transform="translate(318.505859 0)"/>
     <use xlink:href="#DejaVuSans-6b" transform="translate(359.619141 0)"/>
     <use xlink:href="#DejaVuSans-20" transform="translate(417.529297 0)"/>
     <use xlink:href="#DejaVuSans-76" transform="translate(449.316406 0)"/>
     <use xlink:href="#DejaVuSans-73" transform="translate(508.496094 0)"/>
     <use xlink:href="#DejaVuSans-20" transform="translate(560.595703 0)"/>
     <use xlink:href="#DejaVuSans-57" transform="translate(592.382812 0)"/>
     <use xlink:href="#DejaVuSans-69" transform="translate(689.009766 0)"/>
     <use xlink:href="#DejaVuSans-72" transform="translate(716.792969 0)"/>
     <use xlink:href="#DejaVuSans-65" transform="translate(755.65625 0)"/>
    </g>
   </g>
   <g id="text_22">
    <!-- Market structure: who wins? -->
    <g transform="translate(181.232256 14.798437) scale(0.1 -0.1)">
     <defs>
      <path id="DejaVuSans-4d" d="M 628 4666 
L 1569 4666 
L 2759 1491 
L 3956 4666 
L 4897 4666 
L 4897 0 
L 4281 0 
L 4281 4097 
L 3078 897 
L 2444 897 
L 1241 4097 
L 1241 0 
L 628 0 
L 628 4666 
z
" transform="scale(0.015625)"/>
      <path id="DejaVuSans-3a" d="M 750 794 
L 1409 794 
L 1409 0 
L 750 0 
L 750 794 
z
M 750 3309 
L 1409 3309 
L 1409 2516 
L 750 2516 
L 750 3309 
z
" transform="scale(0.015625)"/>
      <path id="DejaVuSans-68" d="M 3513 2113 
L 3513 0 
L 2938 0 
L 2938 2094 
Q 2938 2591 2744 2837 
Q 2550 3084 2163 3084 
Q 1697 3084 1428 2787 
Q 1159 2491 1159 1978 
L 1159 0 
L 581 0 
L 581 4863 
L 1159 4863 
L 1159 2956 
Q 1366 3272 1645 3428 
Q 1925 3584 2291 3584 
Q 2894 3584 3203 3211 
Q 3513 2838 3513 2113 
z
" transform="scale(0.015625)"/>
      <path id="DejaVuSans-3f" d="M 1222 794 
L 1856 794 
L 1856 0 
L 1222 0 
L 1222 794 
z
M 1838 1253 
L 1241 1253 
L 1241 1734 
Q 1241 2050 1328 2253 
Q 1416 2456 1697 2725 
L 1978 3003 
Q 2156 3169 2236 3316 
Q 2316 3463 2316 3616 
Q 2316 3894 2111 4066 
Q 1906 4238 1569 4238 
Q 1322 4238 1042 4128 
Q 763 4019 459 3809 
L 459 4397 
Q 753 4575 1054 4662 
Q 1356 4750 1678 4750 
Q 2253 4750 2601 4447 
Q 2950 4144 2950 3647 
Q 2950 3409 2837 3195 
Q 2725 2981 2444 2713 
L 2169 2444 
Q 2022 2297 1961 2214 
Q 1900 2131 1875 2053 
Q 1856 1988 1847 1894 
Q 1838 1800 1838 1638 
L 1838 1253 
z
" transform="scale(0.015625)"/>
     </defs>
     <use xlink:href="#DejaVuSans-4d"/>
     <use xlink:href="#DejaVuSans-61" transform="translate(86.279297 0)"/>
     <use xlink:href="#DejaVuSans-72" transform="translate(147.558594 0)"/>
     <use xlink:href="#DejaVuSans-6b" transform="translate(188.671875 0)"/>
     <use xlink:href="#DejaVuSans-65" transform="translate(242.957031 0)"/>
     <use xlink:href="#DejaVuSans-74" transform="translate(304.480469 0)"/>
     <use xlink:href="#DejaVuSans-20" transform="translate(343.689453 0)"/>
     <use xlink:href="#DejaVuSans-73" transform="translate(375.476562 0)"/>
     <use xlink:href="#DejaVuSans-74" transform="translate(427.576172 0)"/>
     <use xlink:href="#DejaVuSans-72" transform="translate(466.785156 0)"/>
     <use xlink:href="#DejaVuSans-75" transform="translate(507.898438 0)"/>
     <use xlink:href="#DejaVuSans-63" transform="translate(571.277344 0)"/>
     <use xlink:href="#DejaVuSans-74" transform="translate(626.257812 0)"/>
     <use xlink:href="#DejaVuSans-75" transform="translate(665.466797 0)"/>
     <use xlink:href="#DejaVuSans-72" transform="translate(728.845703 0)"/>
     <use xlink:href="#DejaVuSans-65" transform="translate(767.708984 0)"/>
     <use xlink:href="#DejaVuSans-3a" transform="translate(829.232422 0)"/>
     <use xlink:href="#DejaVuSans-20" transform="translate(862.923828 0)"/>
     <use xlink:href="#DejaVuSans-77" transform="translate(894.710938 0)"/>
     <use xlink:href="#DejaVuSans-68" transform="translate(976.498047 0)"/>
     <use xlink:href="#DejaVuSans-6f" transform="translate(1039.876953 0)"/>
     <use xlink:href="#DejaVuSans-20" transform="translate(1101.058594 0)"/>
     <use xlink:href="#DejaVuSans-77" transform="translate(1132.845703 0)"/>
     <use xlink:href="#DejaVuSans-69" transform="translate(1214.632812 0)"/>
     <use xlink:href="#DejaVuSans-6e" transform="translate(1242.416016 0)"/>
     <use xlink:href="#DejaVuSans-73" transform="translate(1305.794922 0)"/>
     <use xlink:href="#DejaVuSans-3f" transform="translate(1357.894531 0)"/>
    </g>
    <!-- Red = A wins, Blue = B wins, White ≈ coexistence -->
    <g transform="translate(125.900224 25.99625) scale(0.1 -0.1)">
     <defs>
      <path id="DejaVuSans-52" d="M 2841 2188 
Q 3044 2119 3236 1894 
Q 3428 1669 3622 1275 
L 4263 0 
L 3584 0 
L 2988 1197 
Q 2756 1666 2539 1819 
Q 2322 1972 1947 1972 
L 1259 1972 
L 1259 0 
L 628 0 
L 628 4666 
L 2053 4666 
Q 2853 4666 3247 4331 
Q 3641 3997 3641 3322 
Q 3641 2881 3436 2590 
Q 3231 2300 2841 2188 
z
M 1259 4147 
L 1259 2491 
L 2053 2491 
Q 2509 2491 2742 2702 
Q 2975 2913 2975 3322 
Q 2975 3731 2742 3939 
Q 2509 4147 2053 4147 
L 1259 4147 
z
" transform="scale(0.015625)"/>
      <path id="DejaVuSans-64" d="M 2906 2969 
L 2906 4863 
L 3481 4863 
L 3481 0 
L 2906 0 
L 2906 525 
Q 2725 213 2448 61 
Q 2172 -91 1784 -91 
Q 1150 -91 751 415 
Q 353 922 353 1747 
Q 353 2572 751 3078 
Q 1150 3584 1784 3584 
Q 2172 3584 2448 3432 
Q 2725 3281 2906 2969 
z
M 947 1747 
Q 947 1113 1208 752 
Q 1469 391 1925 391 
Q 2381 391 2643 752 
Q 2906 1113 2906 1747 
Q 2906 2381 2643 2742 
Q 2381 3103 1925 3103 
Q 1469 3103 1208 2742 
Q 947 2381 947 1747 
z
" transform="scale(0.015625)"/>
      <path id="DejaVuSans-3d" d="M 678 2906 
L 4684 2906 
L 4684 2381 
L 678 2381 
L 678 2906 
z
M 678 1631 
L 4684 1631 
L 4684 1100 
L 678 1100 
L 678 1631 
z
" transform="scale(0.015625)"/>
      <path id="DejaVuSans-2c" d="M 750 794 
L 1409 794 
L 1409 256 
L 897 -744 
L 494 -744 
L 750 256 
L 750 794 
z
" transform="scale(0.015625)"/>
      <path id="DejaVuSans-2248" d="M 4684 1947 
L 4684 1388 
Q 4356 1144 4076 1036 
Q 3797 928 3494 928 
Q 3150 928 2694 1113 
Q 2663 1125 2641 1134 
Q 2622 1141 2575 1159 
Q 2091 1350 1797 1350 
Q 1522 1350 1253 1231 
Q 984 1113 678 850 
L 678 1409 
Q 1006 1653 1286 1761 
Q 1566 1869 1869 1869 
Q 2213 1869 2672 1684 
Q 2706 1669 2722 1663 
Q 2741 1656 2788 1638 
Q 3272 1447 3566 1447 
Q 3834 1447 4098 1564 
Q 4363 1681 4684 1947 
z
M 4684 3163 
L 4684 2606 
Q 4356 2359 4076 2251 
Q 3797 2144 3494 2144 
Q 3150 2144 2694 2328 
Q 2663 2341 2641 2350 
Q 2622 2356 2575 2375 
Q 2091 2566 1797 2566 
Q 1522 2566 1253 2447 
Q 984 2328 678 2069 
L 678 2625 
Q 1006 2869 1286 2976 
Q 1566 3084 1869 3084 
Q 2213 3084 2672 2900 
Q 2703 2888 2719 2881 
Q 2741 2872 2788 2853 
Q 3272 2663 3566 2663 
Q 3834 2663 4098 2780 
Q 4363 2897 4684 3163 
z
" transform="scale(0.015625)"/>
      <path id="DejaVuSans-78" d="M 3513 3500 
L 2247 1797 
L 3578 0 
L 2900 0 
L 1881 1375 
L 863 0 
L 184 0 
L 1544 1831 
L 300 3500 
L 978 3500 
L 1906 2253 
L 2834 3500 
L 3513 3500 
z
" transform="scale(0.015625)"/>
     </defs>
     <use xlink:href="#DejaVuSans-52"/>
     <use xlink:href="#DejaVuSans-65" transform="translate(64.982422 0)"/>
     <use xlink:href="#DejaVuSans-64" transform="translate(126.505859 0)"/>
     <use xlink:href="#DejaVuSans-20" transform="translate(189.982422 0)"/>
     <use xlink:href="#DejaVuSans-3d" transform="translate(221.769531 0)"/>
     <use xlink:href="#DejaVuSans-20" transform="translate(305.558594 0)"/>
     <use xlink:href="#DejaVuSans-41" transform="translate(337.345703 0)"/>
     <use xlink:href="#DejaVuSans-20" transform="translate(405.753906 0)"/>
     <use xlink:href="#DejaVuSans-77" transform="translate(437.541016 0)"/>
     <use xlink:href="#DejaVuSans-69" transform="translate(519.328125 0)"/>
     <use xlink:href="#DejaVuSans-6e" transform="translate(547.111328 0)"/>
     <use xlink:href="#DejaVuSans-73" transform="translate(610.490234 0)"/>
     <use xlink:href="#DejaVuSans-2c" transform="translate(662.589844 0)"/>
     <use xlink:href="#DejaVuSans-20" transform="translate(694.376953 0)"/>
     <use xlink:href="#DejaVuSans-42" transform="translate(726.164062 0)"/>
     <use xlink:href="#DejaVuSans-6c" transform="translate(794.767578 0)"/>
     <use xlink:href="#DejaVuSans-75" transform="translate(822.550781 0)"/>
     <use xlink:href="#DejaVuSans-65" transform="translate(885.929688 0)"/>
     <use xlink:href="#DejaVuSans-20" transform="translate(947.453125 0)"/>
     <use xlink:href="#DejaVuSans-3d" transform="translate(979.240234 0)"/>
     <use xlink:href="#DejaVuSans-20" transform="translate(1063.029297 0)"/>
     <use xlink:href="#DejaVuSans-42" transform="translate(1094.816406 0)"/>
     <use xlink:href="#DejaVuSans-20" transform="translate(1163.419922 0)"/>
     <use xlink:href="#DejaVuSans-77" transform="translate(1195.207031 0)"/>
     <use xlink:href="#DejaVuSans-69" transform="translate(1276.994141 0)"/>
     <use xlink:href="#DejaVuSans-6e" transform="translate(1304.777344 0)"/>
     <use xlink:href="#DejaVuSans-73" transform="translate(1368.15625 0)"/>
     <use xlink:href="#DejaVuSans-2c" transform="translate(1420.255859 0)"/>
     <use xlink:href="#DejaVuSans-20" transform="translate(1452.042969 0)"/>
     <use xlink:href="#DejaVuSans-57" transform="translate(1483.830078 0)"/>
     <use xlink:href="#DejaVuSans-68" transform="translate(1582.707031 0)"/>
     <use xlink:href="#DejaVuSans-69" transform="translate(1646.085938 0)"/>
     <use xlink:href="#DejaVuSans-74" transform="translate(1673.869141 0)"/>
     <use xlink:href="#DejaVuSans-65" transform="translate(1713.078125 0)"/>
     <use xlink:href="#DejaVuSans-20" transform="translate(1774.601562 0)"/>
     <use xlink:href="#DejaVuSans-2248" transform="translate(1806.388672 0)"/>
     <use xlink:href="#DejaVuSans-20" transform="translate(1890.177734 0)"/>
     <use xlink:href="#DejaVuSans-63" transform="translate(1921.964844 0)"/>
     <use xlink:href="#DejaVuSans-6f" transform="translate(1976.945312 0)"/>
     <use xlink:href="#DejaVuSans-65" transform="translate(2038.126953 0)"/>
     <use xlink:href="#DejaVuSans-78" transform="translate(2097.900391 0)"/>
     <use xlink:href="#DejaVuSans-69" transform="translate(2157.080078 0)"/>
     <use xlink:href="#DejaVuSans-73" transform="translate(2184.863281 0)"/>
     <use xlink:href="#DejaVuSans-74" transform="translate(2236.962891 0)"/>
     <use xlink:href="#DejaVuSans-65" transform="translate(2276.171875 0)"/>
     <use xlink:href="#DejaVuSans-6e" transform="translate(2337.695312 0)"/>
     <use xlink:href="#DejaVuSans-63" transform="translate(2401.074219 0)"/>
     <use xlink:href="#DejaVuSans-65" transform="translate(2456.054688 0)"/>
    </g>
   </g>
   <g id="legend_1">
    <g id="patch_7">
     <path d="M 41.114375 50.36125 
L 153.774375 50.36125 
Q 155.374375 50.36125 155.374375 48.76125 
L 155.374375 37.59625 
Q 155.374375 35.99625 153.774375 35.99625 
L 41.114375 35.99625 
Q 39.514375 35.99625 39.514375 37.59625 
L 39.514375 48.76125 
Q 39.514375 50.36125 41.114375 50.36125 
z
" style="fill: #ffffff; opacity: 0.8; stroke: #cccccc; stroke-linejoin: miter"/>
    </g>
    <g id="line2d_16">
     <path d="M 42.714375 42.475 
L 50.714375 42.475 
L 58.714375 42.475 
" style="fill: none; stroke-dasharray: 5.55,2.4; stroke-dashoffset: 0; stroke: #000000; stroke-width: 1.5"/>
    </g>
    <g id="text_23">
     <!-- Pe_A = Pe_B (neutral) -->
     <g transform="translate(65.114375 45.275) scale(0.08 -0.08)">
      <use xlink:href="#DejaVuSans-50"/>
      <use xlink:href="#DejaVuSans-65" transform="translate(56.677734 0)"/>
      <use xlink:href="#DejaVuSans-5f" transform="translate(118.201172 0)"/>
      <use xlink:href="#DejaVuSans-41" transform="translate(168.201172 0)"/>
      <use xlink:href="#DejaVuSans-20" transform="translate(236.609375 0)"/>
      <use xlink:href="#DejaVuSans-3d" transform="translate(268.396484 0)"/>
      <use xlink:href="#DejaVuSans-20" transform="translate(352.185547 0)"/>
      <use xlink:href="#DejaVuSans-50" transform="translate(383.972656 0)"/>
      <use xlink:href="#DejaVuSans-65" transform="translate(440.650391 0)"/>
      <use xlink:href="#DejaVuSans-5f" transform="translate(502.173828 0)"/>
      <use xlink:href="#DejaVuSans-42" transform="translate(552.173828 0)"/>
      <use xlink:href="#DejaVuSans-20" transform="translate(620.777344 0)"/>
      <use xlink:href="#DejaVuSans-28" transform="translate(652.564453 0)"/>
      <use xlink:href="#DejaVuSans-6e" transform="translate(691.578125 0)"/>
      <use xlink:href="#DejaVuSans-65" transform="translate(754.957031 0)"/>
      <use xlink:href="#DejaVuSans-75" transform="translate(816.480469 0)"/>
      <use xlink:href="#DejaVuSans-74" transform="translate(879.859375 0)"/>
      <use xlink:href="#DejaVuSans-72" transform="translate(919.068359 0)"/>
      <use xlink:href="#DejaVuSans-61" transform="translate(960.181641 0)"/>
      <use xlink:href="#DejaVuSans-6c" transform="translate(1021.460938 0)"/>
      <use xlink:href="#DejaVuSans-29" transform="translate(1049.244141 0)"/>
     </g>
    </g>
   </g>
   <g id="PathCollection_1">
    <defs>
     <path id="m34fd7d394d" d="M 0 3.872983 
C 1.027127 3.872983 2.012324 3.464901 2.738613 2.738613 
C 3.464901 2.012324 3.872983 1.027127 3.872983 0 
C 3.872983 -1.027127 3.464901 -2.012324 2.738613 -2.738613 
C 2.012324 -3.464901 1.027127 -3.872983 0 -3.872983 
C -1.027127 -3.872983 -2.012324 -3.464901 -2.738613 -2.738613 
C -3.464901 -2.012324 -3.872983 -1.027127 -3.872983 0 
C -3.872983 1.027127 -3.464901 2.012324 -2.738613 2.738613 
C -2.012324 3.464901 -1.027127 3.872983 0 3.872983 
z
" style="stroke: #000000"/>
    </defs>
    <g clip-path="url(#peb31e8cc50)">
     <use xlink:href="#m34fd7d394d" x="450.018829" y="129.793403" style="stroke: #000000"/>
    </g>
   </g>
   <g id="PathCollection_2">
    <g clip-path="url(#peb31e8cc50)">
     <use xlink:href="#m34fd7d394d" x="347.894543" y="226.123598" style="stroke: #000000"/>
    </g>
   </g>
   <g id="PathCollection_3">
    <g clip-path="url(#peb31e8cc50)">
     <use xlink:href="#m34fd7d394d" x="229.550518" y="296.048562" style="stroke: #000000"/>
    </g>
   </g>
   <g id="PathCollection_4">
    <g clip-path="url(#peb31e8cc50)">
     <use xlink:href="#m34fd7d394d" x="229.550518" y="352.281925" style="stroke: #000000"/>
    </g>
   </g>
   <g id="PathCollection_5">
    <g clip-path="url(#peb31e8cc50)">
     <use xlink:href="#m34fd7d394d" x="143.645972" y="384.066" style="stroke: #000000"/>
    </g>
   </g>
  </g>
  <g id="axes_2">
   <g id="patch_8">
    <path d="M 559.953375 384.066 
L 905.974484 384.066 
L 905.974484 31.99625 
L 559.953375 31.99625 
z
" style="fill: #ffffff"/>
   </g>
   <g id="QuadContourSet_2">
    <path d="M 814.916297 384.066 
L 833.127935 384.066 
L 851.339572 384.066 
L 869.551209 384.066 
L 887.762847 384.066 
L 905.974484 384.066 
L 905.974484 365.536013 
L 905.974484 347.006026 
L 905.974484 328.476039 
L 905.974484 309.946053 
L 905.974484 291.416066 
L 905.974484 272.886079 
L 905.974484 254.356092 
L 905.974484 235.826105 
L 905.974484 217.296118 
L 905.974484 198.766132 
L 905.974484 180.236145 
L 905.974484 171.026741 
L 896.9233 180.236145 
L 887.762847 189.556728 
L 878.711663 198.766132 
L 869.551209 208.086715 
L 860.500026 217.296118 
L 869.551209 226.505522 
L 878.711663 235.826105 
L 869.551209 245.146689 
L 860.500026 254.356092 
L 851.339572 263.676675 
L 842.288388 272.886079 
L 842.288388 291.416066 
L 842.288388 309.946053 
L 833.127935 319.266636 
L 824.076751 328.476039 
L 824.076751 347.006026 
L 814.916297 356.32661 
L 805.865114 365.536013 
L 805.865114 384.066 
z
" clip-path="url(#p867085a1fa)" style="fill: #ffffe7"/>
    <path d="M 805.865114 365.536013 
L 814.916297 356.32661 
L 824.076751 347.006026 
L 824.076751 328.476039 
L 833.127935 319.266636 
L 842.288388 309.946053 
L 842.288388 291.416066 
L 842.288388 272.886079 
L 851.339572 263.676675 
L 860.500026 254.356092 
L 869.551209 245.146689 
L 878.711663 235.826105 
L 869.551209 226.505522 
L 860.500026 217.296118 
L 869.551209 208.086715 
L 878.711663 198.766132 
L 887.762847 189.556728 
L 896.9233 180.236145 
L 905.974484 171.026741 
L 905.974484 161.780278 
L 887.835693 180.236145 
L 887.762847 180.310265 
L 869.624056 198.766132 
L 869.551209 198.840252 
L 851.412419 217.296118 
L 869.551209 235.751985 
L 869.624056 235.826105 
L 869.551209 235.900225 
L 851.412419 254.356092 
L 851.339572 254.430212 
L 833.200781 272.886079 
L 833.200781 291.416066 
L 833.200781 309.946053 
L 833.127935 310.020173 
L 814.989144 328.476039 
L 814.989144 347.006026 
L 814.916297 347.080146 
L 796.777507 365.536013 
L 796.777507 384.066 
L 805.865114 384.066 
z
" clip-path="url(#p867085a1fa)" style="fill: #ffffb0"/>
    <path d="M 687.434836 384.066 
L 705.646474 384.066 
L 723.858111 384.066 
L 742.069748 384.066 
L 760.281386 384.066 
L 778.493023 384.066 
L 796.70466 384.066 
L 796.777507 384.066 
L 796.777507 365.536013 
L 814.916297 347.080146 
L 814.989144 347.006026 
L 814.989144 328.476039 
L 833.127935 310.020173 
L 833.200781 309.946053 
L 833.200781 291.416066 
L 833.200781 272.886079 
L 851.339572 254.430212 
L 851.412419 254.356092 
L 869.551209 235.900225 
L 869.624056 235.826105 
L 869.551209 235.751985 
L 851.412419 217.296118 
L 869.551209 198.840252 
L 869.624056 198.766132 
L 887.762847 180.310265 
L 887.835693 180.236145 
L 905.974484 161.780278 
L 905.974484 161.706158 
L 905.974484 143.176171 
L 905.974484 124.646184 
L 905.974484 106.116197 
L 905.974484 87.586211 
L 905.974484 69.056224 
L 905.974484 50.526237 
L 887.762847 69.056224 
L 869.551209 87.586211 
L 860.536449 96.758554 
L 860.536449 106.116197 
L 851.339572 115.473841 
L 842.324812 124.646184 
L 833.127935 134.003828 
L 824.113174 143.176171 
L 814.916297 152.533814 
L 805.901537 161.706158 
L 796.70466 171.063801 
L 787.6899 180.236145 
L 787.6899 198.766132 
L 778.493023 208.123775 
L 769.478262 217.296118 
L 760.281386 226.653762 
L 751.266625 235.826105 
L 751.266625 254.356092 
L 742.069748 263.713735 
L 733.054988 272.886079 
L 723.858111 282.243722 
L 714.84335 291.416066 
L 714.84335 309.946053 
L 705.646474 319.303696 
L 696.631713 328.476039 
L 696.631713 347.006026 
L 687.434836 356.36367 
L 678.420076 365.536013 
L 678.420076 384.066 
z
" clip-path="url(#p867085a1fa)" style="fill: #ffff7d"/>
    <path d="M 678.420076 365.536013 
L 687.434836 356.36367 
L 696.631713 347.006026 
L 696.631713 328.476039 
L 705.646474 319.303696 
L 714.84335 309.946053 
L 714.84335 291.416066 
L 723.858111 282.243722 
L 733.054988 272.886079 
L 742.069748 263.713735 
L 751.266625 254.356092 
L 751.266625 235.826105 
L 760.281386 226.653762 
L 769.478262 217.296118 
L 778.493023 208.123775 
L 787.6899 198.766132 
L 787.6899 180.236145 
L 796.70466 171.063801 
L 805.901537 161.706158 
L 814.916297 152.533814 
L 824.113174 143.176171 
L 833.127935 134.003828 
L 842.324812 124.646184 
L 851.339572 115.473841 
L 860.536449 106.116197 
L 860.536449 96.758554 
L 851.448842 106.005017 
L 851.448842 106.116197 
L 851.339572 106.227377 
L 833.237205 124.646184 
L 833.127935 124.757364 
L 815.025567 143.176171 
L 814.916297 143.287351 
L 796.81393 161.706158 
L 796.70466 161.817338 
L 778.602293 180.236145 
L 778.602293 198.766132 
L 778.493023 198.877311 
L 760.390655 217.296118 
L 760.281386 217.407298 
L 742.179018 235.826105 
L 742.179018 254.356092 
L 742.069748 254.467272 
L 723.967381 272.886079 
L 723.858111 272.997259 
L 705.755743 291.416066 
L 705.755743 309.946053 
L 705.646474 310.057233 
L 687.544106 328.476039 
L 687.544106 347.006026 
L 687.434836 347.117206 
L 669.332469 365.536013 
L 669.332469 384.066 
L 678.420076 384.066 
z
" clip-path="url(#p867085a1fa)" style="fill: #ffff46"/>
    <path d="M 651.011562 384.066 
L 669.223199 384.066 
L 669.332469 384.066 
L 669.332469 365.536013 
L 687.434836 347.117206 
L 687.544106 347.006026 
L 687.544106 328.476039 
L 705.646474 310.057233 
L 705.755743 309.946053 
L 705.755743 291.416066 
L 723.858111 272.997259 
L 723.967381 272.886079 
L 742.069748 254.467272 
L 742.179018 254.356092 
L 742.179018 235.826105 
L 760.281386 217.407298 
L 760.390655 217.296118 
L 778.493023 198.877311 
L 778.602293 198.766132 
L 778.602293 180.236145 
L 796.70466 161.817338 
L 796.81393 161.706158 
L 814.916297 143.287351 
L 815.025567 143.176171 
L 833.127935 124.757364 
L 833.237205 124.646184 
L 851.339572 106.227377 
L 851.448842 106.116197 
L 851.448842 106.005017 
L 851.339572 106.116197 
L 833.127935 124.646184 
L 814.916297 143.176171 
L 796.70466 161.706158 
L 778.493023 180.236145 
L 760.281386 198.766132 
L 742.069748 217.296118 
L 733.091411 226.431402 
L 733.091411 235.826105 
L 723.858111 245.220809 
L 714.879774 254.356092 
L 705.646474 263.750795 
L 696.668136 272.886079 
L 687.434836 282.280782 
L 678.456499 291.416066 
L 678.456499 309.946053 
L 669.223199 319.340756 
L 660.244862 328.476039 
L 660.244862 347.006026 
L 651.011562 356.40073 
L 642.033224 365.536013 
L 642.033224 384.066 
z
" clip-path="url(#p867085a1fa)" style="fill: #ffff13"/>
    <path d="M 642.033224 365.536013 
L 651.011562 356.40073 
L 660.244862 347.006026 
L 660.244862 328.476039 
L 669.223199 319.340756 
L 678.456499 309.946053 
L 678.456499 291.416066 
L 687.434836 282.280782 
L 696.668136 272.886079 
L 705.646474 263.750795 
L 714.879774 254.356092 
L 723.858111 245.220809 
L 733.091411 235.826105 
L 733.091411 226.431402 
L 724.003804 235.677865 
L 724.003804 235.826105 
L 723.858111 235.974345 
L 705.792167 254.356092 
L 705.646474 254.504332 
L 687.580529 272.886079 
L 687.434836 273.034319 
L 669.368892 291.416066 
L 669.368892 309.946053 
L 669.223199 310.094293 
L 651.157255 328.476039 
L 651.157255 347.006026 
L 651.011562 347.154266 
L 632.945617 365.536013 
L 632.945617 384.066 
L 642.033224 384.066 
z
" clip-path="url(#p867085a1fa)" style="fill: #ffe700"/>
    <path d="M 614.588287 384.066 
L 632.799924 384.066 
L 632.945617 384.066 
L 632.945617 365.536013 
L 651.011562 347.154266 
L 651.157255 347.006026 
L 651.157255 328.476039 
L 669.223199 310.094293 
L 669.368892 309.946053 
L 669.368892 291.416066 
L 687.434836 273.034319 
L 687.580529 272.886079 
L 705.646474 254.504332 
L 705.792167 254.356092 
L 723.858111 235.974345 
L 724.003804 235.826105 
L 724.003804 235.677865 
L 723.858111 235.826105 
L 705.646474 254.356092 
L 687.434836 272.886079 
L 669.223199 291.416066 
L 660.281285 300.514289 
L 660.281285 309.946053 
L 651.011562 319.377816 
L 646.540605 328.476039 
L 642.069648 347.006026 
L 632.799924 356.43779 
L 623.85801 365.536013 
L 614.588287 374.967776 
L 610.11733 384.066 
z
" clip-path="url(#p867085a1fa)" style="fill: #ffc500"/>
    <path d="M 614.588287 374.967776 
L 623.85801 365.536013 
L 632.799924 356.43779 
L 642.069648 347.006026 
L 646.540605 328.476039 
L 651.011562 319.377816 
L 660.281285 309.946053 
L 660.281285 300.514289 
L 651.193678 309.760753 
L 651.193678 309.946053 
L 651.011562 310.131352 
L 641.996801 328.476039 
L 632.982041 347.006026 
L 632.799924 347.191326 
L 614.770403 365.536013 
L 614.588287 365.721313 
L 605.573526 384.066 
L 610.11733 384.066 
z
" clip-path="url(#p867085a1fa)" style="fill: #ffa000"/>
    <path d="M 614.588287 365.721313 
L 614.770403 365.536013 
L 632.799924 347.191326 
L 632.982041 347.006026 
L 641.996801 328.476039 
L 651.011562 310.131352 
L 651.193678 309.946053 
L 651.193678 309.760753 
L 651.011562 309.946053 
L 642.106071 319.007216 
L 637.452998 328.476039 
L 632.799924 337.944863 
L 623.894434 347.006026 
L 614.588287 356.47485 
L 611.61979 365.536013 
L 601.029723 384.066 
L 605.573526 384.066 
z
" clip-path="url(#p867085a1fa)" style="fill: #ff7e00"/>
    <path d="M 611.61979 365.536013 
L 614.588287 356.47485 
L 623.894434 347.006026 
L 632.799924 337.944863 
L 637.452998 328.476039 
L 642.106071 319.007216 
L 633.018464 328.25368 
L 632.909194 328.476039 
L 632.799924 328.698399 
L 614.806827 347.006026 
L 614.588287 347.228386 
L 608.590588 365.536013 
L 596.485919 384.066 
L 601.029723 384.066 
z
" clip-path="url(#p867085a1fa)" style="fill: #ff5c00"/>
    <path d="M 596.37665 384.066 
L 596.485919 384.066 
L 608.590588 365.536013 
L 614.588287 347.228386 
L 614.806827 347.006026 
L 632.799924 328.698399 
L 632.909194 328.476039 
L 633.018464 328.25368 
L 632.799924 328.476039 
L 614.588287 347.006026 
L 610.153753 351.518078 
L 605.561385 365.536013 
L 596.37665 379.553948 
L 594.159383 384.066 
z
" clip-path="url(#p867085a1fa)" style="fill: #ff3700"/>
    <path d="M 596.37665 379.553948 
L 605.561385 365.536013 
L 610.153753 351.518078 
L 605.60995 356.14131 
L 602.532183 365.536013 
L 596.37665 374.930716 
L 591.887481 384.066 
L 594.159383 384.066 
z
" clip-path="url(#p867085a1fa)" style="fill: #ff1500"/>
    <path d="M 596.37665 374.930716 
L 602.532183 365.536013 
L 605.60995 356.14131 
L 601.066146 360.764542 
L 599.502981 365.536013 
L 596.37665 370.307485 
L 589.615579 384.066 
L 591.887481 384.066 
z
" clip-path="url(#p867085a1fa)" style="fill: #ef0000"/>
    <path d="M 596.37665 370.307485 
L 599.502981 365.536013 
L 601.066146 360.764542 
L 596.522343 365.387773 
L 596.473778 365.536013 
L 596.37665 365.684253 
L 587.343678 384.066 
L 589.615579 384.066 
z
" clip-path="url(#p867085a1fa)" style="fill: #cd0000"/>
    <path d="M 596.37665 365.684253 
L 596.473778 365.536013 
L 596.522343 365.387773 
L 596.37665 365.536013 
L 591.978539 370.011005 
L 585.071776 384.066 
L 587.343678 384.066 
z
" clip-path="url(#p867085a1fa)" style="fill: #a80000"/>
    <path d="M 591.978539 370.011005 
L 587.434736 374.634237 
L 582.799874 384.066 
L 585.071776 384.066 
z
" clip-path="url(#p867085a1fa)" style="fill: #860000"/>
    <path d="M 587.434736 374.634237 
L 582.890932 379.257468 
L 580.527972 384.066 
L 582.799874 384.066 
z
" clip-path="url(#p867085a1fa)" style="fill: #610000"/>
    <path d="M 582.890932 379.257468 
L 578.347129 383.8807 
L 578.256071 384.066 
L 580.527972 384.066 
z
" clip-path="url(#p867085a1fa)" style="fill: #3f0000"/>
    <path d="M 578.347129 383.8807 
L 578.165012 384.066 
L 578.256071 384.066 
z
" clip-path="url(#p867085a1fa)" style="fill: #1a0000"/>
   </g>
   <g id="matplotlib.axis_3">
    <g id="xtick_8">
     <g id="line2d_17">
      <g>
       <use xlink:href="#medf54018fa" x="593.594316" y="384.066" style="stroke: #000000; stroke-width: 0.8"/>
      </g>
     </g>
     <g id="text_24">
      <!-- 1 -->
      <g transform="translate(590.413066 398.664437) scale(0.1 -0.1)">
       <use xlink:href="#DejaVuSans-31"/>
      </g>
     </g>
    </g>
    <g id="xtick_9">
     <g id="line2d_18">
      <g>
       <use xlink:href="#medf54018fa" x="641.652804" y="384.066" style="stroke: #000000; stroke-width: 0.8"/>
      </g>
     </g>
     <g id="text_25">
      <!-- 2 -->
      <g transform="translate(638.471554 398.664437) scale(0.1 -0.1)">
       <use xlink:href="#DejaVuSans-32"/>
      </g>
     </g>
    </g>
    <g id="xtick_10">
     <g id="line2d_19">
      <g>
       <use xlink:href="#medf54018fa" x="689.711291" y="384.066" style="stroke: #000000; stroke-width: 0.8"/>
      </g>
     </g>
     <g id="text_26">
      <!-- 3 -->
      <g transform="translate(686.530041 398.664437) scale(0.1 -0.1)">
       <use xlink:href="#DejaVuSans-33"/>
      </g>
     </g>
    </g>
    <g id="xtick_11">
     <g id="line2d_20">
      <g>
       <use xlink:href="#medf54018fa" x="737.769778" y="384.066" style="stroke: #000000; stroke-width: 0.8"/>
      </g>
     </g>
     <g id="text_27">
      <!-- 4 -->
      <g transform="translate(734.588528 398.664437) scale(0.1 -0.1)">
       <use xlink:href="#DejaVuSans-34"/>
      </g>
     </g>
    </g>
    <g id="xtick_12">
     <g id="line2d_21">
      <g>
       <use xlink:href="#medf54018fa" x="785.828266" y="384.066" style="stroke: #000000; stroke-width: 0.8"/>
      </g>
     </g>
     <g id="text_28">
      <!-- 5 -->
      <g transform="translate(782.647016 398.664437) scale(0.1 -0.1)">
       <use xlink:href="#DejaVuSans-35"/>
      </g>
     </g>
    </g>
    <g id="xtick_13">
     <g id="line2d_22">
      <g>
       <use xlink:href="#medf54018fa" x="833.886753" y="384.066" style="stroke: #000000; stroke-width: 0.8"/>
      </g>
     </g>
     <g id="text_29">
      <!-- 6 -->
      <g transform="translate(830.705503 398.664437) scale(0.1 -0.1)">
       <use xlink:href="#DejaVuSans-36"/>
      </g>
     </g>
    </g>
    <g id="xtick_14">
     <g id="line2d_23">
      <g>
       <use xlink:href="#medf54018fa" x="881.94524" y="384.066" style="stroke: #000000; stroke-width: 0.8"/>
      </g>
     </g>
     <g id="text_30">
      <!-- 7 -->
      <g transform="translate(878.76399 398.664437) scale(0.1 -0.1)">
       <use xlink:href="#DejaVuSans-37"/>
      </g>
     </g>
    </g>
    <g id="text_31">
     <!-- Pe_A -->
     <g transform="translate(719.950414 412.796469) scale(0.11 -0.11)">
      <use xlink:href="#DejaVuSans-50"/>
      <use xlink:href="#DejaVuSans-65" transform="translate(56.677734 0)"/>
      <use xlink:href="#DejaVuSans-5f" transform="translate(118.201172 0)"/>
      <use xlink:href="#DejaVuSans-41" transform="translate(168.201172 0)"/>
     </g>
    </g>
   </g>
   <g id="matplotlib.axis_4">
    <g id="ytick_8">
     <g id="line2d_24">
      <g>
       <use xlink:href="#m6c7fa13709" x="559.953375" y="349.836997" style="stroke: #000000; stroke-width: 0.8"/>
      </g>
     </g>
     <g id="text_32">
      <!-- 1 -->
      <g transform="translate(546.590875 353.636215) scale(0.1 -0.1)">
       <use xlink:href="#DejaVuSans-31"/>
      </g>
     </g>
    </g>
    <g id="ytick_9">
     <g id="line2d_25">
      <g>
       <use xlink:href="#m6c7fa13709" x="559.953375" y="300.93842" style="stroke: #000000; stroke-width: 0.8"/>
      </g>
     </g>
     <g id="text_33">
      <!-- 2 -->
      <g transform="translate(546.590875 304.737639) scale(0.1 -0.1)">
       <use xlink:href="#DejaVuSans-32"/>
      </g>
     </g>
    </g>
    <g id="ytick_10">
     <g id="line2d_26">
      <g>
       <use xlink:href="#m6c7fa13709" x="559.953375" y="252.039844" style="stroke: #000000; stroke-width: 0.8"/>
      </g>
     </g>
     <g id="text_34">
      <!-- 3 -->
      <g transform="translate(546.590875 255.839062) scale(0.1 -0.1)">
       <use xlink:href="#DejaVuSans-33"/>
      </g>
     </g>
    </g>
    <g id="ytick_11">
     <g id="line2d_27">
      <g>
       <use xlink:href="#m6c7fa13709" x="559.953375" y="203.141267" style="stroke: #000000; stroke-width: 0.8"/>
      </g>
     </g>
     <g id="text_35">
      <!-- 4 -->
      <g transform="translate(546.590875 206.940486) scale(0.1 -0.1)">
       <use xlink:href="#DejaVuSans-34"/>
      </g>
     </g>
    </g>
    <g id="ytick_12">
     <g id="line2d_28">
      <g>
       <use xlink:href="#m6c7fa13709" x="559.953375" y="154.242691" style="stroke: #000000; stroke-width: 0.8"/>
      </g>
     </g>
     <g id="text_36">
      <!-- 5 -->
      <g transform="translate(546.590875 158.04191) scale(0.1 -0.1)">
       <use xlink:href="#DejaVuSans-35"/>
      </g>
     </g>
    </g>
    <g id="ytick_13">
     <g id="line2d_29">
      <g>
       <use xlink:href="#m6c7fa13709" x="559.953375" y="105.344115" style="stroke: #000000; stroke-width: 0.8"/>
      </g>
     </g>
     <g id="text_37">
      <!-- 6 -->
      <g transform="translate(546.590875 109.143333) scale(0.1 -0.1)">
       <use xlink:href="#DejaVuSans-36"/>
      </g>
     </g>
    </g>
    <g id="ytick_14">
     <g id="line2d_30">
      <g>
       <use xlink:href="#m6c7fa13709" x="559.953375" y="56.445538" style="stroke: #000000; stroke-width: 0.8"/>
      </g>
     </g>
     <g id="text_38">
      <!-- 7 -->
      <g transform="translate(546.590875 60.244757) scale(0.1 -0.1)">
       <use xlink:href="#DejaVuSans-37"/>
      </g>
     </g>
    </g>
    <g id="text_39">
     <!-- Pe_B -->
     <g transform="translate(539.997281 221.055812) rotate(-90) scale(0.11 -0.11)">
      <use xlink:href="#DejaVuSans-50"/>
      <use xlink:href="#DejaVuSans-65" transform="translate(56.677734 0)"/>
      <use xlink:href="#DejaVuSans-5f" transform="translate(118.201172 0)"/>
      <use xlink:href="#DejaVuSans-42" transform="translate(168.201172 0)"/>
     </g>
    </g>
   </g>
   <g id="line2d_31">
    <path d="M 559.953375 384.066 
L 905.974484 31.99625 
" clip-path="url(#p867085a1fa)" style="fill: none; stroke-dasharray: 5.55,2.4; stroke-dashoffset: 0; stroke: #ffffff; stroke-width: 1.5"/>
   </g>
   <g id="patch_9">
    <path d="M 559.953375 384.066 
L 559.953375 31.99625 
" style="fill: none; stroke: #000000; stroke-width: 0.8; stroke-linejoin: miter; stroke-linecap: square"/>
   </g>
   <g id="patch_10">
    <path d="M 905.974484 384.066 
L 905.974484 31.99625 
" style="fill: none; stroke: #000000; stroke-width: 0.8; stroke-linejoin: miter; stroke-linecap: square"/>
   </g>
   <g id="patch_11">
    <path d="M 559.953375 384.066 
L 905.974484 384.066 
" style="fill: none; stroke: #000000; stroke-width: 0.8; stroke-linejoin: miter; stroke-linecap: square"/>
   </g>
   <g id="patch_12">
    <path d="M 559.953375 31.99625 
L 905.974484 31.99625 
" style="fill: none; stroke: #000000; stroke-width: 0.8; stroke-linejoin: miter; stroke-linecap: square"/>
   </g>
   <g id="text_40">
    <!-- Convergence speed (A wins region) -->
    <g transform="translate(644.148305 14.798437) scale(0.1 -0.1)">
     <defs>
      <path id="DejaVuSans-43" d="M 4122 4306 
L 4122 3641 
Q 3803 3938 3442 4084 
Q 3081 4231 2675 4231 
Q 1875 4231 1450 3742 
Q 1025 3253 1025 2328 
Q 1025 1406 1450 917 
Q 1875 428 2675 428 
Q 3081 428 3442 575 
Q 3803 722 4122 1019 
L 4122 359 
Q 3791 134 3420 21 
Q 3050 -91 2638 -91 
Q 1578 -91 968 557 
Q 359 1206 359 2328 
Q 359 3453 968 4101 
Q 1578 4750 2638 4750 
Q 3056 4750 3426 4639 
Q 3797 4528 4122 4306 
z
" transform="scale(0.015625)"/>
      <path id="DejaVuSans-67" d="M 2906 1791 
Q 2906 2416 2648 2759 
Q 2391 3103 1925 3103 
Q 1463 3103 1205 2759 
Q 947 2416 947 1791 
Q 947 1169 1205 825 
Q 1463 481 1925 481 
Q 2391 481 2648 825 
Q 2906 1169 2906 1791 
z
M 3481 434 
Q 3481 -459 3084 -895 
Q 2688 -1331 1869 -1331 
Q 1566 -1331 1297 -1286 
Q 1028 -1241 775 -1147 
L 775 -588 
Q 1028 -725 1275 -790 
Q 1522 -856 1778 -856 
Q 2344 -856 2625 -561 
Q 2906 -266 2906 331 
L 2906 616 
Q 2728 306 2450 153 
Q 2172 0 1784 0 
Q 1141 0 747 490 
Q 353 981 353 1791 
Q 353 2603 747 3093 
Q 1141 3584 1784 3584 
Q 2172 3584 2450 3431 
Q 2728 3278 2906 2969 
L 2906 3500 
L 3481 3500 
L 3481 434 
z
" transform="scale(0.015625)"/>
     </defs>
     <use xlink:href="#DejaVuSans-43"/>
     <use xlink:href="#DejaVuSans-6f" transform="translate(69.824219 0)"/>
     <use xlink:href="#DejaVuSans-6e" transform="translate(131.005859 0)"/>
     <use xlink:href="#DejaVuSans-76" transform="translate(194.384766 0)"/>
     <use xlink:href="#DejaVuSans-65" transform="translate(253.564453 0)"/>
     <use xlink:href="#DejaVuSans-72" transform="translate(315.087891 0)"/>
     <use xlink:href="#DejaVuSans-67" transform="translate(354.451172 0)"/>
     <use xlink:href="#DejaVuSans-65" transform="translate(417.927734 0)"/>
     <use xlink:href="#DejaVuSans-6e" transform="translate(479.451172 0)"/>
     <use xlink:href="#DejaVuSans-63" transform="translate(542.830078 0)"/>
     <use xlink:href="#DejaVuSans-65" transform="translate(597.810547 0)"/>
     <use xlink:href="#DejaVuSans-20" transform="translate(659.333984 0)"/>
     <use xlink:href="#DejaVuSans-73" transform="translate(691.121094 0)"/>
     <use xlink:href="#DejaVuSans-70" transform="translate(743.220703 0)"/>
     <use xlink:href="#DejaVuSans-65" transform="translate(806.697266 0)"/>
     <use xlink:href="#DejaVuSans-65" transform="translate(868.220703 0)"/>
     <use xlink:href="#DejaVuSans-64" transform="translate(929.744141 0)"/>
     <use xlink:href="#DejaVuSans-20" transform="translate(993.220703 0)"/>
     <use xlink:href="#DejaVuSans-28" transform="translate(1025.007812 0)"/>
     <use xlink:href="#DejaVuSans-41" transform="translate(1064.021484 0)"/>
     <use xlink:href="#DejaVuSans-20" transform="translate(1132.429688 0)"/>
     <use xlink:href="#DejaVuSans-77" transform="translate(1164.216797 0)"/>
     <use xlink:href="#DejaVuSans-69" transform="translate(1246.003906 0)"/>
     <use xlink:href="#DejaVuSans-6e" transform="translate(1273.787109 0)"/>
     <use xlink:href="#DejaVuSans-73" transform="translate(1337.166016 0)"/>
     <use xlink:href="#DejaVuSans-20" transform="translate(1389.265625 0)"/>
     <use xlink:href="#DejaVuSans-72" transform="translate(1421.052734 0)"/>
     <use xlink:href="#DejaVuSans-65" transform="translate(1459.916016 0)"/>
     <use xlink:href="#DejaVuSans-67" transform="translate(1521.439453 0)"/>
     <use xlink:href="#DejaVuSans-69" transform="translate(1584.916016 0)"/>
     <use xlink:href="#DejaVuSans-6f" transform="translate(1612.699219 0)"/>
     <use xlink:href="#DejaVuSans-6e" transform="translate(1673.880859 0)"/>
     <use xlink:href="#DejaVuSans-29" transform="translate(1737.259766 0)"/>
    </g>
    <!-- Larger Pe gap → faster exclusion -->
    <g transform="translate(651.470961 25.99625) scale(0.1 -0.1)">
     <defs>
      <path id="DejaVuSans-4c" d="M 628 4666 
L 1259 4666 
L 1259 531 
L 3531 531 
L 3531 0 
L 628 0 
L 628 4666 
z
" transform="scale(0.015625)"/>
      <path id="DejaVuSans-2192" d="M 5050 2147 
L 5050 1866 
L 3822 638 
L 3447 1013 
L 4175 1741 
L 366 1741 
L 366 2272 
L 4175 2272 
L 3447 3000 
L 3822 3375 
L 5050 2147 
z
" transform="scale(0.015625)"/>
     </defs>
     <use xlink:href="#DejaVuSans-4c"/>
     <use xlink:href="#DejaVuSans-61" transform="translate(55.712891 0)"/>
     <use xlink:href="#DejaVuSans-72" transform="translate(116.992188 0)"/>
     <use xlink:href="#DejaVuSans-67" transform="translate(156.355469 0)"/>
     <use xlink:href="#DejaVuSans-65" transform="translate(219.832031 0)"/>
     <use xlink:href="#DejaVuSans-72" transform="translate(281.355469 0)"/>
     <use xlink:href="#DejaVuSans-20" transform="translate(322.46875 0)"/>
     <use xlink:href="#DejaVuSans-50" transform="translate(354.255859 0)"/>
     <use xlink:href="#DejaVuSans-65" transform="translate(410.933594 0)"/>
     <use xlink:href="#DejaVuSans-20" transform="translate(472.457031 0)"/>
     <use xlink:href="#DejaVuSans-67" transform="translate(504.244141 0)"/>
     <use xlink:href="#DejaVuSans-61" transform="translate(567.720703 0)"/>
     <use xlink:href="#DejaVuSans-70" transform="translate(629 0)"/>
     <use xlink:href="#DejaVuSans-20" transform="translate(692.476562 0)"/>
     <use xlink:href="#DejaVuSans-2192" transform="translate(724.263672 0)"/>
     <use xlink:href="#DejaVuSans-20" transform="translate(808.052734 0)"/>
     <use xlink:href="#DejaVuSans-66" transform="translate(839.839844 0)"/>
     <use xlink:href="#DejaVuSans-61" transform="translate(875.044922 0)"/>
     <use xlink:href="#DejaVuSans-73" transform="translate(936.324219 0)"/>
     <use xlink:href="#DejaVuSans-74" transform="translate(988.423828 0)"/>
     <use xlink:href="#DejaVuSans-65" transform="translate(1027.632812 0)"/>
     <use xlink:href="#DejaVuSans-72" transform="translate(1089.15625 0)"/>
     <use xlink:href="#DejaVuSans-20" transform="translate(1130.269531 0)"/>
     <use xlink:href="#DejaVuSans-65" transform="translate(1162.056641 0)"/>
     <use xlink:href="#DejaVuSans-78" transform="translate(1221.830078 0)"/>
     <use xlink:href="#DejaVuSans-63" transform="translate(1279.259766 0)"/>
     <use xlink:href="#DejaVuSans-6c" transform="translate(1334.240234 0)"/>
     <use xlink:href="#DejaVuSans-75" transform="translate(1362.023438 0)"/>
     <use xlink:href="#DejaVuSans-73" transform="translate(1425.402344 0)"/>
     <use xlink:href="#DejaVuSans-69" transform="translate(1477.501953 0)"/>
     <use xlink:href="#DejaVuSans-6f" transform="translate(1505.285156 0)"/>
     <use xlink:href="#DejaVuSans-6e" transform="translate(1566.466797 0)"/>
    </g>
   </g>
  </g>
  <g id="axes_3">
   <g id="patch_13">
    <path d="M 927.600803 384.066 
L 945.204291 384.066 
L 945.204291 31.99625 
L 927.600803 31.99625 
z
" style="fill: #ffffff"/>
   </g>
   <g id="QuadMesh_1">
    <path d="M 927.600803 384.066 
L 945.204291 384.066 
L 945.204291 365.536013 
L 927.600803 365.536013 
L 927.600803 384.066 
" clip-path="url(#pbc982f5e9c)" style="fill: #ffffe7"/>
    <path d="M 927.600803 365.536013 
L 945.204291 365.536013 
L 945.204291 347.006026 
L 927.600803 347.006026 
L 927.600803 365.536013 
" clip-path="url(#pbc982f5e9c)" style="fill: #ffffb0"/>
    <path d="M 927.600803 347.006026 
L 945.204291 347.006026 
L 945.204291 328.476039 
L 927.600803 328.476039 
L 927.600803 347.006026 
" clip-path="url(#pbc982f5e9c)" style="fill: #ffff7d"/>
    <path d="M 927.600803 328.476039 
L 945.204291 328.476039 
L 945.204291 309.946053 
L 927.600803 309.946053 
L 927.600803 328.476039 
" clip-path="url(#pbc982f5e9c)" style="fill: #ffff46"/>
    <path d="M 927.600803 309.946053 
L 945.204291 309.946053 
L 945.204291 291.416066 
L 927.600803 291.416066 
L 927.600803 309.946053 
" clip-path="url(#pbc982f5e9c)" style="fill: #ffff13"/>
    <path d="M 927.600803 291.416066 
L 945.204291 291.416066 
L 945.204291 272.886079 
L 927.600803 272.886079 
L 927.600803 291.416066 
" clip-path="url(#pbc982f5e9c)" style="fill: #ffe700"/>
    <path d="M 927.600803 272.886079 
L 945.204291 272.886079 
L 945.204291 254.356092 
L 927.600803 254.356092 
L 927.600803 272.886079 
" clip-path="url(#pbc982f5e9c)" style="fill: #ffc500"/>
    <path d="M 927.600803 254.356092 
L 945.204291 254.356092 
L 945.204291 235.826105 
L 927.600803 235.826105 
L 927.600803 254.356092 
" clip-path="url(#pbc982f5e9c)" style="fill: #ffa000"/>
    <path d="M 927.600803 235.826105 
L 945.204291 235.826105 
L 945.204291 217.296118 
L 927.600803 217.296118 
L 927.600803 235.826105 
" clip-path="url(#pbc982f5e9c)" style="fill: #ff7e00"/>
    <path d="M 927.600803 217.296118 
L 945.204291 217.296118 
L 945.204291 198.766132 
L 927.600803 198.766132 
L 927.600803 217.296118 
" clip-path="url(#pbc982f5e9c)" style="fill: #ff5c00"/>
    <path d="M 927.600803 198.766132 
L 945.204291 198.766132 
L 945.204291 180.236145 
L 927.600803 180.236145 
L 927.600803 198.766132 
" clip-path="url(#pbc982f5e9c)" style="fill: #ff3700"/>
    <path d="M 927.600803 180.236145 
L 945.204291 180.236145 
L 945.204291 161.706158 
L 927.600803 161.706158 
L 927.600803 180.236145 
" clip-path="url(#pbc982f5e9c)" style="fill: #ff1500"/>
    <path d="M 927.600803 161.706158 
L 945.204291 161.706158 
L 945.204291 143.176171 
L 927.600803 143.176171 
L 927.600803 161.706158 
" clip-path="url(#pbc982f5e9c)" style="fill: #ef0000"/>
    <path d="M 927.600803 143.176171 
L 945.204291 143.176171 
L 945.204291 124.646184 
L 927.600803 124.646184 
L 927.600803 143.176171 
" clip-path="url(#pbc982f5e9c)" style="fill: #cd0000"/>
    <path d="M 927.600803 124.646184 
L 945.204291 124.646184 
L 945.204291 106.116197 
L 927.600803 106.116197 
L 927.600803 124.646184 
" clip-path="url(#pbc982f5e9c)" style="fill: #a80000"/>
    <path d="M 927.600803 106.116197 
L 945.204291 106.116197 
L 945.204291 87.586211 
L 927.600803 87.586211 
L 927.600803 106.116197 
" clip-path="url(#pbc982f5e9c)" style="fill: #860000"/>
    <path d="M 927.600803 87.586211 
L 945.204291 87.586211 
L 945.204291 69.056224 
L 927.600803 69.056224 
L 927.600803 87.586211 
" clip-path="url(#pbc982f5e9c)" style="fill: #610000"/>
    <path d="M 927.600803 69.056224 
L 945.204291 69.056224 
L 945.204291 50.526237 
L 927.600803 50.526237 
L 927.600803 69.056224 
" clip-path="url(#pbc982f5e9c)" style="fill: #3f0000"/>
    <path d="M 927.600803 50.526237 
L 945.204291 50.526237 
L 945.204291 31.99625 
L 927.600803 31.99625 
L 927.600803 50.526237 
" clip-path="url(#pbc982f5e9c)" style="fill: #1a0000"/>
   </g>
   <g id="matplotlib.axis_5"/>
   <g id="matplotlib.axis_6">
    <g id="ytick_15">
     <g id="line2d_32">
      <defs>
       <path id="m24165e49b6" d="M 0 0 
L 3.5 0 
" style="stroke: #000000; stroke-width: 0.8"/>
      </defs>
      <g>
       <use xlink:href="#m24165e49b6" x="945.204291" y="384.066" style="stroke: #000000; stroke-width: 0.8"/>
      </g>
     </g>
     <g id="text_41">
      <!-- 0.6 -->
      <g transform="translate(952.204291 387.865219) scale(0.1 -0.1)">
       <defs>
        <path id="DejaVuSans-30" d="M 2034 4250 
Q 1547 4250 1301 3770 
Q 1056 3291 1056 2328 
Q 1056 1369 1301 889 
Q 1547 409 2034 409 
Q 2525 409 2770 889 
Q 3016 1369 3016 2328 
Q 3016 3291 2770 3770 
Q 2525 4250 2034 4250 
z
M 2034 4750 
Q 2819 4750 3233 4129 
Q 3647 3509 3647 2328 
Q 3647 1150 3233 529 
Q 2819 -91 2034 -91 
Q 1250 -91 836 529 
Q 422 1150 422 2328 
Q 422 3509 836 4129 
Q 1250 4750 2034 4750 
z
" transform="scale(0.015625)"/>
        <path id="DejaVuSans-2e" d="M 684 794 
L 1344 794 
L 1344 0 
L 684 0 
L 684 794 
z
" transform="scale(0.015625)"/>
       </defs>
       <use xlink:href="#DejaVuSans-30"/>
       <use xlink:href="#DejaVuSans-2e" transform="translate(63.623047 0)"/>
       <use xlink:href="#DejaVuSans-36" transform="translate(95.410156 0)"/>
      </g>
     </g>
    </g>
    <g id="ytick_16">
     <g id="line2d_33">
      <g>
       <use xlink:href="#m24165e49b6" x="945.204291" y="347.006026" style="stroke: #000000; stroke-width: 0.8"/>
      </g>
     </g>
     <g id="text_42">
      <!-- 1.2 -->
      <g transform="translate(952.204291 350.805245) scale(0.1 -0.1)">
       <use xlink:href="#DejaVuSans-31"/>
       <use xlink:href="#DejaVuSans-2e" transform="translate(63.623047 0)"/>
       <use xlink:href="#DejaVuSans-32" transform="translate(95.410156 0)"/>
      </g>
     </g>
    </g>
    <g id="ytick_17">
     <g id="line2d_34">
      <g>
       <use xlink:href="#m24165e49b6" x="945.204291" y="309.946053" style="stroke: #000000; stroke-width: 0.8"/>
      </g>
     </g>
     <g id="text_43">
      <!-- 1.8 -->
      <g transform="translate(952.204291 313.745271) scale(0.1 -0.1)">
       <defs>
        <path id="DejaVuSans-38" d="M 2034 2216 
Q 1584 2216 1326 1975 
Q 1069 1734 1069 1313 
Q 1069 891 1326 650 
Q 1584 409 2034 409 
Q 2484 409 2743 651 
Q 3003 894 3003 1313 
Q 3003 1734 2745 1975 
Q 2488 2216 2034 2216 
z
M 1403 2484 
Q 997 2584 770 2862 
Q 544 3141 544 3541 
Q 544 4100 942 4425 
Q 1341 4750 2034 4750 
Q 2731 4750 3128 4425 
Q 3525 4100 3525 3541 
Q 3525 3141 3298 2862 
Q 3072 2584 2669 2484 
Q 3125 2378 3379 2068 
Q 3634 1759 3634 1313 
Q 3634 634 3220 271 
Q 2806 -91 2034 -91 
Q 1263 -91 848 271 
Q 434 634 434 1313 
Q 434 1759 690 2068 
Q 947 2378 1403 2484 
z
M 1172 3481 
Q 1172 3119 1398 2916 
Q 1625 2713 2034 2713 
Q 2441 2713 2670 2916 
Q 2900 3119 2900 3481 
Q 2900 3844 2670 4047 
Q 2441 4250 2034 4250 
Q 1625 4250 1398 4047 
Q 1172 3844 1172 3481 
z
" transform="scale(0.015625)"/>
       </defs>
       <use xlink:href="#DejaVuSans-31"/>
       <use xlink:href="#DejaVuSans-2e" transform="translate(63.623047 0)"/>
       <use xlink:href="#DejaVuSans-38" transform="translate(95.410156 0)"/>
      </g>
     </g>
    </g>
    <g id="ytick_18">
     <g id="line2d_35">
      <g>
       <use xlink:href="#m24165e49b6" x="945.204291" y="272.886079" style="stroke: #000000; stroke-width: 0.8"/>
      </g>
     </g>
     <g id="text_44">
      <!-- 2.4 -->
      <g transform="translate(952.204291 276.685298) scale(0.1 -0.1)">
       <use xlink:href="#DejaVuSans-32"/>
       <use xlink:href="#DejaVuSans-2e" transform="translate(63.623047 0)"/>
       <use xlink:href="#DejaVuSans-34" transform="translate(95.410156 0)"/>
      </g>
     </g>
    </g>
    <g id="ytick_19">
     <g id="line2d_36">
      <g>
       <use xlink:href="#m24165e49b6" x="945.204291" y="235.826105" style="stroke: #000000; stroke-width: 0.8"/>
      </g>
     </g>
     <g id="text_45">
      <!-- 3.0 -->
      <g transform="translate(952.204291 239.625324) scale(0.1 -0.1)">
       <use xlink:href="#DejaVuSans-33"/>
       <use xlink:href="#DejaVuSans-2e" transform="translate(63.623047 0)"/>
       <use xlink:href="#DejaVuSans-30" transform="translate(95.410156 0)"/>
      </g>
     </g>
    </g>
    <g id="ytick_20">
     <g id="line2d_37">
      <g>
       <use xlink:href="#m24165e49b6" x="945.204291" y="198.766132" style="stroke: #000000; stroke-width: 0.8"/>
      </g>
     </g>
     <g id="text_46">
      <!-- 3.6 -->
      <g transform="translate(952.204291 202.56535) scale(0.1 -0.1)">
       <use xlink:href="#DejaVuSans-33"/>
       <use xlink:href="#DejaVuSans-2e" transform="translate(63.623047 0)"/>
       <use xlink:href="#DejaVuSans-36" transform="translate(95.410156 0)"/>
      </g>
     </g>
    </g>
    <g id="ytick_21">
     <g id="line2d_38">
      <g>
       <use xlink:href="#m24165e49b6" x="945.204291" y="161.706158" style="stroke: #000000; stroke-width: 0.8"/>
      </g>
     </g>
     <g id="text_47">
      <!-- 4.2 -->
      <g transform="translate(952.204291 165.505377) scale(0.1 -0.1)">
       <use xlink:href="#DejaVuSans-34"/>
       <use xlink:href="#DejaVuSans-2e" transform="translate(63.623047 0)"/>
       <use xlink:href="#DejaVuSans-32" transform="translate(95.410156 0)"/>
      </g>
     </g>
    </g>
    <g id="ytick_22">
     <g id="line2d_39">
      <g>
       <use xlink:href="#m24165e49b6" x="945.204291" y="124.646184" style="stroke: #000000; stroke-width: 0.8"/>
      </g>
     </g>
     <g id="text_48">
      <!-- 4.8 -->
      <g transform="translate(952.204291 128.445403) scale(0.1 -0.1)">
       <use xlink:href="#DejaVuSans-34"/>
       <use xlink:href="#DejaVuSans-2e" transform="translate(63.623047 0)"/>
       <use xlink:href="#DejaVuSans-38" transform="translate(95.410156 0)"/>
      </g>
     </g>
    </g>
    <g id="ytick_23">
     <g id="line2d_40">
      <g>
       <use xlink:href="#m24165e49b6" x="945.204291" y="87.586211" style="stroke: #000000; stroke-width: 0.8"/>
      </g>
     </g>
     <g id="text_49">
      <!-- 5.4 -->
      <g transform="translate(952.204291 91.385429) scale(0.1 -0.1)">
       <use xlink:href="#DejaVuSans-35"/>
       <use xlink:href="#DejaVuSans-2e" transform="translate(63.623047 0)"/>
       <use xlink:href="#DejaVuSans-34" transform="translate(95.410156 0)"/>
      </g>
     </g>
    </g>
    <g id="ytick_24">
     <g id="line2d_41">
      <g>
       <use xlink:href="#m24165e49b6" x="945.204291" y="50.526237" style="stroke: #000000; stroke-width: 0.8"/>
      </g>
     </g>
     <g id="text_50">
      <!-- 6.0 -->
      <g transform="translate(952.204291 54.325456) scale(0.1 -0.1)">
       <use xlink:href="#DejaVuSans-36"/>
       <use xlink:href="#DejaVuSans-2e" transform="translate(63.623047 0)"/>
       <use xlink:href="#DejaVuSans-30" transform="translate(95.410156 0)"/>
      </g>
     </g>
    </g>
    <g id="text_51">
     <!-- Rounds to 90% share -->
     <g transform="translate(979.705853 261.213156) rotate(-90) scale(0.1 -0.1)">
      <defs>
       <path id="DejaVuSans-39" d="M 703 97 
L 703 672 
Q 941 559 1184 500 
Q 1428 441 1663 441 
Q 2288 441 2617 861 
Q 2947 1281 2994 2138 
Q 2813 1869 2534 1725 
Q 2256 1581 1919 1581 
Q 1219 1581 811 2004 
Q 403 2428 403 3163 
Q 403 3881 828 4315 
Q 1253 4750 1959 4750 
Q 2769 4750 3195 4129 
Q 3622 3509 3622 2328 
Q 3622 1225 3098 567 
Q 2575 -91 1691 -91 
Q 1453 -91 1209 -44 
Q 966 3 703 97 
z
M 1959 2075 
Q 2384 2075 2632 2365 
Q 2881 2656 2881 3163 
Q 2881 3666 2632 3958 
Q 2384 4250 1959 4250 
Q 1534 4250 1286 3958 
Q 1038 3666 1038 3163 
Q 1038 2656 1286 2365 
Q 1534 2075 1959 2075 
z
" transform="scale(0.015625)"/>
       <path id="DejaVuSans-25" d="M 4653 2053 
Q 4381 2053 4226 1822 
Q 4072 1591 4072 1178 
Q 4072 772 4226 539 
Q 4381 306 4653 306 
Q 4919 306 5073 539 
Q 5228 772 5228 1178 
Q 5228 1588 5073 1820 
Q 4919 2053 4653 2053 
z
M 4653 2450 
Q 5147 2450 5437 2106 
Q 5728 1763 5728 1178 
Q 5728 594 5436 251 
Q 5144 -91 4653 -91 
Q 4153 -91 3862 251 
Q 3572 594 3572 1178 
Q 3572 1766 3864 2108 
Q 4156 2450 4653 2450 
z
M 1428 4353 
Q 1159 4353 1004 4120 
Q 850 3888 850 3481 
Q 850 3069 1003 2837 
Q 1156 2606 1428 2606 
Q 1700 2606 1854 2837 
Q 2009 3069 2009 3481 
Q 2009 3884 1853 4118 
Q 1697 4353 1428 4353 
z
M 4250 4750 
L 4750 4750 
L 1831 -91 
L 1331 -91 
L 4250 4750 
z
M 1428 4750 
Q 1922 4750 2215 4408 
Q 2509 4066 2509 3481 
Q 2509 2891 2217 2550 
Q 1925 2209 1428 2209 
Q 931 2209 642 2551 
Q 353 2894 353 3481 
Q 353 4063 643 4406 
Q 934 4750 1428 4750 
z
" transform="scale(0.015625)"/>
      </defs>
      <use xlink:href="#DejaVuSans-52"/>
      <use xlink:href="#DejaVuSans-6f" transform="translate(64.982422 0)"/>
      <use xlink:href="#DejaVuSans-75" transform="translate(126.164062 0)"/>
      <use xlink:href="#DejaVuSans-6e" transform="translate(189.542969 0)"/>
      <use xlink:href="#DejaVuSans-64" transform="translate(252.921875 0)"/>
      <use xlink:href="#DejaVuSans-73" transform="translate(316.398438 0)"/>
      <use xlink:href="#DejaVuSans-20" transform="translate(368.498047 0)"/>
      <use xlink:href="#DejaVuSans-74" transform="translate(400.285156 0)"/>
      <use xlink:href="#DejaVuSans-6f" transform="translate(439.494141 0)"/>
      <use xlink:href="#DejaVuSans-20" transform="translate(500.675781 0)"/>
      <use xlink:href="#DejaVuSans-39" transform="translate(532.462891 0)"/>
      <use xlink:href="#DejaVuSans-30" transform="translate(596.085938 0)"/>
      <use xlink:href="#DejaVuSans-25" transform="translate(659.708984 0)"/>
      <use xlink:href="#DejaVuSans-20" transform="translate(754.728516 0)"/>
      <use xlink:href="#DejaVuSans-73" transform="translate(786.515625 0)"/>
      <use xlink:href="#DejaVuSans-68" transform="translate(838.615234 0)"/>
      <use xlink:href="#DejaVuSans-61" transform="translate(901.994141 0)"/>
      <use xlink:href="#DejaVuSans-72" transform="translate(963.273438 0)"/>
      <use xlink:href="#DejaVuSans-65" transform="translate(1002.136719 0)"/>
     </g>
    </g>
   </g>
   <g id="LineCollection_1"/>
   <g id="patch_14">
    <path d="M 927.600803 384.066 
L 936.402547 384.066 
L 945.204291 384.066 
L 945.204291 31.99625 
L 936.402547 31.99625 
L 927.600803 31.99625 
L 927.600803 384.066 
z
" style="fill: none; stroke: #000000; stroke-width: 0.8; stroke-linejoin: miter; stroke-linecap: square"/>
   </g>
  </g>
 </g>
 <defs>
  <clipPath id="peb31e8cc50">
   <rect x="35.514375" y="31.99625" width="432.526386" height="352.06975"/>
  </clipPath>
  <clipPath id="p867085a1fa">
   <rect x="559.953375" y="31.99625" width="346.021109" height="352.06975"/>
  </clipPath>
  <clipPath id="pbc982f5e9c">
   <rect x="927.600803" y="31.99625" width="17.603488" height="352.06975"/>
  </clipPath>
 </defs>
</svg>
