<?xml version="1.0" encoding="utf-8" standalone="no"?>
<!DOCTYPE svg PUBLIC "-//W3C//DTD SVG 1.1//EN"
  "http://www.w3.org/Graphics/SVG/1.1/DTD/svg11.dtd">
<svg xmlns:xlink="http://www.w3.org/1999/xlink" width="1144.1975pt" height="351.633187pt" viewBox="0 0 1144.1975 351.633187" xmlns="http://www.w3.org/2000/svg" version="1.1">
 <metadata>
  <rdf:RDF xmlns:dc="http://purl.org/dc/elements/1.1/" xmlns:cc="http://creativecommons.org/ns#" xmlns:rdf="http://www.w3.org/1999/02/22-rdf-syntax-ns#">
   <cc:Work>
    <dc:type rdf:resource="http://purl.org/dc/dcmitype/StillImage"/>
    <dc:date>2026-02-22T17:53:52.140913</dc:date>
    <dc:format>image/svg+xml</dc:format>
    <dc:creator>
     <cc:Agent>
      <dc:title>Matplotlib v3.10.8, https://matplotlib.org/</dc:title>
     </cc:Agent>
    </dc:creator>
   </cc:Work>
  </rdf:RDF>
 </metadata>
 <defs>
  <style type="text/css">*{stroke-linejoin: round; stroke-linecap: butt}</style>
 </defs>
 <g id="figure_1">
  <g id="patch_1">
   <path d="M 0 351.633187 
L 1144.1975 351.633187 
L 1144.1975 0 
L 0 0 
z
" style="fill: #ffffff"/>
  </g>
  <g id="axes_1">
   <g id="patch_2">
    <path d="M 45.055 313.109125 
L 366.65375 313.109125 
L 366.65375 32.274375 
L 45.055 32.274375 
z
" style="fill: #ffffff"/>
   </g>
   <g id="matplotlib.axis_1">
    <g id="xtick_1">
     <g id="line2d_1">
      <defs>
       <path id="mdabe064290" d="M 0 0 
L 0 3.5 
" style="stroke: #000000; stroke-width: 0.8"/>
      </defs>
      <g>
       <use xlink:href="#mdabe064290" x="45.055" y="313.109125" style="stroke: #000000; stroke-width: 0.8"/>
      </g>
     </g>
     <g id="text_1">
      <!-- 0 -->
      <g transform="translate(41.87375 327.707562) scale(0.1 -0.1)">
       <defs>
        <path id="DejaVuSans-30" d="M 2034 4250 
Q 1547 4250 1301 3770 
Q 1056 3291 1056 2328 
Q 1056 1369 1301 889 
Q 1547 409 2034 409 
Q 2525 409 2770 889 
Q 3016 1369 3016 2328 
Q 3016 3291 2770 3770 
Q 2525 4250 2034 4250 
z
M 2034 4750 
Q 2819 4750 3233 4129 
Q 3647 3509 3647 2328 
Q 3647 1150 3233 529 
Q 2819 -91 2034 -91 
Q 1250 -91 836 529 
Q 422 1150 422 2328 
Q 422 3509 836 4129 
Q 1250 4750 2034 4750 
z
" transform="scale(0.015625)"/>
       </defs>
       <use xlink:href="#DejaVuSans-30"/>
      </g>
     </g>
    </g>
    <g id="xtick_2">
     <g id="line2d_2">
      <g>
       <use xlink:href="#mdabe064290" x="98.654792" y="313.109125" style="stroke: #000000; stroke-width: 0.8"/>
      </g>
     </g>
     <g id="text_2">
      <!-- 100 -->
      <g transform="translate(89.111042 327.707562) scale(0.1 -0.1)">
       <defs>
        <path id="DejaVuSans-31" d="M 794 531 
L 1825 531 
L 1825 4091 
L 703 3866 
L 703 4441 
L 1819 4666 
L 2450 4666 
L 2450 531 
L 3481 531 
L 3481 0 
L 794 0 
L 794 531 
z
" transform="scale(0.015625)"/>
       </defs>
       <use xlink:href="#DejaVuSans-31"/>
       <use xlink:href="#DejaVuSans-30" transform="translate(63.623047 0)"/>
       <use xlink:href="#DejaVuSans-30" transform="translate(127.246094 0)"/>
      </g>
     </g>
    </g>
    <g id="xtick_3">
     <g id="line2d_3">
      <g>
       <use xlink:href="#mdabe064290" x="152.254583" y="313.109125" style="stroke: #000000; stroke-width: 0.8"/>
      </g>
     </g>
     <g id="text_3">
      <!-- 200 -->
      <g transform="translate(142.710833 327.707562) scale(0.1 -0.1)">
       <defs>
        <path id="DejaVuSans-32" d="M 1228 531 
L 3431 531 
L 3431 0 
L 469 0 
L 469 531 
Q 828 903 1448 1529 
Q 2069 2156 2228 2338 
Q 2531 2678 2651 2914 
Q 2772 3150 2772 3378 
Q 2772 3750 2511 3984 
Q 2250 4219 1831 4219 
Q 1534 4219 1204 4116 
Q 875 4013 500 3803 
L 500 4441 
Q 881 4594 1212 4672 
Q 1544 4750 1819 4750 
Q 2544 4750 2975 4387 
Q 3406 4025 3406 3419 
Q 3406 3131 3298 2873 
Q 3191 2616 2906 2266 
Q 2828 2175 2409 1742 
Q 1991 1309 1228 531 
z
" transform="scale(0.015625)"/>
       </defs>
       <use xlink:href="#DejaVuSans-32"/>
       <use xlink:href="#DejaVuSans-30" transform="translate(63.623047 0)"/>
       <use xlink:href="#DejaVuSans-30" transform="translate(127.246094 0)"/>
      </g>
     </g>
    </g>
    <g id="xtick_4">
     <g id="line2d_4">
      <g>
       <use xlink:href="#mdabe064290" x="205.854375" y="313.109125" style="stroke: #000000; stroke-width: 0.8"/>
      </g>
     </g>
     <g id="text_4">
      <!-- 300 -->
      <g transform="translate(196.310625 327.707562) scale(0.1 -0.1)">
       <defs>
        <path id="DejaVuSans-33" d="M 2597 2516 
Q 3050 2419 3304 2112 
Q 3559 1806 3559 1356 
Q 3559 666 3084 287 
Q 2609 -91 1734 -91 
Q 1441 -91 1130 -33 
Q 819 25 488 141 
L 488 750 
Q 750 597 1062 519 
Q 1375 441 1716 441 
Q 2309 441 2620 675 
Q 2931 909 2931 1356 
Q 2931 1769 2642 2001 
Q 2353 2234 1838 2234 
L 1294 2234 
L 1294 2753 
L 1863 2753 
Q 2328 2753 2575 2939 
Q 2822 3125 2822 3475 
Q 2822 3834 2567 4026 
Q 2313 4219 1838 4219 
Q 1578 4219 1281 4162 
Q 984 4106 628 3988 
L 628 4550 
Q 988 4650 1302 4700 
Q 1616 4750 1894 4750 
Q 2613 4750 3031 4423 
Q 3450 4097 3450 3541 
Q 3450 3153 3228 2886 
Q 3006 2619 2597 2516 
z
" transform="scale(0.015625)"/>
       </defs>
       <use xlink:href="#DejaVuSans-33"/>
       <use xlink:href="#DejaVuSans-30" transform="translate(63.623047 0)"/>
       <use xlink:href="#DejaVuSans-30" transform="translate(127.246094 0)"/>
      </g>
     </g>
    </g>
    <g id="xtick_5">
     <g id="line2d_5">
      <g>
       <use xlink:href="#mdabe064290" x="259.454167" y="313.109125" style="stroke: #000000; stroke-width: 0.8"/>
      </g>
     </g>
     <g id="text_5">
      <!-- 400 -->
      <g transform="translate(249.910417 327.707562) scale(0.1 -0.1)">
       <defs>
        <path id="DejaVuSans-34" d="M 2419 4116 
L 825 1625 
L 2419 1625 
L 2419 4116 
z
M 2253 4666 
L 3047 4666 
L 3047 1625 
L 3713 1625 
L 3713 1100 
L 3047 1100 
L 3047 0 
L 2419 0 
L 2419 1100 
L 313 1100 
L 313 1709 
L 2253 4666 
z
" transform="scale(0.015625)"/>
       </defs>
       <use xlink:href="#DejaVuSans-34"/>
       <use xlink:href="#DejaVuSans-30" transform="translate(63.623047 0)"/>
       <use xlink:href="#DejaVuSans-30" transform="translate(127.246094 0)"/>
      </g>
     </g>
    </g>
    <g id="xtick_6">
     <g id="line2d_6">
      <g>
       <use xlink:href="#mdabe064290" x="313.053958" y="313.109125" style="stroke: #000000; stroke-width: 0.8"/>
      </g>
     </g>
     <g id="text_6">
      <!-- 500 -->
      <g transform="translate(303.510208 327.707562) scale(0.1 -0.1)">
       <defs>
        <path id="DejaVuSans-35" d="M 691 4666 
L 3169 4666 
L 3169 4134 
L 1269 4134 
L 1269 2991 
Q 1406 3038 1543 3061 
Q 1681 3084 1819 3084 
Q 2600 3084 3056 2656 
Q 3513 2228 3513 1497 
Q 3513 744 3044 326 
Q 2575 -91 1722 -91 
Q 1428 -91 1123 -41 
Q 819 9 494 109 
L 494 744 
Q 775 591 1075 516 
Q 1375 441 1709 441 
Q 2250 441 2565 725 
Q 2881 1009 2881 1497 
Q 2881 1984 2565 2268 
Q 2250 2553 1709 2553 
Q 1456 2553 1204 2497 
Q 953 2441 691 2322 
L 691 4666 
z
" transform="scale(0.015625)"/>
       </defs>
       <use xlink:href="#DejaVuSans-35"/>
       <use xlink:href="#DejaVuSans-30" transform="translate(63.623047 0)"/>
       <use xlink:href="#DejaVuSans-30" transform="translate(127.246094 0)"/>
      </g>
     </g>
    </g>
    <g id="xtick_7">
     <g id="line2d_7">
      <g>
       <use xlink:href="#mdabe064290" x="366.65375" y="313.109125" style="stroke: #000000; stroke-width: 0.8"/>
      </g>
     </g>
     <g id="text_7">
      <!-- 600 -->
      <g transform="translate(357.11 327.707562) scale(0.1 -0.1)">
       <defs>
        <path id="DejaVuSans-36" d="M 2113 2584 
Q 1688 2584 1439 2293 
Q 1191 2003 1191 1497 
Q 1191 994 1439 701 
Q 1688 409 2113 409 
Q 2538 409 2786 701 
Q 3034 994 3034 1497 
Q 3034 2003 2786 2293 
Q 2538 2584 2113 2584 
z
M 3366 4563 
L 3366 3988 
Q 3128 4100 2886 4159 
Q 2644 4219 2406 4219 
Q 1781 4219 1451 3797 
Q 1122 3375 1075 2522 
Q 1259 2794 1537 2939 
Q 1816 3084 2150 3084 
Q 2853 3084 3261 2657 
Q 3669 2231 3669 1497 
Q 3669 778 3244 343 
Q 2819 -91 2113 -91 
Q 1303 -91 875 529 
Q 447 1150 447 2328 
Q 447 3434 972 4092 
Q 1497 4750 2381 4750 
Q 2619 4750 2861 4703 
Q 3103 4656 3366 4563 
z
" transform="scale(0.015625)"/>
       </defs>
       <use xlink:href="#DejaVuSans-36"/>
       <use xlink:href="#DejaVuSans-30" transform="translate(63.623047 0)"/>
       <use xlink:href="#DejaVuSans-30" transform="translate(127.246094 0)"/>
      </g>
     </g>
    </g>
    <g id="text_8">
     <!-- Time (rounds) -->
     <g transform="translate(167.527109 342.145531) scale(0.11 -0.11)">
      <defs>
       <path id="DejaVuSans-54" d="M -19 4666 
L 3928 4666 
L 3928 4134 
L 2272 4134 
L 2272 0 
L 1638 0 
L 1638 4134 
L -19 4134 
L -19 4666 
z
" transform="scale(0.015625)"/>
       <path id="DejaVuSans-69" d="M 603 3500 
L 1178 3500 
L 1178 0 
L 603 0 
L 603 3500 
z
M 603 4863 
L 1178 4863 
L 1178 4134 
L 603 4134 
L 603 4863 
z
" transform="scale(0.015625)"/>
       <path id="DejaVuSans-6d" d="M 3328 2828 
Q 3544 3216 3844 3400 
Q 4144 3584 4550 3584 
Q 5097 3584 5394 3201 
Q 5691 2819 5691 2113 
L 5691 0 
L 5113 0 
L 5113 2094 
Q 5113 2597 4934 2840 
Q 4756 3084 4391 3084 
Q 3944 3084 3684 2787 
Q 3425 2491 3425 1978 
L 3425 0 
L 2847 0 
L 2847 2094 
Q 2847 2600 2669 2842 
Q 2491 3084 2119 3084 
Q 1678 3084 1418 2786 
Q 1159 2488 1159 1978 
L 1159 0 
L 581 0 
L 581 3500 
L 1159 3500 
L 1159 2956 
Q 1356 3278 1631 3431 
Q 1906 3584 2284 3584 
Q 2666 3584 2933 3390 
Q 3200 3197 3328 2828 
z
" transform="scale(0.015625)"/>
       <path id="DejaVuSans-65" d="M 3597 1894 
L 3597 1613 
L 953 1613 
Q 991 1019 1311 708 
Q 1631 397 2203 397 
Q 2534 397 2845 478 
Q 3156 559 3463 722 
L 3463 178 
Q 3153 47 2828 -22 
Q 2503 -91 2169 -91 
Q 1331 -91 842 396 
Q 353 884 353 1716 
Q 353 2575 817 3079 
Q 1281 3584 2069 3584 
Q 2775 3584 3186 3129 
Q 3597 2675 3597 1894 
z
M 3022 2063 
Q 3016 2534 2758 2815 
Q 2500 3097 2075 3097 
Q 1594 3097 1305 2825 
Q 1016 2553 972 2059 
L 3022 2063 
z
" transform="scale(0.015625)"/>
       <path id="DejaVuSans-20" transform="scale(0.015625)"/>
       <path id="DejaVuSans-28" d="M 1984 4856 
Q 1566 4138 1362 3434 
Q 1159 2731 1159 2009 
Q 1159 1288 1364 580 
Q 1569 -128 1984 -844 
L 1484 -844 
Q 1016 -109 783 600 
Q 550 1309 550 2009 
Q 550 2706 781 3412 
Q 1013 4119 1484 4856 
L 1984 4856 
z
" transform="scale(0.015625)"/>
       <path id="DejaVuSans-72" d="M 2631 2963 
Q 2534 3019 2420 3045 
Q 2306 3072 2169 3072 
Q 1681 3072 1420 2755 
Q 1159 2438 1159 1844 
L 1159 0 
L 581 0 
L 581 3500 
L 1159 3500 
L 1159 2956 
Q 1341 3275 1631 3429 
Q 1922 3584 2338 3584 
Q 2397 3584 2469 3576 
Q 2541 3569 2628 3553 
L 2631 2963 
z
" transform="scale(0.015625)"/>
       <path id="DejaVuSans-6f" d="M 1959 3097 
Q 1497 3097 1228 2736 
Q 959 2375 959 1747 
Q 959 1119 1226 758 
Q 1494 397 1959 397 
Q 2419 397 2687 759 
Q 2956 1122 2956 1747 
Q 2956 2369 2687 2733 
Q 2419 3097 1959 3097 
z
M 1959 3584 
Q 2709 3584 3137 3096 
Q 3566 2609 3566 1747 
Q 3566 888 3137 398 
Q 2709 -91 1959 -91 
Q 1206 -91 779 398 
Q 353 888 353 1747 
Q 353 2609 779 3096 
Q 1206 3584 1959 3584 
z
" transform="scale(0.015625)"/>
       <path id="DejaVuSans-75" d="M 544 1381 
L 544 3500 
L 1119 3500 
L 1119 1403 
Q 1119 906 1312 657 
Q 1506 409 1894 409 
Q 2359 409 2629 706 
Q 2900 1003 2900 1516 
L 2900 3500 
L 3475 3500 
L 3475 0 
L 2900 0 
L 2900 538 
Q 2691 219 2414 64 
Q 2138 -91 1772 -91 
Q 1169 -91 856 284 
Q 544 659 544 1381 
z
M 1991 3584 
L 1991 3584 
z
" transform="scale(0.015625)"/>
       <path id="DejaVuSans-6e" d="M 3513 2113 
L 3513 0 
L 2938 0 
L 2938 2094 
Q 2938 2591 2744 2837 
Q 2550 3084 2163 3084 
Q 1697 3084 1428 2787 
Q 1159 2491 1159 1978 
L 1159 0 
L 581 0 
L 581 3500 
L 1159 3500 
L 1159 2956 
Q 1366 3272 1645 3428 
Q 1925 3584 2291 3584 
Q 2894 3584 3203 3211 
Q 3513 2838 3513 2113 
z
" transform="scale(0.015625)"/>
       <path id="DejaVuSans-64" d="M 2906 2969 
L 2906 4863 
L 3481 4863 
L 3481 0 
L 2906 0 
L 2906 525 
Q 2725 213 2448 61 
Q 2172 -91 1784 -91 
Q 1150 -91 751 415 
Q 353 922 353 1747 
Q 353 2572 751 3078 
Q 1150 3584 1784 3584 
Q 2172 3584 2448 3432 
Q 2725 3281 2906 2969 
z
M 947 1747 
Q 947 1113 1208 752 
Q 1469 391 1925 391 
Q 2381 391 2643 752 
Q 2906 1113 2906 1747 
Q 2906 2381 2643 2742 
Q 2381 3103 1925 3103 
Q 1469 3103 1208 2742 
Q 947 2381 947 1747 
z
" transform="scale(0.015625)"/>
       <path id="DejaVuSans-73" d="M 2834 3397 
L 2834 2853 
Q 2591 2978 2328 3040 
Q 2066 3103 1784 3103 
Q 1356 3103 1142 2972 
Q 928 2841 928 2578 
Q 928 2378 1081 2264 
Q 1234 2150 1697 2047 
L 1894 2003 
Q 2506 1872 2764 1633 
Q 3022 1394 3022 966 
Q 3022 478 2636 193 
Q 2250 -91 1575 -91 
Q 1294 -91 989 -36 
Q 684 19 347 128 
L 347 722 
Q 666 556 975 473 
Q 1284 391 1588 391 
Q 1994 391 2212 530 
Q 2431 669 2431 922 
Q 2431 1156 2273 1281 
Q 2116 1406 1581 1522 
L 1381 1569 
Q 847 1681 609 1914 
Q 372 2147 372 2553 
Q 372 3047 722 3315 
Q 1072 3584 1716 3584 
Q 2034 3584 2315 3537 
Q 2597 3491 2834 3397 
z
" transform="scale(0.015625)"/>
       <path id="DejaVuSans-29" d="M 513 4856 
L 1013 4856 
Q 1481 4119 1714 3412 
Q 1947 2706 1947 2009 
Q 1947 1309 1714 600 
Q 1481 -109 1013 -844 
L 513 -844 
Q 928 -128 1133 580 
Q 1338 1288 1338 2009 
Q 1338 2731 1133 3434 
Q 928 4138 513 4856 
z
" transform="scale(0.015625)"/>
      </defs>
      <use xlink:href="#DejaVuSans-54"/>
      <use xlink:href="#DejaVuSans-69" transform="translate(57.958984 0)"/>
      <use xlink:href="#DejaVuSans-6d" transform="translate(85.742188 0)"/>
      <use xlink:href="#DejaVuSans-65" transform="translate(183.154297 0)"/>
      <use xlink:href="#DejaVuSans-20" transform="translate(244.677734 0)"/>
      <use xlink:href="#DejaVuSans-28" transform="translate(276.464844 0)"/>
      <use xlink:href="#DejaVuSans-72" transform="translate(315.478516 0)"/>
      <use xlink:href="#DejaVuSans-6f" transform="translate(354.341797 0)"/>
      <use xlink:href="#DejaVuSans-75" transform="translate(415.523438 0)"/>
      <use xlink:href="#DejaVuSans-6e" transform="translate(478.902344 0)"/>
      <use xlink:href="#DejaVuSans-64" transform="translate(542.28125 0)"/>
      <use xlink:href="#DejaVuSans-73" transform="translate(605.757812 0)"/>
      <use xlink:href="#DejaVuSans-29" transform="translate(657.857422 0)"/>
     </g>
    </g>
   </g>
   <g id="matplotlib.axis_2">
    <g id="ytick_1">
     <g id="line2d_8">
      <defs>
       <path id="m77f5e805d0" d="M 0 0 
L -3.5 0 
" style="stroke: #000000; stroke-width: 0.8"/>
      </defs>
      <g>
       <use xlink:href="#m77f5e805d0" x="45.055" y="300.343909" style="stroke: #000000; stroke-width: 0.8"/>
      </g>
     </g>
     <g id="text_9">
      <!-- 0.0 -->
      <g transform="translate(22.151875 304.143128) scale(0.1 -0.1)">
       <defs>
        <path id="DejaVuSans-2e" d="M 684 794 
L 1344 794 
L 1344 0 
L 684 0 
L 684 794 
z
" transform="scale(0.015625)"/>
       </defs>
       <use xlink:href="#DejaVuSans-30"/>
       <use xlink:href="#DejaVuSans-2e" transform="translate(63.623047 0)"/>
       <use xlink:href="#DejaVuSans-30" transform="translate(95.410156 0)"/>
      </g>
     </g>
    </g>
    <g id="ytick_2">
     <g id="line2d_9">
      <g>
       <use xlink:href="#m77f5e805d0" x="45.055" y="249.283045" style="stroke: #000000; stroke-width: 0.8"/>
      </g>
     </g>
     <g id="text_10">
      <!-- 0.2 -->
      <g transform="translate(22.151875 253.082264) scale(0.1 -0.1)">
       <use xlink:href="#DejaVuSans-30"/>
       <use xlink:href="#DejaVuSans-2e" transform="translate(63.623047 0)"/>
       <use xlink:href="#DejaVuSans-32" transform="translate(95.410156 0)"/>
      </g>
     </g>
    </g>
    <g id="ytick_3">
     <g id="line2d_10">
      <g>
       <use xlink:href="#m77f5e805d0" x="45.055" y="198.222182" style="stroke: #000000; stroke-width: 0.8"/>
      </g>
     </g>
     <g id="text_11">
      <!-- 0.4 -->
      <g transform="translate(22.151875 202.021401) scale(0.1 -0.1)">
       <use xlink:href="#DejaVuSans-30"/>
       <use xlink:href="#DejaVuSans-2e" transform="translate(63.623047 0)"/>
       <use xlink:href="#DejaVuSans-34" transform="translate(95.410156 0)"/>
      </g>
     </g>
    </g>
    <g id="ytick_4">
     <g id="line2d_11">
      <g>
       <use xlink:href="#m77f5e805d0" x="45.055" y="147.161318" style="stroke: #000000; stroke-width: 0.8"/>
      </g>
     </g>
     <g id="text_12">
      <!-- 0.6 -->
      <g transform="translate(22.151875 150.960537) scale(0.1 -0.1)">
       <use xlink:href="#DejaVuSans-30"/>
       <use xlink:href="#DejaVuSans-2e" transform="translate(63.623047 0)"/>
       <use xlink:href="#DejaVuSans-36" transform="translate(95.410156 0)"/>
      </g>
     </g>
    </g>
    <g id="ytick_5">
     <g id="line2d_12">
      <g>
       <use xlink:href="#m77f5e805d0" x="45.055" y="96.100455" style="stroke: #000000; stroke-width: 0.8"/>
      </g>
     </g>
     <g id="text_13">
      <!-- 0.8 -->
      <g transform="translate(22.151875 99.899673) scale(0.1 -0.1)">
       <defs>
        <path id="DejaVuSans-38" d="M 2034 2216 
Q 1584 2216 1326 1975 
Q 1069 1734 1069 1313 
Q 1069 891 1326 650 
Q 1584 409 2034 409 
Q 2484 409 2743 651 
Q 3003 894 3003 1313 
Q 3003 1734 2745 1975 
Q 2488 2216 2034 2216 
z
M 1403 2484 
Q 997 2584 770 2862 
Q 544 3141 544 3541 
Q 544 4100 942 4425 
Q 1341 4750 2034 4750 
Q 2731 4750 3128 4425 
Q 3525 4100 3525 3541 
Q 3525 3141 3298 2862 
Q 3072 2584 2669 2484 
Q 3125 2378 3379 2068 
Q 3634 1759 3634 1313 
Q 3634 634 3220 271 
Q 2806 -91 2034 -91 
Q 1263 -91 848 271 
Q 434 634 434 1313 
Q 434 1759 690 2068 
Q 947 2378 1403 2484 
z
M 1172 3481 
Q 1172 3119 1398 2916 
Q 1625 2713 2034 2713 
Q 2441 2713 2670 2916 
Q 2900 3119 2900 3481 
Q 2900 3844 2670 4047 
Q 2441 4250 2034 4250 
Q 1625 4250 1398 4047 
Q 1172 3844 1172 3481 
z
" transform="scale(0.015625)"/>
       </defs>
       <use xlink:href="#DejaVuSans-30"/>
       <use xlink:href="#DejaVuSans-2e" transform="translate(63.623047 0)"/>
       <use xlink:href="#DejaVuSans-38" transform="translate(95.410156 0)"/>
      </g>
     </g>
    </g>
    <g id="ytick_6">
     <g id="line2d_13">
      <g>
       <use xlink:href="#m77f5e805d0" x="45.055" y="45.039591" style="stroke: #000000; stroke-width: 0.8"/>
      </g>
     </g>
     <g id="text_14">
      <!-- 1.0 -->
      <g transform="translate(22.151875 48.83881) scale(0.1 -0.1)">
       <use xlink:href="#DejaVuSans-31"/>
       <use xlink:href="#DejaVuSans-2e" transform="translate(63.623047 0)"/>
       <use xlink:href="#DejaVuSans-30" transform="translate(95.410156 0)"/>
      </g>
     </g>
    </g>
    <g id="text_15">
     <!-- f_A -->
     <g transform="translate(15.558281 181.140266) rotate(-90) scale(0.11 -0.11)">
      <defs>
       <path id="DejaVuSans-66" d="M 2375 4863 
L 2375 4384 
L 1825 4384 
Q 1516 4384 1395 4259 
Q 1275 4134 1275 3809 
L 1275 3500 
L 2222 3500 
L 2222 3053 
L 1275 3053 
L 1275 0 
L 697 0 
L 697 3053 
L 147 3053 
L 147 3500 
L 697 3500 
L 697 3744 
Q 697 4328 969 4595 
Q 1241 4863 1831 4863 
L 2375 4863 
z
" transform="scale(0.015625)"/>
       <path id="DejaVuSans-5f" d="M 3263 -1063 
L 3263 -1509 
L -63 -1509 
L -63 -1063 
L 3263 -1063 
z
" transform="scale(0.015625)"/>
       <path id="DejaVuSans-41" d="M 2188 4044 
L 1331 1722 
L 3047 1722 
L 2188 4044 
z
M 1831 4666 
L 2547 4666 
L 4325 0 
L 3669 0 
L 3244 1197 
L 1141 1197 
L 716 0 
L 50 0 
L 1831 4666 
z
" transform="scale(0.015625)"/>
      </defs>
      <use xlink:href="#DejaVuSans-66"/>
      <use xlink:href="#DejaVuSans-5f" transform="translate(35.205078 0)"/>
      <use xlink:href="#DejaVuSans-41" transform="translate(85.205078 0)"/>
     </g>
    </g>
   </g>
   <g id="line2d_14">
    <path d="M 45.055 172.69175 
L 45.699486 45.039591 
L 366.65375 45.039591 
L 366.65375 45.039591 
" clip-path="url(#pe2897acfdf)" style="fill: none; stroke: #2c3e50; stroke-width: 2; stroke-linecap: square"/>
   </g>
   <g id="line2d_15">
    <path d="M 45.055 172.69175 
L 45.699486 45.143892 
L 46.988459 45.039591 
L 366.65375 45.039591 
L 366.65375 45.039591 
" clip-path="url(#pe2897acfdf)" style="fill: none; stroke: #e67e22; stroke-width: 2; stroke-linecap: square"/>
   </g>
   <g id="line2d_16">
    <path d="M 45.055 172.69175 
L 45.699486 45.369008 
L 46.343973 45.039797 
L 366.65375 45.039591 
L 366.65375 45.039591 
" clip-path="url(#pe2897acfdf)" style="fill: none; stroke: #e74c3c; stroke-width: 2; stroke-linecap: square"/>
   </g>
   <g id="line2d_17">
    <path d="M 45.055 172.69175 
L 45.699486 45.954876 
L 46.343973 45.063242 
L 49.566405 45.039591 
L 366.65375 45.039591 
L 366.65375 45.039591 
" clip-path="url(#pe2897acfdf)" style="fill: none; stroke: #8e44ad; stroke-width: 2; stroke-linecap: square"/>
   </g>
   <g id="line2d_18">
    <path d="M 45.055 45.039591 
L 366.65375 45.039591 
" clip-path="url(#pe2897acfdf)" style="fill: none; stroke-dasharray: 0.8,1.32; stroke-dashoffset: 0; stroke: #808080; stroke-width: 0.8"/>
   </g>
   <g id="line2d_19">
    <path d="M 45.055 172.69175 
L 366.65375 172.69175 
" clip-path="url(#pe2897acfdf)" style="fill: none; stroke-dasharray: 0.8,1.32; stroke-dashoffset: 0; stroke: #808080; stroke-width: 0.8"/>
   </g>
   <g id="patch_3">
    <path d="M 45.055 313.109125 
L 45.055 32.274375 
" style="fill: none; stroke: #000000; stroke-width: 0.8; stroke-linejoin: miter; stroke-linecap: square"/>
   </g>
   <g id="patch_4">
    <path d="M 366.65375 313.109125 
L 366.65375 32.274375 
" style="fill: none; stroke: #000000; stroke-width: 0.8; stroke-linejoin: miter; stroke-linecap: square"/>
   </g>
   <g id="patch_5">
    <path d="M 45.055 313.109125 
L 366.65375 313.109125 
" style="fill: none; stroke: #000000; stroke-width: 0.8; stroke-linejoin: miter; stroke-linecap: square"/>
   </g>
   <g id="patch_6">
    <path d="M 45.055 32.274375 
L 366.65375 32.274375 
" style="fill: none; stroke: #000000; stroke-width: 0.8; stroke-linejoin: miter; stroke-linecap: square"/>
   </g>
   <g id="text_16">
    <!-- Attention share of winner (A) -->
    <g transform="translate(133.47625 26.274375) scale(0.1 -0.1)">
     <defs>
      <path id="DejaVuSans-74" d="M 1172 4494 
L 1172 3500 
L 2356 3500 
L 2356 3053 
L 1172 3053 
L 1172 1153 
Q 1172 725 1289 603 
Q 1406 481 1766 481 
L 2356 481 
L 2356 0 
L 1766 0 
Q 1100 0 847 248 
Q 594 497 594 1153 
L 594 3053 
L 172 3053 
L 172 3500 
L 594 3500 
L 594 4494 
L 1172 4494 
z
" transform="scale(0.015625)"/>
      <path id="DejaVuSans-68" d="M 3513 2113 
L 3513 0 
L 2938 0 
L 2938 2094 
Q 2938 2591 2744 2837 
Q 2550 3084 2163 3084 
Q 1697 3084 1428 2787 
Q 1159 2491 1159 1978 
L 1159 0 
L 581 0 
L 581 4863 
L 1159 4863 
L 1159 2956 
Q 1366 3272 1645 3428 
Q 1925 3584 2291 3584 
Q 2894 3584 3203 3211 
Q 3513 2838 3513 2113 
z
" transform="scale(0.015625)"/>
      <path id="DejaVuSans-61" d="M 2194 1759 
Q 1497 1759 1228 1600 
Q 959 1441 959 1056 
Q 959 750 1161 570 
Q 1363 391 1709 391 
Q 2188 391 2477 730 
Q 2766 1069 2766 1631 
L 2766 1759 
L 2194 1759 
z
M 3341 1997 
L 3341 0 
L 2766 0 
L 2766 531 
Q 2569 213 2275 61 
Q 1981 -91 1556 -91 
Q 1019 -91 701 211 
Q 384 513 384 1019 
Q 384 1609 779 1909 
Q 1175 2209 1959 2209 
L 2766 2209 
L 2766 2266 
Q 2766 2663 2505 2880 
Q 2244 3097 1772 3097 
Q 1472 3097 1187 3025 
Q 903 2953 641 2809 
L 641 3341 
Q 956 3463 1253 3523 
Q 1550 3584 1831 3584 
Q 2591 3584 2966 3190 
Q 3341 2797 3341 1997 
z
" transform="scale(0.015625)"/>
      <path id="DejaVuSans-77" d="M 269 3500 
L 844 3500 
L 1563 769 
L 2278 3500 
L 2956 3500 
L 3675 769 
L 4391 3500 
L 4966 3500 
L 4050 0 
L 3372 0 
L 2619 2869 
L 1863 0 
L 1184 0 
L 269 3500 
z
" transform="scale(0.015625)"/>
     </defs>
     <use xlink:href="#DejaVuSans-41"/>
     <use xlink:href="#DejaVuSans-74" transform="translate(66.658203 0)"/>
     <use xlink:href="#DejaVuSans-74" transform="translate(105.867188 0)"/>
     <use xlink:href="#DejaVuSans-65" transform="translate(145.076172 0)"/>
     <use xlink:href="#DejaVuSans-6e" transform="translate(206.599609 0)"/>
     <use xlink:href="#DejaVuSans-74" transform="translate(269.978516 0)"/>
     <use xlink:href="#DejaVuSans-69" transform="translate(309.1875 0)"/>
     <use xlink:href="#DejaVuSans-6f" transform="translate(336.970703 0)"/>
     <use xlink:href="#DejaVuSans-6e" transform="translate(398.152344 0)"/>
     <use xlink:href="#DejaVuSans-20" transform="translate(461.53125 0)"/>
     <use xlink:href="#DejaVuSans-73" transform="translate(493.318359 0)"/>
     <use xlink:href="#DejaVuSans-68" transform="translate(545.417969 0)"/>
     <use xlink:href="#DejaVuSans-61" transform="translate(608.796875 0)"/>
     <use xlink:href="#DejaVuSans-72" transform="translate(670.076172 0)"/>
     <use xlink:href="#DejaVuSans-65" transform="translate(708.939453 0)"/>
     <use xlink:href="#DejaVuSans-20" transform="translate(770.462891 0)"/>
     <use xlink:href="#DejaVuSans-6f" transform="translate(802.25 0)"/>
     <use xlink:href="#DejaVuSans-66" transform="translate(863.431641 0)"/>
     <use xlink:href="#DejaVuSans-20" transform="translate(898.636719 0)"/>
     <use xlink:href="#DejaVuSans-77" transform="translate(930.423828 0)"/>
     <use xlink:href="#DejaVuSans-69" transform="translate(1012.210938 0)"/>
     <use xlink:href="#DejaVuSans-6e" transform="translate(1039.994141 0)"/>
     <use xlink:href="#DejaVuSans-6e" transform="translate(1103.373047 0)"/>
     <use xlink:href="#DejaVuSans-65" transform="translate(1166.751953 0)"/>
     <use xlink:href="#DejaVuSans-72" transform="translate(1228.275391 0)"/>
     <use xlink:href="#DejaVuSans-20" transform="translate(1269.388672 0)"/>
     <use xlink:href="#DejaVuSans-28" transform="translate(1301.175781 0)"/>
     <use xlink:href="#DejaVuSans-41" transform="translate(1340.189453 0)"/>
     <use xlink:href="#DejaVuSans-29" transform="translate(1408.597656 0)"/>
    </g>
   </g>
   <g id="legend_1">
    <g id="patch_7">
     <path d="M 50.655 309.109125 
L 153.23 309.109125 
Q 154.83 309.109125 154.83 307.509125 
L 154.83 261.339125 
Q 154.83 259.739125 153.23 259.739125 
L 50.655 259.739125 
Q 49.055 259.739125 49.055 261.339125 
L 49.055 307.509125 
Q 49.055 309.109125 50.655 309.109125 
z
" style="fill: #ffffff; opacity: 0.8; stroke: #cccccc; stroke-linejoin: miter"/>
    </g>
    <g id="line2d_20">
     <path d="M 52.255 266.217875 
L 60.255 266.217875 
L 68.255 266.217875 
" style="fill: none; stroke: #2c3e50; stroke-width: 2; stroke-linecap: square"/>
    </g>
    <g id="text_17">
     <!-- γ=0 (no depletion) -->
     <g transform="translate(74.655 269.017875) scale(0.08 -0.08)">
      <defs>
       <path id="DejaVuSans-3b3" d="M 1128 2950 
L 1894 788 
L 2988 3500 
L 3597 3500 
L 2181 0 
L 2181 -1331 
L 1606 -1331 
L 1606 0 
L 688 2613 
Q 550 3006 253 3006 
L 100 3006 
L 100 3500 
L 319 3500 
Q 934 3500 1128 2950 
z
" transform="scale(0.015625)"/>
       <path id="DejaVuSans-3d" d="M 678 2906 
L 4684 2906 
L 4684 2381 
L 678 2381 
L 678 2906 
z
M 678 1631 
L 4684 1631 
L 4684 1100 
L 678 1100 
L 678 1631 
z
" transform="scale(0.015625)"/>
       <path id="DejaVuSans-70" d="M 1159 525 
L 1159 -1331 
L 581 -1331 
L 581 3500 
L 1159 3500 
L 1159 2969 
Q 1341 3281 1617 3432 
Q 1894 3584 2278 3584 
Q 2916 3584 3314 3078 
Q 3713 2572 3713 1747 
Q 3713 922 3314 415 
Q 2916 -91 2278 -91 
Q 1894 -91 1617 61 
Q 1341 213 1159 525 
z
M 3116 1747 
Q 3116 2381 2855 2742 
Q 2594 3103 2138 3103 
Q 1681 3103 1420 2742 
Q 1159 2381 1159 1747 
Q 1159 1113 1420 752 
Q 1681 391 2138 391 
Q 2594 391 2855 752 
Q 3116 1113 3116 1747 
z
" transform="scale(0.015625)"/>
       <path id="DejaVuSans-6c" d="M 603 4863 
L 1178 4863 
L 1178 0 
L 603 0 
L 603 4863 
z
" transform="scale(0.015625)"/>
      </defs>
      <use xlink:href="#DejaVuSans-3b3"/>
      <use xlink:href="#DejaVuSans-3d" transform="translate(59.179688 0)"/>
      <use xlink:href="#DejaVuSans-30" transform="translate(142.96875 0)"/>
      <use xlink:href="#DejaVuSans-20" transform="translate(206.591797 0)"/>
      <use xlink:href="#DejaVuSans-28" transform="translate(238.378906 0)"/>
      <use xlink:href="#DejaVuSans-6e" transform="translate(277.392578 0)"/>
      <use xlink:href="#DejaVuSans-6f" transform="translate(340.771484 0)"/>
      <use xlink:href="#DejaVuSans-20" transform="translate(401.953125 0)"/>
      <use xlink:href="#DejaVuSans-64" transform="translate(433.740234 0)"/>
      <use xlink:href="#DejaVuSans-65" transform="translate(497.216797 0)"/>
      <use xlink:href="#DejaVuSans-70" transform="translate(558.740234 0)"/>
      <use xlink:href="#DejaVuSans-6c" transform="translate(622.216797 0)"/>
      <use xlink:href="#DejaVuSans-65" transform="translate(650 0)"/>
      <use xlink:href="#DejaVuSans-74" transform="translate(711.523438 0)"/>
      <use xlink:href="#DejaVuSans-69" transform="translate(750.732422 0)"/>
      <use xlink:href="#DejaVuSans-6f" transform="translate(778.515625 0)"/>
      <use xlink:href="#DejaVuSans-6e" transform="translate(839.697266 0)"/>
      <use xlink:href="#DejaVuSans-29" transform="translate(903.076172 0)"/>
     </g>
    </g>
    <g id="line2d_21">
     <path d="M 52.255 277.960375 
L 60.255 277.960375 
L 68.255 277.960375 
" style="fill: none; stroke: #e67e22; stroke-width: 2; stroke-linecap: square"/>
    </g>
    <g id="text_18">
     <!-- γ=0.01 -->
     <g transform="translate(74.655 280.760375) scale(0.08 -0.08)">
      <use xlink:href="#DejaVuSans-3b3"/>
      <use xlink:href="#DejaVuSans-3d" transform="translate(59.179688 0)"/>
      <use xlink:href="#DejaVuSans-30" transform="translate(142.96875 0)"/>
      <use xlink:href="#DejaVuSans-2e" transform="translate(206.591797 0)"/>
      <use xlink:href="#DejaVuSans-30" transform="translate(238.378906 0)"/>
      <use xlink:href="#DejaVuSans-31" transform="translate(302.001953 0)"/>
     </g>
    </g>
    <g id="line2d_22">
     <path d="M 52.255 289.702875 
L 60.255 289.702875 
L 68.255 289.702875 
" style="fill: none; stroke: #e74c3c; stroke-width: 2; stroke-linecap: square"/>
    </g>
    <g id="text_19">
     <!-- γ=0.02 (moderate) -->
     <g transform="translate(74.655 292.502875) scale(0.08 -0.08)">
      <use xlink:href="#DejaVuSans-3b3"/>
      <use xlink:href="#DejaVuSans-3d" transform="translate(59.179688 0)"/>
      <use xlink:href="#DejaVuSans-30" transform="translate(142.96875 0)"/>
      <use xlink:href="#DejaVuSans-2e" transform="translate(206.591797 0)"/>
      <use xlink:href="#DejaVuSans-30" transform="translate(238.378906 0)"/>
      <use xlink:href="#DejaVuSans-32" transform="translate(302.001953 0)"/>
      <use xlink:href="#DejaVuSans-20" transform="translate(365.625 0)"/>
      <use xlink:href="#DejaVuSans-28" transform="translate(397.412109 0)"/>
      <use xlink:href="#DejaVuSans-6d" transform="translate(436.425781 0)"/>
      <use xlink:href="#DejaVuSans-6f" transform="translate(533.837891 0)"/>
      <use xlink:href="#DejaVuSans-64" transform="translate(595.019531 0)"/>
      <use xlink:href="#DejaVuSans-65" transform="translate(658.496094 0)"/>
      <use xlink:href="#DejaVuSans-72" transform="translate(720.019531 0)"/>
      <use xlink:href="#DejaVuSans-61" transform="translate(761.132812 0)"/>
      <use xlink:href="#DejaVuSans-74" transform="translate(822.412109 0)"/>
      <use xlink:href="#DejaVuSans-65" transform="translate(861.621094 0)"/>
      <use xlink:href="#DejaVuSans-29" transform="translate(923.144531 0)"/>
     </g>
    </g>
    <g id="line2d_23">
     <path d="M 52.255 301.445375 
L 60.255 301.445375 
L 68.255 301.445375 
" style="fill: none; stroke: #8e44ad; stroke-width: 2; stroke-linecap: square"/>
    </g>
    <g id="text_20">
     <!-- γ=0.04 (high) -->
     <g transform="translate(74.655 304.245375) scale(0.08 -0.08)">
      <defs>
       <path id="DejaVuSans-67" d="M 2906 1791 
Q 2906 2416 2648 2759 
Q 2391 3103 1925 3103 
Q 1463 3103 1205 2759 
Q 947 2416 947 1791 
Q 947 1169 1205 825 
Q 1463 481 1925 481 
Q 2391 481 2648 825 
Q 2906 1169 2906 1791 
z
M 3481 434 
Q 3481 -459 3084 -895 
Q 2688 -1331 1869 -1331 
Q 1566 -1331 1297 -1286 
Q 1028 -1241 775 -1147 
L 775 -588 
Q 1028 -725 1275 -790 
Q 1522 -856 1778 -856 
Q 2344 -856 2625 -561 
Q 2906 -266 2906 331 
L 2906 616 
Q 2728 306 2450 153 
Q 2172 0 1784 0 
Q 1141 0 747 490 
Q 353 981 353 1791 
Q 353 2603 747 3093 
Q 1141 3584 1784 3584 
Q 2172 3584 2450 3431 
Q 2728 3278 2906 2969 
L 2906 3500 
L 3481 3500 
L 3481 434 
z
" transform="scale(0.015625)"/>
      </defs>
      <use xlink:href="#DejaVuSans-3b3"/>
      <use xlink:href="#DejaVuSans-3d" transform="translate(59.179688 0)"/>
      <use xlink:href="#DejaVuSans-30" transform="translate(142.96875 0)"/>
      <use xlink:href="#DejaVuSans-2e" transform="translate(206.591797 0)"/>
      <use xlink:href="#DejaVuSans-30" transform="translate(238.378906 0)"/>
      <use xlink:href="#DejaVuSans-34" transform="translate(302.001953 0)"/>
      <use xlink:href="#DejaVuSans-20" transform="translate(365.625 0)"/>
      <use xlink:href="#DejaVuSans-28" transform="translate(397.412109 0)"/>
      <use xlink:href="#DejaVuSans-68" transform="translate(436.425781 0)"/>
      <use xlink:href="#DejaVuSans-69" transform="translate(499.804688 0)"/>
      <use xlink:href="#DejaVuSans-67" transform="translate(527.587891 0)"/>
      <use xlink:href="#DejaVuSans-68" transform="translate(591.064453 0)"/>
      <use xlink:href="#DejaVuSans-29" transform="translate(654.443359 0)"/>
     </g>
    </g>
   </g>
  </g>
  <g id="axes_2">
   <g id="patch_8">
    <path d="M 425.455 313.109125 
L 747.05375 313.109125 
L 747.05375 32.274375 
L 425.455 32.274375 
z
" style="fill: #ffffff"/>
   </g>
   <g id="matplotlib.axis_3">
    <g id="xtick_8">
     <g id="line2d_24">
      <g>
       <use xlink:href="#mdabe064290" x="425.455" y="313.109125" style="stroke: #000000; stroke-width: 0.8"/>
      </g>
     </g>
     <g id="text_21">
      <!-- 0 -->
      <g transform="translate(422.27375 327.707562) scale(0.1 -0.1)">
       <use xlink:href="#DejaVuSans-30"/>
      </g>
     </g>
    </g>
    <g id="xtick_9">
     <g id="line2d_25">
      <g>
       <use xlink:href="#mdabe064290" x="479.054792" y="313.109125" style="stroke: #000000; stroke-width: 0.8"/>
      </g>
     </g>
     <g id="text_22">
      <!-- 100 -->
      <g transform="translate(469.511042 327.707562) scale(0.1 -0.1)">
       <use xlink:href="#DejaVuSans-31"/>
       <use xlink:href="#DejaVuSans-30" transform="translate(63.623047 0)"/>
       <use xlink:href="#DejaVuSans-30" transform="translate(127.246094 0)"/>
      </g>
     </g>
    </g>
    <g id="xtick_10">
     <g id="line2d_26">
      <g>
       <use xlink:href="#mdabe064290" x="532.654583" y="313.109125" style="stroke: #000000; stroke-width: 0.8"/>
      </g>
     </g>
     <g id="text_23">
      <!-- 200 -->
      <g transform="translate(523.110833 327.707562) scale(0.1 -0.1)">
       <use xlink:href="#DejaVuSans-32"/>
       <use xlink:href="#DejaVuSans-30" transform="translate(63.623047 0)"/>
       <use xlink:href="#DejaVuSans-30" transform="translate(127.246094 0)"/>
      </g>
     </g>
    </g>
    <g id="xtick_11">
     <g id="line2d_27">
      <g>
       <use xlink:href="#mdabe064290" x="586.254375" y="313.109125" style="stroke: #000000; stroke-width: 0.8"/>
      </g>
     </g>
     <g id="text_24">
      <!-- 300 -->
      <g transform="translate(576.710625 327.707562) scale(0.1 -0.1)">
       <use xlink:href="#DejaVuSans-33"/>
       <use xlink:href="#DejaVuSans-30" transform="translate(63.623047 0)"/>
       <use xlink:href="#DejaVuSans-30" transform="translate(127.246094 0)"/>
      </g>
     </g>
    </g>
    <g id="xtick_12">
     <g id="line2d_28">
      <g>
       <use xlink:href="#mdabe064290" x="639.854167" y="313.109125" style="stroke: #000000; stroke-width: 0.8"/>
      </g>
     </g>
     <g id="text_25">
      <!-- 400 -->
      <g transform="translate(630.310417 327.707562) scale(0.1 -0.1)">
       <use xlink:href="#DejaVuSans-34"/>
       <use xlink:href="#DejaVuSans-30" transform="translate(63.623047 0)"/>
       <use xlink:href="#DejaVuSans-30" transform="translate(127.246094 0)"/>
      </g>
     </g>
    </g>
    <g id="xtick_13">
     <g id="line2d_29">
      <g>
       <use xlink:href="#mdabe064290" x="693.453958" y="313.109125" style="stroke: #000000; stroke-width: 0.8"/>
      </g>
     </g>
     <g id="text_26">
      <!-- 500 -->
      <g transform="translate(683.910208 327.707562) scale(0.1 -0.1)">
       <use xlink:href="#DejaVuSans-35"/>
       <use xlink:href="#DejaVuSans-30" transform="translate(63.623047 0)"/>
       <use xlink:href="#DejaVuSans-30" transform="translate(127.246094 0)"/>
      </g>
     </g>
    </g>
    <g id="xtick_14">
     <g id="line2d_30">
      <g>
       <use xlink:href="#mdabe064290" x="747.05375" y="313.109125" style="stroke: #000000; stroke-width: 0.8"/>
      </g>
     </g>
     <g id="text_27">
      <!-- 600 -->
      <g transform="translate(737.51 327.707562) scale(0.1 -0.1)">
       <use xlink:href="#DejaVuSans-36"/>
       <use xlink:href="#DejaVuSans-30" transform="translate(63.623047 0)"/>
       <use xlink:href="#DejaVuSans-30" transform="translate(127.246094 0)"/>
      </g>
     </g>
    </g>
    <g id="text_28">
     <!-- Time (rounds) -->
     <g transform="translate(547.927109 342.145531) scale(0.11 -0.11)">
      <use xlink:href="#DejaVuSans-54"/>
      <use xlink:href="#DejaVuSans-69" transform="translate(57.958984 0)"/>
      <use xlink:href="#DejaVuSans-6d" transform="translate(85.742188 0)"/>
      <use xlink:href="#DejaVuSans-65" transform="translate(183.154297 0)"/>
      <use xlink:href="#DejaVuSans-20" transform="translate(244.677734 0)"/>
      <use xlink:href="#DejaVuSans-28" transform="translate(276.464844 0)"/>
      <use xlink:href="#DejaVuSans-72" transform="translate(315.478516 0)"/>
      <use xlink:href="#DejaVuSans-6f" transform="translate(354.341797 0)"/>
      <use xlink:href="#DejaVuSans-75" transform="translate(415.523438 0)"/>
      <use xlink:href="#DejaVuSans-6e" transform="translate(478.902344 0)"/>
      <use xlink:href="#DejaVuSans-64" transform="translate(542.28125 0)"/>
      <use xlink:href="#DejaVuSans-73" transform="translate(605.757812 0)"/>
      <use xlink:href="#DejaVuSans-29" transform="translate(657.857422 0)"/>
     </g>
    </g>
   </g>
   <g id="matplotlib.axis_4">
    <g id="ytick_7">
     <g id="line2d_31">
      <g>
       <use xlink:href="#m77f5e805d0" x="425.455" y="313.109125" style="stroke: #000000; stroke-width: 0.8"/>
      </g>
     </g>
     <g id="text_29">
      <!-- 0.0 -->
      <g transform="translate(402.551875 316.908344) scale(0.1 -0.1)">
       <use xlink:href="#DejaVuSans-30"/>
       <use xlink:href="#DejaVuSans-2e" transform="translate(63.623047 0)"/>
       <use xlink:href="#DejaVuSans-30" transform="translate(95.410156 0)"/>
      </g>
     </g>
    </g>
    <g id="ytick_8">
     <g id="line2d_32">
      <g>
       <use xlink:href="#m77f5e805d0" x="425.455" y="259.616792" style="stroke: #000000; stroke-width: 0.8"/>
      </g>
     </g>
     <g id="text_30">
      <!-- 0.2 -->
      <g transform="translate(402.551875 263.41601) scale(0.1 -0.1)">
       <use xlink:href="#DejaVuSans-30"/>
       <use xlink:href="#DejaVuSans-2e" transform="translate(63.623047 0)"/>
       <use xlink:href="#DejaVuSans-32" transform="translate(95.410156 0)"/>
      </g>
     </g>
    </g>
    <g id="ytick_9">
     <g id="line2d_33">
      <g>
       <use xlink:href="#m77f5e805d0" x="425.455" y="206.124458" style="stroke: #000000; stroke-width: 0.8"/>
      </g>
     </g>
     <g id="text_31">
      <!-- 0.4 -->
      <g transform="translate(402.551875 209.923677) scale(0.1 -0.1)">
       <use xlink:href="#DejaVuSans-30"/>
       <use xlink:href="#DejaVuSans-2e" transform="translate(63.623047 0)"/>
       <use xlink:href="#DejaVuSans-34" transform="translate(95.410156 0)"/>
      </g>
     </g>
    </g>
    <g id="ytick_10">
     <g id="line2d_34">
      <g>
       <use xlink:href="#m77f5e805d0" x="425.455" y="152.632125" style="stroke: #000000; stroke-width: 0.8"/>
      </g>
     </g>
     <g id="text_32">
      <!-- 0.6 -->
      <g transform="translate(402.551875 156.431344) scale(0.1 -0.1)">
       <use xlink:href="#DejaVuSans-30"/>
       <use xlink:href="#DejaVuSans-2e" transform="translate(63.623047 0)"/>
       <use xlink:href="#DejaVuSans-36" transform="translate(95.410156 0)"/>
      </g>
     </g>
    </g>
    <g id="ytick_11">
     <g id="line2d_35">
      <g>
       <use xlink:href="#m77f5e805d0" x="425.455" y="99.139792" style="stroke: #000000; stroke-width: 0.8"/>
      </g>
     </g>
     <g id="text_33">
      <!-- 0.8 -->
      <g transform="translate(402.551875 102.93901) scale(0.1 -0.1)">
       <use xlink:href="#DejaVuSans-30"/>
       <use xlink:href="#DejaVuSans-2e" transform="translate(63.623047 0)"/>
       <use xlink:href="#DejaVuSans-38" transform="translate(95.410156 0)"/>
      </g>
     </g>
    </g>
    <g id="ytick_12">
     <g id="line2d_36">
      <g>
       <use xlink:href="#m77f5e805d0" x="425.455" y="45.647458" style="stroke: #000000; stroke-width: 0.8"/>
      </g>
     </g>
     <g id="text_34">
      <!-- 1.0 -->
      <g transform="translate(402.551875 49.446677) scale(0.1 -0.1)">
       <use xlink:href="#DejaVuSans-31"/>
       <use xlink:href="#DejaVuSans-2e" transform="translate(63.623047 0)"/>
       <use xlink:href="#DejaVuSans-30" transform="translate(95.410156 0)"/>
      </g>
     </g>
    </g>
    <g id="text_35">
     <!-- θ_obs (observer capacity) -->
     <g transform="translate(395.958281 243.805031) rotate(-90) scale(0.11 -0.11)">
      <defs>
       <path id="DejaVuSans-3b8" d="M 2953 2219 
L 963 2219 
Q 1009 1284 1225 888 
Q 1494 400 1959 400 
Q 2428 400 2688 891 
Q 2916 1322 2953 2219 
z
M 2944 2750 
Q 2856 3638 2688 3950 
Q 2419 4444 1959 4444 
Q 1481 4444 1228 3956 
Q 1028 3563 969 2750 
L 2944 2750 
z
M 1959 4913 
Q 2709 4913 3138 4250 
Q 3566 3591 3566 2422 
Q 3566 1256 3138 594 
Q 2709 -72 1959 -72 
Q 1206 -72 781 594 
Q 353 1256 353 2422 
Q 353 3591 781 4250 
Q 1206 4913 1959 4913 
z
" transform="scale(0.015625)"/>
       <path id="DejaVuSans-62" d="M 3116 1747 
Q 3116 2381 2855 2742 
Q 2594 3103 2138 3103 
Q 1681 3103 1420 2742 
Q 1159 2381 1159 1747 
Q 1159 1113 1420 752 
Q 1681 391 2138 391 
Q 2594 391 2855 752 
Q 3116 1113 3116 1747 
z
M 1159 2969 
Q 1341 3281 1617 3432 
Q 1894 3584 2278 3584 
Q 2916 3584 3314 3078 
Q 3713 2572 3713 1747 
Q 3713 922 3314 415 
Q 2916 -91 2278 -91 
Q 1894 -91 1617 61 
Q 1341 213 1159 525 
L 1159 0 
L 581 0 
L 581 4863 
L 1159 4863 
L 1159 2969 
z
" transform="scale(0.015625)"/>
       <path id="DejaVuSans-76" d="M 191 3500 
L 800 3500 
L 1894 563 
L 2988 3500 
L 3597 3500 
L 2284 0 
L 1503 0 
L 191 3500 
z
" transform="scale(0.015625)"/>
       <path id="DejaVuSans-63" d="M 3122 3366 
L 3122 2828 
Q 2878 2963 2633 3030 
Q 2388 3097 2138 3097 
Q 1578 3097 1268 2742 
Q 959 2388 959 1747 
Q 959 1106 1268 751 
Q 1578 397 2138 397 
Q 2388 397 2633 464 
Q 2878 531 3122 666 
L 3122 134 
Q 2881 22 2623 -34 
Q 2366 -91 2075 -91 
Q 1284 -91 818 406 
Q 353 903 353 1747 
Q 353 2603 823 3093 
Q 1294 3584 2113 3584 
Q 2378 3584 2631 3529 
Q 2884 3475 3122 3366 
z
" transform="scale(0.015625)"/>
       <path id="DejaVuSans-79" d="M 2059 -325 
Q 1816 -950 1584 -1140 
Q 1353 -1331 966 -1331 
L 506 -1331 
L 506 -850 
L 844 -850 
Q 1081 -850 1212 -737 
Q 1344 -625 1503 -206 
L 1606 56 
L 191 3500 
L 800 3500 
L 1894 763 
L 2988 3500 
L 3597 3500 
L 2059 -325 
z
" transform="scale(0.015625)"/>
      </defs>
      <use xlink:href="#DejaVuSans-3b8"/>
      <use xlink:href="#DejaVuSans-5f" transform="translate(61.181641 0)"/>
      <use xlink:href="#DejaVuSans-6f" transform="translate(111.181641 0)"/>
      <use xlink:href="#DejaVuSans-62" transform="translate(172.363281 0)"/>
      <use xlink:href="#DejaVuSans-73" transform="translate(235.839844 0)"/>
      <use xlink:href="#DejaVuSans-20" transform="translate(287.939453 0)"/>
      <use xlink:href="#DejaVuSans-28" transform="translate(319.726562 0)"/>
      <use xlink:href="#DejaVuSans-6f" transform="translate(358.740234 0)"/>
      <use xlink:href="#DejaVuSans-62" transform="translate(419.921875 0)"/>
      <use xlink:href="#DejaVuSans-73" transform="translate(483.398438 0)"/>
      <use xlink:href="#DejaVuSans-65" transform="translate(535.498047 0)"/>
      <use xlink:href="#DejaVuSans-72" transform="translate(597.021484 0)"/>
      <use xlink:href="#DejaVuSans-76" transform="translate(638.134766 0)"/>
      <use xlink:href="#DejaVuSans-65" transform="translate(697.314453 0)"/>
      <use xlink:href="#DejaVuSans-72" transform="translate(758.837891 0)"/>
      <use xlink:href="#DejaVuSans-20" transform="translate(799.951172 0)"/>
      <use xlink:href="#DejaVuSans-63" transform="translate(831.738281 0)"/>
      <use xlink:href="#DejaVuSans-61" transform="translate(886.71875 0)"/>
      <use xlink:href="#DejaVuSans-70" transform="translate(947.998047 0)"/>
      <use xlink:href="#DejaVuSans-61" transform="translate(1011.474609 0)"/>
      <use xlink:href="#DejaVuSans-63" transform="translate(1072.753906 0)"/>
      <use xlink:href="#DejaVuSans-69" transform="translate(1127.734375 0)"/>
      <use xlink:href="#DejaVuSans-74" transform="translate(1155.517578 0)"/>
      <use xlink:href="#DejaVuSans-79" transform="translate(1194.726562 0)"/>
      <use xlink:href="#DejaVuSans-29" transform="translate(1253.90625 0)"/>
     </g>
    </g>
   </g>
   <g id="line2d_37">
    <path d="M 425.455 45.647458 
L 747.05375 45.647458 
L 747.05375 45.647458 
" clip-path="url(#pf3a55fbe49)" style="fill: none; stroke: #2c3e50; stroke-width: 2; stroke-linecap: square"/>
   </g>
   <g id="line2d_38">
    <path d="M 425.455 45.647458 
L 426.743973 82.47698 
L 428.032946 110.244062 
L 429.321919 130.561964 
L 430.610892 145.833227 
L 431.899865 157.544286 
L 433.188838 166.66424 
L 434.477811 173.851755 
L 435.766784 179.569824 
L 437.055757 184.153002 
L 438.344729 187.848594 
L 439.633702 190.842905 
L 440.922675 193.27851 
L 442.211648 195.265962 
L 443.500621 196.891929 
L 444.789594 198.224984 
L 446.078567 199.319794 
L 448.012027 200.608881 
L 449.945486 201.572747 
L 451.878945 202.294811 
L 454.456891 202.985218 
L 457.679324 203.549076 
L 461.546242 203.952037 
L 466.702134 204.231788 
L 474.435972 204.399685 
L 490.548134 204.471909 
L 602.68878 204.479444 
L 747.05375 204.479444 
L 747.05375 204.479444 
" clip-path="url(#pf3a55fbe49)" style="fill: none; stroke: #e67e22; stroke-width: 2; stroke-linecap: square"/>
   </g>
   <g id="line2d_39">
    <path d="M 425.455 45.647458 
L 426.099486 81.007785 
L 426.743973 110.241371 
L 427.388459 132.157447 
L 428.032946 149.065887 
L 428.677432 162.403725 
L 429.321919 173.110398 
L 429.966405 181.826126 
L 431.255378 194.966565 
L 432.544351 204.173778 
L 433.833324 210.784496 
L 435.122297 215.614583 
L 436.41127 219.188882 
L 437.700243 221.858886 
L 438.989216 223.867429 
L 440.278189 225.38637 
L 441.567162 226.539643 
L 442.856135 227.417931 
L 444.145108 228.088345 
L 446.078567 228.810296 
L 448.012027 229.294364 
L 450.589972 229.702283 
L 453.812405 229.985579 
L 458.968297 230.183622 
L 468.635594 230.27519 
L 512.460674 230.290034 
L 747.05375 230.290035 
L 747.05375 230.290035 
" clip-path="url(#pf3a55fbe49)" style="fill: none; stroke: #e74c3c; stroke-width: 2; stroke-linecap: square"/>
   </g>
   <g id="line2d_40">
    <path d="M 425.455 45.647458 
L 426.099486 107.934612 
L 426.743973 149.313408 
L 427.388459 175.593181 
L 428.032946 193.498669 
L 428.677432 206.294848 
L 429.321919 215.754879 
L 429.966405 222.925185 
L 430.610892 228.463388 
L 431.255378 232.803581 
L 431.899865 236.243798 
L 432.544351 238.995305 
L 433.188838 241.211862 
L 433.833324 243.007839 
L 435.122297 245.664619 
L 436.41127 247.448834 
L 437.700243 248.658493 
L 438.989216 249.483904 
L 440.278189 250.049596 
L 442.211648 250.584802 
L 444.789594 250.960754 
L 448.012027 251.167745 
L 453.812405 251.2784 
L 473.791485 251.304371 
L 747.05375 251.304457 
L 747.05375 251.304457 
" clip-path="url(#pf3a55fbe49)" style="fill: none; stroke: #8e44ad; stroke-width: 2; stroke-linecap: square"/>
   </g>
   <g id="line2d_41">
    <path d="M 425.455 45.647458 
L 747.05375 45.647458 
" clip-path="url(#pf3a55fbe49)" style="fill: none; stroke-dasharray: 0.8,1.32; stroke-dashoffset: 0; stroke: #808080; stroke-width: 0.8"/>
   </g>
   <g id="patch_9">
    <path d="M 425.455 313.109125 
L 425.455 32.274375 
" style="fill: none; stroke: #000000; stroke-width: 0.8; stroke-linejoin: miter; stroke-linecap: square"/>
   </g>
   <g id="patch_10">
    <path d="M 747.05375 313.109125 
L 747.05375 32.274375 
" style="fill: none; stroke: #000000; stroke-width: 0.8; stroke-linejoin: miter; stroke-linecap: square"/>
   </g>
   <g id="patch_11">
    <path d="M 425.455 313.109125 
L 747.05375 313.109125 
" style="fill: none; stroke: #000000; stroke-width: 0.8; stroke-linejoin: miter; stroke-linecap: square"/>
   </g>
   <g id="patch_12">
    <path d="M 425.455 32.274375 
L 747.05375 32.274375 
" style="fill: none; stroke: #000000; stroke-width: 0.8; stroke-linejoin: miter; stroke-linecap: square"/>
   </g>
   <g id="text_36">
    <!-- Observer attention depletion -->
    <g transform="translate(513.862969 15.076562) scale(0.1 -0.1)">
     <defs>
      <path id="DejaVuSans-4f" d="M 2522 4238 
Q 1834 4238 1429 3725 
Q 1025 3213 1025 2328 
Q 1025 1447 1429 934 
Q 1834 422 2522 422 
Q 3209 422 3611 934 
Q 4013 1447 4013 2328 
Q 4013 3213 3611 3725 
Q 3209 4238 2522 4238 
z
M 2522 4750 
Q 3503 4750 4090 4092 
Q 4678 3434 4678 2328 
Q 4678 1225 4090 567 
Q 3503 -91 2522 -91 
Q 1538 -91 948 565 
Q 359 1222 359 2328 
Q 359 3434 948 4092 
Q 1538 4750 2522 4750 
z
" transform="scale(0.015625)"/>
     </defs>
     <use xlink:href="#DejaVuSans-4f"/>
     <use xlink:href="#DejaVuSans-62" transform="translate(78.710938 0)"/>
     <use xlink:href="#DejaVuSans-73" transform="translate(142.1875 0)"/>
     <use xlink:href="#DejaVuSans-65" transform="translate(194.287109 0)"/>
     <use xlink:href="#DejaVuSans-72" transform="translate(255.810547 0)"/>
     <use xlink:href="#DejaVuSans-76" transform="translate(296.923828 0)"/>
     <use xlink:href="#DejaVuSans-65" transform="translate(356.103516 0)"/>
     <use xlink:href="#DejaVuSans-72" transform="translate(417.626953 0)"/>
     <use xlink:href="#DejaVuSans-20" transform="translate(458.740234 0)"/>
     <use xlink:href="#DejaVuSans-61" transform="translate(490.527344 0)"/>
     <use xlink:href="#DejaVuSans-74" transform="translate(551.806641 0)"/>
     <use xlink:href="#DejaVuSans-74" transform="translate(591.015625 0)"/>
     <use xlink:href="#DejaVuSans-65" transform="translate(630.224609 0)"/>
     <use xlink:href="#DejaVuSans-6e" transform="translate(691.748047 0)"/>
     <use xlink:href="#DejaVuSans-74" transform="translate(755.126953 0)"/>
     <use xlink:href="#DejaVuSans-69" transform="translate(794.335938 0)"/>
     <use xlink:href="#DejaVuSans-6f" transform="translate(822.119141 0)"/>
     <use xlink:href="#DejaVuSans-6e" transform="translate(883.300781 0)"/>
     <use xlink:href="#DejaVuSans-20" transform="translate(946.679688 0)"/>
     <use xlink:href="#DejaVuSans-64" transform="translate(978.466797 0)"/>
     <use xlink:href="#DejaVuSans-65" transform="translate(1041.943359 0)"/>
     <use xlink:href="#DejaVuSans-70" transform="translate(1103.466797 0)"/>
     <use xlink:href="#DejaVuSans-6c" transform="translate(1166.943359 0)"/>
     <use xlink:href="#DejaVuSans-65" transform="translate(1194.726562 0)"/>
     <use xlink:href="#DejaVuSans-74" transform="translate(1256.25 0)"/>
     <use xlink:href="#DejaVuSans-69" transform="translate(1295.458984 0)"/>
     <use xlink:href="#DejaVuSans-6f" transform="translate(1323.242188 0)"/>
     <use xlink:href="#DejaVuSans-6e" transform="translate(1384.423828 0)"/>
    </g>
    <!-- τ_recover = 50 rounds -->
    <g transform="translate(529.386406 26.274375) scale(0.1 -0.1)">
     <defs>
      <path id="DejaVuSans-3c4" d="M 2319 638 
Q 2431 488 2769 488 
L 3047 488 
L 3047 0 
L 2700 0 
Q 2138 0 1881 300 
Q 1625 606 1625 1269 
L 1625 2925 
L 313 2925 
L 313 3500 
L 3541 3500 
L 3541 2925 
L 2213 2925 
L 2213 1234 
Q 2213 781 2319 638 
z
" transform="scale(0.015625)"/>
     </defs>
     <use xlink:href="#DejaVuSans-3c4"/>
     <use xlink:href="#DejaVuSans-5f" transform="translate(60.205078 0)"/>
     <use xlink:href="#DejaVuSans-72" transform="translate(110.205078 0)"/>
     <use xlink:href="#DejaVuSans-65" transform="translate(149.068359 0)"/>
     <use xlink:href="#DejaVuSans-63" transform="translate(210.591797 0)"/>
     <use xlink:href="#DejaVuSans-6f" transform="translate(265.572266 0)"/>
     <use xlink:href="#DejaVuSans-76" transform="translate(326.753906 0)"/>
     <use xlink:href="#DejaVuSans-65" transform="translate(385.933594 0)"/>
     <use xlink:href="#DejaVuSans-72" transform="translate(447.457031 0)"/>
     <use xlink:href="#DejaVuSans-20" transform="translate(488.570312 0)"/>
     <use xlink:href="#DejaVuSans-3d" transform="translate(520.357422 0)"/>
     <use xlink:href="#DejaVuSans-20" transform="translate(604.146484 0)"/>
     <use xlink:href="#DejaVuSans-35" transform="translate(635.933594 0)"/>
     <use xlink:href="#DejaVuSans-30" transform="translate(699.556641 0)"/>
     <use xlink:href="#DejaVuSans-20" transform="translate(763.179688 0)"/>
     <use xlink:href="#DejaVuSans-72" transform="translate(794.966797 0)"/>
     <use xlink:href="#DejaVuSans-6f" transform="translate(833.830078 0)"/>
     <use xlink:href="#DejaVuSans-75" transform="translate(895.011719 0)"/>
     <use xlink:href="#DejaVuSans-6e" transform="translate(958.390625 0)"/>
     <use xlink:href="#DejaVuSans-64" transform="translate(1021.769531 0)"/>
     <use xlink:href="#DejaVuSans-73" transform="translate(1085.246094 0)"/>
    </g>
   </g>
  </g>
  <g id="axes_3">
   <g id="patch_13">
    <path d="M 805.855 313.109125 
L 1127.45375 313.109125 
L 1127.45375 32.274375 
L 805.855 32.274375 
z
" style="fill: #ffffff"/>
   </g>
   <g id="matplotlib.axis_5">
    <g id="xtick_15">
     <g id="line2d_42">
      <g>
       <use xlink:href="#mdabe064290" x="805.855" y="313.109125" style="stroke: #000000; stroke-width: 0.8"/>
      </g>
     </g>
     <g id="text_37">
      <!-- 0 -->
      <g transform="translate(802.67375 327.707562) scale(0.1 -0.1)">
       <use xlink:href="#DejaVuSans-30"/>
      </g>
     </g>
    </g>
    <g id="xtick_16">
     <g id="line2d_43">
      <g>
       <use xlink:href="#mdabe064290" x="859.454792" y="313.109125" style="stroke: #000000; stroke-width: 0.8"/>
      </g>
     </g>
     <g id="text_38">
      <!-- 100 -->
      <g transform="translate(849.911042 327.707562) scale(0.1 -0.1)">
       <use xlink:href="#DejaVuSans-31"/>
       <use xlink:href="#DejaVuSans-30" transform="translate(63.623047 0)"/>
       <use xlink:href="#DejaVuSans-30" transform="translate(127.246094 0)"/>
      </g>
     </g>
    </g>
    <g id="xtick_17">
     <g id="line2d_44">
      <g>
       <use xlink:href="#mdabe064290" x="913.054583" y="313.109125" style="stroke: #000000; stroke-width: 0.8"/>
      </g>
     </g>
     <g id="text_39">
      <!-- 200 -->
      <g transform="translate(903.510833 327.707562) scale(0.1 -0.1)">
       <use xlink:href="#DejaVuSans-32"/>
       <use xlink:href="#DejaVuSans-30" transform="translate(63.623047 0)"/>
       <use xlink:href="#DejaVuSans-30" transform="translate(127.246094 0)"/>
      </g>
     </g>
    </g>
    <g id="xtick_18">
     <g id="line2d_45">
      <g>
       <use xlink:href="#mdabe064290" x="966.654375" y="313.109125" style="stroke: #000000; stroke-width: 0.8"/>
      </g>
     </g>
     <g id="text_40">
      <!-- 300 -->
      <g transform="translate(957.110625 327.707562) scale(0.1 -0.1)">
       <use xlink:href="#DejaVuSans-33"/>
       <use xlink:href="#DejaVuSans-30" transform="translate(63.623047 0)"/>
       <use xlink:href="#DejaVuSans-30" transform="translate(127.246094 0)"/>
      </g>
     </g>
    </g>
    <g id="xtick_19">
     <g id="line2d_46">
      <g>
       <use xlink:href="#mdabe064290" x="1020.254167" y="313.109125" style="stroke: #000000; stroke-width: 0.8"/>
      </g>
     </g>
     <g id="text_41">
      <!-- 400 -->
      <g transform="translate(1010.710417 327.707562) scale(0.1 -0.1)">
       <use xlink:href="#DejaVuSans-34"/>
       <use xlink:href="#DejaVuSans-30" transform="translate(63.623047 0)"/>
       <use xlink:href="#DejaVuSans-30" transform="translate(127.246094 0)"/>
      </g>
     </g>
    </g>
    <g id="xtick_20">
     <g id="line2d_47">
      <g>
       <use xlink:href="#mdabe064290" x="1073.853958" y="313.109125" style="stroke: #000000; stroke-width: 0.8"/>
      </g>
     </g>
     <g id="text_42">
      <!-- 500 -->
      <g transform="translate(1064.310208 327.707562) scale(0.1 -0.1)">
       <use xlink:href="#DejaVuSans-35"/>
       <use xlink:href="#DejaVuSans-30" transform="translate(63.623047 0)"/>
       <use xlink:href="#DejaVuSans-30" transform="translate(127.246094 0)"/>
      </g>
     </g>
    </g>
    <g id="xtick_21">
     <g id="line2d_48">
      <g>
       <use xlink:href="#mdabe064290" x="1127.45375" y="313.109125" style="stroke: #000000; stroke-width: 0.8"/>
      </g>
     </g>
     <g id="text_43">
      <!-- 600 -->
      <g transform="translate(1117.91 327.707562) scale(0.1 -0.1)">
       <use xlink:href="#DejaVuSans-36"/>
       <use xlink:href="#DejaVuSans-30" transform="translate(63.623047 0)"/>
       <use xlink:href="#DejaVuSans-30" transform="translate(127.246094 0)"/>
      </g>
     </g>
    </g>
    <g id="text_44">
     <!-- Time (rounds) -->
     <g transform="translate(928.327109 342.145531) scale(0.11 -0.11)">
      <use xlink:href="#DejaVuSans-54"/>
      <use xlink:href="#DejaVuSans-69" transform="translate(57.958984 0)"/>
      <use xlink:href="#DejaVuSans-6d" transform="translate(85.742188 0)"/>
      <use xlink:href="#DejaVuSans-65" transform="translate(183.154297 0)"/>
      <use xlink:href="#DejaVuSans-20" transform="translate(244.677734 0)"/>
      <use xlink:href="#DejaVuSans-28" transform="translate(276.464844 0)"/>
      <use xlink:href="#DejaVuSans-72" transform="translate(315.478516 0)"/>
      <use xlink:href="#DejaVuSans-6f" transform="translate(354.341797 0)"/>
      <use xlink:href="#DejaVuSans-75" transform="translate(415.523438 0)"/>
      <use xlink:href="#DejaVuSans-6e" transform="translate(478.902344 0)"/>
      <use xlink:href="#DejaVuSans-64" transform="translate(542.28125 0)"/>
      <use xlink:href="#DejaVuSans-73" transform="translate(605.757812 0)"/>
      <use xlink:href="#DejaVuSans-29" transform="translate(657.857422 0)"/>
     </g>
    </g>
   </g>
   <g id="matplotlib.axis_6">
    <g id="ytick_13">
     <g id="line2d_49">
      <g>
       <use xlink:href="#m77f5e805d0" x="805.855" y="300.343909" style="stroke: #000000; stroke-width: 0.8"/>
      </g>
     </g>
     <g id="text_45">
      <!-- 0 -->
      <g transform="translate(792.4925 304.143128) scale(0.1 -0.1)">
       <use xlink:href="#DejaVuSans-30"/>
      </g>
     </g>
    </g>
    <g id="ytick_14">
     <g id="line2d_50">
      <g>
       <use xlink:href="#m77f5e805d0" x="805.855" y="264.884976" style="stroke: #000000; stroke-width: 0.8"/>
      </g>
     </g>
     <g id="text_46">
      <!-- 1 -->
      <g transform="translate(792.4925 268.684195) scale(0.1 -0.1)">
       <use xlink:href="#DejaVuSans-31"/>
      </g>
     </g>
    </g>
    <g id="ytick_15">
     <g id="line2d_51">
      <g>
       <use xlink:href="#m77f5e805d0" x="805.855" y="229.426043" style="stroke: #000000; stroke-width: 0.8"/>
      </g>
     </g>
     <g id="text_47">
      <!-- 2 -->
      <g transform="translate(792.4925 233.225262) scale(0.1 -0.1)">
       <use xlink:href="#DejaVuSans-32"/>
      </g>
     </g>
    </g>
    <g id="ytick_16">
     <g id="line2d_52">
      <g>
       <use xlink:href="#m77f5e805d0" x="805.855" y="193.96711" style="stroke: #000000; stroke-width: 0.8"/>
      </g>
     </g>
     <g id="text_48">
      <!-- 3 -->
      <g transform="translate(792.4925 197.766329) scale(0.1 -0.1)">
       <use xlink:href="#DejaVuSans-33"/>
      </g>
     </g>
    </g>
    <g id="ytick_17">
     <g id="line2d_53">
      <g>
       <use xlink:href="#m77f5e805d0" x="805.855" y="158.508177" style="stroke: #000000; stroke-width: 0.8"/>
      </g>
     </g>
     <g id="text_49">
      <!-- 4 -->
      <g transform="translate(792.4925 162.307396) scale(0.1 -0.1)">
       <use xlink:href="#DejaVuSans-34"/>
      </g>
     </g>
    </g>
    <g id="ytick_18">
     <g id="line2d_54">
      <g>
       <use xlink:href="#m77f5e805d0" x="805.855" y="123.049244" style="stroke: #000000; stroke-width: 0.8"/>
      </g>
     </g>
     <g id="text_50">
      <!-- 5 -->
      <g transform="translate(792.4925 126.848462) scale(0.1 -0.1)">
       <use xlink:href="#DejaVuSans-35"/>
      </g>
     </g>
    </g>
    <g id="ytick_19">
     <g id="line2d_55">
      <g>
       <use xlink:href="#m77f5e805d0" x="805.855" y="87.590311" style="stroke: #000000; stroke-width: 0.8"/>
      </g>
     </g>
     <g id="text_51">
      <!-- 6 -->
      <g transform="translate(792.4925 91.389529) scale(0.1 -0.1)">
       <use xlink:href="#DejaVuSans-36"/>
      </g>
     </g>
    </g>
    <g id="ytick_20">
     <g id="line2d_56">
      <g>
       <use xlink:href="#m77f5e805d0" x="805.855" y="52.131378" style="stroke: #000000; stroke-width: 0.8"/>
      </g>
     </g>
     <g id="text_52">
      <!-- 7 -->
      <g transform="translate(792.4925 55.930596) scale(0.1 -0.1)">
       <defs>
        <path id="DejaVuSans-37" d="M 525 4666 
L 3525 4666 
L 3525 4397 
L 1831 0 
L 1172 0 
L 2766 4134 
L 525 4134 
L 525 4666 
z
" transform="scale(0.015625)"/>
       </defs>
       <use xlink:href="#DejaVuSans-37"/>
      </g>
     </g>
    </g>
    <g id="text_53">
     <!-- Effective Pe -->
     <g transform="translate(786.204844 205.020578) rotate(-90) scale(0.11 -0.11)">
      <defs>
       <path id="DejaVuSans-45" d="M 628 4666 
L 3578 4666 
L 3578 4134 
L 1259 4134 
L 1259 2753 
L 3481 2753 
L 3481 2222 
L 1259 2222 
L 1259 531 
L 3634 531 
L 3634 0 
L 628 0 
L 628 4666 
z
" transform="scale(0.015625)"/>
       <path id="DejaVuSans-50" d="M 1259 4147 
L 1259 2394 
L 2053 2394 
Q 2494 2394 2734 2622 
Q 2975 2850 2975 3272 
Q 2975 3691 2734 3919 
Q 2494 4147 2053 4147 
L 1259 4147 
z
M 628 4666 
L 2053 4666 
Q 2838 4666 3239 4311 
Q 3641 3956 3641 3272 
Q 3641 2581 3239 2228 
Q 2838 1875 2053 1875 
L 1259 1875 
L 1259 0 
L 628 0 
L 628 4666 
z
" transform="scale(0.015625)"/>
      </defs>
      <use xlink:href="#DejaVuSans-45"/>
      <use xlink:href="#DejaVuSans-66" transform="translate(63.183594 0)"/>
      <use xlink:href="#DejaVuSans-66" transform="translate(98.388672 0)"/>
      <use xlink:href="#DejaVuSans-65" transform="translate(133.59375 0)"/>
      <use xlink:href="#DejaVuSans-63" transform="translate(195.117188 0)"/>
      <use xlink:href="#DejaVuSans-74" transform="translate(250.097656 0)"/>
      <use xlink:href="#DejaVuSans-69" transform="translate(289.306641 0)"/>
      <use xlink:href="#DejaVuSans-76" transform="translate(317.089844 0)"/>
      <use xlink:href="#DejaVuSans-65" transform="translate(376.269531 0)"/>
      <use xlink:href="#DejaVuSans-20" transform="translate(437.792969 0)"/>
      <use xlink:href="#DejaVuSans-50" transform="translate(469.580078 0)"/>
      <use xlink:href="#DejaVuSans-65" transform="translate(526.257812 0)"/>
     </g>
    </g>
   </g>
   <g id="line2d_57">
    <path d="M 805.855 172.69175 
L 806.499486 45.039591 
L 1127.45375 45.039591 
L 1127.45375 45.039591 
" clip-path="url(#p9e1fbf734b)" style="fill: none; stroke: #2c3e50; stroke-width: 2; stroke-linecap: square"/>
   </g>
   <g id="line2d_58">
    <path d="M 805.855 282.614443 
L 806.499486 300.343909 
L 1127.45375 300.343909 
L 1127.45375 300.343909 
" clip-path="url(#p9e1fbf734b)" style="fill: none; stroke-dasharray: 4.44,1.92; stroke-dashoffset: 0; stroke: #2c3e50; stroke-opacity: 0.7; stroke-width: 1.2"/>
   </g>
   <g id="line2d_59">
    <path d="M 805.855 172.69175 
L 806.499486 63.238289 
L 807.788459 94.530958 
L 809.077432 117.115739 
L 810.366405 133.881588 
L 811.655378 146.619132 
L 812.944351 156.467406 
L 814.233324 164.185499 
L 815.522297 170.298546 
L 816.81127 175.181055 
L 818.100243 179.106884 
L 819.389216 182.280485 
L 820.678189 184.857149 
L 821.967162 186.956538 
L 823.256135 188.671972 
L 824.545108 190.07696 
L 825.834081 191.229895 
L 827.76754 192.586321 
L 829.700999 193.599761 
L 831.634459 194.358528 
L 834.212405 195.08368 
L 836.790351 195.57867 
L 840.012783 195.983359 
L 844.524188 196.306991 
L 850.969053 196.517795 
L 862.56981 196.627412 
L 901.883484 196.651863 
L 1127.45375 196.651941 
L 1127.45375 196.651941 
" clip-path="url(#p9e1fbf734b)" style="fill: none; stroke: #e67e22; stroke-width: 2; stroke-linecap: square"/>
   </g>
   <g id="line2d_60">
    <path d="M 805.855 282.614443 
L 806.499486 300.33045 
L 812.299865 300.343909 
L 1127.45375 300.343909 
L 1127.45375 300.343909 
" clip-path="url(#p9e1fbf734b)" style="fill: none; stroke-dasharray: 4.44,1.92; stroke-dashoffset: 0; stroke: #e67e22; stroke-opacity: 0.7; stroke-width: 1.2"/>
   </g>
   <g id="line2d_61">
    <path d="M 805.855 172.69175 
L 806.499486 79.078496 
L 807.143973 106.697573 
L 807.788459 127.617309 
L 808.432946 143.757182 
L 809.077432 156.488754 
L 809.721919 166.708761 
L 810.366405 175.028319 
L 811.655378 187.571466 
L 812.944351 196.360169 
L 814.233324 202.670399 
L 815.522297 207.280937 
L 816.81127 210.692768 
L 818.100243 213.241409 
L 819.389216 215.158654 
L 820.678189 216.608552 
L 821.967162 217.709403 
L 823.256135 218.54777 
L 825.189594 219.44872 
L 827.123054 220.051726 
L 829.700999 220.559202 
L 832.923432 220.911279 
L 837.434837 221.138683 
L 845.168675 221.258169 
L 869.014674 221.289082 
L 1127.45375 221.289324 
L 1127.45375 221.289324 
" clip-path="url(#p9e1fbf734b)" style="fill: none; stroke: #e74c3c; stroke-width: 2; stroke-linecap: square"/>
   </g>
   <g id="line2d_62">
    <path d="M 805.855 282.614443 
L 806.499486 300.304205 
L 808.432946 300.343909 
L 1127.45375 300.343909 
L 1127.45375 300.343909 
" clip-path="url(#p9e1fbf734b)" style="fill: none; stroke-dasharray: 4.44,1.92; stroke-dashoffset: 0; stroke: #e74c3c; stroke-opacity: 0.7; stroke-width: 1.2"/>
   </g>
   <g id="line2d_63">
    <path d="M 805.855 172.69175 
L 806.499486 105.197642 
L 807.143973 144.007936 
L 807.788459 169.079077 
L 808.432946 186.170335 
L 809.077432 198.38483 
L 809.721919 207.414856 
L 810.366405 214.25924 
L 811.010892 219.545706 
L 811.655378 223.688617 
L 812.299865 226.97246 
L 812.944351 229.598899 
L 813.588838 231.714703 
L 814.233324 233.429045 
L 815.522297 235.965062 
L 816.81127 237.668177 
L 818.100243 238.822851 
L 819.389216 239.610743 
L 820.678189 240.150722 
L 822.611648 240.6616 
L 825.189594 241.020464 
L 828.412027 241.218047 
L 834.856891 241.327855 
L 858.702891 241.348522 
L 1127.45375 241.348545 
L 1127.45375 241.348545 
" clip-path="url(#p9e1fbf734b)" style="fill: none; stroke: #8e44ad; stroke-width: 2; stroke-linecap: square"/>
   </g>
   <g id="line2d_64">
    <path d="M 805.855 282.614443 
L 806.499486 300.246391 
L 807.788459 300.343855 
L 1127.45375 300.343909 
L 1127.45375 300.343909 
" clip-path="url(#p9e1fbf734b)" style="fill: none; stroke-dasharray: 4.44,1.92; stroke-dashoffset: 0; stroke: #8e44ad; stroke-opacity: 0.7; stroke-width: 1.2"/>
   </g>
   <g id="line2d_65">
    <path d="M 805.855 264.884976 
L 1127.45375 264.884976 
" clip-path="url(#p9e1fbf734b)" style="fill: none; stroke-dasharray: 0.8,1.32; stroke-dashoffset: 0; stroke: #808080; stroke-width: 0.8"/>
   </g>
   <g id="line2d_66">
    <path d="M 805.855 300.343909 
L 1127.45375 300.343909 
" clip-path="url(#p9e1fbf734b)" style="fill: none; stroke: #000000; stroke-width: 0.8; stroke-linecap: square"/>
   </g>
   <g id="patch_14">
    <path d="M 805.855 313.109125 
L 805.855 32.274375 
" style="fill: none; stroke: #000000; stroke-width: 0.8; stroke-linejoin: miter; stroke-linecap: square"/>
   </g>
   <g id="patch_15">
    <path d="M 1127.45375 313.109125 
L 1127.45375 32.274375 
" style="fill: none; stroke: #000000; stroke-width: 0.8; stroke-linejoin: miter; stroke-linecap: square"/>
   </g>
   <g id="patch_16">
    <path d="M 805.855 313.109125 
L 1127.45375 313.109125 
" style="fill: none; stroke: #000000; stroke-width: 0.8; stroke-linejoin: miter; stroke-linecap: square"/>
   </g>
   <g id="patch_17">
    <path d="M 805.855 32.274375 
L 1127.45375 32.274375 
" style="fill: none; stroke: #000000; stroke-width: 0.8; stroke-linejoin: miter; stroke-linecap: square"/>
   </g>
   <g id="text_54">
    <!-- Winner's curse: Pe_A_eff (solid) vs Pe_B_eff (dashed) -->
    <g transform="translate(835.00125 14.798437) scale(0.1 -0.1)">
     <defs>
      <path id="DejaVuSans-57" d="M 213 4666 
L 850 4666 
L 1831 722 
L 2809 4666 
L 3519 4666 
L 4500 722 
L 5478 4666 
L 6119 4666 
L 4947 0 
L 4153 0 
L 3169 4050 
L 2175 0 
L 1381 0 
L 213 4666 
z
" transform="scale(0.015625)"/>
      <path id="DejaVuSans-27" d="M 1147 4666 
L 1147 2931 
L 616 2931 
L 616 4666 
L 1147 4666 
z
" transform="scale(0.015625)"/>
      <path id="DejaVuSans-3a" d="M 750 794 
L 1409 794 
L 1409 0 
L 750 0 
L 750 794 
z
M 750 3309 
L 1409 3309 
L 1409 2516 
L 750 2516 
L 750 3309 
z
" transform="scale(0.015625)"/>
      <path id="DejaVuSans-42" d="M 1259 2228 
L 1259 519 
L 2272 519 
Q 2781 519 3026 730 
Q 3272 941 3272 1375 
Q 3272 1813 3026 2020 
Q 2781 2228 2272 2228 
L 1259 2228 
z
M 1259 4147 
L 1259 2741 
L 2194 2741 
Q 2656 2741 2882 2914 
Q 3109 3088 3109 3444 
Q 3109 3797 2882 3972 
Q 2656 4147 2194 4147 
L 1259 4147 
z
M 628 4666 
L 2241 4666 
Q 2963 4666 3353 4366 
Q 3744 4066 3744 3513 
Q 3744 3084 3544 2831 
Q 3344 2578 2956 2516 
Q 3422 2416 3680 2098 
Q 3938 1781 3938 1306 
Q 3938 681 3513 340 
Q 3088 0 2303 0 
L 628 0 
L 628 4666 
z
" transform="scale(0.015625)"/>
     </defs>
     <use xlink:href="#DejaVuSans-57"/>
     <use xlink:href="#DejaVuSans-69" transform="translate(96.626953 0)"/>
     <use xlink:href="#DejaVuSans-6e" transform="translate(124.410156 0)"/>
     <use xlink:href="#DejaVuSans-6e" transform="translate(187.789062 0)"/>
     <use xlink:href="#DejaVuSans-65" transform="translate(251.167969 0)"/>
     <use xlink:href="#DejaVuSans-72" transform="translate(312.691406 0)"/>
     <use xlink:href="#DejaVuSans-27" transform="translate(353.804688 0)"/>
     <use xlink:href="#DejaVuSans-73" transform="translate(381.294922 0)"/>
     <use xlink:href="#DejaVuSans-20" transform="translate(433.394531 0)"/>
     <use xlink:href="#DejaVuSans-63" transform="translate(465.181641 0)"/>
     <use xlink:href="#DejaVuSans-75" transform="translate(520.162109 0)"/>
     <use xlink:href="#DejaVuSans-72" transform="translate(583.541016 0)"/>
     <use xlink:href="#DejaVuSans-73" transform="translate(624.654297 0)"/>
     <use xlink:href="#DejaVuSans-65" transform="translate(676.753906 0)"/>
     <use xlink:href="#DejaVuSans-3a" transform="translate(738.277344 0)"/>
     <use xlink:href="#DejaVuSans-20" transform="translate(771.96875 0)"/>
     <use xlink:href="#DejaVuSans-50" transform="translate(803.755859 0)"/>
     <use xlink:href="#DejaVuSans-65" transform="translate(860.433594 0)"/>
     <use xlink:href="#DejaVuSans-5f" transform="translate(921.957031 0)"/>
     <use xlink:href="#DejaVuSans-41" transform="translate(971.957031 0)"/>
     <use xlink:href="#DejaVuSans-5f" transform="translate(1040.365234 0)"/>
     <use xlink:href="#DejaVuSans-65" transform="translate(1090.365234 0)"/>
     <use xlink:href="#DejaVuSans-66" transform="translate(1151.888672 0)"/>
     <use xlink:href="#DejaVuSans-66" transform="translate(1187.09375 0)"/>
     <use xlink:href="#DejaVuSans-20" transform="translate(1222.298828 0)"/>
     <use xlink:href="#DejaVuSans-28" transform="translate(1254.085938 0)"/>
     <use xlink:href="#DejaVuSans-73" transform="translate(1293.099609 0)"/>
     <use xlink:href="#DejaVuSans-6f" transform="translate(1345.199219 0)"/>
     <use xlink:href="#DejaVuSans-6c" transform="translate(1406.380859 0)"/>
     <use xlink:href="#DejaVuSans-69" transform="translate(1434.164062 0)"/>
     <use xlink:href="#DejaVuSans-64" transform="translate(1461.947266 0)"/>
     <use xlink:href="#DejaVuSans-29" transform="translate(1525.423828 0)"/>
     <use xlink:href="#DejaVuSans-20" transform="translate(1564.4375 0)"/>
     <use xlink:href="#DejaVuSans-76" transform="translate(1596.224609 0)"/>
     <use xlink:href="#DejaVuSans-73" transform="translate(1655.404297 0)"/>
     <use xlink:href="#DejaVuSans-20" transform="translate(1707.503906 0)"/>
     <use xlink:href="#DejaVuSans-50" transform="translate(1739.291016 0)"/>
     <use xlink:href="#DejaVuSans-65" transform="translate(1795.96875 0)"/>
     <use xlink:href="#DejaVuSans-5f" transform="translate(1857.492188 0)"/>
     <use xlink:href="#DejaVuSans-42" transform="translate(1907.492188 0)"/>
     <use xlink:href="#DejaVuSans-5f" transform="translate(1976.095703 0)"/>
     <use xlink:href="#DejaVuSans-65" transform="translate(2026.095703 0)"/>
     <use xlink:href="#DejaVuSans-66" transform="translate(2087.619141 0)"/>
     <use xlink:href="#DejaVuSans-66" transform="translate(2122.824219 0)"/>
     <use xlink:href="#DejaVuSans-20" transform="translate(2158.029297 0)"/>
     <use xlink:href="#DejaVuSans-28" transform="translate(2189.816406 0)"/>
     <use xlink:href="#DejaVuSans-64" transform="translate(2228.830078 0)"/>
     <use xlink:href="#DejaVuSans-61" transform="translate(2292.306641 0)"/>
     <use xlink:href="#DejaVuSans-73" transform="translate(2353.585938 0)"/>
     <use xlink:href="#DejaVuSans-68" transform="translate(2405.685547 0)"/>
     <use xlink:href="#DejaVuSans-65" transform="translate(2469.064453 0)"/>
     <use xlink:href="#DejaVuSans-64" transform="translate(2530.587891 0)"/>
     <use xlink:href="#DejaVuSans-29" transform="translate(2594.064453 0)"/>
    </g>
    <!-- High γ: winner's Pe collapses despite dominant share -->
    <g transform="translate(833.280156 26.274375) scale(0.1 -0.1)">
     <defs>
      <path id="DejaVuSans-48" d="M 628 4666 
L 1259 4666 
L 1259 2753 
L 3553 2753 
L 3553 4666 
L 4184 4666 
L 4184 0 
L 3553 0 
L 3553 2222 
L 1259 2222 
L 1259 0 
L 628 0 
L 628 4666 
z
" transform="scale(0.015625)"/>
     </defs>
     <use xlink:href="#DejaVuSans-48"/>
     <use xlink:href="#DejaVuSans-69" transform="translate(75.195312 0)"/>
     <use xlink:href="#DejaVuSans-67" transform="translate(102.978516 0)"/>
     <use xlink:href="#DejaVuSans-68" transform="translate(166.455078 0)"/>
     <use xlink:href="#DejaVuSans-20" transform="translate(229.833984 0)"/>
     <use xlink:href="#DejaVuSans-3b3" transform="translate(261.621094 0)"/>
     <use xlink:href="#DejaVuSans-3a" transform="translate(320.800781 0)"/>
     <use xlink:href="#DejaVuSans-20" transform="translate(354.492188 0)"/>
     <use xlink:href="#DejaVuSans-77" transform="translate(386.279297 0)"/>
     <use xlink:href="#DejaVuSans-69" transform="translate(468.066406 0)"/>
     <use xlink:href="#DejaVuSans-6e" transform="translate(495.849609 0)"/>
     <use xlink:href="#DejaVuSans-6e" transform="translate(559.228516 0)"/>
     <use xlink:href="#DejaVuSans-65" transform="translate(622.607422 0)"/>
     <use xlink:href="#DejaVuSans-72" transform="translate(684.130859 0)"/>
     <use xlink:href="#DejaVuSans-27" transform="translate(725.244141 0)"/>
     <use xlink:href="#DejaVuSans-73" transform="translate(752.734375 0)"/>
     <use xlink:href="#DejaVuSans-20" transform="translate(804.833984 0)"/>
     <use xlink:href="#DejaVuSans-50" transform="translate(836.621094 0)"/>
     <use xlink:href="#DejaVuSans-65" transform="translate(893.298828 0)"/>
     <use xlink:href="#DejaVuSans-20" transform="translate(954.822266 0)"/>
     <use xlink:href="#DejaVuSans-63" transform="translate(986.609375 0)"/>
     <use xlink:href="#DejaVuSans-6f" transform="translate(1041.589844 0)"/>
     <use xlink:href="#DejaVuSans-6c" transform="translate(1102.771484 0)"/>
     <use xlink:href="#DejaVuSans-6c" transform="translate(1130.554688 0)"/>
     <use xlink:href="#DejaVuSans-61" transform="translate(1158.337891 0)"/>
     <use xlink:href="#DejaVuSans-70" transform="translate(1219.617188 0)"/>
     <use xlink:href="#DejaVuSans-73" transform="translate(1283.09375 0)"/>
     <use xlink:href="#DejaVuSans-65" transform="translate(1335.193359 0)"/>
     <use xlink:href="#DejaVuSans-73" transform="translate(1396.716797 0)"/>
     <use xlink:href="#DejaVuSans-20" transform="translate(1448.816406 0)"/>
     <use xlink:href="#DejaVuSans-64" transform="translate(1480.603516 0)"/>
     <use xlink:href="#DejaVuSans-65" transform="translate(1544.080078 0)"/>
     <use xlink:href="#DejaVuSans-73" transform="translate(1605.603516 0)"/>
     <use xlink:href="#DejaVuSans-70" transform="translate(1657.703125 0)"/>
     <use xlink:href="#DejaVuSans-69" transform="translate(1721.179688 0)"/>
     <use xlink:href="#DejaVuSans-74" transform="translate(1748.962891 0)"/>
     <use xlink:href="#DejaVuSans-65" transform="translate(1788.171875 0)"/>
     <use xlink:href="#DejaVuSans-20" transform="translate(1849.695312 0)"/>
     <use xlink:href="#DejaVuSans-64" transform="translate(1881.482422 0)"/>
     <use xlink:href="#DejaVuSans-6f" transform="translate(1944.958984 0)"/>
     <use xlink:href="#DejaVuSans-6d" transform="translate(2006.140625 0)"/>
     <use xlink:href="#DejaVuSans-69" transform="translate(2103.552734 0)"/>
     <use xlink:href="#DejaVuSans-6e" transform="translate(2131.335938 0)"/>
     <use xlink:href="#DejaVuSans-61" transform="translate(2194.714844 0)"/>
     <use xlink:href="#DejaVuSans-6e" transform="translate(2255.994141 0)"/>
     <use xlink:href="#DejaVuSans-74" transform="translate(2319.373047 0)"/>
     <use xlink:href="#DejaVuSans-20" transform="translate(2358.582031 0)"/>
     <use xlink:href="#DejaVuSans-73" transform="translate(2390.369141 0)"/>
     <use xlink:href="#DejaVuSans-68" transform="translate(2442.46875 0)"/>
     <use xlink:href="#DejaVuSans-61" transform="translate(2505.847656 0)"/>
     <use xlink:href="#DejaVuSans-72" transform="translate(2567.126953 0)"/>
     <use xlink:href="#DejaVuSans-65" transform="translate(2605.990234 0)"/>
    </g>
   </g>
  </g>
 </g>
 <defs>
  <clipPath id="pe2897acfdf">
   <rect x="45.055" y="32.274375" width="321.59875" height="280.83475"/>
  </clipPath>
  <clipPath id="pf3a55fbe49">
   <rect x="425.455" y="32.274375" width="321.59875" height="280.83475"/>
  </clipPath>
  <clipPath id="p9e1fbf734b">
   <rect x="805.855" y="32.274375" width="321.59875" height="280.83475"/>
  </clipPath>
 </defs>
</svg>
