<?xml version="1.0" encoding="utf-8" standalone="no"?>
<!DOCTYPE svg PUBLIC "-//W3C//DTD SVG 1.1//EN"
  "http://www.w3.org/Graphics/SVG/1.1/DTD/svg11.dtd">
<svg xmlns:xlink="http://www.w3.org/1999/xlink" width="856.749687pt" height="333.453125pt" viewBox="0 0 856.749687 333.453125" xmlns="http://www.w3.org/2000/svg" version="1.1">
 <metadata>
  <rdf:RDF xmlns:dc="http://purl.org/dc/elements/1.1/" xmlns:cc="http://creativecommons.org/ns#" xmlns:rdf="http://www.w3.org/1999/02/22-rdf-syntax-ns#">
   <cc:Work>
    <dc:type rdf:resource="http://purl.org/dc/dcmitype/StillImage"/>
    <dc:date>2026-02-22T23:10:02.892871</dc:date>
    <dc:format>image/svg+xml</dc:format>
    <dc:creator>
     <cc:Agent>
      <dc:title>Matplotlib v3.10.8, https://matplotlib.org/</dc:title>
     </cc:Agent>
    </dc:creator>
   </cc:Work>
  </rdf:RDF>
 </metadata>
 <defs>
  <style type="text/css">*{stroke-linejoin: round; stroke-linecap: butt}</style>
 </defs>
 <g id="figure_1">
  <g id="patch_1">
   <path d="M 0 333.453125 
L 856.749687 333.453125 
L 856.749687 0 
L 0 0 
z
" style="fill: #0a0a0f"/>
  </g>
  <g id="axes_1">
   <g id="patch_2">
    <path d="M 56.784375 295.61875 
L 415.043125 295.61875 
L 415.043125 64.32 
L 56.784375 64.32 
z
" style="fill: #111118"/>
   </g>
   <g id="matplotlib.axis_1">
    <g id="xtick_1">
     <g id="line2d_1">
      <defs>
       <path id="me14b83722f" d="M 0 0 
L 0 3.5 
" style="stroke: #6b7280; stroke-width: 0.8"/>
      </defs>
      <g>
       <use xlink:href="#me14b83722f" x="116.494167" y="295.61875" style="fill: #6b7280; stroke: #6b7280; stroke-width: 0.8"/>
      </g>
     </g>
     <g id="text_1">
      <!-- 0.5 -->
      <g style="fill: #6b7280" transform="translate(108.542604 310.217187) scale(0.1 -0.1)">
       <defs>
        <path id="DejaVuSans-30" d="M 2034 4250 
Q 1547 4250 1301 3770 
Q 1056 3291 1056 2328 
Q 1056 1369 1301 889 
Q 1547 409 2034 409 
Q 2525 409 2770 889 
Q 3016 1369 3016 2328 
Q 3016 3291 2770 3770 
Q 2525 4250 2034 4250 
z
M 2034 4750 
Q 2819 4750 3233 4129 
Q 3647 3509 3647 2328 
Q 3647 1150 3233 529 
Q 2819 -91 2034 -91 
Q 1250 -91 836 529 
Q 422 1150 422 2328 
Q 422 3509 836 4129 
Q 1250 4750 2034 4750 
z
" transform="scale(0.015625)"/>
        <path id="DejaVuSans-2e" d="M 684 794 
L 1344 794 
L 1344 0 
L 684 0 
L 684 794 
z
" transform="scale(0.015625)"/>
        <path id="DejaVuSans-35" d="M 691 4666 
L 3169 4666 
L 3169 4134 
L 1269 4134 
L 1269 2991 
Q 1406 3038 1543 3061 
Q 1681 3084 1819 3084 
Q 2600 3084 3056 2656 
Q 3513 2228 3513 1497 
Q 3513 744 3044 326 
Q 2575 -91 1722 -91 
Q 1428 -91 1123 -41 
Q 819 9 494 109 
L 494 744 
Q 775 591 1075 516 
Q 1375 441 1709 441 
Q 2250 441 2565 725 
Q 2881 1009 2881 1497 
Q 2881 1984 2565 2268 
Q 2250 2553 1709 2553 
Q 1456 2553 1204 2497 
Q 953 2441 691 2322 
L 691 4666 
z
" transform="scale(0.015625)"/>
       </defs>
       <use xlink:href="#DejaVuSans-30"/>
       <use xlink:href="#DejaVuSans-2e" transform="translate(63.623047 0)"/>
       <use xlink:href="#DejaVuSans-35" transform="translate(95.410156 0)"/>
      </g>
     </g>
    </g>
    <g id="xtick_2">
     <g id="line2d_2">
      <g>
       <use xlink:href="#me14b83722f" x="191.131406" y="295.61875" style="fill: #6b7280; stroke: #6b7280; stroke-width: 0.8"/>
      </g>
     </g>
     <g id="text_2">
      <!-- 1.0 -->
      <g style="fill: #6b7280" transform="translate(183.179844 310.217187) scale(0.1 -0.1)">
       <defs>
        <path id="DejaVuSans-31" d="M 794 531 
L 1825 531 
L 1825 4091 
L 703 3866 
L 703 4441 
L 1819 4666 
L 2450 4666 
L 2450 531 
L 3481 531 
L 3481 0 
L 794 0 
L 794 531 
z
" transform="scale(0.015625)"/>
       </defs>
       <use xlink:href="#DejaVuSans-31"/>
       <use xlink:href="#DejaVuSans-2e" transform="translate(63.623047 0)"/>
       <use xlink:href="#DejaVuSans-30" transform="translate(95.410156 0)"/>
      </g>
     </g>
    </g>
    <g id="xtick_3">
     <g id="line2d_3">
      <g>
       <use xlink:href="#me14b83722f" x="265.768646" y="295.61875" style="fill: #6b7280; stroke: #6b7280; stroke-width: 0.8"/>
      </g>
     </g>
     <g id="text_3">
      <!-- 1.5 -->
      <g style="fill: #6b7280" transform="translate(257.817083 310.217187) scale(0.1 -0.1)">
       <use xlink:href="#DejaVuSans-31"/>
       <use xlink:href="#DejaVuSans-2e" transform="translate(63.623047 0)"/>
       <use xlink:href="#DejaVuSans-35" transform="translate(95.410156 0)"/>
      </g>
     </g>
    </g>
    <g id="xtick_4">
     <g id="line2d_4">
      <g>
       <use xlink:href="#me14b83722f" x="340.405885" y="295.61875" style="fill: #6b7280; stroke: #6b7280; stroke-width: 0.8"/>
      </g>
     </g>
     <g id="text_4">
      <!-- 2.0 -->
      <g style="fill: #6b7280" transform="translate(332.454323 310.217187) scale(0.1 -0.1)">
       <defs>
        <path id="DejaVuSans-32" d="M 1228 531 
L 3431 531 
L 3431 0 
L 469 0 
L 469 531 
Q 828 903 1448 1529 
Q 2069 2156 2228 2338 
Q 2531 2678 2651 2914 
Q 2772 3150 2772 3378 
Q 2772 3750 2511 3984 
Q 2250 4219 1831 4219 
Q 1534 4219 1204 4116 
Q 875 4013 500 3803 
L 500 4441 
Q 881 4594 1212 4672 
Q 1544 4750 1819 4750 
Q 2544 4750 2975 4387 
Q 3406 4025 3406 3419 
Q 3406 3131 3298 2873 
Q 3191 2616 2906 2266 
Q 2828 2175 2409 1742 
Q 1991 1309 1228 531 
z
" transform="scale(0.015625)"/>
       </defs>
       <use xlink:href="#DejaVuSans-32"/>
       <use xlink:href="#DejaVuSans-2e" transform="translate(63.623047 0)"/>
       <use xlink:href="#DejaVuSans-30" transform="translate(95.410156 0)"/>
      </g>
     </g>
    </g>
    <g id="xtick_5">
     <g id="line2d_5">
      <g>
       <use xlink:href="#me14b83722f" x="415.043125" y="295.61875" style="fill: #6b7280; stroke: #6b7280; stroke-width: 0.8"/>
      </g>
     </g>
     <g id="text_5">
      <!-- 2.5 -->
      <g style="fill: #6b7280" transform="translate(407.091563 310.217187) scale(0.1 -0.1)">
       <use xlink:href="#DejaVuSans-32"/>
       <use xlink:href="#DejaVuSans-2e" transform="translate(63.623047 0)"/>
       <use xlink:href="#DejaVuSans-35" transform="translate(95.410156 0)"/>
      </g>
     </g>
    </g>
    <g id="text_6">
     <!-- w_O (opacity weight) -->
     <g style="fill: #9ca3af" transform="translate(183.095781 323.895312) scale(0.1 -0.1)">
      <defs>
       <path id="DejaVuSans-77" d="M 269 3500 
L 844 3500 
L 1563 769 
L 2278 3500 
L 2956 3500 
L 3675 769 
L 4391 3500 
L 4966 3500 
L 4050 0 
L 3372 0 
L 2619 2869 
L 1863 0 
L 1184 0 
L 269 3500 
z
" transform="scale(0.015625)"/>
       <path id="DejaVuSans-5f" d="M 3263 -1063 
L 3263 -1509 
L -63 -1509 
L -63 -1063 
L 3263 -1063 
z
" transform="scale(0.015625)"/>
       <path id="DejaVuSans-4f" d="M 2522 4238 
Q 1834 4238 1429 3725 
Q 1025 3213 1025 2328 
Q 1025 1447 1429 934 
Q 1834 422 2522 422 
Q 3209 422 3611 934 
Q 4013 1447 4013 2328 
Q 4013 3213 3611 3725 
Q 3209 4238 2522 4238 
z
M 2522 4750 
Q 3503 4750 4090 4092 
Q 4678 3434 4678 2328 
Q 4678 1225 4090 567 
Q 3503 -91 2522 -91 
Q 1538 -91 948 565 
Q 359 1222 359 2328 
Q 359 3434 948 4092 
Q 1538 4750 2522 4750 
z
" transform="scale(0.015625)"/>
       <path id="DejaVuSans-20" transform="scale(0.015625)"/>
       <path id="DejaVuSans-28" d="M 1984 4856 
Q 1566 4138 1362 3434 
Q 1159 2731 1159 2009 
Q 1159 1288 1364 580 
Q 1569 -128 1984 -844 
L 1484 -844 
Q 1016 -109 783 600 
Q 550 1309 550 2009 
Q 550 2706 781 3412 
Q 1013 4119 1484 4856 
L 1984 4856 
z
" transform="scale(0.015625)"/>
       <path id="DejaVuSans-6f" d="M 1959 3097 
Q 1497 3097 1228 2736 
Q 959 2375 959 1747 
Q 959 1119 1226 758 
Q 1494 397 1959 397 
Q 2419 397 2687 759 
Q 2956 1122 2956 1747 
Q 2956 2369 2687 2733 
Q 2419 3097 1959 3097 
z
M 1959 3584 
Q 2709 3584 3137 3096 
Q 3566 2609 3566 1747 
Q 3566 888 3137 398 
Q 2709 -91 1959 -91 
Q 1206 -91 779 398 
Q 353 888 353 1747 
Q 353 2609 779 3096 
Q 1206 3584 1959 3584 
z
" transform="scale(0.015625)"/>
       <path id="DejaVuSans-70" d="M 1159 525 
L 1159 -1331 
L 581 -1331 
L 581 3500 
L 1159 3500 
L 1159 2969 
Q 1341 3281 1617 3432 
Q 1894 3584 2278 3584 
Q 2916 3584 3314 3078 
Q 3713 2572 3713 1747 
Q 3713 922 3314 415 
Q 2916 -91 2278 -91 
Q 1894 -91 1617 61 
Q 1341 213 1159 525 
z
M 3116 1747 
Q 3116 2381 2855 2742 
Q 2594 3103 2138 3103 
Q 1681 3103 1420 2742 
Q 1159 2381 1159 1747 
Q 1159 1113 1420 752 
Q 1681 391 2138 391 
Q 2594 391 2855 752 
Q 3116 1113 3116 1747 
z
" transform="scale(0.015625)"/>
       <path id="DejaVuSans-61" d="M 2194 1759 
Q 1497 1759 1228 1600 
Q 959 1441 959 1056 
Q 959 750 1161 570 
Q 1363 391 1709 391 
Q 2188 391 2477 730 
Q 2766 1069 2766 1631 
L 2766 1759 
L 2194 1759 
z
M 3341 1997 
L 3341 0 
L 2766 0 
L 2766 531 
Q 2569 213 2275 61 
Q 1981 -91 1556 -91 
Q 1019 -91 701 211 
Q 384 513 384 1019 
Q 384 1609 779 1909 
Q 1175 2209 1959 2209 
L 2766 2209 
L 2766 2266 
Q 2766 2663 2505 2880 
Q 2244 3097 1772 3097 
Q 1472 3097 1187 3025 
Q 903 2953 641 2809 
L 641 3341 
Q 956 3463 1253 3523 
Q 1550 3584 1831 3584 
Q 2591 3584 2966 3190 
Q 3341 2797 3341 1997 
z
" transform="scale(0.015625)"/>
       <path id="DejaVuSans-63" d="M 3122 3366 
L 3122 2828 
Q 2878 2963 2633 3030 
Q 2388 3097 2138 3097 
Q 1578 3097 1268 2742 
Q 959 2388 959 1747 
Q 959 1106 1268 751 
Q 1578 397 2138 397 
Q 2388 397 2633 464 
Q 2878 531 3122 666 
L 3122 134 
Q 2881 22 2623 -34 
Q 2366 -91 2075 -91 
Q 1284 -91 818 406 
Q 353 903 353 1747 
Q 353 2603 823 3093 
Q 1294 3584 2113 3584 
Q 2378 3584 2631 3529 
Q 2884 3475 3122 3366 
z
" transform="scale(0.015625)"/>
       <path id="DejaVuSans-69" d="M 603 3500 
L 1178 3500 
L 1178 0 
L 603 0 
L 603 3500 
z
M 603 4863 
L 1178 4863 
L 1178 4134 
L 603 4134 
L 603 4863 
z
" transform="scale(0.015625)"/>
       <path id="DejaVuSans-74" d="M 1172 4494 
L 1172 3500 
L 2356 3500 
L 2356 3053 
L 1172 3053 
L 1172 1153 
Q 1172 725 1289 603 
Q 1406 481 1766 481 
L 2356 481 
L 2356 0 
L 1766 0 
Q 1100 0 847 248 
Q 594 497 594 1153 
L 594 3053 
L 172 3053 
L 172 3500 
L 594 3500 
L 594 4494 
L 1172 4494 
z
" transform="scale(0.015625)"/>
       <path id="DejaVuSans-79" d="M 2059 -325 
Q 1816 -950 1584 -1140 
Q 1353 -1331 966 -1331 
L 506 -1331 
L 506 -850 
L 844 -850 
Q 1081 -850 1212 -737 
Q 1344 -625 1503 -206 
L 1606 56 
L 191 3500 
L 800 3500 
L 1894 763 
L 2988 3500 
L 3597 3500 
L 2059 -325 
z
" transform="scale(0.015625)"/>
       <path id="DejaVuSans-65" d="M 3597 1894 
L 3597 1613 
L 953 1613 
Q 991 1019 1311 708 
Q 1631 397 2203 397 
Q 2534 397 2845 478 
Q 3156 559 3463 722 
L 3463 178 
Q 3153 47 2828 -22 
Q 2503 -91 2169 -91 
Q 1331 -91 842 396 
Q 353 884 353 1716 
Q 353 2575 817 3079 
Q 1281 3584 2069 3584 
Q 2775 3584 3186 3129 
Q 3597 2675 3597 1894 
z
M 3022 2063 
Q 3016 2534 2758 2815 
Q 2500 3097 2075 3097 
Q 1594 3097 1305 2825 
Q 1016 2553 972 2059 
L 3022 2063 
z
" transform="scale(0.015625)"/>
       <path id="DejaVuSans-67" d="M 2906 1791 
Q 2906 2416 2648 2759 
Q 2391 3103 1925 3103 
Q 1463 3103 1205 2759 
Q 947 2416 947 1791 
Q 947 1169 1205 825 
Q 1463 481 1925 481 
Q 2391 481 2648 825 
Q 2906 1169 2906 1791 
z
M 3481 434 
Q 3481 -459 3084 -895 
Q 2688 -1331 1869 -1331 
Q 1566 -1331 1297 -1286 
Q 1028 -1241 775 -1147 
L 775 -588 
Q 1028 -725 1275 -790 
Q 1522 -856 1778 -856 
Q 2344 -856 2625 -561 
Q 2906 -266 2906 331 
L 2906 616 
Q 2728 306 2450 153 
Q 2172 0 1784 0 
Q 1141 0 747 490 
Q 353 981 353 1791 
Q 353 2603 747 3093 
Q 1141 3584 1784 3584 
Q 2172 3584 2450 3431 
Q 2728 3278 2906 2969 
L 2906 3500 
L 3481 3500 
L 3481 434 
z
" transform="scale(0.015625)"/>
       <path id="DejaVuSans-68" d="M 3513 2113 
L 3513 0 
L 2938 0 
L 2938 2094 
Q 2938 2591 2744 2837 
Q 2550 3084 2163 3084 
Q 1697 3084 1428 2787 
Q 1159 2491 1159 1978 
L 1159 0 
L 581 0 
L 581 4863 
L 1159 4863 
L 1159 2956 
Q 1366 3272 1645 3428 
Q 1925 3584 2291 3584 
Q 2894 3584 3203 3211 
Q 3513 2838 3513 2113 
z
" transform="scale(0.015625)"/>
       <path id="DejaVuSans-29" d="M 513 4856 
L 1013 4856 
Q 1481 4119 1714 3412 
Q 1947 2706 1947 2009 
Q 1947 1309 1714 600 
Q 1481 -109 1013 -844 
L 513 -844 
Q 928 -128 1133 580 
Q 1338 1288 1338 2009 
Q 1338 2731 1133 3434 
Q 928 4138 513 4856 
z
" transform="scale(0.015625)"/>
      </defs>
      <use xlink:href="#DejaVuSans-77"/>
      <use xlink:href="#DejaVuSans-5f" transform="translate(81.787109 0)"/>
      <use xlink:href="#DejaVuSans-4f" transform="translate(131.787109 0)"/>
      <use xlink:href="#DejaVuSans-20" transform="translate(210.498047 0)"/>
      <use xlink:href="#DejaVuSans-28" transform="translate(242.285156 0)"/>
      <use xlink:href="#DejaVuSans-6f" transform="translate(281.298828 0)"/>
      <use xlink:href="#DejaVuSans-70" transform="translate(342.480469 0)"/>
      <use xlink:href="#DejaVuSans-61" transform="translate(405.957031 0)"/>
      <use xlink:href="#DejaVuSans-63" transform="translate(467.236328 0)"/>
      <use xlink:href="#DejaVuSans-69" transform="translate(522.216797 0)"/>
      <use xlink:href="#DejaVuSans-74" transform="translate(550 0)"/>
      <use xlink:href="#DejaVuSans-79" transform="translate(589.208984 0)"/>
      <use xlink:href="#DejaVuSans-20" transform="translate(648.388672 0)"/>
      <use xlink:href="#DejaVuSans-77" transform="translate(680.175781 0)"/>
      <use xlink:href="#DejaVuSans-65" transform="translate(761.962891 0)"/>
      <use xlink:href="#DejaVuSans-69" transform="translate(823.486328 0)"/>
      <use xlink:href="#DejaVuSans-67" transform="translate(851.269531 0)"/>
      <use xlink:href="#DejaVuSans-68" transform="translate(914.746094 0)"/>
      <use xlink:href="#DejaVuSans-74" transform="translate(978.125 0)"/>
      <use xlink:href="#DejaVuSans-29" transform="translate(1017.333984 0)"/>
     </g>
    </g>
   </g>
   <g id="matplotlib.axis_2">
    <g id="ytick_1">
     <g id="line2d_6">
      <defs>
       <path id="m5cff4d91b4" d="M 0 0 
L -3.5 0 
" style="stroke: #6b7280; stroke-width: 0.8"/>
      </defs>
      <g>
       <use xlink:href="#m5cff4d91b4" x="56.784375" y="275.06444" style="fill: #6b7280; stroke: #6b7280; stroke-width: 0.8"/>
      </g>
     </g>
     <g id="text_7">
      <!-- 0.880 -->
      <g style="fill: #6b7280" transform="translate(21.15625 278.863659) scale(0.1 -0.1)">
       <defs>
        <path id="DejaVuSans-38" d="M 2034 2216 
Q 1584 2216 1326 1975 
Q 1069 1734 1069 1313 
Q 1069 891 1326 650 
Q 1584 409 2034 409 
Q 2484 409 2743 651 
Q 3003 894 3003 1313 
Q 3003 1734 2745 1975 
Q 2488 2216 2034 2216 
z
M 1403 2484 
Q 997 2584 770 2862 
Q 544 3141 544 3541 
Q 544 4100 942 4425 
Q 1341 4750 2034 4750 
Q 2731 4750 3128 4425 
Q 3525 4100 3525 3541 
Q 3525 3141 3298 2862 
Q 3072 2584 2669 2484 
Q 3125 2378 3379 2068 
Q 3634 1759 3634 1313 
Q 3634 634 3220 271 
Q 2806 -91 2034 -91 
Q 1263 -91 848 271 
Q 434 634 434 1313 
Q 434 1759 690 2068 
Q 947 2378 1403 2484 
z
M 1172 3481 
Q 1172 3119 1398 2916 
Q 1625 2713 2034 2713 
Q 2441 2713 2670 2916 
Q 2900 3119 2900 3481 
Q 2900 3844 2670 4047 
Q 2441 4250 2034 4250 
Q 1625 4250 1398 4047 
Q 1172 3844 1172 3481 
z
" transform="scale(0.015625)"/>
       </defs>
       <use xlink:href="#DejaVuSans-30"/>
       <use xlink:href="#DejaVuSans-2e" transform="translate(63.623047 0)"/>
       <use xlink:href="#DejaVuSans-38" transform="translate(95.410156 0)"/>
       <use xlink:href="#DejaVuSans-38" transform="translate(159.033203 0)"/>
       <use xlink:href="#DejaVuSans-30" transform="translate(222.65625 0)"/>
      </g>
     </g>
    </g>
    <g id="ytick_2">
     <g id="line2d_7">
      <g>
       <use xlink:href="#m5cff4d91b4" x="56.784375" y="244.669911" style="fill: #6b7280; stroke: #6b7280; stroke-width: 0.8"/>
      </g>
     </g>
     <g id="text_8">
      <!-- 0.885 -->
      <g style="fill: #6b7280" transform="translate(21.15625 248.46913) scale(0.1 -0.1)">
       <use xlink:href="#DejaVuSans-30"/>
       <use xlink:href="#DejaVuSans-2e" transform="translate(63.623047 0)"/>
       <use xlink:href="#DejaVuSans-38" transform="translate(95.410156 0)"/>
       <use xlink:href="#DejaVuSans-38" transform="translate(159.033203 0)"/>
       <use xlink:href="#DejaVuSans-35" transform="translate(222.65625 0)"/>
      </g>
     </g>
    </g>
    <g id="ytick_3">
     <g id="line2d_8">
      <g>
       <use xlink:href="#m5cff4d91b4" x="56.784375" y="214.275381" style="fill: #6b7280; stroke: #6b7280; stroke-width: 0.8"/>
      </g>
     </g>
     <g id="text_9">
      <!-- 0.890 -->
      <g style="fill: #6b7280" transform="translate(21.15625 218.0746) scale(0.1 -0.1)">
       <defs>
        <path id="DejaVuSans-39" d="M 703 97 
L 703 672 
Q 941 559 1184 500 
Q 1428 441 1663 441 
Q 2288 441 2617 861 
Q 2947 1281 2994 2138 
Q 2813 1869 2534 1725 
Q 2256 1581 1919 1581 
Q 1219 1581 811 2004 
Q 403 2428 403 3163 
Q 403 3881 828 4315 
Q 1253 4750 1959 4750 
Q 2769 4750 3195 4129 
Q 3622 3509 3622 2328 
Q 3622 1225 3098 567 
Q 2575 -91 1691 -91 
Q 1453 -91 1209 -44 
Q 966 3 703 97 
z
M 1959 2075 
Q 2384 2075 2632 2365 
Q 2881 2656 2881 3163 
Q 2881 3666 2632 3958 
Q 2384 4250 1959 4250 
Q 1534 4250 1286 3958 
Q 1038 3666 1038 3163 
Q 1038 2656 1286 2365 
Q 1534 2075 1959 2075 
z
" transform="scale(0.015625)"/>
       </defs>
       <use xlink:href="#DejaVuSans-30"/>
       <use xlink:href="#DejaVuSans-2e" transform="translate(63.623047 0)"/>
       <use xlink:href="#DejaVuSans-38" transform="translate(95.410156 0)"/>
       <use xlink:href="#DejaVuSans-39" transform="translate(159.033203 0)"/>
       <use xlink:href="#DejaVuSans-30" transform="translate(222.65625 0)"/>
      </g>
     </g>
    </g>
    <g id="ytick_4">
     <g id="line2d_9">
      <g>
       <use xlink:href="#m5cff4d91b4" x="56.784375" y="183.880852" style="fill: #6b7280; stroke: #6b7280; stroke-width: 0.8"/>
      </g>
     </g>
     <g id="text_10">
      <!-- 0.895 -->
      <g style="fill: #6b7280" transform="translate(21.15625 187.680071) scale(0.1 -0.1)">
       <use xlink:href="#DejaVuSans-30"/>
       <use xlink:href="#DejaVuSans-2e" transform="translate(63.623047 0)"/>
       <use xlink:href="#DejaVuSans-38" transform="translate(95.410156 0)"/>
       <use xlink:href="#DejaVuSans-39" transform="translate(159.033203 0)"/>
       <use xlink:href="#DejaVuSans-35" transform="translate(222.65625 0)"/>
      </g>
     </g>
    </g>
    <g id="ytick_5">
     <g id="line2d_10">
      <g>
       <use xlink:href="#m5cff4d91b4" x="56.784375" y="153.486322" style="fill: #6b7280; stroke: #6b7280; stroke-width: 0.8"/>
      </g>
     </g>
     <g id="text_11">
      <!-- 0.900 -->
      <g style="fill: #6b7280" transform="translate(21.15625 157.285541) scale(0.1 -0.1)">
       <use xlink:href="#DejaVuSans-30"/>
       <use xlink:href="#DejaVuSans-2e" transform="translate(63.623047 0)"/>
       <use xlink:href="#DejaVuSans-39" transform="translate(95.410156 0)"/>
       <use xlink:href="#DejaVuSans-30" transform="translate(159.033203 0)"/>
       <use xlink:href="#DejaVuSans-30" transform="translate(222.65625 0)"/>
      </g>
     </g>
    </g>
    <g id="ytick_6">
     <g id="line2d_11">
      <g>
       <use xlink:href="#m5cff4d91b4" x="56.784375" y="123.091793" style="fill: #6b7280; stroke: #6b7280; stroke-width: 0.8"/>
      </g>
     </g>
     <g id="text_12">
      <!-- 0.905 -->
      <g style="fill: #6b7280" transform="translate(21.15625 126.891011) scale(0.1 -0.1)">
       <use xlink:href="#DejaVuSans-30"/>
       <use xlink:href="#DejaVuSans-2e" transform="translate(63.623047 0)"/>
       <use xlink:href="#DejaVuSans-39" transform="translate(95.410156 0)"/>
       <use xlink:href="#DejaVuSans-30" transform="translate(159.033203 0)"/>
       <use xlink:href="#DejaVuSans-35" transform="translate(222.65625 0)"/>
      </g>
     </g>
    </g>
    <g id="ytick_7">
     <g id="line2d_12">
      <g>
       <use xlink:href="#m5cff4d91b4" x="56.784375" y="92.697263" style="fill: #6b7280; stroke: #6b7280; stroke-width: 0.8"/>
      </g>
     </g>
     <g id="text_13">
      <!-- 0.910 -->
      <g style="fill: #6b7280" transform="translate(21.15625 96.496482) scale(0.1 -0.1)">
       <use xlink:href="#DejaVuSans-30"/>
       <use xlink:href="#DejaVuSans-2e" transform="translate(63.623047 0)"/>
       <use xlink:href="#DejaVuSans-39" transform="translate(95.410156 0)"/>
       <use xlink:href="#DejaVuSans-31" transform="translate(159.033203 0)"/>
       <use xlink:href="#DejaVuSans-30" transform="translate(222.65625 0)"/>
      </g>
     </g>
    </g>
    <g id="text_14">
     <!-- Spearman(c_pred, c_true) -->
     <g style="fill: #9ca3af" transform="translate(14.798438 244.736562) rotate(-90) scale(0.1 -0.1)">
      <defs>
       <path id="DejaVuSans-53" d="M 3425 4513 
L 3425 3897 
Q 3066 4069 2747 4153 
Q 2428 4238 2131 4238 
Q 1616 4238 1336 4038 
Q 1056 3838 1056 3469 
Q 1056 3159 1242 3001 
Q 1428 2844 1947 2747 
L 2328 2669 
Q 3034 2534 3370 2195 
Q 3706 1856 3706 1288 
Q 3706 609 3251 259 
Q 2797 -91 1919 -91 
Q 1588 -91 1214 -16 
Q 841 59 441 206 
L 441 856 
Q 825 641 1194 531 
Q 1563 422 1919 422 
Q 2459 422 2753 634 
Q 3047 847 3047 1241 
Q 3047 1584 2836 1778 
Q 2625 1972 2144 2069 
L 1759 2144 
Q 1053 2284 737 2584 
Q 422 2884 422 3419 
Q 422 4038 858 4394 
Q 1294 4750 2059 4750 
Q 2388 4750 2728 4690 
Q 3069 4631 3425 4513 
z
" transform="scale(0.015625)"/>
       <path id="DejaVuSans-72" d="M 2631 2963 
Q 2534 3019 2420 3045 
Q 2306 3072 2169 3072 
Q 1681 3072 1420 2755 
Q 1159 2438 1159 1844 
L 1159 0 
L 581 0 
L 581 3500 
L 1159 3500 
L 1159 2956 
Q 1341 3275 1631 3429 
Q 1922 3584 2338 3584 
Q 2397 3584 2469 3576 
Q 2541 3569 2628 3553 
L 2631 2963 
z
" transform="scale(0.015625)"/>
       <path id="DejaVuSans-6d" d="M 3328 2828 
Q 3544 3216 3844 3400 
Q 4144 3584 4550 3584 
Q 5097 3584 5394 3201 
Q 5691 2819 5691 2113 
L 5691 0 
L 5113 0 
L 5113 2094 
Q 5113 2597 4934 2840 
Q 4756 3084 4391 3084 
Q 3944 3084 3684 2787 
Q 3425 2491 3425 1978 
L 3425 0 
L 2847 0 
L 2847 2094 
Q 2847 2600 2669 2842 
Q 2491 3084 2119 3084 
Q 1678 3084 1418 2786 
Q 1159 2488 1159 1978 
L 1159 0 
L 581 0 
L 581 3500 
L 1159 3500 
L 1159 2956 
Q 1356 3278 1631 3431 
Q 1906 3584 2284 3584 
Q 2666 3584 2933 3390 
Q 3200 3197 3328 2828 
z
" transform="scale(0.015625)"/>
       <path id="DejaVuSans-6e" d="M 3513 2113 
L 3513 0 
L 2938 0 
L 2938 2094 
Q 2938 2591 2744 2837 
Q 2550 3084 2163 3084 
Q 1697 3084 1428 2787 
Q 1159 2491 1159 1978 
L 1159 0 
L 581 0 
L 581 3500 
L 1159 3500 
L 1159 2956 
Q 1366 3272 1645 3428 
Q 1925 3584 2291 3584 
Q 2894 3584 3203 3211 
Q 3513 2838 3513 2113 
z
" transform="scale(0.015625)"/>
       <path id="DejaVuSans-64" d="M 2906 2969 
L 2906 4863 
L 3481 4863 
L 3481 0 
L 2906 0 
L 2906 525 
Q 2725 213 2448 61 
Q 2172 -91 1784 -91 
Q 1150 -91 751 415 
Q 353 922 353 1747 
Q 353 2572 751 3078 
Q 1150 3584 1784 3584 
Q 2172 3584 2448 3432 
Q 2725 3281 2906 2969 
z
M 947 1747 
Q 947 1113 1208 752 
Q 1469 391 1925 391 
Q 2381 391 2643 752 
Q 2906 1113 2906 1747 
Q 2906 2381 2643 2742 
Q 2381 3103 1925 3103 
Q 1469 3103 1208 2742 
Q 947 2381 947 1747 
z
" transform="scale(0.015625)"/>
       <path id="DejaVuSans-2c" d="M 750 794 
L 1409 794 
L 1409 256 
L 897 -744 
L 494 -744 
L 750 256 
L 750 794 
z
" transform="scale(0.015625)"/>
       <path id="DejaVuSans-75" d="M 544 1381 
L 544 3500 
L 1119 3500 
L 1119 1403 
Q 1119 906 1312 657 
Q 1506 409 1894 409 
Q 2359 409 2629 706 
Q 2900 1003 2900 1516 
L 2900 3500 
L 3475 3500 
L 3475 0 
L 2900 0 
L 2900 538 
Q 2691 219 2414 64 
Q 2138 -91 1772 -91 
Q 1169 -91 856 284 
Q 544 659 544 1381 
z
M 1991 3584 
L 1991 3584 
z
" transform="scale(0.015625)"/>
      </defs>
      <use xlink:href="#DejaVuSans-53"/>
      <use xlink:href="#DejaVuSans-70" transform="translate(63.476562 0)"/>
      <use xlink:href="#DejaVuSans-65" transform="translate(126.953125 0)"/>
      <use xlink:href="#DejaVuSans-61" transform="translate(188.476562 0)"/>
      <use xlink:href="#DejaVuSans-72" transform="translate(249.755859 0)"/>
      <use xlink:href="#DejaVuSans-6d" transform="translate(289.119141 0)"/>
      <use xlink:href="#DejaVuSans-61" transform="translate(386.53125 0)"/>
      <use xlink:href="#DejaVuSans-6e" transform="translate(447.810547 0)"/>
      <use xlink:href="#DejaVuSans-28" transform="translate(511.189453 0)"/>
      <use xlink:href="#DejaVuSans-63" transform="translate(550.203125 0)"/>
      <use xlink:href="#DejaVuSans-5f" transform="translate(605.183594 0)"/>
      <use xlink:href="#DejaVuSans-70" transform="translate(655.183594 0)"/>
      <use xlink:href="#DejaVuSans-72" transform="translate(718.660156 0)"/>
      <use xlink:href="#DejaVuSans-65" transform="translate(757.523438 0)"/>
      <use xlink:href="#DejaVuSans-64" transform="translate(819.046875 0)"/>
      <use xlink:href="#DejaVuSans-2c" transform="translate(882.523438 0)"/>
      <use xlink:href="#DejaVuSans-20" transform="translate(914.310547 0)"/>
      <use xlink:href="#DejaVuSans-63" transform="translate(946.097656 0)"/>
      <use xlink:href="#DejaVuSans-5f" transform="translate(1001.078125 0)"/>
      <use xlink:href="#DejaVuSans-74" transform="translate(1051.078125 0)"/>
      <use xlink:href="#DejaVuSans-72" transform="translate(1090.287109 0)"/>
      <use xlink:href="#DejaVuSans-75" transform="translate(1131.400391 0)"/>
      <use xlink:href="#DejaVuSans-65" transform="translate(1194.779297 0)"/>
      <use xlink:href="#DejaVuSans-29" transform="translate(1256.302734 0)"/>
     </g>
    </g>
   </g>
   <g id="line2d_13">
    <path d="M 56.784375 285.10517 
L 60.40315 285.10517 
L 64.021926 285.10517 
L 67.640701 285.10517 
L 71.259476 285.10517 
L 74.878251 285.10517 
L 78.497027 285.10517 
L 82.115802 285.10517 
L 85.734577 285.10517 
L 89.353352 285.10517 
L 92.972128 285.10517 
L 96.590903 285.10517 
L 100.209678 285.10517 
L 103.828453 285.10517 
L 107.447229 285.10517 
L 111.066004 285.10517 
L 114.684779 285.10517 
L 118.303554 179.969375 
L 121.92233 179.969375 
L 125.541105 179.969375 
L 129.15988 179.969375 
L 132.778655 179.969375 
L 136.397431 179.969375 
L 140.016206 179.969375 
L 143.634981 179.969375 
L 147.253756 179.969375 
L 150.872532 179.969375 
L 154.491307 179.969375 
L 158.110082 179.969375 
L 161.728857 179.969375 
L 165.347633 179.969375 
L 168.966408 179.969375 
L 172.585183 179.969375 
L 176.203958 179.969375 
L 179.822734 179.969375 
L 183.441509 179.969375 
L 187.060284 179.969375 
L 190.679059 179.969375 
L 194.297835 74.83358 
L 197.91661 74.83358 
L 201.535385 74.83358 
L 205.15416 74.83358 
L 208.772936 74.83358 
L 212.391711 74.83358 
L 216.010486 74.83358 
L 219.629261 74.83358 
L 223.248037 74.83358 
L 226.866812 74.83358 
L 230.485587 74.83358 
L 234.104362 74.83358 
L 237.723138 74.83358 
L 241.341913 74.83358 
L 244.960688 74.83358 
L 248.579463 74.83358 
L 252.198239 74.83358 
L 255.817014 74.83358 
L 259.435789 74.83358 
L 263.054564 74.83358 
L 266.67334 74.83358 
L 270.292115 74.83358 
L 273.91089 74.83358 
L 277.529665 74.83358 
L 281.148441 74.83358 
L 284.767216 74.83358 
L 288.385991 74.83358 
L 292.004766 74.83358 
L 295.623542 74.83358 
L 299.242317 74.83358 
L 302.861092 74.83358 
L 306.479867 74.83358 
L 310.098643 74.83358 
L 313.717418 74.83358 
L 317.336193 74.83358 
L 320.954968 74.83358 
L 324.573744 74.83358 
L 328.192519 74.83358 
L 331.811294 74.83358 
L 335.430069 74.83358 
L 339.048845 74.83358 
L 342.66762 194.988774 
L 346.286395 194.988774 
L 349.90517 194.988774 
L 353.523946 194.988774 
L 357.142721 194.988774 
L 360.761496 194.988774 
L 364.380271 194.988774 
L 367.999047 194.988774 
L 371.617822 194.988774 
L 375.236597 194.988774 
L 378.855372 194.988774 
L 382.474148 194.988774 
L 386.092923 194.988774 
L 389.711698 194.988774 
L 393.330473 194.988774 
L 396.949249 194.988774 
L 400.568024 194.988774 
L 404.186799 194.988774 
L 407.805574 194.988774 
L 411.42435 194.988774 
L 415.043125 194.988774 
" clip-path="url(#p267a9835ee)" style="fill: none; stroke: #6366f1; stroke-width: 2; stroke-linecap: square"/>
   </g>
   <g id="line2d_14">
    <path d="M 191.131406 295.61875 
L 191.131406 64.32 
" clip-path="url(#p267a9835ee)" style="fill: none; stroke-dasharray: 5.55,2.4; stroke-dashoffset: 0; stroke: #f59e0b; stroke-opacity: 0.8; stroke-width: 1.5"/>
   </g>
   <g id="line2d_15">
    <path d="M 246.952931 295.61875 
L 246.952931 64.32 
" clip-path="url(#p267a9835ee)" style="fill: none; stroke-dasharray: 1.2,1.98; stroke-dashoffset: 0; stroke: #22d3ee; stroke-opacity: 0.8; stroke-width: 1.2"/>
   </g>
   <g id="line2d_16">
    <path d="M 194.297835 295.61875 
L 194.297835 64.32 
" clip-path="url(#p267a9835ee)" style="fill: none; stroke-dasharray: 1,1.65; stroke-dashoffset: 0; stroke: #ef4444; stroke-opacity: 0.6"/>
   </g>
   <g id="patch_3">
    <path d="M 56.784375 295.61875 
L 56.784375 64.32 
" style="fill: none; stroke: #1e1e2e; stroke-width: 0.8; stroke-linejoin: miter; stroke-linecap: square"/>
   </g>
   <g id="patch_4">
    <path d="M 415.043125 295.61875 
L 415.043125 64.32 
" style="fill: none; stroke: #1e1e2e; stroke-width: 0.8; stroke-linejoin: miter; stroke-linecap: square"/>
   </g>
   <g id="patch_5">
    <path d="M 56.784375 295.61875 
L 415.043125 295.61875 
" style="fill: none; stroke: #1e1e2e; stroke-width: 0.8; stroke-linejoin: miter; stroke-linecap: square"/>
   </g>
   <g id="patch_6">
    <path d="M 56.784375 64.32 
L 415.043125 64.32 
" style="fill: none; stroke: #1e1e2e; stroke-width: 0.8; stroke-linejoin: miter; stroke-linecap: square"/>
   </g>
   <g id="text_15">
    <!-- Spearman vs opacity weight (w_R=w_α=1) -->
    <g style="fill: #e2e8f0" transform="translate(106.188125 58.32) scale(0.12 -0.12)">
     <defs>
      <path id="DejaVuSans-76" d="M 191 3500 
L 800 3500 
L 1894 563 
L 2988 3500 
L 3597 3500 
L 2284 0 
L 1503 0 
L 191 3500 
z
" transform="scale(0.015625)"/>
      <path id="DejaVuSans-73" d="M 2834 3397 
L 2834 2853 
Q 2591 2978 2328 3040 
Q 2066 3103 1784 3103 
Q 1356 3103 1142 2972 
Q 928 2841 928 2578 
Q 928 2378 1081 2264 
Q 1234 2150 1697 2047 
L 1894 2003 
Q 2506 1872 2764 1633 
Q 3022 1394 3022 966 
Q 3022 478 2636 193 
Q 2250 -91 1575 -91 
Q 1294 -91 989 -36 
Q 684 19 347 128 
L 347 722 
Q 666 556 975 473 
Q 1284 391 1588 391 
Q 1994 391 2212 530 
Q 2431 669 2431 922 
Q 2431 1156 2273 1281 
Q 2116 1406 1581 1522 
L 1381 1569 
Q 847 1681 609 1914 
Q 372 2147 372 2553 
Q 372 3047 722 3315 
Q 1072 3584 1716 3584 
Q 2034 3584 2315 3537 
Q 2597 3491 2834 3397 
z
" transform="scale(0.015625)"/>
      <path id="DejaVuSans-52" d="M 2841 2188 
Q 3044 2119 3236 1894 
Q 3428 1669 3622 1275 
L 4263 0 
L 3584 0 
L 2988 1197 
Q 2756 1666 2539 1819 
Q 2322 1972 1947 1972 
L 1259 1972 
L 1259 0 
L 628 0 
L 628 4666 
L 2053 4666 
Q 2853 4666 3247 4331 
Q 3641 3997 3641 3322 
Q 3641 2881 3436 2590 
Q 3231 2300 2841 2188 
z
M 1259 4147 
L 1259 2491 
L 2053 2491 
Q 2509 2491 2742 2702 
Q 2975 2913 2975 3322 
Q 2975 3731 2742 3939 
Q 2509 4147 2053 4147 
L 1259 4147 
z
" transform="scale(0.015625)"/>
      <path id="DejaVuSans-3d" d="M 678 2906 
L 4684 2906 
L 4684 2381 
L 678 2381 
L 678 2906 
z
M 678 1631 
L 4684 1631 
L 4684 1100 
L 678 1100 
L 678 1631 
z
" transform="scale(0.015625)"/>
      <path id="DejaVuSans-3b1" d="M 2644 1628 
L 2506 2350 
Q 2366 3091 1809 3091 
Q 1391 3091 1200 2747 
Q 959 2316 959 1747 
Q 959 1059 1194 731 
Q 1431 397 1809 397 
Q 2228 397 2453 1063 
L 2644 1628 
z
M 2966 2584 
L 3275 3500 
L 3788 3500 
L 3147 1603 
L 3272 919 
Q 3300 766 3409 638 
Q 3538 488 3638 488 
L 3913 488 
L 3913 0 
L 3569 0 
Q 3275 0 3013 263 
Q 2884 394 2831 669 
Q 2688 322 2394 50 
Q 2256 -78 1809 -78 
Q 1075 -78 719 397 
Q 353 888 353 1747 
Q 353 2666 750 3097 
Q 1191 3578 1809 3578 
Q 2781 3578 2966 2584 
z
" transform="scale(0.015625)"/>
     </defs>
     <use xlink:href="#DejaVuSans-53"/>
     <use xlink:href="#DejaVuSans-70" transform="translate(63.476562 0)"/>
     <use xlink:href="#DejaVuSans-65" transform="translate(126.953125 0)"/>
     <use xlink:href="#DejaVuSans-61" transform="translate(188.476562 0)"/>
     <use xlink:href="#DejaVuSans-72" transform="translate(249.755859 0)"/>
     <use xlink:href="#DejaVuSans-6d" transform="translate(289.119141 0)"/>
     <use xlink:href="#DejaVuSans-61" transform="translate(386.53125 0)"/>
     <use xlink:href="#DejaVuSans-6e" transform="translate(447.810547 0)"/>
     <use xlink:href="#DejaVuSans-20" transform="translate(511.189453 0)"/>
     <use xlink:href="#DejaVuSans-76" transform="translate(542.976562 0)"/>
     <use xlink:href="#DejaVuSans-73" transform="translate(602.15625 0)"/>
     <use xlink:href="#DejaVuSans-20" transform="translate(654.255859 0)"/>
     <use xlink:href="#DejaVuSans-6f" transform="translate(686.042969 0)"/>
     <use xlink:href="#DejaVuSans-70" transform="translate(747.224609 0)"/>
     <use xlink:href="#DejaVuSans-61" transform="translate(810.701172 0)"/>
     <use xlink:href="#DejaVuSans-63" transform="translate(871.980469 0)"/>
     <use xlink:href="#DejaVuSans-69" transform="translate(926.960938 0)"/>
     <use xlink:href="#DejaVuSans-74" transform="translate(954.744141 0)"/>
     <use xlink:href="#DejaVuSans-79" transform="translate(993.953125 0)"/>
     <use xlink:href="#DejaVuSans-20" transform="translate(1053.132812 0)"/>
     <use xlink:href="#DejaVuSans-77" transform="translate(1084.919922 0)"/>
     <use xlink:href="#DejaVuSans-65" transform="translate(1166.707031 0)"/>
     <use xlink:href="#DejaVuSans-69" transform="translate(1228.230469 0)"/>
     <use xlink:href="#DejaVuSans-67" transform="translate(1256.013672 0)"/>
     <use xlink:href="#DejaVuSans-68" transform="translate(1319.490234 0)"/>
     <use xlink:href="#DejaVuSans-74" transform="translate(1382.869141 0)"/>
     <use xlink:href="#DejaVuSans-20" transform="translate(1422.078125 0)"/>
     <use xlink:href="#DejaVuSans-28" transform="translate(1453.865234 0)"/>
     <use xlink:href="#DejaVuSans-77" transform="translate(1492.878906 0)"/>
     <use xlink:href="#DejaVuSans-5f" transform="translate(1574.666016 0)"/>
     <use xlink:href="#DejaVuSans-52" transform="translate(1624.666016 0)"/>
     <use xlink:href="#DejaVuSans-3d" transform="translate(1694.148438 0)"/>
     <use xlink:href="#DejaVuSans-77" transform="translate(1777.9375 0)"/>
     <use xlink:href="#DejaVuSans-5f" transform="translate(1859.724609 0)"/>
     <use xlink:href="#DejaVuSans-3b1" transform="translate(1909.724609 0)"/>
     <use xlink:href="#DejaVuSans-3d" transform="translate(1975.642578 0)"/>
     <use xlink:href="#DejaVuSans-31" transform="translate(2059.431641 0)"/>
     <use xlink:href="#DejaVuSans-29" transform="translate(2123.054688 0)"/>
    </g>
   </g>
   <g id="legend_1">
    <g id="patch_7">
     <path d="M 62.384375 106.17 
L 179.789375 106.17 
Q 181.389375 106.17 181.389375 104.57 
L 181.389375 69.92 
Q 181.389375 68.32 179.789375 68.32 
L 62.384375 68.32 
Q 60.784375 68.32 60.784375 69.92 
L 60.784375 104.57 
Q 60.784375 106.17 62.384375 106.17 
z
" style="fill: #111118; opacity: 0.8; stroke: #1e1e2e; stroke-linejoin: miter"/>
    </g>
    <g id="line2d_17">
     <path d="M 63.984375 74.79875 
L 71.984375 74.79875 
L 79.984375 74.79875 
" style="fill: none; stroke-dasharray: 5.55,2.4; stroke-dashoffset: 0; stroke: #f59e0b; stroke-opacity: 0.8; stroke-width: 1.5"/>
    </g>
    <g id="text_16">
     <!-- equal weight (V3) -->
     <g style="fill: #9ca3af" transform="translate(86.384375 77.59875) scale(0.08 -0.08)">
      <defs>
       <path id="DejaVuSans-71" d="M 947 1747 
Q 947 1113 1208 752 
Q 1469 391 1925 391 
Q 2381 391 2643 752 
Q 2906 1113 2906 1747 
Q 2906 2381 2643 2742 
Q 2381 3103 1925 3103 
Q 1469 3103 1208 2742 
Q 947 2381 947 1747 
z
M 2906 525 
Q 2725 213 2448 61 
Q 2172 -91 1784 -91 
Q 1150 -91 751 415 
Q 353 922 353 1747 
Q 353 2572 751 3078 
Q 1150 3584 1784 3584 
Q 2172 3584 2448 3432 
Q 2725 3281 2906 2969 
L 2906 3500 
L 3481 3500 
L 3481 -1331 
L 2906 -1331 
L 2906 525 
z
" transform="scale(0.015625)"/>
       <path id="DejaVuSans-6c" d="M 603 4863 
L 1178 4863 
L 1178 0 
L 603 0 
L 603 4863 
z
" transform="scale(0.015625)"/>
       <path id="DejaVuSans-56" d="M 1831 0 
L 50 4666 
L 709 4666 
L 2188 738 
L 3669 4666 
L 4325 4666 
L 2547 0 
L 1831 0 
z
" transform="scale(0.015625)"/>
       <path id="DejaVuSans-33" d="M 2597 2516 
Q 3050 2419 3304 2112 
Q 3559 1806 3559 1356 
Q 3559 666 3084 287 
Q 2609 -91 1734 -91 
Q 1441 -91 1130 -33 
Q 819 25 488 141 
L 488 750 
Q 750 597 1062 519 
Q 1375 441 1716 441 
Q 2309 441 2620 675 
Q 2931 909 2931 1356 
Q 2931 1769 2642 2001 
Q 2353 2234 1838 2234 
L 1294 2234 
L 1294 2753 
L 1863 2753 
Q 2328 2753 2575 2939 
Q 2822 3125 2822 3475 
Q 2822 3834 2567 4026 
Q 2313 4219 1838 4219 
Q 1578 4219 1281 4162 
Q 984 4106 628 3988 
L 628 4550 
Q 988 4650 1302 4700 
Q 1616 4750 1894 4750 
Q 2613 4750 3031 4423 
Q 3450 4097 3450 3541 
Q 3450 3153 3228 2886 
Q 3006 2619 2597 2516 
z
" transform="scale(0.015625)"/>
      </defs>
      <use xlink:href="#DejaVuSans-65"/>
      <use xlink:href="#DejaVuSans-71" transform="translate(61.523438 0)"/>
      <use xlink:href="#DejaVuSans-75" transform="translate(125 0)"/>
      <use xlink:href="#DejaVuSans-61" transform="translate(188.378906 0)"/>
      <use xlink:href="#DejaVuSans-6c" transform="translate(249.658203 0)"/>
      <use xlink:href="#DejaVuSans-20" transform="translate(277.441406 0)"/>
      <use xlink:href="#DejaVuSans-77" transform="translate(309.228516 0)"/>
      <use xlink:href="#DejaVuSans-65" transform="translate(391.015625 0)"/>
      <use xlink:href="#DejaVuSans-69" transform="translate(452.539062 0)"/>
      <use xlink:href="#DejaVuSans-67" transform="translate(480.322266 0)"/>
      <use xlink:href="#DejaVuSans-68" transform="translate(543.798828 0)"/>
      <use xlink:href="#DejaVuSans-74" transform="translate(607.177734 0)"/>
      <use xlink:href="#DejaVuSans-20" transform="translate(646.386719 0)"/>
      <use xlink:href="#DejaVuSans-28" transform="translate(678.173828 0)"/>
      <use xlink:href="#DejaVuSans-56" transform="translate(717.1875 0)"/>
      <use xlink:href="#DejaVuSans-33" transform="translate(785.595703 0)"/>
      <use xlink:href="#DejaVuSans-29" transform="translate(849.21875 0)"/>
     </g>
    </g>
    <g id="line2d_18">
     <path d="M 63.984375 86.54125 
L 71.984375 86.54125 
L 79.984375 86.54125 
" style="fill: none; stroke-dasharray: 1.2,1.98; stroke-dashoffset: 0; stroke: #22d3ee; stroke-opacity: 0.8; stroke-width: 1.2"/>
    </g>
    <g id="text_17">
     <!-- OLS weight w_O=1.37 -->
     <g style="fill: #9ca3af" transform="translate(86.384375 89.34125) scale(0.08 -0.08)">
      <defs>
       <path id="DejaVuSans-4c" d="M 628 4666 
L 1259 4666 
L 1259 531 
L 3531 531 
L 3531 0 
L 628 0 
L 628 4666 
z
" transform="scale(0.015625)"/>
       <path id="DejaVuSans-37" d="M 525 4666 
L 3525 4666 
L 3525 4397 
L 1831 0 
L 1172 0 
L 2766 4134 
L 525 4134 
L 525 4666 
z
" transform="scale(0.015625)"/>
      </defs>
      <use xlink:href="#DejaVuSans-4f"/>
      <use xlink:href="#DejaVuSans-4c" transform="translate(78.710938 0)"/>
      <use xlink:href="#DejaVuSans-53" transform="translate(134.423828 0)"/>
      <use xlink:href="#DejaVuSans-20" transform="translate(197.900391 0)"/>
      <use xlink:href="#DejaVuSans-77" transform="translate(229.6875 0)"/>
      <use xlink:href="#DejaVuSans-65" transform="translate(311.474609 0)"/>
      <use xlink:href="#DejaVuSans-69" transform="translate(372.998047 0)"/>
      <use xlink:href="#DejaVuSans-67" transform="translate(400.78125 0)"/>
      <use xlink:href="#DejaVuSans-68" transform="translate(464.257812 0)"/>
      <use xlink:href="#DejaVuSans-74" transform="translate(527.636719 0)"/>
      <use xlink:href="#DejaVuSans-20" transform="translate(566.845703 0)"/>
      <use xlink:href="#DejaVuSans-77" transform="translate(598.632812 0)"/>
      <use xlink:href="#DejaVuSans-5f" transform="translate(680.419922 0)"/>
      <use xlink:href="#DejaVuSans-4f" transform="translate(730.419922 0)"/>
      <use xlink:href="#DejaVuSans-3d" transform="translate(809.130859 0)"/>
      <use xlink:href="#DejaVuSans-31" transform="translate(892.919922 0)"/>
      <use xlink:href="#DejaVuSans-2e" transform="translate(956.542969 0)"/>
      <use xlink:href="#DejaVuSans-33" transform="translate(988.330078 0)"/>
      <use xlink:href="#DejaVuSans-37" transform="translate(1051.953125 0)"/>
     </g>
    </g>
    <g id="line2d_19">
     <path d="M 63.984375 98.50625 
L 71.984375 98.50625 
L 79.984375 98.50625 
" style="fill: none; stroke-dasharray: 1,1.65; stroke-dashoffset: 0; stroke: #ef4444; stroke-opacity: 0.6"/>
    </g>
    <g id="text_18">
     <!-- max Spearman at 1.02 -->
     <g style="fill: #9ca3af" transform="translate(86.384375 101.30625) scale(0.08 -0.08)">
      <defs>
       <path id="DejaVuSans-78" d="M 3513 3500 
L 2247 1797 
L 3578 0 
L 2900 0 
L 1881 1375 
L 863 0 
L 184 0 
L 1544 1831 
L 300 3500 
L 978 3500 
L 1906 2253 
L 2834 3500 
L 3513 3500 
z
" transform="scale(0.015625)"/>
      </defs>
      <use xlink:href="#DejaVuSans-6d"/>
      <use xlink:href="#DejaVuSans-61" transform="translate(97.412109 0)"/>
      <use xlink:href="#DejaVuSans-78" transform="translate(158.691406 0)"/>
      <use xlink:href="#DejaVuSans-20" transform="translate(217.871094 0)"/>
      <use xlink:href="#DejaVuSans-53" transform="translate(249.658203 0)"/>
      <use xlink:href="#DejaVuSans-70" transform="translate(313.134766 0)"/>
      <use xlink:href="#DejaVuSans-65" transform="translate(376.611328 0)"/>
      <use xlink:href="#DejaVuSans-61" transform="translate(438.134766 0)"/>
      <use xlink:href="#DejaVuSans-72" transform="translate(499.414062 0)"/>
      <use xlink:href="#DejaVuSans-6d" transform="translate(538.777344 0)"/>
      <use xlink:href="#DejaVuSans-61" transform="translate(636.189453 0)"/>
      <use xlink:href="#DejaVuSans-6e" transform="translate(697.46875 0)"/>
      <use xlink:href="#DejaVuSans-20" transform="translate(760.847656 0)"/>
      <use xlink:href="#DejaVuSans-61" transform="translate(792.634766 0)"/>
      <use xlink:href="#DejaVuSans-74" transform="translate(853.914062 0)"/>
      <use xlink:href="#DejaVuSans-20" transform="translate(893.123047 0)"/>
      <use xlink:href="#DejaVuSans-31" transform="translate(924.910156 0)"/>
      <use xlink:href="#DejaVuSans-2e" transform="translate(988.533203 0)"/>
      <use xlink:href="#DejaVuSans-30" transform="translate(1020.320312 0)"/>
      <use xlink:href="#DejaVuSans-32" transform="translate(1083.943359 0)"/>
     </g>
    </g>
   </g>
  </g>
  <g id="axes_2">
   <g id="patch_8">
    <path d="M 483.339375 295.61875 
L 841.598125 295.61875 
L 841.598125 64.32 
L 483.339375 64.32 
z
" style="fill: #111118"/>
   </g>
   <g id="matplotlib.axis_3">
    <g id="xtick_6">
     <g id="line2d_20">
      <g>
       <use xlink:href="#me14b83722f" x="543.049167" y="295.61875" style="fill: #6b7280; stroke: #6b7280; stroke-width: 0.8"/>
      </g>
     </g>
     <g id="text_19">
      <!-- 0.5 -->
      <g style="fill: #6b7280" transform="translate(535.097604 310.217187) scale(0.1 -0.1)">
       <use xlink:href="#DejaVuSans-30"/>
       <use xlink:href="#DejaVuSans-2e" transform="translate(63.623047 0)"/>
       <use xlink:href="#DejaVuSans-35" transform="translate(95.410156 0)"/>
      </g>
     </g>
    </g>
    <g id="xtick_7">
     <g id="line2d_21">
      <g>
       <use xlink:href="#me14b83722f" x="617.686406" y="295.61875" style="fill: #6b7280; stroke: #6b7280; stroke-width: 0.8"/>
      </g>
     </g>
     <g id="text_20">
      <!-- 1.0 -->
      <g style="fill: #6b7280" transform="translate(609.734844 310.217187) scale(0.1 -0.1)">
       <use xlink:href="#DejaVuSans-31"/>
       <use xlink:href="#DejaVuSans-2e" transform="translate(63.623047 0)"/>
       <use xlink:href="#DejaVuSans-30" transform="translate(95.410156 0)"/>
      </g>
     </g>
    </g>
    <g id="xtick_8">
     <g id="line2d_22">
      <g>
       <use xlink:href="#me14b83722f" x="692.323646" y="295.61875" style="fill: #6b7280; stroke: #6b7280; stroke-width: 0.8"/>
      </g>
     </g>
     <g id="text_21">
      <!-- 1.5 -->
      <g style="fill: #6b7280" transform="translate(684.372083 310.217187) scale(0.1 -0.1)">
       <use xlink:href="#DejaVuSans-31"/>
       <use xlink:href="#DejaVuSans-2e" transform="translate(63.623047 0)"/>
       <use xlink:href="#DejaVuSans-35" transform="translate(95.410156 0)"/>
      </g>
     </g>
    </g>
    <g id="xtick_9">
     <g id="line2d_23">
      <g>
       <use xlink:href="#me14b83722f" x="766.960885" y="295.61875" style="fill: #6b7280; stroke: #6b7280; stroke-width: 0.8"/>
      </g>
     </g>
     <g id="text_22">
      <!-- 2.0 -->
      <g style="fill: #6b7280" transform="translate(759.009323 310.217187) scale(0.1 -0.1)">
       <use xlink:href="#DejaVuSans-32"/>
       <use xlink:href="#DejaVuSans-2e" transform="translate(63.623047 0)"/>
       <use xlink:href="#DejaVuSans-30" transform="translate(95.410156 0)"/>
      </g>
     </g>
    </g>
    <g id="xtick_10">
     <g id="line2d_24">
      <g>
       <use xlink:href="#me14b83722f" x="841.598125" y="295.61875" style="fill: #6b7280; stroke: #6b7280; stroke-width: 0.8"/>
      </g>
     </g>
     <g id="text_23">
      <!-- 2.5 -->
      <g style="fill: #6b7280" transform="translate(833.646563 310.217187) scale(0.1 -0.1)">
       <use xlink:href="#DejaVuSans-32"/>
       <use xlink:href="#DejaVuSans-2e" transform="translate(63.623047 0)"/>
       <use xlink:href="#DejaVuSans-35" transform="translate(95.410156 0)"/>
      </g>
     </g>
    </g>
    <g id="text_24">
     <!-- w_O (opacity weight) -->
     <g style="fill: #9ca3af" transform="translate(609.650781 323.895312) scale(0.1 -0.1)">
      <use xlink:href="#DejaVuSans-77"/>
      <use xlink:href="#DejaVuSans-5f" transform="translate(81.787109 0)"/>
      <use xlink:href="#DejaVuSans-4f" transform="translate(131.787109 0)"/>
      <use xlink:href="#DejaVuSans-20" transform="translate(210.498047 0)"/>
      <use xlink:href="#DejaVuSans-28" transform="translate(242.285156 0)"/>
      <use xlink:href="#DejaVuSans-6f" transform="translate(281.298828 0)"/>
      <use xlink:href="#DejaVuSans-70" transform="translate(342.480469 0)"/>
      <use xlink:href="#DejaVuSans-61" transform="translate(405.957031 0)"/>
      <use xlink:href="#DejaVuSans-63" transform="translate(467.236328 0)"/>
      <use xlink:href="#DejaVuSans-69" transform="translate(522.216797 0)"/>
      <use xlink:href="#DejaVuSans-74" transform="translate(550 0)"/>
      <use xlink:href="#DejaVuSans-79" transform="translate(589.208984 0)"/>
      <use xlink:href="#DejaVuSans-20" transform="translate(648.388672 0)"/>
      <use xlink:href="#DejaVuSans-77" transform="translate(680.175781 0)"/>
      <use xlink:href="#DejaVuSans-65" transform="translate(761.962891 0)"/>
      <use xlink:href="#DejaVuSans-69" transform="translate(823.486328 0)"/>
      <use xlink:href="#DejaVuSans-67" transform="translate(851.269531 0)"/>
      <use xlink:href="#DejaVuSans-68" transform="translate(914.746094 0)"/>
      <use xlink:href="#DejaVuSans-74" transform="translate(978.125 0)"/>
      <use xlink:href="#DejaVuSans-29" transform="translate(1017.333984 0)"/>
     </g>
    </g>
   </g>
   <g id="matplotlib.axis_4">
    <g id="ytick_8">
     <g id="line2d_25">
      <g>
       <use xlink:href="#m5cff4d91b4" x="483.339375" y="275.153251" style="fill: #6b7280; stroke: #6b7280; stroke-width: 0.8"/>
      </g>
     </g>
     <g id="text_25">
      <!-- 0.065 -->
      <g style="fill: #6b7280" transform="translate(447.71125 278.95247) scale(0.1 -0.1)">
       <defs>
        <path id="DejaVuSans-36" d="M 2113 2584 
Q 1688 2584 1439 2293 
Q 1191 2003 1191 1497 
Q 1191 994 1439 701 
Q 1688 409 2113 409 
Q 2538 409 2786 701 
Q 3034 994 3034 1497 
Q 3034 2003 2786 2293 
Q 2538 2584 2113 2584 
z
M 3366 4563 
L 3366 3988 
Q 3128 4100 2886 4159 
Q 2644 4219 2406 4219 
Q 1781 4219 1451 3797 
Q 1122 3375 1075 2522 
Q 1259 2794 1537 2939 
Q 1816 3084 2150 3084 
Q 2853 3084 3261 2657 
Q 3669 2231 3669 1497 
Q 3669 778 3244 343 
Q 2819 -91 2113 -91 
Q 1303 -91 875 529 
Q 447 1150 447 2328 
Q 447 3434 972 4092 
Q 1497 4750 2381 4750 
Q 2619 4750 2861 4703 
Q 3103 4656 3366 4563 
z
" transform="scale(0.015625)"/>
       </defs>
       <use xlink:href="#DejaVuSans-30"/>
       <use xlink:href="#DejaVuSans-2e" transform="translate(63.623047 0)"/>
       <use xlink:href="#DejaVuSans-30" transform="translate(95.410156 0)"/>
       <use xlink:href="#DejaVuSans-36" transform="translate(159.033203 0)"/>
       <use xlink:href="#DejaVuSans-35" transform="translate(222.65625 0)"/>
      </g>
     </g>
    </g>
    <g id="ytick_9">
     <g id="line2d_26">
      <g>
       <use xlink:href="#m5cff4d91b4" x="483.339375" y="248.37126" style="fill: #6b7280; stroke: #6b7280; stroke-width: 0.8"/>
      </g>
     </g>
     <g id="text_26">
      <!-- 0.070 -->
      <g style="fill: #6b7280" transform="translate(447.71125 252.170479) scale(0.1 -0.1)">
       <use xlink:href="#DejaVuSans-30"/>
       <use xlink:href="#DejaVuSans-2e" transform="translate(63.623047 0)"/>
       <use xlink:href="#DejaVuSans-30" transform="translate(95.410156 0)"/>
       <use xlink:href="#DejaVuSans-37" transform="translate(159.033203 0)"/>
       <use xlink:href="#DejaVuSans-30" transform="translate(222.65625 0)"/>
      </g>
     </g>
    </g>
    <g id="ytick_10">
     <g id="line2d_27">
      <g>
       <use xlink:href="#m5cff4d91b4" x="483.339375" y="221.58927" style="fill: #6b7280; stroke: #6b7280; stroke-width: 0.8"/>
      </g>
     </g>
     <g id="text_27">
      <!-- 0.075 -->
      <g style="fill: #6b7280" transform="translate(447.71125 225.388488) scale(0.1 -0.1)">
       <use xlink:href="#DejaVuSans-30"/>
       <use xlink:href="#DejaVuSans-2e" transform="translate(63.623047 0)"/>
       <use xlink:href="#DejaVuSans-30" transform="translate(95.410156 0)"/>
       <use xlink:href="#DejaVuSans-37" transform="translate(159.033203 0)"/>
       <use xlink:href="#DejaVuSans-35" transform="translate(222.65625 0)"/>
      </g>
     </g>
    </g>
    <g id="ytick_11">
     <g id="line2d_28">
      <g>
       <use xlink:href="#m5cff4d91b4" x="483.339375" y="194.807279" style="fill: #6b7280; stroke: #6b7280; stroke-width: 0.8"/>
      </g>
     </g>
     <g id="text_28">
      <!-- 0.080 -->
      <g style="fill: #6b7280" transform="translate(447.71125 198.606498) scale(0.1 -0.1)">
       <use xlink:href="#DejaVuSans-30"/>
       <use xlink:href="#DejaVuSans-2e" transform="translate(63.623047 0)"/>
       <use xlink:href="#DejaVuSans-30" transform="translate(95.410156 0)"/>
       <use xlink:href="#DejaVuSans-38" transform="translate(159.033203 0)"/>
       <use xlink:href="#DejaVuSans-30" transform="translate(222.65625 0)"/>
      </g>
     </g>
    </g>
    <g id="ytick_12">
     <g id="line2d_29">
      <g>
       <use xlink:href="#m5cff4d91b4" x="483.339375" y="168.025289" style="fill: #6b7280; stroke: #6b7280; stroke-width: 0.8"/>
      </g>
     </g>
     <g id="text_29">
      <!-- 0.085 -->
      <g style="fill: #6b7280" transform="translate(447.71125 171.824507) scale(0.1 -0.1)">
       <use xlink:href="#DejaVuSans-30"/>
       <use xlink:href="#DejaVuSans-2e" transform="translate(63.623047 0)"/>
       <use xlink:href="#DejaVuSans-30" transform="translate(95.410156 0)"/>
       <use xlink:href="#DejaVuSans-38" transform="translate(159.033203 0)"/>
       <use xlink:href="#DejaVuSans-35" transform="translate(222.65625 0)"/>
      </g>
     </g>
    </g>
    <g id="ytick_13">
     <g id="line2d_30">
      <g>
       <use xlink:href="#m5cff4d91b4" x="483.339375" y="141.243298" style="fill: #6b7280; stroke: #6b7280; stroke-width: 0.8"/>
      </g>
     </g>
     <g id="text_30">
      <!-- 0.090 -->
      <g style="fill: #6b7280" transform="translate(447.71125 145.042517) scale(0.1 -0.1)">
       <use xlink:href="#DejaVuSans-30"/>
       <use xlink:href="#DejaVuSans-2e" transform="translate(63.623047 0)"/>
       <use xlink:href="#DejaVuSans-30" transform="translate(95.410156 0)"/>
       <use xlink:href="#DejaVuSans-39" transform="translate(159.033203 0)"/>
       <use xlink:href="#DejaVuSans-30" transform="translate(222.65625 0)"/>
      </g>
     </g>
    </g>
    <g id="ytick_14">
     <g id="line2d_31">
      <g>
       <use xlink:href="#m5cff4d91b4" x="483.339375" y="114.461308" style="fill: #6b7280; stroke: #6b7280; stroke-width: 0.8"/>
      </g>
     </g>
     <g id="text_31">
      <!-- 0.095 -->
      <g style="fill: #6b7280" transform="translate(447.71125 118.260526) scale(0.1 -0.1)">
       <use xlink:href="#DejaVuSans-30"/>
       <use xlink:href="#DejaVuSans-2e" transform="translate(63.623047 0)"/>
       <use xlink:href="#DejaVuSans-30" transform="translate(95.410156 0)"/>
       <use xlink:href="#DejaVuSans-39" transform="translate(159.033203 0)"/>
       <use xlink:href="#DejaVuSans-35" transform="translate(222.65625 0)"/>
      </g>
     </g>
    </g>
    <g id="ytick_15">
     <g id="line2d_32">
      <g>
       <use xlink:href="#m5cff4d91b4" x="483.339375" y="87.679317" style="fill: #6b7280; stroke: #6b7280; stroke-width: 0.8"/>
      </g>
     </g>
     <g id="text_32">
      <!-- 0.100 -->
      <g style="fill: #6b7280" transform="translate(447.71125 91.478536) scale(0.1 -0.1)">
       <use xlink:href="#DejaVuSans-30"/>
       <use xlink:href="#DejaVuSans-2e" transform="translate(63.623047 0)"/>
       <use xlink:href="#DejaVuSans-31" transform="translate(95.410156 0)"/>
       <use xlink:href="#DejaVuSans-30" transform="translate(159.033203 0)"/>
       <use xlink:href="#DejaVuSans-30" transform="translate(222.65625 0)"/>
      </g>
     </g>
    </g>
    <g id="text_33">
     <!-- RMSE(c_pred, c_true) -->
     <g style="fill: #9ca3af" transform="translate(441.353437 233.298281) rotate(-90) scale(0.1 -0.1)">
      <defs>
       <path id="DejaVuSans-4d" d="M 628 4666 
L 1569 4666 
L 2759 1491 
L 3956 4666 
L 4897 4666 
L 4897 0 
L 4281 0 
L 4281 4097 
L 3078 897 
L 2444 897 
L 1241 4097 
L 1241 0 
L 628 0 
L 628 4666 
z
" transform="scale(0.015625)"/>
       <path id="DejaVuSans-45" d="M 628 4666 
L 3578 4666 
L 3578 4134 
L 1259 4134 
L 1259 2753 
L 3481 2753 
L 3481 2222 
L 1259 2222 
L 1259 531 
L 3634 531 
L 3634 0 
L 628 0 
L 628 4666 
z
" transform="scale(0.015625)"/>
      </defs>
      <use xlink:href="#DejaVuSans-52"/>
      <use xlink:href="#DejaVuSans-4d" transform="translate(69.482422 0)"/>
      <use xlink:href="#DejaVuSans-53" transform="translate(155.761719 0)"/>
      <use xlink:href="#DejaVuSans-45" transform="translate(219.238281 0)"/>
      <use xlink:href="#DejaVuSans-28" transform="translate(282.421875 0)"/>
      <use xlink:href="#DejaVuSans-63" transform="translate(321.435547 0)"/>
      <use xlink:href="#DejaVuSans-5f" transform="translate(376.416016 0)"/>
      <use xlink:href="#DejaVuSans-70" transform="translate(426.416016 0)"/>
      <use xlink:href="#DejaVuSans-72" transform="translate(489.892578 0)"/>
      <use xlink:href="#DejaVuSans-65" transform="translate(528.755859 0)"/>
      <use xlink:href="#DejaVuSans-64" transform="translate(590.279297 0)"/>
      <use xlink:href="#DejaVuSans-2c" transform="translate(653.755859 0)"/>
      <use xlink:href="#DejaVuSans-20" transform="translate(685.542969 0)"/>
      <use xlink:href="#DejaVuSans-63" transform="translate(717.330078 0)"/>
      <use xlink:href="#DejaVuSans-5f" transform="translate(772.310547 0)"/>
      <use xlink:href="#DejaVuSans-74" transform="translate(822.310547 0)"/>
      <use xlink:href="#DejaVuSans-72" transform="translate(861.519531 0)"/>
      <use xlink:href="#DejaVuSans-75" transform="translate(902.632812 0)"/>
      <use xlink:href="#DejaVuSans-65" transform="translate(966.011719 0)"/>
      <use xlink:href="#DejaVuSans-29" transform="translate(1027.535156 0)"/>
     </g>
    </g>
   </g>
   <g id="line2d_33">
    <path d="M 483.339375 74.83358 
L 486.95815 84.582193 
L 490.576926 94.001197 
L 494.195701 103.099559 
L 497.814476 111.885872 
L 501.433251 120.368373 
L 505.052027 128.554976 
L 508.670802 136.453288 
L 512.289577 144.070632 
L 515.908352 151.414068 
L 519.527128 158.490411 
L 523.145903 165.30625 
L 526.764678 171.867963 
L 530.383453 178.181735 
L 534.002229 184.253571 
L 537.621004 190.089309 
L 541.239779 195.694636 
L 544.858554 201.075097 
L 548.47733 206.236108 
L 552.096105 211.182965 
L 555.71488 215.920853 
L 559.333655 220.454856 
L 562.952431 224.789965 
L 566.571206 228.931081 
L 570.189981 232.883029 
L 573.808756 236.650554 
L 577.427532 240.238333 
L 581.046307 243.650978 
L 584.665082 246.893034 
L 588.283857 249.968991 
L 591.902633 252.883277 
L 595.521408 255.640268 
L 599.140183 258.244282 
L 602.758958 260.699585 
L 606.377734 263.01039 
L 609.996509 265.180855 
L 613.615284 267.215086 
L 617.234059 269.117132 
L 620.852835 270.890991 
L 624.47161 272.540601 
L 628.090385 274.069844 
L 631.70916 275.482543 
L 635.327936 276.782461 
L 638.946711 277.973299 
L 642.565486 279.058695 
L 646.184261 280.042221 
L 649.803037 280.927385 
L 653.421812 281.717626 
L 657.040587 282.416313 
L 660.659362 283.026747 
L 664.278138 283.552156 
L 667.896913 283.995697 
L 671.515688 284.360452 
L 675.134463 284.649432 
L 678.753239 284.865571 
L 682.372014 285.011729 
L 685.990789 285.090692 
L 689.609564 285.10517 
L 693.22834 285.057799 
L 696.847115 284.951137 
L 700.46589 284.787672 
L 704.084665 284.569816 
L 707.703441 284.299908 
L 711.322216 283.980213 
L 714.940991 283.612927 
L 718.559766 283.200173 
L 722.178542 282.744005 
L 725.797317 282.246409 
L 729.416092 281.709304 
L 733.034867 281.134542 
L 736.653643 280.523911 
L 740.272418 279.879134 
L 743.891193 279.201875 
L 747.509968 278.493736 
L 751.128744 277.75626 
L 754.747519 276.990933 
L 758.366294 276.199185 
L 761.985069 275.382393 
L 765.603845 274.54188 
L 769.22262 273.678917 
L 772.841395 272.794728 
L 776.46017 271.890486 
L 780.078946 270.967321 
L 783.697721 270.026314 
L 787.316496 269.068506 
L 790.935271 268.094892 
L 794.554047 267.106431 
L 798.172822 266.104039 
L 801.791597 265.088596 
L 805.410372 264.060945 
L 809.029148 263.021892 
L 812.647923 261.972213 
L 816.266698 260.912647 
L 819.885473 259.843906 
L 823.504249 258.766667 
L 827.123024 257.68158 
L 830.741799 256.589269 
L 834.360574 255.490327 
L 837.97935 254.385325 
L 841.598125 253.274806 
" clip-path="url(#pea35400dad)" style="fill: none; stroke: #ef4444; stroke-width: 2; stroke-linecap: square"/>
   </g>
   <g id="line2d_34">
    <path d="M 617.686406 295.61875 
L 617.686406 64.32 
" clip-path="url(#pea35400dad)" style="fill: none; stroke-dasharray: 5.55,2.4; stroke-dashoffset: 0; stroke: #f59e0b; stroke-opacity: 0.8; stroke-width: 1.5"/>
   </g>
   <g id="line2d_35">
    <path d="M 689.609564 295.61875 
L 689.609564 64.32 
" clip-path="url(#pea35400dad)" style="fill: none; stroke-dasharray: 1.2,1.98; stroke-dashoffset: 0; stroke: #22d3ee; stroke-opacity: 0.8; stroke-width: 1.2"/>
   </g>
   <g id="patch_9">
    <path d="M 483.339375 295.61875 
L 483.339375 64.32 
" style="fill: none; stroke: #1e1e2e; stroke-width: 0.8; stroke-linejoin: miter; stroke-linecap: square"/>
   </g>
   <g id="patch_10">
    <path d="M 841.598125 295.61875 
L 841.598125 64.32 
" style="fill: none; stroke: #1e1e2e; stroke-width: 0.8; stroke-linejoin: miter; stroke-linecap: square"/>
   </g>
   <g id="patch_11">
    <path d="M 483.339375 295.61875 
L 841.598125 295.61875 
" style="fill: none; stroke: #1e1e2e; stroke-width: 0.8; stroke-linejoin: miter; stroke-linecap: square"/>
   </g>
   <g id="patch_12">
    <path d="M 483.339375 64.32 
L 841.598125 64.32 
" style="fill: none; stroke: #1e1e2e; stroke-width: 0.8; stroke-linejoin: miter; stroke-linecap: square"/>
   </g>
   <g id="text_34">
    <!-- RMSE vs opacity weight (w_R=w_α=1) -->
    <g style="fill: #e2e8f0" transform="translate(546.469063 58.32) scale(0.12 -0.12)">
     <use xlink:href="#DejaVuSans-52"/>
     <use xlink:href="#DejaVuSans-4d" transform="translate(69.482422 0)"/>
     <use xlink:href="#DejaVuSans-53" transform="translate(155.761719 0)"/>
     <use xlink:href="#DejaVuSans-45" transform="translate(219.238281 0)"/>
     <use xlink:href="#DejaVuSans-20" transform="translate(282.421875 0)"/>
     <use xlink:href="#DejaVuSans-76" transform="translate(314.208984 0)"/>
     <use xlink:href="#DejaVuSans-73" transform="translate(373.388672 0)"/>
     <use xlink:href="#DejaVuSans-20" transform="translate(425.488281 0)"/>
     <use xlink:href="#DejaVuSans-6f" transform="translate(457.275391 0)"/>
     <use xlink:href="#DejaVuSans-70" transform="translate(518.457031 0)"/>
     <use xlink:href="#DejaVuSans-61" transform="translate(581.933594 0)"/>
     <use xlink:href="#DejaVuSans-63" transform="translate(643.212891 0)"/>
     <use xlink:href="#DejaVuSans-69" transform="translate(698.193359 0)"/>
     <use xlink:href="#DejaVuSans-74" transform="translate(725.976562 0)"/>
     <use xlink:href="#DejaVuSans-79" transform="translate(765.185547 0)"/>
     <use xlink:href="#DejaVuSans-20" transform="translate(824.365234 0)"/>
     <use xlink:href="#DejaVuSans-77" transform="translate(856.152344 0)"/>
     <use xlink:href="#DejaVuSans-65" transform="translate(937.939453 0)"/>
     <use xlink:href="#DejaVuSans-69" transform="translate(999.462891 0)"/>
     <use xlink:href="#DejaVuSans-67" transform="translate(1027.246094 0)"/>
     <use xlink:href="#DejaVuSans-68" transform="translate(1090.722656 0)"/>
     <use xlink:href="#DejaVuSans-74" transform="translate(1154.101562 0)"/>
     <use xlink:href="#DejaVuSans-20" transform="translate(1193.310547 0)"/>
     <use xlink:href="#DejaVuSans-28" transform="translate(1225.097656 0)"/>
     <use xlink:href="#DejaVuSans-77" transform="translate(1264.111328 0)"/>
     <use xlink:href="#DejaVuSans-5f" transform="translate(1345.898438 0)"/>
     <use xlink:href="#DejaVuSans-52" transform="translate(1395.898438 0)"/>
     <use xlink:href="#DejaVuSans-3d" transform="translate(1465.380859 0)"/>
     <use xlink:href="#DejaVuSans-77" transform="translate(1549.169922 0)"/>
     <use xlink:href="#DejaVuSans-5f" transform="translate(1630.957031 0)"/>
     <use xlink:href="#DejaVuSans-3b1" transform="translate(1680.957031 0)"/>
     <use xlink:href="#DejaVuSans-3d" transform="translate(1746.875 0)"/>
     <use xlink:href="#DejaVuSans-31" transform="translate(1830.664062 0)"/>
     <use xlink:href="#DejaVuSans-29" transform="translate(1894.287109 0)"/>
    </g>
   </g>
   <g id="legend_2">
    <g id="patch_13">
     <path d="M 739.239375 94.205 
L 835.998125 94.205 
Q 837.598125 94.205 837.598125 92.605 
L 837.598125 69.92 
Q 837.598125 68.32 835.998125 68.32 
L 739.239375 68.32 
Q 737.639375 68.32 737.639375 69.92 
L 737.639375 92.605 
Q 737.639375 94.205 739.239375 94.205 
z
" style="fill: #111118; opacity: 0.8; stroke: #1e1e2e; stroke-linejoin: miter"/>
    </g>
    <g id="line2d_36">
     <path d="M 740.839375 74.79875 
L 748.839375 74.79875 
L 756.839375 74.79875 
" style="fill: none; stroke-dasharray: 5.55,2.4; stroke-dashoffset: 0; stroke: #f59e0b; stroke-opacity: 0.8; stroke-width: 1.5"/>
    </g>
    <g id="text_35">
     <!-- equal weight (V3) -->
     <g style="fill: #9ca3af" transform="translate(763.239375 77.59875) scale(0.08 -0.08)">
      <use xlink:href="#DejaVuSans-65"/>
      <use xlink:href="#DejaVuSans-71" transform="translate(61.523438 0)"/>
      <use xlink:href="#DejaVuSans-75" transform="translate(125 0)"/>
      <use xlink:href="#DejaVuSans-61" transform="translate(188.378906 0)"/>
      <use xlink:href="#DejaVuSans-6c" transform="translate(249.658203 0)"/>
      <use xlink:href="#DejaVuSans-20" transform="translate(277.441406 0)"/>
      <use xlink:href="#DejaVuSans-77" transform="translate(309.228516 0)"/>
      <use xlink:href="#DejaVuSans-65" transform="translate(391.015625 0)"/>
      <use xlink:href="#DejaVuSans-69" transform="translate(452.539062 0)"/>
      <use xlink:href="#DejaVuSans-67" transform="translate(480.322266 0)"/>
      <use xlink:href="#DejaVuSans-68" transform="translate(543.798828 0)"/>
      <use xlink:href="#DejaVuSans-74" transform="translate(607.177734 0)"/>
      <use xlink:href="#DejaVuSans-20" transform="translate(646.386719 0)"/>
      <use xlink:href="#DejaVuSans-28" transform="translate(678.173828 0)"/>
      <use xlink:href="#DejaVuSans-56" transform="translate(717.1875 0)"/>
      <use xlink:href="#DejaVuSans-33" transform="translate(785.595703 0)"/>
      <use xlink:href="#DejaVuSans-29" transform="translate(849.21875 0)"/>
     </g>
    </g>
    <g id="line2d_37">
     <path d="M 740.839375 86.54125 
L 748.839375 86.54125 
L 756.839375 86.54125 
" style="fill: none; stroke-dasharray: 1.2,1.98; stroke-dashoffset: 0; stroke: #22d3ee; stroke-opacity: 0.8; stroke-width: 1.2"/>
    </g>
    <g id="text_36">
     <!-- min RMSE at 1.48 -->
     <g style="fill: #9ca3af" transform="translate(763.239375 89.34125) scale(0.08 -0.08)">
      <defs>
       <path id="DejaVuSans-34" d="M 2419 4116 
L 825 1625 
L 2419 1625 
L 2419 4116 
z
M 2253 4666 
L 3047 4666 
L 3047 1625 
L 3713 1625 
L 3713 1100 
L 3047 1100 
L 3047 0 
L 2419 0 
L 2419 1100 
L 313 1100 
L 313 1709 
L 2253 4666 
z
" transform="scale(0.015625)"/>
      </defs>
      <use xlink:href="#DejaVuSans-6d"/>
      <use xlink:href="#DejaVuSans-69" transform="translate(97.412109 0)"/>
      <use xlink:href="#DejaVuSans-6e" transform="translate(125.195312 0)"/>
      <use xlink:href="#DejaVuSans-20" transform="translate(188.574219 0)"/>
      <use xlink:href="#DejaVuSans-52" transform="translate(220.361328 0)"/>
      <use xlink:href="#DejaVuSans-4d" transform="translate(289.84375 0)"/>
      <use xlink:href="#DejaVuSans-53" transform="translate(376.123047 0)"/>
      <use xlink:href="#DejaVuSans-45" transform="translate(439.599609 0)"/>
      <use xlink:href="#DejaVuSans-20" transform="translate(502.783203 0)"/>
      <use xlink:href="#DejaVuSans-61" transform="translate(534.570312 0)"/>
      <use xlink:href="#DejaVuSans-74" transform="translate(595.849609 0)"/>
      <use xlink:href="#DejaVuSans-20" transform="translate(635.058594 0)"/>
      <use xlink:href="#DejaVuSans-31" transform="translate(666.845703 0)"/>
      <use xlink:href="#DejaVuSans-2e" transform="translate(730.46875 0)"/>
      <use xlink:href="#DejaVuSans-34" transform="translate(762.255859 0)"/>
      <use xlink:href="#DejaVuSans-38" transform="translate(825.878906 0)"/>
     </g>
    </g>
   </g>
  </g>
  <g id="text_37">
   <!-- G2: Sensitivity of bridge quality to opacity weighting -->
   <g style="fill: #e2e8f0" transform="translate(270.08125 16.318125) scale(0.12 -0.12)">
    <defs>
     <path id="DejaVuSans-47" d="M 3809 666 
L 3809 1919 
L 2778 1919 
L 2778 2438 
L 4434 2438 
L 4434 434 
Q 4069 175 3628 42 
Q 3188 -91 2688 -91 
Q 1594 -91 976 548 
Q 359 1188 359 2328 
Q 359 3472 976 4111 
Q 1594 4750 2688 4750 
Q 3144 4750 3555 4637 
Q 3966 4525 4313 4306 
L 4313 3634 
Q 3963 3931 3569 4081 
Q 3175 4231 2741 4231 
Q 1884 4231 1454 3753 
Q 1025 3275 1025 2328 
Q 1025 1384 1454 906 
Q 1884 428 2741 428 
Q 3075 428 3337 486 
Q 3600 544 3809 666 
z
" transform="scale(0.015625)"/>
     <path id="DejaVuSans-3a" d="M 750 794 
L 1409 794 
L 1409 0 
L 750 0 
L 750 794 
z
M 750 3309 
L 1409 3309 
L 1409 2516 
L 750 2516 
L 750 3309 
z
" transform="scale(0.015625)"/>
     <path id="DejaVuSans-66" d="M 2375 4863 
L 2375 4384 
L 1825 4384 
Q 1516 4384 1395 4259 
Q 1275 4134 1275 3809 
L 1275 3500 
L 2222 3500 
L 2222 3053 
L 1275 3053 
L 1275 0 
L 697 0 
L 697 3053 
L 147 3053 
L 147 3500 
L 697 3500 
L 697 3744 
Q 697 4328 969 4595 
Q 1241 4863 1831 4863 
L 2375 4863 
z
" transform="scale(0.015625)"/>
     <path id="DejaVuSans-62" d="M 3116 1747 
Q 3116 2381 2855 2742 
Q 2594 3103 2138 3103 
Q 1681 3103 1420 2742 
Q 1159 2381 1159 1747 
Q 1159 1113 1420 752 
Q 1681 391 2138 391 
Q 2594 391 2855 752 
Q 3116 1113 3116 1747 
z
M 1159 2969 
Q 1341 3281 1617 3432 
Q 1894 3584 2278 3584 
Q 2916 3584 3314 3078 
Q 3713 2572 3713 1747 
Q 3713 922 3314 415 
Q 2916 -91 2278 -91 
Q 1894 -91 1617 61 
Q 1341 213 1159 525 
L 1159 0 
L 581 0 
L 581 4863 
L 1159 4863 
L 1159 2969 
z
" transform="scale(0.015625)"/>
    </defs>
    <use xlink:href="#DejaVuSans-47"/>
    <use xlink:href="#DejaVuSans-32" transform="translate(77.490234 0)"/>
    <use xlink:href="#DejaVuSans-3a" transform="translate(141.113281 0)"/>
    <use xlink:href="#DejaVuSans-20" transform="translate(174.804688 0)"/>
    <use xlink:href="#DejaVuSans-53" transform="translate(206.591797 0)"/>
    <use xlink:href="#DejaVuSans-65" transform="translate(270.068359 0)"/>
    <use xlink:href="#DejaVuSans-6e" transform="translate(331.591797 0)"/>
    <use xlink:href="#DejaVuSans-73" transform="translate(394.970703 0)"/>
    <use xlink:href="#DejaVuSans-69" transform="translate(447.070312 0)"/>
    <use xlink:href="#DejaVuSans-74" transform="translate(474.853516 0)"/>
    <use xlink:href="#DejaVuSans-69" transform="translate(514.0625 0)"/>
    <use xlink:href="#DejaVuSans-76" transform="translate(541.845703 0)"/>
    <use xlink:href="#DejaVuSans-69" transform="translate(601.025391 0)"/>
    <use xlink:href="#DejaVuSans-74" transform="translate(628.808594 0)"/>
    <use xlink:href="#DejaVuSans-79" transform="translate(668.017578 0)"/>
    <use xlink:href="#DejaVuSans-20" transform="translate(727.197266 0)"/>
    <use xlink:href="#DejaVuSans-6f" transform="translate(758.984375 0)"/>
    <use xlink:href="#DejaVuSans-66" transform="translate(820.166016 0)"/>
    <use xlink:href="#DejaVuSans-20" transform="translate(855.371094 0)"/>
    <use xlink:href="#DejaVuSans-62" transform="translate(887.158203 0)"/>
    <use xlink:href="#DejaVuSans-72" transform="translate(950.634766 0)"/>
    <use xlink:href="#DejaVuSans-69" transform="translate(991.748047 0)"/>
    <use xlink:href="#DejaVuSans-64" transform="translate(1019.53125 0)"/>
    <use xlink:href="#DejaVuSans-67" transform="translate(1083.007812 0)"/>
    <use xlink:href="#DejaVuSans-65" transform="translate(1146.484375 0)"/>
    <use xlink:href="#DejaVuSans-20" transform="translate(1208.007812 0)"/>
    <use xlink:href="#DejaVuSans-71" transform="translate(1239.794922 0)"/>
    <use xlink:href="#DejaVuSans-75" transform="translate(1303.271484 0)"/>
    <use xlink:href="#DejaVuSans-61" transform="translate(1366.650391 0)"/>
    <use xlink:href="#DejaVuSans-6c" transform="translate(1427.929688 0)"/>
    <use xlink:href="#DejaVuSans-69" transform="translate(1455.712891 0)"/>
    <use xlink:href="#DejaVuSans-74" transform="translate(1483.496094 0)"/>
    <use xlink:href="#DejaVuSans-79" transform="translate(1522.705078 0)"/>
    <use xlink:href="#DejaVuSans-20" transform="translate(1581.884766 0)"/>
    <use xlink:href="#DejaVuSans-74" transform="translate(1613.671875 0)"/>
    <use xlink:href="#DejaVuSans-6f" transform="translate(1652.880859 0)"/>
    <use xlink:href="#DejaVuSans-20" transform="translate(1714.0625 0)"/>
    <use xlink:href="#DejaVuSans-6f" transform="translate(1745.849609 0)"/>
    <use xlink:href="#DejaVuSans-70" transform="translate(1807.03125 0)"/>
    <use xlink:href="#DejaVuSans-61" transform="translate(1870.507812 0)"/>
    <use xlink:href="#DejaVuSans-63" transform="translate(1931.787109 0)"/>
    <use xlink:href="#DejaVuSans-69" transform="translate(1986.767578 0)"/>
    <use xlink:href="#DejaVuSans-74" transform="translate(2014.550781 0)"/>
    <use xlink:href="#DejaVuSans-79" transform="translate(2053.759766 0)"/>
    <use xlink:href="#DejaVuSans-20" transform="translate(2112.939453 0)"/>
    <use xlink:href="#DejaVuSans-77" transform="translate(2144.726562 0)"/>
    <use xlink:href="#DejaVuSans-65" transform="translate(2226.513672 0)"/>
    <use xlink:href="#DejaVuSans-69" transform="translate(2288.037109 0)"/>
    <use xlink:href="#DejaVuSans-67" transform="translate(2315.820312 0)"/>
    <use xlink:href="#DejaVuSans-68" transform="translate(2379.296875 0)"/>
    <use xlink:href="#DejaVuSans-74" transform="translate(2442.675781 0)"/>
    <use xlink:href="#DejaVuSans-69" transform="translate(2481.884766 0)"/>
    <use xlink:href="#DejaVuSans-6e" transform="translate(2509.667969 0)"/>
    <use xlink:href="#DejaVuSans-67" transform="translate(2573.046875 0)"/>
   </g>
  </g>
 </g>
 <defs>
  <clipPath id="p267a9835ee">
   <rect x="56.784375" y="64.32" width="358.25875" height="231.29875"/>
  </clipPath>
  <clipPath id="pea35400dad">
   <rect x="483.339375" y="64.32" width="358.25875" height="231.29875"/>
  </clipPath>
 </defs>
</svg>
