<?xml version="1.0" encoding="utf-8" standalone="no"?>
<!DOCTYPE svg PUBLIC "-//W3C//DTD SVG 1.1//EN"
  "http://www.w3.org/Graphics/SVG/1.1/DTD/svg11.dtd">
<svg xmlns:xlink="http://www.w3.org/1999/xlink" width="1072.109062pt" height="351.905062pt" viewBox="0 0 1072.109062 351.905062" xmlns="http://www.w3.org/2000/svg" version="1.1">
 <metadata>
  <rdf:RDF xmlns:dc="http://purl.org/dc/elements/1.1/" xmlns:cc="http://creativecommons.org/ns#" xmlns:rdf="http://www.w3.org/1999/02/22-rdf-syntax-ns#">
   <cc:Work>
    <dc:type rdf:resource="http://purl.org/dc/dcmitype/StillImage"/>
    <dc:date>2026-02-23T02:27:02.718837</dc:date>
    <dc:format>image/svg+xml</dc:format>
    <dc:creator>
     <cc:Agent>
      <dc:title>Matplotlib v3.10.8, https://matplotlib.org/</dc:title>
     </cc:Agent>
    </dc:creator>
   </cc:Work>
  </rdf:RDF>
 </metadata>
 <defs>
  <style type="text/css">*{stroke-linejoin: round; stroke-linecap: butt}</style>
 </defs>
 <g id="figure_1">
  <g id="patch_1">
   <path d="M 0 351.905062 
L 1072.109062 351.905062 
L 1072.109062 0 
L 0 0 
z
" style="fill: #0a0a0a"/>
  </g>
  <g id="axes_1">
   <g id="patch_2">
    <path d="M 39.632812 317.25225 
L 338.871039 317.25225 
L 338.871039 31.99625 
L 39.632812 31.99625 
z
" style="fill: #111111"/>
   </g>
   <g id="matplotlib.axis_1">
    <g id="xtick_1">
     <g id="line2d_1">
      <defs>
       <path id="m39af229c3d" d="M 0 0 
L 0 3.5 
" style="stroke: #cccccc; stroke-width: 0.8"/>
      </defs>
      <g>
       <use xlink:href="#m39af229c3d" x="53.23455" y="317.25225" style="fill: #cccccc; stroke: #cccccc; stroke-width: 0.8"/>
      </g>
     </g>
     <g id="text_1">
      <!-- 3 -->
      <g style="fill: #cccccc" transform="translate(50.68955 330.331) scale(0.08 -0.08)">
       <defs>
        <path id="DejaVuSans-33" d="M 2597 2516 
Q 3050 2419 3304 2112 
Q 3559 1806 3559 1356 
Q 3559 666 3084 287 
Q 2609 -91 1734 -91 
Q 1441 -91 1130 -33 
Q 819 25 488 141 
L 488 750 
Q 750 597 1062 519 
Q 1375 441 1716 441 
Q 2309 441 2620 675 
Q 2931 909 2931 1356 
Q 2931 1769 2642 2001 
Q 2353 2234 1838 2234 
L 1294 2234 
L 1294 2753 
L 1863 2753 
Q 2328 2753 2575 2939 
Q 2822 3125 2822 3475 
Q 2822 3834 2567 4026 
Q 2313 4219 1838 4219 
Q 1578 4219 1281 4162 
Q 984 4106 628 3988 
L 628 4550 
Q 988 4650 1302 4700 
Q 1616 4750 1894 4750 
Q 2613 4750 3031 4423 
Q 3450 4097 3450 3541 
Q 3450 3153 3228 2886 
Q 3006 2619 2597 2516 
z
" transform="scale(0.015625)"/>
       </defs>
       <use xlink:href="#DejaVuSans-33"/>
      </g>
     </g>
    </g>
    <g id="xtick_2">
     <g id="line2d_2">
      <g>
       <use xlink:href="#m39af229c3d" x="98.573675" y="317.25225" style="fill: #cccccc; stroke: #cccccc; stroke-width: 0.8"/>
      </g>
     </g>
     <g id="text_2">
      <!-- 4 -->
      <g style="fill: #cccccc" transform="translate(96.028675 330.331) scale(0.08 -0.08)">
       <defs>
        <path id="DejaVuSans-34" d="M 2419 4116 
L 825 1625 
L 2419 1625 
L 2419 4116 
z
M 2253 4666 
L 3047 4666 
L 3047 1625 
L 3713 1625 
L 3713 1100 
L 3047 1100 
L 3047 0 
L 2419 0 
L 2419 1100 
L 313 1100 
L 313 1709 
L 2253 4666 
z
" transform="scale(0.015625)"/>
       </defs>
       <use xlink:href="#DejaVuSans-34"/>
      </g>
     </g>
    </g>
    <g id="xtick_3">
     <g id="line2d_3">
      <g>
       <use xlink:href="#m39af229c3d" x="143.9128" y="317.25225" style="fill: #cccccc; stroke: #cccccc; stroke-width: 0.8"/>
      </g>
     </g>
     <g id="text_3">
      <!-- 5 -->
      <g style="fill: #cccccc" transform="translate(141.3678 330.331) scale(0.08 -0.08)">
       <defs>
        <path id="DejaVuSans-35" d="M 691 4666 
L 3169 4666 
L 3169 4134 
L 1269 4134 
L 1269 2991 
Q 1406 3038 1543 3061 
Q 1681 3084 1819 3084 
Q 2600 3084 3056 2656 
Q 3513 2228 3513 1497 
Q 3513 744 3044 326 
Q 2575 -91 1722 -91 
Q 1428 -91 1123 -41 
Q 819 9 494 109 
L 494 744 
Q 775 591 1075 516 
Q 1375 441 1709 441 
Q 2250 441 2565 725 
Q 2881 1009 2881 1497 
Q 2881 1984 2565 2268 
Q 2250 2553 1709 2553 
Q 1456 2553 1204 2497 
Q 953 2441 691 2322 
L 691 4666 
z
" transform="scale(0.015625)"/>
       </defs>
       <use xlink:href="#DejaVuSans-35"/>
      </g>
     </g>
    </g>
    <g id="xtick_4">
     <g id="line2d_4">
      <g>
       <use xlink:href="#m39af229c3d" x="189.251926" y="317.25225" style="fill: #cccccc; stroke: #cccccc; stroke-width: 0.8"/>
      </g>
     </g>
     <g id="text_4">
      <!-- 6 -->
      <g style="fill: #cccccc" transform="translate(186.706926 330.331) scale(0.08 -0.08)">
       <defs>
        <path id="DejaVuSans-36" d="M 2113 2584 
Q 1688 2584 1439 2293 
Q 1191 2003 1191 1497 
Q 1191 994 1439 701 
Q 1688 409 2113 409 
Q 2538 409 2786 701 
Q 3034 994 3034 1497 
Q 3034 2003 2786 2293 
Q 2538 2584 2113 2584 
z
M 3366 4563 
L 3366 3988 
Q 3128 4100 2886 4159 
Q 2644 4219 2406 4219 
Q 1781 4219 1451 3797 
Q 1122 3375 1075 2522 
Q 1259 2794 1537 2939 
Q 1816 3084 2150 3084 
Q 2853 3084 3261 2657 
Q 3669 2231 3669 1497 
Q 3669 778 3244 343 
Q 2819 -91 2113 -91 
Q 1303 -91 875 529 
Q 447 1150 447 2328 
Q 447 3434 972 4092 
Q 1497 4750 2381 4750 
Q 2619 4750 2861 4703 
Q 3103 4656 3366 4563 
z
" transform="scale(0.015625)"/>
       </defs>
       <use xlink:href="#DejaVuSans-36"/>
      </g>
     </g>
    </g>
    <g id="xtick_5">
     <g id="line2d_5">
      <g>
       <use xlink:href="#m39af229c3d" x="234.591051" y="317.25225" style="fill: #cccccc; stroke: #cccccc; stroke-width: 0.8"/>
      </g>
     </g>
     <g id="text_5">
      <!-- 7 -->
      <g style="fill: #cccccc" transform="translate(232.046051 330.331) scale(0.08 -0.08)">
       <defs>
        <path id="DejaVuSans-37" d="M 525 4666 
L 3525 4666 
L 3525 4397 
L 1831 0 
L 1172 0 
L 2766 4134 
L 525 4134 
L 525 4666 
z
" transform="scale(0.015625)"/>
       </defs>
       <use xlink:href="#DejaVuSans-37"/>
      </g>
     </g>
    </g>
    <g id="xtick_6">
     <g id="line2d_6">
      <g>
       <use xlink:href="#m39af229c3d" x="279.930176" y="317.25225" style="fill: #cccccc; stroke: #cccccc; stroke-width: 0.8"/>
      </g>
     </g>
     <g id="text_6">
      <!-- 8 -->
      <g style="fill: #cccccc" transform="translate(277.385176 330.331) scale(0.08 -0.08)">
       <defs>
        <path id="DejaVuSans-38" d="M 2034 2216 
Q 1584 2216 1326 1975 
Q 1069 1734 1069 1313 
Q 1069 891 1326 650 
Q 1584 409 2034 409 
Q 2484 409 2743 651 
Q 3003 894 3003 1313 
Q 3003 1734 2745 1975 
Q 2488 2216 2034 2216 
z
M 1403 2484 
Q 997 2584 770 2862 
Q 544 3141 544 3541 
Q 544 4100 942 4425 
Q 1341 4750 2034 4750 
Q 2731 4750 3128 4425 
Q 3525 4100 3525 3541 
Q 3525 3141 3298 2862 
Q 3072 2584 2669 2484 
Q 3125 2378 3379 2068 
Q 3634 1759 3634 1313 
Q 3634 634 3220 271 
Q 2806 -91 2034 -91 
Q 1263 -91 848 271 
Q 434 634 434 1313 
Q 434 1759 690 2068 
Q 947 2378 1403 2484 
z
M 1172 3481 
Q 1172 3119 1398 2916 
Q 1625 2713 2034 2713 
Q 2441 2713 2670 2916 
Q 2900 3119 2900 3481 
Q 2900 3844 2670 4047 
Q 2441 4250 2034 4250 
Q 1625 4250 1398 4047 
Q 1172 3844 1172 3481 
z
" transform="scale(0.015625)"/>
       </defs>
       <use xlink:href="#DejaVuSans-38"/>
      </g>
     </g>
    </g>
    <g id="xtick_7">
     <g id="line2d_7">
      <g>
       <use xlink:href="#m39af229c3d" x="325.269301" y="317.25225" style="fill: #cccccc; stroke: #cccccc; stroke-width: 0.8"/>
      </g>
     </g>
     <g id="text_7">
      <!-- 9 -->
      <g style="fill: #cccccc" transform="translate(322.724301 330.331) scale(0.08 -0.08)">
       <defs>
        <path id="DejaVuSans-39" d="M 703 97 
L 703 672 
Q 941 559 1184 500 
Q 1428 441 1663 441 
Q 2288 441 2617 861 
Q 2947 1281 2994 2138 
Q 2813 1869 2534 1725 
Q 2256 1581 1919 1581 
Q 1219 1581 811 2004 
Q 403 2428 403 3163 
Q 403 3881 828 4315 
Q 1253 4750 1959 4750 
Q 2769 4750 3195 4129 
Q 3622 3509 3622 2328 
Q 3622 1225 3098 567 
Q 2575 -91 1691 -91 
Q 1453 -91 1209 -44 
Q 966 3 703 97 
z
M 1959 2075 
Q 2384 2075 2632 2365 
Q 2881 2656 2881 3163 
Q 2881 3666 2632 3958 
Q 2384 4250 1959 4250 
Q 1534 4250 1286 3958 
Q 1038 3666 1038 3163 
Q 1038 2656 1286 2365 
Q 1534 2075 1959 2075 
z
" transform="scale(0.015625)"/>
       </defs>
       <use xlink:href="#DejaVuSans-39"/>
      </g>
     </g>
    </g>
    <g id="text_8">
     <!-- Void Score V -->
     <g style="fill: #cccccc" transform="translate(161.121301 342.833344) scale(0.09 -0.09)">
      <defs>
       <path id="DejaVuSans-56" d="M 1831 0 
L 50 4666 
L 709 4666 
L 2188 738 
L 3669 4666 
L 4325 4666 
L 2547 0 
L 1831 0 
z
" transform="scale(0.015625)"/>
       <path id="DejaVuSans-6f" d="M 1959 3097 
Q 1497 3097 1228 2736 
Q 959 2375 959 1747 
Q 959 1119 1226 758 
Q 1494 397 1959 397 
Q 2419 397 2687 759 
Q 2956 1122 2956 1747 
Q 2956 2369 2687 2733 
Q 2419 3097 1959 3097 
z
M 1959 3584 
Q 2709 3584 3137 3096 
Q 3566 2609 3566 1747 
Q 3566 888 3137 398 
Q 2709 -91 1959 -91 
Q 1206 -91 779 398 
Q 353 888 353 1747 
Q 353 2609 779 3096 
Q 1206 3584 1959 3584 
z
" transform="scale(0.015625)"/>
       <path id="DejaVuSans-69" d="M 603 3500 
L 1178 3500 
L 1178 0 
L 603 0 
L 603 3500 
z
M 603 4863 
L 1178 4863 
L 1178 4134 
L 603 4134 
L 603 4863 
z
" transform="scale(0.015625)"/>
       <path id="DejaVuSans-64" d="M 2906 2969 
L 2906 4863 
L 3481 4863 
L 3481 0 
L 2906 0 
L 2906 525 
Q 2725 213 2448 61 
Q 2172 -91 1784 -91 
Q 1150 -91 751 415 
Q 353 922 353 1747 
Q 353 2572 751 3078 
Q 1150 3584 1784 3584 
Q 2172 3584 2448 3432 
Q 2725 3281 2906 2969 
z
M 947 1747 
Q 947 1113 1208 752 
Q 1469 391 1925 391 
Q 2381 391 2643 752 
Q 2906 1113 2906 1747 
Q 2906 2381 2643 2742 
Q 2381 3103 1925 3103 
Q 1469 3103 1208 2742 
Q 947 2381 947 1747 
z
" transform="scale(0.015625)"/>
       <path id="DejaVuSans-20" transform="scale(0.015625)"/>
       <path id="DejaVuSans-53" d="M 3425 4513 
L 3425 3897 
Q 3066 4069 2747 4153 
Q 2428 4238 2131 4238 
Q 1616 4238 1336 4038 
Q 1056 3838 1056 3469 
Q 1056 3159 1242 3001 
Q 1428 2844 1947 2747 
L 2328 2669 
Q 3034 2534 3370 2195 
Q 3706 1856 3706 1288 
Q 3706 609 3251 259 
Q 2797 -91 1919 -91 
Q 1588 -91 1214 -16 
Q 841 59 441 206 
L 441 856 
Q 825 641 1194 531 
Q 1563 422 1919 422 
Q 2459 422 2753 634 
Q 3047 847 3047 1241 
Q 3047 1584 2836 1778 
Q 2625 1972 2144 2069 
L 1759 2144 
Q 1053 2284 737 2584 
Q 422 2884 422 3419 
Q 422 4038 858 4394 
Q 1294 4750 2059 4750 
Q 2388 4750 2728 4690 
Q 3069 4631 3425 4513 
z
" transform="scale(0.015625)"/>
       <path id="DejaVuSans-63" d="M 3122 3366 
L 3122 2828 
Q 2878 2963 2633 3030 
Q 2388 3097 2138 3097 
Q 1578 3097 1268 2742 
Q 959 2388 959 1747 
Q 959 1106 1268 751 
Q 1578 397 2138 397 
Q 2388 397 2633 464 
Q 2878 531 3122 666 
L 3122 134 
Q 2881 22 2623 -34 
Q 2366 -91 2075 -91 
Q 1284 -91 818 406 
Q 353 903 353 1747 
Q 353 2603 823 3093 
Q 1294 3584 2113 3584 
Q 2378 3584 2631 3529 
Q 2884 3475 3122 3366 
z
" transform="scale(0.015625)"/>
       <path id="DejaVuSans-72" d="M 2631 2963 
Q 2534 3019 2420 3045 
Q 2306 3072 2169 3072 
Q 1681 3072 1420 2755 
Q 1159 2438 1159 1844 
L 1159 0 
L 581 0 
L 581 3500 
L 1159 3500 
L 1159 2956 
Q 1341 3275 1631 3429 
Q 1922 3584 2338 3584 
Q 2397 3584 2469 3576 
Q 2541 3569 2628 3553 
L 2631 2963 
z
" transform="scale(0.015625)"/>
       <path id="DejaVuSans-65" d="M 3597 1894 
L 3597 1613 
L 953 1613 
Q 991 1019 1311 708 
Q 1631 397 2203 397 
Q 2534 397 2845 478 
Q 3156 559 3463 722 
L 3463 178 
Q 3153 47 2828 -22 
Q 2503 -91 2169 -91 
Q 1331 -91 842 396 
Q 353 884 353 1716 
Q 353 2575 817 3079 
Q 1281 3584 2069 3584 
Q 2775 3584 3186 3129 
Q 3597 2675 3597 1894 
z
M 3022 2063 
Q 3016 2534 2758 2815 
Q 2500 3097 2075 3097 
Q 1594 3097 1305 2825 
Q 1016 2553 972 2059 
L 3022 2063 
z
" transform="scale(0.015625)"/>
      </defs>
      <use xlink:href="#DejaVuSans-56"/>
      <use xlink:href="#DejaVuSans-6f" transform="translate(60.658203 0)"/>
      <use xlink:href="#DejaVuSans-69" transform="translate(121.839844 0)"/>
      <use xlink:href="#DejaVuSans-64" transform="translate(149.623047 0)"/>
      <use xlink:href="#DejaVuSans-20" transform="translate(213.099609 0)"/>
      <use xlink:href="#DejaVuSans-53" transform="translate(244.886719 0)"/>
      <use xlink:href="#DejaVuSans-63" transform="translate(308.363281 0)"/>
      <use xlink:href="#DejaVuSans-6f" transform="translate(363.34375 0)"/>
      <use xlink:href="#DejaVuSans-72" transform="translate(424.525391 0)"/>
      <use xlink:href="#DejaVuSans-65" transform="translate(463.388672 0)"/>
      <use xlink:href="#DejaVuSans-20" transform="translate(524.912109 0)"/>
      <use xlink:href="#DejaVuSans-56" transform="translate(556.699219 0)"/>
     </g>
    </g>
   </g>
   <g id="matplotlib.axis_2">
    <g id="ytick_1">
     <g id="line2d_8">
      <defs>
       <path id="m51ddcb5c33" d="M 0 0 
L -3.5 0 
" style="stroke: #cccccc; stroke-width: 0.8"/>
      </defs>
      <g>
       <use xlink:href="#m51ddcb5c33" x="39.632812" y="315.399938" style="fill: #cccccc; stroke: #cccccc; stroke-width: 0.8"/>
      </g>
     </g>
     <g id="text_9">
      <!-- 0.0 -->
      <g style="fill: #cccccc" transform="translate(19.910312 318.439313) scale(0.08 -0.08)">
       <defs>
        <path id="DejaVuSans-30" d="M 2034 4250 
Q 1547 4250 1301 3770 
Q 1056 3291 1056 2328 
Q 1056 1369 1301 889 
Q 1547 409 2034 409 
Q 2525 409 2770 889 
Q 3016 1369 3016 2328 
Q 3016 3291 2770 3770 
Q 2525 4250 2034 4250 
z
M 2034 4750 
Q 2819 4750 3233 4129 
Q 3647 3509 3647 2328 
Q 3647 1150 3233 529 
Q 2819 -91 2034 -91 
Q 1250 -91 836 529 
Q 422 1150 422 2328 
Q 422 3509 836 4129 
Q 1250 4750 2034 4750 
z
" transform="scale(0.015625)"/>
        <path id="DejaVuSans-2e" d="M 684 794 
L 1344 794 
L 1344 0 
L 684 0 
L 684 794 
z
" transform="scale(0.015625)"/>
       </defs>
       <use xlink:href="#DejaVuSans-30"/>
       <use xlink:href="#DejaVuSans-2e" transform="translate(63.623047 0)"/>
       <use xlink:href="#DejaVuSans-30" transform="translate(95.410156 0)"/>
      </g>
     </g>
    </g>
    <g id="ytick_2">
     <g id="line2d_9">
      <g>
       <use xlink:href="#m51ddcb5c33" x="39.632812" y="278.353705" style="fill: #cccccc; stroke: #cccccc; stroke-width: 0.8"/>
      </g>
     </g>
     <g id="text_10">
      <!-- 0.1 -->
      <g style="fill: #cccccc" transform="translate(19.910312 281.39308) scale(0.08 -0.08)">
       <defs>
        <path id="DejaVuSans-31" d="M 794 531 
L 1825 531 
L 1825 4091 
L 703 3866 
L 703 4441 
L 1819 4666 
L 2450 4666 
L 2450 531 
L 3481 531 
L 3481 0 
L 794 0 
L 794 531 
z
" transform="scale(0.015625)"/>
       </defs>
       <use xlink:href="#DejaVuSans-30"/>
       <use xlink:href="#DejaVuSans-2e" transform="translate(63.623047 0)"/>
       <use xlink:href="#DejaVuSans-31" transform="translate(95.410156 0)"/>
      </g>
     </g>
    </g>
    <g id="ytick_3">
     <g id="line2d_10">
      <g>
       <use xlink:href="#m51ddcb5c33" x="39.632812" y="241.307471" style="fill: #cccccc; stroke: #cccccc; stroke-width: 0.8"/>
      </g>
     </g>
     <g id="text_11">
      <!-- 0.2 -->
      <g style="fill: #cccccc" transform="translate(19.910312 244.346846) scale(0.08 -0.08)">
       <defs>
        <path id="DejaVuSans-32" d="M 1228 531 
L 3431 531 
L 3431 0 
L 469 0 
L 469 531 
Q 828 903 1448 1529 
Q 2069 2156 2228 2338 
Q 2531 2678 2651 2914 
Q 2772 3150 2772 3378 
Q 2772 3750 2511 3984 
Q 2250 4219 1831 4219 
Q 1534 4219 1204 4116 
Q 875 4013 500 3803 
L 500 4441 
Q 881 4594 1212 4672 
Q 1544 4750 1819 4750 
Q 2544 4750 2975 4387 
Q 3406 4025 3406 3419 
Q 3406 3131 3298 2873 
Q 3191 2616 2906 2266 
Q 2828 2175 2409 1742 
Q 1991 1309 1228 531 
z
" transform="scale(0.015625)"/>
       </defs>
       <use xlink:href="#DejaVuSans-30"/>
       <use xlink:href="#DejaVuSans-2e" transform="translate(63.623047 0)"/>
       <use xlink:href="#DejaVuSans-32" transform="translate(95.410156 0)"/>
      </g>
     </g>
    </g>
    <g id="ytick_4">
     <g id="line2d_11">
      <g>
       <use xlink:href="#m51ddcb5c33" x="39.632812" y="204.261237" style="fill: #cccccc; stroke: #cccccc; stroke-width: 0.8"/>
      </g>
     </g>
     <g id="text_12">
      <!-- 0.3 -->
      <g style="fill: #cccccc" transform="translate(19.910312 207.300612) scale(0.08 -0.08)">
       <use xlink:href="#DejaVuSans-30"/>
       <use xlink:href="#DejaVuSans-2e" transform="translate(63.623047 0)"/>
       <use xlink:href="#DejaVuSans-33" transform="translate(95.410156 0)"/>
      </g>
     </g>
    </g>
    <g id="ytick_5">
     <g id="line2d_12">
      <g>
       <use xlink:href="#m51ddcb5c33" x="39.632812" y="167.215003" style="fill: #cccccc; stroke: #cccccc; stroke-width: 0.8"/>
      </g>
     </g>
     <g id="text_13">
      <!-- 0.4 -->
      <g style="fill: #cccccc" transform="translate(19.910312 170.254378) scale(0.08 -0.08)">
       <use xlink:href="#DejaVuSans-30"/>
       <use xlink:href="#DejaVuSans-2e" transform="translate(63.623047 0)"/>
       <use xlink:href="#DejaVuSans-34" transform="translate(95.410156 0)"/>
      </g>
     </g>
    </g>
    <g id="ytick_6">
     <g id="line2d_13">
      <g>
       <use xlink:href="#m51ddcb5c33" x="39.632812" y="130.168769" style="fill: #cccccc; stroke: #cccccc; stroke-width: 0.8"/>
      </g>
     </g>
     <g id="text_14">
      <!-- 0.5 -->
      <g style="fill: #cccccc" transform="translate(19.910312 133.208144) scale(0.08 -0.08)">
       <use xlink:href="#DejaVuSans-30"/>
       <use xlink:href="#DejaVuSans-2e" transform="translate(63.623047 0)"/>
       <use xlink:href="#DejaVuSans-35" transform="translate(95.410156 0)"/>
      </g>
     </g>
    </g>
    <g id="ytick_7">
     <g id="line2d_14">
      <g>
       <use xlink:href="#m51ddcb5c33" x="39.632812" y="93.122536" style="fill: #cccccc; stroke: #cccccc; stroke-width: 0.8"/>
      </g>
     </g>
     <g id="text_15">
      <!-- 0.6 -->
      <g style="fill: #cccccc" transform="translate(19.910312 96.161911) scale(0.08 -0.08)">
       <use xlink:href="#DejaVuSans-30"/>
       <use xlink:href="#DejaVuSans-2e" transform="translate(63.623047 0)"/>
       <use xlink:href="#DejaVuSans-36" transform="translate(95.410156 0)"/>
      </g>
     </g>
    </g>
    <g id="ytick_8">
     <g id="line2d_15">
      <g>
       <use xlink:href="#m51ddcb5c33" x="39.632812" y="56.076302" style="fill: #cccccc; stroke: #cccccc; stroke-width: 0.8"/>
      </g>
     </g>
     <g id="text_16">
      <!-- 0.7 -->
      <g style="fill: #cccccc" transform="translate(19.910312 59.115677) scale(0.08 -0.08)">
       <use xlink:href="#DejaVuSans-30"/>
       <use xlink:href="#DejaVuSans-2e" transform="translate(63.623047 0)"/>
       <use xlink:href="#DejaVuSans-37" transform="translate(95.410156 0)"/>
      </g>
     </g>
    </g>
    <g id="text_17">
     <!-- 5-Year Survival (Stage IV) -->
     <g style="fill: #cccccc" transform="translate(14.038594 231.460656) rotate(-90) scale(0.09 -0.09)">
      <defs>
       <path id="DejaVuSans-2d" d="M 313 2009 
L 1997 2009 
L 1997 1497 
L 313 1497 
L 313 2009 
z
" transform="scale(0.015625)"/>
       <path id="DejaVuSans-59" d="M -13 4666 
L 666 4666 
L 1959 2747 
L 3244 4666 
L 3922 4666 
L 2272 2222 
L 2272 0 
L 1638 0 
L 1638 2222 
L -13 4666 
z
" transform="scale(0.015625)"/>
       <path id="DejaVuSans-61" d="M 2194 1759 
Q 1497 1759 1228 1600 
Q 959 1441 959 1056 
Q 959 750 1161 570 
Q 1363 391 1709 391 
Q 2188 391 2477 730 
Q 2766 1069 2766 1631 
L 2766 1759 
L 2194 1759 
z
M 3341 1997 
L 3341 0 
L 2766 0 
L 2766 531 
Q 2569 213 2275 61 
Q 1981 -91 1556 -91 
Q 1019 -91 701 211 
Q 384 513 384 1019 
Q 384 1609 779 1909 
Q 1175 2209 1959 2209 
L 2766 2209 
L 2766 2266 
Q 2766 2663 2505 2880 
Q 2244 3097 1772 3097 
Q 1472 3097 1187 3025 
Q 903 2953 641 2809 
L 641 3341 
Q 956 3463 1253 3523 
Q 1550 3584 1831 3584 
Q 2591 3584 2966 3190 
Q 3341 2797 3341 1997 
z
" transform="scale(0.015625)"/>
       <path id="DejaVuSans-75" d="M 544 1381 
L 544 3500 
L 1119 3500 
L 1119 1403 
Q 1119 906 1312 657 
Q 1506 409 1894 409 
Q 2359 409 2629 706 
Q 2900 1003 2900 1516 
L 2900 3500 
L 3475 3500 
L 3475 0 
L 2900 0 
L 2900 538 
Q 2691 219 2414 64 
Q 2138 -91 1772 -91 
Q 1169 -91 856 284 
Q 544 659 544 1381 
z
M 1991 3584 
L 1991 3584 
z
" transform="scale(0.015625)"/>
       <path id="DejaVuSans-76" d="M 191 3500 
L 800 3500 
L 1894 563 
L 2988 3500 
L 3597 3500 
L 2284 0 
L 1503 0 
L 191 3500 
z
" transform="scale(0.015625)"/>
       <path id="DejaVuSans-6c" d="M 603 4863 
L 1178 4863 
L 1178 0 
L 603 0 
L 603 4863 
z
" transform="scale(0.015625)"/>
       <path id="DejaVuSans-28" d="M 1984 4856 
Q 1566 4138 1362 3434 
Q 1159 2731 1159 2009 
Q 1159 1288 1364 580 
Q 1569 -128 1984 -844 
L 1484 -844 
Q 1016 -109 783 600 
Q 550 1309 550 2009 
Q 550 2706 781 3412 
Q 1013 4119 1484 4856 
L 1984 4856 
z
" transform="scale(0.015625)"/>
       <path id="DejaVuSans-74" d="M 1172 4494 
L 1172 3500 
L 2356 3500 
L 2356 3053 
L 1172 3053 
L 1172 1153 
Q 1172 725 1289 603 
Q 1406 481 1766 481 
L 2356 481 
L 2356 0 
L 1766 0 
Q 1100 0 847 248 
Q 594 497 594 1153 
L 594 3053 
L 172 3053 
L 172 3500 
L 594 3500 
L 594 4494 
L 1172 4494 
z
" transform="scale(0.015625)"/>
       <path id="DejaVuSans-67" d="M 2906 1791 
Q 2906 2416 2648 2759 
Q 2391 3103 1925 3103 
Q 1463 3103 1205 2759 
Q 947 2416 947 1791 
Q 947 1169 1205 825 
Q 1463 481 1925 481 
Q 2391 481 2648 825 
Q 2906 1169 2906 1791 
z
M 3481 434 
Q 3481 -459 3084 -895 
Q 2688 -1331 1869 -1331 
Q 1566 -1331 1297 -1286 
Q 1028 -1241 775 -1147 
L 775 -588 
Q 1028 -725 1275 -790 
Q 1522 -856 1778 -856 
Q 2344 -856 2625 -561 
Q 2906 -266 2906 331 
L 2906 616 
Q 2728 306 2450 153 
Q 2172 0 1784 0 
Q 1141 0 747 490 
Q 353 981 353 1791 
Q 353 2603 747 3093 
Q 1141 3584 1784 3584 
Q 2172 3584 2450 3431 
Q 2728 3278 2906 2969 
L 2906 3500 
L 3481 3500 
L 3481 434 
z
" transform="scale(0.015625)"/>
       <path id="DejaVuSans-49" d="M 628 4666 
L 1259 4666 
L 1259 0 
L 628 0 
L 628 4666 
z
" transform="scale(0.015625)"/>
       <path id="DejaVuSans-29" d="M 513 4856 
L 1013 4856 
Q 1481 4119 1714 3412 
Q 1947 2706 1947 2009 
Q 1947 1309 1714 600 
Q 1481 -109 1013 -844 
L 513 -844 
Q 928 -128 1133 580 
Q 1338 1288 1338 2009 
Q 1338 2731 1133 3434 
Q 928 4138 513 4856 
z
" transform="scale(0.015625)"/>
      </defs>
      <use xlink:href="#DejaVuSans-35"/>
      <use xlink:href="#DejaVuSans-2d" transform="translate(63.623047 0)"/>
      <use xlink:href="#DejaVuSans-59" transform="translate(87.832031 0)"/>
      <use xlink:href="#DejaVuSans-65" transform="translate(135.666016 0)"/>
      <use xlink:href="#DejaVuSans-61" transform="translate(197.189453 0)"/>
      <use xlink:href="#DejaVuSans-72" transform="translate(258.46875 0)"/>
      <use xlink:href="#DejaVuSans-20" transform="translate(299.582031 0)"/>
      <use xlink:href="#DejaVuSans-53" transform="translate(331.369141 0)"/>
      <use xlink:href="#DejaVuSans-75" transform="translate(394.845703 0)"/>
      <use xlink:href="#DejaVuSans-72" transform="translate(458.224609 0)"/>
      <use xlink:href="#DejaVuSans-76" transform="translate(499.337891 0)"/>
      <use xlink:href="#DejaVuSans-69" transform="translate(558.517578 0)"/>
      <use xlink:href="#DejaVuSans-76" transform="translate(586.300781 0)"/>
      <use xlink:href="#DejaVuSans-61" transform="translate(645.480469 0)"/>
      <use xlink:href="#DejaVuSans-6c" transform="translate(706.759766 0)"/>
      <use xlink:href="#DejaVuSans-20" transform="translate(734.542969 0)"/>
      <use xlink:href="#DejaVuSans-28" transform="translate(766.330078 0)"/>
      <use xlink:href="#DejaVuSans-53" transform="translate(805.34375 0)"/>
      <use xlink:href="#DejaVuSans-74" transform="translate(868.820312 0)"/>
      <use xlink:href="#DejaVuSans-61" transform="translate(908.029297 0)"/>
      <use xlink:href="#DejaVuSans-67" transform="translate(969.308594 0)"/>
      <use xlink:href="#DejaVuSans-65" transform="translate(1032.785156 0)"/>
      <use xlink:href="#DejaVuSans-20" transform="translate(1094.308594 0)"/>
      <use xlink:href="#DejaVuSans-49" transform="translate(1126.095703 0)"/>
      <use xlink:href="#DejaVuSans-56" transform="translate(1155.587891 0)"/>
      <use xlink:href="#DejaVuSans-29" transform="translate(1223.996094 0)"/>
     </g>
    </g>
   </g>
   <g id="line2d_16">
    <path d="M 167.612798 317.25225 
L 167.612798 31.99625 
" clip-path="url(#p67cec1b5c1)" style="fill: none; stroke-dasharray: 5.55,2.4; stroke-dashoffset: 0; stroke: #ff6666; stroke-opacity: 0.5; stroke-width: 1.5"/>
   </g>
   <g id="patch_3">
    <path d="M 39.632812 317.25225 
L 39.632812 31.99625 
" style="fill: none; stroke: #333333; stroke-width: 0.8; stroke-linejoin: miter; stroke-linecap: square"/>
   </g>
   <g id="patch_4">
    <path d="M 338.871039 317.25225 
L 338.871039 31.99625 
" style="fill: none; stroke: #333333; stroke-width: 0.8; stroke-linejoin: miter; stroke-linecap: square"/>
   </g>
   <g id="patch_5">
    <path d="M 39.632812 317.25225 
L 338.871039 317.25225 
" style="fill: none; stroke: #333333; stroke-width: 0.8; stroke-linejoin: miter; stroke-linecap: square"/>
   </g>
   <g id="patch_6">
    <path d="M 39.632812 31.99625 
L 338.871039 31.99625 
" style="fill: none; stroke: #333333; stroke-width: 0.8; stroke-linejoin: miter; stroke-linecap: square"/>
   </g>
   <g id="PathCollection_1">
    <defs>
     <path id="C0_0_f7728bfca7" d="M 0 4.472136 
C 1.186024 4.472136 2.323632 4.000923 3.162278 3.162278 
C 4.000923 2.323632 4.472136 1.186024 4.472136 -0 
C 4.472136 -1.186024 4.000923 -2.323632 3.162278 -3.162278 
C 2.323632 -4.000923 1.186024 -4.472136 0 -4.472136 
C -1.186024 -4.472136 -2.323632 -4.000923 -3.162278 -3.162278 
C -4.000923 -2.323632 -4.472136 -1.186024 -4.472136 0 
C -4.472136 1.186024 -4.000923 2.323632 -3.162278 3.162278 
C -2.323632 4.000923 -1.186024 4.472136 0 4.472136 
z
"/>
    </defs>
    <g clip-path="url(#p67cec1b5c1)">
     <use xlink:href="#C0_0_f7728bfca7" x="53.23455" y="44.962432" style="fill: #888888; fill-opacity: 0.9; stroke: #888888; stroke-opacity: 0.9"/>
    </g>
    <g clip-path="url(#p67cec1b5c1)">
     <use xlink:href="#C0_0_f7728bfca7" x="98.573675" y="111.645653" style="fill: #4488cc; fill-opacity: 0.9; stroke: #4488cc; stroke-opacity: 0.9"/>
    </g>
    <g clip-path="url(#p67cec1b5c1)">
     <use xlink:href="#C0_0_f7728bfca7" x="143.9128" y="263.535211" style="fill: #88cc44; fill-opacity: 0.9; stroke: #88cc44; stroke-opacity: 0.9"/>
    </g>
    <g clip-path="url(#p67cec1b5c1)">
     <use xlink:href="#C0_0_f7728bfca7" x="189.251926" y="211.670484" style="fill: #ffaa00; fill-opacity: 0.9; stroke: #ffaa00; stroke-opacity: 0.9"/>
    </g>
    <g clip-path="url(#p67cec1b5c1)">
     <use xlink:href="#C0_0_f7728bfca7" x="189.251926" y="207.96586" style="fill: #ffaa00; fill-opacity: 0.9; stroke: #ffaa00; stroke-opacity: 0.9"/>
    </g>
    <g clip-path="url(#p67cec1b5c1)">
     <use xlink:href="#C0_0_f7728bfca7" x="234.591051" y="204.261237" style="fill: #ff8800; fill-opacity: 0.9; stroke: #ff8800; stroke-opacity: 0.9"/>
    </g>
    <g clip-path="url(#p67cec1b5c1)">
     <use xlink:href="#C0_0_f7728bfca7" x="234.591051" y="285.762951" style="fill: #ff8800; fill-opacity: 0.9; stroke: #ff8800; stroke-opacity: 0.9"/>
    </g>
    <g clip-path="url(#p67cec1b5c1)">
     <use xlink:href="#C0_0_f7728bfca7" x="279.930176" y="270.944458" style="fill: #ff4400; fill-opacity: 0.9; stroke: #ff4400; stroke-opacity: 0.9"/>
    </g>
    <g clip-path="url(#p67cec1b5c1)">
     <use xlink:href="#C0_0_f7728bfca7" x="325.269301" y="289.467575" style="fill: #ff2222; fill-opacity: 0.9; stroke: #ff2222; stroke-opacity: 0.9"/>
    </g>
    <g clip-path="url(#p67cec1b5c1)">
     <use xlink:href="#C0_0_f7728bfca7" x="325.269301" y="304.286068" style="fill: #ff2222; fill-opacity: 0.9; stroke: #ff2222; stroke-opacity: 0.9"/>
    </g>
   </g>
   <g id="text_18">
    <!-- Hodgkin -->
    <g style="fill: #aaaaaa" transform="translate(57.23455 42.962432) scale(0.06 -0.06)">
     <defs>
      <path id="DejaVuSans-48" d="M 628 4666 
L 1259 4666 
L 1259 2753 
L 3553 2753 
L 3553 4666 
L 4184 4666 
L 4184 0 
L 3553 0 
L 3553 2222 
L 1259 2222 
L 1259 0 
L 628 0 
L 628 4666 
z
" transform="scale(0.015625)"/>
      <path id="DejaVuSans-6b" d="M 581 4863 
L 1159 4863 
L 1159 1991 
L 2875 3500 
L 3609 3500 
L 1753 1863 
L 3688 0 
L 2938 0 
L 1159 1709 
L 1159 0 
L 581 0 
L 581 4863 
z
" transform="scale(0.015625)"/>
      <path id="DejaVuSans-6e" d="M 3513 2113 
L 3513 0 
L 2938 0 
L 2938 2094 
Q 2938 2591 2744 2837 
Q 2550 3084 2163 3084 
Q 1697 3084 1428 2787 
Q 1159 2491 1159 1978 
L 1159 0 
L 581 0 
L 581 3500 
L 1159 3500 
L 1159 2956 
Q 1366 3272 1645 3428 
Q 1925 3584 2291 3584 
Q 2894 3584 3203 3211 
Q 3513 2838 3513 2113 
z
" transform="scale(0.015625)"/>
     </defs>
     <use xlink:href="#DejaVuSans-48"/>
     <use xlink:href="#DejaVuSans-6f" transform="translate(75.195312 0)"/>
     <use xlink:href="#DejaVuSans-64" transform="translate(136.376953 0)"/>
     <use xlink:href="#DejaVuSans-67" transform="translate(199.853516 0)"/>
     <use xlink:href="#DejaVuSans-6b" transform="translate(263.330078 0)"/>
     <use xlink:href="#DejaVuSans-69" transform="translate(321.240234 0)"/>
     <use xlink:href="#DejaVuSans-6e" transform="translate(349.023438 0)"/>
    </g>
   </g>
   <g id="text_19">
    <!-- CLL -->
    <g style="fill: #aaaaaa" transform="translate(102.573675 109.645653) scale(0.06 -0.06)">
     <defs>
      <path id="DejaVuSans-43" d="M 4122 4306 
L 4122 3641 
Q 3803 3938 3442 4084 
Q 3081 4231 2675 4231 
Q 1875 4231 1450 3742 
Q 1025 3253 1025 2328 
Q 1025 1406 1450 917 
Q 1875 428 2675 428 
Q 3081 428 3442 575 
Q 3803 722 4122 1019 
L 4122 359 
Q 3791 134 3420 21 
Q 3050 -91 2638 -91 
Q 1578 -91 968 557 
Q 359 1206 359 2328 
Q 359 3453 968 4101 
Q 1578 4750 2638 4750 
Q 3056 4750 3426 4639 
Q 3797 4528 4122 4306 
z
" transform="scale(0.015625)"/>
      <path id="DejaVuSans-4c" d="M 628 4666 
L 1259 4666 
L 1259 531 
L 3531 531 
L 3531 0 
L 628 0 
L 628 4666 
z
" transform="scale(0.015625)"/>
     </defs>
     <use xlink:href="#DejaVuSans-43"/>
     <use xlink:href="#DejaVuSans-4c" transform="translate(69.824219 0)"/>
     <use xlink:href="#DejaVuSans-4c" transform="translate(125.537109 0)"/>
    </g>
   </g>
   <g id="text_20">
    <!-- Colorect -->
    <g style="fill: #aaaaaa" transform="translate(147.9128 261.535211) scale(0.06 -0.06)">
     <use xlink:href="#DejaVuSans-43"/>
     <use xlink:href="#DejaVuSans-6f" transform="translate(69.824219 0)"/>
     <use xlink:href="#DejaVuSans-6c" transform="translate(131.005859 0)"/>
     <use xlink:href="#DejaVuSans-6f" transform="translate(158.789062 0)"/>
     <use xlink:href="#DejaVuSans-72" transform="translate(219.970703 0)"/>
     <use xlink:href="#DejaVuSans-65" transform="translate(258.833984 0)"/>
     <use xlink:href="#DejaVuSans-63" transform="translate(320.357422 0)"/>
     <use xlink:href="#DejaVuSans-74" transform="translate(375.337891 0)"/>
    </g>
   </g>
   <g id="text_21">
    <!-- AML -->
    <g style="fill: #aaaaaa" transform="translate(193.251926 209.670484) scale(0.06 -0.06)">
     <defs>
      <path id="DejaVuSans-41" d="M 2188 4044 
L 1331 1722 
L 3047 1722 
L 2188 4044 
z
M 1831 4666 
L 2547 4666 
L 4325 0 
L 3669 0 
L 3244 1197 
L 1141 1197 
L 716 0 
L 50 0 
L 1831 4666 
z
" transform="scale(0.015625)"/>
      <path id="DejaVuSans-4d" d="M 628 4666 
L 1569 4666 
L 2759 1491 
L 3956 4666 
L 4897 4666 
L 4897 0 
L 4281 0 
L 4281 4097 
L 3078 897 
L 2444 897 
L 1241 4097 
L 1241 0 
L 628 0 
L 628 4666 
z
" transform="scale(0.015625)"/>
     </defs>
     <use xlink:href="#DejaVuSans-41"/>
     <use xlink:href="#DejaVuSans-4d" transform="translate(68.408203 0)"/>
     <use xlink:href="#DejaVuSans-4c" transform="translate(154.6875 0)"/>
    </g>
   </g>
   <g id="text_22">
    <!-- Ovarian -->
    <g style="fill: #aaaaaa" transform="translate(193.251926 205.96586) scale(0.06 -0.06)">
     <defs>
      <path id="DejaVuSans-4f" d="M 2522 4238 
Q 1834 4238 1429 3725 
Q 1025 3213 1025 2328 
Q 1025 1447 1429 934 
Q 1834 422 2522 422 
Q 3209 422 3611 934 
Q 4013 1447 4013 2328 
Q 4013 3213 3611 3725 
Q 3209 4238 2522 4238 
z
M 2522 4750 
Q 3503 4750 4090 4092 
Q 4678 3434 4678 2328 
Q 4678 1225 4090 567 
Q 3503 -91 2522 -91 
Q 1538 -91 948 565 
Q 359 1222 359 2328 
Q 359 3434 948 4092 
Q 1538 4750 2522 4750 
z
" transform="scale(0.015625)"/>
     </defs>
     <use xlink:href="#DejaVuSans-4f"/>
     <use xlink:href="#DejaVuSans-76" transform="translate(78.710938 0)"/>
     <use xlink:href="#DejaVuSans-61" transform="translate(137.890625 0)"/>
     <use xlink:href="#DejaVuSans-72" transform="translate(199.169922 0)"/>
     <use xlink:href="#DejaVuSans-69" transform="translate(240.283203 0)"/>
     <use xlink:href="#DejaVuSans-61" transform="translate(268.066406 0)"/>
     <use xlink:href="#DejaVuSans-6e" transform="translate(329.345703 0)"/>
    </g>
   </g>
   <g id="text_23">
    <!-- Melanoma -->
    <g style="fill: #aaaaaa" transform="translate(238.591051 202.261237) scale(0.06 -0.06)">
     <defs>
      <path id="DejaVuSans-6d" d="M 3328 2828 
Q 3544 3216 3844 3400 
Q 4144 3584 4550 3584 
Q 5097 3584 5394 3201 
Q 5691 2819 5691 2113 
L 5691 0 
L 5113 0 
L 5113 2094 
Q 5113 2597 4934 2840 
Q 4756 3084 4391 3084 
Q 3944 3084 3684 2787 
Q 3425 2491 3425 1978 
L 3425 0 
L 2847 0 
L 2847 2094 
Q 2847 2600 2669 2842 
Q 2491 3084 2119 3084 
Q 1678 3084 1418 2786 
Q 1159 2488 1159 1978 
L 1159 0 
L 581 0 
L 581 3500 
L 1159 3500 
L 1159 2956 
Q 1356 3278 1631 3431 
Q 1906 3584 2284 3584 
Q 2666 3584 2933 3390 
Q 3200 3197 3328 2828 
z
" transform="scale(0.015625)"/>
     </defs>
     <use xlink:href="#DejaVuSans-4d"/>
     <use xlink:href="#DejaVuSans-65" transform="translate(86.279297 0)"/>
     <use xlink:href="#DejaVuSans-6c" transform="translate(147.802734 0)"/>
     <use xlink:href="#DejaVuSans-61" transform="translate(175.585938 0)"/>
     <use xlink:href="#DejaVuSans-6e" transform="translate(236.865234 0)"/>
     <use xlink:href="#DejaVuSans-6f" transform="translate(300.244141 0)"/>
     <use xlink:href="#DejaVuSans-6d" transform="translate(361.425781 0)"/>
     <use xlink:href="#DejaVuSans-61" transform="translate(458.837891 0)"/>
    </g>
   </g>
   <g id="text_24">
    <!-- NSCLC -->
    <g style="fill: #aaaaaa" transform="translate(238.591051 283.762951) scale(0.06 -0.06)">
     <defs>
      <path id="DejaVuSans-4e" d="M 628 4666 
L 1478 4666 
L 3547 763 
L 3547 4666 
L 4159 4666 
L 4159 0 
L 3309 0 
L 1241 3903 
L 1241 0 
L 628 0 
L 628 4666 
z
" transform="scale(0.015625)"/>
     </defs>
     <use xlink:href="#DejaVuSans-4e"/>
     <use xlink:href="#DejaVuSans-53" transform="translate(74.804688 0)"/>
     <use xlink:href="#DejaVuSans-43" transform="translate(138.28125 0)"/>
     <use xlink:href="#DejaVuSans-4c" transform="translate(208.105469 0)"/>
     <use xlink:href="#DejaVuSans-43" transform="translate(263.818359 0)"/>
    </g>
   </g>
   <g id="text_25">
    <!-- Triple -->
    <g style="fill: #aaaaaa" transform="translate(283.930176 268.944458) scale(0.06 -0.06)">
     <defs>
      <path id="DejaVuSans-54" d="M -19 4666 
L 3928 4666 
L 3928 4134 
L 2272 4134 
L 2272 0 
L 1638 0 
L 1638 4134 
L -19 4134 
L -19 4666 
z
" transform="scale(0.015625)"/>
      <path id="DejaVuSans-70" d="M 1159 525 
L 1159 -1331 
L 581 -1331 
L 581 3500 
L 1159 3500 
L 1159 2969 
Q 1341 3281 1617 3432 
Q 1894 3584 2278 3584 
Q 2916 3584 3314 3078 
Q 3713 2572 3713 1747 
Q 3713 922 3314 415 
Q 2916 -91 2278 -91 
Q 1894 -91 1617 61 
Q 1341 213 1159 525 
z
M 3116 1747 
Q 3116 2381 2855 2742 
Q 2594 3103 2138 3103 
Q 1681 3103 1420 2742 
Q 1159 2381 1159 1747 
Q 1159 1113 1420 752 
Q 1681 391 2138 391 
Q 2594 391 2855 752 
Q 3116 1113 3116 1747 
z
" transform="scale(0.015625)"/>
     </defs>
     <use xlink:href="#DejaVuSans-54"/>
     <use xlink:href="#DejaVuSans-72" transform="translate(46.333984 0)"/>
     <use xlink:href="#DejaVuSans-69" transform="translate(87.447266 0)"/>
     <use xlink:href="#DejaVuSans-70" transform="translate(115.230469 0)"/>
     <use xlink:href="#DejaVuSans-6c" transform="translate(178.707031 0)"/>
     <use xlink:href="#DejaVuSans-65" transform="translate(206.490234 0)"/>
    </g>
   </g>
   <g id="text_26">
    <!-- Glioblas -->
    <g style="fill: #aaaaaa" transform="translate(329.269301 287.467575) scale(0.06 -0.06)">
     <defs>
      <path id="DejaVuSans-47" d="M 3809 666 
L 3809 1919 
L 2778 1919 
L 2778 2438 
L 4434 2438 
L 4434 434 
Q 4069 175 3628 42 
Q 3188 -91 2688 -91 
Q 1594 -91 976 548 
Q 359 1188 359 2328 
Q 359 3472 976 4111 
Q 1594 4750 2688 4750 
Q 3144 4750 3555 4637 
Q 3966 4525 4313 4306 
L 4313 3634 
Q 3963 3931 3569 4081 
Q 3175 4231 2741 4231 
Q 1884 4231 1454 3753 
Q 1025 3275 1025 2328 
Q 1025 1384 1454 906 
Q 1884 428 2741 428 
Q 3075 428 3337 486 
Q 3600 544 3809 666 
z
" transform="scale(0.015625)"/>
      <path id="DejaVuSans-62" d="M 3116 1747 
Q 3116 2381 2855 2742 
Q 2594 3103 2138 3103 
Q 1681 3103 1420 2742 
Q 1159 2381 1159 1747 
Q 1159 1113 1420 752 
Q 1681 391 2138 391 
Q 2594 391 2855 752 
Q 3116 1113 3116 1747 
z
M 1159 2969 
Q 1341 3281 1617 3432 
Q 1894 3584 2278 3584 
Q 2916 3584 3314 3078 
Q 3713 2572 3713 1747 
Q 3713 922 3314 415 
Q 2916 -91 2278 -91 
Q 1894 -91 1617 61 
Q 1341 213 1159 525 
L 1159 0 
L 581 0 
L 581 4863 
L 1159 4863 
L 1159 2969 
z
" transform="scale(0.015625)"/>
      <path id="DejaVuSans-73" d="M 2834 3397 
L 2834 2853 
Q 2591 2978 2328 3040 
Q 2066 3103 1784 3103 
Q 1356 3103 1142 2972 
Q 928 2841 928 2578 
Q 928 2378 1081 2264 
Q 1234 2150 1697 2047 
L 1894 2003 
Q 2506 1872 2764 1633 
Q 3022 1394 3022 966 
Q 3022 478 2636 193 
Q 2250 -91 1575 -91 
Q 1294 -91 989 -36 
Q 684 19 347 128 
L 347 722 
Q 666 556 975 473 
Q 1284 391 1588 391 
Q 1994 391 2212 530 
Q 2431 669 2431 922 
Q 2431 1156 2273 1281 
Q 2116 1406 1581 1522 
L 1381 1569 
Q 847 1681 609 1914 
Q 372 2147 372 2553 
Q 372 3047 722 3315 
Q 1072 3584 1716 3584 
Q 2034 3584 2315 3537 
Q 2597 3491 2834 3397 
z
" transform="scale(0.015625)"/>
     </defs>
     <use xlink:href="#DejaVuSans-47"/>
     <use xlink:href="#DejaVuSans-6c" transform="translate(77.490234 0)"/>
     <use xlink:href="#DejaVuSans-69" transform="translate(105.273438 0)"/>
     <use xlink:href="#DejaVuSans-6f" transform="translate(133.056641 0)"/>
     <use xlink:href="#DejaVuSans-62" transform="translate(194.238281 0)"/>
     <use xlink:href="#DejaVuSans-6c" transform="translate(257.714844 0)"/>
     <use xlink:href="#DejaVuSans-61" transform="translate(285.498047 0)"/>
     <use xlink:href="#DejaVuSans-73" transform="translate(346.777344 0)"/>
    </g>
   </g>
   <g id="text_27">
    <!-- Pancreat -->
    <g style="fill: #aaaaaa" transform="translate(329.269301 302.286068) scale(0.06 -0.06)">
     <defs>
      <path id="DejaVuSans-50" d="M 1259 4147 
L 1259 2394 
L 2053 2394 
Q 2494 2394 2734 2622 
Q 2975 2850 2975 3272 
Q 2975 3691 2734 3919 
Q 2494 4147 2053 4147 
L 1259 4147 
z
M 628 4666 
L 2053 4666 
Q 2838 4666 3239 4311 
Q 3641 3956 3641 3272 
Q 3641 2581 3239 2228 
Q 2838 1875 2053 1875 
L 1259 1875 
L 1259 0 
L 628 0 
L 628 4666 
z
" transform="scale(0.015625)"/>
     </defs>
     <use xlink:href="#DejaVuSans-50"/>
     <use xlink:href="#DejaVuSans-61" transform="translate(55.802734 0)"/>
     <use xlink:href="#DejaVuSans-6e" transform="translate(117.082031 0)"/>
     <use xlink:href="#DejaVuSans-63" transform="translate(180.460938 0)"/>
     <use xlink:href="#DejaVuSans-72" transform="translate(235.441406 0)"/>
     <use xlink:href="#DejaVuSans-65" transform="translate(274.304688 0)"/>
     <use xlink:href="#DejaVuSans-61" transform="translate(335.828125 0)"/>
     <use xlink:href="#DejaVuSans-74" transform="translate(397.107422 0)"/>
    </g>
   </g>
   <g id="text_28">
    <!-- Cancer Void Score vs Survival -->
    <g style="fill: #ffffff" transform="translate(114.908957 14.798437) scale(0.1 -0.1)">
     <use xlink:href="#DejaVuSans-43"/>
     <use xlink:href="#DejaVuSans-61" transform="translate(69.824219 0)"/>
     <use xlink:href="#DejaVuSans-6e" transform="translate(131.103516 0)"/>
     <use xlink:href="#DejaVuSans-63" transform="translate(194.482422 0)"/>
     <use xlink:href="#DejaVuSans-65" transform="translate(249.462891 0)"/>
     <use xlink:href="#DejaVuSans-72" transform="translate(310.986328 0)"/>
     <use xlink:href="#DejaVuSans-20" transform="translate(352.099609 0)"/>
     <use xlink:href="#DejaVuSans-56" transform="translate(383.886719 0)"/>
     <use xlink:href="#DejaVuSans-6f" transform="translate(444.544922 0)"/>
     <use xlink:href="#DejaVuSans-69" transform="translate(505.726562 0)"/>
     <use xlink:href="#DejaVuSans-64" transform="translate(533.509766 0)"/>
     <use xlink:href="#DejaVuSans-20" transform="translate(596.986328 0)"/>
     <use xlink:href="#DejaVuSans-53" transform="translate(628.773438 0)"/>
     <use xlink:href="#DejaVuSans-63" transform="translate(692.25 0)"/>
     <use xlink:href="#DejaVuSans-6f" transform="translate(747.230469 0)"/>
     <use xlink:href="#DejaVuSans-72" transform="translate(808.412109 0)"/>
     <use xlink:href="#DejaVuSans-65" transform="translate(847.275391 0)"/>
     <use xlink:href="#DejaVuSans-20" transform="translate(908.798828 0)"/>
     <use xlink:href="#DejaVuSans-76" transform="translate(940.585938 0)"/>
     <use xlink:href="#DejaVuSans-73" transform="translate(999.765625 0)"/>
     <use xlink:href="#DejaVuSans-20" transform="translate(1051.865234 0)"/>
     <use xlink:href="#DejaVuSans-53" transform="translate(1083.652344 0)"/>
     <use xlink:href="#DejaVuSans-75" transform="translate(1147.128906 0)"/>
     <use xlink:href="#DejaVuSans-72" transform="translate(1210.507812 0)"/>
     <use xlink:href="#DejaVuSans-76" transform="translate(1251.621094 0)"/>
     <use xlink:href="#DejaVuSans-69" transform="translate(1310.800781 0)"/>
     <use xlink:href="#DejaVuSans-76" transform="translate(1338.583984 0)"/>
     <use xlink:href="#DejaVuSans-61" transform="translate(1397.763672 0)"/>
     <use xlink:href="#DejaVuSans-6c" transform="translate(1459.042969 0)"/>
    </g>
    <!-- (Stage IV, NCI SEER 2022) -->
    <g style="fill: #ffffff" transform="translate(123.661301 25.99625) scale(0.1 -0.1)">
     <defs>
      <path id="DejaVuSans-2c" d="M 750 794 
L 1409 794 
L 1409 256 
L 897 -744 
L 494 -744 
L 750 256 
L 750 794 
z
" transform="scale(0.015625)"/>
      <path id="DejaVuSans-45" d="M 628 4666 
L 3578 4666 
L 3578 4134 
L 1259 4134 
L 1259 2753 
L 3481 2753 
L 3481 2222 
L 1259 2222 
L 1259 531 
L 3634 531 
L 3634 0 
L 628 0 
L 628 4666 
z
" transform="scale(0.015625)"/>
      <path id="DejaVuSans-52" d="M 2841 2188 
Q 3044 2119 3236 1894 
Q 3428 1669 3622 1275 
L 4263 0 
L 3584 0 
L 2988 1197 
Q 2756 1666 2539 1819 
Q 2322 1972 1947 1972 
L 1259 1972 
L 1259 0 
L 628 0 
L 628 4666 
L 2053 4666 
Q 2853 4666 3247 4331 
Q 3641 3997 3641 3322 
Q 3641 2881 3436 2590 
Q 3231 2300 2841 2188 
z
M 1259 4147 
L 1259 2491 
L 2053 2491 
Q 2509 2491 2742 2702 
Q 2975 2913 2975 3322 
Q 2975 3731 2742 3939 
Q 2509 4147 2053 4147 
L 1259 4147 
z
" transform="scale(0.015625)"/>
     </defs>
     <use xlink:href="#DejaVuSans-28"/>
     <use xlink:href="#DejaVuSans-53" transform="translate(39.013672 0)"/>
     <use xlink:href="#DejaVuSans-74" transform="translate(102.490234 0)"/>
     <use xlink:href="#DejaVuSans-61" transform="translate(141.699219 0)"/>
     <use xlink:href="#DejaVuSans-67" transform="translate(202.978516 0)"/>
     <use xlink:href="#DejaVuSans-65" transform="translate(266.455078 0)"/>
     <use xlink:href="#DejaVuSans-20" transform="translate(327.978516 0)"/>
     <use xlink:href="#DejaVuSans-49" transform="translate(359.765625 0)"/>
     <use xlink:href="#DejaVuSans-56" transform="translate(389.257812 0)"/>
     <use xlink:href="#DejaVuSans-2c" transform="translate(457.666016 0)"/>
     <use xlink:href="#DejaVuSans-20" transform="translate(489.453125 0)"/>
     <use xlink:href="#DejaVuSans-4e" transform="translate(521.240234 0)"/>
     <use xlink:href="#DejaVuSans-43" transform="translate(596.044922 0)"/>
     <use xlink:href="#DejaVuSans-49" transform="translate(665.869141 0)"/>
     <use xlink:href="#DejaVuSans-20" transform="translate(695.361328 0)"/>
     <use xlink:href="#DejaVuSans-53" transform="translate(727.148438 0)"/>
     <use xlink:href="#DejaVuSans-45" transform="translate(790.625 0)"/>
     <use xlink:href="#DejaVuSans-45" transform="translate(853.808594 0)"/>
     <use xlink:href="#DejaVuSans-52" transform="translate(916.992188 0)"/>
     <use xlink:href="#DejaVuSans-20" transform="translate(986.474609 0)"/>
     <use xlink:href="#DejaVuSans-32" transform="translate(1018.261719 0)"/>
     <use xlink:href="#DejaVuSans-30" transform="translate(1081.884766 0)"/>
     <use xlink:href="#DejaVuSans-32" transform="translate(1145.507812 0)"/>
     <use xlink:href="#DejaVuSans-32" transform="translate(1209.130859 0)"/>
     <use xlink:href="#DejaVuSans-29" transform="translate(1272.753906 0)"/>
    </g>
   </g>
   <g id="legend_1">
    <g id="patch_7">
     <path d="M 286.284633 47.870937 
L 333.971039 47.870937 
Q 335.371039 47.870937 335.371039 46.470937 
L 335.371039 36.89625 
Q 335.371039 35.49625 333.971039 35.49625 
L 286.284633 35.49625 
Q 284.884633 35.49625 284.884633 36.89625 
L 284.884633 46.470937 
Q 284.884633 47.870937 286.284633 47.870937 
z
" style="fill: #ffffff; opacity: 0.2; stroke: #cccccc; stroke-linejoin: miter"/>
    </g>
    <g id="line2d_17">
     <path d="M 287.684633 41.165156 
L 294.684633 41.165156 
L 301.684633 41.165156 
" style="fill: none; stroke-dasharray: 5.55,2.4; stroke-dashoffset: 0; stroke: #ff6666; stroke-opacity: 0.5; stroke-width: 1.5"/>
    </g>
    <g id="text_29">
     <!-- V*=5.5 -->
     <g style="fill: #cccccc" transform="translate(307.284633 43.615156) scale(0.07 -0.07)">
      <defs>
       <path id="DejaVuSans-2a" d="M 3009 3897 
L 1888 3291 
L 3009 2681 
L 2828 2375 
L 1778 3009 
L 1778 1831 
L 1422 1831 
L 1422 3009 
L 372 2375 
L 191 2681 
L 1313 3291 
L 191 3897 
L 372 4206 
L 1422 3572 
L 1422 4750 
L 1778 4750 
L 1778 3572 
L 2828 4206 
L 3009 3897 
z
" transform="scale(0.015625)"/>
       <path id="DejaVuSans-3d" d="M 678 2906 
L 4684 2906 
L 4684 2381 
L 678 2381 
L 678 2906 
z
M 678 1631 
L 4684 1631 
L 4684 1100 
L 678 1100 
L 678 1631 
z
" transform="scale(0.015625)"/>
      </defs>
      <use xlink:href="#DejaVuSans-56"/>
      <use xlink:href="#DejaVuSans-2a" transform="translate(68.408203 0)"/>
      <use xlink:href="#DejaVuSans-3d" transform="translate(118.408203 0)"/>
      <use xlink:href="#DejaVuSans-35" transform="translate(202.197266 0)"/>
      <use xlink:href="#DejaVuSans-2e" transform="translate(265.820312 0)"/>
      <use xlink:href="#DejaVuSans-35" transform="translate(297.607422 0)"/>
     </g>
    </g>
   </g>
  </g>
  <g id="axes_2">
   <g id="patch_8">
    <path d="M 399.471199 317.25225 
L 698.709426 317.25225 
L 698.709426 31.99625 
L 399.471199 31.99625 
z
" style="fill: #111111"/>
   </g>
   <g id="patch_9">
    <path d="M 413.072937 317.25225 
L 467.479887 317.25225 
L 467.479887 239.455159 
L 413.072937 239.455159 
z
" clip-path="url(#p6bb29d7a9b)" style="fill: #4488cc; opacity: 0.75"/>
   </g>
   <g id="patch_10">
    <path d="M 521.886837 317.25225 
L 576.293788 317.25225 
L 576.293788 161.658068 
L 521.886837 161.658068 
z
" clip-path="url(#p6bb29d7a9b)" style="fill: #ffaa00; opacity: 0.75"/>
   </g>
   <g id="patch_11">
    <path d="M 630.700738 317.25225 
L 685.107688 317.25225 
L 685.107688 109.793341 
L 630.700738 109.793341 
z
" clip-path="url(#p6bb29d7a9b)" style="fill: #ff2222; opacity: 0.75"/>
   </g>
   <g id="matplotlib.axis_3">
    <g id="xtick_8">
     <g id="line2d_18">
      <g>
       <use xlink:href="#m39af229c3d" x="440.276412" y="317.25225" style="fill: #cccccc; stroke: #cccccc; stroke-width: 0.8"/>
      </g>
     </g>
     <g id="text_30">
      <!-- D1 -->
      <g style="fill: #cccccc" transform="translate(434.651412 330.331) scale(0.08 -0.08)">
       <defs>
        <path id="DejaVuSans-44" d="M 1259 4147 
L 1259 519 
L 2022 519 
Q 2988 519 3436 956 
Q 3884 1394 3884 2338 
Q 3884 3275 3436 3711 
Q 2988 4147 2022 4147 
L 1259 4147 
z
M 628 4666 
L 1925 4666 
Q 3281 4666 3915 4102 
Q 4550 3538 4550 2338 
Q 4550 1131 3912 565 
Q 3275 0 1925 0 
L 628 0 
L 628 4666 
z
" transform="scale(0.015625)"/>
       </defs>
       <use xlink:href="#DejaVuSans-44"/>
       <use xlink:href="#DejaVuSans-31" transform="translate(77.001953 0)"/>
      </g>
      <!-- Oncogenesis -->
      <g style="fill: #cccccc" transform="translate(414.670162 339.28925) scale(0.08 -0.08)">
       <use xlink:href="#DejaVuSans-4f"/>
       <use xlink:href="#DejaVuSans-6e" transform="translate(78.710938 0)"/>
       <use xlink:href="#DejaVuSans-63" transform="translate(142.089844 0)"/>
       <use xlink:href="#DejaVuSans-6f" transform="translate(197.070312 0)"/>
       <use xlink:href="#DejaVuSans-67" transform="translate(258.251953 0)"/>
       <use xlink:href="#DejaVuSans-65" transform="translate(321.728516 0)"/>
       <use xlink:href="#DejaVuSans-6e" transform="translate(383.251953 0)"/>
       <use xlink:href="#DejaVuSans-65" transform="translate(446.630859 0)"/>
       <use xlink:href="#DejaVuSans-73" transform="translate(508.154297 0)"/>
       <use xlink:href="#DejaVuSans-69" transform="translate(560.253906 0)"/>
       <use xlink:href="#DejaVuSans-73" transform="translate(588.037109 0)"/>
      </g>
     </g>
    </g>
    <g id="xtick_9">
     <g id="line2d_19">
      <g>
       <use xlink:href="#m39af229c3d" x="549.090312" y="317.25225" style="fill: #cccccc; stroke: #cccccc; stroke-width: 0.8"/>
      </g>
     </g>
     <g id="text_31">
      <!-- D2 -->
      <g style="fill: #cccccc" transform="translate(543.465312 330.331) scale(0.08 -0.08)">
       <use xlink:href="#DejaVuSans-44"/>
       <use xlink:href="#DejaVuSans-32" transform="translate(77.001953 0)"/>
      </g>
      <!-- Immune Evasion -->
      <g style="fill: #cccccc" transform="translate(515.791562 339.28925) scale(0.08 -0.08)">
       <use xlink:href="#DejaVuSans-49"/>
       <use xlink:href="#DejaVuSans-6d" transform="translate(29.492188 0)"/>
       <use xlink:href="#DejaVuSans-6d" transform="translate(126.904297 0)"/>
       <use xlink:href="#DejaVuSans-75" transform="translate(224.316406 0)"/>
       <use xlink:href="#DejaVuSans-6e" transform="translate(287.695312 0)"/>
       <use xlink:href="#DejaVuSans-65" transform="translate(351.074219 0)"/>
       <use xlink:href="#DejaVuSans-20" transform="translate(412.597656 0)"/>
       <use xlink:href="#DejaVuSans-45" transform="translate(444.384766 0)"/>
       <use xlink:href="#DejaVuSans-76" transform="translate(507.568359 0)"/>
       <use xlink:href="#DejaVuSans-61" transform="translate(566.748047 0)"/>
       <use xlink:href="#DejaVuSans-73" transform="translate(628.027344 0)"/>
       <use xlink:href="#DejaVuSans-69" transform="translate(680.126953 0)"/>
       <use xlink:href="#DejaVuSans-6f" transform="translate(707.910156 0)"/>
       <use xlink:href="#DejaVuSans-6e" transform="translate(769.091797 0)"/>
      </g>
     </g>
    </g>
    <g id="xtick_10">
     <g id="line2d_20">
      <g>
       <use xlink:href="#m39af229c3d" x="657.904213" y="317.25225" style="fill: #cccccc; stroke: #cccccc; stroke-width: 0.8"/>
      </g>
     </g>
     <g id="text_32">
      <!-- D3 -->
      <g style="fill: #cccccc" transform="translate(652.279213 330.331) scale(0.08 -0.08)">
       <use xlink:href="#DejaVuSans-44"/>
       <use xlink:href="#DejaVuSans-33" transform="translate(77.001953 0)"/>
      </g>
      <!-- Metastasis -->
      <g style="fill: #cccccc" transform="translate(636.590463 339.28925) scale(0.08 -0.08)">
       <use xlink:href="#DejaVuSans-4d"/>
       <use xlink:href="#DejaVuSans-65" transform="translate(86.279297 0)"/>
       <use xlink:href="#DejaVuSans-74" transform="translate(147.802734 0)"/>
       <use xlink:href="#DejaVuSans-61" transform="translate(187.011719 0)"/>
       <use xlink:href="#DejaVuSans-73" transform="translate(248.291016 0)"/>
       <use xlink:href="#DejaVuSans-74" transform="translate(300.390625 0)"/>
       <use xlink:href="#DejaVuSans-61" transform="translate(339.599609 0)"/>
       <use xlink:href="#DejaVuSans-73" transform="translate(400.878906 0)"/>
       <use xlink:href="#DejaVuSans-69" transform="translate(452.978516 0)"/>
       <use xlink:href="#DejaVuSans-73" transform="translate(480.761719 0)"/>
      </g>
     </g>
    </g>
   </g>
   <g id="matplotlib.axis_4">
    <g id="ytick_9">
     <g id="line2d_21">
      <g>
       <use xlink:href="#m51ddcb5c33" x="399.471199" y="317.25225" style="fill: #cccccc; stroke: #cccccc; stroke-width: 0.8"/>
      </g>
     </g>
     <g id="text_33">
      <!-- 0 -->
      <g style="fill: #cccccc" transform="translate(387.381199 320.291625) scale(0.08 -0.08)">
       <use xlink:href="#DejaVuSans-30"/>
      </g>
     </g>
    </g>
    <g id="ytick_10">
     <g id="line2d_22">
      <g>
       <use xlink:href="#m51ddcb5c33" x="399.471199" y="265.387523" style="fill: #cccccc; stroke: #cccccc; stroke-width: 0.8"/>
      </g>
     </g>
     <g id="text_34">
      <!-- 2 -->
      <g style="fill: #cccccc" transform="translate(387.381199 268.426898) scale(0.08 -0.08)">
       <use xlink:href="#DejaVuSans-32"/>
      </g>
     </g>
    </g>
    <g id="ytick_11">
     <g id="line2d_23">
      <g>
       <use xlink:href="#m51ddcb5c33" x="399.471199" y="213.522795" style="fill: #cccccc; stroke: #cccccc; stroke-width: 0.8"/>
      </g>
     </g>
     <g id="text_35">
      <!-- 4 -->
      <g style="fill: #cccccc" transform="translate(387.381199 216.56217) scale(0.08 -0.08)">
       <use xlink:href="#DejaVuSans-34"/>
      </g>
     </g>
    </g>
    <g id="ytick_12">
     <g id="line2d_24">
      <g>
       <use xlink:href="#m51ddcb5c33" x="399.471199" y="161.658068" style="fill: #cccccc; stroke: #cccccc; stroke-width: 0.8"/>
      </g>
     </g>
     <g id="text_36">
      <!-- 6 -->
      <g style="fill: #cccccc" transform="translate(387.381199 164.697443) scale(0.08 -0.08)">
       <use xlink:href="#DejaVuSans-36"/>
      </g>
     </g>
    </g>
    <g id="ytick_13">
     <g id="line2d_25">
      <g>
       <use xlink:href="#m51ddcb5c33" x="399.471199" y="109.793341" style="fill: #cccccc; stroke: #cccccc; stroke-width: 0.8"/>
      </g>
     </g>
     <g id="text_37">
      <!-- 8 -->
      <g style="fill: #cccccc" transform="translate(387.381199 112.832716) scale(0.08 -0.08)">
       <use xlink:href="#DejaVuSans-38"/>
      </g>
     </g>
    </g>
    <g id="ytick_14">
     <g id="line2d_26">
      <g>
       <use xlink:href="#m51ddcb5c33" x="399.471199" y="57.928614" style="fill: #cccccc; stroke: #cccccc; stroke-width: 0.8"/>
      </g>
     </g>
     <g id="text_38">
      <!-- 10 -->
      <g style="fill: #cccccc" transform="translate(382.291199 60.967989) scale(0.08 -0.08)">
       <use xlink:href="#DejaVuSans-31"/>
       <use xlink:href="#DejaVuSans-30" transform="translate(63.623047 0)"/>
      </g>
     </g>
    </g>
    <g id="text_39">
     <!-- Minimum V Score Required -->
     <g style="fill: #cccccc" transform="translate(376.419481 235.474797) rotate(-90) scale(0.09 -0.09)">
      <defs>
       <path id="DejaVuSans-71" d="M 947 1747 
Q 947 1113 1208 752 
Q 1469 391 1925 391 
Q 2381 391 2643 752 
Q 2906 1113 2906 1747 
Q 2906 2381 2643 2742 
Q 2381 3103 1925 3103 
Q 1469 3103 1208 2742 
Q 947 2381 947 1747 
z
M 2906 525 
Q 2725 213 2448 61 
Q 2172 -91 1784 -91 
Q 1150 -91 751 415 
Q 353 922 353 1747 
Q 353 2572 751 3078 
Q 1150 3584 1784 3584 
Q 2172 3584 2448 3432 
Q 2725 3281 2906 2969 
L 2906 3500 
L 3481 3500 
L 3481 -1331 
L 2906 -1331 
L 2906 525 
z
" transform="scale(0.015625)"/>
      </defs>
      <use xlink:href="#DejaVuSans-4d"/>
      <use xlink:href="#DejaVuSans-69" transform="translate(86.279297 0)"/>
      <use xlink:href="#DejaVuSans-6e" transform="translate(114.0625 0)"/>
      <use xlink:href="#DejaVuSans-69" transform="translate(177.441406 0)"/>
      <use xlink:href="#DejaVuSans-6d" transform="translate(205.224609 0)"/>
      <use xlink:href="#DejaVuSans-75" transform="translate(302.636719 0)"/>
      <use xlink:href="#DejaVuSans-6d" transform="translate(366.015625 0)"/>
      <use xlink:href="#DejaVuSans-20" transform="translate(463.427734 0)"/>
      <use xlink:href="#DejaVuSans-56" transform="translate(495.214844 0)"/>
      <use xlink:href="#DejaVuSans-20" transform="translate(563.623047 0)"/>
      <use xlink:href="#DejaVuSans-53" transform="translate(595.410156 0)"/>
      <use xlink:href="#DejaVuSans-63" transform="translate(658.886719 0)"/>
      <use xlink:href="#DejaVuSans-6f" transform="translate(713.867188 0)"/>
      <use xlink:href="#DejaVuSans-72" transform="translate(775.048828 0)"/>
      <use xlink:href="#DejaVuSans-65" transform="translate(813.912109 0)"/>
      <use xlink:href="#DejaVuSans-20" transform="translate(875.435547 0)"/>
      <use xlink:href="#DejaVuSans-52" transform="translate(907.222656 0)"/>
      <use xlink:href="#DejaVuSans-65" transform="translate(972.205078 0)"/>
      <use xlink:href="#DejaVuSans-71" transform="translate(1033.728516 0)"/>
      <use xlink:href="#DejaVuSans-75" transform="translate(1097.205078 0)"/>
      <use xlink:href="#DejaVuSans-69" transform="translate(1160.583984 0)"/>
      <use xlink:href="#DejaVuSans-72" transform="translate(1188.367188 0)"/>
      <use xlink:href="#DejaVuSans-65" transform="translate(1227.230469 0)"/>
      <use xlink:href="#DejaVuSans-64" transform="translate(1288.753906 0)"/>
     </g>
    </g>
   </g>
   <g id="line2d_27">
    <path d="M 399.471199 174.034878 
L 698.709426 174.034878 
" clip-path="url(#p6bb29d7a9b)" style="fill: none; stroke-dasharray: 5.55,2.4; stroke-dashoffset: 0; stroke: #ff6666; stroke-opacity: 0.7; stroke-width: 1.5"/>
   </g>
   <g id="patch_12">
    <path d="M 399.471199 317.25225 
L 399.471199 31.99625 
" style="fill: none; stroke: #333333; stroke-width: 0.8; stroke-linejoin: miter; stroke-linecap: square"/>
   </g>
   <g id="patch_13">
    <path d="M 698.709426 317.25225 
L 698.709426 31.99625 
" style="fill: none; stroke: #333333; stroke-width: 0.8; stroke-linejoin: miter; stroke-linecap: square"/>
   </g>
   <g id="patch_14">
    <path d="M 399.471199 317.25225 
L 698.709426 317.25225 
" style="fill: none; stroke: #333333; stroke-width: 0.8; stroke-linejoin: miter; stroke-linecap: square"/>
   </g>
   <g id="patch_15">
    <path d="M 399.471199 31.99625 
L 698.709426 31.99625 
" style="fill: none; stroke: #333333; stroke-width: 0.8; stroke-linejoin: miter; stroke-linecap: square"/>
   </g>
   <g id="text_40">
    <!-- V3 -->
    <g style="fill: #ffffff" transform="translate(430.564146 234.990204) scale(0.09 -0.09)">
     <defs>
      <path id="DejaVuSans-2265" d="M 678 3175 
L 678 3725 
L 4684 2578 
L 4684 2047 
L 678 897 
L 678 1453 
L 3681 2309 
L 678 3175 
z
M 4684 531 
L 4684 0 
L 678 0 
L 678 531 
L 4684 531 
z
" transform="scale(0.015625)"/>
     </defs>
     <use xlink:href="#DejaVuSans-56"/>
     <use xlink:href="#DejaVuSans-2265" transform="translate(68.408203 0)"/>
     <use xlink:href="#DejaVuSans-33" transform="translate(152.197266 0)"/>
    </g>
   </g>
   <g id="text_41">
    <!-- V6 -->
    <g style="fill: #ffffff" transform="translate(539.378047 157.193113) scale(0.09 -0.09)">
     <use xlink:href="#DejaVuSans-56"/>
     <use xlink:href="#DejaVuSans-2265" transform="translate(68.408203 0)"/>
     <use xlink:href="#DejaVuSans-36" transform="translate(152.197266 0)"/>
    </g>
   </g>
   <g id="text_42">
    <!-- V8 -->
    <g style="fill: #ffffff" transform="translate(648.191947 105.328386) scale(0.09 -0.09)">
     <use xlink:href="#DejaVuSans-56"/>
     <use xlink:href="#DejaVuSans-2265" transform="translate(68.408203 0)"/>
     <use xlink:href="#DejaVuSans-38" transform="translate(152.197266 0)"/>
    </g>
   </g>
   <g id="text_43">
    <!-- D1D2D3 Minimum V Requirement -->
    <g style="fill: #ffffff" transform="translate(456.105937 14.798437) scale(0.1 -0.1)">
     <defs>
      <path id="DejaVuSans-2192" d="M 5050 2147 
L 5050 1866 
L 3822 638 
L 3447 1013 
L 4175 1741 
L 366 1741 
L 366 2272 
L 4175 2272 
L 3447 3000 
L 3822 3375 
L 5050 2147 
z
" transform="scale(0.015625)"/>
     </defs>
     <use xlink:href="#DejaVuSans-44"/>
     <use xlink:href="#DejaVuSans-31" transform="translate(77.001953 0)"/>
     <use xlink:href="#DejaVuSans-2192" transform="translate(140.625 0)"/>
     <use xlink:href="#DejaVuSans-44" transform="translate(224.414062 0)"/>
     <use xlink:href="#DejaVuSans-32" transform="translate(301.416016 0)"/>
     <use xlink:href="#DejaVuSans-2192" transform="translate(365.039062 0)"/>
     <use xlink:href="#DejaVuSans-44" transform="translate(448.828125 0)"/>
     <use xlink:href="#DejaVuSans-33" transform="translate(525.830078 0)"/>
     <use xlink:href="#DejaVuSans-20" transform="translate(589.453125 0)"/>
     <use xlink:href="#DejaVuSans-4d" transform="translate(621.240234 0)"/>
     <use xlink:href="#DejaVuSans-69" transform="translate(707.519531 0)"/>
     <use xlink:href="#DejaVuSans-6e" transform="translate(735.302734 0)"/>
     <use xlink:href="#DejaVuSans-69" transform="translate(798.681641 0)"/>
     <use xlink:href="#DejaVuSans-6d" transform="translate(826.464844 0)"/>
     <use xlink:href="#DejaVuSans-75" transform="translate(923.876953 0)"/>
     <use xlink:href="#DejaVuSans-6d" transform="translate(987.255859 0)"/>
     <use xlink:href="#DejaVuSans-20" transform="translate(1084.667969 0)"/>
     <use xlink:href="#DejaVuSans-56" transform="translate(1116.455078 0)"/>
     <use xlink:href="#DejaVuSans-20" transform="translate(1184.863281 0)"/>
     <use xlink:href="#DejaVuSans-52" transform="translate(1216.650391 0)"/>
     <use xlink:href="#DejaVuSans-65" transform="translate(1281.632812 0)"/>
     <use xlink:href="#DejaVuSans-71" transform="translate(1343.15625 0)"/>
     <use xlink:href="#DejaVuSans-75" transform="translate(1406.632812 0)"/>
     <use xlink:href="#DejaVuSans-69" transform="translate(1470.011719 0)"/>
     <use xlink:href="#DejaVuSans-72" transform="translate(1497.794922 0)"/>
     <use xlink:href="#DejaVuSans-65" transform="translate(1536.658203 0)"/>
     <use xlink:href="#DejaVuSans-6d" transform="translate(1598.181641 0)"/>
     <use xlink:href="#DejaVuSans-65" transform="translate(1695.59375 0)"/>
     <use xlink:href="#DejaVuSans-6e" transform="translate(1757.117188 0)"/>
     <use xlink:href="#DejaVuSans-74" transform="translate(1820.496094 0)"/>
    </g>
    <!-- Cascade Structure -->
    <g style="fill: #ffffff" transform="translate(503.020781 25.99625) scale(0.1 -0.1)">
     <use xlink:href="#DejaVuSans-43"/>
     <use xlink:href="#DejaVuSans-61" transform="translate(69.824219 0)"/>
     <use xlink:href="#DejaVuSans-73" transform="translate(131.103516 0)"/>
     <use xlink:href="#DejaVuSans-63" transform="translate(183.203125 0)"/>
     <use xlink:href="#DejaVuSans-61" transform="translate(238.183594 0)"/>
     <use xlink:href="#DejaVuSans-64" transform="translate(299.462891 0)"/>
     <use xlink:href="#DejaVuSans-65" transform="translate(362.939453 0)"/>
     <use xlink:href="#DejaVuSans-20" transform="translate(424.462891 0)"/>
     <use xlink:href="#DejaVuSans-53" transform="translate(456.25 0)"/>
     <use xlink:href="#DejaVuSans-74" transform="translate(519.726562 0)"/>
     <use xlink:href="#DejaVuSans-72" transform="translate(558.935547 0)"/>
     <use xlink:href="#DejaVuSans-75" transform="translate(600.048828 0)"/>
     <use xlink:href="#DejaVuSans-63" transform="translate(663.427734 0)"/>
     <use xlink:href="#DejaVuSans-74" transform="translate(718.408203 0)"/>
     <use xlink:href="#DejaVuSans-75" transform="translate(757.617188 0)"/>
     <use xlink:href="#DejaVuSans-72" transform="translate(820.996094 0)"/>
     <use xlink:href="#DejaVuSans-65" transform="translate(859.859375 0)"/>
    </g>
   </g>
   <g id="legend_2">
    <g id="patch_16">
     <path d="M 646.123019 47.870937 
L 693.809426 47.870937 
Q 695.209426 47.870937 695.209426 46.470937 
L 695.209426 36.89625 
Q 695.209426 35.49625 693.809426 35.49625 
L 646.123019 35.49625 
Q 644.723019 35.49625 644.723019 36.89625 
L 644.723019 46.470937 
Q 644.723019 47.870937 646.123019 47.870937 
z
" style="fill: #ffffff; opacity: 0.2; stroke: #cccccc; stroke-linejoin: miter"/>
    </g>
    <g id="line2d_28">
     <path d="M 647.523019 41.165156 
L 654.523019 41.165156 
L 661.523019 41.165156 
" style="fill: none; stroke-dasharray: 5.55,2.4; stroke-dashoffset: 0; stroke: #ff6666; stroke-opacity: 0.7; stroke-width: 1.5"/>
    </g>
    <g id="text_44">
     <!-- V*=5.5 -->
     <g style="fill: #cccccc" transform="translate(667.123019 43.615156) scale(0.07 -0.07)">
      <use xlink:href="#DejaVuSans-56"/>
      <use xlink:href="#DejaVuSans-2a" transform="translate(68.408203 0)"/>
      <use xlink:href="#DejaVuSans-3d" transform="translate(118.408203 0)"/>
      <use xlink:href="#DejaVuSans-35" transform="translate(202.197266 0)"/>
      <use xlink:href="#DejaVuSans-2e" transform="translate(265.820312 0)"/>
      <use xlink:href="#DejaVuSans-35" transform="translate(297.607422 0)"/>
     </g>
    </g>
   </g>
  </g>
  <g id="axes_3">
   <g id="patch_17">
    <path d="M 759.309586 317.25225 
L 1058.547812 317.25225 
L 1058.547812 31.99625 
L 759.309586 31.99625 
z
" style="fill: #111111"/>
   </g>
   <g id="FillBetweenPolyCollection_1">
    <defs>
     <path id="mf4ab7f5b24" d="M 759.309586 -296.409912 
L 759.309586 -61.420911 
L 760.813296 -61.420911 
L 762.317005 -61.420911 
L 763.820715 -61.420911 
L 765.324425 -61.420911 
L 766.828135 -61.420911 
L 768.331844 -61.420911 
L 769.835554 -61.420911 
L 771.339264 -61.420911 
L 772.842973 -61.420911 
L 774.346683 -61.420911 
L 775.850393 -61.420911 
L 777.354102 -61.420911 
L 778.857812 -61.420911 
L 780.361522 -61.420911 
L 781.865231 -61.420911 
L 783.368941 -61.420911 
L 784.872651 -61.420911 
L 786.37636 -61.420911 
L 787.88007 -61.420911 
L 789.38378 -61.420911 
L 790.887489 -61.420911 
L 792.391199 -61.420911 
L 793.894909 -61.420911 
L 795.398618 -61.420911 
L 796.902328 -61.420911 
L 798.406038 -61.420911 
L 799.909747 -61.420911 
L 801.413457 -61.420911 
L 802.917167 -61.420911 
L 804.420877 -61.420911 
L 805.924586 -61.420911 
L 807.428296 -61.420911 
L 808.932006 -61.420911 
L 810.435715 -61.420911 
L 811.939425 -61.420911 
L 813.443135 -61.420911 
L 814.946844 -61.420911 
L 816.450554 -61.420911 
L 817.954264 -61.420911 
L 819.457973 -61.420911 
L 820.961683 -61.420911 
L 822.465393 -61.420911 
L 823.969102 -61.420911 
L 825.472812 -61.420911 
L 826.976522 -61.420911 
L 828.480231 -61.420911 
L 829.983941 -61.420911 
L 831.487651 -61.420911 
L 832.99136 -61.420911 
L 834.49507 -61.420911 
L 835.99878 -61.420911 
L 837.502489 -61.420911 
L 839.006199 -61.420911 
L 840.509909 -61.420911 
L 842.013619 -61.420911 
L 843.517328 -61.420911 
L 845.021038 -61.420911 
L 846.524748 -61.420911 
L 848.028457 -61.420911 
L 849.532167 -61.420911 
L 851.035877 -61.420911 
L 852.539586 -61.420911 
L 854.043296 -61.420911 
L 855.547006 -61.420911 
L 857.050715 -61.420911 
L 858.554425 -61.420911 
L 860.058135 -61.420911 
L 861.561844 -61.420911 
L 863.065554 -61.420911 
L 864.569264 -61.420911 
L 866.072973 -61.420911 
L 867.576683 -61.420911 
L 869.080393 -61.420911 
L 870.584102 -61.420911 
L 872.087812 -61.420911 
L 873.591522 -61.420911 
L 873.591522 -63.133323 
L 873.591522 -63.133323 
L 872.087812 -65.066131 
L 870.584102 -67.000793 
L 869.080393 -68.938293 
L 867.576683 -70.879617 
L 866.072973 -72.825752 
L 864.569264 -74.777689 
L 863.065554 -76.736419 
L 861.561844 -78.702939 
L 860.058135 -80.67825 
L 858.554425 -82.663356 
L 857.050715 -84.659267 
L 855.547006 -86.666999 
L 854.043296 -88.687571 
L 852.539586 -90.722013 
L 851.035877 -92.771359 
L 849.532167 -94.836651 
L 848.028457 -96.91894 
L 846.524748 -99.019285 
L 845.021038 -101.138754 
L 843.517328 -103.278426 
L 842.013619 -105.439389 
L 840.509909 -107.622741 
L 839.006199 -109.829594 
L 837.502489 -112.06107 
L 835.99878 -114.318304 
L 834.49507 -116.602444 
L 832.99136 -118.914653 
L 831.487651 -121.256105 
L 829.983941 -123.627993 
L 828.480231 -126.031522 
L 826.976522 -128.467915 
L 825.472812 -130.938411 
L 823.969102 -133.444268 
L 822.465393 -135.986759 
L 820.961683 -138.567178 
L 819.457973 -141.186837 
L 817.954264 -143.847069 
L 816.450554 -146.549227 
L 814.946844 -149.294686 
L 813.443135 -152.084841 
L 811.939425 -154.921113 
L 810.435715 -157.804943 
L 808.932006 -160.737799 
L 807.428296 -163.721172 
L 805.924586 -166.75658 
L 804.420877 -169.845567 
L 802.917167 -172.989704 
L 801.413457 -176.19059 
L 799.909747 -179.449854 
L 798.406038 -182.769153 
L 796.902328 -186.150176 
L 795.398618 -189.594642 
L 793.894909 -193.104303 
L 792.391199 -196.680945 
L 790.887489 -200.326387 
L 789.38378 -204.042483 
L 787.88007 -207.831124 
L 786.37636 -211.694235 
L 784.872651 -215.633783 
L 783.368941 -219.651772 
L 781.865231 -223.750244 
L 780.361522 -227.931284 
L 778.857812 -232.19702 
L 777.354102 -236.549621 
L 775.850393 -240.991301 
L 774.346683 -245.52432 
L 772.842973 -250.150982 
L 771.339264 -254.873641 
L 769.835554 -259.6947 
L 768.331844 -264.616611 
L 766.828135 -269.641877 
L 765.324425 -274.773054 
L 763.820715 -280.012753 
L 762.317005 -285.363638 
L 760.813296 -290.828431 
L 759.309586 -296.409912 
z
" style="stroke: #ff4444; stroke-opacity: 0.15"/>
    </defs>
    <g clip-path="url(#p06311ec9fb)">
     <use xlink:href="#mf4ab7f5b24" x="0" y="351.905062" style="fill: #ff4444; fill-opacity: 0.15; stroke: #ff4444; stroke-opacity: 0.15"/>
    </g>
   </g>
   <g id="matplotlib.axis_5">
    <g id="xtick_11">
     <g id="line2d_29">
      <g>
       <use xlink:href="#m39af229c3d" x="759.309586" y="317.25225" style="fill: #cccccc; stroke: #cccccc; stroke-width: 0.8"/>
      </g>
     </g>
     <g id="text_45">
      <!-- 0.0 -->
      <g style="fill: #cccccc" transform="translate(752.948336 330.331) scale(0.08 -0.08)">
       <use xlink:href="#DejaVuSans-30"/>
       <use xlink:href="#DejaVuSans-2e" transform="translate(63.623047 0)"/>
       <use xlink:href="#DejaVuSans-30" transform="translate(95.410156 0)"/>
      </g>
     </g>
    </g>
    <g id="xtick_12">
     <g id="line2d_30">
      <g>
       <use xlink:href="#m39af229c3d" x="819.157231" y="317.25225" style="fill: #cccccc; stroke: #cccccc; stroke-width: 0.8"/>
      </g>
     </g>
     <g id="text_46">
      <!-- 0.2 -->
      <g style="fill: #cccccc" transform="translate(812.795981 330.331) scale(0.08 -0.08)">
       <use xlink:href="#DejaVuSans-30"/>
       <use xlink:href="#DejaVuSans-2e" transform="translate(63.623047 0)"/>
       <use xlink:href="#DejaVuSans-32" transform="translate(95.410156 0)"/>
      </g>
     </g>
    </g>
    <g id="xtick_13">
     <g id="line2d_31">
      <g>
       <use xlink:href="#m39af229c3d" x="879.004877" y="317.25225" style="fill: #cccccc; stroke: #cccccc; stroke-width: 0.8"/>
      </g>
     </g>
     <g id="text_47">
      <!-- 0.4 -->
      <g style="fill: #cccccc" transform="translate(872.643627 330.331) scale(0.08 -0.08)">
       <use xlink:href="#DejaVuSans-30"/>
       <use xlink:href="#DejaVuSans-2e" transform="translate(63.623047 0)"/>
       <use xlink:href="#DejaVuSans-34" transform="translate(95.410156 0)"/>
      </g>
     </g>
    </g>
    <g id="xtick_14">
     <g id="line2d_32">
      <g>
       <use xlink:href="#m39af229c3d" x="938.852522" y="317.25225" style="fill: #cccccc; stroke: #cccccc; stroke-width: 0.8"/>
      </g>
     </g>
     <g id="text_48">
      <!-- 0.6 -->
      <g style="fill: #cccccc" transform="translate(932.491272 330.331) scale(0.08 -0.08)">
       <use xlink:href="#DejaVuSans-30"/>
       <use xlink:href="#DejaVuSans-2e" transform="translate(63.623047 0)"/>
       <use xlink:href="#DejaVuSans-36" transform="translate(95.410156 0)"/>
      </g>
     </g>
    </g>
    <g id="xtick_15">
     <g id="line2d_33">
      <g>
       <use xlink:href="#m39af229c3d" x="998.700167" y="317.25225" style="fill: #cccccc; stroke: #cccccc; stroke-width: 0.8"/>
      </g>
     </g>
     <g id="text_49">
      <!-- 0.8 -->
      <g style="fill: #cccccc" transform="translate(992.338917 330.331) scale(0.08 -0.08)">
       <use xlink:href="#DejaVuSans-30"/>
       <use xlink:href="#DejaVuSans-2e" transform="translate(63.623047 0)"/>
       <use xlink:href="#DejaVuSans-38" transform="translate(95.410156 0)"/>
      </g>
     </g>
    </g>
    <g id="xtick_16">
     <g id="line2d_34">
      <g>
       <use xlink:href="#m39af229c3d" x="1058.547812" y="317.25225" style="fill: #cccccc; stroke: #cccccc; stroke-width: 0.8"/>
      </g>
     </g>
     <g id="text_50">
      <!-- 1.0 -->
      <g style="fill: #cccccc" transform="translate(1052.186563 330.331) scale(0.08 -0.08)">
       <use xlink:href="#DejaVuSans-31"/>
       <use xlink:href="#DejaVuSans-2e" transform="translate(63.623047 0)"/>
       <use xlink:href="#DejaVuSans-30" transform="translate(95.410156 0)"/>
      </g>
     </g>
    </g>
    <g id="text_51">
     <!-- Constraint c (drug effectiveness) -->
     <g style="fill: #cccccc" transform="translate(834.971199 342.833344) scale(0.09 -0.09)">
      <defs>
       <path id="DejaVuSans-66" d="M 2375 4863 
L 2375 4384 
L 1825 4384 
Q 1516 4384 1395 4259 
Q 1275 4134 1275 3809 
L 1275 3500 
L 2222 3500 
L 2222 3053 
L 1275 3053 
L 1275 0 
L 697 0 
L 697 3053 
L 147 3053 
L 147 3500 
L 697 3500 
L 697 3744 
Q 697 4328 969 4595 
Q 1241 4863 1831 4863 
L 2375 4863 
z
" transform="scale(0.015625)"/>
      </defs>
      <use xlink:href="#DejaVuSans-43"/>
      <use xlink:href="#DejaVuSans-6f" transform="translate(69.824219 0)"/>
      <use xlink:href="#DejaVuSans-6e" transform="translate(131.005859 0)"/>
      <use xlink:href="#DejaVuSans-73" transform="translate(194.384766 0)"/>
      <use xlink:href="#DejaVuSans-74" transform="translate(246.484375 0)"/>
      <use xlink:href="#DejaVuSans-72" transform="translate(285.693359 0)"/>
      <use xlink:href="#DejaVuSans-61" transform="translate(326.806641 0)"/>
      <use xlink:href="#DejaVuSans-69" transform="translate(388.085938 0)"/>
      <use xlink:href="#DejaVuSans-6e" transform="translate(415.869141 0)"/>
      <use xlink:href="#DejaVuSans-74" transform="translate(479.248047 0)"/>
      <use xlink:href="#DejaVuSans-20" transform="translate(518.457031 0)"/>
      <use xlink:href="#DejaVuSans-63" transform="translate(550.244141 0)"/>
      <use xlink:href="#DejaVuSans-20" transform="translate(605.224609 0)"/>
      <use xlink:href="#DejaVuSans-28" transform="translate(637.011719 0)"/>
      <use xlink:href="#DejaVuSans-64" transform="translate(676.025391 0)"/>
      <use xlink:href="#DejaVuSans-72" transform="translate(739.501953 0)"/>
      <use xlink:href="#DejaVuSans-75" transform="translate(780.615234 0)"/>
      <use xlink:href="#DejaVuSans-67" transform="translate(843.994141 0)"/>
      <use xlink:href="#DejaVuSans-20" transform="translate(907.470703 0)"/>
      <use xlink:href="#DejaVuSans-65" transform="translate(939.257812 0)"/>
      <use xlink:href="#DejaVuSans-66" transform="translate(1000.78125 0)"/>
      <use xlink:href="#DejaVuSans-66" transform="translate(1035.986328 0)"/>
      <use xlink:href="#DejaVuSans-65" transform="translate(1071.191406 0)"/>
      <use xlink:href="#DejaVuSans-63" transform="translate(1132.714844 0)"/>
      <use xlink:href="#DejaVuSans-74" transform="translate(1187.695312 0)"/>
      <use xlink:href="#DejaVuSans-69" transform="translate(1226.904297 0)"/>
      <use xlink:href="#DejaVuSans-76" transform="translate(1254.6875 0)"/>
      <use xlink:href="#DejaVuSans-65" transform="translate(1313.867188 0)"/>
      <use xlink:href="#DejaVuSans-6e" transform="translate(1375.390625 0)"/>
      <use xlink:href="#DejaVuSans-65" transform="translate(1438.769531 0)"/>
      <use xlink:href="#DejaVuSans-73" transform="translate(1500.292969 0)"/>
      <use xlink:href="#DejaVuSans-73" transform="translate(1552.392578 0)"/>
      <use xlink:href="#DejaVuSans-29" transform="translate(1604.492188 0)"/>
     </g>
    </g>
   </g>
   <g id="matplotlib.axis_6">
    <g id="ytick_15">
     <g id="line2d_35">
      <g>
       <use xlink:href="#m51ddcb5c33" x="759.309586" y="290.484151" style="fill: #cccccc; stroke: #cccccc; stroke-width: 0.8"/>
      </g>
     </g>
     <g id="text_52">
      <!-- 0 -->
      <g style="fill: #cccccc" transform="translate(747.219586 293.523526) scale(0.08 -0.08)">
       <use xlink:href="#DejaVuSans-30"/>
      </g>
     </g>
    </g>
    <g id="ytick_16">
     <g id="line2d_36">
      <g>
       <use xlink:href="#m51ddcb5c33" x="759.309586" y="236.947954" style="fill: #cccccc; stroke: #cccccc; stroke-width: 0.8"/>
      </g>
     </g>
     <g id="text_53">
      <!-- 10 -->
      <g style="fill: #cccccc" transform="translate(742.129586 239.987329) scale(0.08 -0.08)">
       <use xlink:href="#DejaVuSans-31"/>
       <use xlink:href="#DejaVuSans-30" transform="translate(63.623047 0)"/>
      </g>
     </g>
    </g>
    <g id="ytick_17">
     <g id="line2d_37">
      <g>
       <use xlink:href="#m51ddcb5c33" x="759.309586" y="183.411757" style="fill: #cccccc; stroke: #cccccc; stroke-width: 0.8"/>
      </g>
     </g>
     <g id="text_54">
      <!-- 20 -->
      <g style="fill: #cccccc" transform="translate(742.129586 186.451132) scale(0.08 -0.08)">
       <use xlink:href="#DejaVuSans-32"/>
       <use xlink:href="#DejaVuSans-30" transform="translate(63.623047 0)"/>
      </g>
     </g>
    </g>
    <g id="ytick_18">
     <g id="line2d_38">
      <g>
       <use xlink:href="#m51ddcb5c33" x="759.309586" y="129.87556" style="fill: #cccccc; stroke: #cccccc; stroke-width: 0.8"/>
      </g>
     </g>
     <g id="text_55">
      <!-- 30 -->
      <g style="fill: #cccccc" transform="translate(742.129586 132.914935) scale(0.08 -0.08)">
       <use xlink:href="#DejaVuSans-33"/>
       <use xlink:href="#DejaVuSans-30" transform="translate(63.623047 0)"/>
      </g>
     </g>
    </g>
    <g id="ytick_19">
     <g id="line2d_39">
      <g>
       <use xlink:href="#m51ddcb5c33" x="759.309586" y="76.339362" style="fill: #cccccc; stroke: #cccccc; stroke-width: 0.8"/>
      </g>
     </g>
     <g id="text_56">
      <!-- 40 -->
      <g style="fill: #cccccc" transform="translate(742.129586 79.378737) scale(0.08 -0.08)">
       <use xlink:href="#DejaVuSans-34"/>
       <use xlink:href="#DejaVuSans-30" transform="translate(63.623047 0)"/>
      </g>
     </g>
    </g>
    <g id="text_57">
     <!-- Pe (selection pressure) -->
     <g style="fill: #cccccc" transform="translate(736.257867 225.973469) rotate(-90) scale(0.09 -0.09)">
      <use xlink:href="#DejaVuSans-50"/>
      <use xlink:href="#DejaVuSans-65" transform="translate(56.677734 0)"/>
      <use xlink:href="#DejaVuSans-20" transform="translate(118.201172 0)"/>
      <use xlink:href="#DejaVuSans-28" transform="translate(149.988281 0)"/>
      <use xlink:href="#DejaVuSans-73" transform="translate(189.001953 0)"/>
      <use xlink:href="#DejaVuSans-65" transform="translate(241.101562 0)"/>
      <use xlink:href="#DejaVuSans-6c" transform="translate(302.625 0)"/>
      <use xlink:href="#DejaVuSans-65" transform="translate(330.408203 0)"/>
      <use xlink:href="#DejaVuSans-63" transform="translate(391.931641 0)"/>
      <use xlink:href="#DejaVuSans-74" transform="translate(446.912109 0)"/>
      <use xlink:href="#DejaVuSans-69" transform="translate(486.121094 0)"/>
      <use xlink:href="#DejaVuSans-6f" transform="translate(513.904297 0)"/>
      <use xlink:href="#DejaVuSans-6e" transform="translate(575.085938 0)"/>
      <use xlink:href="#DejaVuSans-20" transform="translate(638.464844 0)"/>
      <use xlink:href="#DejaVuSans-70" transform="translate(670.251953 0)"/>
      <use xlink:href="#DejaVuSans-72" transform="translate(733.728516 0)"/>
      <use xlink:href="#DejaVuSans-65" transform="translate(772.591797 0)"/>
      <use xlink:href="#DejaVuSans-73" transform="translate(834.115234 0)"/>
      <use xlink:href="#DejaVuSans-73" transform="translate(886.214844 0)"/>
      <use xlink:href="#DejaVuSans-75" transform="translate(938.314453 0)"/>
      <use xlink:href="#DejaVuSans-72" transform="translate(1001.693359 0)"/>
      <use xlink:href="#DejaVuSans-65" transform="translate(1040.556641 0)"/>
      <use xlink:href="#DejaVuSans-29" transform="translate(1102.080078 0)"/>
     </g>
    </g>
   </g>
   <g id="line2d_40">
    <path d="M 759.309586 55.49515 
L 763.820715 71.892309 
L 768.331844 87.288451 
L 772.842973 101.754081 
L 777.354102 115.355441 
L 781.865231 128.154819 
L 786.37636 140.210827 
L 790.887489 151.578675 
L 795.398618 162.310421 
L 799.909747 172.455208 
L 804.420877 182.059496 
L 808.932006 191.167264 
L 813.443135 199.820221 
L 817.954264 208.057993 
L 822.465393 215.918304 
L 828.480231 225.873541 
L 834.49507 235.302618 
L 840.509909 244.282321 
L 846.524748 252.885778 
L 854.043296 263.217491 
L 863.065554 275.168644 
L 873.591522 288.77174 
L 875.095232 290.484151 
L 1058.547812 290.484151 
L 1058.547812 290.484151 
" clip-path="url(#p06311ec9fb)" style="fill: none; stroke: #ff4444; stroke-width: 2; stroke-linecap: square"/>
   </g>
   <g id="line2d_41">
    <path d="M 759.309586 317.25225 
L 759.309586 31.99625 
" clip-path="url(#p06311ec9fb)" style="fill: none; stroke-dasharray: 1.5,2.475; stroke-dashoffset: 0; stroke: #ff2222; stroke-opacity: 0.7; stroke-width: 1.5"/>
   </g>
   <g id="line2d_42">
    <path d="M 864.042965 317.25225 
L 864.042965 31.99625 
" clip-path="url(#p06311ec9fb)" style="fill: none; stroke-dasharray: 5.55,2.4; stroke-dashoffset: 0; stroke: #ffaa00; stroke-opacity: 0.7; stroke-width: 1.5"/>
   </g>
   <g id="line2d_43">
    <path d="M 774.271497 317.25225 
L 774.271497 31.99625 
" clip-path="url(#p06311ec9fb)" style="fill: none; stroke-dasharray: 5.55,2.4; stroke-dashoffset: 0; stroke: #4488cc; stroke-opacity: 0.7; stroke-width: 1.5"/>
   </g>
   <g id="line2d_44">
    <path d="M 759.309586 290.484151 
L 1058.547812 290.484151 
" clip-path="url(#p06311ec9fb)" style="fill: none; stroke: #888888; stroke-width: 0.5; stroke-linecap: square"/>
   </g>
   <g id="patch_18">
    <path d="M 759.309586 317.25225 
L 759.309586 31.99625 
" style="fill: none; stroke: #333333; stroke-width: 0.8; stroke-linejoin: miter; stroke-linecap: square"/>
   </g>
   <g id="patch_19">
    <path d="M 1058.547812 317.25225 
L 1058.547812 31.99625 
" style="fill: none; stroke: #333333; stroke-width: 0.8; stroke-linejoin: miter; stroke-linecap: square"/>
   </g>
   <g id="patch_20">
    <path d="M 759.309586 317.25225 
L 1058.547812 317.25225 
" style="fill: none; stroke: #333333; stroke-width: 0.8; stroke-linejoin: miter; stroke-linecap: square"/>
   </g>
   <g id="patch_21">
    <path d="M 759.309586 31.99625 
L 1058.547812 31.99625 
" style="fill: none; stroke: #333333; stroke-width: 0.8; stroke-linejoin: miter; stroke-linecap: square"/>
   </g>
   <g id="text_58">
    <!-- Drug Resistance as Pe Cascade -->
    <g style="fill: #ffffff" transform="translate(830.577918 14.798437) scale(0.1 -0.1)">
     <use xlink:href="#DejaVuSans-44"/>
     <use xlink:href="#DejaVuSans-72" transform="translate(77.001953 0)"/>
     <use xlink:href="#DejaVuSans-75" transform="translate(118.115234 0)"/>
     <use xlink:href="#DejaVuSans-67" transform="translate(181.494141 0)"/>
     <use xlink:href="#DejaVuSans-20" transform="translate(244.970703 0)"/>
     <use xlink:href="#DejaVuSans-52" transform="translate(276.757812 0)"/>
     <use xlink:href="#DejaVuSans-65" transform="translate(341.740234 0)"/>
     <use xlink:href="#DejaVuSans-73" transform="translate(403.263672 0)"/>
     <use xlink:href="#DejaVuSans-69" transform="translate(455.363281 0)"/>
     <use xlink:href="#DejaVuSans-73" transform="translate(483.146484 0)"/>
     <use xlink:href="#DejaVuSans-74" transform="translate(535.246094 0)"/>
     <use xlink:href="#DejaVuSans-61" transform="translate(574.455078 0)"/>
     <use xlink:href="#DejaVuSans-6e" transform="translate(635.734375 0)"/>
     <use xlink:href="#DejaVuSans-63" transform="translate(699.113281 0)"/>
     <use xlink:href="#DejaVuSans-65" transform="translate(754.09375 0)"/>
     <use xlink:href="#DejaVuSans-20" transform="translate(815.617188 0)"/>
     <use xlink:href="#DejaVuSans-61" transform="translate(847.404297 0)"/>
     <use xlink:href="#DejaVuSans-73" transform="translate(908.683594 0)"/>
     <use xlink:href="#DejaVuSans-20" transform="translate(960.783203 0)"/>
     <use xlink:href="#DejaVuSans-50" transform="translate(992.570312 0)"/>
     <use xlink:href="#DejaVuSans-65" transform="translate(1049.248047 0)"/>
     <use xlink:href="#DejaVuSans-20" transform="translate(1110.771484 0)"/>
     <use xlink:href="#DejaVuSans-43" transform="translate(1142.558594 0)"/>
     <use xlink:href="#DejaVuSans-61" transform="translate(1212.382812 0)"/>
     <use xlink:href="#DejaVuSans-73" transform="translate(1273.662109 0)"/>
     <use xlink:href="#DejaVuSans-63" transform="translate(1325.761719 0)"/>
     <use xlink:href="#DejaVuSans-61" transform="translate(1380.742188 0)"/>
     <use xlink:href="#DejaVuSans-64" transform="translate(1442.021484 0)"/>
     <use xlink:href="#DejaVuSans-65" transform="translate(1505.498047 0)"/>
    </g>
    <!-- (GBM: V=9 tumor) -->
    <g style="fill: #ffffff" transform="translate(862.640418 25.99625) scale(0.1 -0.1)">
     <defs>
      <path id="DejaVuSans-42" d="M 1259 2228 
L 1259 519 
L 2272 519 
Q 2781 519 3026 730 
Q 3272 941 3272 1375 
Q 3272 1813 3026 2020 
Q 2781 2228 2272 2228 
L 1259 2228 
z
M 1259 4147 
L 1259 2741 
L 2194 2741 
Q 2656 2741 2882 2914 
Q 3109 3088 3109 3444 
Q 3109 3797 2882 3972 
Q 2656 4147 2194 4147 
L 1259 4147 
z
M 628 4666 
L 2241 4666 
Q 2963 4666 3353 4366 
Q 3744 4066 3744 3513 
Q 3744 3084 3544 2831 
Q 3344 2578 2956 2516 
Q 3422 2416 3680 2098 
Q 3938 1781 3938 1306 
Q 3938 681 3513 340 
Q 3088 0 2303 0 
L 628 0 
L 628 4666 
z
" transform="scale(0.015625)"/>
      <path id="DejaVuSans-3a" d="M 750 794 
L 1409 794 
L 1409 0 
L 750 0 
L 750 794 
z
M 750 3309 
L 1409 3309 
L 1409 2516 
L 750 2516 
L 750 3309 
z
" transform="scale(0.015625)"/>
     </defs>
     <use xlink:href="#DejaVuSans-28"/>
     <use xlink:href="#DejaVuSans-47" transform="translate(39.013672 0)"/>
     <use xlink:href="#DejaVuSans-42" transform="translate(116.503906 0)"/>
     <use xlink:href="#DejaVuSans-4d" transform="translate(185.107422 0)"/>
     <use xlink:href="#DejaVuSans-3a" transform="translate(271.386719 0)"/>
     <use xlink:href="#DejaVuSans-20" transform="translate(305.078125 0)"/>
     <use xlink:href="#DejaVuSans-56" transform="translate(336.865234 0)"/>
     <use xlink:href="#DejaVuSans-3d" transform="translate(405.273438 0)"/>
     <use xlink:href="#DejaVuSans-39" transform="translate(489.0625 0)"/>
     <use xlink:href="#DejaVuSans-20" transform="translate(552.685547 0)"/>
     <use xlink:href="#DejaVuSans-74" transform="translate(584.472656 0)"/>
     <use xlink:href="#DejaVuSans-75" transform="translate(623.681641 0)"/>
     <use xlink:href="#DejaVuSans-6d" transform="translate(687.060547 0)"/>
     <use xlink:href="#DejaVuSans-6f" transform="translate(784.472656 0)"/>
     <use xlink:href="#DejaVuSans-72" transform="translate(845.654297 0)"/>
     <use xlink:href="#DejaVuSans-29" transform="translate(886.767578 0)"/>
    </g>
   </g>
   <g id="legend_3">
    <g id="patch_22">
     <path d="M 958.370625 75.359375 
L 1053.997813 75.359375 
Q 1055.297812 75.359375 1055.297812 74.059375 
L 1055.297812 36.54625 
Q 1055.297812 35.24625 1053.997813 35.24625 
L 958.370625 35.24625 
Q 957.070625 35.24625 957.070625 36.54625 
L 957.070625 74.059375 
Q 957.070625 75.359375 958.370625 75.359375 
z
" style="fill: #ffffff; opacity: 0.2; stroke: #cccccc; stroke-linejoin: miter"/>
    </g>
    <g id="line2d_45">
     <path d="M 959.670625 40.510234 
L 966.170625 40.510234 
L 972.670625 40.510234 
" style="fill: none; stroke: #ff4444; stroke-width: 2; stroke-linecap: square"/>
    </g>
    <g id="text_59">
     <!-- Pe(c) -->
     <g style="fill: #cccccc" transform="translate(977.870625 42.785234) scale(0.065 -0.065)">
      <use xlink:href="#DejaVuSans-50"/>
      <use xlink:href="#DejaVuSans-65" transform="translate(56.677734 0)"/>
      <use xlink:href="#DejaVuSans-28" transform="translate(118.201172 0)"/>
      <use xlink:href="#DejaVuSans-63" transform="translate(157.214844 0)"/>
      <use xlink:href="#DejaVuSans-29" transform="translate(212.195312 0)"/>
     </g>
    </g>
    <g id="line2d_46">
     <path d="M 959.670625 50.051016 
L 966.170625 50.051016 
L 972.670625 50.051016 
" style="fill: none; stroke-dasharray: 1.5,2.475; stroke-dashoffset: 0; stroke: #ff2222; stroke-opacity: 0.7; stroke-width: 1.5"/>
    </g>
    <g id="text_60">
     <!-- Pre-treatment c=0.00 -->
     <g style="fill: #cccccc" transform="translate(977.870625 52.326016) scale(0.065 -0.065)">
      <use xlink:href="#DejaVuSans-50"/>
      <use xlink:href="#DejaVuSans-72" transform="translate(58.552734 0)"/>
      <use xlink:href="#DejaVuSans-65" transform="translate(97.416016 0)"/>
      <use xlink:href="#DejaVuSans-2d" transform="translate(158.939453 0)"/>
      <use xlink:href="#DejaVuSans-74" transform="translate(195.023438 0)"/>
      <use xlink:href="#DejaVuSans-72" transform="translate(234.232422 0)"/>
      <use xlink:href="#DejaVuSans-65" transform="translate(273.095703 0)"/>
      <use xlink:href="#DejaVuSans-61" transform="translate(334.619141 0)"/>
      <use xlink:href="#DejaVuSans-74" transform="translate(395.898438 0)"/>
      <use xlink:href="#DejaVuSans-6d" transform="translate(435.107422 0)"/>
      <use xlink:href="#DejaVuSans-65" transform="translate(532.519531 0)"/>
      <use xlink:href="#DejaVuSans-6e" transform="translate(594.042969 0)"/>
      <use xlink:href="#DejaVuSans-74" transform="translate(657.421875 0)"/>
      <use xlink:href="#DejaVuSans-20" transform="translate(696.630859 0)"/>
      <use xlink:href="#DejaVuSans-63" transform="translate(728.417969 0)"/>
      <use xlink:href="#DejaVuSans-3d" transform="translate(783.398438 0)"/>
      <use xlink:href="#DejaVuSans-30" transform="translate(867.1875 0)"/>
      <use xlink:href="#DejaVuSans-2e" transform="translate(930.810547 0)"/>
      <use xlink:href="#DejaVuSans-30" transform="translate(962.597656 0)"/>
      <use xlink:href="#DejaVuSans-30" transform="translate(1026.220703 0)"/>
     </g>
    </g>
    <g id="line2d_47">
     <path d="M 959.670625 59.591797 
L 966.170625 59.591797 
L 972.670625 59.591797 
" style="fill: none; stroke-dasharray: 5.55,2.4; stroke-dashoffset: 0; stroke: #ffaa00; stroke-opacity: 0.7; stroke-width: 1.5"/>
    </g>
    <g id="text_61">
     <!-- On TMZ c=0.35 -->
     <g style="fill: #cccccc" transform="translate(977.870625 61.866797) scale(0.065 -0.065)">
      <defs>
       <path id="DejaVuSans-5a" d="M 359 4666 
L 4025 4666 
L 4025 4184 
L 1075 531 
L 4097 531 
L 4097 0 
L 288 0 
L 288 481 
L 3238 4134 
L 359 4134 
L 359 4666 
z
" transform="scale(0.015625)"/>
      </defs>
      <use xlink:href="#DejaVuSans-4f"/>
      <use xlink:href="#DejaVuSans-6e" transform="translate(78.710938 0)"/>
      <use xlink:href="#DejaVuSans-20" transform="translate(142.089844 0)"/>
      <use xlink:href="#DejaVuSans-54" transform="translate(173.876953 0)"/>
      <use xlink:href="#DejaVuSans-4d" transform="translate(234.960938 0)"/>
      <use xlink:href="#DejaVuSans-5a" transform="translate(321.240234 0)"/>
      <use xlink:href="#DejaVuSans-20" transform="translate(389.746094 0)"/>
      <use xlink:href="#DejaVuSans-63" transform="translate(421.533203 0)"/>
      <use xlink:href="#DejaVuSans-3d" transform="translate(476.513672 0)"/>
      <use xlink:href="#DejaVuSans-30" transform="translate(560.302734 0)"/>
      <use xlink:href="#DejaVuSans-2e" transform="translate(623.925781 0)"/>
      <use xlink:href="#DejaVuSans-33" transform="translate(655.712891 0)"/>
      <use xlink:href="#DejaVuSans-35" transform="translate(719.335938 0)"/>
     </g>
    </g>
    <g id="line2d_48">
     <path d="M 959.670625 69.132578 
L 966.170625 69.132578 
L 972.670625 69.132578 
" style="fill: none; stroke-dasharray: 5.55,2.4; stroke-dashoffset: 0; stroke: #4488cc; stroke-opacity: 0.7; stroke-width: 1.5"/>
    </g>
    <g id="text_62">
     <!-- Post-resistance c=0.05 -->
     <g style="fill: #cccccc" transform="translate(977.870625 71.407578) scale(0.065 -0.065)">
      <use xlink:href="#DejaVuSans-50"/>
      <use xlink:href="#DejaVuSans-6f" transform="translate(56.677734 0)"/>
      <use xlink:href="#DejaVuSans-73" transform="translate(117.859375 0)"/>
      <use xlink:href="#DejaVuSans-74" transform="translate(169.958984 0)"/>
      <use xlink:href="#DejaVuSans-2d" transform="translate(209.167969 0)"/>
      <use xlink:href="#DejaVuSans-72" transform="translate(245.251953 0)"/>
      <use xlink:href="#DejaVuSans-65" transform="translate(284.115234 0)"/>
      <use xlink:href="#DejaVuSans-73" transform="translate(345.638672 0)"/>
      <use xlink:href="#DejaVuSans-69" transform="translate(397.738281 0)"/>
      <use xlink:href="#DejaVuSans-73" transform="translate(425.521484 0)"/>
      <use xlink:href="#DejaVuSans-74" transform="translate(477.621094 0)"/>
      <use xlink:href="#DejaVuSans-61" transform="translate(516.830078 0)"/>
      <use xlink:href="#DejaVuSans-6e" transform="translate(578.109375 0)"/>
      <use xlink:href="#DejaVuSans-63" transform="translate(641.488281 0)"/>
      <use xlink:href="#DejaVuSans-65" transform="translate(696.46875 0)"/>
      <use xlink:href="#DejaVuSans-20" transform="translate(757.992188 0)"/>
      <use xlink:href="#DejaVuSans-63" transform="translate(789.779297 0)"/>
      <use xlink:href="#DejaVuSans-3d" transform="translate(844.759766 0)"/>
      <use xlink:href="#DejaVuSans-30" transform="translate(928.548828 0)"/>
      <use xlink:href="#DejaVuSans-2e" transform="translate(992.171875 0)"/>
      <use xlink:href="#DejaVuSans-30" transform="translate(1023.958984 0)"/>
      <use xlink:href="#DejaVuSans-35" transform="translate(1087.582031 0)"/>
     </g>
    </g>
   </g>
  </g>
 </g>
 <defs>
  <clipPath id="p67cec1b5c1">
   <rect x="39.632812" y="31.99625" width="299.238226" height="285.256"/>
  </clipPath>
  <clipPath id="p6bb29d7a9b">
   <rect x="399.471199" y="31.99625" width="299.238226" height="285.256"/>
  </clipPath>
  <clipPath id="p06311ec9fb">
   <rect x="759.309586" y="31.99625" width="299.238226" height="285.256"/>
  </clipPath>
 </defs>
</svg>
